%TF.GenerationSoftware,KiCad,Pcbnew,(6.99.0-1793-ga56955443f)*%
%TF.CreationDate,2022-12-11T18:47:06+00:00*%
%TF.ProjectId,Watchy-MrT-ESP32-S3-V1,57617463-6879-42d4-9d72-542d45535033,rev?*%
%TF.SameCoordinates,Original*%
%TF.FileFunction,Copper,L4,Bot*%
%TF.FilePolarity,Positive*%
%FSLAX46Y46*%
G04 Gerber Fmt 4.6, Leading zero omitted, Abs format (unit mm)*
G04 Created by KiCad (PCBNEW (6.99.0-1793-ga56955443f)) date 2022-12-11 18:47:06*
%MOMM*%
%LPD*%
G01*
G04 APERTURE LIST*
%TA.AperFunction,ViaPad*%
%ADD10C,0.450000*%
%TD*%
%TA.AperFunction,ViaPad*%
%ADD11C,0.600000*%
%TD*%
%TA.AperFunction,Conductor*%
%ADD12C,0.150000*%
%TD*%
%TA.AperFunction,Conductor*%
%ADD13C,0.300000*%
%TD*%
G04 APERTURE END LIST*
D10*
%TO.N,GND*%
X142900000Y-66500000D03*
X141200000Y-67300000D03*
X136300000Y-61900000D03*
X135400000Y-61600000D03*
X126400000Y-84500000D03*
X116200000Y-81000000D03*
X139300000Y-91200000D03*
X140100000Y-91200000D03*
X140900000Y-91200000D03*
X141700000Y-91200000D03*
X142600000Y-91200000D03*
X142600000Y-92800000D03*
X141700000Y-92800000D03*
X140900000Y-92800000D03*
X140000000Y-92800000D03*
X139100000Y-92800000D03*
X138200000Y-92800000D03*
X137300000Y-92800000D03*
X136400000Y-92800000D03*
X135500000Y-92800000D03*
X136000000Y-69000000D03*
X140600000Y-55600000D03*
X141200000Y-55600000D03*
X114000000Y-72200000D03*
X113600000Y-72900000D03*
X114400000Y-72900000D03*
X115200000Y-70900000D03*
X116800000Y-71000000D03*
%TO.N,VCC*%
X116900000Y-83400000D03*
X117100000Y-79400000D03*
X115000000Y-67300000D03*
%TO.N,I2C_SDA*%
X127600000Y-86000000D03*
%TO.N,I2C_SCL*%
X129400000Y-86000000D03*
%TO.N,GND*%
X114000000Y-91100000D03*
X114000000Y-92000000D03*
X111300000Y-90700000D03*
X113800000Y-92800000D03*
X113000000Y-92800000D03*
X112200000Y-92800000D03*
X111400000Y-92800000D03*
X110700000Y-83000000D03*
X111600000Y-83400000D03*
X111600000Y-84100000D03*
X111500000Y-84700000D03*
X110800000Y-84700000D03*
X110100000Y-84700000D03*
D11*
X116000000Y-64200000D03*
X117300000Y-64200000D03*
X114000000Y-87000000D03*
X123000000Y-85000000D03*
X125000000Y-85000000D03*
X124000000Y-85000000D03*
X124000000Y-86000000D03*
X136000000Y-89000000D03*
X143000000Y-92000000D03*
X142000000Y-92000000D03*
X141000000Y-92000000D03*
X140000000Y-92000000D03*
X119000000Y-90000000D03*
X119000000Y-89000000D03*
X119000000Y-88000000D03*
X120000000Y-88000000D03*
X120000000Y-89000000D03*
X120000000Y-90000000D03*
X121000000Y-90000000D03*
X121000000Y-89000000D03*
X121000000Y-88000000D03*
X122000000Y-88000000D03*
X122000000Y-89000000D03*
X122000000Y-90000000D03*
X123000000Y-90000000D03*
X123000000Y-89000000D03*
X123000000Y-88000000D03*
X124000000Y-88000000D03*
X124000000Y-89000000D03*
X124000000Y-90000000D03*
X126000000Y-90000000D03*
X125000000Y-88000000D03*
X125000000Y-89000000D03*
X125000000Y-90000000D03*
X126000000Y-89000000D03*
X126000000Y-88000000D03*
X127000000Y-88000000D03*
X127000000Y-89000000D03*
X127000000Y-90000000D03*
X128000000Y-90000000D03*
X128000000Y-89000000D03*
X128000000Y-88000000D03*
X129000000Y-88000000D03*
X129000000Y-89000000D03*
X129000000Y-90000000D03*
X130000000Y-90000000D03*
X130000000Y-89000000D03*
X130000000Y-88000000D03*
X131000000Y-88000000D03*
X131000000Y-89000000D03*
X131000000Y-90000000D03*
X133000000Y-90000000D03*
X132000000Y-88000000D03*
X132000000Y-89000000D03*
X132000000Y-90000000D03*
X133000000Y-89000000D03*
X133000000Y-88000000D03*
X134000000Y-88000000D03*
X134000000Y-89000000D03*
X134000000Y-90000000D03*
X134000000Y-91000000D03*
X133000000Y-91000000D03*
X132000000Y-91000000D03*
X131000000Y-91000000D03*
X130000000Y-91000000D03*
X129000000Y-91000000D03*
X128000000Y-91000000D03*
X127000000Y-91000000D03*
X126000000Y-91000000D03*
X125000000Y-91000000D03*
X124000000Y-91000000D03*
X123000000Y-91000000D03*
X122000000Y-91000000D03*
X121000000Y-91000000D03*
X120000000Y-91000000D03*
X119000000Y-91000000D03*
X118000000Y-91000000D03*
X113000000Y-92000000D03*
X113000000Y-91000000D03*
X113000000Y-90000000D03*
X113000000Y-89000000D03*
X114000000Y-89000000D03*
X114000000Y-90000000D03*
X115000000Y-90000000D03*
X116000000Y-90000000D03*
X117000000Y-90000000D03*
X118000000Y-90000000D03*
X118000000Y-89000000D03*
X117000000Y-89000000D03*
X116000000Y-89000000D03*
X115000000Y-89000000D03*
X115000000Y-88000000D03*
X116000000Y-88000000D03*
X117000000Y-88000000D03*
X118000000Y-88000000D03*
X120000000Y-87000000D03*
X119000000Y-87000000D03*
X118000000Y-87000000D03*
X118000000Y-85000000D03*
X118000000Y-86000000D03*
X119000000Y-86000000D03*
X120000000Y-86000000D03*
X121000000Y-86000000D03*
X121000000Y-87000000D03*
X122000000Y-87000000D03*
X123000000Y-87000000D03*
X124000000Y-87000000D03*
X125000000Y-87000000D03*
X126000000Y-87000000D03*
X127000000Y-87000000D03*
X128000000Y-87000000D03*
X129000000Y-87000000D03*
X130000000Y-87000000D03*
X131000000Y-87000000D03*
X131000000Y-86000000D03*
X132000000Y-86000000D03*
X132000000Y-87000000D03*
X133000000Y-87000000D03*
X133000000Y-86000000D03*
X134000000Y-86000000D03*
X134000000Y-87000000D03*
X135000000Y-87000000D03*
X135000000Y-88000000D03*
X135000000Y-89000000D03*
X135000000Y-90000000D03*
X135000000Y-91000000D03*
X136000000Y-92000000D03*
X135000000Y-92000000D03*
X134000000Y-92000000D03*
X133000000Y-92000000D03*
X132000000Y-92000000D03*
X131000000Y-92000000D03*
X130000000Y-92000000D03*
X129000000Y-92000000D03*
X128000000Y-92000000D03*
X127000000Y-92000000D03*
X126000000Y-92000000D03*
X125000000Y-92000000D03*
X124000000Y-92000000D03*
X123000000Y-92000000D03*
X122000000Y-92000000D03*
X121000000Y-92000000D03*
X120000000Y-92000000D03*
X119000000Y-92000000D03*
X118000000Y-92000000D03*
X114000000Y-79000000D03*
X114000000Y-78000000D03*
X114000000Y-76000000D03*
X115000000Y-66000000D03*
X114000000Y-66000000D03*
X114000000Y-67000000D03*
X113000000Y-67000000D03*
X113000000Y-66000000D03*
X113000000Y-65000000D03*
X113000000Y-64000000D03*
X110000000Y-68000000D03*
X115000000Y-69000000D03*
X114000000Y-68000000D03*
X114000000Y-69000000D03*
X114000000Y-70000000D03*
X112000000Y-70000000D03*
X111000000Y-70000000D03*
X110000000Y-70000000D03*
X110000000Y-69000000D03*
X111000000Y-69000000D03*
X112000000Y-69000000D03*
X113000000Y-68000000D03*
X113000000Y-69000000D03*
X113000000Y-70000000D03*
X113000000Y-71000000D03*
X110000000Y-71000000D03*
X111000000Y-71000000D03*
X112000000Y-71000000D03*
X112000000Y-72000000D03*
X111000000Y-72000000D03*
X110000000Y-72000000D03*
X110000000Y-73000000D03*
X111000000Y-73000000D03*
X111000000Y-74000000D03*
X110000000Y-74000000D03*
X110000000Y-75000000D03*
X111000000Y-75000000D03*
X112000000Y-75000000D03*
X112000000Y-76000000D03*
X111000000Y-76000000D03*
X110000000Y-76000000D03*
X110000000Y-77000000D03*
X111000000Y-77000000D03*
X112000000Y-77000000D03*
X112000000Y-78000000D03*
X111000000Y-78000000D03*
X110000000Y-78000000D03*
X110000000Y-79000000D03*
X111000000Y-79000000D03*
X112000000Y-79000000D03*
X112000000Y-80000000D03*
X111000000Y-80000000D03*
X110000000Y-80000000D03*
X117100000Y-75300000D03*
X115200000Y-80400000D03*
X116100000Y-79800000D03*
X117100000Y-78300000D03*
X117100000Y-77300000D03*
X136200000Y-72800000D03*
X136800000Y-75200000D03*
X132100000Y-75200000D03*
X133100000Y-75200000D03*
X128800000Y-74200000D03*
X128800000Y-75200000D03*
X127900000Y-75200000D03*
X129800000Y-75200000D03*
X135400000Y-81300000D03*
X135100000Y-83000000D03*
X135100000Y-84000000D03*
X134200000Y-84000000D03*
X134200000Y-83000000D03*
X133300000Y-83000000D03*
X133300000Y-84000000D03*
X132300000Y-84000000D03*
X132300000Y-83000000D03*
X131300000Y-81000000D03*
X131300000Y-82000000D03*
X131300000Y-83000000D03*
X131300000Y-84000000D03*
X130300000Y-84000000D03*
X130300000Y-83000000D03*
X130300000Y-82000000D03*
X130300000Y-81000000D03*
X130300000Y-80000000D03*
X137200000Y-82400000D03*
X139300000Y-83600000D03*
X140400000Y-83600000D03*
X141400000Y-83600000D03*
X138400000Y-77600000D03*
X138400000Y-76400000D03*
X138400000Y-75300000D03*
X138000000Y-73900000D03*
X137300000Y-72900000D03*
X138600000Y-72900000D03*
D10*
X134500000Y-67600000D03*
X126500000Y-71200000D03*
D11*
X130700000Y-70900000D03*
X131600000Y-71100000D03*
X132600000Y-69000000D03*
X139300000Y-65100000D03*
X138300000Y-65100000D03*
X137400000Y-65100000D03*
X135100000Y-64500000D03*
X135100000Y-63400000D03*
X135100000Y-65600000D03*
X138700000Y-62000000D03*
X137600000Y-62000000D03*
X137600000Y-60800000D03*
X136500000Y-59600000D03*
X137600000Y-59600000D03*
X138700000Y-59600000D03*
X132300000Y-58800000D03*
X132300000Y-59600000D03*
X133100000Y-59600000D03*
D10*
X138000000Y-55600000D03*
X142800000Y-57200000D03*
%TO.N,+3V3*%
X125300000Y-68300000D03*
%TO.N,GND*%
X136000000Y-68400000D03*
%TO.N,Net-(D1-K)*%
X133000000Y-74100000D03*
X136200000Y-78500000D03*
%TO.N,+3V3*%
X142700000Y-82700000D03*
X138100000Y-86800000D03*
X135200000Y-75700000D03*
X124700000Y-77300000D03*
%TO.N,BAT_ADC*%
X110300000Y-88200000D03*
%TO.N,+BATT*%
X133700000Y-65600000D03*
X128800000Y-72500000D03*
%TO.N,VBUS*%
X115300000Y-71900000D03*
X115300000Y-76700000D03*
%TO.N,+BATT*%
X112800000Y-87300000D03*
X116100000Y-82500000D03*
X110900000Y-85700000D03*
%TO.N,VBUS*%
X112300000Y-84700000D03*
X110100000Y-81300000D03*
X113900000Y-82300000D03*
%TO.N,BTN3*%
X137500000Y-87300000D03*
%TO.N,BTN2*%
X133000000Y-73300000D03*
%TO.N,BTN3*%
X133300000Y-71000000D03*
%TO.N,BTN2*%
X132600000Y-71000000D03*
%TO.N,RTC_INT*%
X132524502Y-71800000D03*
X130400000Y-71800000D03*
%TO.N,GND*%
X126100000Y-62600000D03*
X126600000Y-63100000D03*
X126600000Y-62600000D03*
%TO.N,I2C_SCL*%
X141900000Y-56500000D03*
%TO.N,I2C_SDA*%
X142900000Y-56500000D03*
%TO.N,+3V3*%
X131300000Y-61500000D03*
X132500000Y-61500000D03*
X138100000Y-57000000D03*
X134100000Y-57700000D03*
X134500000Y-59700000D03*
%TO.N,GND*%
X138800000Y-66900000D03*
%TO.N,/MCU_Sheet/PREVGH*%
X131600000Y-73700000D03*
%TO.N,/MCU_Sheet/RESE*%
X138200000Y-81400000D03*
%TO.N,/MCU_Sheet/GDR*%
X135200000Y-78100000D03*
%TO.N,/MCU_Sheet/RESE*%
X132100000Y-80400000D03*
%TO.N,/MCU_Sheet/GDR*%
X132100000Y-79700000D03*
%TO.N,I2C_SDA*%
X137700000Y-67700000D03*
%TO.N,BTN1*%
X135700000Y-67000500D03*
%TO.N,GND*%
X119200000Y-62600000D03*
X119700000Y-62100000D03*
%TO.N,RTC_INT*%
X132803200Y-65603200D03*
%TO.N,VIB_PWM*%
X131100000Y-65600000D03*
%TO.N,BAT_ADC*%
X118908281Y-63882865D03*
%TO.N,I2C_SCL*%
X130600000Y-66300000D03*
%TO.N,I2C_SDA*%
X130600000Y-67000000D03*
%TO.N,BTN2*%
X131506409Y-67506409D03*
%TO.N,BTN3*%
X132500000Y-67500000D03*
%TO.N,BMP_INT*%
X127200000Y-70000000D03*
%TO.N,RTC_INT*%
X120400000Y-63400000D03*
%TO.N,ACCEL_INT2*%
X120500000Y-65100000D03*
%TO.N,ACCEL_INT1*%
X121200000Y-65100000D03*
%TO.N,VIB_PWM*%
X121100000Y-63400000D03*
%TO.N,I2C_SCL*%
X121800000Y-63400000D03*
%TO.N,I2C_SDA*%
X121900000Y-65100000D03*
%TO.N,BTN3*%
X122600000Y-65100000D03*
%TO.N,BTN1*%
X123300000Y-65100000D03*
%TO.N,BTN2*%
X124100000Y-65100000D03*
%TO.N,I2C_SDA*%
X138200000Y-69450981D03*
%TO.N,+3V3*%
X139400000Y-66200000D03*
X142700000Y-67300000D03*
%TO.N,MAG_DRDY*%
X141900000Y-67300000D03*
%TO.N,+3V3*%
X140600000Y-64700000D03*
%TO.N,MAG_INT*%
X140300000Y-66200000D03*
%TO.N,I2C_SCL*%
X141900000Y-64700000D03*
%TO.N,+3V3*%
X142700000Y-64700000D03*
%TO.N,I2C_SDA*%
X142900000Y-65500000D03*
%TO.N,GND*%
X142900000Y-70600000D03*
%TO.N,BMP_INT*%
X141200000Y-70600000D03*
D11*
%TO.N,GND*%
X121600000Y-76600000D03*
D10*
X117200000Y-61600000D03*
X116200000Y-62100000D03*
X123200000Y-61600000D03*
D11*
X123900000Y-66600000D03*
X121600000Y-75200000D03*
D10*
X115700000Y-61100000D03*
X118700000Y-61600000D03*
X116200000Y-63100000D03*
D11*
X122300000Y-76600000D03*
D10*
X114700000Y-61100000D03*
D11*
X120900000Y-76600000D03*
D10*
X120700000Y-61100000D03*
D11*
X123200000Y-66600000D03*
D10*
X121200000Y-61100000D03*
X114700000Y-62600000D03*
X117200000Y-61100000D03*
X127100000Y-61600000D03*
X127100000Y-61100000D03*
X119200000Y-62100000D03*
X126600000Y-61100000D03*
X127100000Y-62100000D03*
X129100000Y-61100000D03*
X116200000Y-61100000D03*
X119200000Y-61600000D03*
D11*
X123000000Y-75900000D03*
X123700000Y-74500000D03*
D10*
X117700000Y-63100000D03*
X116700000Y-62600000D03*
X128600000Y-61600000D03*
X117700000Y-61600000D03*
D11*
X123700000Y-76600000D03*
D10*
X110200000Y-61600000D03*
X121700000Y-61100000D03*
X114200000Y-61600000D03*
X128100000Y-61100000D03*
D11*
X121600000Y-73800000D03*
X123900000Y-67300000D03*
D10*
X123700000Y-61100000D03*
X115700000Y-63100000D03*
D11*
X122500000Y-66600000D03*
D10*
X114200000Y-62100000D03*
X110100000Y-62100000D03*
D11*
X121800000Y-68700000D03*
X122300000Y-73100000D03*
D10*
X129100000Y-61600000D03*
D11*
X121600000Y-74500000D03*
D10*
X110700000Y-62100000D03*
D11*
X124600000Y-68700000D03*
X123200000Y-68700000D03*
D10*
X118200000Y-61100000D03*
D11*
X122300000Y-73800000D03*
X121100000Y-65900000D03*
D10*
X122700000Y-61100000D03*
D11*
X122500000Y-65900000D03*
D10*
X130100000Y-61600000D03*
X118700000Y-62600000D03*
X130600000Y-61100000D03*
X118200000Y-62100000D03*
D11*
X122300000Y-74500000D03*
X123700000Y-73800000D03*
D10*
X130100000Y-61100000D03*
X116200000Y-61600000D03*
X113700000Y-62100000D03*
X117200000Y-62100000D03*
X113700000Y-61100000D03*
X126100000Y-62100000D03*
D11*
X122500000Y-68000000D03*
D10*
X111700000Y-61100000D03*
X119700000Y-61600000D03*
X110200000Y-61100000D03*
X114700000Y-63100000D03*
D11*
X121600000Y-73100000D03*
D10*
X129700000Y-63000000D03*
D11*
X122300000Y-75900000D03*
D10*
X119700000Y-61100000D03*
X129000000Y-79700000D03*
X112200000Y-61100000D03*
X123200000Y-61100000D03*
X116200000Y-62600000D03*
X115700000Y-61600000D03*
D11*
X123900000Y-68000000D03*
D10*
X124200000Y-61600000D03*
D11*
X123700000Y-75200000D03*
D10*
X125500000Y-72500000D03*
X110700000Y-62600000D03*
X127400000Y-65200000D03*
X115200000Y-62100000D03*
X113200000Y-62100000D03*
X129600000Y-61600000D03*
X124200000Y-61100000D03*
X126100000Y-61100000D03*
X118200000Y-62600000D03*
X122200000Y-61100000D03*
D11*
X121600000Y-75900000D03*
D10*
X117200000Y-63100000D03*
X116700000Y-62100000D03*
D11*
X124600000Y-67300000D03*
X121800000Y-68000000D03*
X121100000Y-68000000D03*
D10*
X124700000Y-61600000D03*
D11*
X121800000Y-65900000D03*
X123200000Y-68000000D03*
D10*
X118200000Y-61600000D03*
D11*
X122500000Y-67300000D03*
D10*
X111200000Y-61100000D03*
X115700000Y-62600000D03*
X126100000Y-61600000D03*
X115200000Y-62600000D03*
D11*
X123900000Y-68700000D03*
D10*
X117700000Y-62100000D03*
X120200000Y-61600000D03*
D11*
X123700000Y-75900000D03*
D10*
X114700000Y-61600000D03*
D11*
X121100000Y-67300000D03*
D10*
X112710000Y-61600000D03*
X110700000Y-61600000D03*
X127600000Y-62100000D03*
X117700000Y-62600000D03*
X140500000Y-68099500D03*
X128900000Y-65200000D03*
X117200000Y-62600000D03*
X118200000Y-63100000D03*
X119200000Y-61100000D03*
X128100000Y-61600000D03*
X124700000Y-61100000D03*
X115200000Y-61100000D03*
D11*
X122300000Y-75200000D03*
D10*
X127900000Y-65200000D03*
X126600000Y-62100000D03*
X114700000Y-62100000D03*
X115700000Y-62100000D03*
D11*
X121800000Y-67300000D03*
D10*
X113700000Y-61600000D03*
D11*
X124600000Y-68000000D03*
D10*
X110700000Y-61100000D03*
X118700000Y-61100000D03*
X112700000Y-61100000D03*
D11*
X123700000Y-73100000D03*
X121100000Y-66600000D03*
D10*
X127600000Y-61100000D03*
X128400000Y-65200000D03*
X128600000Y-61100000D03*
D11*
X123000000Y-73800000D03*
X123000000Y-74500000D03*
D10*
X116700000Y-61100000D03*
D11*
X123200000Y-67300000D03*
D10*
X113200000Y-61600000D03*
D11*
X123000000Y-75200000D03*
D10*
X126600000Y-61600000D03*
X127600000Y-61600000D03*
X118700000Y-62100000D03*
X129600000Y-61100000D03*
X123700000Y-61600000D03*
X116700000Y-63100000D03*
D11*
X121100000Y-68700000D03*
D10*
X115200000Y-61600000D03*
X116700000Y-61600000D03*
X114200000Y-61100000D03*
X113200000Y-61100000D03*
X115200000Y-63100000D03*
D11*
X123000000Y-76600000D03*
X122500000Y-68700000D03*
D10*
X120200000Y-61100000D03*
D11*
X123000000Y-73100000D03*
D10*
X117700000Y-61100000D03*
D11*
X121800000Y-66600000D03*
D10*
%TO.N,/MCU_Sheet/SPICLK_P*%
X126600000Y-71900000D03*
X123200000Y-70300000D03*
%TO.N,VDD_SPI*%
X119700000Y-76600000D03*
X128300000Y-70800000D03*
%TO.N,+3V3*%
X116500000Y-67900000D03*
X116600000Y-70000000D03*
X117000000Y-65200000D03*
X114000000Y-65200000D03*
X129700000Y-63800000D03*
X127300000Y-63500000D03*
X120300000Y-67400000D03*
%TO.N,/MCU_Sheet/PREVGH*%
X129400000Y-76800000D03*
X120400000Y-81700000D03*
%TO.N,Net-(J1-Pin_18)*%
X132400000Y-76800000D03*
X120400000Y-83100000D03*
%TO.N,Net-(J1-Pin_20)*%
X130900000Y-76800000D03*
X120400000Y-82400000D03*
%TO.N,Net-(J1-Pin_22)*%
X120400000Y-81000000D03*
X127900000Y-76800000D03*
%TO.N,Net-(J1-Pin_24)*%
X126400000Y-76800000D03*
X120400000Y-79600000D03*
%TO.N,/MCU_Sheet/PREVGL*%
X126900000Y-73700000D03*
X120400000Y-80300000D03*
%TO.N,/MCU_Sheet/SPICS0*%
X123200000Y-72000000D03*
X121300000Y-70300000D03*
%TO.N,/MCU_Sheet/SPID*%
X122400000Y-72000000D03*
X119800000Y-72900000D03*
%TO.N,/MCU_Sheet/SPIWP*%
X124900000Y-74100000D03*
X120896800Y-72003200D03*
%TO.N,/MCU_Sheet/SPIQ*%
X124900000Y-75300000D03*
X122000000Y-70300000D03*
%TO.N,/MCU_Sheet/SPICLK*%
X119800000Y-74000000D03*
X121600000Y-72000000D03*
%TO.N,/MCU_Sheet/SPIHD*%
X120300000Y-70300000D03*
X119800000Y-75300000D03*
%TO.N,I2C_SCL*%
X131300000Y-62900000D03*
X139900000Y-69600000D03*
X128800000Y-63000000D03*
X139900000Y-68500000D03*
%TO.N,I2C_SDA*%
X132600000Y-62900000D03*
X127300000Y-62800000D03*
%TO.N,D_BUSY*%
X129000000Y-80400000D03*
X120300000Y-66600000D03*
%TO.N,D_RES*%
X118616000Y-68300000D03*
X129000000Y-81100000D03*
%TO.N,D_DC*%
X129000000Y-81800000D03*
X118525732Y-66997604D03*
%TO.N,D_MOSI*%
X120300000Y-65800000D03*
X129000000Y-83900000D03*
%TO.N,D_SCK*%
X118584073Y-65809077D03*
X129000000Y-83200000D03*
%TO.N,D_SS*%
X129000000Y-82500000D03*
X118800000Y-64900000D03*
%TO.N,MAG_INT*%
X120300000Y-68900000D03*
%TO.N,MAG_DRDY*%
X120300000Y-69600000D03*
%TO.N,ACCEL_INT1*%
X128400000Y-64300000D03*
%TO.N,ACCEL_INT2*%
X129100000Y-64300000D03*
%TO.N,USB_N*%
X117529808Y-73993517D03*
X112924320Y-73286401D03*
%TO.N,USB_P*%
X117070188Y-74453137D03*
X112464700Y-73746021D03*
%TD*%
D12*
%TO.N,GND*%
X141993584Y-66500000D02*
X141200000Y-67293584D01*
X141200000Y-67293584D02*
X141200000Y-67300000D01*
X142900000Y-66500000D02*
X141993584Y-66500000D01*
%TO.N,I2C_SDA*%
X142194296Y-65500000D02*
X142900000Y-65500000D01*
X141149030Y-66545266D02*
X142194296Y-65500000D01*
X141149030Y-66551682D02*
X141149030Y-66545266D01*
X140700000Y-67000712D02*
X141149030Y-66551682D01*
X140700000Y-67593084D02*
X140700000Y-67000712D01*
X141000000Y-68305916D02*
X141000000Y-67893084D01*
X140400000Y-69806416D02*
X140400000Y-68905916D01*
X139693095Y-70099511D02*
X140106905Y-70099511D01*
X140106905Y-70099511D02*
X140400000Y-69806416D01*
X141000000Y-67893084D02*
X140700000Y-67593084D01*
X139044565Y-69450981D02*
X139693095Y-70099511D01*
X138200000Y-69450981D02*
X139044565Y-69450981D01*
X140400000Y-68905916D02*
X141000000Y-68305916D01*
D13*
%TO.N,VCC*%
X117100000Y-83200000D02*
X116900000Y-83400000D01*
X117100000Y-79400000D02*
X117100000Y-83200000D01*
D12*
%TO.N,Net-(D1-K)*%
X134000000Y-74100000D02*
X133000000Y-74100000D01*
X134700000Y-75906416D02*
X134700000Y-74800000D01*
X136200000Y-77406416D02*
X134700000Y-75906416D01*
X136200000Y-78500000D02*
X136200000Y-77406416D01*
X134700000Y-74800000D02*
X134000000Y-74100000D01*
%TO.N,BTN3*%
X133499511Y-71199511D02*
X133300000Y-71000000D01*
X136700000Y-76200000D02*
X133499511Y-72999511D01*
X138699511Y-81193095D02*
X136700000Y-79193584D01*
X136700000Y-79193584D02*
X136700000Y-76200000D01*
X137500000Y-83300000D02*
X138699511Y-82100489D01*
X138699511Y-82100489D02*
X138699511Y-81193095D01*
X133499511Y-72999511D02*
X133499511Y-71199511D01*
X137500000Y-87300000D02*
X137500000Y-83300000D01*
%TO.N,BAT_ADC*%
X110300000Y-87406416D02*
X110300000Y-88200000D01*
X113000000Y-84706416D02*
X110300000Y-87406416D01*
X113000000Y-75100000D02*
X113000000Y-84706416D01*
X111965189Y-74065189D02*
X113000000Y-75100000D01*
X111965189Y-73034811D02*
X111965189Y-74065189D01*
X116000000Y-69000000D02*
X111965189Y-73034811D01*
X116000000Y-67600000D02*
X116000000Y-69000000D01*
X116977664Y-66356368D02*
X116977663Y-67022337D01*
X116600000Y-67400000D02*
X116200000Y-67400000D01*
X117735043Y-65598989D02*
X116977664Y-66356368D01*
X117735043Y-64764245D02*
X117735043Y-65598989D01*
X116200000Y-67400000D02*
X116000000Y-67600000D01*
X118616424Y-63882865D02*
X117735043Y-64764245D01*
X116977663Y-67022337D02*
X116600000Y-67400000D01*
X118908281Y-63882865D02*
X118616424Y-63882865D01*
%TO.N,BTN2*%
X132600000Y-71006416D02*
X132600000Y-71000000D01*
X133024013Y-71430429D02*
X132600000Y-71006416D01*
X133024013Y-73275987D02*
X133024013Y-71430429D01*
X133000000Y-73300000D02*
X133024013Y-73275987D01*
%TO.N,RTC_INT*%
X130400000Y-71800000D02*
X132524502Y-71800000D01*
%TO.N,BTN3*%
X122600000Y-65106416D02*
X122600000Y-65100000D01*
X123093584Y-65600000D02*
X122600000Y-65106416D01*
X124800000Y-66687518D02*
X123712482Y-65600000D01*
X124800000Y-66700000D02*
X124800000Y-66687518D01*
X132219234Y-67500000D02*
X130467794Y-69251440D01*
X132500000Y-67500000D02*
X132219234Y-67500000D01*
X123712482Y-65600000D02*
X123093584Y-65600000D01*
X130467794Y-69251440D02*
X128151440Y-69251440D01*
X128151440Y-69251440D02*
X127701450Y-68801450D01*
X127701450Y-68801450D02*
X126913932Y-68801450D01*
X126913932Y-68801450D02*
X124812482Y-66700000D01*
X124812482Y-66700000D02*
X124800000Y-66700000D01*
%TO.N,BTN2*%
X127846225Y-68451930D02*
X127058708Y-68451930D01*
X124100000Y-65493222D02*
X124100000Y-65100000D01*
X128296215Y-68901920D02*
X127846225Y-68451930D01*
X130110898Y-68901920D02*
X128296215Y-68901920D01*
X127058708Y-68451930D02*
X124100000Y-65493222D01*
X131506409Y-67506409D02*
X130110898Y-68901920D01*
%TO.N,I2C_SDA*%
X142400489Y-56000489D02*
X142900000Y-56500000D01*
X141693095Y-56000489D02*
X142400489Y-56000489D01*
X141543104Y-56150480D02*
X141693095Y-56000489D01*
X136949520Y-56150480D02*
X141543104Y-56150480D01*
X134999511Y-58100489D02*
X136949520Y-56150480D01*
X134999511Y-60500489D02*
X134999511Y-58100489D01*
X132600000Y-62900000D02*
X134999511Y-60500489D01*
%TO.N,I2C_SCL*%
X137100000Y-56500000D02*
X141900000Y-56500000D01*
X136994296Y-56600000D02*
X137000000Y-56600000D01*
X135349030Y-58245266D02*
X136994296Y-56600000D01*
X135349031Y-60857385D02*
X135349030Y-58245266D01*
X132806905Y-63399511D02*
X135349031Y-60857385D01*
X131799511Y-63399511D02*
X132806905Y-63399511D01*
X131300000Y-62900000D02*
X131799511Y-63399511D01*
X137000000Y-56600000D02*
X137100000Y-56500000D01*
%TO.N,/MCU_Sheet/PREVGH*%
X131600000Y-73700000D02*
X131600000Y-74600000D01*
X131600000Y-74600000D02*
X129400000Y-76800000D01*
%TO.N,/MCU_Sheet/RESE*%
X137200000Y-80400000D02*
X138200000Y-81400000D01*
X132100000Y-80400000D02*
X137200000Y-80400000D01*
%TO.N,/MCU_Sheet/GDR*%
X133600000Y-79700000D02*
X135200000Y-78100000D01*
X132100000Y-79700000D02*
X133600000Y-79700000D01*
%TO.N,I2C_SCL*%
X140600489Y-65700489D02*
X141050000Y-66150000D01*
X139193095Y-65700489D02*
X140600489Y-65700489D01*
X138793584Y-66100000D02*
X139193095Y-65700489D01*
X135399788Y-66100000D02*
X138793584Y-66100000D01*
X135198827Y-66300961D02*
X135399788Y-66100000D01*
X130600000Y-66300000D02*
X130600961Y-66300961D01*
X130600961Y-66300961D02*
X135198827Y-66300961D01*
%TO.N,MAG_INT*%
X140300000Y-66405705D02*
X140300000Y-66200000D01*
X139550481Y-67155223D02*
X140300000Y-66405705D01*
X139550480Y-67394085D02*
X139550481Y-67155223D01*
X137343604Y-69600961D02*
X139550480Y-67394085D01*
X128001672Y-69600960D02*
X137343604Y-69600961D01*
X127551680Y-69150969D02*
X128001672Y-69600960D01*
X126848318Y-69150970D02*
X127551680Y-69150969D01*
X126548319Y-69450969D02*
X126848318Y-69150970D01*
X120850969Y-69450969D02*
X126548319Y-69450969D01*
X120800000Y-69400000D02*
X120850969Y-69450969D01*
X120800000Y-69393584D02*
X120800000Y-69400000D01*
X120306416Y-68900000D02*
X120800000Y-69393584D01*
X120300000Y-68900000D02*
X120306416Y-68900000D01*
%TO.N,MAG_DRDY*%
X141900000Y-69193584D02*
X141900000Y-67300000D01*
X140643104Y-70450480D02*
X141900000Y-69193584D01*
X139044775Y-70450480D02*
X140643104Y-70450480D01*
X127800000Y-69900000D02*
X127850480Y-69950480D01*
X127800000Y-69893584D02*
X127800000Y-69900000D01*
X127406905Y-69500489D02*
X127800000Y-69893584D01*
X127850480Y-69950480D02*
X138544777Y-69950481D01*
X126993095Y-69500489D02*
X127406905Y-69500489D01*
X138544777Y-69950481D02*
X139044775Y-70450480D01*
X120300000Y-69600000D02*
X120500489Y-69800489D01*
X120500489Y-69800489D02*
X126693095Y-69800489D01*
X126693095Y-69800489D02*
X126993095Y-69500489D01*
%TO.N,BMP_INT*%
X140800000Y-70800000D02*
X141000000Y-70600000D01*
X138400000Y-70300000D02*
X138900000Y-70800000D01*
X141000000Y-70600000D02*
X141200000Y-70600000D01*
X127200000Y-70000000D02*
X127500000Y-70300000D01*
X127500000Y-70300000D02*
X138400000Y-70300000D01*
X138900000Y-70800000D02*
X140800000Y-70800000D01*
%TO.N,I2C_SDA*%
X137105916Y-67700000D02*
X137700000Y-67700000D01*
X135906905Y-66500989D02*
X137105916Y-67700000D01*
X135493095Y-66500989D02*
X135906905Y-66500989D01*
X135343603Y-66650481D02*
X135493095Y-66500989D01*
X130955936Y-66650480D02*
X135343603Y-66650481D01*
X130606416Y-67000000D02*
X130955936Y-66650480D01*
X130600000Y-67000000D02*
X130606416Y-67000000D01*
%TO.N,BTN1*%
X130606416Y-67700000D02*
X130600000Y-67700000D01*
X131306416Y-67000000D02*
X130606416Y-67700000D01*
X135699500Y-67000000D02*
X131306416Y-67000000D01*
X135700000Y-67000500D02*
X135699500Y-67000000D01*
%TO.N,I2C_SCL*%
X141900000Y-65300000D02*
X141050000Y-66150000D01*
X141050000Y-66150000D02*
X140799511Y-66400489D01*
%TO.N,RTC_INT*%
X120400000Y-63393584D02*
X120400000Y-63400000D01*
X121242615Y-62550969D02*
X120400000Y-63393584D01*
X122151680Y-62550969D02*
X121242615Y-62550969D01*
X122802633Y-63201922D02*
X122151680Y-62550969D01*
X123510449Y-63201921D02*
X122802633Y-63201922D01*
X124885522Y-63201923D02*
X123510449Y-63201921D01*
X125997591Y-64313995D02*
X124885522Y-63201923D01*
X128999288Y-66700000D02*
X127778258Y-66700000D01*
X131306416Y-65100000D02*
X130599289Y-65100000D01*
X130599289Y-65100000D02*
X128999288Y-66700000D01*
X127778258Y-66700000D02*
X125997590Y-64919332D01*
X131809616Y-65603200D02*
X131306416Y-65100000D01*
X125997590Y-64919332D02*
X125997591Y-64313995D01*
X132803200Y-65603200D02*
X131809616Y-65603200D01*
%TO.N,VIB_PWM*%
X121100000Y-63393584D02*
X121100000Y-63400000D01*
X121593095Y-62900489D02*
X121100000Y-63393584D01*
X122006905Y-62900489D02*
X121593095Y-62900489D01*
X122299511Y-63193095D02*
X122006905Y-62900489D01*
X122787880Y-63900000D02*
X122299511Y-63411631D01*
X123017112Y-63900000D02*
X122787880Y-63900000D01*
X123365672Y-63551441D02*
X123017112Y-63900000D01*
X124740745Y-63551442D02*
X123365672Y-63551441D01*
X125648071Y-64458770D02*
X124740745Y-63551442D01*
X125648071Y-65064109D02*
X125648071Y-64458770D01*
X122299511Y-63411631D02*
X122299511Y-63193095D01*
X127637813Y-67053851D02*
X125648071Y-65064109D01*
X129139733Y-67053851D02*
X127637813Y-67053851D01*
X130593584Y-65600000D02*
X131100000Y-65600000D01*
X130593584Y-65600000D02*
X129139733Y-67053851D01*
%TO.N,ACCEL_INT2*%
X129100000Y-64100000D02*
X129100000Y-64300000D01*
X128800000Y-63800000D02*
X129100000Y-64100000D01*
X128193584Y-63800000D02*
X128800000Y-63800000D01*
X127642615Y-64350969D02*
X128193584Y-63800000D01*
X127023154Y-64350969D02*
X127642615Y-64350969D01*
X125286096Y-62613909D02*
X127023154Y-64350969D01*
X125286096Y-62613905D02*
X125286096Y-62613909D01*
X123092184Y-62502882D02*
X125175072Y-62502881D01*
X125175072Y-62502881D02*
X125286096Y-62613905D01*
X122439784Y-61850481D02*
X123092184Y-62502882D01*
X120748807Y-61850481D02*
X122439784Y-61850481D01*
X119550970Y-63048318D02*
X120748807Y-61850481D01*
X119550969Y-63751680D02*
X119550970Y-63048318D01*
X120500000Y-64700712D02*
X119550969Y-63751680D01*
X120500000Y-65100000D02*
X120500000Y-64700712D01*
%TO.N,ACCEL_INT1*%
X127999511Y-64700489D02*
X128400000Y-64300000D01*
X126878380Y-64700489D02*
X127999511Y-64700489D01*
X126188946Y-64011055D02*
X126878380Y-64700489D01*
X122947408Y-62852402D02*
X125030299Y-62852403D01*
X122295007Y-62200000D02*
X122947408Y-62852402D01*
X120893584Y-62200000D02*
X122295007Y-62200000D01*
X119900489Y-63193095D02*
X120893584Y-62200000D01*
X125030299Y-62852403D02*
X126188946Y-64011055D01*
X121200000Y-64906416D02*
X119900489Y-63606905D01*
X119900489Y-63606905D02*
X119900489Y-63193095D01*
X121200000Y-65100000D02*
X121200000Y-64906416D01*
%TO.N,I2C_SCL*%
X121800000Y-63406416D02*
X121800000Y-63400000D01*
X122644553Y-64250969D02*
X121800000Y-63406416D01*
X123160439Y-64250969D02*
X122644553Y-64250969D01*
X124595968Y-63900961D02*
X123510450Y-63900960D01*
X125298551Y-64603545D02*
X124595968Y-63900961D01*
X123510450Y-63900960D02*
X123160439Y-64250969D01*
X125298551Y-65208885D02*
X125298551Y-64603545D01*
X127493036Y-67403370D02*
X125298551Y-65208885D01*
X128280556Y-67403373D02*
X127493036Y-67403370D01*
X128730542Y-67853360D02*
X128280556Y-67403373D01*
X129245928Y-67853360D02*
X128730542Y-67853360D01*
X130100000Y-66999288D02*
X129245928Y-67853360D01*
X130100000Y-66793584D02*
X130100000Y-66999288D01*
X130593584Y-66300000D02*
X130100000Y-66793584D01*
X130600000Y-66300000D02*
X130593584Y-66300000D01*
%TO.N,I2C_SDA*%
X130600000Y-67000000D02*
X130600000Y-67100000D01*
X130493584Y-67100000D02*
X130600000Y-67000000D01*
X129390704Y-68202880D02*
X130493584Y-67100000D01*
X128585766Y-68202880D02*
X129390704Y-68202880D01*
X127348260Y-67752890D02*
X128135779Y-67752892D01*
X124949030Y-65353660D02*
X127348260Y-67752890D01*
X124949031Y-64748320D02*
X124949030Y-65353660D01*
X124451193Y-64250481D02*
X124949031Y-64748320D01*
X123655225Y-64250480D02*
X124451193Y-64250481D01*
X123305215Y-64600489D02*
X123655225Y-64250480D01*
X122393095Y-64600489D02*
X123305215Y-64600489D01*
X128135779Y-67752892D02*
X128585766Y-68202880D01*
X121900000Y-65093584D02*
X122393095Y-64600489D01*
X121900000Y-65100000D02*
X121900000Y-65093584D01*
%TO.N,BTN1*%
X130600000Y-67700000D02*
X130600000Y-67800000D01*
X130493584Y-67800000D02*
X130600000Y-67700000D01*
X130000000Y-68293584D02*
X130493584Y-67800000D01*
X130000000Y-68300000D02*
X130000000Y-68293584D01*
X129747600Y-68552400D02*
X130000000Y-68300000D01*
X128440990Y-68552400D02*
X129747600Y-68552400D01*
X127991002Y-68102411D02*
X128440990Y-68552400D01*
X127203484Y-68102410D02*
X127991002Y-68102411D01*
X124599511Y-65498437D02*
X127203484Y-68102410D01*
X124599511Y-64893095D02*
X124599511Y-65498437D01*
X124306416Y-64600000D02*
X124599511Y-64893095D01*
X123800000Y-64600000D02*
X124306416Y-64600000D01*
X123300000Y-65100000D02*
X123800000Y-64600000D01*
%TO.N,I2C_SCL*%
X139900000Y-67300000D02*
X139900000Y-68500000D01*
X140500489Y-66699511D02*
X139900000Y-67300000D01*
X140506905Y-66699511D02*
X140500489Y-66699511D01*
X140799511Y-66400489D02*
X140799511Y-66406905D01*
X140799511Y-66406905D02*
X140506905Y-66699511D01*
X141900000Y-64700000D02*
X141900000Y-65300000D01*
%TO.N,/MCU_Sheet/PREVGH*%
X121407376Y-80699040D02*
X124195966Y-80699040D01*
X128606416Y-76800000D02*
X129400000Y-76800000D01*
X127595008Y-77300000D02*
X128106416Y-77300000D01*
X124195966Y-80699040D02*
X127595008Y-77300000D01*
X120406416Y-81700000D02*
X121407376Y-80699040D01*
X128106416Y-77300000D02*
X128606416Y-76800000D01*
X120400000Y-81700000D02*
X120406416Y-81700000D01*
%TO.N,Net-(J1-Pin_18)*%
X120400000Y-83100000D02*
X120406416Y-83100000D01*
X128745976Y-77649031D02*
X129751682Y-77649030D01*
X131106905Y-77299511D02*
X131606416Y-76800000D01*
X124485519Y-81398080D02*
X127884560Y-77999040D01*
X127884560Y-77999040D02*
X128395970Y-77999038D01*
X122108336Y-81398080D02*
X124485519Y-81398080D01*
X130101200Y-77299511D02*
X131106905Y-77299511D01*
X131606416Y-76800000D02*
X132400000Y-76800000D01*
X129751682Y-77649030D02*
X130101200Y-77299511D01*
X128395970Y-77999038D02*
X128745976Y-77649031D01*
X120406416Y-83100000D02*
X122108336Y-81398080D01*
%TO.N,Net-(J1-Pin_20)*%
X128601201Y-77299511D02*
X129606905Y-77299511D01*
X130106416Y-76800000D02*
X130900000Y-76800000D01*
X121757856Y-81048560D02*
X124340745Y-81048559D01*
X127739784Y-77649520D02*
X128251193Y-77649519D01*
X124340745Y-81048559D02*
X127739784Y-77649520D01*
X128251193Y-77649519D02*
X128601201Y-77299511D01*
X129606905Y-77299511D02*
X130106416Y-76800000D01*
X120400000Y-82400000D02*
X120406416Y-82400000D01*
X120406416Y-82400000D02*
X121757856Y-81048560D01*
%TO.N,Net-(J1-Pin_22)*%
X121056896Y-80349520D02*
X124051191Y-80349520D01*
X120400000Y-81000000D02*
X120406416Y-81000000D01*
X120406416Y-81000000D02*
X121056896Y-80349520D01*
X127600712Y-76800000D02*
X127900000Y-76800000D01*
X124051191Y-80349520D02*
X127600712Y-76800000D01*
%TO.N,Net-(J1-Pin_24)*%
X120400000Y-79600000D02*
X123600000Y-79600000D01*
X123600000Y-79600000D02*
X126400000Y-76800000D01*
%TO.N,/MCU_Sheet/PREVGL*%
X123906416Y-80000000D02*
X126900000Y-77006416D01*
X120700000Y-80000000D02*
X123906416Y-80000000D01*
X120400000Y-80300000D02*
X120700000Y-80000000D01*
X126900000Y-77006416D02*
X126900000Y-73700000D01*
%TO.N,I2C_SCL*%
X130900489Y-62500489D02*
X131300000Y-62900000D01*
X139900000Y-69600000D02*
X139900000Y-68500000D01*
X128800000Y-63000000D02*
X129299511Y-62500489D01*
X129299511Y-62500489D02*
X130900489Y-62500489D01*
%TO.N,I2C_SDA*%
X131800000Y-62693584D02*
X131800000Y-62700000D01*
X128293584Y-62800000D02*
X128942614Y-62150970D01*
X127300000Y-62800000D02*
X128293584Y-62800000D01*
X131800000Y-62700000D02*
X132000000Y-62900000D01*
X131257386Y-62150970D02*
X131800000Y-62693584D01*
X132000000Y-62900000D02*
X132600000Y-62900000D01*
X128942614Y-62150970D02*
X131257386Y-62150970D01*
%TO.N,D_BUSY*%
X119300000Y-66900000D02*
X119300000Y-70006416D01*
X119300000Y-70006416D02*
X120397289Y-71103705D01*
X124630297Y-81747599D02*
X125977896Y-80400000D01*
X120397289Y-72210105D02*
X121000000Y-72812816D01*
X119900489Y-77105927D02*
X119900489Y-83306905D01*
X122458817Y-81747599D02*
X124630297Y-81747599D01*
X120606905Y-83599511D02*
X122458817Y-81747599D01*
X120397289Y-71103705D02*
X120397289Y-72210105D01*
X120325489Y-76680927D02*
X119900489Y-77105927D01*
X121000000Y-72812816D02*
X121000000Y-75687518D01*
X120193095Y-83599511D02*
X120606905Y-83599511D01*
X120300000Y-66600000D02*
X119600000Y-66600000D01*
X119900489Y-83306905D02*
X120193095Y-83599511D01*
X121000000Y-75687518D02*
X120325489Y-76362029D01*
X125977896Y-80400000D02*
X129000000Y-80400000D01*
X120325489Y-76362029D02*
X120325489Y-76680927D01*
X119600000Y-66600000D02*
X119300000Y-66900000D01*
%TO.N,D_RES*%
X120048320Y-83949031D02*
X119550969Y-83451680D01*
X120000000Y-72307112D02*
X120000000Y-71853208D01*
X119546303Y-71399511D02*
X119193095Y-71399511D01*
X122603594Y-82097118D02*
X124775072Y-82097119D01*
X129000000Y-81100000D02*
X125772192Y-81100000D01*
X120751682Y-83949030D02*
X120048320Y-83949031D01*
X125772192Y-81100000D02*
X124775072Y-82097119D01*
X118900489Y-71106905D02*
X118900489Y-68584489D01*
X122603594Y-82097118D02*
X120751682Y-83949030D01*
X118900489Y-68584489D02*
X118616000Y-68300000D01*
X119550969Y-83451680D02*
X119550969Y-77157385D01*
X119193095Y-71399511D02*
X118900489Y-71106905D01*
X119200489Y-76393095D02*
X119493095Y-76100489D01*
X119200489Y-76806905D02*
X119200489Y-76393095D01*
X119999511Y-76100489D02*
X120650480Y-75449520D01*
X119493095Y-76100489D02*
X119999511Y-76100489D01*
X119550969Y-77157385D02*
X119200489Y-76806905D01*
X120650480Y-72957592D02*
X120000000Y-72307112D01*
X120650480Y-75449520D02*
X120650480Y-72957592D01*
X120000000Y-71853208D02*
X119546303Y-71399511D01*
%TO.N,D_DC*%
X118550970Y-71251682D02*
X119048319Y-71749030D01*
X118116489Y-68506905D02*
X118550970Y-68941386D01*
X125566488Y-81800000D02*
X129000000Y-81800000D01*
X124919847Y-82446639D02*
X125566488Y-81800000D01*
X119201449Y-83596455D02*
X119903543Y-84298550D01*
X119300489Y-75798800D02*
X118850969Y-76248320D01*
X120300960Y-73693566D02*
X120300960Y-74205456D01*
X119903543Y-84298550D02*
X120896457Y-84298550D01*
X122748370Y-82446638D02*
X124919847Y-82446639D01*
X119300489Y-72000489D02*
X119300489Y-73106905D01*
X118525732Y-66997604D02*
X118525732Y-67683852D01*
X119593095Y-73399511D02*
X120006905Y-73399511D01*
X118550970Y-68941386D02*
X118550970Y-71251682D01*
X119300489Y-73106905D02*
X119593095Y-73399511D01*
X120006905Y-74499511D02*
X119700489Y-74499511D01*
X120300960Y-74205456D02*
X120006905Y-74499511D01*
X120896457Y-84298550D02*
X122748370Y-82446638D01*
X119300489Y-74899511D02*
X119300489Y-75798800D01*
X118850969Y-76248320D02*
X118850970Y-76951682D01*
X119049030Y-71749030D02*
X119300489Y-72000489D01*
X119201449Y-77302161D02*
X119201449Y-83596455D01*
X119700489Y-74499511D02*
X119300489Y-74899511D01*
X120006905Y-73399511D02*
X120300960Y-73693566D01*
X118525732Y-67683852D02*
X118116489Y-68093095D01*
X118850970Y-76951682D02*
X119201449Y-77302161D01*
X118116489Y-68093095D02*
X118116489Y-68506905D01*
X119048319Y-71749030D02*
X119049030Y-71749030D01*
%TO.N,D_MOSI*%
X118152891Y-77736491D02*
X118152891Y-84030784D01*
X117502412Y-69375716D02*
X117502411Y-71686009D01*
X118084562Y-64909022D02*
X118084562Y-65743766D01*
X120000000Y-65500000D02*
X119600000Y-65500000D01*
X117327183Y-66501145D02*
X117327181Y-67372819D01*
X122777896Y-83900000D02*
X129000000Y-83900000D01*
X120300000Y-65800000D02*
X120000000Y-65500000D01*
X118152891Y-84030784D02*
X119469214Y-85347107D01*
X117800000Y-77383600D02*
X118152891Y-77736491D01*
X119433103Y-64826687D02*
X119006905Y-64400489D01*
X118084562Y-65743766D02*
X117327183Y-66501145D01*
X121330784Y-85347109D02*
X122777896Y-83900000D01*
X117067929Y-67632071D02*
X117067929Y-68941230D01*
X119006905Y-64400489D02*
X118593095Y-64400489D01*
X118593095Y-64400489D02*
X118084562Y-64909022D01*
X119433103Y-65333103D02*
X119433103Y-64826687D01*
X117067929Y-68941230D02*
X117502412Y-69375716D01*
X117327181Y-67372819D02*
X117067929Y-67632071D01*
X118251929Y-72435529D02*
X118251930Y-75364473D01*
X119600000Y-65500000D02*
X119433103Y-65333103D01*
X119469214Y-85347107D02*
X121330784Y-85347109D01*
X118251930Y-75364473D02*
X117800000Y-75816403D01*
X117502411Y-71686009D02*
X118251929Y-72435529D01*
X117800000Y-75816403D02*
X117800000Y-77383600D01*
%TO.N,D_SCK*%
X118502410Y-83886006D02*
X118502411Y-77591715D01*
X117676702Y-66645922D02*
X118174050Y-66148574D01*
X128945679Y-83145679D02*
X123037921Y-83145679D01*
X117851931Y-71541234D02*
X117851931Y-69230939D01*
X117851931Y-69230939D02*
X117417449Y-68796455D01*
X118601449Y-75509249D02*
X118601451Y-74609957D01*
X118174050Y-66148574D02*
X118400000Y-66148574D01*
X123037921Y-83145679D02*
X121186010Y-84997589D01*
X118584073Y-65964501D02*
X118584073Y-65809077D01*
X119613991Y-84997588D02*
X118502410Y-83886006D01*
X118151931Y-75958767D02*
X118601449Y-75509249D01*
X118151930Y-77241232D02*
X118151931Y-75958767D01*
X117676701Y-67529004D02*
X117676702Y-66645922D01*
X118601449Y-73396456D02*
X118601449Y-72290753D01*
X118601449Y-72290753D02*
X117851931Y-71541234D01*
X129000000Y-83200000D02*
X128945679Y-83145679D01*
X119613991Y-84997588D02*
X121186010Y-84997589D01*
X117417449Y-68796455D02*
X117417450Y-67788254D01*
X118850480Y-74360929D02*
X118850480Y-73645488D01*
X118601451Y-74609957D02*
X118850480Y-74360929D01*
X118850480Y-73645488D02*
X118601449Y-73396456D01*
X118502411Y-77591715D02*
X118151930Y-77241232D01*
X118400000Y-66148574D02*
X118584073Y-65964501D01*
X117417450Y-67788254D02*
X117676701Y-67529004D01*
%TO.N,D_SS*%
X117766969Y-67933031D02*
X118026221Y-67673779D01*
X118501450Y-76103544D02*
X118950969Y-75654025D01*
X119758768Y-84648069D02*
X118851930Y-83741231D01*
X118950970Y-74754734D02*
X119200000Y-74505704D01*
X118026221Y-67673779D02*
X118026221Y-66790699D01*
X118501450Y-77096457D02*
X118501450Y-76103544D01*
X118950969Y-72145977D02*
X118201451Y-71396459D01*
X118318827Y-66498093D02*
X118601473Y-66498093D01*
X118950969Y-75654025D02*
X118950970Y-74754734D01*
X118201451Y-69086163D02*
X117766969Y-68651680D01*
X118201451Y-71396459D02*
X118201451Y-69086163D01*
X121041235Y-84648069D02*
X119758768Y-84648069D01*
X118026221Y-66790699D02*
X118318827Y-66498093D01*
X125064622Y-82796159D02*
X122893145Y-82796159D01*
X129000000Y-82500000D02*
X125360782Y-82500000D01*
X118851930Y-77446938D02*
X118501450Y-77096457D01*
X119083584Y-65183584D02*
X118800000Y-64900000D01*
X117766969Y-68651680D02*
X117766969Y-67933031D01*
X119083584Y-66015982D02*
X119083584Y-65183584D01*
X125360782Y-82500000D02*
X125064622Y-82796159D01*
X118851930Y-83741231D02*
X118851930Y-77446938D01*
X118950969Y-73251681D02*
X118950969Y-72145977D01*
X119200000Y-74505704D02*
X119200000Y-73500712D01*
X122893145Y-82796159D02*
X121041235Y-84648069D01*
X118601473Y-66498093D02*
X119083584Y-66015982D01*
X119200000Y-73500712D02*
X118950969Y-73251681D01*
%TO.N,USB_N*%
X112924320Y-73498533D02*
X112924320Y-73286401D01*
X112950787Y-73525000D02*
X112924320Y-73498533D01*
X117529808Y-73993517D02*
X117317676Y-73993517D01*
X116849159Y-73525000D02*
X112950787Y-73525000D01*
X117317676Y-73993517D02*
X116849159Y-73525000D01*
%TO.N,USB_P*%
X117070188Y-74453137D02*
X117070188Y-74241005D01*
X116704183Y-73875000D02*
X112805811Y-73875000D01*
X112676832Y-73746021D02*
X112464700Y-73746021D01*
X112805811Y-73875000D02*
X112676832Y-73746021D01*
X117070188Y-74241005D02*
X116704183Y-73875000D01*
%TD*%
%TA.AperFunction,Conductor*%
%TO.N,GND*%
G36*
X131185775Y-60869422D02*
G01*
X131232268Y-60923078D01*
X131242372Y-60993352D01*
X131212878Y-61057932D01*
X131166171Y-61088901D01*
X131166874Y-61090281D01*
X131046780Y-61151472D01*
X130951472Y-61246780D01*
X130890281Y-61366874D01*
X130888731Y-61376663D01*
X130888730Y-61376665D01*
X130879408Y-61435521D01*
X130869196Y-61500000D01*
X130870747Y-61509793D01*
X130884696Y-61597861D01*
X130890281Y-61633126D01*
X130906290Y-61664545D01*
X130920415Y-61692267D01*
X130933519Y-61762044D01*
X130906819Y-61827828D01*
X130848792Y-61868735D01*
X130808148Y-61875470D01*
X128982157Y-61875470D01*
X128957575Y-61873049D01*
X128954785Y-61872494D01*
X128942614Y-61870073D01*
X128915482Y-61875470D01*
X128915481Y-61875470D01*
X128835119Y-61891455D01*
X128793741Y-61919103D01*
X128766992Y-61936976D01*
X128766991Y-61936977D01*
X128743990Y-61952346D01*
X128737099Y-61962659D01*
X128735512Y-61965034D01*
X128719842Y-61984126D01*
X128216373Y-62487595D01*
X128154061Y-62521621D01*
X128127278Y-62524500D01*
X127678438Y-62524500D01*
X127610317Y-62504498D01*
X127589343Y-62487595D01*
X127553220Y-62451472D01*
X127433126Y-62390281D01*
X127423337Y-62388731D01*
X127423335Y-62388730D01*
X127309793Y-62370747D01*
X127300000Y-62369196D01*
X127290207Y-62370747D01*
X127176665Y-62388730D01*
X127176663Y-62388731D01*
X127166874Y-62390281D01*
X127046780Y-62451472D01*
X126951472Y-62546780D01*
X126890281Y-62666874D01*
X126869196Y-62800000D01*
X126870747Y-62809793D01*
X126884212Y-62894805D01*
X126890281Y-62933126D01*
X126951472Y-63053220D01*
X126959157Y-63060905D01*
X126959714Y-63061925D01*
X126964311Y-63068252D01*
X126963493Y-63068846D01*
X126993183Y-63123217D01*
X126988118Y-63194032D01*
X126964016Y-63231534D01*
X126964311Y-63231748D01*
X126960568Y-63236900D01*
X126959157Y-63239095D01*
X126951472Y-63246780D01*
X126890281Y-63366874D01*
X126888731Y-63376663D01*
X126888730Y-63376665D01*
X126878298Y-63442532D01*
X126869196Y-63500000D01*
X126870229Y-63506520D01*
X126850745Y-63572875D01*
X126797089Y-63619368D01*
X126726815Y-63629472D01*
X126662235Y-63599978D01*
X126655652Y-63593849D01*
X125508874Y-62447070D01*
X125493204Y-62427978D01*
X125491611Y-62425594D01*
X125484720Y-62415281D01*
X125472032Y-62406803D01*
X125452940Y-62391133D01*
X125397844Y-62336037D01*
X125382174Y-62316945D01*
X125380587Y-62314570D01*
X125373696Y-62304257D01*
X125350695Y-62288888D01*
X125350694Y-62288887D01*
X125305164Y-62258465D01*
X125282567Y-62243366D01*
X125202205Y-62227381D01*
X125187244Y-62224405D01*
X125187243Y-62224405D01*
X125175072Y-62221984D01*
X125162901Y-62224405D01*
X125162899Y-62224405D01*
X125160109Y-62224960D01*
X125135529Y-62227381D01*
X124774946Y-62227381D01*
X123258491Y-62227382D01*
X123190370Y-62207380D01*
X123169395Y-62190477D01*
X122924374Y-61945455D01*
X122662553Y-61683634D01*
X122646884Y-61664542D01*
X122645299Y-61662170D01*
X122638408Y-61651857D01*
X122615407Y-61636488D01*
X122615406Y-61636487D01*
X122547279Y-61590966D01*
X122439784Y-61569584D01*
X122427613Y-61572005D01*
X122424823Y-61572560D01*
X122400241Y-61574981D01*
X120788350Y-61574981D01*
X120763768Y-61572560D01*
X120760978Y-61572005D01*
X120748807Y-61569584D01*
X120641312Y-61590966D01*
X120573185Y-61636487D01*
X120573184Y-61636488D01*
X120550183Y-61651857D01*
X120543292Y-61662170D01*
X120541705Y-61664545D01*
X120526035Y-61683637D01*
X119384126Y-62825546D01*
X119365034Y-62841216D01*
X119352346Y-62849694D01*
X119336977Y-62872695D01*
X119334600Y-62871106D01*
X119334599Y-62871108D01*
X119336976Y-62872696D01*
X119322205Y-62894803D01*
X119322202Y-62894805D01*
X119322203Y-62894806D01*
X119291455Y-62940823D01*
X119276208Y-63017473D01*
X119270073Y-63048318D01*
X119272494Y-63060489D01*
X119273049Y-63063279D01*
X119275470Y-63087861D01*
X119275469Y-63386793D01*
X119255467Y-63454914D01*
X119201811Y-63501407D01*
X119131537Y-63511510D01*
X119092266Y-63499060D01*
X119060391Y-63482819D01*
X119041407Y-63473146D01*
X119031618Y-63471596D01*
X119031616Y-63471595D01*
X118918074Y-63453612D01*
X118908281Y-63452061D01*
X118898488Y-63453612D01*
X118784946Y-63471595D01*
X118784944Y-63471596D01*
X118775155Y-63473146D01*
X118655061Y-63534337D01*
X118607259Y-63582139D01*
X118542747Y-63616623D01*
X118521100Y-63620929D01*
X118508929Y-63623350D01*
X118481847Y-63641446D01*
X118440802Y-63668871D01*
X118440801Y-63668872D01*
X118417800Y-63684241D01*
X118410909Y-63694554D01*
X118409324Y-63696926D01*
X118393654Y-63716019D01*
X117568196Y-64541476D01*
X117549104Y-64557145D01*
X117536419Y-64565621D01*
X117521050Y-64588622D01*
X117521049Y-64588623D01*
X117475528Y-64656750D01*
X117454146Y-64764245D01*
X117453547Y-64764126D01*
X117436565Y-64821962D01*
X117382909Y-64868455D01*
X117312635Y-64878559D01*
X117258221Y-64856473D01*
X117253220Y-64851472D01*
X117244384Y-64846970D01*
X117244383Y-64846969D01*
X117180690Y-64814516D01*
X117133126Y-64790281D01*
X117123337Y-64788731D01*
X117123335Y-64788730D01*
X117009793Y-64770747D01*
X117000000Y-64769196D01*
X116990207Y-64770747D01*
X116876665Y-64788730D01*
X116876663Y-64788731D01*
X116866874Y-64790281D01*
X116746780Y-64851472D01*
X116651472Y-64946780D01*
X116590281Y-65066874D01*
X116588731Y-65076663D01*
X116588730Y-65076665D01*
X116571765Y-65183782D01*
X116569196Y-65200000D01*
X116570747Y-65209793D01*
X116586574Y-65309719D01*
X116590281Y-65333126D01*
X116651472Y-65453220D01*
X116746780Y-65548528D01*
X116866874Y-65609719D01*
X116876663Y-65611269D01*
X116876665Y-65611270D01*
X116990207Y-65629253D01*
X117000000Y-65630804D01*
X117009793Y-65629253D01*
X117010973Y-65629253D01*
X117079094Y-65649255D01*
X117125587Y-65702911D01*
X117135691Y-65773185D01*
X117106197Y-65837765D01*
X117100068Y-65844348D01*
X116810820Y-66133596D01*
X116791728Y-66149266D01*
X116779040Y-66157744D01*
X116772149Y-66168057D01*
X116763671Y-66180745D01*
X116763670Y-66180746D01*
X116755542Y-66192911D01*
X116755540Y-66192912D01*
X116725044Y-66238553D01*
X116725043Y-66238556D01*
X116718149Y-66248873D01*
X116715729Y-66261040D01*
X116715728Y-66261042D01*
X116703587Y-66322079D01*
X116703166Y-66324196D01*
X116696767Y-66356368D01*
X116699188Y-66368539D01*
X116699743Y-66371329D01*
X116702164Y-66395911D01*
X116702163Y-66856031D01*
X116682161Y-66924152D01*
X116665258Y-66945126D01*
X116522789Y-67087595D01*
X116460477Y-67121621D01*
X116433694Y-67124500D01*
X116239543Y-67124500D01*
X116214963Y-67122079D01*
X116212173Y-67121524D01*
X116212171Y-67121524D01*
X116200000Y-67119103D01*
X116187829Y-67121524D01*
X116172868Y-67124500D01*
X116172867Y-67124500D01*
X116092505Y-67140485D01*
X116064025Y-67159515D01*
X116024378Y-67186006D01*
X116024377Y-67186007D01*
X116001376Y-67201376D01*
X115994485Y-67211689D01*
X115992898Y-67214064D01*
X115977228Y-67233156D01*
X115833156Y-67377228D01*
X115814064Y-67392898D01*
X115801376Y-67401376D01*
X115786007Y-67424377D01*
X115786006Y-67424378D01*
X115782415Y-67429753D01*
X115777394Y-67437267D01*
X115777392Y-67437270D01*
X115747378Y-67482188D01*
X115747377Y-67482190D01*
X115740485Y-67492505D01*
X115725692Y-67566874D01*
X115719103Y-67600000D01*
X115721524Y-67612171D01*
X115722079Y-67614961D01*
X115724500Y-67639543D01*
X115724500Y-68833694D01*
X115704498Y-68901815D01*
X115687595Y-68922789D01*
X111798345Y-72812039D01*
X111779253Y-72827709D01*
X111766565Y-72836187D01*
X111705674Y-72927316D01*
X111689689Y-73007678D01*
X111684292Y-73034811D01*
X111686713Y-73046982D01*
X111687268Y-73049772D01*
X111689689Y-73074354D01*
X111689689Y-74025646D01*
X111687268Y-74050228D01*
X111684292Y-74065189D01*
X111689689Y-74092321D01*
X111689689Y-74092322D01*
X111705674Y-74172684D01*
X111731482Y-74211308D01*
X111750651Y-74239996D01*
X111766565Y-74263813D01*
X111776881Y-74270706D01*
X111776882Y-74270707D01*
X111779253Y-74272291D01*
X111798345Y-74287961D01*
X112687595Y-75177211D01*
X112721621Y-75239523D01*
X112724500Y-75266306D01*
X112724500Y-84233130D01*
X112704498Y-84301251D01*
X112650842Y-84347744D01*
X112580568Y-84357848D01*
X112541297Y-84345397D01*
X112433126Y-84290281D01*
X112423337Y-84288731D01*
X112423335Y-84288730D01*
X112309793Y-84270747D01*
X112300000Y-84269196D01*
X112290207Y-84270747D01*
X112176665Y-84288730D01*
X112176663Y-84288731D01*
X112166874Y-84290281D01*
X112046780Y-84351472D01*
X111951472Y-84446780D01*
X111890281Y-84566874D01*
X111869196Y-84700000D01*
X111870747Y-84709793D01*
X111888492Y-84821828D01*
X111890281Y-84833126D01*
X111951472Y-84953220D01*
X112046780Y-85048528D01*
X112055621Y-85053033D01*
X112056827Y-85053909D01*
X112100180Y-85110132D01*
X112106255Y-85180868D01*
X112071860Y-85244940D01*
X111544348Y-85772452D01*
X111482036Y-85806478D01*
X111411221Y-85801413D01*
X111354385Y-85758866D01*
X111332338Y-85699757D01*
X111330804Y-85700000D01*
X111329605Y-85692429D01*
X111329605Y-85692428D01*
X111329253Y-85690207D01*
X111311270Y-85576665D01*
X111311269Y-85576663D01*
X111309719Y-85566874D01*
X111248528Y-85446780D01*
X111153220Y-85351472D01*
X111033126Y-85290281D01*
X111023337Y-85288731D01*
X111023335Y-85288730D01*
X110909793Y-85270747D01*
X110900000Y-85269196D01*
X110890207Y-85270747D01*
X110776665Y-85288730D01*
X110776663Y-85288731D01*
X110766874Y-85290281D01*
X110646780Y-85351472D01*
X110551472Y-85446780D01*
X110490281Y-85566874D01*
X110488731Y-85576663D01*
X110488730Y-85576665D01*
X110483985Y-85606624D01*
X110469196Y-85700000D01*
X110490281Y-85833126D01*
X110551472Y-85953220D01*
X110646780Y-86048528D01*
X110766874Y-86109719D01*
X110776663Y-86111269D01*
X110776665Y-86111270D01*
X110900000Y-86130804D01*
X110899495Y-86133992D01*
X110951478Y-86149255D01*
X110997971Y-86202911D01*
X111008075Y-86273185D01*
X110978581Y-86337765D01*
X110972452Y-86344348D01*
X110133156Y-87183644D01*
X110114064Y-87199314D01*
X110101376Y-87207792D01*
X110086007Y-87230793D01*
X110083630Y-87229204D01*
X110083629Y-87229206D01*
X110086006Y-87230794D01*
X110068531Y-87256948D01*
X110068528Y-87256950D01*
X110068529Y-87256951D01*
X110062048Y-87266651D01*
X110040485Y-87298921D01*
X110034873Y-87327133D01*
X110019103Y-87406416D01*
X110021524Y-87418587D01*
X110022079Y-87421377D01*
X110024500Y-87445959D01*
X110024500Y-87821562D01*
X110004498Y-87889683D01*
X109987595Y-87910657D01*
X109951472Y-87946780D01*
X109890281Y-88066874D01*
X109888731Y-88076663D01*
X109888730Y-88076665D01*
X109885048Y-88099913D01*
X109869196Y-88200000D01*
X109890281Y-88333126D01*
X109951472Y-88453220D01*
X110046780Y-88548528D01*
X110166874Y-88609719D01*
X110176663Y-88611269D01*
X110176665Y-88611270D01*
X110290207Y-88629253D01*
X110300000Y-88630804D01*
X110309793Y-88629253D01*
X110423335Y-88611270D01*
X110423337Y-88611269D01*
X110433126Y-88609719D01*
X110553220Y-88548528D01*
X110648528Y-88453220D01*
X110709719Y-88333126D01*
X110730804Y-88200000D01*
X110714952Y-88099913D01*
X110711270Y-88076665D01*
X110711269Y-88076663D01*
X110709719Y-88066874D01*
X110648528Y-87946780D01*
X110612405Y-87910657D01*
X110578379Y-87848345D01*
X110575500Y-87821562D01*
X110575500Y-87572722D01*
X110595502Y-87504601D01*
X110612405Y-87483627D01*
X110796032Y-87300000D01*
X112369196Y-87300000D01*
X112370747Y-87309793D01*
X112386051Y-87406416D01*
X112390281Y-87433126D01*
X112451472Y-87553220D01*
X112546780Y-87648528D01*
X112666874Y-87709719D01*
X112676663Y-87711269D01*
X112676665Y-87711270D01*
X112790207Y-87729253D01*
X112800000Y-87730804D01*
X112809793Y-87729253D01*
X112923335Y-87711270D01*
X112923337Y-87711269D01*
X112933126Y-87709719D01*
X113053220Y-87648528D01*
X113113827Y-87587921D01*
X135695619Y-87587921D01*
X135697371Y-87596351D01*
X135697371Y-87596354D01*
X135720929Y-87709719D01*
X135726408Y-87736085D01*
X135796029Y-87870447D01*
X135899320Y-87981044D01*
X135954813Y-88014790D01*
X136021255Y-88055195D01*
X136021258Y-88055196D01*
X136028618Y-88059672D01*
X136174335Y-88100500D01*
X136287658Y-88100500D01*
X136341350Y-88093120D01*
X136391374Y-88086245D01*
X136391377Y-88086244D01*
X136399920Y-88085070D01*
X136462146Y-88058041D01*
X136530813Y-88028215D01*
X136530816Y-88028213D01*
X136538720Y-88024780D01*
X136545404Y-88019342D01*
X136545406Y-88019341D01*
X136634595Y-87946780D01*
X136656108Y-87929278D01*
X136743377Y-87805647D01*
X136768100Y-87736085D01*
X136791168Y-87671177D01*
X136791168Y-87671176D01*
X136794054Y-87663056D01*
X136804381Y-87512079D01*
X136787975Y-87433126D01*
X136775345Y-87372349D01*
X136775344Y-87372346D01*
X136773592Y-87363915D01*
X136703971Y-87229553D01*
X136637183Y-87158041D01*
X136606563Y-87125255D01*
X136600680Y-87118956D01*
X136523111Y-87071785D01*
X136478745Y-87044805D01*
X136478742Y-87044804D01*
X136471382Y-87040328D01*
X136325665Y-86999500D01*
X136212342Y-86999500D01*
X136158650Y-87006880D01*
X136108626Y-87013755D01*
X136108623Y-87013756D01*
X136100080Y-87014930D01*
X136046961Y-87038003D01*
X135969187Y-87071785D01*
X135969184Y-87071787D01*
X135961280Y-87075220D01*
X135954596Y-87080658D01*
X135954594Y-87080659D01*
X135913024Y-87114479D01*
X135843892Y-87170722D01*
X135756623Y-87294353D01*
X135753739Y-87302469D01*
X135753737Y-87302472D01*
X135708832Y-87428823D01*
X135705946Y-87436944D01*
X135695619Y-87587921D01*
X113113827Y-87587921D01*
X113148528Y-87553220D01*
X113209719Y-87433126D01*
X113213950Y-87406416D01*
X113229253Y-87309793D01*
X113230804Y-87300000D01*
X113223985Y-87256948D01*
X113211270Y-87176665D01*
X113211269Y-87176663D01*
X113209719Y-87166874D01*
X113148528Y-87046780D01*
X113053220Y-86951472D01*
X112933126Y-86890281D01*
X112923337Y-86888731D01*
X112923335Y-86888730D01*
X112809793Y-86870747D01*
X112800000Y-86869196D01*
X112790207Y-86870747D01*
X112676665Y-86888730D01*
X112676663Y-86888731D01*
X112666874Y-86890281D01*
X112546780Y-86951472D01*
X112451472Y-87046780D01*
X112390281Y-87166874D01*
X112388731Y-87176663D01*
X112388730Y-87176665D01*
X112376015Y-87256948D01*
X112369196Y-87300000D01*
X110796032Y-87300000D01*
X112096032Y-86000000D01*
X127169196Y-86000000D01*
X127170747Y-86009793D01*
X127186574Y-86109719D01*
X127190281Y-86133126D01*
X127251472Y-86253220D01*
X127346780Y-86348528D01*
X127466874Y-86409719D01*
X127476663Y-86411269D01*
X127476665Y-86411270D01*
X127590207Y-86429253D01*
X127600000Y-86430804D01*
X127609793Y-86429253D01*
X127723335Y-86411270D01*
X127723337Y-86411269D01*
X127733126Y-86409719D01*
X127853220Y-86348528D01*
X127948528Y-86253220D01*
X128009719Y-86133126D01*
X128013427Y-86109719D01*
X128029253Y-86009793D01*
X128030804Y-86000000D01*
X128969196Y-86000000D01*
X128970747Y-86009793D01*
X128986574Y-86109719D01*
X128990281Y-86133126D01*
X129051472Y-86253220D01*
X129146780Y-86348528D01*
X129266874Y-86409719D01*
X129276663Y-86411269D01*
X129276665Y-86411270D01*
X129390207Y-86429253D01*
X129400000Y-86430804D01*
X129409793Y-86429253D01*
X129523335Y-86411270D01*
X129523337Y-86411269D01*
X129533126Y-86409719D01*
X129653220Y-86348528D01*
X129748528Y-86253220D01*
X129809719Y-86133126D01*
X129813427Y-86109719D01*
X129829253Y-86009793D01*
X129830804Y-86000000D01*
X129809719Y-85866874D01*
X129748528Y-85746780D01*
X129653220Y-85651472D01*
X129533126Y-85590281D01*
X129523337Y-85588731D01*
X129523335Y-85588730D01*
X129409793Y-85570747D01*
X129400000Y-85569196D01*
X129390207Y-85570747D01*
X129276665Y-85588730D01*
X129276663Y-85588731D01*
X129266874Y-85590281D01*
X129146780Y-85651472D01*
X129051472Y-85746780D01*
X128990281Y-85866874D01*
X128969196Y-86000000D01*
X128030804Y-86000000D01*
X128009719Y-85866874D01*
X127948528Y-85746780D01*
X127853220Y-85651472D01*
X127733126Y-85590281D01*
X127723337Y-85588731D01*
X127723335Y-85588730D01*
X127609793Y-85570747D01*
X127600000Y-85569196D01*
X127590207Y-85570747D01*
X127476665Y-85588730D01*
X127476663Y-85588731D01*
X127466874Y-85590281D01*
X127346780Y-85651472D01*
X127251472Y-85746780D01*
X127190281Y-85866874D01*
X127169196Y-86000000D01*
X112096032Y-86000000D01*
X113166844Y-84929188D01*
X113185936Y-84913518D01*
X113188307Y-84911934D01*
X113188308Y-84911933D01*
X113198624Y-84905040D01*
X113259515Y-84813911D01*
X113259516Y-84813910D01*
X113280897Y-84706416D01*
X113277921Y-84691454D01*
X113275500Y-84666874D01*
X113275500Y-82536423D01*
X113295502Y-82468302D01*
X113349158Y-82421809D01*
X113419432Y-82411705D01*
X113484012Y-82441199D01*
X113513767Y-82479220D01*
X113551472Y-82553220D01*
X113646780Y-82648528D01*
X113766874Y-82709719D01*
X113776663Y-82711269D01*
X113776665Y-82711270D01*
X113890207Y-82729253D01*
X113900000Y-82730804D01*
X113909793Y-82729253D01*
X114023335Y-82711270D01*
X114023337Y-82711269D01*
X114033126Y-82709719D01*
X114153220Y-82648528D01*
X114248528Y-82553220D01*
X114275645Y-82500000D01*
X115669196Y-82500000D01*
X115670747Y-82509793D01*
X115678736Y-82560231D01*
X115690281Y-82633126D01*
X115751472Y-82753220D01*
X115846780Y-82848528D01*
X115966874Y-82909719D01*
X115976663Y-82911269D01*
X115976665Y-82911270D01*
X116090207Y-82929253D01*
X116100000Y-82930804D01*
X116109793Y-82929253D01*
X116223335Y-82911270D01*
X116223337Y-82911269D01*
X116233126Y-82909719D01*
X116353220Y-82848528D01*
X116448528Y-82753220D01*
X116509719Y-82633126D01*
X116512131Y-82634355D01*
X116543738Y-82588129D01*
X116609134Y-82560491D01*
X116679091Y-82572595D01*
X116731398Y-82620600D01*
X116749500Y-82685669D01*
X116749500Y-82921921D01*
X116729498Y-82990042D01*
X116680702Y-83034188D01*
X116655621Y-83046967D01*
X116655620Y-83046968D01*
X116646780Y-83051472D01*
X116551472Y-83146780D01*
X116490281Y-83266874D01*
X116488731Y-83276663D01*
X116488730Y-83276665D01*
X116482665Y-83314961D01*
X116469196Y-83400000D01*
X116470747Y-83409793D01*
X116485980Y-83505968D01*
X116490281Y-83533126D01*
X116551472Y-83653220D01*
X116646780Y-83748528D01*
X116766874Y-83809719D01*
X116776663Y-83811269D01*
X116776665Y-83811270D01*
X116890207Y-83829253D01*
X116900000Y-83830804D01*
X116909793Y-83829253D01*
X117023335Y-83811270D01*
X117023337Y-83811269D01*
X117033126Y-83809719D01*
X117153220Y-83748528D01*
X117248528Y-83653220D01*
X117309719Y-83533126D01*
X117311304Y-83523119D01*
X117311418Y-83522879D01*
X117314335Y-83513901D01*
X117315495Y-83514278D01*
X117340490Y-83461554D01*
X117340669Y-83461437D01*
X117347065Y-83453220D01*
X117351868Y-83447048D01*
X117359095Y-83437763D01*
X117362368Y-83433732D01*
X117364683Y-83430999D01*
X117368376Y-83427306D01*
X117379542Y-83411667D01*
X117382624Y-83407533D01*
X117412517Y-83369126D01*
X117414927Y-83362107D01*
X117419240Y-83356066D01*
X117424159Y-83339543D01*
X117433116Y-83309457D01*
X117434705Y-83304498D01*
X117447109Y-83268365D01*
X117450500Y-83258488D01*
X117450500Y-83251065D01*
X117452617Y-83243954D01*
X117451205Y-83209793D01*
X117450608Y-83195370D01*
X117450500Y-83190164D01*
X117450500Y-79679600D01*
X117464233Y-79622397D01*
X117509719Y-79533126D01*
X117528214Y-79416356D01*
X117529253Y-79409793D01*
X117530804Y-79400000D01*
X117514139Y-79294782D01*
X117511270Y-79276665D01*
X117511269Y-79276663D01*
X117509719Y-79266874D01*
X117448528Y-79146780D01*
X117353220Y-79051472D01*
X117233126Y-78990281D01*
X117223337Y-78988731D01*
X117223335Y-78988730D01*
X117109793Y-78970747D01*
X117100000Y-78969196D01*
X117090207Y-78970747D01*
X116976665Y-78988730D01*
X116976663Y-78988731D01*
X116966874Y-78990281D01*
X116846780Y-79051472D01*
X116751472Y-79146780D01*
X116690281Y-79266874D01*
X116688731Y-79276663D01*
X116688730Y-79276665D01*
X116685861Y-79294782D01*
X116669196Y-79400000D01*
X116670747Y-79409793D01*
X116671787Y-79416356D01*
X116690281Y-79533126D01*
X116735767Y-79622397D01*
X116749500Y-79679600D01*
X116749500Y-82314331D01*
X116729498Y-82382452D01*
X116675842Y-82428945D01*
X116605568Y-82439049D01*
X116540988Y-82409555D01*
X116511940Y-82365743D01*
X116509719Y-82366874D01*
X116460877Y-82271017D01*
X116448528Y-82246780D01*
X116353220Y-82151472D01*
X116233126Y-82090281D01*
X116223337Y-82088731D01*
X116223335Y-82088730D01*
X116109793Y-82070747D01*
X116100000Y-82069196D01*
X116090207Y-82070747D01*
X115976665Y-82088730D01*
X115976663Y-82088731D01*
X115966874Y-82090281D01*
X115846780Y-82151472D01*
X115751472Y-82246780D01*
X115690281Y-82366874D01*
X115688731Y-82376663D01*
X115688730Y-82376665D01*
X115678509Y-82441199D01*
X115669196Y-82500000D01*
X114275645Y-82500000D01*
X114309719Y-82433126D01*
X114311512Y-82421809D01*
X114329253Y-82309793D01*
X114330804Y-82300000D01*
X114321378Y-82240484D01*
X114311270Y-82176665D01*
X114311269Y-82176663D01*
X114309719Y-82166874D01*
X114248528Y-82046780D01*
X114153220Y-81951472D01*
X114033126Y-81890281D01*
X114023337Y-81888731D01*
X114023335Y-81888730D01*
X113909793Y-81870747D01*
X113900000Y-81869196D01*
X113890207Y-81870747D01*
X113776665Y-81888730D01*
X113776663Y-81888731D01*
X113766874Y-81890281D01*
X113646780Y-81951472D01*
X113551472Y-82046780D01*
X113539260Y-82070747D01*
X113513767Y-82120780D01*
X113465019Y-82172395D01*
X113396104Y-82189461D01*
X113328902Y-82166560D01*
X113284750Y-82110963D01*
X113275500Y-82063577D01*
X113275500Y-77228367D01*
X114014500Y-77228367D01*
X114017038Y-77237010D01*
X114017038Y-77237011D01*
X114048470Y-77344057D01*
X114053022Y-77359561D01*
X114085907Y-77410732D01*
X114094007Y-77423335D01*
X114126945Y-77474589D01*
X114133755Y-77480490D01*
X114133757Y-77480492D01*
X114207498Y-77544388D01*
X114230282Y-77564130D01*
X114265926Y-77580408D01*
X114346461Y-77617188D01*
X114346464Y-77617189D01*
X114354658Y-77620931D01*
X114363575Y-77622213D01*
X114451541Y-77634861D01*
X114451548Y-77634862D01*
X114455989Y-77635500D01*
X114524011Y-77635500D01*
X114528452Y-77634862D01*
X114528459Y-77634861D01*
X114616425Y-77622213D01*
X114625342Y-77620931D01*
X114633536Y-77617189D01*
X114633539Y-77617188D01*
X114714074Y-77580408D01*
X114749718Y-77564130D01*
X114772502Y-77544388D01*
X114846243Y-77480492D01*
X114846245Y-77480490D01*
X114853055Y-77474589D01*
X114885994Y-77423335D01*
X114894093Y-77410732D01*
X114926978Y-77359561D01*
X114931531Y-77344057D01*
X114962962Y-77237011D01*
X114962962Y-77237010D01*
X114965500Y-77228367D01*
X114965500Y-77212727D01*
X114985502Y-77144606D01*
X115039158Y-77098113D01*
X115109432Y-77088009D01*
X115148703Y-77100460D01*
X115166874Y-77109719D01*
X115176663Y-77111269D01*
X115176665Y-77111270D01*
X115290207Y-77129253D01*
X115300000Y-77130804D01*
X115309793Y-77129253D01*
X115423335Y-77111270D01*
X115423337Y-77111269D01*
X115433126Y-77109719D01*
X115553220Y-77048528D01*
X115648528Y-76953220D01*
X115709719Y-76833126D01*
X115716800Y-76788422D01*
X115729253Y-76709793D01*
X115730804Y-76700000D01*
X115713180Y-76588723D01*
X115711270Y-76576665D01*
X115711269Y-76576663D01*
X115709719Y-76566874D01*
X115648528Y-76446780D01*
X115553220Y-76351472D01*
X115433126Y-76290281D01*
X115423337Y-76288731D01*
X115423335Y-76288730D01*
X115309793Y-76270747D01*
X115300000Y-76269196D01*
X115290207Y-76270747D01*
X115176665Y-76288730D01*
X115176663Y-76288731D01*
X115166874Y-76290281D01*
X115046780Y-76351472D01*
X114951472Y-76446780D01*
X114890281Y-76566874D01*
X114888731Y-76576663D01*
X114888730Y-76576665D01*
X114878827Y-76639192D01*
X114848415Y-76703345D01*
X114788146Y-76740872D01*
X114717157Y-76739858D01*
X114702038Y-76734095D01*
X114678641Y-76723410D01*
X114633539Y-76702812D01*
X114633536Y-76702811D01*
X114625342Y-76699069D01*
X114608164Y-76696599D01*
X114528459Y-76685139D01*
X114528452Y-76685138D01*
X114524011Y-76684500D01*
X114455989Y-76684500D01*
X114451548Y-76685138D01*
X114451541Y-76685139D01*
X114371836Y-76696599D01*
X114354658Y-76699069D01*
X114346464Y-76702811D01*
X114346461Y-76702812D01*
X114280266Y-76733043D01*
X114230282Y-76755870D01*
X114223471Y-76761772D01*
X114223469Y-76761773D01*
X114133757Y-76839508D01*
X114133755Y-76839510D01*
X114126945Y-76845411D01*
X114122071Y-76852994D01*
X114122071Y-76852995D01*
X114111636Y-76869232D01*
X114053022Y-76960439D01*
X114050482Y-76969088D01*
X114050482Y-76969089D01*
X114019237Y-77075500D01*
X114014500Y-77091633D01*
X114014500Y-77228367D01*
X113275500Y-77228367D01*
X113275500Y-75139543D01*
X113277921Y-75114963D01*
X113278476Y-75112173D01*
X113278476Y-75112171D01*
X113280897Y-75100000D01*
X113268093Y-75035631D01*
X113259515Y-74992505D01*
X113198624Y-74901376D01*
X113185936Y-74892898D01*
X113166844Y-74877228D01*
X112649758Y-74360142D01*
X112615732Y-74297830D01*
X112620797Y-74227015D01*
X112663344Y-74170179D01*
X112729864Y-74145368D01*
X112763433Y-74147468D01*
X112778677Y-74150500D01*
X112778679Y-74150500D01*
X112805811Y-74155897D01*
X112820772Y-74152921D01*
X112845354Y-74150500D01*
X116537877Y-74150500D01*
X116605998Y-74170502D01*
X116626972Y-74187405D01*
X116631407Y-74191840D01*
X116665433Y-74254152D01*
X116662320Y-74316379D01*
X116660469Y-74320011D01*
X116658919Y-74329800D01*
X116658918Y-74329802D01*
X116647042Y-74404787D01*
X116639384Y-74453137D01*
X116640935Y-74462930D01*
X116651440Y-74529253D01*
X116660469Y-74586263D01*
X116721660Y-74706357D01*
X116816968Y-74801665D01*
X116937062Y-74862856D01*
X116946851Y-74864406D01*
X116946853Y-74864407D01*
X117060395Y-74882390D01*
X117070188Y-74883941D01*
X117079981Y-74882390D01*
X117193523Y-74864407D01*
X117193525Y-74864406D01*
X117203314Y-74862856D01*
X117323408Y-74801665D01*
X117418716Y-74706357D01*
X117479907Y-74586263D01*
X117490611Y-74518678D01*
X117521023Y-74454526D01*
X117581291Y-74416999D01*
X117595346Y-74413941D01*
X117633752Y-74407858D01*
X117653142Y-74404787D01*
X117653143Y-74404787D01*
X117662934Y-74403236D01*
X117783028Y-74342045D01*
X117783263Y-74342506D01*
X117843237Y-74321107D01*
X117912388Y-74337188D01*
X117961869Y-74388102D01*
X117976430Y-74446902D01*
X117976430Y-75198167D01*
X117956428Y-75266288D01*
X117939525Y-75287262D01*
X117633156Y-75593631D01*
X117614064Y-75609301D01*
X117601376Y-75617779D01*
X117586007Y-75640780D01*
X117586006Y-75640781D01*
X117580830Y-75648528D01*
X117540485Y-75708908D01*
X117540485Y-75708909D01*
X117519103Y-75816403D01*
X117521524Y-75828574D01*
X117522079Y-75831364D01*
X117524500Y-75855946D01*
X117524500Y-77344057D01*
X117522079Y-77368639D01*
X117519103Y-77383600D01*
X117524500Y-77410732D01*
X117524500Y-77410733D01*
X117540485Y-77491095D01*
X117601376Y-77582224D01*
X117611692Y-77589117D01*
X117611693Y-77589118D01*
X117614064Y-77590702D01*
X117633156Y-77606372D01*
X117840486Y-77813702D01*
X117874512Y-77876014D01*
X117877391Y-77902797D01*
X117877391Y-83991241D01*
X117874970Y-84015823D01*
X117871994Y-84030784D01*
X117877391Y-84057916D01*
X117877391Y-84057917D01*
X117893376Y-84138279D01*
X117954267Y-84229408D01*
X117964583Y-84236301D01*
X117964584Y-84236302D01*
X117966955Y-84237886D01*
X117986047Y-84253556D01*
X119246442Y-85513951D01*
X119262112Y-85533043D01*
X119270590Y-85545731D01*
X119280903Y-85552622D01*
X119293591Y-85561100D01*
X119292002Y-85563477D01*
X119292004Y-85563478D01*
X119293592Y-85561101D01*
X119319746Y-85578576D01*
X119319748Y-85578579D01*
X119319749Y-85578578D01*
X119344000Y-85594782D01*
X119361719Y-85606622D01*
X119373888Y-85609043D01*
X119373889Y-85609043D01*
X119442081Y-85622607D01*
X119457042Y-85625583D01*
X119457043Y-85625583D01*
X119469214Y-85628004D01*
X119484175Y-85625028D01*
X119508757Y-85622607D01*
X120400035Y-85622608D01*
X121291241Y-85622609D01*
X121315821Y-85625030D01*
X121318611Y-85625585D01*
X121318613Y-85625585D01*
X121330784Y-85628006D01*
X121357916Y-85622609D01*
X121357917Y-85622609D01*
X121438279Y-85606624D01*
X121456002Y-85594782D01*
X121480249Y-85578580D01*
X121480249Y-85578581D01*
X121480252Y-85578578D01*
X121506391Y-85561113D01*
X121506390Y-85561113D01*
X121506406Y-85561103D01*
X121506408Y-85561101D01*
X121529408Y-85545733D01*
X121537884Y-85533048D01*
X121553554Y-85513955D01*
X122855107Y-84212404D01*
X122917419Y-84178379D01*
X122944202Y-84175500D01*
X128621562Y-84175500D01*
X128689683Y-84195502D01*
X128710656Y-84212404D01*
X128746780Y-84248528D01*
X128866874Y-84309719D01*
X128876663Y-84311269D01*
X128876665Y-84311270D01*
X128990207Y-84329253D01*
X129000000Y-84330804D01*
X129009793Y-84329253D01*
X129123335Y-84311270D01*
X129123337Y-84311269D01*
X129133126Y-84309719D01*
X129253220Y-84248528D01*
X129348528Y-84153220D01*
X129409719Y-84033126D01*
X129430804Y-83900000D01*
X129429253Y-83890207D01*
X129411270Y-83776665D01*
X129411269Y-83776663D01*
X129409719Y-83766874D01*
X129348528Y-83646780D01*
X129340843Y-83639095D01*
X129340286Y-83638075D01*
X129335689Y-83631748D01*
X129336507Y-83631154D01*
X129306817Y-83576783D01*
X129311882Y-83505968D01*
X129335984Y-83468466D01*
X129335689Y-83468252D01*
X129339432Y-83463100D01*
X129340843Y-83460905D01*
X129348528Y-83453220D01*
X129409719Y-83333126D01*
X129416894Y-83287828D01*
X129429253Y-83209793D01*
X129430804Y-83200000D01*
X129422375Y-83146780D01*
X129411270Y-83076665D01*
X129411269Y-83076663D01*
X129409719Y-83066874D01*
X129348528Y-82946780D01*
X129340843Y-82939095D01*
X129340286Y-82938075D01*
X129335689Y-82931748D01*
X129336507Y-82931154D01*
X129306817Y-82876783D01*
X129311882Y-82805968D01*
X129335984Y-82768466D01*
X129335689Y-82768252D01*
X129339432Y-82763100D01*
X129340843Y-82760905D01*
X129348528Y-82753220D01*
X129409719Y-82633126D01*
X129421265Y-82560231D01*
X129429253Y-82509793D01*
X129430804Y-82500000D01*
X129421491Y-82441199D01*
X129411270Y-82376665D01*
X129411269Y-82376663D01*
X129409719Y-82366874D01*
X129348528Y-82246780D01*
X129340843Y-82239095D01*
X129340286Y-82238075D01*
X129335689Y-82231748D01*
X129336507Y-82231154D01*
X129306817Y-82176783D01*
X129311882Y-82105968D01*
X129335984Y-82068466D01*
X129335689Y-82068252D01*
X129339432Y-82063100D01*
X129340843Y-82060905D01*
X129348528Y-82053220D01*
X129409719Y-81933126D01*
X129419845Y-81869196D01*
X129429253Y-81809793D01*
X129430804Y-81800000D01*
X129425009Y-81763411D01*
X129411270Y-81676665D01*
X129411269Y-81676663D01*
X129409719Y-81666874D01*
X129348528Y-81546780D01*
X129340843Y-81539095D01*
X129340286Y-81538075D01*
X129335689Y-81531748D01*
X129336507Y-81531154D01*
X129306817Y-81476783D01*
X129311882Y-81405968D01*
X129335984Y-81368466D01*
X129335689Y-81368252D01*
X129339432Y-81363100D01*
X129340843Y-81360905D01*
X129348528Y-81353220D01*
X129409719Y-81233126D01*
X129430804Y-81100000D01*
X129422375Y-81046780D01*
X129411270Y-80976665D01*
X129411269Y-80976663D01*
X129409719Y-80966874D01*
X129348528Y-80846780D01*
X129340843Y-80839095D01*
X129340286Y-80838075D01*
X129335689Y-80831748D01*
X129336507Y-80831154D01*
X129306817Y-80776783D01*
X129311882Y-80705968D01*
X129335984Y-80668466D01*
X129335689Y-80668252D01*
X129339432Y-80663100D01*
X129340843Y-80660905D01*
X129348528Y-80653220D01*
X129409719Y-80533126D01*
X129430804Y-80400000D01*
X129409719Y-80266874D01*
X129348528Y-80146780D01*
X129253220Y-80051472D01*
X129133126Y-79990281D01*
X129123337Y-79988731D01*
X129123335Y-79988730D01*
X129009793Y-79970747D01*
X129000000Y-79969196D01*
X128990207Y-79970747D01*
X128876665Y-79988730D01*
X128876663Y-79988731D01*
X128866874Y-79990281D01*
X128746780Y-80051472D01*
X128710657Y-80087595D01*
X128648345Y-80121621D01*
X128621562Y-80124500D01*
X126452905Y-80124500D01*
X126384784Y-80104498D01*
X126338291Y-80050842D01*
X126328187Y-79980568D01*
X126357681Y-79915988D01*
X126363810Y-79909405D01*
X127078434Y-79194782D01*
X127961771Y-78311445D01*
X128024083Y-78277419D01*
X128050865Y-78274540D01*
X128297714Y-78274538D01*
X128356427Y-78274538D01*
X128381008Y-78276959D01*
X128395970Y-78279935D01*
X128423103Y-78274538D01*
X128423104Y-78274538D01*
X128466134Y-78265979D01*
X128491296Y-78260974D01*
X128491297Y-78260974D01*
X128503466Y-78258553D01*
X128542573Y-78232422D01*
X128571592Y-78213032D01*
X128571593Y-78213031D01*
X128594595Y-78197661D01*
X128603069Y-78184978D01*
X128618737Y-78165887D01*
X128823187Y-77961436D01*
X128885499Y-77927411D01*
X128912283Y-77924531D01*
X129558475Y-77924530D01*
X129712139Y-77924530D01*
X129736721Y-77926951D01*
X129751682Y-77929927D01*
X129859177Y-77908545D01*
X129927304Y-77863024D01*
X129927305Y-77863023D01*
X129950306Y-77847654D01*
X129958782Y-77834969D01*
X129974451Y-77815877D01*
X130070294Y-77720034D01*
X130178411Y-77611916D01*
X130240723Y-77577891D01*
X130267507Y-77575011D01*
X131067362Y-77575011D01*
X131091944Y-77577432D01*
X131106905Y-77580408D01*
X131134037Y-77575011D01*
X131134038Y-77575011D01*
X131214400Y-77559026D01*
X131224717Y-77552132D01*
X131224720Y-77552131D01*
X131269619Y-77522130D01*
X131282526Y-77513506D01*
X131282528Y-77513504D01*
X131295216Y-77505026D01*
X131305529Y-77498135D01*
X131314009Y-77485445D01*
X131329676Y-77466356D01*
X131683627Y-77112405D01*
X131745939Y-77078379D01*
X131772722Y-77075500D01*
X132021562Y-77075500D01*
X132089683Y-77095502D01*
X132110657Y-77112405D01*
X132146780Y-77148528D01*
X132266874Y-77209719D01*
X132276663Y-77211269D01*
X132276665Y-77211270D01*
X132390207Y-77229253D01*
X132400000Y-77230804D01*
X132409793Y-77229253D01*
X132523335Y-77211270D01*
X132523337Y-77211269D01*
X132533126Y-77209719D01*
X132653220Y-77148528D01*
X132748528Y-77053220D01*
X132809719Y-76933126D01*
X132818205Y-76879551D01*
X132829253Y-76809793D01*
X132830804Y-76800000D01*
X132827042Y-76776249D01*
X132811270Y-76676665D01*
X132811269Y-76676663D01*
X132809719Y-76666874D01*
X132748528Y-76546780D01*
X132653220Y-76451472D01*
X132533126Y-76390281D01*
X132523337Y-76388731D01*
X132523335Y-76388730D01*
X132409793Y-76370747D01*
X132400000Y-76369196D01*
X132390207Y-76370747D01*
X132276665Y-76388730D01*
X132276663Y-76388731D01*
X132266874Y-76390281D01*
X132146780Y-76451472D01*
X132110657Y-76487595D01*
X132048345Y-76521621D01*
X132021562Y-76524500D01*
X131645959Y-76524500D01*
X131621377Y-76522079D01*
X131618587Y-76521524D01*
X131606416Y-76519103D01*
X131498921Y-76540485D01*
X131488602Y-76547380D01*
X131430801Y-76586001D01*
X131426728Y-76588723D01*
X131425404Y-76589138D01*
X131417141Y-76593939D01*
X131417139Y-76593940D01*
X131416182Y-76592026D01*
X131358977Y-76609944D01*
X131290508Y-76591167D01*
X131254783Y-76558028D01*
X131253028Y-76555612D01*
X131248528Y-76546780D01*
X131153220Y-76451472D01*
X131033126Y-76390281D01*
X131023337Y-76388731D01*
X131023335Y-76388730D01*
X130909793Y-76370747D01*
X130900000Y-76369196D01*
X130890207Y-76370747D01*
X130776665Y-76388730D01*
X130776663Y-76388731D01*
X130766874Y-76390281D01*
X130646780Y-76451472D01*
X130610657Y-76487595D01*
X130548345Y-76521621D01*
X130521562Y-76524500D01*
X130369306Y-76524500D01*
X130301185Y-76504498D01*
X130254692Y-76450842D01*
X130244588Y-76380568D01*
X130274082Y-76315988D01*
X130280211Y-76309405D01*
X131766844Y-74822772D01*
X131785936Y-74807102D01*
X131788311Y-74805515D01*
X131798624Y-74798624D01*
X131815835Y-74772867D01*
X131846080Y-74727601D01*
X131859515Y-74707495D01*
X131875500Y-74627133D01*
X131875500Y-74627132D01*
X131880897Y-74600000D01*
X131877921Y-74585039D01*
X131875500Y-74560457D01*
X131875500Y-74078438D01*
X131895502Y-74010317D01*
X131912405Y-73989343D01*
X131948528Y-73953220D01*
X132009719Y-73833126D01*
X132014070Y-73805659D01*
X132029253Y-73709793D01*
X132030804Y-73700000D01*
X132026562Y-73673217D01*
X132011270Y-73576665D01*
X132011269Y-73576663D01*
X132009719Y-73566874D01*
X131948528Y-73446780D01*
X131853220Y-73351472D01*
X131733126Y-73290281D01*
X131723337Y-73288731D01*
X131723335Y-73288730D01*
X131609793Y-73270747D01*
X131600000Y-73269196D01*
X131590207Y-73270747D01*
X131476665Y-73288730D01*
X131476663Y-73288731D01*
X131466874Y-73290281D01*
X131346780Y-73351472D01*
X131251472Y-73446780D01*
X131190281Y-73566874D01*
X131188731Y-73576663D01*
X131188730Y-73576665D01*
X131173438Y-73673217D01*
X131169196Y-73700000D01*
X131170747Y-73709793D01*
X131185931Y-73805659D01*
X131190281Y-73833126D01*
X131251472Y-73953220D01*
X131287595Y-73989343D01*
X131321621Y-74051655D01*
X131324500Y-74078438D01*
X131324500Y-74433694D01*
X131304498Y-74501815D01*
X131287595Y-74522789D01*
X129476542Y-76333842D01*
X129414230Y-76367868D01*
X129400760Y-76369316D01*
X129400000Y-76369196D01*
X129328200Y-76380568D01*
X129276665Y-76388730D01*
X129276663Y-76388731D01*
X129266874Y-76390281D01*
X129146780Y-76451472D01*
X129110657Y-76487595D01*
X129048345Y-76521621D01*
X129021562Y-76524500D01*
X128645959Y-76524500D01*
X128621379Y-76522079D01*
X128618589Y-76521524D01*
X128618587Y-76521524D01*
X128606416Y-76519103D01*
X128594245Y-76521524D01*
X128579284Y-76524500D01*
X128579283Y-76524500D01*
X128498921Y-76540485D01*
X128488605Y-76547378D01*
X128468738Y-76560653D01*
X128468737Y-76560653D01*
X128430801Y-76586001D01*
X128426728Y-76588723D01*
X128358977Y-76609944D01*
X128290508Y-76591167D01*
X128254783Y-76558028D01*
X128253028Y-76555612D01*
X128248528Y-76546780D01*
X128153220Y-76451472D01*
X128033126Y-76390281D01*
X128023337Y-76388731D01*
X128023335Y-76388730D01*
X127909793Y-76370747D01*
X127900000Y-76369196D01*
X127890207Y-76370747D01*
X127776665Y-76388730D01*
X127776663Y-76388731D01*
X127766874Y-76390281D01*
X127646780Y-76451472D01*
X127600822Y-76497430D01*
X127536307Y-76531914D01*
X127493217Y-76540485D01*
X127482901Y-76547378D01*
X127463034Y-76560653D01*
X127463033Y-76560653D01*
X127425097Y-76586001D01*
X127425090Y-76586006D01*
X127425089Y-76586007D01*
X127402088Y-76601376D01*
X127395197Y-76611689D01*
X127390595Y-76616291D01*
X127328283Y-76650317D01*
X127257468Y-76645252D01*
X127200632Y-76602705D01*
X127175821Y-76536185D01*
X127175500Y-76527196D01*
X127175500Y-74078438D01*
X127195502Y-74010317D01*
X127212405Y-73989343D01*
X127248528Y-73953220D01*
X127309719Y-73833126D01*
X127314070Y-73805659D01*
X127329253Y-73709793D01*
X127330804Y-73700000D01*
X127326562Y-73673217D01*
X127311270Y-73576665D01*
X127311269Y-73576663D01*
X127309719Y-73566874D01*
X127248528Y-73446780D01*
X127153220Y-73351472D01*
X127033126Y-73290281D01*
X127023337Y-73288731D01*
X127023335Y-73288730D01*
X126909793Y-73270747D01*
X126900000Y-73269196D01*
X126890207Y-73270747D01*
X126776665Y-73288730D01*
X126776663Y-73288731D01*
X126766874Y-73290281D01*
X126646780Y-73351472D01*
X126551472Y-73446780D01*
X126490281Y-73566874D01*
X126488731Y-73576663D01*
X126488730Y-73576665D01*
X126473438Y-73673217D01*
X126469196Y-73700000D01*
X126470747Y-73709793D01*
X126485931Y-73805659D01*
X126490281Y-73833126D01*
X126551472Y-73953220D01*
X126587595Y-73989343D01*
X126621621Y-74051655D01*
X126624500Y-74078438D01*
X126624500Y-76257226D01*
X126604498Y-76325347D01*
X126550842Y-76371840D01*
X126478789Y-76381675D01*
X126400000Y-76369196D01*
X126390207Y-76370747D01*
X126276665Y-76388730D01*
X126276663Y-76388731D01*
X126266874Y-76390281D01*
X126146780Y-76451472D01*
X126051472Y-76546780D01*
X125990281Y-76666874D01*
X125988731Y-76676663D01*
X125988730Y-76676665D01*
X125972958Y-76776249D01*
X125969196Y-76800000D01*
X125967156Y-76799677D01*
X125950745Y-76855568D01*
X125933842Y-76876542D01*
X125333578Y-77476806D01*
X125271266Y-77510832D01*
X125200451Y-77505767D01*
X125143615Y-77463220D01*
X125118804Y-77396700D01*
X125120034Y-77368001D01*
X125129253Y-77309794D01*
X125129253Y-77309793D01*
X125130804Y-77300000D01*
X125120828Y-77237011D01*
X125111270Y-77176665D01*
X125111269Y-77176663D01*
X125109719Y-77166874D01*
X125048528Y-77046780D01*
X124953220Y-76951472D01*
X124833126Y-76890281D01*
X124823337Y-76888731D01*
X124823335Y-76888730D01*
X124709793Y-76870747D01*
X124700000Y-76869196D01*
X124690207Y-76870747D01*
X124576665Y-76888730D01*
X124576663Y-76888731D01*
X124566874Y-76890281D01*
X124446780Y-76951472D01*
X124351472Y-77046780D01*
X124290281Y-77166874D01*
X124288731Y-77176663D01*
X124288730Y-77176665D01*
X124279172Y-77237011D01*
X124269196Y-77300000D01*
X124270747Y-77309793D01*
X124284512Y-77396700D01*
X124290281Y-77433126D01*
X124351472Y-77553220D01*
X124446780Y-77648528D01*
X124566874Y-77709719D01*
X124576663Y-77711269D01*
X124576665Y-77711270D01*
X124690207Y-77729253D01*
X124700000Y-77730804D01*
X124709793Y-77729253D01*
X124709794Y-77729253D01*
X124768001Y-77720034D01*
X124838412Y-77729134D01*
X124892726Y-77774856D01*
X124913698Y-77842684D01*
X124894671Y-77911083D01*
X124876806Y-77933578D01*
X123522789Y-79287595D01*
X123460477Y-79321621D01*
X123433694Y-79324500D01*
X120778438Y-79324500D01*
X120710317Y-79304498D01*
X120689343Y-79287595D01*
X120653220Y-79251472D01*
X120533126Y-79190281D01*
X120523337Y-79188731D01*
X120523335Y-79188730D01*
X120409793Y-79170747D01*
X120400000Y-79169196D01*
X120390207Y-79170747D01*
X120390206Y-79170747D01*
X120321699Y-79181597D01*
X120251288Y-79172497D01*
X120196974Y-79126775D01*
X120175989Y-79057148D01*
X120175989Y-77272233D01*
X120195991Y-77204112D01*
X120212894Y-77183138D01*
X120492333Y-76903699D01*
X120511425Y-76888029D01*
X120513796Y-76886445D01*
X120513797Y-76886444D01*
X120524113Y-76879551D01*
X120555134Y-76833126D01*
X120555138Y-76833122D01*
X120572653Y-76806907D01*
X120572654Y-76806905D01*
X120578109Y-76798741D01*
X120585004Y-76788422D01*
X120600989Y-76708060D01*
X120600989Y-76708059D01*
X120606386Y-76680927D01*
X120603410Y-76665964D01*
X120600989Y-76641384D01*
X120600989Y-76528335D01*
X120620991Y-76460214D01*
X120637894Y-76439240D01*
X121166844Y-75910290D01*
X121185936Y-75894620D01*
X121188311Y-75893033D01*
X121198624Y-75886142D01*
X121226764Y-75844029D01*
X121234049Y-75833126D01*
X121252622Y-75805330D01*
X121252622Y-75805329D01*
X121259516Y-75795012D01*
X121280897Y-75687518D01*
X121277921Y-75672556D01*
X121275500Y-75647976D01*
X121275500Y-75300000D01*
X124469196Y-75300000D01*
X124470747Y-75309793D01*
X124475031Y-75336838D01*
X124490281Y-75433126D01*
X124551472Y-75553220D01*
X124646780Y-75648528D01*
X124766874Y-75709719D01*
X124776663Y-75711269D01*
X124776665Y-75711270D01*
X124890207Y-75729253D01*
X124900000Y-75730804D01*
X124909793Y-75729253D01*
X125023335Y-75711270D01*
X125023337Y-75711269D01*
X125033126Y-75709719D01*
X125153220Y-75648528D01*
X125248528Y-75553220D01*
X125309719Y-75433126D01*
X125324970Y-75336838D01*
X125329253Y-75309793D01*
X125330804Y-75300000D01*
X125325925Y-75269196D01*
X125311270Y-75176665D01*
X125311269Y-75176663D01*
X125309719Y-75166874D01*
X125248528Y-75046780D01*
X125153220Y-74951472D01*
X125033126Y-74890281D01*
X125023337Y-74888731D01*
X125023335Y-74888730D01*
X124909793Y-74870747D01*
X124900000Y-74869196D01*
X124890207Y-74870747D01*
X124776665Y-74888730D01*
X124776663Y-74888731D01*
X124766874Y-74890281D01*
X124646780Y-74951472D01*
X124551472Y-75046780D01*
X124490281Y-75166874D01*
X124488731Y-75176663D01*
X124488730Y-75176665D01*
X124474075Y-75269196D01*
X124469196Y-75300000D01*
X121275500Y-75300000D01*
X121275500Y-74100000D01*
X124469196Y-74100000D01*
X124470747Y-74109793D01*
X124483040Y-74187405D01*
X124490281Y-74233126D01*
X124551472Y-74353220D01*
X124646780Y-74448528D01*
X124766874Y-74509719D01*
X124776663Y-74511269D01*
X124776665Y-74511270D01*
X124890207Y-74529253D01*
X124900000Y-74530804D01*
X124909793Y-74529253D01*
X125023335Y-74511270D01*
X125023337Y-74511269D01*
X125033126Y-74509719D01*
X125153220Y-74448528D01*
X125248528Y-74353220D01*
X125309719Y-74233126D01*
X125316961Y-74187405D01*
X125329253Y-74109793D01*
X125330804Y-74100000D01*
X125309719Y-73966874D01*
X125248528Y-73846780D01*
X125153220Y-73751472D01*
X125033126Y-73690281D01*
X125023337Y-73688731D01*
X125023335Y-73688730D01*
X124909793Y-73670747D01*
X124900000Y-73669196D01*
X124890207Y-73670747D01*
X124776665Y-73688730D01*
X124776663Y-73688731D01*
X124766874Y-73690281D01*
X124646780Y-73751472D01*
X124551472Y-73846780D01*
X124490281Y-73966874D01*
X124469196Y-74100000D01*
X121275500Y-74100000D01*
X121275500Y-72852359D01*
X121277921Y-72827777D01*
X121278476Y-72824987D01*
X121280897Y-72812816D01*
X121259515Y-72705322D01*
X121259515Y-72705321D01*
X121198624Y-72614192D01*
X121185936Y-72605714D01*
X121166844Y-72590044D01*
X121124940Y-72548140D01*
X121098653Y-72500000D01*
X128369196Y-72500000D01*
X128370747Y-72509793D01*
X128383458Y-72590044D01*
X128390281Y-72633126D01*
X128451472Y-72753220D01*
X128546780Y-72848528D01*
X128666874Y-72909719D01*
X128676663Y-72911269D01*
X128676665Y-72911270D01*
X128790207Y-72929253D01*
X128800000Y-72930804D01*
X128809793Y-72929253D01*
X128923335Y-72911270D01*
X128923337Y-72911269D01*
X128933126Y-72909719D01*
X129053220Y-72848528D01*
X129148528Y-72753220D01*
X129209719Y-72633126D01*
X129216543Y-72590044D01*
X129229253Y-72509793D01*
X129230804Y-72500000D01*
X129225925Y-72469196D01*
X129211270Y-72376665D01*
X129211269Y-72376663D01*
X129209719Y-72366874D01*
X129148528Y-72246780D01*
X129053220Y-72151472D01*
X128933126Y-72090281D01*
X128923337Y-72088731D01*
X128923335Y-72088730D01*
X128809793Y-72070747D01*
X128800000Y-72069196D01*
X128790207Y-72070747D01*
X128676665Y-72088730D01*
X128676663Y-72088731D01*
X128666874Y-72090281D01*
X128546780Y-72151472D01*
X128451472Y-72246780D01*
X128390281Y-72366874D01*
X128388731Y-72376663D01*
X128388730Y-72376665D01*
X128374075Y-72469196D01*
X128369196Y-72500000D01*
X121098653Y-72500000D01*
X121090914Y-72485828D01*
X121095979Y-72415013D01*
X121139973Y-72357109D01*
X121141179Y-72356233D01*
X121150020Y-72351728D01*
X121160905Y-72340843D01*
X121223217Y-72306817D01*
X121294032Y-72311882D01*
X121331534Y-72335984D01*
X121331748Y-72335689D01*
X121336900Y-72339432D01*
X121339095Y-72340843D01*
X121346780Y-72348528D01*
X121466874Y-72409719D01*
X121476663Y-72411269D01*
X121476665Y-72411270D01*
X121590207Y-72429253D01*
X121600000Y-72430804D01*
X121609793Y-72429253D01*
X121723335Y-72411270D01*
X121723337Y-72411269D01*
X121733126Y-72409719D01*
X121853220Y-72348528D01*
X121910905Y-72290843D01*
X121973217Y-72256817D01*
X122044032Y-72261882D01*
X122089095Y-72290843D01*
X122146780Y-72348528D01*
X122266874Y-72409719D01*
X122276663Y-72411269D01*
X122276665Y-72411270D01*
X122390207Y-72429253D01*
X122400000Y-72430804D01*
X122409793Y-72429253D01*
X122523335Y-72411270D01*
X122523337Y-72411269D01*
X122533126Y-72409719D01*
X122653220Y-72348528D01*
X122710905Y-72290843D01*
X122773217Y-72256817D01*
X122844032Y-72261882D01*
X122889095Y-72290843D01*
X122946780Y-72348528D01*
X123066874Y-72409719D01*
X123076663Y-72411269D01*
X123076665Y-72411270D01*
X123190207Y-72429253D01*
X123200000Y-72430804D01*
X123209793Y-72429253D01*
X123323335Y-72411270D01*
X123323337Y-72411269D01*
X123333126Y-72409719D01*
X123453220Y-72348528D01*
X123548528Y-72253220D01*
X123609719Y-72133126D01*
X123619845Y-72069196D01*
X123629253Y-72009793D01*
X123630804Y-72000000D01*
X123614966Y-71900000D01*
X126169196Y-71900000D01*
X126190281Y-72033126D01*
X126251472Y-72153220D01*
X126346780Y-72248528D01*
X126466874Y-72309719D01*
X126476663Y-72311269D01*
X126476665Y-72311270D01*
X126590207Y-72329253D01*
X126600000Y-72330804D01*
X126609793Y-72329253D01*
X126723335Y-72311270D01*
X126723337Y-72311269D01*
X126733126Y-72309719D01*
X126853220Y-72248528D01*
X126948528Y-72153220D01*
X127009719Y-72033126D01*
X127030804Y-71900000D01*
X127024158Y-71858041D01*
X127011270Y-71776665D01*
X127011269Y-71776663D01*
X127009719Y-71766874D01*
X126948528Y-71646780D01*
X126853220Y-71551472D01*
X126733126Y-71490281D01*
X126723337Y-71488731D01*
X126723335Y-71488730D01*
X126609793Y-71470747D01*
X126600000Y-71469196D01*
X126590207Y-71470747D01*
X126476665Y-71488730D01*
X126476663Y-71488731D01*
X126466874Y-71490281D01*
X126346780Y-71551472D01*
X126251472Y-71646780D01*
X126190281Y-71766874D01*
X126188731Y-71776663D01*
X126188730Y-71776665D01*
X126175842Y-71858041D01*
X126169196Y-71900000D01*
X123614966Y-71900000D01*
X123609719Y-71866874D01*
X123548528Y-71746780D01*
X123453220Y-71651472D01*
X123333126Y-71590281D01*
X123323337Y-71588731D01*
X123323335Y-71588730D01*
X123209793Y-71570747D01*
X123200000Y-71569196D01*
X123190207Y-71570747D01*
X123076665Y-71588730D01*
X123076663Y-71588731D01*
X123066874Y-71590281D01*
X122946780Y-71651472D01*
X122889095Y-71709157D01*
X122826783Y-71743183D01*
X122755968Y-71738118D01*
X122710905Y-71709157D01*
X122653220Y-71651472D01*
X122533126Y-71590281D01*
X122523337Y-71588731D01*
X122523335Y-71588730D01*
X122409793Y-71570747D01*
X122400000Y-71569196D01*
X122390207Y-71570747D01*
X122276665Y-71588730D01*
X122276663Y-71588731D01*
X122266874Y-71590281D01*
X122146780Y-71651472D01*
X122089095Y-71709157D01*
X122026783Y-71743183D01*
X121955968Y-71738118D01*
X121910905Y-71709157D01*
X121853220Y-71651472D01*
X121733126Y-71590281D01*
X121723337Y-71588731D01*
X121723335Y-71588730D01*
X121609793Y-71570747D01*
X121600000Y-71569196D01*
X121590207Y-71570747D01*
X121476665Y-71588730D01*
X121476663Y-71588731D01*
X121466874Y-71590281D01*
X121346780Y-71651472D01*
X121335895Y-71662357D01*
X121273583Y-71696383D01*
X121202768Y-71691318D01*
X121165266Y-71667216D01*
X121165052Y-71667511D01*
X121159900Y-71663768D01*
X121157705Y-71662357D01*
X121150020Y-71654672D01*
X121029926Y-71593481D01*
X121020137Y-71591931D01*
X121020135Y-71591930D01*
X120906593Y-71573947D01*
X120896800Y-71572396D01*
X120887007Y-71573947D01*
X120887006Y-71573947D01*
X120818499Y-71584797D01*
X120748088Y-71575697D01*
X120693774Y-71529975D01*
X120672789Y-71460348D01*
X120672789Y-71143248D01*
X120675210Y-71118666D01*
X120675765Y-71115876D01*
X120678186Y-71103705D01*
X120656804Y-70996211D01*
X120656804Y-70996210D01*
X120643214Y-70975870D01*
X120619243Y-70939996D01*
X120611283Y-70928083D01*
X120611282Y-70928082D01*
X120602804Y-70915394D01*
X120595913Y-70905081D01*
X120583225Y-70896603D01*
X120564133Y-70880933D01*
X120528140Y-70844940D01*
X120494114Y-70782628D01*
X120499179Y-70711813D01*
X120543173Y-70653909D01*
X120544379Y-70653033D01*
X120553220Y-70648528D01*
X120648528Y-70553220D01*
X120687733Y-70476276D01*
X120736481Y-70424661D01*
X120805396Y-70407595D01*
X120872598Y-70430496D01*
X120912267Y-70476276D01*
X120951472Y-70553220D01*
X121046780Y-70648528D01*
X121166874Y-70709719D01*
X121176663Y-70711269D01*
X121176665Y-70711270D01*
X121290207Y-70729253D01*
X121300000Y-70730804D01*
X121309793Y-70729253D01*
X121423335Y-70711270D01*
X121423337Y-70711269D01*
X121433126Y-70709719D01*
X121553220Y-70648528D01*
X121560905Y-70640843D01*
X121561925Y-70640286D01*
X121568252Y-70635689D01*
X121568846Y-70636507D01*
X121623217Y-70606817D01*
X121694032Y-70611882D01*
X121731534Y-70635984D01*
X121731748Y-70635689D01*
X121736900Y-70639432D01*
X121739095Y-70640843D01*
X121746780Y-70648528D01*
X121866874Y-70709719D01*
X121876663Y-70711269D01*
X121876665Y-70711270D01*
X121990207Y-70729253D01*
X122000000Y-70730804D01*
X122009793Y-70729253D01*
X122123335Y-70711270D01*
X122123337Y-70711269D01*
X122133126Y-70709719D01*
X122253220Y-70648528D01*
X122348528Y-70553220D01*
X122409719Y-70433126D01*
X122413427Y-70409719D01*
X122429253Y-70309793D01*
X122430804Y-70300000D01*
X122426373Y-70272021D01*
X122418403Y-70221699D01*
X122427503Y-70151288D01*
X122473225Y-70096974D01*
X122542852Y-70075989D01*
X122657148Y-70075989D01*
X122725269Y-70095991D01*
X122771762Y-70149647D01*
X122781597Y-70221699D01*
X122773627Y-70272021D01*
X122769196Y-70300000D01*
X122770747Y-70309793D01*
X122786574Y-70409719D01*
X122790281Y-70433126D01*
X122851472Y-70553220D01*
X122946780Y-70648528D01*
X123066874Y-70709719D01*
X123076663Y-70711269D01*
X123076665Y-70711270D01*
X123190207Y-70729253D01*
X123200000Y-70730804D01*
X123209793Y-70729253D01*
X123323335Y-70711270D01*
X123323337Y-70711269D01*
X123333126Y-70709719D01*
X123453220Y-70648528D01*
X123548528Y-70553220D01*
X123609719Y-70433126D01*
X123613427Y-70409719D01*
X123629253Y-70309793D01*
X123630804Y-70300000D01*
X123626373Y-70272021D01*
X123618403Y-70221699D01*
X123627503Y-70151288D01*
X123673225Y-70096974D01*
X123742852Y-70075989D01*
X126653552Y-70075989D01*
X126678134Y-70078410D01*
X126680924Y-70078965D01*
X126693095Y-70081386D01*
X126693465Y-70081312D01*
X126753592Y-70098967D01*
X126797738Y-70147762D01*
X126799535Y-70151288D01*
X126851472Y-70253220D01*
X126946780Y-70348528D01*
X127066874Y-70409719D01*
X127076663Y-70411269D01*
X127076665Y-70411270D01*
X127200000Y-70430804D01*
X127199677Y-70432844D01*
X127255568Y-70449255D01*
X127276542Y-70466158D01*
X127277229Y-70466845D01*
X127292896Y-70485934D01*
X127301376Y-70498624D01*
X127311689Y-70505515D01*
X127324377Y-70513993D01*
X127324378Y-70513994D01*
X127340102Y-70524500D01*
X127340104Y-70524502D01*
X127382185Y-70552620D01*
X127382188Y-70552621D01*
X127392505Y-70559515D01*
X127472867Y-70575500D01*
X127487828Y-70578476D01*
X127487829Y-70578476D01*
X127500000Y-70580897D01*
X127514961Y-70577921D01*
X127539543Y-70575500D01*
X127757226Y-70575500D01*
X127825347Y-70595502D01*
X127871840Y-70649158D01*
X127881675Y-70721211D01*
X127869196Y-70800000D01*
X127870747Y-70809793D01*
X127888055Y-70919069D01*
X127890281Y-70933126D01*
X127951472Y-71053220D01*
X128046780Y-71148528D01*
X128166874Y-71209719D01*
X128176663Y-71211269D01*
X128176665Y-71211270D01*
X128290207Y-71229253D01*
X128300000Y-71230804D01*
X128309793Y-71229253D01*
X128423335Y-71211270D01*
X128423337Y-71211269D01*
X128433126Y-71209719D01*
X128553220Y-71148528D01*
X128648528Y-71053220D01*
X128709719Y-70933126D01*
X128711946Y-70919069D01*
X128729253Y-70809793D01*
X128730804Y-70800000D01*
X128718325Y-70721211D01*
X128727425Y-70650800D01*
X128773147Y-70596486D01*
X128842774Y-70575500D01*
X132133130Y-70575500D01*
X132201251Y-70595502D01*
X132247744Y-70649158D01*
X132257848Y-70719432D01*
X132245397Y-70758703D01*
X132190281Y-70866874D01*
X132188731Y-70876663D01*
X132188730Y-70876665D01*
X132171047Y-70988311D01*
X132169196Y-71000000D01*
X132170747Y-71009793D01*
X132187983Y-71118614D01*
X132190281Y-71133126D01*
X132251472Y-71253220D01*
X132271428Y-71273176D01*
X132305454Y-71335488D01*
X132300389Y-71406303D01*
X132268314Y-71448504D01*
X132271282Y-71451472D01*
X132235159Y-71487595D01*
X132172847Y-71521621D01*
X132146064Y-71524500D01*
X130778438Y-71524500D01*
X130710317Y-71504498D01*
X130689343Y-71487595D01*
X130653220Y-71451472D01*
X130533126Y-71390281D01*
X130523337Y-71388731D01*
X130523335Y-71388730D01*
X130409793Y-71370747D01*
X130400000Y-71369196D01*
X130390207Y-71370747D01*
X130276665Y-71388730D01*
X130276663Y-71388731D01*
X130266874Y-71390281D01*
X130146780Y-71451472D01*
X130051472Y-71546780D01*
X129990281Y-71666874D01*
X129988731Y-71676663D01*
X129988730Y-71676665D01*
X129971335Y-71786496D01*
X129969196Y-71800000D01*
X129970747Y-71809793D01*
X129985035Y-71900002D01*
X129990281Y-71933126D01*
X130051472Y-72053220D01*
X130146780Y-72148528D01*
X130266874Y-72209719D01*
X130276663Y-72211269D01*
X130276665Y-72211270D01*
X130390207Y-72229253D01*
X130400000Y-72230804D01*
X130409793Y-72229253D01*
X130523335Y-72211270D01*
X130523337Y-72211269D01*
X130533126Y-72209719D01*
X130653220Y-72148528D01*
X130689343Y-72112405D01*
X130751655Y-72078379D01*
X130778438Y-72075500D01*
X132146064Y-72075500D01*
X132214185Y-72095502D01*
X132235159Y-72112405D01*
X132271282Y-72148528D01*
X132391376Y-72209719D01*
X132401165Y-72211269D01*
X132401167Y-72211270D01*
X132514709Y-72229253D01*
X132524502Y-72230804D01*
X132534295Y-72229253D01*
X132534296Y-72229253D01*
X132602803Y-72218403D01*
X132673214Y-72227503D01*
X132727528Y-72273225D01*
X132748513Y-72342852D01*
X132748513Y-72897549D01*
X132728511Y-72965670D01*
X132711608Y-72986644D01*
X132651472Y-73046780D01*
X132590281Y-73166874D01*
X132588731Y-73176663D01*
X132588730Y-73176665D01*
X132571350Y-73286401D01*
X132569196Y-73300000D01*
X132570747Y-73309793D01*
X132577017Y-73349377D01*
X132590281Y-73433126D01*
X132651472Y-73553220D01*
X132709157Y-73610905D01*
X132743183Y-73673217D01*
X132738118Y-73744032D01*
X132709157Y-73789095D01*
X132651472Y-73846780D01*
X132590281Y-73966874D01*
X132569196Y-74100000D01*
X132570747Y-74109793D01*
X132583040Y-74187405D01*
X132590281Y-74233126D01*
X132651472Y-74353220D01*
X132746780Y-74448528D01*
X132866874Y-74509719D01*
X132876663Y-74511269D01*
X132876665Y-74511270D01*
X132990207Y-74529253D01*
X133000000Y-74530804D01*
X133009793Y-74529253D01*
X133123335Y-74511270D01*
X133123337Y-74511269D01*
X133133126Y-74509719D01*
X133253220Y-74448528D01*
X133289343Y-74412405D01*
X133351655Y-74378379D01*
X133378438Y-74375500D01*
X133833693Y-74375500D01*
X133901814Y-74395502D01*
X133922788Y-74412404D01*
X134387595Y-74877210D01*
X134421620Y-74939523D01*
X134424500Y-74966306D01*
X134424500Y-75866873D01*
X134422079Y-75891455D01*
X134419103Y-75906416D01*
X134424500Y-75933548D01*
X134424500Y-75933549D01*
X134440485Y-76013911D01*
X134441231Y-76015027D01*
X134447388Y-76024241D01*
X134447389Y-76024244D01*
X134467211Y-76053909D01*
X134482247Y-76076411D01*
X134501376Y-76105040D01*
X134511692Y-76111933D01*
X134511693Y-76111934D01*
X134514064Y-76113518D01*
X134533156Y-76129188D01*
X135887595Y-77483627D01*
X135921621Y-77545939D01*
X135924500Y-77572722D01*
X135924500Y-78121562D01*
X135904498Y-78189683D01*
X135887595Y-78210657D01*
X135851472Y-78246780D01*
X135847245Y-78255077D01*
X135791286Y-78298224D01*
X135720550Y-78304298D01*
X135657759Y-78271164D01*
X135622850Y-78209343D01*
X135621127Y-78161097D01*
X135625173Y-78135556D01*
X135630804Y-78100000D01*
X135609719Y-77966874D01*
X135548528Y-77846780D01*
X135453220Y-77751472D01*
X135333126Y-77690281D01*
X135323337Y-77688731D01*
X135323335Y-77688730D01*
X135209793Y-77670747D01*
X135200000Y-77669196D01*
X135190207Y-77670747D01*
X135076665Y-77688730D01*
X135076663Y-77688731D01*
X135066874Y-77690281D01*
X134946780Y-77751472D01*
X134851472Y-77846780D01*
X134790281Y-77966874D01*
X134769196Y-78100000D01*
X134767156Y-78099677D01*
X134750745Y-78155568D01*
X134733842Y-78176542D01*
X133522789Y-79387595D01*
X133460477Y-79421621D01*
X133433694Y-79424500D01*
X132478438Y-79424500D01*
X132410317Y-79404498D01*
X132389343Y-79387595D01*
X132353220Y-79351472D01*
X132233126Y-79290281D01*
X132223337Y-79288731D01*
X132223335Y-79288730D01*
X132109793Y-79270747D01*
X132100000Y-79269196D01*
X132090207Y-79270747D01*
X131976665Y-79288730D01*
X131976663Y-79288731D01*
X131966874Y-79290281D01*
X131846780Y-79351472D01*
X131751472Y-79446780D01*
X131690281Y-79566874D01*
X131669196Y-79700000D01*
X131690281Y-79833126D01*
X131751472Y-79953220D01*
X131759157Y-79960905D01*
X131759714Y-79961925D01*
X131764311Y-79968252D01*
X131763493Y-79968846D01*
X131793183Y-80023217D01*
X131788118Y-80094032D01*
X131764016Y-80131534D01*
X131764311Y-80131748D01*
X131760568Y-80136900D01*
X131759157Y-80139095D01*
X131751472Y-80146780D01*
X131690281Y-80266874D01*
X131669196Y-80400000D01*
X131690281Y-80533126D01*
X131751472Y-80653220D01*
X131846780Y-80748528D01*
X131966874Y-80809719D01*
X131976663Y-80811269D01*
X131976665Y-80811270D01*
X132090207Y-80829253D01*
X132100000Y-80830804D01*
X132109793Y-80829253D01*
X132223335Y-80811270D01*
X132223337Y-80811269D01*
X132233126Y-80809719D01*
X132353220Y-80748528D01*
X132389343Y-80712405D01*
X132451655Y-80678379D01*
X132478438Y-80675500D01*
X137033694Y-80675500D01*
X137101815Y-80695502D01*
X137122789Y-80712405D01*
X137733842Y-81323458D01*
X137767868Y-81385770D01*
X137769316Y-81399240D01*
X137769196Y-81400000D01*
X137790281Y-81533126D01*
X137851472Y-81653220D01*
X137946780Y-81748528D01*
X138066874Y-81809719D01*
X138076663Y-81811269D01*
X138076665Y-81811270D01*
X138190207Y-81829253D01*
X138200000Y-81830804D01*
X138209793Y-81829253D01*
X138209794Y-81829253D01*
X138268001Y-81820034D01*
X138338412Y-81829134D01*
X138392726Y-81874856D01*
X138413698Y-81942684D01*
X138394671Y-82011083D01*
X138376806Y-82033578D01*
X137333156Y-83077228D01*
X137314064Y-83092898D01*
X137301376Y-83101376D01*
X137294485Y-83111689D01*
X137286007Y-83124377D01*
X137286006Y-83124378D01*
X137271773Y-83145679D01*
X137247378Y-83182188D01*
X137247377Y-83182190D01*
X137240485Y-83192505D01*
X137238065Y-83204672D01*
X137238064Y-83204674D01*
X137228417Y-83253174D01*
X137219103Y-83300000D01*
X137221524Y-83312171D01*
X137222079Y-83314961D01*
X137224500Y-83339543D01*
X137224500Y-86921562D01*
X137204498Y-86989683D01*
X137187595Y-87010657D01*
X137151472Y-87046780D01*
X137090281Y-87166874D01*
X137088731Y-87176663D01*
X137088730Y-87176665D01*
X137076015Y-87256948D01*
X137069196Y-87300000D01*
X137070747Y-87309793D01*
X137086051Y-87406416D01*
X137090281Y-87433126D01*
X137151472Y-87553220D01*
X137246780Y-87648528D01*
X137366874Y-87709719D01*
X137376663Y-87711269D01*
X137376665Y-87711270D01*
X137490207Y-87729253D01*
X137500000Y-87730804D01*
X137509793Y-87729253D01*
X137623335Y-87711270D01*
X137623337Y-87711269D01*
X137633126Y-87709719D01*
X137753220Y-87648528D01*
X137848528Y-87553220D01*
X137909719Y-87433126D01*
X137913950Y-87406416D01*
X137925925Y-87330805D01*
X137956337Y-87266651D01*
X138016605Y-87229124D01*
X138070084Y-87226066D01*
X138090206Y-87229253D01*
X138090207Y-87229253D01*
X138100000Y-87230804D01*
X138109793Y-87229253D01*
X138186411Y-87217118D01*
X138256823Y-87226218D01*
X138311137Y-87271940D01*
X138332109Y-87339768D01*
X138324847Y-87383762D01*
X138310783Y-87423335D01*
X138305946Y-87436944D01*
X138295619Y-87587921D01*
X138297371Y-87596351D01*
X138297371Y-87596354D01*
X138320929Y-87709719D01*
X138326408Y-87736085D01*
X138396029Y-87870447D01*
X138499320Y-87981044D01*
X138554813Y-88014790D01*
X138621255Y-88055195D01*
X138621258Y-88055196D01*
X138628618Y-88059672D01*
X138774335Y-88100500D01*
X138887658Y-88100500D01*
X138999920Y-88085070D01*
X139000192Y-88087049D01*
X139059988Y-88087787D01*
X139119236Y-88126905D01*
X139147929Y-88191845D01*
X139149000Y-88208236D01*
X139149000Y-90849802D01*
X139148918Y-90850000D01*
X139149000Y-90850198D01*
X139149235Y-90850765D01*
X139150000Y-90851082D01*
X139150198Y-90851000D01*
X143223000Y-90851000D01*
X143291121Y-90871002D01*
X143337614Y-90924658D01*
X143349000Y-90977000D01*
X143349000Y-93123000D01*
X143328998Y-93191121D01*
X143275342Y-93237614D01*
X143223000Y-93249000D01*
X135407079Y-93249000D01*
X135392972Y-93248208D01*
X135384202Y-93247220D01*
X135348456Y-93243192D01*
X135346121Y-93242906D01*
X135305918Y-93237614D01*
X135296784Y-93236411D01*
X135271618Y-93230420D01*
X135228774Y-93215428D01*
X135222190Y-93212915D01*
X135212809Y-93209030D01*
X135180706Y-93195731D01*
X135161894Y-93186012D01*
X135157858Y-93183476D01*
X135122785Y-93161438D01*
X135113154Y-93154739D01*
X135078136Y-93127869D01*
X135065756Y-93117011D01*
X135032989Y-93084244D01*
X135022131Y-93071864D01*
X134995261Y-93036846D01*
X134988562Y-93027215D01*
X134963988Y-92988106D01*
X134954269Y-92969294D01*
X134937088Y-92927818D01*
X134934567Y-92921213D01*
X134919581Y-92878386D01*
X134913588Y-92853215D01*
X134907096Y-92803900D01*
X134906810Y-92801562D01*
X134901719Y-92756376D01*
X134901018Y-92750156D01*
X134901082Y-92750000D01*
X134901000Y-92749802D01*
X134901000Y-92749000D01*
X118899000Y-92749000D01*
X118899000Y-92749802D01*
X118898918Y-92750000D01*
X118898982Y-92750156D01*
X118897175Y-92766193D01*
X118893190Y-92801562D01*
X118892904Y-92803900D01*
X118886412Y-92853215D01*
X118880419Y-92878386D01*
X118865433Y-92921213D01*
X118862912Y-92927818D01*
X118845731Y-92969294D01*
X118836012Y-92988106D01*
X118811438Y-93027215D01*
X118804739Y-93036846D01*
X118777869Y-93071864D01*
X118767011Y-93084244D01*
X118734244Y-93117011D01*
X118721864Y-93127869D01*
X118686846Y-93154739D01*
X118677215Y-93161438D01*
X118642142Y-93183476D01*
X118638106Y-93186012D01*
X118619294Y-93195731D01*
X118587191Y-93209030D01*
X118577810Y-93212915D01*
X118571226Y-93215428D01*
X118528382Y-93230420D01*
X118503216Y-93236411D01*
X118494082Y-93237614D01*
X118453879Y-93242906D01*
X118451544Y-93243192D01*
X118415798Y-93247220D01*
X118407028Y-93248208D01*
X118392921Y-93249000D01*
X109677000Y-93249000D01*
X109608879Y-93228998D01*
X109562386Y-93175342D01*
X109551000Y-93123000D01*
X109551000Y-81656938D01*
X109571002Y-81588817D01*
X109624658Y-81542324D01*
X109694932Y-81532220D01*
X109759512Y-81561714D01*
X109766095Y-81567843D01*
X109846780Y-81648528D01*
X109966874Y-81709719D01*
X109976663Y-81711269D01*
X109976665Y-81711270D01*
X110090207Y-81729253D01*
X110100000Y-81730804D01*
X110109793Y-81729253D01*
X110223335Y-81711270D01*
X110223337Y-81711269D01*
X110233126Y-81709719D01*
X110353220Y-81648528D01*
X110448528Y-81553220D01*
X110509719Y-81433126D01*
X110514021Y-81405968D01*
X110529253Y-81309793D01*
X110530804Y-81300000D01*
X110509719Y-81166874D01*
X110448528Y-81046780D01*
X110353220Y-80951472D01*
X110233126Y-80890281D01*
X110223337Y-80888731D01*
X110223335Y-80888730D01*
X110109793Y-80870747D01*
X110100000Y-80869196D01*
X110090207Y-80870747D01*
X109976665Y-80888730D01*
X109976663Y-80888731D01*
X109966874Y-80890281D01*
X109846780Y-80951472D01*
X109766095Y-81032157D01*
X109703783Y-81066183D01*
X109632968Y-81061118D01*
X109576132Y-81018571D01*
X109551321Y-80952051D01*
X109551000Y-80943062D01*
X109551000Y-67352604D01*
X109566446Y-67300000D01*
X114569196Y-67300000D01*
X114570747Y-67309793D01*
X114586899Y-67411770D01*
X114590281Y-67433126D01*
X114651472Y-67553220D01*
X114746780Y-67648528D01*
X114866874Y-67709719D01*
X114876663Y-67711269D01*
X114876665Y-67711270D01*
X114990207Y-67729253D01*
X115000000Y-67730804D01*
X115009793Y-67729253D01*
X115123335Y-67711270D01*
X115123337Y-67711269D01*
X115133126Y-67709719D01*
X115253220Y-67648528D01*
X115348528Y-67553220D01*
X115409719Y-67433126D01*
X115413102Y-67411770D01*
X115429253Y-67309793D01*
X115430804Y-67300000D01*
X115425557Y-67266874D01*
X115411270Y-67176665D01*
X115411269Y-67176663D01*
X115409719Y-67166874D01*
X115348528Y-67046780D01*
X115253220Y-66951472D01*
X115133126Y-66890281D01*
X115123337Y-66888731D01*
X115123335Y-66888730D01*
X115009793Y-66870747D01*
X115000000Y-66869196D01*
X114990207Y-66870747D01*
X114876665Y-66888730D01*
X114876663Y-66888731D01*
X114866874Y-66890281D01*
X114746780Y-66951472D01*
X114651472Y-67046780D01*
X114590281Y-67166874D01*
X114588731Y-67176663D01*
X114588730Y-67176665D01*
X114574443Y-67266874D01*
X114569196Y-67300000D01*
X109566446Y-67300000D01*
X109571002Y-67284483D01*
X109587905Y-67263509D01*
X111050567Y-65800847D01*
X111050765Y-65800765D01*
X111051000Y-65800198D01*
X111051082Y-65800000D01*
X111051000Y-65799802D01*
X111051000Y-65589000D01*
X111691946Y-65589000D01*
X111693497Y-65598793D01*
X111709988Y-65702911D01*
X111713031Y-65722126D01*
X111774222Y-65842220D01*
X111869530Y-65937528D01*
X111989624Y-65998719D01*
X111999413Y-66000269D01*
X111999415Y-66000270D01*
X112028899Y-66004940D01*
X112089262Y-66014500D01*
X112156238Y-66014500D01*
X112216601Y-66004940D01*
X112246085Y-66000270D01*
X112246087Y-66000269D01*
X112255876Y-65998719D01*
X112375970Y-65937528D01*
X112471278Y-65842220D01*
X112532469Y-65722126D01*
X112535513Y-65702911D01*
X112552003Y-65598793D01*
X112553554Y-65589000D01*
X112546867Y-65546780D01*
X112534020Y-65465665D01*
X112534019Y-65465663D01*
X112532469Y-65455874D01*
X112471278Y-65335780D01*
X112375970Y-65240472D01*
X112296539Y-65200000D01*
X113569196Y-65200000D01*
X113570747Y-65209793D01*
X113586574Y-65309719D01*
X113590281Y-65333126D01*
X113651472Y-65453220D01*
X113746780Y-65548528D01*
X113866874Y-65609719D01*
X113876663Y-65611269D01*
X113876665Y-65611270D01*
X113990207Y-65629253D01*
X114000000Y-65630804D01*
X114009793Y-65629253D01*
X114123335Y-65611270D01*
X114123337Y-65611269D01*
X114133126Y-65609719D01*
X114253220Y-65548528D01*
X114348528Y-65453220D01*
X114409719Y-65333126D01*
X114413427Y-65309719D01*
X114429253Y-65209793D01*
X114430804Y-65200000D01*
X114428235Y-65183782D01*
X114411270Y-65076665D01*
X114411269Y-65076663D01*
X114409719Y-65066874D01*
X114348528Y-64946780D01*
X114253220Y-64851472D01*
X114133126Y-64790281D01*
X114123337Y-64788731D01*
X114123335Y-64788730D01*
X114009793Y-64770747D01*
X114000000Y-64769196D01*
X113990207Y-64770747D01*
X113876665Y-64788730D01*
X113876663Y-64788731D01*
X113866874Y-64790281D01*
X113746780Y-64851472D01*
X113651472Y-64946780D01*
X113590281Y-65066874D01*
X113588731Y-65076663D01*
X113588730Y-65076665D01*
X113571765Y-65183782D01*
X113569196Y-65200000D01*
X112296539Y-65200000D01*
X112255876Y-65179281D01*
X112246087Y-65177731D01*
X112246085Y-65177730D01*
X112216601Y-65173060D01*
X112156238Y-65163500D01*
X112089262Y-65163500D01*
X112028899Y-65173060D01*
X111999415Y-65177730D01*
X111999413Y-65177731D01*
X111989624Y-65179281D01*
X111869530Y-65240472D01*
X111774222Y-65335780D01*
X111713031Y-65455874D01*
X111711481Y-65465663D01*
X111711480Y-65465665D01*
X111698633Y-65546780D01*
X111691946Y-65589000D01*
X111051000Y-65589000D01*
X111051000Y-63747500D01*
X111691946Y-63747500D01*
X111693497Y-63757293D01*
X111710740Y-63866158D01*
X111713031Y-63880626D01*
X111774222Y-64000720D01*
X111869530Y-64096028D01*
X111989624Y-64157219D01*
X111999413Y-64158769D01*
X111999415Y-64158770D01*
X112028899Y-64163440D01*
X112089262Y-64173000D01*
X112156238Y-64173000D01*
X112216601Y-64163440D01*
X112246085Y-64158770D01*
X112246087Y-64158769D01*
X112255876Y-64157219D01*
X112375970Y-64096028D01*
X112471278Y-64000720D01*
X112532469Y-63880626D01*
X112534761Y-63866158D01*
X112552003Y-63757293D01*
X112553554Y-63747500D01*
X112547178Y-63707242D01*
X112534020Y-63624165D01*
X112534019Y-63624163D01*
X112532469Y-63614374D01*
X112471278Y-63494280D01*
X112375970Y-63398972D01*
X112255876Y-63337781D01*
X112246087Y-63336231D01*
X112246085Y-63336230D01*
X112216601Y-63331560D01*
X112156238Y-63322000D01*
X112089262Y-63322000D01*
X112028899Y-63331560D01*
X111999415Y-63336230D01*
X111999413Y-63336231D01*
X111989624Y-63337781D01*
X111869530Y-63398972D01*
X111774222Y-63494280D01*
X111713031Y-63614374D01*
X111711481Y-63624163D01*
X111711480Y-63624165D01*
X111698322Y-63707242D01*
X111691946Y-63747500D01*
X111051000Y-63747500D01*
X111051000Y-63600198D01*
X111051082Y-63600000D01*
X111050847Y-63599433D01*
X111050765Y-63599235D01*
X111050567Y-63599153D01*
X109587905Y-62136491D01*
X109553879Y-62074179D01*
X109551000Y-62047396D01*
X109551000Y-60975420D01*
X109571002Y-60907299D01*
X109624658Y-60860806D01*
X109677000Y-60849420D01*
X131117654Y-60849420D01*
X131185775Y-60869422D01*
G37*
%TD.AperFunction*%
%TA.AperFunction,Conductor*%
G36*
X142483614Y-82120002D02*
G01*
X142530107Y-82173658D01*
X142540211Y-82243932D01*
X142510717Y-82308512D01*
X142472696Y-82338267D01*
X142446780Y-82351472D01*
X142351472Y-82446780D01*
X142290281Y-82566874D01*
X142288731Y-82576663D01*
X142288730Y-82576665D01*
X142271466Y-82685669D01*
X142269196Y-82700000D01*
X142270747Y-82709793D01*
X142285980Y-82805968D01*
X142290281Y-82833126D01*
X142351472Y-82953220D01*
X142446780Y-83048528D01*
X142566874Y-83109719D01*
X142576663Y-83111269D01*
X142576665Y-83111270D01*
X142690207Y-83129253D01*
X142700000Y-83130804D01*
X142709793Y-83129253D01*
X142823335Y-83111270D01*
X142823337Y-83111269D01*
X142833126Y-83109719D01*
X142953220Y-83048528D01*
X143048528Y-82953220D01*
X143109719Y-82833126D01*
X143112541Y-82834564D01*
X143143238Y-82789668D01*
X143208634Y-82762030D01*
X143278591Y-82774135D01*
X143330899Y-82822140D01*
X143349000Y-82887208D01*
X143349000Y-84123000D01*
X143328998Y-84191121D01*
X143275342Y-84237614D01*
X143223000Y-84249000D01*
X139150198Y-84249000D01*
X139150000Y-84248918D01*
X139149802Y-84249000D01*
X139149235Y-84249235D01*
X139148918Y-84250000D01*
X139149000Y-84250198D01*
X139149000Y-86895919D01*
X139128998Y-86964040D01*
X139075342Y-87010533D01*
X139005068Y-87020637D01*
X138989006Y-87017247D01*
X138965042Y-87010533D01*
X138925665Y-86999500D01*
X138812342Y-86999500D01*
X138758650Y-87006880D01*
X138708626Y-87013755D01*
X138708623Y-87013756D01*
X138700080Y-87014930D01*
X138692169Y-87018366D01*
X138683876Y-87020690D01*
X138683516Y-87019406D01*
X138621852Y-87027103D01*
X138557831Y-86996413D01*
X138520566Y-86935983D01*
X138517653Y-86883030D01*
X138519599Y-86870747D01*
X138530804Y-86800000D01*
X138509719Y-86666874D01*
X138448528Y-86546780D01*
X138353220Y-86451472D01*
X138233126Y-86390281D01*
X138223337Y-86388731D01*
X138223335Y-86388730D01*
X138109793Y-86370747D01*
X138100000Y-86369196D01*
X138090207Y-86370747D01*
X137976665Y-86388730D01*
X137976663Y-86388731D01*
X137966874Y-86390281D01*
X137958041Y-86394781D01*
X137948607Y-86397847D01*
X137948146Y-86396428D01*
X137888922Y-86407548D01*
X137823138Y-86380845D01*
X137782234Y-86322816D01*
X137775500Y-86282177D01*
X137775500Y-83466306D01*
X137795502Y-83398185D01*
X137812405Y-83377211D01*
X138866355Y-82323261D01*
X138885447Y-82307591D01*
X138887822Y-82306004D01*
X138898135Y-82299113D01*
X138916909Y-82271017D01*
X138927202Y-82255612D01*
X138937309Y-82240486D01*
X138937310Y-82240484D01*
X138952131Y-82218303D01*
X138959026Y-82207984D01*
X138961447Y-82195811D01*
X138966196Y-82184347D01*
X138968716Y-82185391D01*
X138993241Y-82138507D01*
X139054937Y-82103377D01*
X139083911Y-82100000D01*
X142415493Y-82100000D01*
X142483614Y-82120002D01*
G37*
%TD.AperFunction*%
%TA.AperFunction,Conductor*%
G36*
X138301815Y-70595502D02*
G01*
X138322789Y-70612405D01*
X138677228Y-70966844D01*
X138692898Y-70985936D01*
X138701376Y-70998624D01*
X138724377Y-71013993D01*
X138724378Y-71013994D01*
X138739187Y-71023889D01*
X138792505Y-71059515D01*
X138860274Y-71072995D01*
X138872867Y-71075500D01*
X138887828Y-71078476D01*
X138887829Y-71078476D01*
X138900000Y-71080897D01*
X138912171Y-71078476D01*
X138912173Y-71078476D01*
X138914963Y-71077921D01*
X138939543Y-71075500D01*
X139023000Y-71075500D01*
X139091121Y-71095502D01*
X139137614Y-71149158D01*
X139149000Y-71201500D01*
X139149000Y-73620919D01*
X139128998Y-73689040D01*
X139075342Y-73735533D01*
X139005068Y-73745637D01*
X138989006Y-73742247D01*
X138965042Y-73735533D01*
X138925665Y-73724500D01*
X138812342Y-73724500D01*
X138758650Y-73731880D01*
X138708626Y-73738755D01*
X138708623Y-73738756D01*
X138700080Y-73739930D01*
X138646961Y-73763003D01*
X138569187Y-73796785D01*
X138569184Y-73796787D01*
X138561280Y-73800220D01*
X138554596Y-73805658D01*
X138554594Y-73805659D01*
X138532868Y-73823335D01*
X138443892Y-73895722D01*
X138356623Y-74019353D01*
X138353739Y-74027469D01*
X138353737Y-74027472D01*
X138308832Y-74153823D01*
X138305946Y-74161944D01*
X138295619Y-74312921D01*
X138297371Y-74321351D01*
X138297371Y-74321354D01*
X138324655Y-74452651D01*
X138326408Y-74461085D01*
X138396029Y-74595447D01*
X138401911Y-74601745D01*
X138450877Y-74654174D01*
X138499320Y-74706044D01*
X138554813Y-74739790D01*
X138621255Y-74780195D01*
X138621258Y-74780196D01*
X138628618Y-74784672D01*
X138774335Y-74825500D01*
X138887658Y-74825500D01*
X138999920Y-74810070D01*
X139000192Y-74812049D01*
X139059988Y-74812787D01*
X139119236Y-74851905D01*
X139147929Y-74916845D01*
X139149000Y-74933236D01*
X139149000Y-77474000D01*
X139128998Y-77542121D01*
X139075342Y-77588614D01*
X139023000Y-77600000D01*
X138800000Y-77600000D01*
X138800000Y-80599778D01*
X138779998Y-80667899D01*
X138726342Y-80714392D01*
X138656068Y-80724496D01*
X138591488Y-80695002D01*
X138584905Y-80688873D01*
X137012405Y-79116373D01*
X136978379Y-79054061D01*
X136975500Y-79027278D01*
X136975500Y-76239543D01*
X136977921Y-76214961D01*
X136978476Y-76212171D01*
X136980897Y-76200000D01*
X136973618Y-76163405D01*
X136966812Y-76129188D01*
X136961936Y-76104675D01*
X136961936Y-76104674D01*
X136959515Y-76092505D01*
X136948761Y-76076410D01*
X136930130Y-76048528D01*
X136930131Y-76048528D01*
X136930128Y-76048525D01*
X136913994Y-76024378D01*
X136917835Y-76021811D01*
X136917834Y-76021810D01*
X136913993Y-76024377D01*
X136905515Y-76011689D01*
X136898624Y-76001376D01*
X136885936Y-75992898D01*
X136866844Y-75977228D01*
X135866361Y-74976745D01*
X135832335Y-74914433D01*
X135837400Y-74843618D01*
X135879947Y-74786782D01*
X135946467Y-74761971D01*
X136012798Y-74778027D01*
X136013348Y-74776760D01*
X136020628Y-74779922D01*
X136020926Y-74779994D01*
X136028618Y-74784672D01*
X136174335Y-74825500D01*
X136287658Y-74825500D01*
X136341350Y-74818120D01*
X136391374Y-74811245D01*
X136391377Y-74811244D01*
X136399920Y-74810070D01*
X136468208Y-74780408D01*
X136530813Y-74753215D01*
X136530816Y-74753213D01*
X136538720Y-74749780D01*
X136545404Y-74744342D01*
X136545406Y-74744341D01*
X136605660Y-74695320D01*
X136656108Y-74654278D01*
X136743377Y-74530647D01*
X136746788Y-74521052D01*
X136791168Y-74396177D01*
X136791168Y-74396176D01*
X136794054Y-74388056D01*
X136804381Y-74237079D01*
X136794981Y-74191840D01*
X136775345Y-74097349D01*
X136775344Y-74097346D01*
X136773592Y-74088915D01*
X136703971Y-73954553D01*
X136600680Y-73843956D01*
X136510465Y-73789095D01*
X136478745Y-73769805D01*
X136478742Y-73769804D01*
X136471382Y-73765328D01*
X136325665Y-73724500D01*
X136212342Y-73724500D01*
X136158650Y-73731880D01*
X136108626Y-73738755D01*
X136108623Y-73738756D01*
X136100080Y-73739930D01*
X136046961Y-73763003D01*
X135969187Y-73796785D01*
X135969184Y-73796787D01*
X135961280Y-73800220D01*
X135954596Y-73805658D01*
X135954594Y-73805659D01*
X135932868Y-73823335D01*
X135843892Y-73895722D01*
X135756623Y-74019353D01*
X135753739Y-74027469D01*
X135753737Y-74027472D01*
X135708832Y-74153823D01*
X135705946Y-74161944D01*
X135695619Y-74312921D01*
X135697371Y-74321351D01*
X135697371Y-74321354D01*
X135724655Y-74452651D01*
X135726408Y-74461085D01*
X135756172Y-74518526D01*
X135769751Y-74588208D01*
X135743501Y-74654174D01*
X135685754Y-74695476D01*
X135614845Y-74699000D01*
X135555202Y-74665586D01*
X133811916Y-72922300D01*
X133777890Y-72859988D01*
X133775011Y-72833205D01*
X133775011Y-71239054D01*
X133777432Y-71214472D01*
X133777987Y-71211682D01*
X133780408Y-71199511D01*
X133777625Y-71185517D01*
X133764317Y-71118614D01*
X133761447Y-71104186D01*
X133759026Y-71092016D01*
X133750488Y-71079238D01*
X133748779Y-71073604D01*
X133747383Y-71070234D01*
X133747715Y-71070096D01*
X133729311Y-71009427D01*
X133730804Y-71000000D01*
X133728953Y-70988311D01*
X133711270Y-70876665D01*
X133711269Y-70876663D01*
X133709719Y-70866874D01*
X133654603Y-70758703D01*
X133641499Y-70688926D01*
X133668199Y-70623141D01*
X133726227Y-70582235D01*
X133766870Y-70575500D01*
X138233694Y-70575500D01*
X138301815Y-70595502D01*
G37*
%TD.AperFunction*%
%TA.AperFunction,Conductor*%
G36*
X116759260Y-68344556D02*
G01*
X116790584Y-68408269D01*
X116792429Y-68429752D01*
X116792429Y-68901686D01*
X116790008Y-68926268D01*
X116787032Y-68941229D01*
X116789453Y-68953401D01*
X116804148Y-69027278D01*
X116808413Y-69048723D01*
X116808414Y-69048724D01*
X116808414Y-69048725D01*
X116828956Y-69079468D01*
X116854000Y-69116948D01*
X116869305Y-69139854D01*
X116881993Y-69148332D01*
X116901081Y-69163997D01*
X117190008Y-69452927D01*
X117224033Y-69515239D01*
X117226912Y-69542022D01*
X117226912Y-69768311D01*
X117206910Y-69836432D01*
X117153254Y-69882925D01*
X117082980Y-69893029D01*
X117018400Y-69863535D01*
X116988645Y-69825514D01*
X116962834Y-69774858D01*
X116948528Y-69746780D01*
X116853220Y-69651472D01*
X116733126Y-69590281D01*
X116723337Y-69588731D01*
X116723335Y-69588730D01*
X116609793Y-69570747D01*
X116600000Y-69569196D01*
X116590207Y-69570747D01*
X116476665Y-69588730D01*
X116476663Y-69588731D01*
X116466874Y-69590281D01*
X116346780Y-69651472D01*
X116251472Y-69746780D01*
X116190281Y-69866874D01*
X116169196Y-70000000D01*
X116170747Y-70009793D01*
X116188065Y-70119132D01*
X116190281Y-70133126D01*
X116251472Y-70253220D01*
X116346780Y-70348528D01*
X116466874Y-70409719D01*
X116476663Y-70411269D01*
X116476665Y-70411270D01*
X116590207Y-70429253D01*
X116600000Y-70430804D01*
X116609793Y-70429253D01*
X116723335Y-70411270D01*
X116723337Y-70411269D01*
X116733126Y-70409719D01*
X116853220Y-70348528D01*
X116948528Y-70253220D01*
X116974838Y-70201584D01*
X116988645Y-70174487D01*
X117037394Y-70122872D01*
X117106309Y-70105806D01*
X117173510Y-70128707D01*
X117217662Y-70184305D01*
X117226912Y-70231688D01*
X117226911Y-70939996D01*
X117226911Y-71646466D01*
X117224490Y-71671046D01*
X117221514Y-71686009D01*
X117226911Y-71713141D01*
X117226911Y-71713142D01*
X117242896Y-71793504D01*
X117270940Y-71835474D01*
X117285006Y-71856525D01*
X117303787Y-71884633D01*
X117316299Y-71892994D01*
X117316470Y-71893108D01*
X117335561Y-71908776D01*
X117939525Y-72512741D01*
X117973550Y-72575053D01*
X117976429Y-72601836D01*
X117976429Y-73540132D01*
X117956427Y-73608253D01*
X117902771Y-73654746D01*
X117832497Y-73664850D01*
X117783120Y-73644808D01*
X117783028Y-73644989D01*
X117780918Y-73643914D01*
X117780919Y-73643914D01*
X117774190Y-73640486D01*
X117774189Y-73640485D01*
X117716134Y-73610905D01*
X117662934Y-73583798D01*
X117653145Y-73582248D01*
X117653143Y-73582247D01*
X117539601Y-73564264D01*
X117529808Y-73562713D01*
X117520015Y-73564264D01*
X117406473Y-73582247D01*
X117406471Y-73582248D01*
X117396682Y-73583798D01*
X117393206Y-73585569D01*
X117325574Y-73587501D01*
X117268511Y-73554736D01*
X117071931Y-73358156D01*
X117056261Y-73339064D01*
X117054674Y-73336689D01*
X117047783Y-73326376D01*
X117024782Y-73311007D01*
X117024781Y-73311006D01*
X116996360Y-73292016D01*
X116956654Y-73265485D01*
X116876292Y-73249500D01*
X116861331Y-73246524D01*
X116861330Y-73246524D01*
X116849159Y-73244103D01*
X116836988Y-73246524D01*
X116834198Y-73247079D01*
X116809616Y-73249500D01*
X113455218Y-73249500D01*
X113387097Y-73229498D01*
X113340604Y-73175842D01*
X113335562Y-73162892D01*
X113334039Y-73153275D01*
X113272848Y-73033181D01*
X113177540Y-72937873D01*
X113057446Y-72876682D01*
X113047657Y-72875132D01*
X113047655Y-72875131D01*
X112934113Y-72857148D01*
X112924320Y-72855597D01*
X112843580Y-72868385D01*
X112773170Y-72859285D01*
X112718856Y-72813564D01*
X112697883Y-72745736D01*
X112716910Y-72677336D01*
X112734775Y-72654841D01*
X113849496Y-71540120D01*
X113911808Y-71506094D01*
X113982623Y-71511159D01*
X114039459Y-71553706D01*
X114051280Y-71573629D01*
X114053022Y-71579561D01*
X114057895Y-71587143D01*
X114057896Y-71587146D01*
X114109543Y-71667511D01*
X114126945Y-71694589D01*
X114133755Y-71700490D01*
X114133757Y-71700492D01*
X114223469Y-71778227D01*
X114230282Y-71784130D01*
X114265032Y-71800000D01*
X114346461Y-71837188D01*
X114346464Y-71837189D01*
X114354658Y-71840931D01*
X114363575Y-71842213D01*
X114451541Y-71854861D01*
X114451548Y-71854862D01*
X114455989Y-71855500D01*
X114524011Y-71855500D01*
X114528452Y-71854862D01*
X114528459Y-71854861D01*
X114616425Y-71842213D01*
X114625342Y-71840931D01*
X114693174Y-71809953D01*
X114763447Y-71799848D01*
X114828028Y-71829341D01*
X114866412Y-71889067D01*
X114869965Y-71904854D01*
X114890281Y-72033126D01*
X114951472Y-72153220D01*
X115046780Y-72248528D01*
X115166874Y-72309719D01*
X115176663Y-72311269D01*
X115176665Y-72311270D01*
X115290207Y-72329253D01*
X115300000Y-72330804D01*
X115309793Y-72329253D01*
X115423335Y-72311270D01*
X115423337Y-72311269D01*
X115433126Y-72309719D01*
X115553220Y-72248528D01*
X115648528Y-72153220D01*
X115709719Y-72033126D01*
X115730804Y-71900000D01*
X115724158Y-71858041D01*
X115711270Y-71776665D01*
X115711269Y-71776663D01*
X115709719Y-71766874D01*
X115648528Y-71646780D01*
X115553220Y-71551472D01*
X115433126Y-71490281D01*
X115423337Y-71488731D01*
X115423335Y-71488730D01*
X115309793Y-71470747D01*
X115300000Y-71469196D01*
X115290207Y-71470747D01*
X115176665Y-71488730D01*
X115176663Y-71488731D01*
X115166874Y-71490281D01*
X115148704Y-71499539D01*
X115078928Y-71512644D01*
X115013143Y-71485945D01*
X114972236Y-71427918D01*
X114965500Y-71387273D01*
X114965500Y-71311633D01*
X114962962Y-71302989D01*
X114929518Y-71189089D01*
X114929518Y-71189088D01*
X114926978Y-71180439D01*
X114853055Y-71065411D01*
X114846245Y-71059510D01*
X114846243Y-71059508D01*
X114756531Y-70981773D01*
X114756529Y-70981772D01*
X114749718Y-70975870D01*
X114684149Y-70945926D01*
X114630495Y-70899434D01*
X114610493Y-70831313D01*
X114630495Y-70763192D01*
X114647398Y-70742218D01*
X116166844Y-69222772D01*
X116185936Y-69207102D01*
X116188311Y-69205515D01*
X116198624Y-69198624D01*
X116214076Y-69175500D01*
X116215707Y-69173060D01*
X116234864Y-69144388D01*
X116259515Y-69107495D01*
X116260898Y-69100544D01*
X116266532Y-69072222D01*
X116275500Y-69027133D01*
X116275500Y-69027129D01*
X116278475Y-69012172D01*
X116280896Y-69000000D01*
X116277921Y-68985043D01*
X116275500Y-68960463D01*
X116275500Y-68442774D01*
X116295502Y-68374653D01*
X116349158Y-68328160D01*
X116421211Y-68318325D01*
X116500000Y-68330804D01*
X116509793Y-68329253D01*
X116623334Y-68311270D01*
X116623335Y-68311270D01*
X116632829Y-68309766D01*
X116632831Y-68309766D01*
X116633126Y-68309719D01*
X116633132Y-68309757D01*
X116698463Y-68307892D01*
X116759260Y-68344556D01*
G37*
%TD.AperFunction*%
%TA.AperFunction,Conductor*%
G36*
X142476622Y-67663733D02*
G01*
X142566874Y-67709719D01*
X142576663Y-67711269D01*
X142576665Y-67711270D01*
X142690207Y-67729253D01*
X142700000Y-67730804D01*
X142709793Y-67729253D01*
X142823335Y-67711270D01*
X142823337Y-67711269D01*
X142833126Y-67709719D01*
X142923378Y-67663733D01*
X142980582Y-67650000D01*
X143223000Y-67650000D01*
X143291121Y-67670002D01*
X143337614Y-67723658D01*
X143349000Y-67776000D01*
X143349000Y-70843000D01*
X143328998Y-70911121D01*
X143275342Y-70957614D01*
X143223000Y-70969000D01*
X141695149Y-70969000D01*
X141627028Y-70948998D01*
X141580535Y-70895342D01*
X141570431Y-70825068D01*
X141582882Y-70785798D01*
X141605217Y-70741962D01*
X141605217Y-70741961D01*
X141609719Y-70733126D01*
X141613427Y-70709719D01*
X141629253Y-70609793D01*
X141630804Y-70600000D01*
X141621996Y-70544388D01*
X141611270Y-70476665D01*
X141611269Y-70476663D01*
X141609719Y-70466874D01*
X141548528Y-70346780D01*
X141453220Y-70251472D01*
X141444379Y-70246967D01*
X141443173Y-70246091D01*
X141399820Y-70189868D01*
X141393745Y-70119132D01*
X141428140Y-70055060D01*
X142066844Y-69416356D01*
X142085936Y-69400686D01*
X142088311Y-69399099D01*
X142098624Y-69392208D01*
X142115835Y-69366451D01*
X142128979Y-69346780D01*
X142152622Y-69311396D01*
X142152623Y-69311394D01*
X142159515Y-69301079D01*
X142166051Y-69268221D01*
X142175500Y-69220717D01*
X142175500Y-69220713D01*
X142180896Y-69193584D01*
X142177921Y-69178627D01*
X142175500Y-69154047D01*
X142175500Y-67776000D01*
X142195502Y-67707879D01*
X142249158Y-67661386D01*
X142301500Y-67650000D01*
X142419418Y-67650000D01*
X142476622Y-67663733D01*
G37*
%TD.AperFunction*%
%TA.AperFunction,Conductor*%
G36*
X122294032Y-65411882D02*
G01*
X122331534Y-65435984D01*
X122331748Y-65435689D01*
X122336900Y-65439432D01*
X122339095Y-65440843D01*
X122346780Y-65448528D01*
X122466874Y-65509719D01*
X122476663Y-65511269D01*
X122476665Y-65511270D01*
X122600000Y-65530804D01*
X122599392Y-65534644D01*
X122649152Y-65549255D01*
X122670126Y-65566158D01*
X122870813Y-65766845D01*
X122886480Y-65785934D01*
X122894960Y-65798624D01*
X122905273Y-65805515D01*
X122917961Y-65813993D01*
X122917963Y-65813995D01*
X122957608Y-65840485D01*
X122975770Y-65852621D01*
X122975774Y-65852623D01*
X122986089Y-65859515D01*
X122998258Y-65861935D01*
X122998259Y-65861936D01*
X123002177Y-65862715D01*
X123093584Y-65880897D01*
X123108545Y-65877921D01*
X123133127Y-65875500D01*
X123546176Y-65875500D01*
X123614297Y-65895502D01*
X123635271Y-65912405D01*
X124552095Y-66829229D01*
X124567765Y-66848322D01*
X124601376Y-66898624D01*
X124611692Y-66905517D01*
X124651678Y-66932235D01*
X124670771Y-66947905D01*
X125378518Y-67655652D01*
X125412544Y-67717964D01*
X125407479Y-67788779D01*
X125364932Y-67845615D01*
X125301200Y-67869386D01*
X125300000Y-67869196D01*
X125239086Y-67878844D01*
X125176665Y-67888730D01*
X125176663Y-67888731D01*
X125166874Y-67890281D01*
X125046780Y-67951472D01*
X124951472Y-68046780D01*
X124890281Y-68166874D01*
X124888731Y-68176663D01*
X124888730Y-68176665D01*
X124874522Y-68266373D01*
X124869196Y-68300000D01*
X124890281Y-68433126D01*
X124951472Y-68553220D01*
X125046780Y-68648528D01*
X125166874Y-68709719D01*
X125176663Y-68711269D01*
X125176665Y-68711270D01*
X125290207Y-68729253D01*
X125300000Y-68730804D01*
X125309793Y-68729253D01*
X125423335Y-68711270D01*
X125423337Y-68711269D01*
X125433126Y-68709719D01*
X125553220Y-68648528D01*
X125648528Y-68553220D01*
X125709719Y-68433126D01*
X125730804Y-68300000D01*
X125732290Y-68300235D01*
X125749255Y-68242456D01*
X125802911Y-68195963D01*
X125873185Y-68185859D01*
X125937765Y-68215353D01*
X125944348Y-68221482D01*
X126577174Y-68854308D01*
X126611200Y-68916620D01*
X126606135Y-68987435D01*
X126577174Y-69032498D01*
X126471108Y-69138564D01*
X126408796Y-69172590D01*
X126382013Y-69175469D01*
X121023691Y-69175469D01*
X120955570Y-69155467D01*
X120934596Y-69138564D01*
X120766158Y-68970126D01*
X120732132Y-68907814D01*
X120731284Y-68899924D01*
X120730804Y-68900000D01*
X120711270Y-68776665D01*
X120711269Y-68776663D01*
X120709719Y-68766874D01*
X120648528Y-68646780D01*
X120553220Y-68551472D01*
X120433126Y-68490281D01*
X120423337Y-68488731D01*
X120423335Y-68488730D01*
X120309793Y-68470747D01*
X120300000Y-68469196D01*
X120290207Y-68470747D01*
X120176665Y-68488730D01*
X120176663Y-68488731D01*
X120166874Y-68490281D01*
X120046780Y-68551472D01*
X119951472Y-68646780D01*
X119890281Y-68766874D01*
X119869196Y-68900000D01*
X119870747Y-68909793D01*
X119883107Y-68987828D01*
X119890281Y-69033126D01*
X119951472Y-69153220D01*
X119959157Y-69160905D01*
X119959714Y-69161925D01*
X119964311Y-69168252D01*
X119963493Y-69168846D01*
X119993183Y-69223217D01*
X119988118Y-69294032D01*
X119964016Y-69331534D01*
X119964311Y-69331748D01*
X119960568Y-69336900D01*
X119959157Y-69339095D01*
X119951472Y-69346780D01*
X119890281Y-69466874D01*
X119869196Y-69600000D01*
X119870747Y-69609793D01*
X119876636Y-69646972D01*
X119890281Y-69733126D01*
X119951472Y-69853220D01*
X119959157Y-69860905D01*
X119959714Y-69861925D01*
X119964311Y-69868252D01*
X119963493Y-69868846D01*
X119993183Y-69923217D01*
X119988118Y-69994032D01*
X119964017Y-70031532D01*
X119964313Y-70031747D01*
X119960557Y-70036916D01*
X119959157Y-70039095D01*
X119951472Y-70046780D01*
X119946967Y-70055621D01*
X119946091Y-70056827D01*
X119889868Y-70100180D01*
X119819132Y-70106255D01*
X119755060Y-70071860D01*
X119612405Y-69929205D01*
X119578379Y-69866893D01*
X119575500Y-69840110D01*
X119575500Y-67066306D01*
X119595502Y-66998185D01*
X119612405Y-66977211D01*
X119677211Y-66912405D01*
X119739523Y-66878379D01*
X119766306Y-66875500D01*
X119918562Y-66875500D01*
X119986683Y-66895502D01*
X120033176Y-66949158D01*
X120043280Y-67019432D01*
X120013786Y-67084012D01*
X120007657Y-67090595D01*
X119951472Y-67146780D01*
X119890281Y-67266874D01*
X119888731Y-67276663D01*
X119888730Y-67276665D01*
X119872803Y-67377228D01*
X119869196Y-67400000D01*
X119870747Y-67409793D01*
X119885775Y-67504673D01*
X119890281Y-67533126D01*
X119951472Y-67653220D01*
X120046780Y-67748528D01*
X120166874Y-67809719D01*
X120176663Y-67811269D01*
X120176665Y-67811270D01*
X120290207Y-67829253D01*
X120300000Y-67830804D01*
X120309793Y-67829253D01*
X120423335Y-67811270D01*
X120423337Y-67811269D01*
X120433126Y-67809719D01*
X120553220Y-67748528D01*
X120648528Y-67653220D01*
X120709719Y-67533126D01*
X120714226Y-67504673D01*
X120729253Y-67409793D01*
X120730804Y-67400000D01*
X120727197Y-67377228D01*
X120711270Y-67276665D01*
X120711269Y-67276663D01*
X120709719Y-67266874D01*
X120648528Y-67146780D01*
X120590843Y-67089095D01*
X120556817Y-67026783D01*
X120561882Y-66955968D01*
X120590843Y-66910905D01*
X120648528Y-66853220D01*
X120709719Y-66733126D01*
X120730804Y-66600000D01*
X120729253Y-66590207D01*
X120711270Y-66476665D01*
X120711269Y-66476663D01*
X120709719Y-66466874D01*
X120648528Y-66346780D01*
X120590843Y-66289095D01*
X120556817Y-66226783D01*
X120561882Y-66155968D01*
X120590843Y-66110905D01*
X120648528Y-66053220D01*
X120709719Y-65933126D01*
X120713115Y-65911689D01*
X120729253Y-65809793D01*
X120730804Y-65800000D01*
X120709719Y-65666874D01*
X120700459Y-65648700D01*
X120687565Y-65623393D01*
X120674461Y-65553617D01*
X120701161Y-65487832D01*
X120736447Y-65458980D01*
X120736360Y-65458861D01*
X120738450Y-65457343D01*
X120742632Y-65453923D01*
X120744387Y-65453029D01*
X120744389Y-65453028D01*
X120753220Y-65448528D01*
X120760905Y-65440843D01*
X120761925Y-65440286D01*
X120768252Y-65435689D01*
X120768846Y-65436507D01*
X120823217Y-65406817D01*
X120894032Y-65411882D01*
X120931534Y-65435984D01*
X120931748Y-65435689D01*
X120936900Y-65439432D01*
X120939095Y-65440843D01*
X120946780Y-65448528D01*
X121066874Y-65509719D01*
X121076663Y-65511269D01*
X121076665Y-65511270D01*
X121190207Y-65529253D01*
X121200000Y-65530804D01*
X121209793Y-65529253D01*
X121323335Y-65511270D01*
X121323337Y-65511269D01*
X121333126Y-65509719D01*
X121453220Y-65448528D01*
X121460905Y-65440843D01*
X121461925Y-65440286D01*
X121468252Y-65435689D01*
X121468846Y-65436507D01*
X121523217Y-65406817D01*
X121594032Y-65411882D01*
X121631534Y-65435984D01*
X121631748Y-65435689D01*
X121636900Y-65439432D01*
X121639095Y-65440843D01*
X121646780Y-65448528D01*
X121766874Y-65509719D01*
X121776663Y-65511269D01*
X121776665Y-65511270D01*
X121890207Y-65529253D01*
X121900000Y-65530804D01*
X121909793Y-65529253D01*
X122023335Y-65511270D01*
X122023337Y-65511269D01*
X122033126Y-65509719D01*
X122153220Y-65448528D01*
X122160905Y-65440843D01*
X122161925Y-65440286D01*
X122168252Y-65435689D01*
X122168846Y-65436507D01*
X122223217Y-65406817D01*
X122294032Y-65411882D01*
G37*
%TD.AperFunction*%
%TA.AperFunction,Conductor*%
G36*
X138971448Y-66365912D02*
G01*
X139027515Y-66409467D01*
X139037581Y-66425959D01*
X139046970Y-66444385D01*
X139051472Y-66453220D01*
X139146780Y-66548528D01*
X139266874Y-66609719D01*
X139276663Y-66611269D01*
X139276665Y-66611270D01*
X139400000Y-66630804D01*
X139399463Y-66634192D01*
X139450765Y-66649255D01*
X139497258Y-66702911D01*
X139507362Y-66773185D01*
X139477868Y-66837765D01*
X139471739Y-66844348D01*
X139383632Y-66932455D01*
X139364541Y-66948124D01*
X139351858Y-66956598D01*
X139336488Y-66979600D01*
X139336487Y-66979601D01*
X139317793Y-67007578D01*
X139290966Y-67047727D01*
X139288546Y-67059896D01*
X139288545Y-67059897D01*
X139282439Y-67090595D01*
X139276098Y-67122476D01*
X139269584Y-67155223D01*
X139272005Y-67167392D01*
X139272560Y-67170182D01*
X139274981Y-67194766D01*
X139274981Y-67227778D01*
X139254979Y-67295899D01*
X139238076Y-67316873D01*
X137266393Y-69288556D01*
X137204081Y-69322582D01*
X137177298Y-69325461D01*
X136285490Y-69325461D01*
X131087580Y-69325460D01*
X131019459Y-69305458D01*
X130972966Y-69251802D01*
X130962863Y-69181528D01*
X130992356Y-69116948D01*
X130998485Y-69110365D01*
X132191019Y-67917831D01*
X132253331Y-67883805D01*
X132324146Y-67888870D01*
X132337318Y-67894659D01*
X132366874Y-67909719D01*
X132376663Y-67911269D01*
X132376665Y-67911270D01*
X132490207Y-67929253D01*
X132500000Y-67930804D01*
X132509793Y-67929253D01*
X132623335Y-67911270D01*
X132623337Y-67911269D01*
X132633126Y-67909719D01*
X132753220Y-67848528D01*
X132848528Y-67753220D01*
X132909719Y-67633126D01*
X132916894Y-67587828D01*
X132929253Y-67509793D01*
X132930804Y-67500000D01*
X132918325Y-67421211D01*
X132927425Y-67350800D01*
X132973147Y-67296486D01*
X133042774Y-67275500D01*
X135321062Y-67275500D01*
X135389183Y-67295502D01*
X135410157Y-67312405D01*
X135446780Y-67349028D01*
X135566874Y-67410219D01*
X135576663Y-67411769D01*
X135576665Y-67411770D01*
X135690207Y-67429753D01*
X135700000Y-67431304D01*
X135709793Y-67429753D01*
X135823335Y-67411770D01*
X135823337Y-67411769D01*
X135833126Y-67410219D01*
X135953220Y-67349028D01*
X136048528Y-67253720D01*
X136053033Y-67244879D01*
X136053909Y-67243673D01*
X136110132Y-67200320D01*
X136180868Y-67194245D01*
X136244940Y-67228640D01*
X136883144Y-67866844D01*
X136898814Y-67885936D01*
X136907292Y-67898624D01*
X136917605Y-67905515D01*
X136930293Y-67913993D01*
X136930294Y-67913994D01*
X136979649Y-67946972D01*
X136998422Y-67959516D01*
X137105916Y-67980897D01*
X137120878Y-67977921D01*
X137145458Y-67975500D01*
X137321562Y-67975500D01*
X137389683Y-67995502D01*
X137410657Y-68012405D01*
X137446780Y-68048528D01*
X137566874Y-68109719D01*
X137576663Y-68111269D01*
X137576665Y-68111270D01*
X137690207Y-68129253D01*
X137700000Y-68130804D01*
X137709793Y-68129253D01*
X137823335Y-68111270D01*
X137823337Y-68111269D01*
X137833126Y-68109719D01*
X137953220Y-68048528D01*
X138048528Y-67953220D01*
X138109719Y-67833126D01*
X138112455Y-67815856D01*
X138129253Y-67709793D01*
X138130804Y-67700000D01*
X138123395Y-67653220D01*
X138111270Y-67576665D01*
X138111269Y-67576663D01*
X138109719Y-67566874D01*
X138048528Y-67446780D01*
X137953220Y-67351472D01*
X137833126Y-67290281D01*
X137823337Y-67288731D01*
X137823335Y-67288730D01*
X137709793Y-67270747D01*
X137700000Y-67269196D01*
X137690207Y-67270747D01*
X137576665Y-67288730D01*
X137576663Y-67288731D01*
X137566874Y-67290281D01*
X137446780Y-67351472D01*
X137410657Y-67387595D01*
X137348345Y-67421621D01*
X137321562Y-67424500D01*
X137272222Y-67424500D01*
X137204101Y-67404498D01*
X137183127Y-67387595D01*
X136386127Y-66590595D01*
X136352101Y-66528283D01*
X136357166Y-66457468D01*
X136399713Y-66400632D01*
X136466233Y-66375821D01*
X136475222Y-66375500D01*
X138754041Y-66375500D01*
X138778623Y-66377921D01*
X138793584Y-66380897D01*
X138820716Y-66375500D01*
X138820717Y-66375500D01*
X138900734Y-66359584D01*
X138971448Y-66365912D01*
G37*
%TD.AperFunction*%
%TA.AperFunction,Conductor*%
G36*
X140407462Y-67670002D02*
G01*
X140444106Y-67705998D01*
X140501376Y-67791708D01*
X140511692Y-67798601D01*
X140511693Y-67798602D01*
X140514064Y-67800186D01*
X140533156Y-67815856D01*
X140687595Y-67970295D01*
X140721621Y-68032607D01*
X140724500Y-68059390D01*
X140724500Y-68139610D01*
X140704498Y-68207731D01*
X140687595Y-68228705D01*
X140512664Y-68403636D01*
X140450352Y-68437662D01*
X140379537Y-68432597D01*
X140322701Y-68390050D01*
X140310480Y-68366486D01*
X140309719Y-68366874D01*
X140253028Y-68255612D01*
X140248528Y-68246780D01*
X140212405Y-68210657D01*
X140178379Y-68148345D01*
X140175500Y-68121562D01*
X140175500Y-67776000D01*
X140195502Y-67707879D01*
X140249158Y-67661386D01*
X140301500Y-67650000D01*
X140339341Y-67650000D01*
X140407462Y-67670002D01*
G37*
%TD.AperFunction*%
%TA.AperFunction,Conductor*%
G36*
X142472598Y-56630496D02*
G01*
X142512267Y-56676276D01*
X142551472Y-56753220D01*
X142646780Y-56848528D01*
X142766874Y-56909719D01*
X142776663Y-56911269D01*
X142776665Y-56911270D01*
X142890207Y-56929253D01*
X142900000Y-56930804D01*
X142909793Y-56929253D01*
X143023335Y-56911270D01*
X143023337Y-56911269D01*
X143033126Y-56909719D01*
X143117214Y-56866874D01*
X143144387Y-56853029D01*
X143144389Y-56853028D01*
X143153220Y-56848528D01*
X143153739Y-56848009D01*
X143215805Y-56825863D01*
X143284957Y-56841942D01*
X143334438Y-56892855D01*
X143349000Y-56951657D01*
X143349000Y-57563000D01*
X143328998Y-57631121D01*
X143275342Y-57677614D01*
X143223000Y-57689000D01*
X139150198Y-57689000D01*
X139150000Y-57688918D01*
X139149802Y-57689000D01*
X139149235Y-57689235D01*
X139148918Y-57690000D01*
X139149000Y-57690198D01*
X139149000Y-60345919D01*
X139128998Y-60414040D01*
X139075342Y-60460533D01*
X139005068Y-60470637D01*
X138989006Y-60467247D01*
X138965042Y-60460533D01*
X138925665Y-60449500D01*
X138812342Y-60449500D01*
X138758650Y-60456880D01*
X138708626Y-60463755D01*
X138708623Y-60463756D01*
X138700080Y-60464930D01*
X138646961Y-60488003D01*
X138569187Y-60521785D01*
X138569184Y-60521787D01*
X138561280Y-60525220D01*
X138554596Y-60530658D01*
X138554594Y-60530659D01*
X138529490Y-60551083D01*
X138443892Y-60620722D01*
X138356623Y-60744353D01*
X138353739Y-60752469D01*
X138353737Y-60752472D01*
X138312173Y-60869422D01*
X138305946Y-60886944D01*
X138295619Y-61037921D01*
X138297371Y-61046351D01*
X138297371Y-61046354D01*
X138318280Y-61146972D01*
X138326408Y-61186085D01*
X138396029Y-61320447D01*
X138499320Y-61431044D01*
X138554813Y-61464790D01*
X138621255Y-61505195D01*
X138621258Y-61505196D01*
X138628618Y-61509672D01*
X138774335Y-61550500D01*
X138887658Y-61550500D01*
X138999920Y-61535070D01*
X139000192Y-61537049D01*
X139059988Y-61537787D01*
X139119236Y-61576905D01*
X139147929Y-61641845D01*
X139149000Y-61658236D01*
X139149000Y-64289802D01*
X139148918Y-64290000D01*
X139149000Y-64290198D01*
X139149235Y-64290765D01*
X139150000Y-64291082D01*
X139150198Y-64291000D01*
X139724000Y-64291000D01*
X139792121Y-64311002D01*
X139838614Y-64364658D01*
X139850000Y-64417000D01*
X139850000Y-65298989D01*
X139829998Y-65367110D01*
X139776342Y-65413603D01*
X139724000Y-65424989D01*
X139232638Y-65424989D01*
X139208056Y-65422568D01*
X139205266Y-65422013D01*
X139193095Y-65419592D01*
X139165963Y-65424989D01*
X139165962Y-65424989D01*
X139085600Y-65440974D01*
X139052832Y-65462869D01*
X139017473Y-65486495D01*
X139017472Y-65486496D01*
X138994471Y-65501865D01*
X138987580Y-65512178D01*
X138985993Y-65514553D01*
X138970323Y-65533645D01*
X138716373Y-65787595D01*
X138654061Y-65821621D01*
X138627278Y-65824500D01*
X135439331Y-65824500D01*
X135414751Y-65822079D01*
X135411961Y-65821524D01*
X135411959Y-65821524D01*
X135399788Y-65819103D01*
X135387617Y-65821524D01*
X135372656Y-65824500D01*
X135372655Y-65824500D01*
X135292293Y-65840485D01*
X135273234Y-65853220D01*
X135224166Y-65886006D01*
X135224165Y-65886007D01*
X135201164Y-65901376D01*
X135194273Y-65911689D01*
X135192686Y-65914064D01*
X135177016Y-65933156D01*
X135121616Y-65988556D01*
X135059304Y-66022582D01*
X135032521Y-66025461D01*
X134166380Y-66025461D01*
X134098259Y-66005459D01*
X134051766Y-65951803D01*
X134041662Y-65881529D01*
X134054113Y-65842258D01*
X134054133Y-65842220D01*
X134109719Y-65733126D01*
X134112750Y-65713993D01*
X134129253Y-65609793D01*
X134130804Y-65600000D01*
X134123458Y-65553617D01*
X134111270Y-65476665D01*
X134111269Y-65476663D01*
X134109719Y-65466874D01*
X134048528Y-65346780D01*
X133953220Y-65251472D01*
X133833126Y-65190281D01*
X133823337Y-65188731D01*
X133823335Y-65188730D01*
X133709793Y-65170747D01*
X133700000Y-65169196D01*
X133690207Y-65170747D01*
X133576665Y-65188730D01*
X133576663Y-65188731D01*
X133566874Y-65190281D01*
X133446780Y-65251472D01*
X133351472Y-65346780D01*
X133349714Y-65350231D01*
X133296147Y-65391534D01*
X133225411Y-65397608D01*
X133162620Y-65364474D01*
X133154106Y-65354648D01*
X133151728Y-65349980D01*
X133056420Y-65254672D01*
X132936326Y-65193481D01*
X132926537Y-65191931D01*
X132926535Y-65191930D01*
X132812993Y-65173947D01*
X132803200Y-65172396D01*
X132793407Y-65173947D01*
X132679865Y-65191930D01*
X132679863Y-65191931D01*
X132670074Y-65193481D01*
X132549980Y-65254672D01*
X132513857Y-65290795D01*
X132451545Y-65324821D01*
X132424762Y-65327700D01*
X131975922Y-65327700D01*
X131907801Y-65307698D01*
X131886827Y-65290795D01*
X131529188Y-64933156D01*
X131513518Y-64914064D01*
X131511931Y-64911689D01*
X131505040Y-64901376D01*
X131482039Y-64886007D01*
X131482038Y-64886006D01*
X131451326Y-64865485D01*
X131413911Y-64840485D01*
X131333549Y-64824500D01*
X131318588Y-64821524D01*
X131318587Y-64821524D01*
X131306416Y-64819103D01*
X131294245Y-64821524D01*
X131291455Y-64822079D01*
X131266873Y-64824500D01*
X130638826Y-64824500D01*
X130614246Y-64822079D01*
X130611461Y-64821525D01*
X130599289Y-64819104D01*
X130587117Y-64821525D01*
X130572165Y-64824499D01*
X130572157Y-64824500D01*
X130572154Y-64824500D01*
X130572149Y-64824501D01*
X130536633Y-64831566D01*
X130491794Y-64840485D01*
X130423667Y-64886006D01*
X130423666Y-64886007D01*
X130400665Y-64901376D01*
X130393774Y-64911689D01*
X130392187Y-64914064D01*
X130376517Y-64933156D01*
X128922077Y-66387595D01*
X128859765Y-66421621D01*
X128832982Y-66424500D01*
X127944564Y-66424500D01*
X127876443Y-66404498D01*
X127855469Y-66387595D01*
X126628774Y-65160900D01*
X126594748Y-65098588D01*
X126599813Y-65027773D01*
X126642360Y-64970937D01*
X126708880Y-64946126D01*
X126763317Y-64954947D01*
X126770885Y-64960004D01*
X126805423Y-64966874D01*
X126851247Y-64975989D01*
X126866208Y-64978965D01*
X126866209Y-64978965D01*
X126878380Y-64981386D01*
X126893341Y-64978410D01*
X126917923Y-64975989D01*
X127959968Y-64975989D01*
X127984550Y-64978410D01*
X127999511Y-64981386D01*
X128026643Y-64975989D01*
X128026644Y-64975989D01*
X128107006Y-64960004D01*
X128160786Y-64924069D01*
X128175131Y-64914484D01*
X128177698Y-64918325D01*
X128177701Y-64918323D01*
X128175134Y-64914482D01*
X128187822Y-64906004D01*
X128198135Y-64899113D01*
X128206613Y-64886425D01*
X128222283Y-64867333D01*
X128323458Y-64766158D01*
X128385770Y-64732132D01*
X128399240Y-64730684D01*
X128400000Y-64730804D01*
X128481136Y-64717953D01*
X128523335Y-64711270D01*
X128523337Y-64711269D01*
X128533126Y-64709719D01*
X128653220Y-64648528D01*
X128660905Y-64640843D01*
X128661925Y-64640286D01*
X128668252Y-64635689D01*
X128668846Y-64636507D01*
X128723217Y-64606817D01*
X128794032Y-64611882D01*
X128831534Y-64635984D01*
X128831748Y-64635689D01*
X128836900Y-64639432D01*
X128839095Y-64640843D01*
X128846780Y-64648528D01*
X128966874Y-64709719D01*
X128976663Y-64711269D01*
X128976665Y-64711270D01*
X129090207Y-64729253D01*
X129100000Y-64730804D01*
X129109793Y-64729253D01*
X129223335Y-64711270D01*
X129223337Y-64711269D01*
X129233126Y-64709719D01*
X129353220Y-64648528D01*
X129448528Y-64553220D01*
X129509719Y-64433126D01*
X129517105Y-64386496D01*
X129525925Y-64330805D01*
X129556337Y-64266651D01*
X129616605Y-64229124D01*
X129670084Y-64226066D01*
X129690206Y-64229253D01*
X129690207Y-64229253D01*
X129700000Y-64230804D01*
X129709793Y-64229253D01*
X129823335Y-64211270D01*
X129823337Y-64211269D01*
X129833126Y-64209719D01*
X129953220Y-64148528D01*
X130048528Y-64053220D01*
X130109719Y-63933126D01*
X130113427Y-63909719D01*
X130129253Y-63809793D01*
X130130804Y-63800000D01*
X130123395Y-63753220D01*
X130111270Y-63676665D01*
X130111269Y-63676663D01*
X130109719Y-63666874D01*
X130048528Y-63546780D01*
X129953220Y-63451472D01*
X129833126Y-63390281D01*
X129823337Y-63388731D01*
X129823335Y-63388730D01*
X129709793Y-63370747D01*
X129700000Y-63369196D01*
X129690207Y-63370747D01*
X129576665Y-63388730D01*
X129576663Y-63388731D01*
X129566874Y-63390281D01*
X129446780Y-63451472D01*
X129351472Y-63546780D01*
X129290281Y-63666874D01*
X129286750Y-63665075D01*
X129257553Y-63707690D01*
X129192131Y-63735268D01*
X129122185Y-63723098D01*
X129088787Y-63699171D01*
X129022772Y-63633156D01*
X129007102Y-63614064D01*
X129005515Y-63611689D01*
X128998624Y-63601376D01*
X128988311Y-63594485D01*
X128988309Y-63594483D01*
X128986296Y-63593138D01*
X128982898Y-63589072D01*
X128979532Y-63585706D01*
X128979833Y-63585405D01*
X128940768Y-63538661D01*
X128931920Y-63468218D01*
X128962562Y-63404174D01*
X128999095Y-63376106D01*
X129018619Y-63366158D01*
X129053220Y-63348528D01*
X129148528Y-63253220D01*
X129209719Y-63133126D01*
X129211289Y-63123217D01*
X129230804Y-63000000D01*
X129232844Y-63000323D01*
X129249255Y-62944432D01*
X129266158Y-62923458D01*
X129376722Y-62812894D01*
X129439034Y-62778868D01*
X129465817Y-62775989D01*
X130734183Y-62775989D01*
X130802304Y-62795991D01*
X130823278Y-62812894D01*
X130833842Y-62823458D01*
X130867868Y-62885770D01*
X130869316Y-62899240D01*
X130869196Y-62900000D01*
X130879403Y-62964444D01*
X130885086Y-63000323D01*
X130890281Y-63033126D01*
X130951472Y-63153220D01*
X131046780Y-63248528D01*
X131166874Y-63309719D01*
X131176663Y-63311269D01*
X131176665Y-63311270D01*
X131300000Y-63330804D01*
X131299677Y-63332844D01*
X131355568Y-63349255D01*
X131376542Y-63366158D01*
X131576739Y-63566355D01*
X131592409Y-63585447D01*
X131600887Y-63598135D01*
X131611200Y-63605026D01*
X131623888Y-63613504D01*
X131622299Y-63615881D01*
X131622302Y-63615883D01*
X131623890Y-63613506D01*
X131665703Y-63641444D01*
X131692016Y-63659026D01*
X131765657Y-63673674D01*
X131799511Y-63680408D01*
X131814472Y-63677432D01*
X131839054Y-63675011D01*
X132767362Y-63675011D01*
X132791944Y-63677432D01*
X132806905Y-63680408D01*
X132834037Y-63675011D01*
X132834038Y-63675011D01*
X132914400Y-63659026D01*
X132964635Y-63625460D01*
X132982527Y-63613505D01*
X132982528Y-63613504D01*
X133005529Y-63598135D01*
X133014007Y-63585447D01*
X133029677Y-63566355D01*
X135506973Y-61089059D01*
X135569285Y-61055033D01*
X135640100Y-61060098D01*
X135696936Y-61102645D01*
X135719433Y-61152520D01*
X135726408Y-61186085D01*
X135796029Y-61320447D01*
X135899320Y-61431044D01*
X135954813Y-61464790D01*
X136021255Y-61505195D01*
X136021258Y-61505196D01*
X136028618Y-61509672D01*
X136174335Y-61550500D01*
X136287658Y-61550500D01*
X136341350Y-61543120D01*
X136391374Y-61536245D01*
X136391377Y-61536244D01*
X136399920Y-61535070D01*
X136458391Y-61509672D01*
X136530813Y-61478215D01*
X136530816Y-61478213D01*
X136538720Y-61474780D01*
X136545404Y-61469342D01*
X136545406Y-61469341D01*
X136600221Y-61424745D01*
X136656108Y-61379278D01*
X136743377Y-61255647D01*
X136746529Y-61246780D01*
X136791168Y-61121177D01*
X136791168Y-61121176D01*
X136794054Y-61113056D01*
X136804381Y-60962079D01*
X136796277Y-60923078D01*
X136775345Y-60822349D01*
X136775344Y-60822346D01*
X136773592Y-60813915D01*
X136703971Y-60679553D01*
X136600680Y-60568956D01*
X136523111Y-60521785D01*
X136478745Y-60494805D01*
X136478742Y-60494804D01*
X136471382Y-60490328D01*
X136325665Y-60449500D01*
X136212342Y-60449500D01*
X136158650Y-60456880D01*
X136108626Y-60463755D01*
X136108623Y-60463756D01*
X136100080Y-60464930D01*
X136046961Y-60488003D01*
X135969187Y-60521785D01*
X135969184Y-60521787D01*
X135961280Y-60525220D01*
X135954596Y-60530658D01*
X135954594Y-60530659D01*
X135929490Y-60551083D01*
X135843892Y-60620722D01*
X135841068Y-60624722D01*
X135781505Y-60659940D01*
X135710558Y-60657297D01*
X135652301Y-60616717D01*
X135625232Y-60551083D01*
X135624531Y-60537806D01*
X135624530Y-58411572D01*
X135644532Y-58343451D01*
X135661435Y-58322477D01*
X137149654Y-56834257D01*
X137168741Y-56818591D01*
X137175622Y-56813994D01*
X137178189Y-56817835D01*
X137178190Y-56817834D01*
X137175623Y-56813993D01*
X137198624Y-56798624D01*
X137200772Y-56801838D01*
X137243733Y-56778379D01*
X137270516Y-56775500D01*
X137557226Y-56775500D01*
X137625347Y-56795502D01*
X137671840Y-56849158D01*
X137681675Y-56921211D01*
X137669196Y-57000000D01*
X137690281Y-57133126D01*
X137751472Y-57253220D01*
X137846780Y-57348528D01*
X137966874Y-57409719D01*
X137976663Y-57411269D01*
X137976665Y-57411270D01*
X138090207Y-57429253D01*
X138100000Y-57430804D01*
X138109793Y-57429253D01*
X138223335Y-57411270D01*
X138223337Y-57411269D01*
X138233126Y-57409719D01*
X138353220Y-57348528D01*
X138448528Y-57253220D01*
X138509719Y-57133126D01*
X138530804Y-57000000D01*
X138518325Y-56921211D01*
X138527425Y-56850800D01*
X138573147Y-56796486D01*
X138642774Y-56775500D01*
X141521562Y-56775500D01*
X141589683Y-56795502D01*
X141610657Y-56812405D01*
X141646780Y-56848528D01*
X141766874Y-56909719D01*
X141776663Y-56911269D01*
X141776665Y-56911270D01*
X141890207Y-56929253D01*
X141900000Y-56930804D01*
X141909793Y-56929253D01*
X142023335Y-56911270D01*
X142023337Y-56911269D01*
X142033126Y-56909719D01*
X142153220Y-56848528D01*
X142248528Y-56753220D01*
X142287733Y-56676276D01*
X142336481Y-56624661D01*
X142405396Y-56607595D01*
X142472598Y-56630496D01*
G37*
%TD.AperFunction*%
%TA.AperFunction,Conductor*%
G36*
X143291121Y-55311002D02*
G01*
X143337614Y-55364658D01*
X143349000Y-55417000D01*
X143349000Y-56048343D01*
X143328998Y-56116464D01*
X143275342Y-56162957D01*
X143205068Y-56173061D01*
X143154136Y-56152388D01*
X143153220Y-56151472D01*
X143144389Y-56146972D01*
X143144387Y-56146971D01*
X143084513Y-56116464D01*
X143033126Y-56090281D01*
X143023337Y-56088731D01*
X143023335Y-56088730D01*
X142900000Y-56069196D01*
X142900323Y-56067156D01*
X142844432Y-56050745D01*
X142823458Y-56033842D01*
X142623261Y-55833645D01*
X142607591Y-55814553D01*
X142606004Y-55812178D01*
X142599113Y-55801865D01*
X142576112Y-55786496D01*
X142577701Y-55784119D01*
X142577699Y-55784118D01*
X142576111Y-55786495D01*
X142549957Y-55769020D01*
X142549955Y-55769017D01*
X142549954Y-55769018D01*
X142518300Y-55747867D01*
X142507984Y-55740974D01*
X142495815Y-55738553D01*
X142495814Y-55738553D01*
X142427622Y-55724989D01*
X142412661Y-55722013D01*
X142412660Y-55722013D01*
X142400489Y-55719592D01*
X142388318Y-55722013D01*
X142385528Y-55722568D01*
X142360946Y-55724989D01*
X141732638Y-55724989D01*
X141708056Y-55722568D01*
X141705266Y-55722013D01*
X141693095Y-55719592D01*
X141585600Y-55740974D01*
X141517473Y-55786495D01*
X141517472Y-55786496D01*
X141494471Y-55801865D01*
X141487580Y-55812178D01*
X141485993Y-55814553D01*
X141470323Y-55833645D01*
X141465893Y-55838075D01*
X141403581Y-55872101D01*
X141376798Y-55874980D01*
X136989063Y-55874980D01*
X136964481Y-55872559D01*
X136961691Y-55872004D01*
X136949520Y-55869583D01*
X136937349Y-55872004D01*
X136922388Y-55874980D01*
X136922387Y-55874980D01*
X136842025Y-55890965D01*
X136800055Y-55919009D01*
X136800055Y-55919008D01*
X136800052Y-55919011D01*
X136773898Y-55936486D01*
X136771331Y-55932645D01*
X136771330Y-55932646D01*
X136773897Y-55936487D01*
X136750896Y-55951856D01*
X136744005Y-55962169D01*
X136742418Y-55964544D01*
X136726748Y-55983636D01*
X134832667Y-57877717D01*
X134813575Y-57893387D01*
X134800887Y-57901865D01*
X134739996Y-57992994D01*
X134739996Y-57992995D01*
X134718614Y-58100489D01*
X134721035Y-58112660D01*
X134721590Y-58115450D01*
X134724011Y-58140032D01*
X134724011Y-59157148D01*
X134704009Y-59225269D01*
X134650353Y-59271762D01*
X134578301Y-59281597D01*
X134509794Y-59270747D01*
X134509793Y-59270747D01*
X134500000Y-59269196D01*
X134490207Y-59270747D01*
X134376665Y-59288730D01*
X134376663Y-59288731D01*
X134366874Y-59290281D01*
X134246780Y-59351472D01*
X134151472Y-59446780D01*
X134090281Y-59566874D01*
X134069196Y-59700000D01*
X134090281Y-59833126D01*
X134151472Y-59953220D01*
X134246780Y-60048528D01*
X134366874Y-60109719D01*
X134376663Y-60111269D01*
X134376665Y-60111270D01*
X134490207Y-60129253D01*
X134500000Y-60130804D01*
X134509793Y-60129253D01*
X134509794Y-60129253D01*
X134578301Y-60118403D01*
X134648712Y-60127503D01*
X134703026Y-60173225D01*
X134724011Y-60242852D01*
X134724011Y-60334183D01*
X134704009Y-60402304D01*
X134687106Y-60423278D01*
X132676542Y-62433842D01*
X132614230Y-62467868D01*
X132600760Y-62469316D01*
X132600000Y-62469196D01*
X132518864Y-62482047D01*
X132476665Y-62488730D01*
X132476663Y-62488731D01*
X132466874Y-62490281D01*
X132346780Y-62551472D01*
X132310657Y-62587595D01*
X132248345Y-62621621D01*
X132221562Y-62624500D01*
X132166306Y-62624500D01*
X132098185Y-62604498D01*
X132077211Y-62587595D01*
X132035690Y-62546074D01*
X132020020Y-62526981D01*
X132005519Y-62505278D01*
X132005517Y-62505276D01*
X131998624Y-62494960D01*
X131985936Y-62486482D01*
X131966844Y-62470812D01*
X131535572Y-62039540D01*
X131501546Y-61977228D01*
X131506611Y-61906413D01*
X131548931Y-61850713D01*
X131553220Y-61848528D01*
X131648528Y-61753220D01*
X131709719Y-61633126D01*
X131715305Y-61597861D01*
X131729253Y-61509793D01*
X131730804Y-61500000D01*
X132069196Y-61500000D01*
X132070747Y-61509793D01*
X132084696Y-61597861D01*
X132090281Y-61633126D01*
X132151472Y-61753220D01*
X132246780Y-61848528D01*
X132366874Y-61909719D01*
X132376663Y-61911269D01*
X132376665Y-61911270D01*
X132490207Y-61929253D01*
X132500000Y-61930804D01*
X132509793Y-61929253D01*
X132623335Y-61911270D01*
X132623337Y-61911269D01*
X132633126Y-61909719D01*
X132753220Y-61848528D01*
X132848528Y-61753220D01*
X132909719Y-61633126D01*
X132915305Y-61597861D01*
X132929253Y-61509793D01*
X132930804Y-61500000D01*
X132920592Y-61435521D01*
X132911270Y-61376665D01*
X132911269Y-61376663D01*
X132909719Y-61366874D01*
X132848528Y-61246780D01*
X132753220Y-61151472D01*
X132633126Y-61090281D01*
X132623337Y-61088731D01*
X132623335Y-61088730D01*
X132509793Y-61070747D01*
X132500000Y-61069196D01*
X132490207Y-61070747D01*
X132376665Y-61088730D01*
X132376663Y-61088731D01*
X132366874Y-61090281D01*
X132246780Y-61151472D01*
X132151472Y-61246780D01*
X132090281Y-61366874D01*
X132088731Y-61376663D01*
X132088730Y-61376665D01*
X132079408Y-61435521D01*
X132069196Y-61500000D01*
X131730804Y-61500000D01*
X131720592Y-61435521D01*
X131711270Y-61376665D01*
X131711269Y-61376663D01*
X131709719Y-61366874D01*
X131648528Y-61246780D01*
X131553220Y-61151472D01*
X131433126Y-61090281D01*
X131433904Y-61088753D01*
X131384803Y-61055178D01*
X131357167Y-60989781D01*
X131369275Y-60919824D01*
X131417282Y-60867519D01*
X131482346Y-60849420D01*
X131771708Y-60849420D01*
X131773295Y-60616717D01*
X131793182Y-57700000D01*
X133669196Y-57700000D01*
X133690281Y-57833126D01*
X133751472Y-57953220D01*
X133846780Y-58048528D01*
X133966874Y-58109719D01*
X133976663Y-58111269D01*
X133976665Y-58111270D01*
X134090207Y-58129253D01*
X134100000Y-58130804D01*
X134109793Y-58129253D01*
X134223335Y-58111270D01*
X134223337Y-58111269D01*
X134233126Y-58109719D01*
X134353220Y-58048528D01*
X134448528Y-57953220D01*
X134509719Y-57833126D01*
X134530804Y-57700000D01*
X134509719Y-57566874D01*
X134448528Y-57446780D01*
X134353220Y-57351472D01*
X134233126Y-57290281D01*
X134223337Y-57288731D01*
X134223335Y-57288730D01*
X134109793Y-57270747D01*
X134100000Y-57269196D01*
X134090207Y-57270747D01*
X133976665Y-57288730D01*
X133976663Y-57288731D01*
X133966874Y-57290281D01*
X133846780Y-57351472D01*
X133751472Y-57446780D01*
X133690281Y-57566874D01*
X133669196Y-57700000D01*
X131793182Y-57700000D01*
X131808754Y-55416141D01*
X131829220Y-55348158D01*
X131883191Y-55302032D01*
X131934751Y-55291000D01*
X143223000Y-55291000D01*
X143291121Y-55311002D01*
G37*
%TD.AperFunction*%
%TD*%
M02*
