%TF.GenerationSoftware,KiCad,Pcbnew,(6.99.0-1793-ga56955443f)*%
%TF.CreationDate,2022-12-11T18:47:06+00:00*%
%TF.ProjectId,Watchy-MrT-ESP32-S3-V1,57617463-6879-42d4-9d72-542d45535033,rev?*%
%TF.SameCoordinates,Original*%
%TF.FileFunction,Paste,Top*%
%TF.FilePolarity,Positive*%
%FSLAX46Y46*%
G04 Gerber Fmt 4.6, Leading zero omitted, Abs format (unit mm)*
G04 Created by KiCad (PCBNEW (6.99.0-1793-ga56955443f)) date 2022-12-11 18:47:06*
%MOMM*%
%LPD*%
G01*
G04 APERTURE LIST*
G04 Aperture macros list*
%AMRoundRect*
0 Rectangle with rounded corners*
0 $1 Rounding radius*
0 $2 $3 $4 $5 $6 $7 $8 $9 X,Y pos of 4 corners*
0 Add a 4 corners polygon primitive as box body*
4,1,4,$2,$3,$4,$5,$6,$7,$8,$9,$2,$3,0*
0 Add four circle primitives for the rounded corners*
1,1,$1+$1,$2,$3*
1,1,$1+$1,$4,$5*
1,1,$1+$1,$6,$7*
1,1,$1+$1,$8,$9*
0 Add four rect primitives between the rounded corners*
20,1,$1+$1,$2,$3,$4,$5,0*
20,1,$1+$1,$4,$5,$6,$7,0*
20,1,$1+$1,$6,$7,$8,$9,0*
20,1,$1+$1,$8,$9,$2,$3,0*%
G04 Aperture macros list end*
%ADD10C,0.000100*%
%ADD11C,0.010000*%
%ADD12R,0.400000X0.400000*%
%ADD13R,1.150000X0.600000*%
%ADD14R,1.150000X0.300000*%
%ADD15R,2.000000X2.180000*%
%ADD16R,0.250000X0.275000*%
%ADD17R,0.275000X0.250000*%
%ADD18R,1.050000X0.450000*%
%ADD19R,3.450000X4.350000*%
%ADD20R,0.500000X1.100000*%
%ADD21RoundRect,0.135000X0.135000X0.185000X-0.135000X0.185000X-0.135000X-0.185000X0.135000X-0.185000X0*%
%ADD22RoundRect,0.150000X-0.587500X-0.150000X0.587500X-0.150000X0.587500X0.150000X-0.587500X0.150000X0*%
%ADD23R,1.100000X1.100000*%
%ADD24RoundRect,0.140000X-0.140000X-0.170000X0.140000X-0.170000X0.140000X0.170000X-0.140000X0.170000X0*%
%ADD25O,1.350000X1.350000*%
%ADD26R,1.350000X1.350000*%
%ADD27R,1.600000X0.500000*%
%ADD28R,2.900000X2.100000*%
%ADD29RoundRect,0.140000X0.170000X-0.140000X0.170000X0.140000X-0.170000X0.140000X-0.170000X-0.140000X0*%
%ADD30R,0.533400X1.981200*%
%ADD31C,0.200000*%
%ADD32R,0.375000X0.350000*%
%ADD33R,0.350000X0.375000*%
%ADD34R,0.300000X1.300000*%
%ADD35R,2.000000X3.000000*%
%ADD36RoundRect,0.135000X-0.135000X-0.185000X0.135000X-0.185000X0.135000X0.185000X-0.135000X0.185000X0*%
%ADD37RoundRect,0.150000X0.150000X-0.587500X0.150000X0.587500X-0.150000X0.587500X-0.150000X-0.587500X0*%
%ADD38RoundRect,0.135000X0.185000X-0.135000X0.185000X0.135000X-0.185000X0.135000X-0.185000X-0.135000X0*%
%ADD39RoundRect,0.250000X0.250000X0.475000X-0.250000X0.475000X-0.250000X-0.475000X0.250000X-0.475000X0*%
%ADD40RoundRect,0.150000X-0.512500X-0.150000X0.512500X-0.150000X0.512500X0.150000X-0.512500X0.150000X0*%
%ADD41RoundRect,0.225000X0.250000X-0.225000X0.250000X0.225000X-0.250000X0.225000X-0.250000X-0.225000X0*%
%ADD42RoundRect,0.250000X-0.250000X-0.475000X0.250000X-0.475000X0.250000X0.475000X-0.250000X0.475000X0*%
%ADD43RoundRect,0.006600X-0.103400X0.398400X-0.103400X-0.398400X0.103400X-0.398400X0.103400X0.398400X0*%
%ADD44RoundRect,0.022000X-0.383000X0.088000X-0.383000X-0.088000X0.383000X-0.088000X0.383000X0.088000X0*%
%ADD45R,1.000000X1.400000*%
%ADD46R,0.900000X1.200000*%
%ADD47RoundRect,0.135000X-0.185000X0.135000X-0.185000X-0.135000X0.185000X-0.135000X0.185000X0.135000X0*%
%ADD48R,0.650000X0.850000*%
%ADD49RoundRect,0.140000X-0.170000X0.140000X-0.170000X-0.140000X0.170000X-0.140000X0.170000X0.140000X0*%
%ADD50RoundRect,0.147500X0.147500X0.172500X-0.147500X0.172500X-0.147500X-0.172500X0.147500X-0.172500X0*%
%ADD51R,1.200000X1.200000*%
%ADD52R,1.200000X0.500000*%
%ADD53R,0.400000X0.500000*%
%ADD54RoundRect,0.140000X0.140000X0.170000X-0.140000X0.170000X-0.140000X-0.170000X0.140000X-0.170000X0*%
%ADD55R,0.500000X0.500000*%
%ADD56R,0.900000X0.500000*%
%ADD57R,3.700000X1.200000*%
G04 APERTURE END LIST*
%TO.C,U3*%
G36*
X117000000Y-67355000D02*
G01*
X116610000Y-67355000D01*
X116610000Y-67245000D01*
X116760000Y-67095000D01*
X117000000Y-67095000D01*
X117000000Y-67355000D01*
G37*
D10*
X117000000Y-67355000D02*
X116610000Y-67355000D01*
X116610000Y-67245000D01*
X116760000Y-67095000D01*
X117000000Y-67095000D01*
X117000000Y-67355000D01*
G36*
X116190000Y-66555000D02*
G01*
X116040000Y-66705000D01*
X115800000Y-66705000D01*
X115800000Y-66445000D01*
X116190000Y-66445000D01*
X116190000Y-66555000D01*
G37*
X116190000Y-66555000D02*
X116040000Y-66705000D01*
X115800000Y-66705000D01*
X115800000Y-66445000D01*
X116190000Y-66445000D01*
X116190000Y-66555000D01*
G36*
X116190000Y-67245000D02*
G01*
X116190000Y-67355000D01*
X115800000Y-67355000D01*
X115800000Y-67095000D01*
X116040000Y-67095000D01*
X116190000Y-67245000D01*
G37*
X116190000Y-67245000D02*
X116190000Y-67355000D01*
X115800000Y-67355000D01*
X115800000Y-67095000D01*
X116040000Y-67095000D01*
X116190000Y-67245000D01*
G36*
X117000000Y-66705000D02*
G01*
X116760000Y-66705000D01*
X116610000Y-66555000D01*
X116610000Y-66445000D01*
X117000000Y-66445000D01*
X117000000Y-66705000D01*
G37*
X117000000Y-66705000D02*
X116760000Y-66705000D01*
X116610000Y-66555000D01*
X116610000Y-66445000D01*
X117000000Y-66445000D01*
X117000000Y-66705000D01*
G36*
X116564000Y-67064000D02*
G01*
X116236000Y-67064000D01*
X116236000Y-66736000D01*
X116564000Y-66736000D01*
X116564000Y-67064000D01*
G37*
D11*
X116564000Y-67064000D02*
X116236000Y-67064000D01*
X116236000Y-66736000D01*
X116564000Y-66736000D01*
X116564000Y-67064000D01*
%TO.C,U1*%
G36*
X124315000Y-67455000D02*
G01*
X123045000Y-67455000D01*
X123045000Y-66185000D01*
X124315000Y-66185000D01*
X124315000Y-67455000D01*
G37*
X124315000Y-67455000D02*
X123045000Y-67455000D01*
X123045000Y-66185000D01*
X124315000Y-66185000D01*
X124315000Y-67455000D01*
G36*
X122555000Y-67455000D02*
G01*
X121285000Y-67455000D01*
X121285000Y-66185000D01*
X122555000Y-66185000D01*
X122555000Y-67455000D01*
G37*
X122555000Y-67455000D02*
X121285000Y-67455000D01*
X121285000Y-66185000D01*
X122555000Y-66185000D01*
X122555000Y-67455000D01*
G36*
X124315000Y-69215000D02*
G01*
X123045000Y-69215000D01*
X123045000Y-67945000D01*
X124315000Y-67945000D01*
X124315000Y-69215000D01*
G37*
X124315000Y-69215000D02*
X123045000Y-69215000D01*
X123045000Y-67945000D01*
X124315000Y-67945000D01*
X124315000Y-69215000D01*
G36*
X122555000Y-69215000D02*
G01*
X121285000Y-69215000D01*
X121285000Y-67945000D01*
X122555000Y-67945000D01*
X122555000Y-69215000D01*
G37*
X122555000Y-69215000D02*
X121285000Y-69215000D01*
X121285000Y-67945000D01*
X122555000Y-67945000D01*
X122555000Y-69215000D01*
%TD*%
D12*
%TO.C,U4*%
X139064999Y-67499999D03*
X139064999Y-68299999D03*
X139064999Y-69099999D03*
X139064999Y-69899999D03*
X136664999Y-69899999D03*
X136664999Y-69099999D03*
X136664999Y-68299999D03*
X136664999Y-67499999D03*
%TD*%
D13*
%TO.C,J2*%
X115564999Y-71069999D03*
X115564999Y-71869999D03*
X115564999Y-76669999D03*
X115564999Y-77469999D03*
D14*
X115564999Y-72519999D03*
X115564999Y-76019999D03*
X115564999Y-73019999D03*
X115564999Y-75519999D03*
X115564999Y-73519999D03*
X115564999Y-75019999D03*
X115564999Y-74019999D03*
X115564999Y-74519999D03*
D15*
X114989999Y-69159999D03*
X114989999Y-79379999D03*
X111059999Y-69159999D03*
X111059999Y-79379999D03*
%TD*%
D16*
%TO.C,IC2*%
X142049999Y-68536999D03*
X141549999Y-68536999D03*
D17*
X141037999Y-68799999D03*
X141037999Y-69299999D03*
X141037999Y-69799999D03*
D16*
X141549999Y-70062999D03*
X142049999Y-70062999D03*
D17*
X142561999Y-69799999D03*
X142561999Y-69299999D03*
X142561999Y-68799999D03*
%TD*%
D18*
%TO.C,IC1*%
X125149999Y-76604999D03*
X125149999Y-75334999D03*
X125149999Y-74064999D03*
X125149999Y-72794999D03*
X119449999Y-72794999D03*
X119449999Y-74064999D03*
X119449999Y-75334999D03*
X119449999Y-76604999D03*
D19*
X122299999Y-74699999D03*
%TD*%
D20*
%TO.C,D4*%
X110799999Y-89349999D03*
X110799999Y-87049999D03*
%TD*%
D21*
%TO.C,R11*%
X133210000Y-60600000D03*
X132190000Y-60600000D03*
%TD*%
D22*
%TO.C,Q3*%
X132762500Y-57750000D03*
X132762500Y-59650000D03*
X134637500Y-58700000D03*
%TD*%
D23*
%TO.C,D6*%
X139399999Y-56399999D03*
X136599999Y-56399999D03*
%TD*%
D24*
%TO.C,C19*%
X134120000Y-60600000D03*
X135080000Y-60600000D03*
%TD*%
D25*
%TO.C,M1*%
X134799999Y-56299999D03*
D26*
X132799999Y-56299999D03*
%TD*%
D27*
%TO.C,J3*%
X113049999Y-88074999D03*
X113049999Y-89324999D03*
D28*
X115899999Y-91874999D03*
X115899999Y-85542999D03*
%TD*%
D29*
%TO.C,C28*%
X140700000Y-56980000D03*
X140700000Y-56020000D03*
%TD*%
D22*
%TO.C,Q2*%
X114662500Y-81550000D03*
X114662500Y-83450000D03*
X116537500Y-82500000D03*
%TD*%
D30*
%TO.C,U6*%
X131294999Y-68963799D03*
X132564999Y-68963799D03*
X133834999Y-68963799D03*
X135104999Y-68963799D03*
X135104999Y-64036199D03*
X133834999Y-64036199D03*
X132564999Y-64036199D03*
X131294999Y-64036199D03*
%TD*%
D31*
%TO.C,U7*%
X140981750Y-65399000D03*
X141547750Y-65399000D03*
X142113750Y-65399000D03*
X141264750Y-65682000D03*
X141830750Y-65682000D03*
X140981750Y-65965000D03*
X142113750Y-65965000D03*
X141264750Y-66248000D03*
X141830750Y-66248000D03*
X140981750Y-66531000D03*
X141547750Y-66531000D03*
X142113750Y-66531000D03*
%TD*%
D29*
%TO.C,C35*%
X124350000Y-62880000D03*
X124350000Y-61920000D03*
%TD*%
D32*
%TO.C,U8*%
X128037499Y-62249999D03*
X128037499Y-62749999D03*
X128037499Y-63249999D03*
X128037499Y-63749999D03*
D33*
X128549999Y-63762499D03*
X129049999Y-63762499D03*
D32*
X129562499Y-63749999D03*
X129562499Y-63249999D03*
X129562499Y-62749999D03*
X129562499Y-62249999D03*
D33*
X129049999Y-62237499D03*
X128549999Y-62237499D03*
%TD*%
D34*
%TO.C,J1*%
X132069999Y-78569999D03*
X131569999Y-78569999D03*
X131069999Y-78569999D03*
X130569999Y-78569999D03*
X130069999Y-78569999D03*
X129569999Y-78569999D03*
X129069999Y-78569999D03*
X128569999Y-78569999D03*
X128069999Y-78569999D03*
X127569999Y-78569999D03*
X127069999Y-78569999D03*
X126569999Y-78569999D03*
X126069999Y-78569999D03*
X125569999Y-78569999D03*
X125069999Y-78569999D03*
X124569999Y-78569999D03*
X124069999Y-78569999D03*
X123569999Y-78569999D03*
X123069999Y-78569999D03*
X122569999Y-78569999D03*
X122069999Y-78569999D03*
X121569999Y-78569999D03*
X121069999Y-78569999D03*
X120569999Y-78569999D03*
D35*
X118919999Y-80919999D03*
X133719999Y-80919999D03*
%TD*%
D36*
%TO.C,R10*%
X110290000Y-90700000D03*
X111310000Y-90700000D03*
%TD*%
D37*
%TO.C,Q1*%
X136250000Y-82812500D03*
X138150000Y-82812500D03*
X137200000Y-80937500D03*
%TD*%
D38*
%TO.C,R6*%
X113200000Y-82360000D03*
X113200000Y-81340000D03*
%TD*%
D29*
%TO.C,C27*%
X137400000Y-66180000D03*
X137400000Y-65220000D03*
%TD*%
D39*
%TO.C,C8*%
X142650000Y-83175000D03*
X140750000Y-83175000D03*
%TD*%
D29*
%TO.C,C30*%
X117000000Y-65180000D03*
X117000000Y-64220000D03*
%TD*%
D40*
%TO.C,U2*%
X110462500Y-83800000D03*
X110462500Y-84750000D03*
X110462500Y-85700000D03*
X112737500Y-85700000D03*
X112737500Y-83800000D03*
%TD*%
D24*
%TO.C,C1*%
X128720000Y-65200000D03*
X129680000Y-65200000D03*
%TD*%
D38*
%TO.C,R3*%
X135200000Y-77535000D03*
X135200000Y-76515000D03*
%TD*%
D41*
%TO.C,C16*%
X126650000Y-76800000D03*
X126650000Y-75250000D03*
%TD*%
D36*
%TO.C,R17*%
X129390000Y-71800000D03*
X130410000Y-71800000D03*
%TD*%
D41*
%TO.C,C10*%
X129600000Y-76800000D03*
X129600000Y-75250000D03*
%TD*%
D29*
%TO.C,C17*%
X133800000Y-62480000D03*
X133800000Y-61520000D03*
%TD*%
D42*
%TO.C,C9*%
X136250000Y-78950000D03*
X138150000Y-78950000D03*
%TD*%
D43*
%TO.C,U1*%
X125400000Y-64255000D03*
X125000000Y-64255000D03*
X124600000Y-64255000D03*
X124200000Y-64255000D03*
X123800000Y-64255000D03*
X123400000Y-64255000D03*
X123000000Y-64255000D03*
X122600000Y-64255000D03*
X122200000Y-64255000D03*
X121800000Y-64255000D03*
X121400000Y-64255000D03*
X121000000Y-64255000D03*
X120600000Y-64255000D03*
X120200000Y-64255000D03*
D44*
X119355000Y-65100000D03*
X119355000Y-65500000D03*
X119355000Y-65900000D03*
X119355000Y-66300000D03*
X119355000Y-66700000D03*
X119355000Y-67100000D03*
X119355000Y-67500000D03*
X119355000Y-67900000D03*
X119355000Y-68300000D03*
X119355000Y-68700000D03*
X119355000Y-69100000D03*
X119355000Y-69500000D03*
X119355000Y-69900000D03*
X119355000Y-70300000D03*
D43*
X120200000Y-71145000D03*
X120600000Y-71145000D03*
X121000000Y-71145000D03*
X121400000Y-71145000D03*
X121800000Y-71145000D03*
X122200000Y-71145000D03*
X122600000Y-71145000D03*
X123000000Y-71145000D03*
X123400000Y-71145000D03*
X123800000Y-71145000D03*
X124200000Y-71145000D03*
X124600000Y-71145000D03*
X125000000Y-71145000D03*
X125400000Y-71145000D03*
D44*
X126245000Y-70300000D03*
X126245000Y-69900000D03*
X126245000Y-69500000D03*
X126245000Y-69100000D03*
X126245000Y-68700000D03*
X126245000Y-68300000D03*
X126245000Y-67900000D03*
X126245000Y-67500000D03*
X126245000Y-67100000D03*
X126245000Y-66700000D03*
X126245000Y-66300000D03*
X126245000Y-65900000D03*
X126245000Y-65500000D03*
X126245000Y-65100000D03*
%TD*%
D45*
%TO.C,SW2*%
X138349999Y-71474999D03*
X136649999Y-71474999D03*
X138349999Y-77074999D03*
X136649999Y-77074999D03*
%TD*%
D46*
%TO.C,D2*%
X131649999Y-71399999D03*
X134949999Y-71399999D03*
%TD*%
D41*
%TO.C,C15*%
X128125000Y-76800000D03*
X128125000Y-75250000D03*
%TD*%
D24*
%TO.C,C18*%
X110320000Y-92700000D03*
X111280000Y-92700000D03*
%TD*%
D47*
%TO.C,R18*%
X132550000Y-61490000D03*
X132550000Y-62510000D03*
%TD*%
D48*
%TO.C,Y1*%
X127724999Y-67974999D03*
X129374999Y-67974999D03*
X129374999Y-66424999D03*
X127724999Y-66424999D03*
%TD*%
D46*
%TO.C,D1*%
X130149999Y-73399999D03*
X126849999Y-73399999D03*
%TD*%
D38*
%TO.C,R13*%
X117025000Y-76335000D03*
X117025000Y-75315000D03*
%TD*%
D41*
%TO.C,C12*%
X134025000Y-76800000D03*
X134025000Y-75250000D03*
%TD*%
D29*
%TO.C,C3*%
X115000000Y-65180000D03*
X115000000Y-64220000D03*
%TD*%
D38*
%TO.C,R7*%
X112200000Y-82360000D03*
X112200000Y-81340000D03*
%TD*%
D29*
%TO.C,C32*%
X123500000Y-62630000D03*
X123500000Y-61670000D03*
%TD*%
D45*
%TO.C,SW1*%
X138349999Y-58199999D03*
X136649999Y-58199999D03*
X138349999Y-63799999D03*
X136649999Y-63799999D03*
%TD*%
D21*
%TO.C,R8*%
X111060000Y-82300000D03*
X110040000Y-82300000D03*
%TD*%
D41*
%TO.C,C13*%
X132550000Y-76800000D03*
X132550000Y-75250000D03*
%TD*%
D49*
%TO.C,C22*%
X117800000Y-66320000D03*
X117800000Y-67280000D03*
%TD*%
D38*
%TO.C,R15*%
X135200000Y-75710000D03*
X135200000Y-74690000D03*
%TD*%
D24*
%TO.C,C11*%
X138300000Y-91800000D03*
X139260000Y-91800000D03*
%TD*%
D47*
%TO.C,R19*%
X131300000Y-61490000D03*
X131300000Y-62510000D03*
%TD*%
D29*
%TO.C,C29*%
X118000000Y-65180000D03*
X118000000Y-64220000D03*
%TD*%
D45*
%TO.C,SW3*%
X138349999Y-84749999D03*
X136649999Y-84749999D03*
X138349999Y-90349999D03*
X136649999Y-90349999D03*
%TD*%
D41*
%TO.C,C14*%
X131075000Y-76800000D03*
X131075000Y-75250000D03*
%TD*%
D50*
%TO.C,D5*%
X111035000Y-81250000D03*
X110065000Y-81250000D03*
%TD*%
D21*
%TO.C,R9*%
X111310000Y-91700000D03*
X110290000Y-91700000D03*
%TD*%
D49*
%TO.C,C21*%
X115000000Y-66320000D03*
X115000000Y-67280000D03*
%TD*%
D51*
%TO.C,SW4*%
X111741749Y-66985999D03*
X111741749Y-62413999D03*
D52*
X113583249Y-66374999D03*
X113583249Y-63024999D03*
%TD*%
D49*
%TO.C,C31*%
X116900000Y-68220000D03*
X116900000Y-69180000D03*
%TD*%
D53*
%TO.C,U9*%
X142699999Y-55799999D03*
X141899999Y-55799999D03*
X141899999Y-57199999D03*
X142699999Y-57199999D03*
%TD*%
D29*
%TO.C,C4*%
X135000000Y-62480000D03*
X135000000Y-61520000D03*
%TD*%
D46*
%TO.C,D3*%
X131649999Y-73399999D03*
X134949999Y-73399999D03*
%TD*%
D38*
%TO.C,R14*%
X136400000Y-66210000D03*
X136400000Y-65190000D03*
%TD*%
D54*
%TO.C,C5*%
X128300000Y-71800000D03*
X127340000Y-71800000D03*
%TD*%
D29*
%TO.C,C26*%
X139400000Y-66180000D03*
X139400000Y-65220000D03*
%TD*%
D55*
%TO.C,AE1*%
X125394999Y-61149999D03*
D56*
X127494999Y-61149999D03*
%TD*%
D21*
%TO.C,R4*%
X128310000Y-70800000D03*
X127290000Y-70800000D03*
%TD*%
D54*
%TO.C,C2*%
X128380000Y-69200000D03*
X127420000Y-69200000D03*
%TD*%
%TO.C,C7*%
X118080000Y-77300000D03*
X117120000Y-77300000D03*
%TD*%
D29*
%TO.C,C25*%
X138400000Y-66180000D03*
X138400000Y-65220000D03*
%TD*%
D36*
%TO.C,R2*%
X129390000Y-70800000D03*
X130410000Y-70800000D03*
%TD*%
D38*
%TO.C,R1*%
X114000000Y-65210000D03*
X114000000Y-64190000D03*
%TD*%
D49*
%TO.C,C33*%
X116900000Y-70020000D03*
X116900000Y-70980000D03*
%TD*%
D38*
%TO.C,R12*%
X116900000Y-72935000D03*
X116900000Y-71915000D03*
%TD*%
D57*
%TO.C,L2*%
X141199999Y-78499999D03*
X141199999Y-81299999D03*
%TD*%
D29*
%TO.C,C6*%
X118100000Y-76280000D03*
X118100000Y-75320000D03*
%TD*%
D38*
%TO.C,R5*%
X139450000Y-83660000D03*
X139450000Y-82640000D03*
%TD*%
D36*
%TO.C,R16*%
X136290000Y-91800000D03*
X137310000Y-91800000D03*
%TD*%
D29*
%TO.C,C34*%
X116000000Y-65180000D03*
X116000000Y-64220000D03*
%TD*%
M02*
