%TF.GenerationSoftware,KiCad,Pcbnew,(6.99.0-1793-ga56955443f)*%
%TF.CreationDate,2022-12-11T18:47:06+00:00*%
%TF.ProjectId,Watchy-MrT-ESP32-S3-V1,57617463-6879-42d4-9d72-542d45535033,rev?*%
%TF.SameCoordinates,Original*%
%TF.FileFunction,Profile,NP*%
%FSLAX46Y46*%
G04 Gerber Fmt 4.6, Leading zero omitted, Abs format (unit mm)*
G04 Created by KiCad (PCBNEW (6.99.0-1793-ga56955443f)) date 2022-12-11 18:47:06*
%MOMM*%
%LPD*%
G01*
G04 APERTURE LIST*
%TA.AperFunction,Profile*%
%ADD10C,0.150000*%
%TD*%
%TA.AperFunction,Profile*%
%ADD11C,0.160000*%
%TD*%
G04 APERTURE END LIST*
D10*
X139150000Y-77570000D02*
X143350000Y-77570000D01*
X109550000Y-93250000D02*
X113450000Y-93250000D01*
X143350000Y-93250000D02*
X143350000Y-90850000D01*
X139150000Y-84250000D02*
X143350000Y-84250000D01*
X111050000Y-63600000D02*
X111050000Y-65800000D01*
D11*
X109550000Y-55290000D02*
X109550000Y-62100000D01*
D10*
X134900000Y-92750000D02*
G75*
G03*
X135400000Y-93250000I500000J0D01*
G01*
X118400000Y-93250000D02*
G75*
G03*
X118900000Y-92750000I0J500000D01*
G01*
X139150000Y-57690000D02*
X139150000Y-64290000D01*
X143350000Y-70970000D02*
X139150000Y-70970000D01*
X139450000Y-93250000D02*
X135400000Y-93250000D01*
X113450000Y-93250000D02*
X118400000Y-93250000D01*
X109550000Y-93250000D02*
X109550000Y-67300000D01*
X143350000Y-77570000D02*
X143350000Y-84250000D01*
X143350000Y-55290000D02*
X143350000Y-57690000D01*
X139150000Y-64290000D02*
X143350000Y-64290000D01*
X143350000Y-64290000D02*
X143350000Y-70970000D01*
X139450000Y-55290000D02*
X143350000Y-55290000D01*
X118900000Y-92750000D02*
X134900000Y-92750000D01*
X139150000Y-90850000D02*
X139150000Y-84250000D01*
X139450000Y-55290000D02*
X113450000Y-55290000D01*
X143350000Y-57690000D02*
X139150000Y-57690000D01*
X109550000Y-67300000D02*
X111050000Y-65800000D01*
X139450000Y-93250000D02*
X143350000Y-93250000D01*
X109550000Y-62100000D02*
X111050000Y-63600000D01*
X143350000Y-90850000D02*
X139150000Y-90850000D01*
X139150000Y-70970000D02*
X139150000Y-77570000D01*
X109550000Y-55290000D02*
X113450000Y-55290000D01*
M02*
