%TF.GenerationSoftware,KiCad,Pcbnew,(6.99.0-1793-ga56955443f)*%
%TF.CreationDate,2022-12-11T18:47:06+00:00*%
%TF.ProjectId,Watchy-MrT-ESP32-S3-V1,57617463-6879-42d4-9d72-542d45535033,rev?*%
%TF.SameCoordinates,Original*%
%TF.FileFunction,Legend,Bot*%
%TF.FilePolarity,Positive*%
%FSLAX46Y46*%
G04 Gerber Fmt 4.6, Leading zero omitted, Abs format (unit mm)*
G04 Created by KiCad (PCBNEW (6.99.0-1793-ga56955443f)) date 2022-12-11 18:47:06*
%MOMM*%
%LPD*%
G01*
G04 APERTURE LIST*
%ADD10C,0.200000*%
%ADD11C,0.250000*%
%ADD12C,0.300000*%
%ADD13C,0.500000*%
G04 APERTURE END LIST*
D10*
X111500000Y-86700000D02*
X137900000Y-86700000D01*
X137900000Y-86700000D02*
X137900000Y-84100000D01*
X137900000Y-84100000D02*
X111500000Y-84100000D01*
X111500000Y-84100000D02*
X111500000Y-86700000D01*
D11*
X137533333Y-85977595D02*
X137533333Y-84677595D01*
X137104762Y-85977595D02*
X137104762Y-85296642D01*
X137104762Y-85296642D02*
X137152381Y-85172833D01*
X137152381Y-85172833D02*
X137247619Y-85110928D01*
X137247619Y-85110928D02*
X137390476Y-85110928D01*
X137390476Y-85110928D02*
X137485714Y-85172833D01*
X137485714Y-85172833D02*
X137533333Y-85234738D01*
X136771428Y-85110928D02*
X136390476Y-85110928D01*
X136628571Y-84677595D02*
X136628571Y-85791880D01*
X136628571Y-85791880D02*
X136580952Y-85915690D01*
X136580952Y-85915690D02*
X136485714Y-85977595D01*
X136485714Y-85977595D02*
X136390476Y-85977595D01*
X136199999Y-85110928D02*
X135819047Y-85110928D01*
X136057142Y-84677595D02*
X136057142Y-85791880D01*
X136057142Y-85791880D02*
X136009523Y-85915690D01*
X136009523Y-85915690D02*
X135914285Y-85977595D01*
X135914285Y-85977595D02*
X135819047Y-85977595D01*
X135485713Y-85110928D02*
X135485713Y-86410928D01*
X135485713Y-85172833D02*
X135390475Y-85110928D01*
X135390475Y-85110928D02*
X135199999Y-85110928D01*
X135199999Y-85110928D02*
X135104761Y-85172833D01*
X135104761Y-85172833D02*
X135057142Y-85234738D01*
X135057142Y-85234738D02*
X135009523Y-85358547D01*
X135009523Y-85358547D02*
X135009523Y-85729976D01*
X135009523Y-85729976D02*
X135057142Y-85853785D01*
X135057142Y-85853785D02*
X135104761Y-85915690D01*
X135104761Y-85915690D02*
X135199999Y-85977595D01*
X135199999Y-85977595D02*
X135390475Y-85977595D01*
X135390475Y-85977595D02*
X135485713Y-85915690D01*
X134628570Y-85915690D02*
X134533332Y-85977595D01*
X134533332Y-85977595D02*
X134342856Y-85977595D01*
X134342856Y-85977595D02*
X134247618Y-85915690D01*
X134247618Y-85915690D02*
X134199999Y-85791880D01*
X134199999Y-85791880D02*
X134199999Y-85729976D01*
X134199999Y-85729976D02*
X134247618Y-85606166D01*
X134247618Y-85606166D02*
X134342856Y-85544261D01*
X134342856Y-85544261D02*
X134485713Y-85544261D01*
X134485713Y-85544261D02*
X134580951Y-85482357D01*
X134580951Y-85482357D02*
X134628570Y-85358547D01*
X134628570Y-85358547D02*
X134628570Y-85296642D01*
X134628570Y-85296642D02*
X134580951Y-85172833D01*
X134580951Y-85172833D02*
X134485713Y-85110928D01*
X134485713Y-85110928D02*
X134342856Y-85110928D01*
X134342856Y-85110928D02*
X134247618Y-85172833D01*
X133771427Y-85853785D02*
X133723808Y-85915690D01*
X133723808Y-85915690D02*
X133771427Y-85977595D01*
X133771427Y-85977595D02*
X133819046Y-85915690D01*
X133819046Y-85915690D02*
X133771427Y-85853785D01*
X133771427Y-85853785D02*
X133771427Y-85977595D01*
X133771427Y-85172833D02*
X133723808Y-85234738D01*
X133723808Y-85234738D02*
X133771427Y-85296642D01*
X133771427Y-85296642D02*
X133819046Y-85234738D01*
X133819046Y-85234738D02*
X133771427Y-85172833D01*
X133771427Y-85172833D02*
X133771427Y-85296642D01*
X132580952Y-84615690D02*
X133438094Y-86287119D01*
X131533333Y-84615690D02*
X132390475Y-86287119D01*
X130771428Y-85110928D02*
X130771428Y-86163309D01*
X130771428Y-86163309D02*
X130819047Y-86287119D01*
X130819047Y-86287119D02*
X130866666Y-86349023D01*
X130866666Y-86349023D02*
X130961904Y-86410928D01*
X130961904Y-86410928D02*
X131104761Y-86410928D01*
X131104761Y-86410928D02*
X131199999Y-86349023D01*
X130771428Y-85915690D02*
X130866666Y-85977595D01*
X130866666Y-85977595D02*
X131057142Y-85977595D01*
X131057142Y-85977595D02*
X131152380Y-85915690D01*
X131152380Y-85915690D02*
X131199999Y-85853785D01*
X131199999Y-85853785D02*
X131247618Y-85729976D01*
X131247618Y-85729976D02*
X131247618Y-85358547D01*
X131247618Y-85358547D02*
X131199999Y-85234738D01*
X131199999Y-85234738D02*
X131152380Y-85172833D01*
X131152380Y-85172833D02*
X131057142Y-85110928D01*
X131057142Y-85110928D02*
X130866666Y-85110928D01*
X130866666Y-85110928D02*
X130771428Y-85172833D01*
X130295237Y-85977595D02*
X130295237Y-85110928D01*
X130295237Y-84677595D02*
X130342856Y-84739500D01*
X130342856Y-84739500D02*
X130295237Y-84801404D01*
X130295237Y-84801404D02*
X130247618Y-84739500D01*
X130247618Y-84739500D02*
X130295237Y-84677595D01*
X130295237Y-84677595D02*
X130295237Y-84801404D01*
X129961904Y-85110928D02*
X129580952Y-85110928D01*
X129819047Y-84677595D02*
X129819047Y-85791880D01*
X129819047Y-85791880D02*
X129771428Y-85915690D01*
X129771428Y-85915690D02*
X129676190Y-85977595D01*
X129676190Y-85977595D02*
X129580952Y-85977595D01*
X129247618Y-85977595D02*
X129247618Y-84677595D01*
X128819047Y-85977595D02*
X128819047Y-85296642D01*
X128819047Y-85296642D02*
X128866666Y-85172833D01*
X128866666Y-85172833D02*
X128961904Y-85110928D01*
X128961904Y-85110928D02*
X129104761Y-85110928D01*
X129104761Y-85110928D02*
X129199999Y-85172833D01*
X129199999Y-85172833D02*
X129247618Y-85234738D01*
X127914285Y-85110928D02*
X127914285Y-85977595D01*
X128342856Y-85110928D02*
X128342856Y-85791880D01*
X128342856Y-85791880D02*
X128295237Y-85915690D01*
X128295237Y-85915690D02*
X128199999Y-85977595D01*
X128199999Y-85977595D02*
X128057142Y-85977595D01*
X128057142Y-85977595D02*
X127961904Y-85915690D01*
X127961904Y-85915690D02*
X127914285Y-85853785D01*
X127438094Y-85977595D02*
X127438094Y-84677595D01*
X127438094Y-85172833D02*
X127342856Y-85110928D01*
X127342856Y-85110928D02*
X127152380Y-85110928D01*
X127152380Y-85110928D02*
X127057142Y-85172833D01*
X127057142Y-85172833D02*
X127009523Y-85234738D01*
X127009523Y-85234738D02*
X126961904Y-85358547D01*
X126961904Y-85358547D02*
X126961904Y-85729976D01*
X126961904Y-85729976D02*
X127009523Y-85853785D01*
X127009523Y-85853785D02*
X127057142Y-85915690D01*
X127057142Y-85915690D02*
X127152380Y-85977595D01*
X127152380Y-85977595D02*
X127342856Y-85977595D01*
X127342856Y-85977595D02*
X127438094Y-85915690D01*
X126533332Y-85853785D02*
X126485713Y-85915690D01*
X126485713Y-85915690D02*
X126533332Y-85977595D01*
X126533332Y-85977595D02*
X126580951Y-85915690D01*
X126580951Y-85915690D02*
X126533332Y-85853785D01*
X126533332Y-85853785D02*
X126533332Y-85977595D01*
X125628571Y-85915690D02*
X125723809Y-85977595D01*
X125723809Y-85977595D02*
X125914285Y-85977595D01*
X125914285Y-85977595D02*
X126009523Y-85915690D01*
X126009523Y-85915690D02*
X126057142Y-85853785D01*
X126057142Y-85853785D02*
X126104761Y-85729976D01*
X126104761Y-85729976D02*
X126104761Y-85358547D01*
X126104761Y-85358547D02*
X126057142Y-85234738D01*
X126057142Y-85234738D02*
X126009523Y-85172833D01*
X126009523Y-85172833D02*
X125914285Y-85110928D01*
X125914285Y-85110928D02*
X125723809Y-85110928D01*
X125723809Y-85110928D02*
X125628571Y-85172833D01*
X125057142Y-85977595D02*
X125152380Y-85915690D01*
X125152380Y-85915690D02*
X125199999Y-85853785D01*
X125199999Y-85853785D02*
X125247618Y-85729976D01*
X125247618Y-85729976D02*
X125247618Y-85358547D01*
X125247618Y-85358547D02*
X125199999Y-85234738D01*
X125199999Y-85234738D02*
X125152380Y-85172833D01*
X125152380Y-85172833D02*
X125057142Y-85110928D01*
X125057142Y-85110928D02*
X124914285Y-85110928D01*
X124914285Y-85110928D02*
X124819047Y-85172833D01*
X124819047Y-85172833D02*
X124771428Y-85234738D01*
X124771428Y-85234738D02*
X124723809Y-85358547D01*
X124723809Y-85358547D02*
X124723809Y-85729976D01*
X124723809Y-85729976D02*
X124771428Y-85853785D01*
X124771428Y-85853785D02*
X124819047Y-85915690D01*
X124819047Y-85915690D02*
X124914285Y-85977595D01*
X124914285Y-85977595D02*
X125057142Y-85977595D01*
X124295237Y-85977595D02*
X124295237Y-85110928D01*
X124295237Y-85234738D02*
X124247618Y-85172833D01*
X124247618Y-85172833D02*
X124152380Y-85110928D01*
X124152380Y-85110928D02*
X124009523Y-85110928D01*
X124009523Y-85110928D02*
X123914285Y-85172833D01*
X123914285Y-85172833D02*
X123866666Y-85296642D01*
X123866666Y-85296642D02*
X123866666Y-85977595D01*
X123866666Y-85296642D02*
X123819047Y-85172833D01*
X123819047Y-85172833D02*
X123723809Y-85110928D01*
X123723809Y-85110928D02*
X123580952Y-85110928D01*
X123580952Y-85110928D02*
X123485713Y-85172833D01*
X123485713Y-85172833D02*
X123438094Y-85296642D01*
X123438094Y-85296642D02*
X123438094Y-85977595D01*
X122247619Y-84615690D02*
X123104761Y-86287119D01*
X121914285Y-85977595D02*
X121914285Y-84677595D01*
X121914285Y-84677595D02*
X121580952Y-85606166D01*
X121580952Y-85606166D02*
X121247619Y-84677595D01*
X121247619Y-84677595D02*
X121247619Y-85977595D01*
X120771428Y-85977595D02*
X120771428Y-85110928D01*
X120771428Y-85358547D02*
X120723809Y-85234738D01*
X120723809Y-85234738D02*
X120676190Y-85172833D01*
X120676190Y-85172833D02*
X120580952Y-85110928D01*
X120580952Y-85110928D02*
X120485714Y-85110928D01*
X120295237Y-84677595D02*
X119723809Y-84677595D01*
X120009523Y-85977595D02*
X120009523Y-84677595D01*
X119390475Y-85482357D02*
X118628571Y-85482357D01*
X118199999Y-85915690D02*
X118057142Y-85977595D01*
X118057142Y-85977595D02*
X117819047Y-85977595D01*
X117819047Y-85977595D02*
X117723809Y-85915690D01*
X117723809Y-85915690D02*
X117676190Y-85853785D01*
X117676190Y-85853785D02*
X117628571Y-85729976D01*
X117628571Y-85729976D02*
X117628571Y-85606166D01*
X117628571Y-85606166D02*
X117676190Y-85482357D01*
X117676190Y-85482357D02*
X117723809Y-85420452D01*
X117723809Y-85420452D02*
X117819047Y-85358547D01*
X117819047Y-85358547D02*
X118009523Y-85296642D01*
X118009523Y-85296642D02*
X118104761Y-85234738D01*
X118104761Y-85234738D02*
X118152380Y-85172833D01*
X118152380Y-85172833D02*
X118199999Y-85049023D01*
X118199999Y-85049023D02*
X118199999Y-84925214D01*
X118199999Y-84925214D02*
X118152380Y-84801404D01*
X118152380Y-84801404D02*
X118104761Y-84739500D01*
X118104761Y-84739500D02*
X118009523Y-84677595D01*
X118009523Y-84677595D02*
X117771428Y-84677595D01*
X117771428Y-84677595D02*
X117628571Y-84739500D01*
X117342856Y-85110928D02*
X116961904Y-85110928D01*
X117199999Y-84677595D02*
X117199999Y-85791880D01*
X117199999Y-85791880D02*
X117152380Y-85915690D01*
X117152380Y-85915690D02*
X117057142Y-85977595D01*
X117057142Y-85977595D02*
X116961904Y-85977595D01*
X116247618Y-85915690D02*
X116342856Y-85977595D01*
X116342856Y-85977595D02*
X116533332Y-85977595D01*
X116533332Y-85977595D02*
X116628570Y-85915690D01*
X116628570Y-85915690D02*
X116676189Y-85791880D01*
X116676189Y-85791880D02*
X116676189Y-85296642D01*
X116676189Y-85296642D02*
X116628570Y-85172833D01*
X116628570Y-85172833D02*
X116533332Y-85110928D01*
X116533332Y-85110928D02*
X116342856Y-85110928D01*
X116342856Y-85110928D02*
X116247618Y-85172833D01*
X116247618Y-85172833D02*
X116199999Y-85296642D01*
X116199999Y-85296642D02*
X116199999Y-85420452D01*
X116199999Y-85420452D02*
X116676189Y-85544261D01*
X115771427Y-85110928D02*
X115771427Y-86410928D01*
X115771427Y-85172833D02*
X115676189Y-85110928D01*
X115676189Y-85110928D02*
X115485713Y-85110928D01*
X115485713Y-85110928D02*
X115390475Y-85172833D01*
X115390475Y-85172833D02*
X115342856Y-85234738D01*
X115342856Y-85234738D02*
X115295237Y-85358547D01*
X115295237Y-85358547D02*
X115295237Y-85729976D01*
X115295237Y-85729976D02*
X115342856Y-85853785D01*
X115342856Y-85853785D02*
X115390475Y-85915690D01*
X115390475Y-85915690D02*
X115485713Y-85977595D01*
X115485713Y-85977595D02*
X115676189Y-85977595D01*
X115676189Y-85977595D02*
X115771427Y-85915690D01*
X114866665Y-85977595D02*
X114866665Y-84677595D01*
X114438094Y-85977595D02*
X114438094Y-85296642D01*
X114438094Y-85296642D02*
X114485713Y-85172833D01*
X114485713Y-85172833D02*
X114580951Y-85110928D01*
X114580951Y-85110928D02*
X114723808Y-85110928D01*
X114723808Y-85110928D02*
X114819046Y-85172833D01*
X114819046Y-85172833D02*
X114866665Y-85234738D01*
X113580951Y-85915690D02*
X113676189Y-85977595D01*
X113676189Y-85977595D02*
X113866665Y-85977595D01*
X113866665Y-85977595D02*
X113961903Y-85915690D01*
X113961903Y-85915690D02*
X114009522Y-85791880D01*
X114009522Y-85791880D02*
X114009522Y-85296642D01*
X114009522Y-85296642D02*
X113961903Y-85172833D01*
X113961903Y-85172833D02*
X113866665Y-85110928D01*
X113866665Y-85110928D02*
X113676189Y-85110928D01*
X113676189Y-85110928D02*
X113580951Y-85172833D01*
X113580951Y-85172833D02*
X113533332Y-85296642D01*
X113533332Y-85296642D02*
X113533332Y-85420452D01*
X113533332Y-85420452D02*
X114009522Y-85544261D01*
X113104760Y-85110928D02*
X113104760Y-85977595D01*
X113104760Y-85234738D02*
X113057141Y-85172833D01*
X113057141Y-85172833D02*
X112961903Y-85110928D01*
X112961903Y-85110928D02*
X112819046Y-85110928D01*
X112819046Y-85110928D02*
X112723808Y-85172833D01*
X112723808Y-85172833D02*
X112676189Y-85296642D01*
X112676189Y-85296642D02*
X112676189Y-85977595D01*
X112247617Y-85915690D02*
X112152379Y-85977595D01*
X112152379Y-85977595D02*
X111961903Y-85977595D01*
X111961903Y-85977595D02*
X111866665Y-85915690D01*
X111866665Y-85915690D02*
X111819046Y-85791880D01*
X111819046Y-85791880D02*
X111819046Y-85729976D01*
X111819046Y-85729976D02*
X111866665Y-85606166D01*
X111866665Y-85606166D02*
X111961903Y-85544261D01*
X111961903Y-85544261D02*
X112104760Y-85544261D01*
X112104760Y-85544261D02*
X112199998Y-85482357D01*
X112199998Y-85482357D02*
X112247617Y-85358547D01*
X112247617Y-85358547D02*
X112247617Y-85296642D01*
X112247617Y-85296642D02*
X112199998Y-85172833D01*
X112199998Y-85172833D02*
X112104760Y-85110928D01*
X112104760Y-85110928D02*
X111961903Y-85110928D01*
X111961903Y-85110928D02*
X111866665Y-85172833D01*
D10*
X115600000Y-80700000D02*
X133400000Y-80700000D01*
X133400000Y-80700000D02*
X133400000Y-78000000D01*
X133400000Y-78000000D02*
X115600000Y-78000000D01*
X115600000Y-78000000D02*
X115600000Y-80700000D01*
D12*
X132899998Y-78651071D02*
X132614284Y-80151071D01*
X132614284Y-80151071D02*
X132385712Y-79079642D01*
X132385712Y-79079642D02*
X132157141Y-80151071D01*
X132157141Y-80151071D02*
X131871427Y-78651071D01*
X130899998Y-80151071D02*
X130899998Y-79365357D01*
X130899998Y-79365357D02*
X130957140Y-79222500D01*
X130957140Y-79222500D02*
X131071426Y-79151071D01*
X131071426Y-79151071D02*
X131299998Y-79151071D01*
X131299998Y-79151071D02*
X131414283Y-79222500D01*
X130899998Y-80079642D02*
X131014283Y-80151071D01*
X131014283Y-80151071D02*
X131299998Y-80151071D01*
X131299998Y-80151071D02*
X131414283Y-80079642D01*
X131414283Y-80079642D02*
X131471426Y-79936785D01*
X131471426Y-79936785D02*
X131471426Y-79793928D01*
X131471426Y-79793928D02*
X131414283Y-79651071D01*
X131414283Y-79651071D02*
X131299998Y-79579642D01*
X131299998Y-79579642D02*
X131014283Y-79579642D01*
X131014283Y-79579642D02*
X130899998Y-79508214D01*
X130499998Y-79151071D02*
X130042855Y-79151071D01*
X130328569Y-78651071D02*
X130328569Y-79936785D01*
X130328569Y-79936785D02*
X130271426Y-80079642D01*
X130271426Y-80079642D02*
X130157141Y-80151071D01*
X130157141Y-80151071D02*
X130042855Y-80151071D01*
X129128570Y-80079642D02*
X129242855Y-80151071D01*
X129242855Y-80151071D02*
X129471427Y-80151071D01*
X129471427Y-80151071D02*
X129585712Y-80079642D01*
X129585712Y-80079642D02*
X129642855Y-80008214D01*
X129642855Y-80008214D02*
X129699998Y-79865357D01*
X129699998Y-79865357D02*
X129699998Y-79436785D01*
X129699998Y-79436785D02*
X129642855Y-79293928D01*
X129642855Y-79293928D02*
X129585712Y-79222500D01*
X129585712Y-79222500D02*
X129471427Y-79151071D01*
X129471427Y-79151071D02*
X129242855Y-79151071D01*
X129242855Y-79151071D02*
X129128570Y-79222500D01*
X128614284Y-80151071D02*
X128614284Y-78651071D01*
X128099999Y-80151071D02*
X128099999Y-79365357D01*
X128099999Y-79365357D02*
X128157141Y-79222500D01*
X128157141Y-79222500D02*
X128271427Y-79151071D01*
X128271427Y-79151071D02*
X128442856Y-79151071D01*
X128442856Y-79151071D02*
X128557141Y-79222500D01*
X128557141Y-79222500D02*
X128614284Y-79293928D01*
X127642856Y-79151071D02*
X127357142Y-80151071D01*
X127071427Y-79151071D02*
X127357142Y-80151071D01*
X127357142Y-80151071D02*
X127471427Y-80508214D01*
X127471427Y-80508214D02*
X127528570Y-80579642D01*
X127528570Y-80579642D02*
X127642856Y-80651071D01*
X126614284Y-79579642D02*
X125699999Y-79579642D01*
X125128570Y-79365357D02*
X124728570Y-79365357D01*
X124557142Y-80151071D02*
X125128570Y-80151071D01*
X125128570Y-80151071D02*
X125128570Y-78651071D01*
X125128570Y-78651071D02*
X124557142Y-78651071D01*
X124099999Y-80079642D02*
X123928571Y-80151071D01*
X123928571Y-80151071D02*
X123642856Y-80151071D01*
X123642856Y-80151071D02*
X123528571Y-80079642D01*
X123528571Y-80079642D02*
X123471428Y-80008214D01*
X123471428Y-80008214D02*
X123414285Y-79865357D01*
X123414285Y-79865357D02*
X123414285Y-79722500D01*
X123414285Y-79722500D02*
X123471428Y-79579642D01*
X123471428Y-79579642D02*
X123528571Y-79508214D01*
X123528571Y-79508214D02*
X123642856Y-79436785D01*
X123642856Y-79436785D02*
X123871428Y-79365357D01*
X123871428Y-79365357D02*
X123985713Y-79293928D01*
X123985713Y-79293928D02*
X124042856Y-79222500D01*
X124042856Y-79222500D02*
X124099999Y-79079642D01*
X124099999Y-79079642D02*
X124099999Y-78936785D01*
X124099999Y-78936785D02*
X124042856Y-78793928D01*
X124042856Y-78793928D02*
X123985713Y-78722500D01*
X123985713Y-78722500D02*
X123871428Y-78651071D01*
X123871428Y-78651071D02*
X123585713Y-78651071D01*
X123585713Y-78651071D02*
X123414285Y-78722500D01*
X122899999Y-80151071D02*
X122899999Y-78651071D01*
X122899999Y-78651071D02*
X122442856Y-78651071D01*
X122442856Y-78651071D02*
X122328571Y-78722500D01*
X122328571Y-78722500D02*
X122271428Y-78793928D01*
X122271428Y-78793928D02*
X122214285Y-78936785D01*
X122214285Y-78936785D02*
X122214285Y-79151071D01*
X122214285Y-79151071D02*
X122271428Y-79293928D01*
X122271428Y-79293928D02*
X122328571Y-79365357D01*
X122328571Y-79365357D02*
X122442856Y-79436785D01*
X122442856Y-79436785D02*
X122899999Y-79436785D01*
X121814285Y-78651071D02*
X121071428Y-78651071D01*
X121071428Y-78651071D02*
X121471428Y-79222500D01*
X121471428Y-79222500D02*
X121299999Y-79222500D01*
X121299999Y-79222500D02*
X121185714Y-79293928D01*
X121185714Y-79293928D02*
X121128571Y-79365357D01*
X121128571Y-79365357D02*
X121071428Y-79508214D01*
X121071428Y-79508214D02*
X121071428Y-79865357D01*
X121071428Y-79865357D02*
X121128571Y-80008214D01*
X121128571Y-80008214D02*
X121185714Y-80079642D01*
X121185714Y-80079642D02*
X121299999Y-80151071D01*
X121299999Y-80151071D02*
X121642856Y-80151071D01*
X121642856Y-80151071D02*
X121757142Y-80079642D01*
X121757142Y-80079642D02*
X121814285Y-80008214D01*
X120614285Y-78793928D02*
X120557142Y-78722500D01*
X120557142Y-78722500D02*
X120442857Y-78651071D01*
X120442857Y-78651071D02*
X120157142Y-78651071D01*
X120157142Y-78651071D02*
X120042857Y-78722500D01*
X120042857Y-78722500D02*
X119985714Y-78793928D01*
X119985714Y-78793928D02*
X119928571Y-78936785D01*
X119928571Y-78936785D02*
X119928571Y-79079642D01*
X119928571Y-79079642D02*
X119985714Y-79293928D01*
X119985714Y-79293928D02*
X120671428Y-80151071D01*
X120671428Y-80151071D02*
X119928571Y-80151071D01*
X119414285Y-79579642D02*
X118500000Y-79579642D01*
X117985714Y-80079642D02*
X117814286Y-80151071D01*
X117814286Y-80151071D02*
X117528571Y-80151071D01*
X117528571Y-80151071D02*
X117414286Y-80079642D01*
X117414286Y-80079642D02*
X117357143Y-80008214D01*
X117357143Y-80008214D02*
X117300000Y-79865357D01*
X117300000Y-79865357D02*
X117300000Y-79722500D01*
X117300000Y-79722500D02*
X117357143Y-79579642D01*
X117357143Y-79579642D02*
X117414286Y-79508214D01*
X117414286Y-79508214D02*
X117528571Y-79436785D01*
X117528571Y-79436785D02*
X117757143Y-79365357D01*
X117757143Y-79365357D02*
X117871428Y-79293928D01*
X117871428Y-79293928D02*
X117928571Y-79222500D01*
X117928571Y-79222500D02*
X117985714Y-79079642D01*
X117985714Y-79079642D02*
X117985714Y-78936785D01*
X117985714Y-78936785D02*
X117928571Y-78793928D01*
X117928571Y-78793928D02*
X117871428Y-78722500D01*
X117871428Y-78722500D02*
X117757143Y-78651071D01*
X117757143Y-78651071D02*
X117471428Y-78651071D01*
X117471428Y-78651071D02*
X117300000Y-78722500D01*
X116900000Y-78651071D02*
X116157143Y-78651071D01*
X116157143Y-78651071D02*
X116557143Y-79222500D01*
X116557143Y-79222500D02*
X116385714Y-79222500D01*
X116385714Y-79222500D02*
X116271429Y-79293928D01*
X116271429Y-79293928D02*
X116214286Y-79365357D01*
X116214286Y-79365357D02*
X116157143Y-79508214D01*
X116157143Y-79508214D02*
X116157143Y-79865357D01*
X116157143Y-79865357D02*
X116214286Y-80008214D01*
X116214286Y-80008214D02*
X116271429Y-80079642D01*
X116271429Y-80079642D02*
X116385714Y-80151071D01*
X116385714Y-80151071D02*
X116728571Y-80151071D01*
X116728571Y-80151071D02*
X116842857Y-80079642D01*
X116842857Y-80079642D02*
X116900000Y-80008214D01*
D10*
X116400000Y-83700000D02*
X132700000Y-83700000D01*
X132700000Y-83700000D02*
X132700000Y-81100000D01*
X132700000Y-81100000D02*
X116400000Y-81100000D01*
X116400000Y-81100000D02*
X116400000Y-83700000D01*
D12*
X131734284Y-82265357D02*
X131562856Y-82336785D01*
X131562856Y-82336785D02*
X131505713Y-82408214D01*
X131505713Y-82408214D02*
X131448570Y-82551071D01*
X131448570Y-82551071D02*
X131448570Y-82765357D01*
X131448570Y-82765357D02*
X131505713Y-82908214D01*
X131505713Y-82908214D02*
X131562856Y-82979642D01*
X131562856Y-82979642D02*
X131677141Y-83051071D01*
X131677141Y-83051071D02*
X132134284Y-83051071D01*
X132134284Y-83051071D02*
X132134284Y-81551071D01*
X132134284Y-81551071D02*
X131734284Y-81551071D01*
X131734284Y-81551071D02*
X131619999Y-81622500D01*
X131619999Y-81622500D02*
X131562856Y-81693928D01*
X131562856Y-81693928D02*
X131505713Y-81836785D01*
X131505713Y-81836785D02*
X131505713Y-81979642D01*
X131505713Y-81979642D02*
X131562856Y-82122500D01*
X131562856Y-82122500D02*
X131619999Y-82193928D01*
X131619999Y-82193928D02*
X131734284Y-82265357D01*
X131734284Y-82265357D02*
X132134284Y-82265357D01*
X131048570Y-82051071D02*
X130762856Y-83051071D01*
X130477141Y-82051071D02*
X130762856Y-83051071D01*
X130762856Y-83051071D02*
X130877141Y-83408214D01*
X130877141Y-83408214D02*
X130934284Y-83479642D01*
X130934284Y-83479642D02*
X131048570Y-83551071D01*
X130019998Y-82908214D02*
X129962855Y-82979642D01*
X129962855Y-82979642D02*
X130019998Y-83051071D01*
X130019998Y-83051071D02*
X130077141Y-82979642D01*
X130077141Y-82979642D02*
X130019998Y-82908214D01*
X130019998Y-82908214D02*
X130019998Y-83051071D01*
X130019998Y-82122500D02*
X129962855Y-82193928D01*
X129962855Y-82193928D02*
X130019998Y-82265357D01*
X130019998Y-82265357D02*
X130077141Y-82193928D01*
X130077141Y-82193928D02*
X130019998Y-82122500D01*
X130019998Y-82122500D02*
X130019998Y-82265357D01*
X128899998Y-81551071D02*
X128214284Y-81551071D01*
X128557141Y-83051071D02*
X128557141Y-81551071D01*
X127642855Y-83051071D02*
X127757140Y-82979642D01*
X127757140Y-82979642D02*
X127814283Y-82908214D01*
X127814283Y-82908214D02*
X127871426Y-82765357D01*
X127871426Y-82765357D02*
X127871426Y-82336785D01*
X127871426Y-82336785D02*
X127814283Y-82193928D01*
X127814283Y-82193928D02*
X127757140Y-82122500D01*
X127757140Y-82122500D02*
X127642855Y-82051071D01*
X127642855Y-82051071D02*
X127471426Y-82051071D01*
X127471426Y-82051071D02*
X127357140Y-82122500D01*
X127357140Y-82122500D02*
X127299998Y-82193928D01*
X127299998Y-82193928D02*
X127242855Y-82336785D01*
X127242855Y-82336785D02*
X127242855Y-82765357D01*
X127242855Y-82765357D02*
X127299998Y-82908214D01*
X127299998Y-82908214D02*
X127357140Y-82979642D01*
X127357140Y-82979642D02*
X127471426Y-83051071D01*
X127471426Y-83051071D02*
X127642855Y-83051071D01*
X126728569Y-83051071D02*
X126728569Y-82051071D01*
X126728569Y-82193928D02*
X126671426Y-82122500D01*
X126671426Y-82122500D02*
X126557141Y-82051071D01*
X126557141Y-82051071D02*
X126385712Y-82051071D01*
X126385712Y-82051071D02*
X126271426Y-82122500D01*
X126271426Y-82122500D02*
X126214284Y-82265357D01*
X126214284Y-82265357D02*
X126214284Y-83051071D01*
X126214284Y-82265357D02*
X126157141Y-82122500D01*
X126157141Y-82122500D02*
X126042855Y-82051071D01*
X126042855Y-82051071D02*
X125871426Y-82051071D01*
X125871426Y-82051071D02*
X125757141Y-82122500D01*
X125757141Y-82122500D02*
X125699998Y-82265357D01*
X125699998Y-82265357D02*
X125699998Y-83051071D01*
X124465712Y-82979642D02*
X124294284Y-83051071D01*
X124294284Y-83051071D02*
X124008569Y-83051071D01*
X124008569Y-83051071D02*
X123894284Y-82979642D01*
X123894284Y-82979642D02*
X123837141Y-82908214D01*
X123837141Y-82908214D02*
X123779998Y-82765357D01*
X123779998Y-82765357D02*
X123779998Y-82622500D01*
X123779998Y-82622500D02*
X123837141Y-82479642D01*
X123837141Y-82479642D02*
X123894284Y-82408214D01*
X123894284Y-82408214D02*
X124008569Y-82336785D01*
X124008569Y-82336785D02*
X124237141Y-82265357D01*
X124237141Y-82265357D02*
X124351426Y-82193928D01*
X124351426Y-82193928D02*
X124408569Y-82122500D01*
X124408569Y-82122500D02*
X124465712Y-81979642D01*
X124465712Y-81979642D02*
X124465712Y-81836785D01*
X124465712Y-81836785D02*
X124408569Y-81693928D01*
X124408569Y-81693928D02*
X124351426Y-81622500D01*
X124351426Y-81622500D02*
X124237141Y-81551071D01*
X124237141Y-81551071D02*
X123951426Y-81551071D01*
X123951426Y-81551071D02*
X123779998Y-81622500D01*
X123437141Y-82051071D02*
X122979998Y-82051071D01*
X123265712Y-81551071D02*
X123265712Y-82836785D01*
X123265712Y-82836785D02*
X123208569Y-82979642D01*
X123208569Y-82979642D02*
X123094284Y-83051071D01*
X123094284Y-83051071D02*
X122979998Y-83051071D01*
X122122855Y-82979642D02*
X122237141Y-83051071D01*
X122237141Y-83051071D02*
X122465713Y-83051071D01*
X122465713Y-83051071D02*
X122579998Y-82979642D01*
X122579998Y-82979642D02*
X122637141Y-82836785D01*
X122637141Y-82836785D02*
X122637141Y-82265357D01*
X122637141Y-82265357D02*
X122579998Y-82122500D01*
X122579998Y-82122500D02*
X122465713Y-82051071D01*
X122465713Y-82051071D02*
X122237141Y-82051071D01*
X122237141Y-82051071D02*
X122122855Y-82122500D01*
X122122855Y-82122500D02*
X122065713Y-82265357D01*
X122065713Y-82265357D02*
X122065713Y-82408214D01*
X122065713Y-82408214D02*
X122637141Y-82551071D01*
X121551427Y-82051071D02*
X121551427Y-83551071D01*
X121551427Y-82122500D02*
X121437142Y-82051071D01*
X121437142Y-82051071D02*
X121208570Y-82051071D01*
X121208570Y-82051071D02*
X121094284Y-82122500D01*
X121094284Y-82122500D02*
X121037142Y-82193928D01*
X121037142Y-82193928D02*
X120979999Y-82336785D01*
X120979999Y-82336785D02*
X120979999Y-82765357D01*
X120979999Y-82765357D02*
X121037142Y-82908214D01*
X121037142Y-82908214D02*
X121094284Y-82979642D01*
X121094284Y-82979642D02*
X121208570Y-83051071D01*
X121208570Y-83051071D02*
X121437142Y-83051071D01*
X121437142Y-83051071D02*
X121551427Y-82979642D01*
X120465713Y-83051071D02*
X120465713Y-81551071D01*
X119951428Y-83051071D02*
X119951428Y-82265357D01*
X119951428Y-82265357D02*
X120008570Y-82122500D01*
X120008570Y-82122500D02*
X120122856Y-82051071D01*
X120122856Y-82051071D02*
X120294285Y-82051071D01*
X120294285Y-82051071D02*
X120408570Y-82122500D01*
X120408570Y-82122500D02*
X120465713Y-82193928D01*
X118922856Y-82979642D02*
X119037142Y-83051071D01*
X119037142Y-83051071D02*
X119265714Y-83051071D01*
X119265714Y-83051071D02*
X119379999Y-82979642D01*
X119379999Y-82979642D02*
X119437142Y-82836785D01*
X119437142Y-82836785D02*
X119437142Y-82265357D01*
X119437142Y-82265357D02*
X119379999Y-82122500D01*
X119379999Y-82122500D02*
X119265714Y-82051071D01*
X119265714Y-82051071D02*
X119037142Y-82051071D01*
X119037142Y-82051071D02*
X118922856Y-82122500D01*
X118922856Y-82122500D02*
X118865714Y-82265357D01*
X118865714Y-82265357D02*
X118865714Y-82408214D01*
X118865714Y-82408214D02*
X119437142Y-82551071D01*
X118351428Y-82051071D02*
X118351428Y-83051071D01*
X118351428Y-82193928D02*
X118294285Y-82122500D01*
X118294285Y-82122500D02*
X118180000Y-82051071D01*
X118180000Y-82051071D02*
X118008571Y-82051071D01*
X118008571Y-82051071D02*
X117894285Y-82122500D01*
X117894285Y-82122500D02*
X117837143Y-82265357D01*
X117837143Y-82265357D02*
X117837143Y-83051071D01*
X117322857Y-82979642D02*
X117208571Y-83051071D01*
X117208571Y-83051071D02*
X116980000Y-83051071D01*
X116980000Y-83051071D02*
X116865714Y-82979642D01*
X116865714Y-82979642D02*
X116808571Y-82836785D01*
X116808571Y-82836785D02*
X116808571Y-82765357D01*
X116808571Y-82765357D02*
X116865714Y-82622500D01*
X116865714Y-82622500D02*
X116980000Y-82551071D01*
X116980000Y-82551071D02*
X117151429Y-82551071D01*
X117151429Y-82551071D02*
X117265714Y-82479642D01*
X117265714Y-82479642D02*
X117322857Y-82336785D01*
X117322857Y-82336785D02*
X117322857Y-82265357D01*
X117322857Y-82265357D02*
X117265714Y-82122500D01*
X117265714Y-82122500D02*
X117151429Y-82051071D01*
X117151429Y-82051071D02*
X116980000Y-82051071D01*
X116980000Y-82051071D02*
X116865714Y-82122500D01*
D13*
X132657142Y-87434761D02*
X131990476Y-89434761D01*
X131990476Y-89434761D02*
X131323809Y-87434761D01*
X129895237Y-89339523D02*
X130085713Y-89434761D01*
X130085713Y-89434761D02*
X130466666Y-89434761D01*
X130466666Y-89434761D02*
X130657142Y-89339523D01*
X130657142Y-89339523D02*
X130752380Y-89149047D01*
X130752380Y-89149047D02*
X130752380Y-88387142D01*
X130752380Y-88387142D02*
X130657142Y-88196666D01*
X130657142Y-88196666D02*
X130466666Y-88101428D01*
X130466666Y-88101428D02*
X130085713Y-88101428D01*
X130085713Y-88101428D02*
X129895237Y-88196666D01*
X129895237Y-88196666D02*
X129799999Y-88387142D01*
X129799999Y-88387142D02*
X129799999Y-88577619D01*
X129799999Y-88577619D02*
X130752380Y-88768095D01*
X128942856Y-89434761D02*
X128942856Y-88101428D01*
X128942856Y-88482380D02*
X128847618Y-88291904D01*
X128847618Y-88291904D02*
X128752380Y-88196666D01*
X128752380Y-88196666D02*
X128561904Y-88101428D01*
X128561904Y-88101428D02*
X128371427Y-88101428D01*
X127799999Y-89339523D02*
X127609523Y-89434761D01*
X127609523Y-89434761D02*
X127228571Y-89434761D01*
X127228571Y-89434761D02*
X127038094Y-89339523D01*
X127038094Y-89339523D02*
X126942856Y-89149047D01*
X126942856Y-89149047D02*
X126942856Y-89053809D01*
X126942856Y-89053809D02*
X127038094Y-88863333D01*
X127038094Y-88863333D02*
X127228571Y-88768095D01*
X127228571Y-88768095D02*
X127514285Y-88768095D01*
X127514285Y-88768095D02*
X127704761Y-88672857D01*
X127704761Y-88672857D02*
X127799999Y-88482380D01*
X127799999Y-88482380D02*
X127799999Y-88387142D01*
X127799999Y-88387142D02*
X127704761Y-88196666D01*
X127704761Y-88196666D02*
X127514285Y-88101428D01*
X127514285Y-88101428D02*
X127228571Y-88101428D01*
X127228571Y-88101428D02*
X127038094Y-88196666D01*
X126085713Y-89434761D02*
X126085713Y-88101428D01*
X126085713Y-87434761D02*
X126180951Y-87530000D01*
X126180951Y-87530000D02*
X126085713Y-87625238D01*
X126085713Y-87625238D02*
X125990475Y-87530000D01*
X125990475Y-87530000D02*
X126085713Y-87434761D01*
X126085713Y-87434761D02*
X126085713Y-87625238D01*
X124847618Y-89434761D02*
X125038094Y-89339523D01*
X125038094Y-89339523D02*
X125133332Y-89244285D01*
X125133332Y-89244285D02*
X125228570Y-89053809D01*
X125228570Y-89053809D02*
X125228570Y-88482380D01*
X125228570Y-88482380D02*
X125133332Y-88291904D01*
X125133332Y-88291904D02*
X125038094Y-88196666D01*
X125038094Y-88196666D02*
X124847618Y-88101428D01*
X124847618Y-88101428D02*
X124561903Y-88101428D01*
X124561903Y-88101428D02*
X124371427Y-88196666D01*
X124371427Y-88196666D02*
X124276189Y-88291904D01*
X124276189Y-88291904D02*
X124180951Y-88482380D01*
X124180951Y-88482380D02*
X124180951Y-89053809D01*
X124180951Y-89053809D02*
X124276189Y-89244285D01*
X124276189Y-89244285D02*
X124371427Y-89339523D01*
X124371427Y-89339523D02*
X124561903Y-89434761D01*
X124561903Y-89434761D02*
X124847618Y-89434761D01*
X123323808Y-88101428D02*
X123323808Y-89434761D01*
X123323808Y-88291904D02*
X123228570Y-88196666D01*
X123228570Y-88196666D02*
X123038094Y-88101428D01*
X123038094Y-88101428D02*
X122752379Y-88101428D01*
X122752379Y-88101428D02*
X122561903Y-88196666D01*
X122561903Y-88196666D02*
X122466665Y-88387142D01*
X122466665Y-88387142D02*
X122466665Y-89434761D01*
X121514284Y-88672857D02*
X119990475Y-88672857D01*
X117990475Y-89434761D02*
X119133332Y-89434761D01*
X118561904Y-89434761D02*
X118561904Y-87434761D01*
X118561904Y-87434761D02*
X118752380Y-87720476D01*
X118752380Y-87720476D02*
X118942856Y-87910952D01*
X118942856Y-87910952D02*
X119133332Y-88006190D01*
X117133332Y-89244285D02*
X117038094Y-89339523D01*
X117038094Y-89339523D02*
X117133332Y-89434761D01*
X117133332Y-89434761D02*
X117228570Y-89339523D01*
X117228570Y-89339523D02*
X117133332Y-89244285D01*
X117133332Y-89244285D02*
X117133332Y-89434761D01*
X116276189Y-87625238D02*
X116180951Y-87530000D01*
X116180951Y-87530000D02*
X115990475Y-87434761D01*
X115990475Y-87434761D02*
X115514284Y-87434761D01*
X115514284Y-87434761D02*
X115323808Y-87530000D01*
X115323808Y-87530000D02*
X115228570Y-87625238D01*
X115228570Y-87625238D02*
X115133332Y-87815714D01*
X115133332Y-87815714D02*
X115133332Y-88006190D01*
X115133332Y-88006190D02*
X115228570Y-88291904D01*
X115228570Y-88291904D02*
X116371427Y-89434761D01*
X116371427Y-89434761D02*
X115133332Y-89434761D01*
M02*
