%TF.GenerationSoftware,KiCad,Pcbnew,(6.99.0-1793-ga56955443f)*%
%TF.CreationDate,2022-12-11T18:47:06+00:00*%
%TF.ProjectId,Watchy-MrT-ESP32-S3-V1,57617463-6879-42d4-9d72-542d45535033,rev?*%
%TF.SameCoordinates,Original*%
%TF.FileFunction,Copper,L2,Inr*%
%TF.FilePolarity,Positive*%
%FSLAX46Y46*%
G04 Gerber Fmt 4.6, Leading zero omitted, Abs format (unit mm)*
G04 Created by KiCad (PCBNEW (6.99.0-1793-ga56955443f)) date 2022-12-11 18:47:06*
%MOMM*%
%LPD*%
G01*
G04 APERTURE LIST*
%TA.AperFunction,ViaPad*%
%ADD10C,0.450000*%
%TD*%
%TA.AperFunction,ViaPad*%
%ADD11C,0.600000*%
%TD*%
G04 APERTURE END LIST*
D10*
%TO.N,GND*%
X142900000Y-66500000D03*
X141200000Y-67300000D03*
X136300000Y-61900000D03*
X135400000Y-61600000D03*
X126400000Y-84500000D03*
X116200000Y-81000000D03*
X139300000Y-91200000D03*
X140100000Y-91200000D03*
X140900000Y-91200000D03*
X141700000Y-91200000D03*
X142600000Y-91200000D03*
X142600000Y-92800000D03*
X141700000Y-92800000D03*
X140900000Y-92800000D03*
X140000000Y-92800000D03*
X139100000Y-92800000D03*
X138200000Y-92800000D03*
X137300000Y-92800000D03*
X136400000Y-92800000D03*
X135500000Y-92800000D03*
X136000000Y-69000000D03*
X140600000Y-55600000D03*
X141200000Y-55600000D03*
X114000000Y-72200000D03*
X113600000Y-72900000D03*
X114400000Y-72900000D03*
X115200000Y-70900000D03*
X116800000Y-71000000D03*
%TO.N,VCC*%
X116900000Y-83400000D03*
X117100000Y-79400000D03*
X115000000Y-67300000D03*
%TO.N,I2C_SDA*%
X127600000Y-86000000D03*
%TO.N,I2C_SCL*%
X129400000Y-86000000D03*
%TO.N,GND*%
X114000000Y-91100000D03*
X114000000Y-92000000D03*
X111300000Y-90700000D03*
X113800000Y-92800000D03*
X113000000Y-92800000D03*
X112200000Y-92800000D03*
X111400000Y-92800000D03*
X110700000Y-83000000D03*
X111600000Y-83400000D03*
X111600000Y-84100000D03*
X111500000Y-84700000D03*
X110800000Y-84700000D03*
X110100000Y-84700000D03*
D11*
X116000000Y-64200000D03*
X117300000Y-64200000D03*
X114000000Y-87000000D03*
X123000000Y-85000000D03*
X125000000Y-85000000D03*
X124000000Y-85000000D03*
X124000000Y-86000000D03*
X136000000Y-89000000D03*
X143000000Y-92000000D03*
X142000000Y-92000000D03*
X141000000Y-92000000D03*
X140000000Y-92000000D03*
X119000000Y-90000000D03*
X119000000Y-89000000D03*
X119000000Y-88000000D03*
X120000000Y-88000000D03*
X120000000Y-89000000D03*
X120000000Y-90000000D03*
X121000000Y-90000000D03*
X121000000Y-89000000D03*
X121000000Y-88000000D03*
X122000000Y-88000000D03*
X122000000Y-89000000D03*
X122000000Y-90000000D03*
X123000000Y-90000000D03*
X123000000Y-89000000D03*
X123000000Y-88000000D03*
X124000000Y-88000000D03*
X124000000Y-89000000D03*
X124000000Y-90000000D03*
X126000000Y-90000000D03*
X125000000Y-88000000D03*
X125000000Y-89000000D03*
X125000000Y-90000000D03*
X126000000Y-89000000D03*
X126000000Y-88000000D03*
X127000000Y-88000000D03*
X127000000Y-89000000D03*
X127000000Y-90000000D03*
X128000000Y-90000000D03*
X128000000Y-89000000D03*
X128000000Y-88000000D03*
X129000000Y-88000000D03*
X129000000Y-89000000D03*
X129000000Y-90000000D03*
X130000000Y-90000000D03*
X130000000Y-89000000D03*
X130000000Y-88000000D03*
X131000000Y-88000000D03*
X131000000Y-89000000D03*
X131000000Y-90000000D03*
X133000000Y-90000000D03*
X132000000Y-88000000D03*
X132000000Y-89000000D03*
X132000000Y-90000000D03*
X133000000Y-89000000D03*
X133000000Y-88000000D03*
X134000000Y-88000000D03*
X134000000Y-89000000D03*
X134000000Y-90000000D03*
X134000000Y-91000000D03*
X133000000Y-91000000D03*
X132000000Y-91000000D03*
X131000000Y-91000000D03*
X130000000Y-91000000D03*
X129000000Y-91000000D03*
X128000000Y-91000000D03*
X127000000Y-91000000D03*
X126000000Y-91000000D03*
X125000000Y-91000000D03*
X124000000Y-91000000D03*
X123000000Y-91000000D03*
X122000000Y-91000000D03*
X121000000Y-91000000D03*
X120000000Y-91000000D03*
X119000000Y-91000000D03*
X118000000Y-91000000D03*
X113000000Y-92000000D03*
X113000000Y-91000000D03*
X113000000Y-90000000D03*
X113000000Y-89000000D03*
X114000000Y-89000000D03*
X114000000Y-90000000D03*
X115000000Y-90000000D03*
X116000000Y-90000000D03*
X117000000Y-90000000D03*
X118000000Y-90000000D03*
X118000000Y-89000000D03*
X117000000Y-89000000D03*
X116000000Y-89000000D03*
X115000000Y-89000000D03*
X115000000Y-88000000D03*
X116000000Y-88000000D03*
X117000000Y-88000000D03*
X118000000Y-88000000D03*
X120000000Y-87000000D03*
X119000000Y-87000000D03*
X118000000Y-87000000D03*
X118000000Y-85000000D03*
X118000000Y-86000000D03*
X119000000Y-86000000D03*
X120000000Y-86000000D03*
X121000000Y-86000000D03*
X121000000Y-87000000D03*
X122000000Y-87000000D03*
X123000000Y-87000000D03*
X124000000Y-87000000D03*
X125000000Y-87000000D03*
X126000000Y-87000000D03*
X127000000Y-87000000D03*
X128000000Y-87000000D03*
X129000000Y-87000000D03*
X130000000Y-87000000D03*
X131000000Y-87000000D03*
X131000000Y-86000000D03*
X132000000Y-86000000D03*
X132000000Y-87000000D03*
X133000000Y-87000000D03*
X133000000Y-86000000D03*
X134000000Y-86000000D03*
X134000000Y-87000000D03*
X135000000Y-87000000D03*
X135000000Y-88000000D03*
X135000000Y-89000000D03*
X135000000Y-90000000D03*
X135000000Y-91000000D03*
X136000000Y-92000000D03*
X135000000Y-92000000D03*
X134000000Y-92000000D03*
X133000000Y-92000000D03*
X132000000Y-92000000D03*
X131000000Y-92000000D03*
X130000000Y-92000000D03*
X129000000Y-92000000D03*
X128000000Y-92000000D03*
X127000000Y-92000000D03*
X126000000Y-92000000D03*
X125000000Y-92000000D03*
X124000000Y-92000000D03*
X123000000Y-92000000D03*
X122000000Y-92000000D03*
X121000000Y-92000000D03*
X120000000Y-92000000D03*
X119000000Y-92000000D03*
X118000000Y-92000000D03*
X114000000Y-79000000D03*
X114000000Y-78000000D03*
X114000000Y-76000000D03*
X115000000Y-66000000D03*
X114000000Y-66000000D03*
X114000000Y-67000000D03*
X113000000Y-67000000D03*
X113000000Y-66000000D03*
X113000000Y-65000000D03*
X113000000Y-64000000D03*
X110000000Y-68000000D03*
X115000000Y-69000000D03*
X114000000Y-68000000D03*
X114000000Y-69000000D03*
X114000000Y-70000000D03*
X112000000Y-70000000D03*
X111000000Y-70000000D03*
X110000000Y-70000000D03*
X110000000Y-69000000D03*
X111000000Y-69000000D03*
X112000000Y-69000000D03*
X113000000Y-68000000D03*
X113000000Y-69000000D03*
X113000000Y-70000000D03*
X113000000Y-71000000D03*
X110000000Y-71000000D03*
X111000000Y-71000000D03*
X112000000Y-71000000D03*
X112000000Y-72000000D03*
X111000000Y-72000000D03*
X110000000Y-72000000D03*
X110000000Y-73000000D03*
X111000000Y-73000000D03*
X111000000Y-74000000D03*
X110000000Y-74000000D03*
X110000000Y-75000000D03*
X111000000Y-75000000D03*
X112000000Y-75000000D03*
X112000000Y-76000000D03*
X111000000Y-76000000D03*
X110000000Y-76000000D03*
X110000000Y-77000000D03*
X111000000Y-77000000D03*
X112000000Y-77000000D03*
X112000000Y-78000000D03*
X111000000Y-78000000D03*
X110000000Y-78000000D03*
X110000000Y-79000000D03*
X111000000Y-79000000D03*
X112000000Y-79000000D03*
X112000000Y-80000000D03*
X111000000Y-80000000D03*
X110000000Y-80000000D03*
X117100000Y-75300000D03*
X115200000Y-80400000D03*
X116100000Y-79800000D03*
X117100000Y-78300000D03*
X117100000Y-77300000D03*
X136200000Y-72800000D03*
X136800000Y-75200000D03*
X132100000Y-75200000D03*
X133100000Y-75200000D03*
X128800000Y-74200000D03*
X128800000Y-75200000D03*
X127900000Y-75200000D03*
X129800000Y-75200000D03*
X135400000Y-81300000D03*
X135100000Y-83000000D03*
X135100000Y-84000000D03*
X134200000Y-84000000D03*
X134200000Y-83000000D03*
X133300000Y-83000000D03*
X133300000Y-84000000D03*
X132300000Y-84000000D03*
X132300000Y-83000000D03*
X131300000Y-81000000D03*
X131300000Y-82000000D03*
X131300000Y-83000000D03*
X131300000Y-84000000D03*
X130300000Y-84000000D03*
X130300000Y-83000000D03*
X130300000Y-82000000D03*
X130300000Y-81000000D03*
X130300000Y-80000000D03*
X137200000Y-82400000D03*
X139300000Y-83600000D03*
X140400000Y-83600000D03*
X141400000Y-83600000D03*
X138400000Y-77600000D03*
X138400000Y-76400000D03*
X138400000Y-75300000D03*
X138000000Y-73900000D03*
X137300000Y-72900000D03*
X138600000Y-72900000D03*
D10*
X134500000Y-67600000D03*
X126500000Y-71200000D03*
D11*
X130700000Y-70900000D03*
X131600000Y-71100000D03*
X132600000Y-69000000D03*
X139300000Y-65100000D03*
X138300000Y-65100000D03*
X137400000Y-65100000D03*
X135100000Y-64500000D03*
X135100000Y-63400000D03*
X135100000Y-65600000D03*
X138700000Y-62000000D03*
X137600000Y-62000000D03*
X137600000Y-60800000D03*
X136500000Y-59600000D03*
X137600000Y-59600000D03*
X138700000Y-59600000D03*
X132300000Y-58800000D03*
X132300000Y-59600000D03*
X133100000Y-59600000D03*
D10*
X138000000Y-55600000D03*
X142800000Y-57200000D03*
%TO.N,+3V3*%
X125300000Y-68300000D03*
%TO.N,GND*%
X136000000Y-68400000D03*
%TO.N,Net-(D1-K)*%
X133000000Y-74100000D03*
X136200000Y-78500000D03*
%TO.N,+3V3*%
X142700000Y-82700000D03*
X138100000Y-86800000D03*
X135200000Y-75700000D03*
X124700000Y-77300000D03*
%TO.N,BAT_ADC*%
X110300000Y-88200000D03*
%TO.N,+BATT*%
X133700000Y-65600000D03*
X128800000Y-72500000D03*
%TO.N,VBUS*%
X115300000Y-71900000D03*
X115300000Y-76700000D03*
%TO.N,+BATT*%
X112800000Y-87300000D03*
X116100000Y-82500000D03*
X110900000Y-85700000D03*
%TO.N,VBUS*%
X112300000Y-84700000D03*
X110100000Y-81300000D03*
X113900000Y-82300000D03*
%TO.N,BTN3*%
X137500000Y-87300000D03*
%TO.N,BTN2*%
X133000000Y-73300000D03*
%TO.N,BTN3*%
X133300000Y-71000000D03*
%TO.N,BTN2*%
X132600000Y-71000000D03*
%TO.N,RTC_INT*%
X132524502Y-71800000D03*
X130400000Y-71800000D03*
%TO.N,GND*%
X126100000Y-62600000D03*
X126600000Y-63100000D03*
X126600000Y-62600000D03*
%TO.N,I2C_SCL*%
X141900000Y-56500000D03*
%TO.N,I2C_SDA*%
X142900000Y-56500000D03*
%TO.N,+3V3*%
X131300000Y-61500000D03*
X132500000Y-61500000D03*
X138100000Y-57000000D03*
X134100000Y-57700000D03*
X134500000Y-59700000D03*
%TO.N,GND*%
X138800000Y-66900000D03*
%TO.N,/MCU_Sheet/PREVGH*%
X131600000Y-73700000D03*
%TO.N,/MCU_Sheet/RESE*%
X138200000Y-81400000D03*
%TO.N,/MCU_Sheet/GDR*%
X135200000Y-78100000D03*
%TO.N,/MCU_Sheet/RESE*%
X132100000Y-80400000D03*
%TO.N,/MCU_Sheet/GDR*%
X132100000Y-79700000D03*
%TO.N,I2C_SDA*%
X137700000Y-67700000D03*
%TO.N,BTN1*%
X135700000Y-67000500D03*
%TO.N,GND*%
X119200000Y-62600000D03*
X119700000Y-62100000D03*
%TO.N,RTC_INT*%
X132803200Y-65603200D03*
%TO.N,VIB_PWM*%
X131100000Y-65600000D03*
%TO.N,BAT_ADC*%
X118908281Y-63882865D03*
%TO.N,I2C_SCL*%
X130600000Y-66300000D03*
%TO.N,I2C_SDA*%
X130600000Y-67000000D03*
%TO.N,BTN2*%
X131506409Y-67506409D03*
%TO.N,BTN3*%
X132500000Y-67500000D03*
%TO.N,BMP_INT*%
X127200000Y-70000000D03*
%TO.N,RTC_INT*%
X120400000Y-63400000D03*
%TO.N,ACCEL_INT2*%
X120500000Y-65100000D03*
%TO.N,ACCEL_INT1*%
X121200000Y-65100000D03*
%TO.N,VIB_PWM*%
X121100000Y-63400000D03*
%TO.N,I2C_SCL*%
X121800000Y-63400000D03*
%TO.N,I2C_SDA*%
X121900000Y-65100000D03*
%TO.N,BTN3*%
X122600000Y-65100000D03*
%TO.N,BTN1*%
X123300000Y-65100000D03*
%TO.N,BTN2*%
X124100000Y-65100000D03*
%TO.N,I2C_SDA*%
X138200000Y-69450981D03*
%TO.N,+3V3*%
X139400000Y-66200000D03*
X142700000Y-67300000D03*
%TO.N,MAG_DRDY*%
X141900000Y-67300000D03*
%TO.N,+3V3*%
X140600000Y-64700000D03*
%TO.N,MAG_INT*%
X140300000Y-66200000D03*
%TO.N,I2C_SCL*%
X141900000Y-64700000D03*
%TO.N,+3V3*%
X142700000Y-64700000D03*
%TO.N,I2C_SDA*%
X142900000Y-65500000D03*
%TO.N,GND*%
X142900000Y-70600000D03*
%TO.N,BMP_INT*%
X141200000Y-70600000D03*
D11*
%TO.N,GND*%
X121600000Y-76600000D03*
D10*
X117200000Y-61600000D03*
X116200000Y-62100000D03*
X123200000Y-61600000D03*
D11*
X123900000Y-66600000D03*
X121600000Y-75200000D03*
D10*
X115700000Y-61100000D03*
X118700000Y-61600000D03*
X116200000Y-63100000D03*
D11*
X122300000Y-76600000D03*
D10*
X114700000Y-61100000D03*
D11*
X120900000Y-76600000D03*
D10*
X120700000Y-61100000D03*
D11*
X123200000Y-66600000D03*
D10*
X121200000Y-61100000D03*
X114700000Y-62600000D03*
X117200000Y-61100000D03*
X127100000Y-61600000D03*
X127100000Y-61100000D03*
X119200000Y-62100000D03*
X126600000Y-61100000D03*
X127100000Y-62100000D03*
X129100000Y-61100000D03*
X116200000Y-61100000D03*
X119200000Y-61600000D03*
D11*
X123000000Y-75900000D03*
X123700000Y-74500000D03*
D10*
X117700000Y-63100000D03*
X116700000Y-62600000D03*
X128600000Y-61600000D03*
X117700000Y-61600000D03*
D11*
X123700000Y-76600000D03*
D10*
X110200000Y-61600000D03*
X121700000Y-61100000D03*
X114200000Y-61600000D03*
X128100000Y-61100000D03*
D11*
X121600000Y-73800000D03*
X123900000Y-67300000D03*
D10*
X123700000Y-61100000D03*
X115700000Y-63100000D03*
D11*
X122500000Y-66600000D03*
D10*
X114200000Y-62100000D03*
X110100000Y-62100000D03*
D11*
X121800000Y-68700000D03*
X122300000Y-73100000D03*
D10*
X129100000Y-61600000D03*
D11*
X121600000Y-74500000D03*
D10*
X110700000Y-62100000D03*
D11*
X124600000Y-68700000D03*
X123200000Y-68700000D03*
D10*
X118200000Y-61100000D03*
D11*
X122300000Y-73800000D03*
X121100000Y-65900000D03*
D10*
X122700000Y-61100000D03*
D11*
X122500000Y-65900000D03*
D10*
X130100000Y-61600000D03*
X118700000Y-62600000D03*
X130600000Y-61100000D03*
X118200000Y-62100000D03*
D11*
X122300000Y-74500000D03*
X123700000Y-73800000D03*
D10*
X130100000Y-61100000D03*
X116200000Y-61600000D03*
X113700000Y-62100000D03*
X117200000Y-62100000D03*
X113700000Y-61100000D03*
X126100000Y-62100000D03*
D11*
X122500000Y-68000000D03*
D10*
X111700000Y-61100000D03*
X119700000Y-61600000D03*
X110200000Y-61100000D03*
X114700000Y-63100000D03*
D11*
X121600000Y-73100000D03*
D10*
X129700000Y-63000000D03*
D11*
X122300000Y-75900000D03*
D10*
X119700000Y-61100000D03*
X129000000Y-79700000D03*
X112200000Y-61100000D03*
X123200000Y-61100000D03*
X116200000Y-62600000D03*
X115700000Y-61600000D03*
D11*
X123900000Y-68000000D03*
D10*
X124200000Y-61600000D03*
D11*
X123700000Y-75200000D03*
D10*
X125500000Y-72500000D03*
X110700000Y-62600000D03*
X127400000Y-65200000D03*
X115200000Y-62100000D03*
X113200000Y-62100000D03*
X129600000Y-61600000D03*
X124200000Y-61100000D03*
X126100000Y-61100000D03*
X118200000Y-62600000D03*
X122200000Y-61100000D03*
D11*
X121600000Y-75900000D03*
D10*
X117200000Y-63100000D03*
X116700000Y-62100000D03*
D11*
X124600000Y-67300000D03*
X121800000Y-68000000D03*
X121100000Y-68000000D03*
D10*
X124700000Y-61600000D03*
D11*
X121800000Y-65900000D03*
X123200000Y-68000000D03*
D10*
X118200000Y-61600000D03*
D11*
X122500000Y-67300000D03*
D10*
X111200000Y-61100000D03*
X115700000Y-62600000D03*
X126100000Y-61600000D03*
X115200000Y-62600000D03*
D11*
X123900000Y-68700000D03*
D10*
X117700000Y-62100000D03*
X120200000Y-61600000D03*
D11*
X123700000Y-75900000D03*
D10*
X114700000Y-61600000D03*
D11*
X121100000Y-67300000D03*
D10*
X112710000Y-61600000D03*
X110700000Y-61600000D03*
X127600000Y-62100000D03*
X117700000Y-62600000D03*
X140500000Y-68099500D03*
X128900000Y-65200000D03*
X117200000Y-62600000D03*
X118200000Y-63100000D03*
X119200000Y-61100000D03*
X128100000Y-61600000D03*
X124700000Y-61100000D03*
X115200000Y-61100000D03*
D11*
X122300000Y-75200000D03*
D10*
X127900000Y-65200000D03*
X126600000Y-62100000D03*
X114700000Y-62100000D03*
X115700000Y-62100000D03*
D11*
X121800000Y-67300000D03*
D10*
X113700000Y-61600000D03*
D11*
X124600000Y-68000000D03*
D10*
X110700000Y-61100000D03*
X118700000Y-61100000D03*
X112700000Y-61100000D03*
D11*
X123700000Y-73100000D03*
X121100000Y-66600000D03*
D10*
X127600000Y-61100000D03*
X128400000Y-65200000D03*
X128600000Y-61100000D03*
D11*
X123000000Y-73800000D03*
X123000000Y-74500000D03*
D10*
X116700000Y-61100000D03*
D11*
X123200000Y-67300000D03*
D10*
X113200000Y-61600000D03*
D11*
X123000000Y-75200000D03*
D10*
X126600000Y-61600000D03*
X127600000Y-61600000D03*
X118700000Y-62100000D03*
X129600000Y-61100000D03*
X123700000Y-61600000D03*
X116700000Y-63100000D03*
D11*
X121100000Y-68700000D03*
D10*
X115200000Y-61600000D03*
X116700000Y-61600000D03*
X114200000Y-61100000D03*
X113200000Y-61100000D03*
X115200000Y-63100000D03*
D11*
X123000000Y-76600000D03*
X122500000Y-68700000D03*
D10*
X120200000Y-61100000D03*
D11*
X123000000Y-73100000D03*
D10*
X117700000Y-61100000D03*
D11*
X121800000Y-66600000D03*
D10*
%TO.N,/MCU_Sheet/SPICLK_P*%
X126600000Y-71900000D03*
X123200000Y-70300000D03*
%TO.N,VDD_SPI*%
X119700000Y-76600000D03*
X128300000Y-70800000D03*
%TO.N,+3V3*%
X116500000Y-67900000D03*
X116600000Y-70000000D03*
X117000000Y-65200000D03*
X114000000Y-65200000D03*
X129700000Y-63800000D03*
X127300000Y-63500000D03*
X120300000Y-67400000D03*
%TO.N,/MCU_Sheet/PREVGH*%
X129400000Y-76800000D03*
X120400000Y-81700000D03*
%TO.N,Net-(J1-Pin_18)*%
X132400000Y-76800000D03*
X120400000Y-83100000D03*
%TO.N,Net-(J1-Pin_20)*%
X130900000Y-76800000D03*
X120400000Y-82400000D03*
%TO.N,Net-(J1-Pin_22)*%
X120400000Y-81000000D03*
X127900000Y-76800000D03*
%TO.N,Net-(J1-Pin_24)*%
X126400000Y-76800000D03*
X120400000Y-79600000D03*
%TO.N,/MCU_Sheet/PREVGL*%
X126900000Y-73700000D03*
X120400000Y-80300000D03*
%TO.N,/MCU_Sheet/SPICS0*%
X123200000Y-72000000D03*
X121300000Y-70300000D03*
%TO.N,/MCU_Sheet/SPID*%
X122400000Y-72000000D03*
X119800000Y-72900000D03*
%TO.N,/MCU_Sheet/SPIWP*%
X124900000Y-74100000D03*
X120896800Y-72003200D03*
%TO.N,/MCU_Sheet/SPIQ*%
X124900000Y-75300000D03*
X122000000Y-70300000D03*
%TO.N,/MCU_Sheet/SPICLK*%
X119800000Y-74000000D03*
X121600000Y-72000000D03*
%TO.N,/MCU_Sheet/SPIHD*%
X120300000Y-70300000D03*
X119800000Y-75300000D03*
%TO.N,I2C_SCL*%
X131300000Y-62900000D03*
X139900000Y-69600000D03*
X128800000Y-63000000D03*
X139900000Y-68500000D03*
%TO.N,I2C_SDA*%
X132600000Y-62900000D03*
X127300000Y-62800000D03*
%TO.N,D_BUSY*%
X129000000Y-80400000D03*
X120300000Y-66600000D03*
%TO.N,D_RES*%
X118616000Y-68300000D03*
X129000000Y-81100000D03*
%TO.N,D_DC*%
X129000000Y-81800000D03*
X118525732Y-66997604D03*
%TO.N,D_MOSI*%
X120300000Y-65800000D03*
X129000000Y-83900000D03*
%TO.N,D_SCK*%
X118584073Y-65809077D03*
X129000000Y-83200000D03*
%TO.N,D_SS*%
X129000000Y-82500000D03*
X118800000Y-64900000D03*
%TO.N,MAG_INT*%
X120300000Y-68900000D03*
%TO.N,MAG_DRDY*%
X120300000Y-69600000D03*
%TO.N,ACCEL_INT1*%
X128400000Y-64300000D03*
%TO.N,ACCEL_INT2*%
X129100000Y-64300000D03*
%TO.N,USB_N*%
X117529808Y-73993517D03*
X112924320Y-73286401D03*
%TO.N,USB_P*%
X117070188Y-74453137D03*
X112464700Y-73746021D03*
%TD*%
%TA.AperFunction,Conductor*%
%TO.N,GND*%
G36*
X143291121Y-55311002D02*
G01*
X143337614Y-55364658D01*
X143349000Y-55417000D01*
X143349000Y-56048343D01*
X143328998Y-56116464D01*
X143275342Y-56162957D01*
X143205068Y-56173061D01*
X143154136Y-56152388D01*
X143153220Y-56151472D01*
X143144389Y-56146972D01*
X143144387Y-56146971D01*
X143084513Y-56116464D01*
X143033126Y-56090281D01*
X143023337Y-56088731D01*
X143023335Y-56088730D01*
X142909793Y-56070747D01*
X142900000Y-56069196D01*
X142890207Y-56070747D01*
X142776665Y-56088730D01*
X142776663Y-56088731D01*
X142766874Y-56090281D01*
X142646780Y-56151472D01*
X142551472Y-56246780D01*
X142546972Y-56255612D01*
X142512267Y-56323724D01*
X142463519Y-56375339D01*
X142394604Y-56392405D01*
X142327402Y-56369504D01*
X142287733Y-56323724D01*
X142253028Y-56255612D01*
X142248528Y-56246780D01*
X142153220Y-56151472D01*
X142033126Y-56090281D01*
X142023337Y-56088731D01*
X142023335Y-56088730D01*
X141909793Y-56070747D01*
X141900000Y-56069196D01*
X141890207Y-56070747D01*
X141776665Y-56088730D01*
X141776663Y-56088731D01*
X141766874Y-56090281D01*
X141646780Y-56151472D01*
X141551472Y-56246780D01*
X141490281Y-56366874D01*
X141469196Y-56500000D01*
X141470747Y-56509793D01*
X141480156Y-56569196D01*
X141490281Y-56633126D01*
X141551472Y-56753220D01*
X141646780Y-56848528D01*
X141766874Y-56909719D01*
X141776663Y-56911269D01*
X141776665Y-56911270D01*
X141890207Y-56929253D01*
X141900000Y-56930804D01*
X141909793Y-56929253D01*
X142023335Y-56911270D01*
X142023337Y-56911269D01*
X142033126Y-56909719D01*
X142153220Y-56848528D01*
X142248528Y-56753220D01*
X142287733Y-56676276D01*
X142336481Y-56624661D01*
X142405396Y-56607595D01*
X142472598Y-56630496D01*
X142512267Y-56676276D01*
X142551472Y-56753220D01*
X142646780Y-56848528D01*
X142766874Y-56909719D01*
X142776663Y-56911269D01*
X142776665Y-56911270D01*
X142890207Y-56929253D01*
X142900000Y-56930804D01*
X142909793Y-56929253D01*
X143023335Y-56911270D01*
X143023337Y-56911269D01*
X143033126Y-56909719D01*
X143134550Y-56858041D01*
X143144387Y-56853029D01*
X143144389Y-56853028D01*
X143153220Y-56848528D01*
X143153739Y-56848009D01*
X143215805Y-56825863D01*
X143284957Y-56841942D01*
X143334438Y-56892855D01*
X143349000Y-56951657D01*
X143349000Y-57563000D01*
X143328998Y-57631121D01*
X143275342Y-57677614D01*
X143223000Y-57689000D01*
X139150198Y-57689000D01*
X139150000Y-57688918D01*
X139149802Y-57689000D01*
X139149235Y-57689235D01*
X139148918Y-57690000D01*
X139149000Y-57690198D01*
X139149000Y-60345919D01*
X139128998Y-60414040D01*
X139075342Y-60460533D01*
X139005068Y-60470637D01*
X138989006Y-60467247D01*
X138965042Y-60460533D01*
X138925665Y-60449500D01*
X138812342Y-60449500D01*
X138758650Y-60456880D01*
X138708626Y-60463755D01*
X138708623Y-60463756D01*
X138700080Y-60464930D01*
X138646961Y-60488003D01*
X138569187Y-60521785D01*
X138569184Y-60521787D01*
X138561280Y-60525220D01*
X138554596Y-60530658D01*
X138554594Y-60530659D01*
X138513024Y-60564479D01*
X138443892Y-60620722D01*
X138356623Y-60744353D01*
X138353739Y-60752469D01*
X138353737Y-60752472D01*
X138312173Y-60869422D01*
X138305946Y-60886944D01*
X138295619Y-61037921D01*
X138297371Y-61046351D01*
X138297371Y-61046354D01*
X138318280Y-61146972D01*
X138326408Y-61186085D01*
X138396029Y-61320447D01*
X138499320Y-61431044D01*
X138554813Y-61464790D01*
X138621255Y-61505195D01*
X138621258Y-61505196D01*
X138628618Y-61509672D01*
X138774335Y-61550500D01*
X138887658Y-61550500D01*
X138999920Y-61535070D01*
X139000192Y-61537049D01*
X139059988Y-61537787D01*
X139119236Y-61576905D01*
X139147929Y-61641845D01*
X139149000Y-61658236D01*
X139149000Y-64289802D01*
X139148918Y-64290000D01*
X139149000Y-64290198D01*
X139149235Y-64290765D01*
X139150000Y-64291082D01*
X139150198Y-64291000D01*
X139724000Y-64291000D01*
X139792121Y-64311002D01*
X139838614Y-64364658D01*
X139850000Y-64417000D01*
X139850000Y-65749070D01*
X139829998Y-65817191D01*
X139776342Y-65863684D01*
X139706068Y-65873788D01*
X139654677Y-65852929D01*
X139653220Y-65851472D01*
X139533126Y-65790281D01*
X139523337Y-65788731D01*
X139523335Y-65788730D01*
X139409793Y-65770747D01*
X139400000Y-65769196D01*
X139390207Y-65770747D01*
X139276665Y-65788730D01*
X139276663Y-65788731D01*
X139266874Y-65790281D01*
X139146780Y-65851472D01*
X139051472Y-65946780D01*
X138990281Y-66066874D01*
X138969196Y-66200000D01*
X138970747Y-66209793D01*
X138975513Y-66239881D01*
X138990281Y-66333126D01*
X139051472Y-66453220D01*
X139146780Y-66548528D01*
X139266874Y-66609719D01*
X139276663Y-66611269D01*
X139276665Y-66611270D01*
X139390207Y-66629253D01*
X139400000Y-66630804D01*
X139409793Y-66629253D01*
X139523335Y-66611270D01*
X139523337Y-66611269D01*
X139533126Y-66609719D01*
X139653220Y-66548528D01*
X139654315Y-66547433D01*
X139716802Y-66525136D01*
X139785954Y-66541214D01*
X139835436Y-66592126D01*
X139850000Y-66650930D01*
X139850000Y-67650000D01*
X141619418Y-67650000D01*
X141676622Y-67663733D01*
X141766874Y-67709719D01*
X141776663Y-67711269D01*
X141776665Y-67711270D01*
X141890207Y-67729253D01*
X141900000Y-67730804D01*
X141909793Y-67729253D01*
X142023335Y-67711270D01*
X142023337Y-67711269D01*
X142033126Y-67709719D01*
X142123378Y-67663733D01*
X142180582Y-67650000D01*
X142419418Y-67650000D01*
X142476622Y-67663733D01*
X142566874Y-67709719D01*
X142576663Y-67711269D01*
X142576665Y-67711270D01*
X142690207Y-67729253D01*
X142700000Y-67730804D01*
X142709793Y-67729253D01*
X142823335Y-67711270D01*
X142823337Y-67711269D01*
X142833126Y-67709719D01*
X142923378Y-67663733D01*
X142980582Y-67650000D01*
X143223000Y-67650000D01*
X143291121Y-67670002D01*
X143337614Y-67723658D01*
X143349000Y-67776000D01*
X143349000Y-70843000D01*
X143328998Y-70911121D01*
X143275342Y-70957614D01*
X143223000Y-70969000D01*
X141695149Y-70969000D01*
X141627028Y-70948998D01*
X141580535Y-70895342D01*
X141570431Y-70825068D01*
X141582882Y-70785798D01*
X141605217Y-70741962D01*
X141605217Y-70741961D01*
X141609719Y-70733126D01*
X141613427Y-70709719D01*
X141629253Y-70609793D01*
X141630804Y-70600000D01*
X141621996Y-70544388D01*
X141611270Y-70476665D01*
X141611269Y-70476663D01*
X141609719Y-70466874D01*
X141548528Y-70346780D01*
X141453220Y-70251472D01*
X141333126Y-70190281D01*
X141323337Y-70188731D01*
X141323335Y-70188730D01*
X141209793Y-70170747D01*
X141200000Y-70169196D01*
X141190207Y-70170747D01*
X141076665Y-70188730D01*
X141076663Y-70188731D01*
X141066874Y-70190281D01*
X140946780Y-70251472D01*
X140851472Y-70346780D01*
X140790281Y-70466874D01*
X140788731Y-70476663D01*
X140788730Y-70476665D01*
X140778004Y-70544388D01*
X140769196Y-70600000D01*
X140770747Y-70609793D01*
X140786574Y-70709719D01*
X140790281Y-70733126D01*
X140794783Y-70741961D01*
X140794783Y-70741962D01*
X140817118Y-70785798D01*
X140830222Y-70855574D01*
X140803522Y-70921359D01*
X140745494Y-70962265D01*
X140704851Y-70969000D01*
X139150198Y-70969000D01*
X139150000Y-70968918D01*
X139149802Y-70969000D01*
X139149235Y-70969235D01*
X139148918Y-70970000D01*
X139149000Y-70970198D01*
X139149000Y-73620919D01*
X139128998Y-73689040D01*
X139075342Y-73735533D01*
X139005068Y-73745637D01*
X138989006Y-73742247D01*
X138965042Y-73735533D01*
X138925665Y-73724500D01*
X138812342Y-73724500D01*
X138758650Y-73731880D01*
X138708626Y-73738755D01*
X138708623Y-73738756D01*
X138700080Y-73739930D01*
X138678902Y-73749129D01*
X138569187Y-73796785D01*
X138569184Y-73796787D01*
X138561280Y-73800220D01*
X138554596Y-73805658D01*
X138554594Y-73805659D01*
X138532868Y-73823335D01*
X138443892Y-73895722D01*
X138356623Y-74019353D01*
X138353739Y-74027469D01*
X138353737Y-74027472D01*
X138308832Y-74153823D01*
X138305946Y-74161944D01*
X138295619Y-74312921D01*
X138297371Y-74321351D01*
X138297371Y-74321354D01*
X138324655Y-74452651D01*
X138326408Y-74461085D01*
X138396029Y-74595447D01*
X138499320Y-74706044D01*
X138554813Y-74739790D01*
X138621255Y-74780195D01*
X138621258Y-74780196D01*
X138628618Y-74784672D01*
X138774335Y-74825500D01*
X138887658Y-74825500D01*
X138999920Y-74810070D01*
X139000192Y-74812049D01*
X139059988Y-74812787D01*
X139119236Y-74851905D01*
X139147929Y-74916845D01*
X139149000Y-74933236D01*
X139149000Y-77474000D01*
X139128998Y-77542121D01*
X139075342Y-77588614D01*
X139023000Y-77600000D01*
X138800000Y-77600000D01*
X138800000Y-81115493D01*
X138779998Y-81183614D01*
X138726342Y-81230107D01*
X138656068Y-81240211D01*
X138591488Y-81210717D01*
X138561733Y-81172696D01*
X138558766Y-81166874D01*
X138548528Y-81146780D01*
X138453220Y-81051472D01*
X138333126Y-80990281D01*
X138323337Y-80988731D01*
X138323335Y-80988730D01*
X138209793Y-80970747D01*
X138200000Y-80969196D01*
X138190207Y-80970747D01*
X138076665Y-80988730D01*
X138076663Y-80988731D01*
X138066874Y-80990281D01*
X137946780Y-81051472D01*
X137851472Y-81146780D01*
X137790281Y-81266874D01*
X137769196Y-81400000D01*
X137790281Y-81533126D01*
X137851472Y-81653220D01*
X137946780Y-81748528D01*
X138066874Y-81809719D01*
X138076663Y-81811269D01*
X138076665Y-81811270D01*
X138190207Y-81829253D01*
X138200000Y-81830804D01*
X138209793Y-81829253D01*
X138323335Y-81811270D01*
X138323337Y-81811269D01*
X138333126Y-81809719D01*
X138453220Y-81748528D01*
X138548528Y-81653220D01*
X138561733Y-81627304D01*
X138610482Y-81575689D01*
X138679397Y-81558623D01*
X138746598Y-81581524D01*
X138790750Y-81637122D01*
X138800000Y-81684507D01*
X138800000Y-82100000D01*
X142415493Y-82100000D01*
X142483614Y-82120002D01*
X142530107Y-82173658D01*
X142540211Y-82243932D01*
X142510717Y-82308512D01*
X142472696Y-82338267D01*
X142446780Y-82351472D01*
X142351472Y-82446780D01*
X142290281Y-82566874D01*
X142288731Y-82576663D01*
X142288730Y-82576665D01*
X142276605Y-82653220D01*
X142269196Y-82700000D01*
X142270747Y-82709793D01*
X142288712Y-82823217D01*
X142290281Y-82833126D01*
X142351472Y-82953220D01*
X142446780Y-83048528D01*
X142566874Y-83109719D01*
X142576663Y-83111269D01*
X142576665Y-83111270D01*
X142690207Y-83129253D01*
X142700000Y-83130804D01*
X142709793Y-83129253D01*
X142823335Y-83111270D01*
X142823337Y-83111269D01*
X142833126Y-83109719D01*
X142953220Y-83048528D01*
X143048528Y-82953220D01*
X143109719Y-82833126D01*
X143112541Y-82834564D01*
X143143238Y-82789668D01*
X143208634Y-82762030D01*
X143278591Y-82774135D01*
X143330899Y-82822140D01*
X143349000Y-82887208D01*
X143349000Y-84123000D01*
X143328998Y-84191121D01*
X143275342Y-84237614D01*
X143223000Y-84249000D01*
X139150198Y-84249000D01*
X139150000Y-84248918D01*
X139149802Y-84249000D01*
X139149235Y-84249235D01*
X139148918Y-84250000D01*
X139149000Y-84250198D01*
X139149000Y-86895919D01*
X139128998Y-86964040D01*
X139075342Y-87010533D01*
X139005068Y-87020637D01*
X138989006Y-87017247D01*
X138965042Y-87010533D01*
X138925665Y-86999500D01*
X138812342Y-86999500D01*
X138758650Y-87006880D01*
X138708626Y-87013755D01*
X138708623Y-87013756D01*
X138700080Y-87014930D01*
X138692169Y-87018366D01*
X138683876Y-87020690D01*
X138683516Y-87019406D01*
X138621852Y-87027103D01*
X138557831Y-86996413D01*
X138520566Y-86935983D01*
X138517653Y-86883030D01*
X138519599Y-86870747D01*
X138530804Y-86800000D01*
X138509719Y-86666874D01*
X138448528Y-86546780D01*
X138353220Y-86451472D01*
X138233126Y-86390281D01*
X138223337Y-86388731D01*
X138223335Y-86388730D01*
X138109793Y-86370747D01*
X138100000Y-86369196D01*
X138090207Y-86370747D01*
X137976665Y-86388730D01*
X137976663Y-86388731D01*
X137966874Y-86390281D01*
X137846780Y-86451472D01*
X137751472Y-86546780D01*
X137690281Y-86666874D01*
X137688730Y-86676665D01*
X137688730Y-86676666D01*
X137674075Y-86769195D01*
X137643663Y-86833349D01*
X137583395Y-86870876D01*
X137529916Y-86873934D01*
X137509794Y-86870747D01*
X137509793Y-86870747D01*
X137500000Y-86869196D01*
X137490207Y-86870747D01*
X137376665Y-86888730D01*
X137376663Y-86888731D01*
X137366874Y-86890281D01*
X137246780Y-86951472D01*
X137151472Y-87046780D01*
X137090281Y-87166874D01*
X137088731Y-87176663D01*
X137088730Y-87176665D01*
X137074478Y-87266651D01*
X137069196Y-87300000D01*
X137070747Y-87309793D01*
X137082463Y-87383762D01*
X137090281Y-87433126D01*
X137151472Y-87553220D01*
X137246780Y-87648528D01*
X137366874Y-87709719D01*
X137376663Y-87711269D01*
X137376665Y-87711270D01*
X137490207Y-87729253D01*
X137500000Y-87730804D01*
X137509793Y-87729253D01*
X137623335Y-87711270D01*
X137623337Y-87711269D01*
X137633126Y-87709719D01*
X137753220Y-87648528D01*
X137848528Y-87553220D01*
X137909719Y-87433126D01*
X137917538Y-87383762D01*
X137925925Y-87330805D01*
X137956337Y-87266651D01*
X138016605Y-87229124D01*
X138070084Y-87226066D01*
X138090206Y-87229253D01*
X138090207Y-87229253D01*
X138100000Y-87230804D01*
X138109793Y-87229253D01*
X138186411Y-87217118D01*
X138256823Y-87226218D01*
X138311137Y-87271940D01*
X138332109Y-87339768D01*
X138324847Y-87383762D01*
X138310783Y-87423335D01*
X138305946Y-87436944D01*
X138295619Y-87587921D01*
X138297371Y-87596351D01*
X138297371Y-87596354D01*
X138320929Y-87709719D01*
X138326408Y-87736085D01*
X138396029Y-87870447D01*
X138499320Y-87981044D01*
X138554813Y-88014790D01*
X138621255Y-88055195D01*
X138621258Y-88055196D01*
X138628618Y-88059672D01*
X138774335Y-88100500D01*
X138887658Y-88100500D01*
X138999920Y-88085070D01*
X139000192Y-88087049D01*
X139059988Y-88087787D01*
X139119236Y-88126905D01*
X139147929Y-88191845D01*
X139149000Y-88208236D01*
X139149000Y-90849802D01*
X139148918Y-90850000D01*
X139149000Y-90850198D01*
X139149235Y-90850765D01*
X139150000Y-90851082D01*
X139150198Y-90851000D01*
X143223000Y-90851000D01*
X143291121Y-90871002D01*
X143337614Y-90924658D01*
X143349000Y-90977000D01*
X143349000Y-93123000D01*
X143328998Y-93191121D01*
X143275342Y-93237614D01*
X143223000Y-93249000D01*
X135407079Y-93249000D01*
X135392972Y-93248208D01*
X135384202Y-93247220D01*
X135348456Y-93243192D01*
X135346121Y-93242906D01*
X135305918Y-93237614D01*
X135296784Y-93236411D01*
X135271618Y-93230420D01*
X135228774Y-93215428D01*
X135222190Y-93212915D01*
X135212809Y-93209030D01*
X135180706Y-93195731D01*
X135161894Y-93186012D01*
X135157858Y-93183476D01*
X135122785Y-93161438D01*
X135113154Y-93154739D01*
X135078136Y-93127869D01*
X135065756Y-93117011D01*
X135032989Y-93084244D01*
X135022131Y-93071864D01*
X134995261Y-93036846D01*
X134988562Y-93027215D01*
X134963988Y-92988106D01*
X134954269Y-92969294D01*
X134937088Y-92927818D01*
X134934567Y-92921213D01*
X134919581Y-92878386D01*
X134913588Y-92853215D01*
X134907096Y-92803900D01*
X134906810Y-92801562D01*
X134901719Y-92756376D01*
X134901018Y-92750156D01*
X134901082Y-92750000D01*
X134901000Y-92749802D01*
X134901000Y-92749000D01*
X118899000Y-92749000D01*
X118899000Y-92749802D01*
X118898918Y-92750000D01*
X118898982Y-92750156D01*
X118897175Y-92766193D01*
X118893190Y-92801562D01*
X118892904Y-92803900D01*
X118886412Y-92853215D01*
X118880419Y-92878386D01*
X118865433Y-92921213D01*
X118862912Y-92927818D01*
X118845731Y-92969294D01*
X118836012Y-92988106D01*
X118811438Y-93027215D01*
X118804739Y-93036846D01*
X118777869Y-93071864D01*
X118767011Y-93084244D01*
X118734244Y-93117011D01*
X118721864Y-93127869D01*
X118686846Y-93154739D01*
X118677215Y-93161438D01*
X118642142Y-93183476D01*
X118638106Y-93186012D01*
X118619294Y-93195731D01*
X118587191Y-93209030D01*
X118577810Y-93212915D01*
X118571226Y-93215428D01*
X118528382Y-93230420D01*
X118503216Y-93236411D01*
X118494082Y-93237614D01*
X118453879Y-93242906D01*
X118451544Y-93243192D01*
X118415798Y-93247220D01*
X118407028Y-93248208D01*
X118392921Y-93249000D01*
X109677000Y-93249000D01*
X109608879Y-93228998D01*
X109562386Y-93175342D01*
X109551000Y-93123000D01*
X109551000Y-88200000D01*
X109869196Y-88200000D01*
X109890281Y-88333126D01*
X109951472Y-88453220D01*
X110046780Y-88548528D01*
X110166874Y-88609719D01*
X110176663Y-88611269D01*
X110176665Y-88611270D01*
X110290207Y-88629253D01*
X110300000Y-88630804D01*
X110309793Y-88629253D01*
X110423335Y-88611270D01*
X110423337Y-88611269D01*
X110433126Y-88609719D01*
X110553220Y-88548528D01*
X110648528Y-88453220D01*
X110709719Y-88333126D01*
X110730804Y-88200000D01*
X110714952Y-88099913D01*
X110711270Y-88076665D01*
X110711269Y-88076663D01*
X110709719Y-88066874D01*
X110648528Y-87946780D01*
X110553220Y-87851472D01*
X110433126Y-87790281D01*
X110423337Y-87788731D01*
X110423335Y-87788730D01*
X110309793Y-87770747D01*
X110300000Y-87769196D01*
X110290207Y-87770747D01*
X110176665Y-87788730D01*
X110176663Y-87788731D01*
X110166874Y-87790281D01*
X110046780Y-87851472D01*
X109951472Y-87946780D01*
X109890281Y-88066874D01*
X109888731Y-88076663D01*
X109888730Y-88076665D01*
X109885048Y-88099913D01*
X109869196Y-88200000D01*
X109551000Y-88200000D01*
X109551000Y-87300000D01*
X112369196Y-87300000D01*
X112370747Y-87309793D01*
X112382463Y-87383762D01*
X112390281Y-87433126D01*
X112451472Y-87553220D01*
X112546780Y-87648528D01*
X112666874Y-87709719D01*
X112676663Y-87711269D01*
X112676665Y-87711270D01*
X112790207Y-87729253D01*
X112800000Y-87730804D01*
X112809793Y-87729253D01*
X112923335Y-87711270D01*
X112923337Y-87711269D01*
X112933126Y-87709719D01*
X113053220Y-87648528D01*
X113113827Y-87587921D01*
X135695619Y-87587921D01*
X135697371Y-87596351D01*
X135697371Y-87596354D01*
X135720929Y-87709719D01*
X135726408Y-87736085D01*
X135796029Y-87870447D01*
X135899320Y-87981044D01*
X135954813Y-88014790D01*
X136021255Y-88055195D01*
X136021258Y-88055196D01*
X136028618Y-88059672D01*
X136174335Y-88100500D01*
X136287658Y-88100500D01*
X136341350Y-88093120D01*
X136391374Y-88086245D01*
X136391377Y-88086244D01*
X136399920Y-88085070D01*
X136462146Y-88058041D01*
X136530813Y-88028215D01*
X136530816Y-88028213D01*
X136538720Y-88024780D01*
X136545404Y-88019342D01*
X136545406Y-88019341D01*
X136634595Y-87946780D01*
X136656108Y-87929278D01*
X136743377Y-87805647D01*
X136747239Y-87794782D01*
X136791168Y-87671177D01*
X136791168Y-87671176D01*
X136794054Y-87663056D01*
X136804381Y-87512079D01*
X136787975Y-87433126D01*
X136775345Y-87372349D01*
X136775344Y-87372346D01*
X136773592Y-87363915D01*
X136703971Y-87229553D01*
X136637183Y-87158041D01*
X136606563Y-87125255D01*
X136600680Y-87118956D01*
X136523111Y-87071785D01*
X136478745Y-87044805D01*
X136478742Y-87044804D01*
X136471382Y-87040328D01*
X136325665Y-86999500D01*
X136212342Y-86999500D01*
X136158650Y-87006880D01*
X136108626Y-87013755D01*
X136108623Y-87013756D01*
X136100080Y-87014930D01*
X136046961Y-87038003D01*
X135969187Y-87071785D01*
X135969184Y-87071787D01*
X135961280Y-87075220D01*
X135954596Y-87080658D01*
X135954594Y-87080659D01*
X135913024Y-87114479D01*
X135843892Y-87170722D01*
X135756623Y-87294353D01*
X135753739Y-87302469D01*
X135753737Y-87302472D01*
X135708832Y-87428823D01*
X135705946Y-87436944D01*
X135695619Y-87587921D01*
X113113827Y-87587921D01*
X113148528Y-87553220D01*
X113209719Y-87433126D01*
X113217538Y-87383762D01*
X113229253Y-87309793D01*
X113230804Y-87300000D01*
X113225522Y-87266651D01*
X113211270Y-87176665D01*
X113211269Y-87176663D01*
X113209719Y-87166874D01*
X113148528Y-87046780D01*
X113053220Y-86951472D01*
X112933126Y-86890281D01*
X112923337Y-86888731D01*
X112923335Y-86888730D01*
X112809793Y-86870747D01*
X112800000Y-86869196D01*
X112790207Y-86870747D01*
X112676665Y-86888730D01*
X112676663Y-86888731D01*
X112666874Y-86890281D01*
X112546780Y-86951472D01*
X112451472Y-87046780D01*
X112390281Y-87166874D01*
X112388731Y-87176663D01*
X112388730Y-87176665D01*
X112374478Y-87266651D01*
X112369196Y-87300000D01*
X109551000Y-87300000D01*
X109551000Y-85700000D01*
X110469196Y-85700000D01*
X110490281Y-85833126D01*
X110551472Y-85953220D01*
X110646780Y-86048528D01*
X110766874Y-86109719D01*
X110776663Y-86111269D01*
X110776665Y-86111270D01*
X110890207Y-86129253D01*
X110900000Y-86130804D01*
X110909793Y-86129253D01*
X111023335Y-86111270D01*
X111023337Y-86111269D01*
X111033126Y-86109719D01*
X111153220Y-86048528D01*
X111201748Y-86000000D01*
X127169196Y-86000000D01*
X127170747Y-86009793D01*
X127186574Y-86109719D01*
X127190281Y-86133126D01*
X127251472Y-86253220D01*
X127346780Y-86348528D01*
X127466874Y-86409719D01*
X127476663Y-86411269D01*
X127476665Y-86411270D01*
X127590207Y-86429253D01*
X127600000Y-86430804D01*
X127609793Y-86429253D01*
X127723335Y-86411270D01*
X127723337Y-86411269D01*
X127733126Y-86409719D01*
X127853220Y-86348528D01*
X127948528Y-86253220D01*
X128009719Y-86133126D01*
X128013427Y-86109719D01*
X128029253Y-86009793D01*
X128030804Y-86000000D01*
X128969196Y-86000000D01*
X128970747Y-86009793D01*
X128986574Y-86109719D01*
X128990281Y-86133126D01*
X129051472Y-86253220D01*
X129146780Y-86348528D01*
X129266874Y-86409719D01*
X129276663Y-86411269D01*
X129276665Y-86411270D01*
X129390207Y-86429253D01*
X129400000Y-86430804D01*
X129409793Y-86429253D01*
X129523335Y-86411270D01*
X129523337Y-86411269D01*
X129533126Y-86409719D01*
X129653220Y-86348528D01*
X129748528Y-86253220D01*
X129809719Y-86133126D01*
X129813427Y-86109719D01*
X129829253Y-86009793D01*
X129830804Y-86000000D01*
X129809719Y-85866874D01*
X129748528Y-85746780D01*
X129653220Y-85651472D01*
X129533126Y-85590281D01*
X129523337Y-85588731D01*
X129523335Y-85588730D01*
X129409793Y-85570747D01*
X129400000Y-85569196D01*
X129390207Y-85570747D01*
X129276665Y-85588730D01*
X129276663Y-85588731D01*
X129266874Y-85590281D01*
X129146780Y-85651472D01*
X129051472Y-85746780D01*
X128990281Y-85866874D01*
X128969196Y-86000000D01*
X128030804Y-86000000D01*
X128009719Y-85866874D01*
X127948528Y-85746780D01*
X127853220Y-85651472D01*
X127733126Y-85590281D01*
X127723337Y-85588731D01*
X127723335Y-85588730D01*
X127609793Y-85570747D01*
X127600000Y-85569196D01*
X127590207Y-85570747D01*
X127476665Y-85588730D01*
X127476663Y-85588731D01*
X127466874Y-85590281D01*
X127346780Y-85651472D01*
X127251472Y-85746780D01*
X127190281Y-85866874D01*
X127169196Y-86000000D01*
X111201748Y-86000000D01*
X111248528Y-85953220D01*
X111309719Y-85833126D01*
X111330804Y-85700000D01*
X111314139Y-85594782D01*
X111311270Y-85576665D01*
X111311269Y-85576663D01*
X111309719Y-85566874D01*
X111248528Y-85446780D01*
X111153220Y-85351472D01*
X111033126Y-85290281D01*
X111023337Y-85288731D01*
X111023335Y-85288730D01*
X110909793Y-85270747D01*
X110900000Y-85269196D01*
X110890207Y-85270747D01*
X110776665Y-85288730D01*
X110776663Y-85288731D01*
X110766874Y-85290281D01*
X110646780Y-85351472D01*
X110551472Y-85446780D01*
X110490281Y-85566874D01*
X110488731Y-85576663D01*
X110488730Y-85576665D01*
X110485861Y-85594782D01*
X110469196Y-85700000D01*
X109551000Y-85700000D01*
X109551000Y-84700000D01*
X111869196Y-84700000D01*
X111890281Y-84833126D01*
X111951472Y-84953220D01*
X112046780Y-85048528D01*
X112166874Y-85109719D01*
X112176663Y-85111269D01*
X112176665Y-85111270D01*
X112290207Y-85129253D01*
X112300000Y-85130804D01*
X112309793Y-85129253D01*
X112423335Y-85111270D01*
X112423337Y-85111269D01*
X112433126Y-85109719D01*
X112553220Y-85048528D01*
X112648528Y-84953220D01*
X112709719Y-84833126D01*
X112730804Y-84700000D01*
X112709719Y-84566874D01*
X112648528Y-84446780D01*
X112553220Y-84351472D01*
X112433126Y-84290281D01*
X112423337Y-84288731D01*
X112423335Y-84288730D01*
X112309793Y-84270747D01*
X112300000Y-84269196D01*
X112290207Y-84270747D01*
X112176665Y-84288730D01*
X112176663Y-84288731D01*
X112166874Y-84290281D01*
X112046780Y-84351472D01*
X111951472Y-84446780D01*
X111890281Y-84566874D01*
X111869196Y-84700000D01*
X109551000Y-84700000D01*
X109551000Y-83900000D01*
X128569196Y-83900000D01*
X128590281Y-84033126D01*
X128651472Y-84153220D01*
X128746780Y-84248528D01*
X128866874Y-84309719D01*
X128876663Y-84311269D01*
X128876665Y-84311270D01*
X128990207Y-84329253D01*
X129000000Y-84330804D01*
X129009793Y-84329253D01*
X129123335Y-84311270D01*
X129123337Y-84311269D01*
X129133126Y-84309719D01*
X129253220Y-84248528D01*
X129348528Y-84153220D01*
X129409719Y-84033126D01*
X129430804Y-83900000D01*
X129429253Y-83890207D01*
X129411270Y-83776665D01*
X129411269Y-83776663D01*
X129409719Y-83766874D01*
X129348528Y-83646780D01*
X129340843Y-83639095D01*
X129340286Y-83638075D01*
X129335689Y-83631748D01*
X129336507Y-83631154D01*
X129306817Y-83576783D01*
X129311882Y-83505968D01*
X129335984Y-83468466D01*
X129335689Y-83468252D01*
X129339432Y-83463100D01*
X129340843Y-83460905D01*
X129348528Y-83453220D01*
X129409719Y-83333126D01*
X129430804Y-83200000D01*
X129422375Y-83146780D01*
X129411270Y-83076665D01*
X129411269Y-83076663D01*
X129409719Y-83066874D01*
X129348528Y-82946780D01*
X129340843Y-82939095D01*
X129340286Y-82938075D01*
X129335689Y-82931748D01*
X129336507Y-82931154D01*
X129306817Y-82876783D01*
X129311882Y-82805968D01*
X129335984Y-82768466D01*
X129335689Y-82768252D01*
X129339432Y-82763100D01*
X129340843Y-82760905D01*
X129348528Y-82753220D01*
X129409719Y-82633126D01*
X129421265Y-82560231D01*
X129429253Y-82509793D01*
X129430804Y-82500000D01*
X129421611Y-82441959D01*
X129411270Y-82376665D01*
X129411269Y-82376663D01*
X129409719Y-82366874D01*
X129348528Y-82246780D01*
X129340843Y-82239095D01*
X129340286Y-82238075D01*
X129335689Y-82231748D01*
X129336507Y-82231154D01*
X129306817Y-82176783D01*
X129311882Y-82105968D01*
X129335984Y-82068466D01*
X129335689Y-82068252D01*
X129339432Y-82063100D01*
X129340843Y-82060905D01*
X129348528Y-82053220D01*
X129409719Y-81933126D01*
X129419845Y-81869196D01*
X129429253Y-81809793D01*
X129430804Y-81800000D01*
X129429253Y-81790207D01*
X129411270Y-81676665D01*
X129411269Y-81676663D01*
X129409719Y-81666874D01*
X129348528Y-81546780D01*
X129340843Y-81539095D01*
X129340286Y-81538075D01*
X129335689Y-81531748D01*
X129336507Y-81531154D01*
X129306817Y-81476783D01*
X129311882Y-81405968D01*
X129335984Y-81368466D01*
X129335689Y-81368252D01*
X129339432Y-81363100D01*
X129340843Y-81360905D01*
X129348528Y-81353220D01*
X129409719Y-81233126D01*
X129430804Y-81100000D01*
X129422375Y-81046780D01*
X129411270Y-80976665D01*
X129411269Y-80976663D01*
X129409719Y-80966874D01*
X129348528Y-80846780D01*
X129340843Y-80839095D01*
X129340286Y-80838075D01*
X129335689Y-80831748D01*
X129336507Y-80831154D01*
X129306817Y-80776783D01*
X129311882Y-80705968D01*
X129335984Y-80668466D01*
X129335689Y-80668252D01*
X129339432Y-80663100D01*
X129340843Y-80660905D01*
X129348528Y-80653220D01*
X129409719Y-80533126D01*
X129430804Y-80400000D01*
X131669196Y-80400000D01*
X131690281Y-80533126D01*
X131751472Y-80653220D01*
X131846780Y-80748528D01*
X131966874Y-80809719D01*
X131976663Y-80811269D01*
X131976665Y-80811270D01*
X132090207Y-80829253D01*
X132100000Y-80830804D01*
X132109793Y-80829253D01*
X132223335Y-80811270D01*
X132223337Y-80811269D01*
X132233126Y-80809719D01*
X132353220Y-80748528D01*
X132448528Y-80653220D01*
X132509719Y-80533126D01*
X132530804Y-80400000D01*
X132509719Y-80266874D01*
X132448528Y-80146780D01*
X132440843Y-80139095D01*
X132440286Y-80138075D01*
X132435689Y-80131748D01*
X132436507Y-80131154D01*
X132406817Y-80076783D01*
X132411882Y-80005968D01*
X132435984Y-79968466D01*
X132435689Y-79968252D01*
X132439432Y-79963100D01*
X132440843Y-79960905D01*
X132448528Y-79953220D01*
X132509719Y-79833126D01*
X132513427Y-79809719D01*
X132529253Y-79709793D01*
X132530804Y-79700000D01*
X132509719Y-79566874D01*
X132448528Y-79446780D01*
X132353220Y-79351472D01*
X132233126Y-79290281D01*
X132223337Y-79288731D01*
X132223335Y-79288730D01*
X132109793Y-79270747D01*
X132100000Y-79269196D01*
X132090207Y-79270747D01*
X131976665Y-79288730D01*
X131976663Y-79288731D01*
X131966874Y-79290281D01*
X131846780Y-79351472D01*
X131751472Y-79446780D01*
X131690281Y-79566874D01*
X131669196Y-79700000D01*
X131670747Y-79709793D01*
X131686574Y-79809719D01*
X131690281Y-79833126D01*
X131751472Y-79953220D01*
X131759157Y-79960905D01*
X131759714Y-79961925D01*
X131764311Y-79968252D01*
X131763493Y-79968846D01*
X131793183Y-80023217D01*
X131788118Y-80094032D01*
X131764016Y-80131534D01*
X131764311Y-80131748D01*
X131760568Y-80136900D01*
X131759157Y-80139095D01*
X131751472Y-80146780D01*
X131690281Y-80266874D01*
X131669196Y-80400000D01*
X129430804Y-80400000D01*
X129409719Y-80266874D01*
X129348528Y-80146780D01*
X129253220Y-80051472D01*
X129133126Y-79990281D01*
X129123337Y-79988731D01*
X129123335Y-79988730D01*
X129009793Y-79970747D01*
X129000000Y-79969196D01*
X128990207Y-79970747D01*
X128876665Y-79988730D01*
X128876663Y-79988731D01*
X128866874Y-79990281D01*
X128746780Y-80051472D01*
X128651472Y-80146780D01*
X128590281Y-80266874D01*
X128569196Y-80400000D01*
X128590281Y-80533126D01*
X128651472Y-80653220D01*
X128659157Y-80660905D01*
X128659714Y-80661925D01*
X128664311Y-80668252D01*
X128663493Y-80668846D01*
X128693183Y-80723217D01*
X128688118Y-80794032D01*
X128664016Y-80831534D01*
X128664311Y-80831748D01*
X128660568Y-80836900D01*
X128659157Y-80839095D01*
X128651472Y-80846780D01*
X128590281Y-80966874D01*
X128588731Y-80976663D01*
X128588730Y-80976665D01*
X128577625Y-81046780D01*
X128569196Y-81100000D01*
X128590281Y-81233126D01*
X128651472Y-81353220D01*
X128659157Y-81360905D01*
X128659714Y-81361925D01*
X128664311Y-81368252D01*
X128663493Y-81368846D01*
X128693183Y-81423217D01*
X128688118Y-81494032D01*
X128664016Y-81531534D01*
X128664311Y-81531748D01*
X128660568Y-81536900D01*
X128659157Y-81539095D01*
X128651472Y-81546780D01*
X128590281Y-81666874D01*
X128588731Y-81676663D01*
X128588730Y-81676665D01*
X128570747Y-81790207D01*
X128569196Y-81800000D01*
X128570747Y-81809793D01*
X128580156Y-81869196D01*
X128590281Y-81933126D01*
X128651472Y-82053220D01*
X128659157Y-82060905D01*
X128659714Y-82061925D01*
X128664311Y-82068252D01*
X128663493Y-82068846D01*
X128693183Y-82123217D01*
X128688118Y-82194032D01*
X128664016Y-82231534D01*
X128664311Y-82231748D01*
X128660568Y-82236900D01*
X128659157Y-82239095D01*
X128651472Y-82246780D01*
X128590281Y-82366874D01*
X128588731Y-82376663D01*
X128588730Y-82376665D01*
X128578389Y-82441959D01*
X128569196Y-82500000D01*
X128570747Y-82509793D01*
X128578736Y-82560231D01*
X128590281Y-82633126D01*
X128651472Y-82753220D01*
X128659157Y-82760905D01*
X128659714Y-82761925D01*
X128664311Y-82768252D01*
X128663493Y-82768846D01*
X128693183Y-82823217D01*
X128688118Y-82894032D01*
X128664016Y-82931534D01*
X128664311Y-82931748D01*
X128660568Y-82936900D01*
X128659157Y-82939095D01*
X128651472Y-82946780D01*
X128590281Y-83066874D01*
X128588731Y-83076663D01*
X128588730Y-83076665D01*
X128577625Y-83146780D01*
X128569196Y-83200000D01*
X128590281Y-83333126D01*
X128651472Y-83453220D01*
X128659157Y-83460905D01*
X128659714Y-83461925D01*
X128664311Y-83468252D01*
X128663493Y-83468846D01*
X128693183Y-83523217D01*
X128688118Y-83594032D01*
X128664016Y-83631534D01*
X128664311Y-83631748D01*
X128660568Y-83636900D01*
X128659157Y-83639095D01*
X128651472Y-83646780D01*
X128590281Y-83766874D01*
X128588731Y-83776663D01*
X128588730Y-83776665D01*
X128570747Y-83890207D01*
X128569196Y-83900000D01*
X109551000Y-83900000D01*
X109551000Y-83400000D01*
X116469196Y-83400000D01*
X116470747Y-83409793D01*
X116488712Y-83523217D01*
X116490281Y-83533126D01*
X116551472Y-83653220D01*
X116646780Y-83748528D01*
X116766874Y-83809719D01*
X116776663Y-83811269D01*
X116776665Y-83811270D01*
X116890207Y-83829253D01*
X116900000Y-83830804D01*
X116909793Y-83829253D01*
X117023335Y-83811270D01*
X117023337Y-83811269D01*
X117033126Y-83809719D01*
X117153220Y-83748528D01*
X117248528Y-83653220D01*
X117309719Y-83533126D01*
X117311289Y-83523217D01*
X117329253Y-83409793D01*
X117330804Y-83400000D01*
X117309719Y-83266874D01*
X117248528Y-83146780D01*
X117201748Y-83100000D01*
X119969196Y-83100000D01*
X119990281Y-83233126D01*
X120051472Y-83353220D01*
X120146780Y-83448528D01*
X120266874Y-83509719D01*
X120276663Y-83511269D01*
X120276665Y-83511270D01*
X120390207Y-83529253D01*
X120400000Y-83530804D01*
X120409793Y-83529253D01*
X120523335Y-83511270D01*
X120523337Y-83511269D01*
X120533126Y-83509719D01*
X120653220Y-83448528D01*
X120748528Y-83353220D01*
X120809719Y-83233126D01*
X120830804Y-83100000D01*
X120824158Y-83058041D01*
X120811270Y-82976665D01*
X120811269Y-82976663D01*
X120809719Y-82966874D01*
X120748528Y-82846780D01*
X120740843Y-82839095D01*
X120740286Y-82838075D01*
X120735689Y-82831748D01*
X120736507Y-82831154D01*
X120706817Y-82776783D01*
X120711882Y-82705968D01*
X120735984Y-82668466D01*
X120735689Y-82668252D01*
X120739432Y-82663100D01*
X120740843Y-82660905D01*
X120748528Y-82653220D01*
X120809719Y-82533126D01*
X120830804Y-82400000D01*
X120822405Y-82346972D01*
X120811270Y-82276665D01*
X120811269Y-82276663D01*
X120809719Y-82266874D01*
X120748528Y-82146780D01*
X120740843Y-82139095D01*
X120740286Y-82138075D01*
X120735689Y-82131748D01*
X120736507Y-82131154D01*
X120706817Y-82076783D01*
X120711882Y-82005968D01*
X120735984Y-81968466D01*
X120735689Y-81968252D01*
X120739432Y-81963100D01*
X120740843Y-81960905D01*
X120748528Y-81953220D01*
X120809719Y-81833126D01*
X120813427Y-81809719D01*
X120829253Y-81709793D01*
X120830804Y-81700000D01*
X120823395Y-81653220D01*
X120811270Y-81576665D01*
X120811269Y-81576663D01*
X120809719Y-81566874D01*
X120748528Y-81446780D01*
X120740843Y-81439095D01*
X120740286Y-81438075D01*
X120735689Y-81431748D01*
X120736507Y-81431154D01*
X120706817Y-81376783D01*
X120711882Y-81305968D01*
X120735984Y-81268466D01*
X120735689Y-81268252D01*
X120739432Y-81263100D01*
X120740843Y-81260905D01*
X120748528Y-81253220D01*
X120809719Y-81133126D01*
X120823365Y-81046972D01*
X120829253Y-81009793D01*
X120830804Y-81000000D01*
X120814139Y-80894782D01*
X120811270Y-80876665D01*
X120811269Y-80876663D01*
X120809719Y-80866874D01*
X120748528Y-80746780D01*
X120740843Y-80739095D01*
X120740286Y-80738075D01*
X120735689Y-80731748D01*
X120736507Y-80731154D01*
X120706817Y-80676783D01*
X120711882Y-80605968D01*
X120735984Y-80568466D01*
X120735689Y-80568252D01*
X120739432Y-80563100D01*
X120740843Y-80560905D01*
X120748528Y-80553220D01*
X120809719Y-80433126D01*
X120830804Y-80300000D01*
X120809719Y-80166874D01*
X120748528Y-80046780D01*
X120740843Y-80039095D01*
X120740286Y-80038075D01*
X120735689Y-80031748D01*
X120736507Y-80031154D01*
X120706817Y-79976783D01*
X120711882Y-79905968D01*
X120735984Y-79868466D01*
X120735689Y-79868252D01*
X120739432Y-79863100D01*
X120740843Y-79860905D01*
X120748528Y-79853220D01*
X120809719Y-79733126D01*
X120821265Y-79660231D01*
X120829253Y-79609793D01*
X120830804Y-79600000D01*
X120809719Y-79466874D01*
X120748528Y-79346780D01*
X120653220Y-79251472D01*
X120533126Y-79190281D01*
X120523337Y-79188731D01*
X120523335Y-79188730D01*
X120409793Y-79170747D01*
X120400000Y-79169196D01*
X120390207Y-79170747D01*
X120276665Y-79188730D01*
X120276663Y-79188731D01*
X120266874Y-79190281D01*
X120146780Y-79251472D01*
X120051472Y-79346780D01*
X119990281Y-79466874D01*
X119969196Y-79600000D01*
X119970747Y-79609793D01*
X119978736Y-79660231D01*
X119990281Y-79733126D01*
X120051472Y-79853220D01*
X120059157Y-79860905D01*
X120059714Y-79861925D01*
X120064311Y-79868252D01*
X120063493Y-79868846D01*
X120093183Y-79923217D01*
X120088118Y-79994032D01*
X120064016Y-80031534D01*
X120064311Y-80031748D01*
X120060568Y-80036900D01*
X120059157Y-80039095D01*
X120051472Y-80046780D01*
X119990281Y-80166874D01*
X119969196Y-80300000D01*
X119990281Y-80433126D01*
X120051472Y-80553220D01*
X120059157Y-80560905D01*
X120059714Y-80561925D01*
X120064311Y-80568252D01*
X120063493Y-80568846D01*
X120093183Y-80623217D01*
X120088118Y-80694032D01*
X120064016Y-80731534D01*
X120064311Y-80731748D01*
X120060568Y-80736900D01*
X120059157Y-80739095D01*
X120051472Y-80746780D01*
X119990281Y-80866874D01*
X119988731Y-80876663D01*
X119988730Y-80876665D01*
X119985861Y-80894782D01*
X119969196Y-81000000D01*
X119970747Y-81009793D01*
X119976636Y-81046972D01*
X119990281Y-81133126D01*
X120051472Y-81253220D01*
X120059157Y-81260905D01*
X120059714Y-81261925D01*
X120064311Y-81268252D01*
X120063493Y-81268846D01*
X120093183Y-81323217D01*
X120088118Y-81394032D01*
X120064016Y-81431534D01*
X120064311Y-81431748D01*
X120060568Y-81436900D01*
X120059157Y-81439095D01*
X120051472Y-81446780D01*
X119990281Y-81566874D01*
X119988731Y-81576663D01*
X119988730Y-81576665D01*
X119976605Y-81653220D01*
X119969196Y-81700000D01*
X119970747Y-81709793D01*
X119986574Y-81809719D01*
X119990281Y-81833126D01*
X120051472Y-81953220D01*
X120059157Y-81960905D01*
X120059714Y-81961925D01*
X120064311Y-81968252D01*
X120063493Y-81968846D01*
X120093183Y-82023217D01*
X120088118Y-82094032D01*
X120064016Y-82131534D01*
X120064311Y-82131748D01*
X120060568Y-82136900D01*
X120059157Y-82139095D01*
X120051472Y-82146780D01*
X119990281Y-82266874D01*
X119988731Y-82276663D01*
X119988730Y-82276665D01*
X119977595Y-82346972D01*
X119969196Y-82400000D01*
X119990281Y-82533126D01*
X120051472Y-82653220D01*
X120059157Y-82660905D01*
X120059714Y-82661925D01*
X120064311Y-82668252D01*
X120063493Y-82668846D01*
X120093183Y-82723217D01*
X120088118Y-82794032D01*
X120064016Y-82831534D01*
X120064311Y-82831748D01*
X120060568Y-82836900D01*
X120059157Y-82839095D01*
X120051472Y-82846780D01*
X119990281Y-82966874D01*
X119988731Y-82976663D01*
X119988730Y-82976665D01*
X119975842Y-83058041D01*
X119969196Y-83100000D01*
X117201748Y-83100000D01*
X117153220Y-83051472D01*
X117033126Y-82990281D01*
X117023337Y-82988731D01*
X117023335Y-82988730D01*
X116909793Y-82970747D01*
X116900000Y-82969196D01*
X116890207Y-82970747D01*
X116776665Y-82988730D01*
X116776663Y-82988731D01*
X116766874Y-82990281D01*
X116646780Y-83051472D01*
X116551472Y-83146780D01*
X116490281Y-83266874D01*
X116469196Y-83400000D01*
X109551000Y-83400000D01*
X109551000Y-82300000D01*
X113469196Y-82300000D01*
X113470747Y-82309793D01*
X113476636Y-82346972D01*
X113490281Y-82433126D01*
X113551472Y-82553220D01*
X113646780Y-82648528D01*
X113766874Y-82709719D01*
X113776663Y-82711269D01*
X113776665Y-82711270D01*
X113890207Y-82729253D01*
X113900000Y-82730804D01*
X113909793Y-82729253D01*
X114023335Y-82711270D01*
X114023337Y-82711269D01*
X114033126Y-82709719D01*
X114153220Y-82648528D01*
X114248528Y-82553220D01*
X114275645Y-82500000D01*
X115669196Y-82500000D01*
X115670747Y-82509793D01*
X115678736Y-82560231D01*
X115690281Y-82633126D01*
X115751472Y-82753220D01*
X115846780Y-82848528D01*
X115966874Y-82909719D01*
X115976663Y-82911269D01*
X115976665Y-82911270D01*
X116090207Y-82929253D01*
X116100000Y-82930804D01*
X116109793Y-82929253D01*
X116223335Y-82911270D01*
X116223337Y-82911269D01*
X116233126Y-82909719D01*
X116353220Y-82848528D01*
X116448528Y-82753220D01*
X116509719Y-82633126D01*
X116521265Y-82560231D01*
X116529253Y-82509793D01*
X116530804Y-82500000D01*
X116521611Y-82441959D01*
X116511270Y-82376665D01*
X116511269Y-82376663D01*
X116509719Y-82366874D01*
X116448528Y-82246780D01*
X116353220Y-82151472D01*
X116233126Y-82090281D01*
X116223337Y-82088731D01*
X116223335Y-82088730D01*
X116109793Y-82070747D01*
X116100000Y-82069196D01*
X116090207Y-82070747D01*
X115976665Y-82088730D01*
X115976663Y-82088731D01*
X115966874Y-82090281D01*
X115846780Y-82151472D01*
X115751472Y-82246780D01*
X115690281Y-82366874D01*
X115688731Y-82376663D01*
X115688730Y-82376665D01*
X115678389Y-82441959D01*
X115669196Y-82500000D01*
X114275645Y-82500000D01*
X114309719Y-82433126D01*
X114323365Y-82346972D01*
X114329253Y-82309793D01*
X114330804Y-82300000D01*
X114321924Y-82243932D01*
X114311270Y-82176665D01*
X114311269Y-82176663D01*
X114309719Y-82166874D01*
X114248528Y-82046780D01*
X114153220Y-81951472D01*
X114033126Y-81890281D01*
X114023337Y-81888731D01*
X114023335Y-81888730D01*
X113909793Y-81870747D01*
X113900000Y-81869196D01*
X113890207Y-81870747D01*
X113776665Y-81888730D01*
X113776663Y-81888731D01*
X113766874Y-81890281D01*
X113646780Y-81951472D01*
X113551472Y-82046780D01*
X113490281Y-82166874D01*
X113488731Y-82176663D01*
X113488730Y-82176665D01*
X113478076Y-82243932D01*
X113469196Y-82300000D01*
X109551000Y-82300000D01*
X109551000Y-81656938D01*
X109571002Y-81588817D01*
X109624658Y-81542324D01*
X109694932Y-81532220D01*
X109759512Y-81561714D01*
X109766095Y-81567843D01*
X109846780Y-81648528D01*
X109966874Y-81709719D01*
X109976663Y-81711269D01*
X109976665Y-81711270D01*
X110090207Y-81729253D01*
X110100000Y-81730804D01*
X110109793Y-81729253D01*
X110223335Y-81711270D01*
X110223337Y-81711269D01*
X110233126Y-81709719D01*
X110353220Y-81648528D01*
X110448528Y-81553220D01*
X110509719Y-81433126D01*
X110511289Y-81423217D01*
X110529253Y-81309793D01*
X110530804Y-81300000D01*
X110521611Y-81241959D01*
X110511270Y-81176665D01*
X110511269Y-81176663D01*
X110509719Y-81166874D01*
X110448528Y-81046780D01*
X110353220Y-80951472D01*
X110233126Y-80890281D01*
X110223337Y-80888731D01*
X110223335Y-80888730D01*
X110109793Y-80870747D01*
X110100000Y-80869196D01*
X110090207Y-80870747D01*
X109976665Y-80888730D01*
X109976663Y-80888731D01*
X109966874Y-80890281D01*
X109846780Y-80951472D01*
X109766095Y-81032157D01*
X109703783Y-81066183D01*
X109632968Y-81061118D01*
X109576132Y-81018571D01*
X109551321Y-80952051D01*
X109551000Y-80943062D01*
X109551000Y-79400000D01*
X116669196Y-79400000D01*
X116690281Y-79533126D01*
X116751472Y-79653220D01*
X116846780Y-79748528D01*
X116966874Y-79809719D01*
X116976663Y-79811269D01*
X116976665Y-79811270D01*
X117090207Y-79829253D01*
X117100000Y-79830804D01*
X117109793Y-79829253D01*
X117223335Y-79811270D01*
X117223337Y-79811269D01*
X117233126Y-79809719D01*
X117353220Y-79748528D01*
X117448528Y-79653220D01*
X117509719Y-79533126D01*
X117530804Y-79400000D01*
X117522375Y-79346780D01*
X117511270Y-79276665D01*
X117511269Y-79276663D01*
X117509719Y-79266874D01*
X117448528Y-79146780D01*
X117353220Y-79051472D01*
X117233126Y-78990281D01*
X117223337Y-78988731D01*
X117223335Y-78988730D01*
X117109793Y-78970747D01*
X117100000Y-78969196D01*
X117090207Y-78970747D01*
X116976665Y-78988730D01*
X116976663Y-78988731D01*
X116966874Y-78990281D01*
X116846780Y-79051472D01*
X116751472Y-79146780D01*
X116690281Y-79266874D01*
X116688731Y-79276663D01*
X116688730Y-79276665D01*
X116677625Y-79346780D01*
X116669196Y-79400000D01*
X109551000Y-79400000D01*
X109551000Y-78100000D01*
X134769196Y-78100000D01*
X134770747Y-78109792D01*
X134770747Y-78109793D01*
X134776636Y-78146972D01*
X134790281Y-78233126D01*
X134851472Y-78353220D01*
X134946780Y-78448528D01*
X135066874Y-78509719D01*
X135076663Y-78511269D01*
X135076665Y-78511270D01*
X135190207Y-78529253D01*
X135200000Y-78530804D01*
X135209793Y-78529253D01*
X135323335Y-78511270D01*
X135323337Y-78511269D01*
X135333126Y-78509719D01*
X135453220Y-78448528D01*
X135548528Y-78353220D01*
X135552755Y-78344923D01*
X135608714Y-78301776D01*
X135679450Y-78295702D01*
X135742241Y-78328836D01*
X135777150Y-78390657D01*
X135778873Y-78438902D01*
X135769196Y-78500000D01*
X135790281Y-78633126D01*
X135851472Y-78753220D01*
X135946780Y-78848528D01*
X136066874Y-78909719D01*
X136076663Y-78911269D01*
X136076665Y-78911270D01*
X136190207Y-78929253D01*
X136200000Y-78930804D01*
X136209793Y-78929253D01*
X136323335Y-78911270D01*
X136323337Y-78911269D01*
X136333126Y-78909719D01*
X136453220Y-78848528D01*
X136548528Y-78753220D01*
X136609719Y-78633126D01*
X136630804Y-78500000D01*
X136629253Y-78490207D01*
X136611270Y-78376665D01*
X136611269Y-78376663D01*
X136609719Y-78366874D01*
X136548528Y-78246780D01*
X136453220Y-78151472D01*
X136333126Y-78090281D01*
X136323337Y-78088731D01*
X136323335Y-78088730D01*
X136209793Y-78070747D01*
X136200000Y-78069196D01*
X136190207Y-78070747D01*
X136076665Y-78088730D01*
X136076663Y-78088731D01*
X136066874Y-78090281D01*
X135946780Y-78151472D01*
X135851472Y-78246780D01*
X135847245Y-78255077D01*
X135791286Y-78298224D01*
X135720550Y-78304298D01*
X135657759Y-78271164D01*
X135622850Y-78209343D01*
X135621127Y-78161097D01*
X135622652Y-78151472D01*
X135630804Y-78100000D01*
X135609719Y-77966874D01*
X135548528Y-77846780D01*
X135453220Y-77751472D01*
X135333126Y-77690281D01*
X135323337Y-77688731D01*
X135323335Y-77688730D01*
X135209793Y-77670747D01*
X135200000Y-77669196D01*
X135190207Y-77670747D01*
X135076665Y-77688730D01*
X135076663Y-77688731D01*
X135066874Y-77690281D01*
X134946780Y-77751472D01*
X134851472Y-77846780D01*
X134790281Y-77966874D01*
X134769196Y-78100000D01*
X109551000Y-78100000D01*
X109551000Y-77228367D01*
X114014500Y-77228367D01*
X114053022Y-77359561D01*
X114057896Y-77367145D01*
X114094007Y-77423335D01*
X114126945Y-77474589D01*
X114133755Y-77480490D01*
X114133757Y-77480492D01*
X114207498Y-77544388D01*
X114230282Y-77564130D01*
X114245505Y-77571082D01*
X114346461Y-77617188D01*
X114346464Y-77617189D01*
X114354658Y-77620931D01*
X114363575Y-77622213D01*
X114451541Y-77634861D01*
X114451548Y-77634862D01*
X114455989Y-77635500D01*
X114524011Y-77635500D01*
X114528452Y-77634862D01*
X114528459Y-77634861D01*
X114616425Y-77622213D01*
X114625342Y-77620931D01*
X114633536Y-77617189D01*
X114633539Y-77617188D01*
X114734495Y-77571082D01*
X114749718Y-77564130D01*
X114772502Y-77544388D01*
X114846243Y-77480492D01*
X114846245Y-77480490D01*
X114853055Y-77474589D01*
X114885994Y-77423335D01*
X114922104Y-77367145D01*
X114926978Y-77359561D01*
X114944467Y-77300000D01*
X124269196Y-77300000D01*
X124290281Y-77433126D01*
X124351472Y-77553220D01*
X124446780Y-77648528D01*
X124566874Y-77709719D01*
X124576663Y-77711269D01*
X124576665Y-77711270D01*
X124690207Y-77729253D01*
X124700000Y-77730804D01*
X124709793Y-77729253D01*
X124823335Y-77711270D01*
X124823337Y-77711269D01*
X124833126Y-77709719D01*
X124953220Y-77648528D01*
X125048528Y-77553220D01*
X125109719Y-77433126D01*
X125130804Y-77300000D01*
X125120828Y-77237011D01*
X125111270Y-77176665D01*
X125111269Y-77176663D01*
X125109719Y-77166874D01*
X125048528Y-77046780D01*
X124953220Y-76951472D01*
X124833126Y-76890281D01*
X124823337Y-76888731D01*
X124823335Y-76888730D01*
X124709793Y-76870747D01*
X124700000Y-76869196D01*
X124690207Y-76870747D01*
X124576665Y-76888730D01*
X124576663Y-76888731D01*
X124566874Y-76890281D01*
X124446780Y-76951472D01*
X124351472Y-77046780D01*
X124290281Y-77166874D01*
X124288731Y-77176663D01*
X124288730Y-77176665D01*
X124279172Y-77237011D01*
X124269196Y-77300000D01*
X114944467Y-77300000D01*
X114965500Y-77228367D01*
X114965500Y-77212727D01*
X114985502Y-77144606D01*
X115039158Y-77098113D01*
X115109432Y-77088009D01*
X115148703Y-77100460D01*
X115166874Y-77109719D01*
X115176663Y-77111269D01*
X115176665Y-77111270D01*
X115290207Y-77129253D01*
X115300000Y-77130804D01*
X115309793Y-77129253D01*
X115423335Y-77111270D01*
X115423337Y-77111269D01*
X115433126Y-77109719D01*
X115553220Y-77048528D01*
X115648528Y-76953220D01*
X115709719Y-76833126D01*
X115730804Y-76700000D01*
X115714966Y-76600000D01*
X119269196Y-76600000D01*
X119270747Y-76609793D01*
X119282681Y-76685139D01*
X119290281Y-76733126D01*
X119351472Y-76853220D01*
X119446780Y-76948528D01*
X119566874Y-77009719D01*
X119576663Y-77011269D01*
X119576665Y-77011270D01*
X119690207Y-77029253D01*
X119700000Y-77030804D01*
X119709793Y-77029253D01*
X119823335Y-77011270D01*
X119823337Y-77011269D01*
X119833126Y-77009719D01*
X119953220Y-76948528D01*
X120048528Y-76853220D01*
X120075645Y-76800000D01*
X125969196Y-76800000D01*
X125970747Y-76809793D01*
X125980156Y-76869196D01*
X125990281Y-76933126D01*
X126051472Y-77053220D01*
X126146780Y-77148528D01*
X126266874Y-77209719D01*
X126276663Y-77211269D01*
X126276665Y-77211270D01*
X126390207Y-77229253D01*
X126400000Y-77230804D01*
X126409793Y-77229253D01*
X126523335Y-77211270D01*
X126523337Y-77211269D01*
X126533126Y-77209719D01*
X126653220Y-77148528D01*
X126748528Y-77053220D01*
X126809719Y-76933126D01*
X126819845Y-76869196D01*
X126829253Y-76809793D01*
X126830804Y-76800000D01*
X127469196Y-76800000D01*
X127470747Y-76809793D01*
X127480156Y-76869196D01*
X127490281Y-76933126D01*
X127551472Y-77053220D01*
X127646780Y-77148528D01*
X127766874Y-77209719D01*
X127776663Y-77211269D01*
X127776665Y-77211270D01*
X127890207Y-77229253D01*
X127900000Y-77230804D01*
X127909793Y-77229253D01*
X128023335Y-77211270D01*
X128023337Y-77211269D01*
X128033126Y-77209719D01*
X128153220Y-77148528D01*
X128248528Y-77053220D01*
X128309719Y-76933126D01*
X128319845Y-76869196D01*
X128329253Y-76809793D01*
X128330804Y-76800000D01*
X128969196Y-76800000D01*
X128970747Y-76809793D01*
X128980156Y-76869196D01*
X128990281Y-76933126D01*
X129051472Y-77053220D01*
X129146780Y-77148528D01*
X129266874Y-77209719D01*
X129276663Y-77211269D01*
X129276665Y-77211270D01*
X129390207Y-77229253D01*
X129400000Y-77230804D01*
X129409793Y-77229253D01*
X129523335Y-77211270D01*
X129523337Y-77211269D01*
X129533126Y-77209719D01*
X129653220Y-77148528D01*
X129748528Y-77053220D01*
X129809719Y-76933126D01*
X129819845Y-76869196D01*
X129829253Y-76809793D01*
X129830804Y-76800000D01*
X130469196Y-76800000D01*
X130470747Y-76809793D01*
X130480156Y-76869196D01*
X130490281Y-76933126D01*
X130551472Y-77053220D01*
X130646780Y-77148528D01*
X130766874Y-77209719D01*
X130776663Y-77211269D01*
X130776665Y-77211270D01*
X130890207Y-77229253D01*
X130900000Y-77230804D01*
X130909793Y-77229253D01*
X131023335Y-77211270D01*
X131023337Y-77211269D01*
X131033126Y-77209719D01*
X131153220Y-77148528D01*
X131248528Y-77053220D01*
X131309719Y-76933126D01*
X131319845Y-76869196D01*
X131329253Y-76809793D01*
X131330804Y-76800000D01*
X131969196Y-76800000D01*
X131970747Y-76809793D01*
X131980156Y-76869196D01*
X131990281Y-76933126D01*
X132051472Y-77053220D01*
X132146780Y-77148528D01*
X132266874Y-77209719D01*
X132276663Y-77211269D01*
X132276665Y-77211270D01*
X132390207Y-77229253D01*
X132400000Y-77230804D01*
X132409793Y-77229253D01*
X132523335Y-77211270D01*
X132523337Y-77211269D01*
X132533126Y-77209719D01*
X132653220Y-77148528D01*
X132748528Y-77053220D01*
X132809719Y-76933126D01*
X132819845Y-76869196D01*
X132829253Y-76809793D01*
X132830804Y-76800000D01*
X132829253Y-76790207D01*
X132811270Y-76676665D01*
X132811269Y-76676663D01*
X132809719Y-76666874D01*
X132748528Y-76546780D01*
X132653220Y-76451472D01*
X132533126Y-76390281D01*
X132523337Y-76388731D01*
X132523335Y-76388730D01*
X132409793Y-76370747D01*
X132400000Y-76369196D01*
X132390207Y-76370747D01*
X132276665Y-76388730D01*
X132276663Y-76388731D01*
X132266874Y-76390281D01*
X132146780Y-76451472D01*
X132051472Y-76546780D01*
X131990281Y-76666874D01*
X131988731Y-76676663D01*
X131988730Y-76676665D01*
X131970747Y-76790207D01*
X131969196Y-76800000D01*
X131330804Y-76800000D01*
X131329253Y-76790207D01*
X131311270Y-76676665D01*
X131311269Y-76676663D01*
X131309719Y-76666874D01*
X131248528Y-76546780D01*
X131153220Y-76451472D01*
X131033126Y-76390281D01*
X131023337Y-76388731D01*
X131023335Y-76388730D01*
X130909793Y-76370747D01*
X130900000Y-76369196D01*
X130890207Y-76370747D01*
X130776665Y-76388730D01*
X130776663Y-76388731D01*
X130766874Y-76390281D01*
X130646780Y-76451472D01*
X130551472Y-76546780D01*
X130490281Y-76666874D01*
X130488731Y-76676663D01*
X130488730Y-76676665D01*
X130470747Y-76790207D01*
X130469196Y-76800000D01*
X129830804Y-76800000D01*
X129829253Y-76790207D01*
X129811270Y-76676665D01*
X129811269Y-76676663D01*
X129809719Y-76666874D01*
X129748528Y-76546780D01*
X129653220Y-76451472D01*
X129533126Y-76390281D01*
X129523337Y-76388731D01*
X129523335Y-76388730D01*
X129409793Y-76370747D01*
X129400000Y-76369196D01*
X129390207Y-76370747D01*
X129276665Y-76388730D01*
X129276663Y-76388731D01*
X129266874Y-76390281D01*
X129146780Y-76451472D01*
X129051472Y-76546780D01*
X128990281Y-76666874D01*
X128988731Y-76676663D01*
X128988730Y-76676665D01*
X128970747Y-76790207D01*
X128969196Y-76800000D01*
X128330804Y-76800000D01*
X128329253Y-76790207D01*
X128311270Y-76676665D01*
X128311269Y-76676663D01*
X128309719Y-76666874D01*
X128248528Y-76546780D01*
X128153220Y-76451472D01*
X128033126Y-76390281D01*
X128023337Y-76388731D01*
X128023335Y-76388730D01*
X127909793Y-76370747D01*
X127900000Y-76369196D01*
X127890207Y-76370747D01*
X127776665Y-76388730D01*
X127776663Y-76388731D01*
X127766874Y-76390281D01*
X127646780Y-76451472D01*
X127551472Y-76546780D01*
X127490281Y-76666874D01*
X127488731Y-76676663D01*
X127488730Y-76676665D01*
X127470747Y-76790207D01*
X127469196Y-76800000D01*
X126830804Y-76800000D01*
X126829253Y-76790207D01*
X126811270Y-76676665D01*
X126811269Y-76676663D01*
X126809719Y-76666874D01*
X126748528Y-76546780D01*
X126653220Y-76451472D01*
X126533126Y-76390281D01*
X126523337Y-76388731D01*
X126523335Y-76388730D01*
X126409793Y-76370747D01*
X126400000Y-76369196D01*
X126390207Y-76370747D01*
X126276665Y-76388730D01*
X126276663Y-76388731D01*
X126266874Y-76390281D01*
X126146780Y-76451472D01*
X126051472Y-76546780D01*
X125990281Y-76666874D01*
X125988731Y-76676663D01*
X125988730Y-76676665D01*
X125970747Y-76790207D01*
X125969196Y-76800000D01*
X120075645Y-76800000D01*
X120109719Y-76733126D01*
X120117320Y-76685139D01*
X120129253Y-76609793D01*
X120130804Y-76600000D01*
X120122375Y-76546780D01*
X120111270Y-76476665D01*
X120111269Y-76476663D01*
X120109719Y-76466874D01*
X120048528Y-76346780D01*
X119953220Y-76251472D01*
X119833126Y-76190281D01*
X119823337Y-76188731D01*
X119823335Y-76188730D01*
X119709793Y-76170747D01*
X119700000Y-76169196D01*
X119690207Y-76170747D01*
X119576665Y-76188730D01*
X119576663Y-76188731D01*
X119566874Y-76190281D01*
X119446780Y-76251472D01*
X119351472Y-76346780D01*
X119290281Y-76466874D01*
X119288731Y-76476663D01*
X119288730Y-76476665D01*
X119277625Y-76546780D01*
X119269196Y-76600000D01*
X115714966Y-76600000D01*
X115709719Y-76566874D01*
X115648528Y-76446780D01*
X115553220Y-76351472D01*
X115433126Y-76290281D01*
X115423337Y-76288731D01*
X115423335Y-76288730D01*
X115309793Y-76270747D01*
X115300000Y-76269196D01*
X115290207Y-76270747D01*
X115176665Y-76288730D01*
X115176663Y-76288731D01*
X115166874Y-76290281D01*
X115046780Y-76351472D01*
X114951472Y-76446780D01*
X114890281Y-76566874D01*
X114888731Y-76576663D01*
X114888730Y-76576665D01*
X114878827Y-76639192D01*
X114848415Y-76703345D01*
X114788146Y-76740872D01*
X114717157Y-76739858D01*
X114702038Y-76734095D01*
X114678477Y-76723335D01*
X114633539Y-76702812D01*
X114633536Y-76702811D01*
X114625342Y-76699069D01*
X114608164Y-76696599D01*
X114528459Y-76685139D01*
X114528452Y-76685138D01*
X114524011Y-76684500D01*
X114455989Y-76684500D01*
X114451548Y-76685138D01*
X114451541Y-76685139D01*
X114371836Y-76696599D01*
X114354658Y-76699069D01*
X114346464Y-76702811D01*
X114346461Y-76702812D01*
X114301523Y-76723335D01*
X114230282Y-76755870D01*
X114223471Y-76761772D01*
X114223469Y-76761773D01*
X114133757Y-76839508D01*
X114133755Y-76839510D01*
X114126945Y-76845411D01*
X114122071Y-76852994D01*
X114122071Y-76852995D01*
X114110663Y-76870747D01*
X114053022Y-76960439D01*
X114014500Y-77091633D01*
X114014500Y-77228367D01*
X109551000Y-77228367D01*
X109551000Y-75300000D01*
X119369196Y-75300000D01*
X119370747Y-75309793D01*
X119376636Y-75346972D01*
X119390281Y-75433126D01*
X119451472Y-75553220D01*
X119546780Y-75648528D01*
X119666874Y-75709719D01*
X119676663Y-75711269D01*
X119676665Y-75711270D01*
X119790207Y-75729253D01*
X119800000Y-75730804D01*
X119809793Y-75729253D01*
X119923335Y-75711270D01*
X119923337Y-75711269D01*
X119933126Y-75709719D01*
X120053220Y-75648528D01*
X120148528Y-75553220D01*
X120209719Y-75433126D01*
X120223365Y-75346972D01*
X120229253Y-75309793D01*
X120230804Y-75300000D01*
X124469196Y-75300000D01*
X124470747Y-75309793D01*
X124476636Y-75346972D01*
X124490281Y-75433126D01*
X124551472Y-75553220D01*
X124646780Y-75648528D01*
X124766874Y-75709719D01*
X124776663Y-75711269D01*
X124776665Y-75711270D01*
X124890207Y-75729253D01*
X124900000Y-75730804D01*
X124909793Y-75729253D01*
X125023335Y-75711270D01*
X125023337Y-75711269D01*
X125033126Y-75709719D01*
X125052201Y-75700000D01*
X134769196Y-75700000D01*
X134790281Y-75833126D01*
X134851472Y-75953220D01*
X134946780Y-76048528D01*
X135066874Y-76109719D01*
X135076663Y-76111269D01*
X135076665Y-76111270D01*
X135190207Y-76129253D01*
X135200000Y-76130804D01*
X135209793Y-76129253D01*
X135323335Y-76111270D01*
X135323337Y-76111269D01*
X135333126Y-76109719D01*
X135453220Y-76048528D01*
X135548528Y-75953220D01*
X135609719Y-75833126D01*
X135630804Y-75700000D01*
X135629253Y-75690207D01*
X135611270Y-75576665D01*
X135611269Y-75576663D01*
X135609719Y-75566874D01*
X135548528Y-75446780D01*
X135453220Y-75351472D01*
X135333126Y-75290281D01*
X135323337Y-75288731D01*
X135323335Y-75288730D01*
X135209793Y-75270747D01*
X135200000Y-75269196D01*
X135190207Y-75270747D01*
X135076665Y-75288730D01*
X135076663Y-75288731D01*
X135066874Y-75290281D01*
X134946780Y-75351472D01*
X134851472Y-75446780D01*
X134790281Y-75566874D01*
X134788731Y-75576663D01*
X134788730Y-75576665D01*
X134770747Y-75690207D01*
X134769196Y-75700000D01*
X125052201Y-75700000D01*
X125153220Y-75648528D01*
X125248528Y-75553220D01*
X125309719Y-75433126D01*
X125323365Y-75346972D01*
X125329253Y-75309793D01*
X125330804Y-75300000D01*
X125309719Y-75166874D01*
X125248528Y-75046780D01*
X125153220Y-74951472D01*
X125033126Y-74890281D01*
X125023337Y-74888731D01*
X125023335Y-74888730D01*
X124909793Y-74870747D01*
X124900000Y-74869196D01*
X124890207Y-74870747D01*
X124776665Y-74888730D01*
X124776663Y-74888731D01*
X124766874Y-74890281D01*
X124646780Y-74951472D01*
X124551472Y-75046780D01*
X124490281Y-75166874D01*
X124469196Y-75300000D01*
X120230804Y-75300000D01*
X120209719Y-75166874D01*
X120148528Y-75046780D01*
X120053220Y-74951472D01*
X119933126Y-74890281D01*
X119923337Y-74888731D01*
X119923335Y-74888730D01*
X119809793Y-74870747D01*
X119800000Y-74869196D01*
X119790207Y-74870747D01*
X119676665Y-74888730D01*
X119676663Y-74888731D01*
X119666874Y-74890281D01*
X119546780Y-74951472D01*
X119451472Y-75046780D01*
X119390281Y-75166874D01*
X119369196Y-75300000D01*
X109551000Y-75300000D01*
X109551000Y-74453137D01*
X116639384Y-74453137D01*
X116640935Y-74462930D01*
X116651440Y-74529253D01*
X116660469Y-74586263D01*
X116721660Y-74706357D01*
X116816968Y-74801665D01*
X116937062Y-74862856D01*
X116946851Y-74864406D01*
X116946853Y-74864407D01*
X117060395Y-74882390D01*
X117070188Y-74883941D01*
X117079981Y-74882390D01*
X117193523Y-74864407D01*
X117193525Y-74864406D01*
X117203314Y-74862856D01*
X117323408Y-74801665D01*
X117418716Y-74706357D01*
X117479907Y-74586263D01*
X117490611Y-74518678D01*
X117521023Y-74454526D01*
X117581291Y-74416999D01*
X117595346Y-74413941D01*
X117633752Y-74407858D01*
X117653142Y-74404787D01*
X117653143Y-74404787D01*
X117662934Y-74403236D01*
X117783028Y-74342045D01*
X117878336Y-74246737D01*
X117939527Y-74126643D01*
X117941907Y-74111620D01*
X117959061Y-74003310D01*
X117959585Y-74000000D01*
X119369196Y-74000000D01*
X119370747Y-74009793D01*
X119386574Y-74109719D01*
X119390281Y-74133126D01*
X119451472Y-74253220D01*
X119546780Y-74348528D01*
X119666874Y-74409719D01*
X119676663Y-74411269D01*
X119676665Y-74411270D01*
X119790207Y-74429253D01*
X119800000Y-74430804D01*
X119809793Y-74429253D01*
X119923335Y-74411270D01*
X119923337Y-74411269D01*
X119933126Y-74409719D01*
X120053220Y-74348528D01*
X120148528Y-74253220D01*
X120209719Y-74133126D01*
X120213427Y-74109719D01*
X120214966Y-74100000D01*
X124469196Y-74100000D01*
X124490281Y-74233126D01*
X124551472Y-74353220D01*
X124646780Y-74448528D01*
X124766874Y-74509719D01*
X124776663Y-74511269D01*
X124776665Y-74511270D01*
X124890207Y-74529253D01*
X124900000Y-74530804D01*
X124909793Y-74529253D01*
X125023335Y-74511270D01*
X125023337Y-74511269D01*
X125033126Y-74509719D01*
X125153220Y-74448528D01*
X125248528Y-74353220D01*
X125309719Y-74233126D01*
X125330804Y-74100000D01*
X125327836Y-74081263D01*
X125311270Y-73976665D01*
X125311269Y-73976663D01*
X125309719Y-73966874D01*
X125248528Y-73846780D01*
X125153220Y-73751472D01*
X125052201Y-73700000D01*
X126469196Y-73700000D01*
X126470747Y-73709793D01*
X126485931Y-73805659D01*
X126490281Y-73833126D01*
X126551472Y-73953220D01*
X126646780Y-74048528D01*
X126766874Y-74109719D01*
X126776663Y-74111269D01*
X126776665Y-74111270D01*
X126890207Y-74129253D01*
X126900000Y-74130804D01*
X126909793Y-74129253D01*
X127023335Y-74111270D01*
X127023337Y-74111269D01*
X127033126Y-74109719D01*
X127153220Y-74048528D01*
X127248528Y-73953220D01*
X127309719Y-73833126D01*
X127314070Y-73805659D01*
X127329253Y-73709793D01*
X127330804Y-73700000D01*
X131169196Y-73700000D01*
X131170747Y-73709793D01*
X131185931Y-73805659D01*
X131190281Y-73833126D01*
X131251472Y-73953220D01*
X131346780Y-74048528D01*
X131466874Y-74109719D01*
X131476663Y-74111269D01*
X131476665Y-74111270D01*
X131590207Y-74129253D01*
X131600000Y-74130804D01*
X131609793Y-74129253D01*
X131723335Y-74111270D01*
X131723337Y-74111269D01*
X131733126Y-74109719D01*
X131752201Y-74100000D01*
X132569196Y-74100000D01*
X132590281Y-74233126D01*
X132651472Y-74353220D01*
X132746780Y-74448528D01*
X132866874Y-74509719D01*
X132876663Y-74511269D01*
X132876665Y-74511270D01*
X132990207Y-74529253D01*
X133000000Y-74530804D01*
X133009793Y-74529253D01*
X133123335Y-74511270D01*
X133123337Y-74511269D01*
X133133126Y-74509719D01*
X133253220Y-74448528D01*
X133348528Y-74353220D01*
X133369061Y-74312921D01*
X135695619Y-74312921D01*
X135697371Y-74321351D01*
X135697371Y-74321354D01*
X135724655Y-74452651D01*
X135726408Y-74461085D01*
X135796029Y-74595447D01*
X135899320Y-74706044D01*
X135954813Y-74739790D01*
X136021255Y-74780195D01*
X136021258Y-74780196D01*
X136028618Y-74784672D01*
X136174335Y-74825500D01*
X136287658Y-74825500D01*
X136341350Y-74818120D01*
X136391374Y-74811245D01*
X136391377Y-74811244D01*
X136399920Y-74810070D01*
X136458391Y-74784672D01*
X136530813Y-74753215D01*
X136530816Y-74753213D01*
X136538720Y-74749780D01*
X136545404Y-74744342D01*
X136545406Y-74744341D01*
X136602950Y-74697525D01*
X136656108Y-74654278D01*
X136743377Y-74530647D01*
X136747631Y-74518679D01*
X136791168Y-74396177D01*
X136791168Y-74396176D01*
X136794054Y-74388056D01*
X136804381Y-74237079D01*
X136787479Y-74155740D01*
X136775345Y-74097349D01*
X136775344Y-74097346D01*
X136773592Y-74088915D01*
X136703971Y-73954553D01*
X136631228Y-73876665D01*
X136606563Y-73850255D01*
X136600680Y-73843956D01*
X136510465Y-73789095D01*
X136478745Y-73769805D01*
X136478742Y-73769804D01*
X136471382Y-73765328D01*
X136325665Y-73724500D01*
X136212342Y-73724500D01*
X136158650Y-73731880D01*
X136108626Y-73738755D01*
X136108623Y-73738756D01*
X136100080Y-73739930D01*
X136078902Y-73749129D01*
X135969187Y-73796785D01*
X135969184Y-73796787D01*
X135961280Y-73800220D01*
X135954596Y-73805658D01*
X135954594Y-73805659D01*
X135932868Y-73823335D01*
X135843892Y-73895722D01*
X135756623Y-74019353D01*
X135753739Y-74027469D01*
X135753737Y-74027472D01*
X135708832Y-74153823D01*
X135705946Y-74161944D01*
X135695619Y-74312921D01*
X133369061Y-74312921D01*
X133409719Y-74233126D01*
X133430804Y-74100000D01*
X133427836Y-74081263D01*
X133411270Y-73976665D01*
X133411269Y-73976663D01*
X133409719Y-73966874D01*
X133348528Y-73846780D01*
X133290843Y-73789095D01*
X133256817Y-73726783D01*
X133261882Y-73655968D01*
X133290843Y-73610905D01*
X133348528Y-73553220D01*
X133409719Y-73433126D01*
X133416076Y-73392993D01*
X133429253Y-73309793D01*
X133430804Y-73300000D01*
X133425925Y-73269196D01*
X133411270Y-73176665D01*
X133411269Y-73176663D01*
X133409719Y-73166874D01*
X133348528Y-73046780D01*
X133253220Y-72951472D01*
X133133126Y-72890281D01*
X133123337Y-72888731D01*
X133123335Y-72888730D01*
X133009793Y-72870747D01*
X133000000Y-72869196D01*
X132990207Y-72870747D01*
X132876665Y-72888730D01*
X132876663Y-72888731D01*
X132866874Y-72890281D01*
X132746780Y-72951472D01*
X132651472Y-73046780D01*
X132590281Y-73166874D01*
X132588731Y-73176663D01*
X132588730Y-73176665D01*
X132574075Y-73269196D01*
X132569196Y-73300000D01*
X132570747Y-73309793D01*
X132583925Y-73392993D01*
X132590281Y-73433126D01*
X132651472Y-73553220D01*
X132709157Y-73610905D01*
X132743183Y-73673217D01*
X132738118Y-73744032D01*
X132709157Y-73789095D01*
X132651472Y-73846780D01*
X132590281Y-73966874D01*
X132588731Y-73976663D01*
X132588730Y-73976665D01*
X132572164Y-74081263D01*
X132569196Y-74100000D01*
X131752201Y-74100000D01*
X131853220Y-74048528D01*
X131948528Y-73953220D01*
X132009719Y-73833126D01*
X132014070Y-73805659D01*
X132029253Y-73709793D01*
X132030804Y-73700000D01*
X132022091Y-73644989D01*
X132011270Y-73576665D01*
X132011269Y-73576663D01*
X132009719Y-73566874D01*
X131948528Y-73446780D01*
X131853220Y-73351472D01*
X131733126Y-73290281D01*
X131723337Y-73288731D01*
X131723335Y-73288730D01*
X131609793Y-73270747D01*
X131600000Y-73269196D01*
X131590207Y-73270747D01*
X131476665Y-73288730D01*
X131476663Y-73288731D01*
X131466874Y-73290281D01*
X131346780Y-73351472D01*
X131251472Y-73446780D01*
X131190281Y-73566874D01*
X131188731Y-73576663D01*
X131188730Y-73576665D01*
X131177909Y-73644989D01*
X131169196Y-73700000D01*
X127330804Y-73700000D01*
X127322091Y-73644989D01*
X127311270Y-73576665D01*
X127311269Y-73576663D01*
X127309719Y-73566874D01*
X127248528Y-73446780D01*
X127153220Y-73351472D01*
X127033126Y-73290281D01*
X127023337Y-73288731D01*
X127023335Y-73288730D01*
X126909793Y-73270747D01*
X126900000Y-73269196D01*
X126890207Y-73270747D01*
X126776665Y-73288730D01*
X126776663Y-73288731D01*
X126766874Y-73290281D01*
X126646780Y-73351472D01*
X126551472Y-73446780D01*
X126490281Y-73566874D01*
X126488731Y-73576663D01*
X126488730Y-73576665D01*
X126477909Y-73644989D01*
X126469196Y-73700000D01*
X125052201Y-73700000D01*
X125033126Y-73690281D01*
X125023337Y-73688731D01*
X125023335Y-73688730D01*
X124909793Y-73670747D01*
X124900000Y-73669196D01*
X124890207Y-73670747D01*
X124776665Y-73688730D01*
X124776663Y-73688731D01*
X124766874Y-73690281D01*
X124646780Y-73751472D01*
X124551472Y-73846780D01*
X124490281Y-73966874D01*
X124488731Y-73976663D01*
X124488730Y-73976665D01*
X124472164Y-74081263D01*
X124469196Y-74100000D01*
X120214966Y-74100000D01*
X120229253Y-74009793D01*
X120230804Y-74000000D01*
X120223395Y-73953220D01*
X120211270Y-73876665D01*
X120211269Y-73876663D01*
X120209719Y-73866874D01*
X120148528Y-73746780D01*
X120053220Y-73651472D01*
X119933126Y-73590281D01*
X119923337Y-73588731D01*
X119923335Y-73588730D01*
X119833166Y-73574449D01*
X119800619Y-73559020D01*
X119766834Y-73574449D01*
X119676665Y-73588730D01*
X119676663Y-73588731D01*
X119666874Y-73590281D01*
X119546780Y-73651472D01*
X119451472Y-73746780D01*
X119390281Y-73866874D01*
X119388731Y-73876663D01*
X119388730Y-73876665D01*
X119376605Y-73953220D01*
X119369196Y-74000000D01*
X117959585Y-74000000D01*
X117960612Y-73993517D01*
X117939527Y-73860391D01*
X117878336Y-73740297D01*
X117783028Y-73644989D01*
X117662934Y-73583798D01*
X117653145Y-73582248D01*
X117653143Y-73582247D01*
X117539601Y-73564264D01*
X117529808Y-73562713D01*
X117520015Y-73564264D01*
X117406473Y-73582247D01*
X117406471Y-73582248D01*
X117396682Y-73583798D01*
X117276588Y-73644989D01*
X117181280Y-73740297D01*
X117120089Y-73860391D01*
X117118538Y-73870182D01*
X117118538Y-73870183D01*
X117109385Y-73927975D01*
X117078973Y-73992128D01*
X117018705Y-74029655D01*
X117004650Y-74032713D01*
X116966244Y-74038796D01*
X116946854Y-74041867D01*
X116946853Y-74041867D01*
X116937062Y-74043418D01*
X116816968Y-74104609D01*
X116721660Y-74199917D01*
X116660469Y-74320011D01*
X116658919Y-74329800D01*
X116658918Y-74329802D01*
X116646261Y-74409719D01*
X116639384Y-74453137D01*
X109551000Y-74453137D01*
X109551000Y-73746021D01*
X112033896Y-73746021D01*
X112035447Y-73755814D01*
X112049855Y-73846780D01*
X112054981Y-73879147D01*
X112116172Y-73999241D01*
X112211480Y-74094549D01*
X112331574Y-74155740D01*
X112341363Y-74157290D01*
X112341365Y-74157291D01*
X112454907Y-74175274D01*
X112464700Y-74176825D01*
X112474493Y-74175274D01*
X112588035Y-74157291D01*
X112588037Y-74157290D01*
X112597826Y-74155740D01*
X112717920Y-74094549D01*
X112813228Y-73999241D01*
X112874419Y-73879147D01*
X112885123Y-73811562D01*
X112915535Y-73747410D01*
X112975803Y-73709883D01*
X112989858Y-73706825D01*
X113032949Y-73700000D01*
X113047654Y-73697671D01*
X113047655Y-73697671D01*
X113057446Y-73696120D01*
X113177540Y-73634929D01*
X113272848Y-73539621D01*
X113334039Y-73419527D01*
X113336419Y-73404504D01*
X113353573Y-73296194D01*
X113355124Y-73286401D01*
X113334039Y-73153275D01*
X113272848Y-73033181D01*
X113177540Y-72937873D01*
X113103210Y-72900000D01*
X119369196Y-72900000D01*
X119370747Y-72909793D01*
X119376636Y-72946972D01*
X119390281Y-73033126D01*
X119451472Y-73153220D01*
X119546780Y-73248528D01*
X119666874Y-73309719D01*
X119676663Y-73311269D01*
X119676665Y-73311270D01*
X119766834Y-73325551D01*
X119799381Y-73340980D01*
X119833166Y-73325551D01*
X119923335Y-73311270D01*
X119923337Y-73311269D01*
X119933126Y-73309719D01*
X120053220Y-73248528D01*
X120148528Y-73153220D01*
X120209719Y-73033126D01*
X120223365Y-72946972D01*
X120229253Y-72909793D01*
X120230804Y-72900000D01*
X120223771Y-72855597D01*
X120211270Y-72776665D01*
X120211269Y-72776663D01*
X120209719Y-72766874D01*
X120148528Y-72646780D01*
X120053220Y-72551472D01*
X119952201Y-72500000D01*
X128369196Y-72500000D01*
X128370747Y-72509793D01*
X128376636Y-72546972D01*
X128390281Y-72633126D01*
X128451472Y-72753220D01*
X128546780Y-72848528D01*
X128666874Y-72909719D01*
X128676663Y-72911269D01*
X128676665Y-72911270D01*
X128790207Y-72929253D01*
X128800000Y-72930804D01*
X128809793Y-72929253D01*
X128923335Y-72911270D01*
X128923337Y-72911269D01*
X128933126Y-72909719D01*
X129053220Y-72848528D01*
X129148528Y-72753220D01*
X129209719Y-72633126D01*
X129223365Y-72546972D01*
X129229253Y-72509793D01*
X129230804Y-72500000D01*
X129220106Y-72432453D01*
X129211270Y-72376665D01*
X129211269Y-72376663D01*
X129209719Y-72366874D01*
X129148528Y-72246780D01*
X129053220Y-72151472D01*
X128933126Y-72090281D01*
X128923337Y-72088731D01*
X128923335Y-72088730D01*
X128809793Y-72070747D01*
X128800000Y-72069196D01*
X128790207Y-72070747D01*
X128676665Y-72088730D01*
X128676663Y-72088731D01*
X128666874Y-72090281D01*
X128546780Y-72151472D01*
X128451472Y-72246780D01*
X128390281Y-72366874D01*
X128388731Y-72376663D01*
X128388730Y-72376665D01*
X128379894Y-72432453D01*
X128369196Y-72500000D01*
X119952201Y-72500000D01*
X119933126Y-72490281D01*
X119923337Y-72488731D01*
X119923335Y-72488730D01*
X119809793Y-72470747D01*
X119800000Y-72469196D01*
X119790207Y-72470747D01*
X119676665Y-72488730D01*
X119676663Y-72488731D01*
X119666874Y-72490281D01*
X119546780Y-72551472D01*
X119451472Y-72646780D01*
X119390281Y-72766874D01*
X119388731Y-72776663D01*
X119388730Y-72776665D01*
X119376229Y-72855597D01*
X119369196Y-72900000D01*
X113103210Y-72900000D01*
X113057446Y-72876682D01*
X113047657Y-72875132D01*
X113047655Y-72875131D01*
X112934113Y-72857148D01*
X112924320Y-72855597D01*
X112914527Y-72857148D01*
X112800985Y-72875131D01*
X112800983Y-72875132D01*
X112791194Y-72876682D01*
X112671100Y-72937873D01*
X112575792Y-73033181D01*
X112514601Y-73153275D01*
X112513050Y-73163066D01*
X112513050Y-73163067D01*
X112503897Y-73220859D01*
X112473485Y-73285012D01*
X112413217Y-73322539D01*
X112399162Y-73325597D01*
X112366287Y-73330804D01*
X112341366Y-73334751D01*
X112341365Y-73334751D01*
X112331574Y-73336302D01*
X112211480Y-73397493D01*
X112116172Y-73492801D01*
X112054981Y-73612895D01*
X112053431Y-73622684D01*
X112053430Y-73622686D01*
X112041554Y-73697671D01*
X112033896Y-73746021D01*
X109551000Y-73746021D01*
X109551000Y-71448367D01*
X114014500Y-71448367D01*
X114017038Y-71457010D01*
X114017038Y-71457011D01*
X114049979Y-71569196D01*
X114053022Y-71579561D01*
X114126945Y-71694589D01*
X114133755Y-71700490D01*
X114133757Y-71700492D01*
X114223469Y-71778227D01*
X114230282Y-71784130D01*
X114265032Y-71800000D01*
X114346461Y-71837188D01*
X114346464Y-71837189D01*
X114354658Y-71840931D01*
X114363575Y-71842213D01*
X114451541Y-71854861D01*
X114451548Y-71854862D01*
X114455989Y-71855500D01*
X114524011Y-71855500D01*
X114528452Y-71854862D01*
X114528459Y-71854861D01*
X114616425Y-71842213D01*
X114625342Y-71840931D01*
X114693174Y-71809953D01*
X114763447Y-71799848D01*
X114828028Y-71829341D01*
X114866412Y-71889067D01*
X114869965Y-71904854D01*
X114890281Y-72033126D01*
X114951472Y-72153220D01*
X115046780Y-72248528D01*
X115166874Y-72309719D01*
X115176663Y-72311269D01*
X115176665Y-72311270D01*
X115290207Y-72329253D01*
X115300000Y-72330804D01*
X115309793Y-72329253D01*
X115423335Y-72311270D01*
X115423337Y-72311269D01*
X115433126Y-72309719D01*
X115553220Y-72248528D01*
X115648528Y-72153220D01*
X115709719Y-72033126D01*
X115714459Y-72003200D01*
X120465996Y-72003200D01*
X120467547Y-72012993D01*
X120479543Y-72088730D01*
X120487081Y-72136326D01*
X120548272Y-72256420D01*
X120643580Y-72351728D01*
X120763674Y-72412919D01*
X120773463Y-72414469D01*
X120773465Y-72414470D01*
X120887007Y-72432453D01*
X120896800Y-72434004D01*
X120906593Y-72432453D01*
X121020135Y-72414470D01*
X121020137Y-72414469D01*
X121029926Y-72412919D01*
X121150020Y-72351728D01*
X121160905Y-72340843D01*
X121223217Y-72306817D01*
X121294032Y-72311882D01*
X121331534Y-72335984D01*
X121331748Y-72335689D01*
X121336900Y-72339432D01*
X121339095Y-72340843D01*
X121346780Y-72348528D01*
X121466874Y-72409719D01*
X121476663Y-72411269D01*
X121476665Y-72411270D01*
X121590207Y-72429253D01*
X121600000Y-72430804D01*
X121609793Y-72429253D01*
X121723335Y-72411270D01*
X121723337Y-72411269D01*
X121733126Y-72409719D01*
X121853220Y-72348528D01*
X121910905Y-72290843D01*
X121973217Y-72256817D01*
X122044032Y-72261882D01*
X122089095Y-72290843D01*
X122146780Y-72348528D01*
X122266874Y-72409719D01*
X122276663Y-72411269D01*
X122276665Y-72411270D01*
X122390207Y-72429253D01*
X122400000Y-72430804D01*
X122409793Y-72429253D01*
X122523335Y-72411270D01*
X122523337Y-72411269D01*
X122533126Y-72409719D01*
X122653220Y-72348528D01*
X122710905Y-72290843D01*
X122773217Y-72256817D01*
X122844032Y-72261882D01*
X122889095Y-72290843D01*
X122946780Y-72348528D01*
X123066874Y-72409719D01*
X123076663Y-72411269D01*
X123076665Y-72411270D01*
X123190207Y-72429253D01*
X123200000Y-72430804D01*
X123209793Y-72429253D01*
X123323335Y-72411270D01*
X123323337Y-72411269D01*
X123333126Y-72409719D01*
X123453220Y-72348528D01*
X123548528Y-72253220D01*
X123609719Y-72133126D01*
X123619845Y-72069196D01*
X123629253Y-72009793D01*
X123630804Y-72000000D01*
X123614966Y-71900000D01*
X126169196Y-71900000D01*
X126190281Y-72033126D01*
X126251472Y-72153220D01*
X126346780Y-72248528D01*
X126466874Y-72309719D01*
X126476663Y-72311269D01*
X126476665Y-72311270D01*
X126590207Y-72329253D01*
X126600000Y-72330804D01*
X126609793Y-72329253D01*
X126723335Y-72311270D01*
X126723337Y-72311269D01*
X126733126Y-72309719D01*
X126853220Y-72248528D01*
X126948528Y-72153220D01*
X127009719Y-72033126D01*
X127030804Y-71900000D01*
X127022536Y-71847799D01*
X127014966Y-71800000D01*
X129969196Y-71800000D01*
X129970747Y-71809793D01*
X129980295Y-71870074D01*
X129990281Y-71933126D01*
X130051472Y-72053220D01*
X130146780Y-72148528D01*
X130266874Y-72209719D01*
X130276663Y-72211269D01*
X130276665Y-72211270D01*
X130390207Y-72229253D01*
X130400000Y-72230804D01*
X130409793Y-72229253D01*
X130523335Y-72211270D01*
X130523337Y-72211269D01*
X130533126Y-72209719D01*
X130653220Y-72148528D01*
X130748528Y-72053220D01*
X130809719Y-71933126D01*
X130819706Y-71870074D01*
X130829253Y-71809793D01*
X130830804Y-71800000D01*
X132093698Y-71800000D01*
X132095249Y-71809793D01*
X132104797Y-71870074D01*
X132114783Y-71933126D01*
X132175974Y-72053220D01*
X132271282Y-72148528D01*
X132391376Y-72209719D01*
X132401165Y-72211269D01*
X132401167Y-72211270D01*
X132514709Y-72229253D01*
X132524502Y-72230804D01*
X132534295Y-72229253D01*
X132647837Y-72211270D01*
X132647839Y-72211269D01*
X132657628Y-72209719D01*
X132777722Y-72148528D01*
X132873030Y-72053220D01*
X132934221Y-71933126D01*
X132944208Y-71870074D01*
X132953755Y-71809793D01*
X132955306Y-71800000D01*
X132953386Y-71787875D01*
X132935772Y-71676665D01*
X132935771Y-71676663D01*
X132934221Y-71666874D01*
X132873030Y-71546780D01*
X132853074Y-71526824D01*
X132819048Y-71464512D01*
X132824113Y-71393697D01*
X132856188Y-71351496D01*
X132853220Y-71348528D01*
X132860905Y-71340843D01*
X132866683Y-71337688D01*
X132868142Y-71335768D01*
X132868288Y-71335662D01*
X132868886Y-71336485D01*
X132923217Y-71306817D01*
X132994032Y-71311882D01*
X133031534Y-71335984D01*
X133031748Y-71335689D01*
X133036900Y-71339432D01*
X133039095Y-71340843D01*
X133046780Y-71348528D01*
X133166874Y-71409719D01*
X133176663Y-71411269D01*
X133176665Y-71411270D01*
X133290207Y-71429253D01*
X133300000Y-71430804D01*
X133309793Y-71429253D01*
X133423335Y-71411270D01*
X133423337Y-71411269D01*
X133433126Y-71409719D01*
X133553220Y-71348528D01*
X133648528Y-71253220D01*
X133709719Y-71133126D01*
X133721265Y-71060231D01*
X133729253Y-71009793D01*
X133730804Y-71000000D01*
X133726084Y-70970198D01*
X133711270Y-70876665D01*
X133711269Y-70876663D01*
X133709719Y-70866874D01*
X133648528Y-70746780D01*
X133553220Y-70651472D01*
X133433126Y-70590281D01*
X133423337Y-70588731D01*
X133423335Y-70588730D01*
X133309793Y-70570747D01*
X133300000Y-70569196D01*
X133290207Y-70570747D01*
X133176665Y-70588730D01*
X133176663Y-70588731D01*
X133166874Y-70590281D01*
X133046780Y-70651472D01*
X133039095Y-70659157D01*
X133038075Y-70659714D01*
X133031748Y-70664311D01*
X133031154Y-70663493D01*
X132976783Y-70693183D01*
X132905968Y-70688118D01*
X132868466Y-70664016D01*
X132868252Y-70664311D01*
X132863100Y-70660568D01*
X132860905Y-70659157D01*
X132853220Y-70651472D01*
X132733126Y-70590281D01*
X132723337Y-70588731D01*
X132723335Y-70588730D01*
X132609793Y-70570747D01*
X132600000Y-70569196D01*
X132590207Y-70570747D01*
X132476665Y-70588730D01*
X132476663Y-70588731D01*
X132466874Y-70590281D01*
X132346780Y-70651472D01*
X132251472Y-70746780D01*
X132190281Y-70866874D01*
X132188731Y-70876663D01*
X132188730Y-70876665D01*
X132173916Y-70970198D01*
X132169196Y-71000000D01*
X132170747Y-71009793D01*
X132178736Y-71060231D01*
X132190281Y-71133126D01*
X132251472Y-71253220D01*
X132271428Y-71273176D01*
X132305454Y-71335488D01*
X132300389Y-71406303D01*
X132268314Y-71448504D01*
X132271282Y-71451472D01*
X132175974Y-71546780D01*
X132114783Y-71666874D01*
X132113233Y-71676663D01*
X132113232Y-71676665D01*
X132095618Y-71787875D01*
X132093698Y-71800000D01*
X130830804Y-71800000D01*
X130828884Y-71787875D01*
X130811270Y-71676665D01*
X130811269Y-71676663D01*
X130809719Y-71666874D01*
X130748528Y-71546780D01*
X130653220Y-71451472D01*
X130533126Y-71390281D01*
X130523337Y-71388731D01*
X130523335Y-71388730D01*
X130409793Y-71370747D01*
X130400000Y-71369196D01*
X130390207Y-71370747D01*
X130276665Y-71388730D01*
X130276663Y-71388731D01*
X130266874Y-71390281D01*
X130146780Y-71451472D01*
X130051472Y-71546780D01*
X129990281Y-71666874D01*
X129988731Y-71676663D01*
X129988730Y-71676665D01*
X129971116Y-71787875D01*
X129969196Y-71800000D01*
X127014966Y-71800000D01*
X127011270Y-71776665D01*
X127011269Y-71776663D01*
X127009719Y-71766874D01*
X126948528Y-71646780D01*
X126853220Y-71551472D01*
X126733126Y-71490281D01*
X126723337Y-71488731D01*
X126723335Y-71488730D01*
X126609793Y-71470747D01*
X126600000Y-71469196D01*
X126590207Y-71470747D01*
X126476665Y-71488730D01*
X126476663Y-71488731D01*
X126466874Y-71490281D01*
X126346780Y-71551472D01*
X126251472Y-71646780D01*
X126190281Y-71766874D01*
X126188731Y-71776663D01*
X126188730Y-71776665D01*
X126177464Y-71847799D01*
X126169196Y-71900000D01*
X123614966Y-71900000D01*
X123609719Y-71866874D01*
X123548528Y-71746780D01*
X123453220Y-71651472D01*
X123333126Y-71590281D01*
X123323337Y-71588731D01*
X123323335Y-71588730D01*
X123209793Y-71570747D01*
X123200000Y-71569196D01*
X123190207Y-71570747D01*
X123076665Y-71588730D01*
X123076663Y-71588731D01*
X123066874Y-71590281D01*
X122946780Y-71651472D01*
X122889095Y-71709157D01*
X122826783Y-71743183D01*
X122755968Y-71738118D01*
X122710905Y-71709157D01*
X122653220Y-71651472D01*
X122533126Y-71590281D01*
X122523337Y-71588731D01*
X122523335Y-71588730D01*
X122409793Y-71570747D01*
X122400000Y-71569196D01*
X122390207Y-71570747D01*
X122276665Y-71588730D01*
X122276663Y-71588731D01*
X122266874Y-71590281D01*
X122146780Y-71651472D01*
X122089095Y-71709157D01*
X122026783Y-71743183D01*
X121955968Y-71738118D01*
X121910905Y-71709157D01*
X121853220Y-71651472D01*
X121733126Y-71590281D01*
X121723337Y-71588731D01*
X121723335Y-71588730D01*
X121609793Y-71570747D01*
X121600000Y-71569196D01*
X121590207Y-71570747D01*
X121476665Y-71588730D01*
X121476663Y-71588731D01*
X121466874Y-71590281D01*
X121346780Y-71651472D01*
X121335895Y-71662357D01*
X121273583Y-71696383D01*
X121202768Y-71691318D01*
X121165266Y-71667216D01*
X121165052Y-71667511D01*
X121159900Y-71663768D01*
X121157705Y-71662357D01*
X121150020Y-71654672D01*
X121029926Y-71593481D01*
X121020137Y-71591931D01*
X121020135Y-71591930D01*
X120906593Y-71573947D01*
X120896800Y-71572396D01*
X120887007Y-71573947D01*
X120773465Y-71591930D01*
X120773463Y-71591931D01*
X120763674Y-71593481D01*
X120643580Y-71654672D01*
X120548272Y-71749980D01*
X120487081Y-71870074D01*
X120485531Y-71879863D01*
X120485530Y-71879865D01*
X120468054Y-71990207D01*
X120465996Y-72003200D01*
X115714459Y-72003200D01*
X115730804Y-71900000D01*
X115722536Y-71847799D01*
X115711270Y-71776665D01*
X115711269Y-71776663D01*
X115709719Y-71766874D01*
X115648528Y-71646780D01*
X115553220Y-71551472D01*
X115433126Y-71490281D01*
X115423337Y-71488731D01*
X115423335Y-71488730D01*
X115309793Y-71470747D01*
X115300000Y-71469196D01*
X115290207Y-71470747D01*
X115176665Y-71488730D01*
X115176663Y-71488731D01*
X115166874Y-71490281D01*
X115148704Y-71499539D01*
X115078928Y-71512644D01*
X115013143Y-71485945D01*
X114972236Y-71427918D01*
X114965500Y-71387273D01*
X114965500Y-71311633D01*
X114950407Y-71260231D01*
X114929518Y-71189089D01*
X114929518Y-71189088D01*
X114926978Y-71180439D01*
X114853055Y-71065411D01*
X114846245Y-71059510D01*
X114846243Y-71059508D01*
X114756531Y-70981773D01*
X114756529Y-70981772D01*
X114749718Y-70975870D01*
X114675464Y-70941959D01*
X114633539Y-70922812D01*
X114633536Y-70922811D01*
X114625342Y-70919069D01*
X114608164Y-70916599D01*
X114528459Y-70905139D01*
X114528452Y-70905138D01*
X114524011Y-70904500D01*
X114455989Y-70904500D01*
X114451548Y-70905138D01*
X114451541Y-70905139D01*
X114371836Y-70916599D01*
X114354658Y-70919069D01*
X114346464Y-70922811D01*
X114346461Y-70922812D01*
X114304536Y-70941959D01*
X114230282Y-70975870D01*
X114223471Y-70981772D01*
X114223469Y-70981773D01*
X114133757Y-71059508D01*
X114133755Y-71059510D01*
X114126945Y-71065411D01*
X114053022Y-71180439D01*
X114050482Y-71189088D01*
X114050482Y-71189089D01*
X114029593Y-71260231D01*
X114014500Y-71311633D01*
X114014500Y-71448367D01*
X109551000Y-71448367D01*
X109551000Y-70800000D01*
X127869196Y-70800000D01*
X127870747Y-70809793D01*
X127888055Y-70919069D01*
X127890281Y-70933126D01*
X127951472Y-71053220D01*
X128046780Y-71148528D01*
X128166874Y-71209719D01*
X128176663Y-71211269D01*
X128176665Y-71211270D01*
X128290207Y-71229253D01*
X128300000Y-71230804D01*
X128309793Y-71229253D01*
X128423335Y-71211270D01*
X128423337Y-71211269D01*
X128433126Y-71209719D01*
X128553220Y-71148528D01*
X128648528Y-71053220D01*
X128709719Y-70933126D01*
X128711946Y-70919069D01*
X128729253Y-70809793D01*
X128730804Y-70800000D01*
X128723774Y-70755612D01*
X128711270Y-70676665D01*
X128711269Y-70676663D01*
X128709719Y-70666874D01*
X128648528Y-70546780D01*
X128553220Y-70451472D01*
X128433126Y-70390281D01*
X128423337Y-70388731D01*
X128423335Y-70388730D01*
X128309793Y-70370747D01*
X128300000Y-70369196D01*
X128290207Y-70370747D01*
X128176665Y-70388730D01*
X128176663Y-70388731D01*
X128166874Y-70390281D01*
X128046780Y-70451472D01*
X127951472Y-70546780D01*
X127890281Y-70666874D01*
X127888731Y-70676663D01*
X127888730Y-70676665D01*
X127876226Y-70755612D01*
X127869196Y-70800000D01*
X109551000Y-70800000D01*
X109551000Y-70000000D01*
X116169196Y-70000000D01*
X116190281Y-70133126D01*
X116251472Y-70253220D01*
X116346780Y-70348528D01*
X116466874Y-70409719D01*
X116476663Y-70411269D01*
X116476665Y-70411270D01*
X116590207Y-70429253D01*
X116600000Y-70430804D01*
X116609793Y-70429253D01*
X116723335Y-70411270D01*
X116723337Y-70411269D01*
X116733126Y-70409719D01*
X116853220Y-70348528D01*
X116901748Y-70300000D01*
X119869196Y-70300000D01*
X119870747Y-70309793D01*
X119886574Y-70409719D01*
X119890281Y-70433126D01*
X119951472Y-70553220D01*
X120046780Y-70648528D01*
X120166874Y-70709719D01*
X120176663Y-70711269D01*
X120176665Y-70711270D01*
X120290207Y-70729253D01*
X120300000Y-70730804D01*
X120309793Y-70729253D01*
X120423335Y-70711270D01*
X120423337Y-70711269D01*
X120433126Y-70709719D01*
X120553220Y-70648528D01*
X120648528Y-70553220D01*
X120687733Y-70476276D01*
X120736481Y-70424661D01*
X120805396Y-70407595D01*
X120872598Y-70430496D01*
X120912267Y-70476276D01*
X120951472Y-70553220D01*
X121046780Y-70648528D01*
X121166874Y-70709719D01*
X121176663Y-70711269D01*
X121176665Y-70711270D01*
X121290207Y-70729253D01*
X121300000Y-70730804D01*
X121309793Y-70729253D01*
X121423335Y-70711270D01*
X121423337Y-70711269D01*
X121433126Y-70709719D01*
X121553220Y-70648528D01*
X121560905Y-70640843D01*
X121561925Y-70640286D01*
X121568252Y-70635689D01*
X121568846Y-70636507D01*
X121623217Y-70606817D01*
X121694032Y-70611882D01*
X121731534Y-70635984D01*
X121731748Y-70635689D01*
X121736900Y-70639432D01*
X121739095Y-70640843D01*
X121746780Y-70648528D01*
X121866874Y-70709719D01*
X121876663Y-70711269D01*
X121876665Y-70711270D01*
X121990207Y-70729253D01*
X122000000Y-70730804D01*
X122009793Y-70729253D01*
X122123335Y-70711270D01*
X122123337Y-70711269D01*
X122133126Y-70709719D01*
X122253220Y-70648528D01*
X122348528Y-70553220D01*
X122409719Y-70433126D01*
X122413427Y-70409719D01*
X122429253Y-70309793D01*
X122430804Y-70300000D01*
X122769196Y-70300000D01*
X122770747Y-70309793D01*
X122786574Y-70409719D01*
X122790281Y-70433126D01*
X122851472Y-70553220D01*
X122946780Y-70648528D01*
X123066874Y-70709719D01*
X123076663Y-70711269D01*
X123076665Y-70711270D01*
X123190207Y-70729253D01*
X123200000Y-70730804D01*
X123209793Y-70729253D01*
X123323335Y-70711270D01*
X123323337Y-70711269D01*
X123333126Y-70709719D01*
X123453220Y-70648528D01*
X123548528Y-70553220D01*
X123609719Y-70433126D01*
X123613427Y-70409719D01*
X123629253Y-70309793D01*
X123630804Y-70300000D01*
X123613763Y-70192405D01*
X123611270Y-70176665D01*
X123611269Y-70176663D01*
X123609719Y-70166874D01*
X123548528Y-70046780D01*
X123501748Y-70000000D01*
X126769196Y-70000000D01*
X126790281Y-70133126D01*
X126851472Y-70253220D01*
X126946780Y-70348528D01*
X127066874Y-70409719D01*
X127076663Y-70411269D01*
X127076665Y-70411270D01*
X127190207Y-70429253D01*
X127200000Y-70430804D01*
X127209793Y-70429253D01*
X127323335Y-70411270D01*
X127323337Y-70411269D01*
X127333126Y-70409719D01*
X127453220Y-70348528D01*
X127548528Y-70253220D01*
X127609719Y-70133126D01*
X127630804Y-70000000D01*
X127627127Y-69976783D01*
X127611270Y-69876665D01*
X127611269Y-69876663D01*
X127609719Y-69866874D01*
X127548528Y-69746780D01*
X127453220Y-69651472D01*
X127333126Y-69590281D01*
X127323337Y-69588731D01*
X127323335Y-69588730D01*
X127209793Y-69570747D01*
X127200000Y-69569196D01*
X127190207Y-69570747D01*
X127076665Y-69588730D01*
X127076663Y-69588731D01*
X127066874Y-69590281D01*
X126946780Y-69651472D01*
X126851472Y-69746780D01*
X126790281Y-69866874D01*
X126788731Y-69876663D01*
X126788730Y-69876665D01*
X126772873Y-69976783D01*
X126769196Y-70000000D01*
X123501748Y-70000000D01*
X123453220Y-69951472D01*
X123333126Y-69890281D01*
X123323337Y-69888731D01*
X123323335Y-69888730D01*
X123209793Y-69870747D01*
X123200000Y-69869196D01*
X123190207Y-69870747D01*
X123076665Y-69888730D01*
X123076663Y-69888731D01*
X123066874Y-69890281D01*
X122946780Y-69951472D01*
X122851472Y-70046780D01*
X122790281Y-70166874D01*
X122788731Y-70176663D01*
X122788730Y-70176665D01*
X122786237Y-70192405D01*
X122769196Y-70300000D01*
X122430804Y-70300000D01*
X122413763Y-70192405D01*
X122411270Y-70176665D01*
X122411269Y-70176663D01*
X122409719Y-70166874D01*
X122348528Y-70046780D01*
X122253220Y-69951472D01*
X122133126Y-69890281D01*
X122123337Y-69888731D01*
X122123335Y-69888730D01*
X122009793Y-69870747D01*
X122000000Y-69869196D01*
X121990207Y-69870747D01*
X121876665Y-69888730D01*
X121876663Y-69888731D01*
X121866874Y-69890281D01*
X121746780Y-69951472D01*
X121739095Y-69959157D01*
X121738075Y-69959714D01*
X121731748Y-69964311D01*
X121731154Y-69963493D01*
X121676783Y-69993183D01*
X121605968Y-69988118D01*
X121568466Y-69964016D01*
X121568252Y-69964311D01*
X121563100Y-69960568D01*
X121560905Y-69959157D01*
X121553220Y-69951472D01*
X121433126Y-69890281D01*
X121423337Y-69888731D01*
X121423335Y-69888730D01*
X121309793Y-69870747D01*
X121300000Y-69869196D01*
X121290207Y-69870747D01*
X121176665Y-69888730D01*
X121176663Y-69888731D01*
X121166874Y-69890281D01*
X121046780Y-69951472D01*
X120951472Y-70046780D01*
X120946972Y-70055612D01*
X120912267Y-70123724D01*
X120863519Y-70175339D01*
X120794604Y-70192405D01*
X120727402Y-70169504D01*
X120687733Y-70123724D01*
X120653028Y-70055612D01*
X120648528Y-70046780D01*
X120640843Y-70039095D01*
X120640286Y-70038075D01*
X120635689Y-70031748D01*
X120636507Y-70031154D01*
X120606817Y-69976783D01*
X120611882Y-69905968D01*
X120635984Y-69868466D01*
X120635689Y-69868252D01*
X120639432Y-69863100D01*
X120640843Y-69860905D01*
X120648528Y-69853220D01*
X120709719Y-69733126D01*
X120723365Y-69646972D01*
X120729253Y-69609793D01*
X120730804Y-69600000D01*
X120709719Y-69466874D01*
X120701621Y-69450981D01*
X137769196Y-69450981D01*
X137790281Y-69584107D01*
X137851472Y-69704201D01*
X137946780Y-69799509D01*
X138066874Y-69860700D01*
X138076663Y-69862250D01*
X138076665Y-69862251D01*
X138190207Y-69880234D01*
X138200000Y-69881785D01*
X138209793Y-69880234D01*
X138323335Y-69862251D01*
X138323337Y-69862250D01*
X138333126Y-69860700D01*
X138453220Y-69799509D01*
X138548528Y-69704201D01*
X138601621Y-69600000D01*
X139469196Y-69600000D01*
X139470747Y-69609793D01*
X139476636Y-69646972D01*
X139490281Y-69733126D01*
X139551472Y-69853220D01*
X139646780Y-69948528D01*
X139766874Y-70009719D01*
X139776663Y-70011269D01*
X139776665Y-70011270D01*
X139890207Y-70029253D01*
X139900000Y-70030804D01*
X139909793Y-70029253D01*
X140023335Y-70011270D01*
X140023337Y-70011269D01*
X140033126Y-70009719D01*
X140153220Y-69948528D01*
X140248528Y-69853220D01*
X140309719Y-69733126D01*
X140323365Y-69646972D01*
X140329253Y-69609793D01*
X140330804Y-69600000D01*
X140309719Y-69466874D01*
X140248528Y-69346780D01*
X140153220Y-69251472D01*
X140033126Y-69190281D01*
X140023337Y-69188731D01*
X140023335Y-69188730D01*
X139933166Y-69174449D01*
X139900619Y-69159020D01*
X139866834Y-69174449D01*
X139776665Y-69188730D01*
X139776663Y-69188731D01*
X139766874Y-69190281D01*
X139646780Y-69251472D01*
X139551472Y-69346780D01*
X139490281Y-69466874D01*
X139469196Y-69600000D01*
X138601621Y-69600000D01*
X138609719Y-69584107D01*
X138630804Y-69450981D01*
X138612922Y-69338075D01*
X138611270Y-69327646D01*
X138611269Y-69327644D01*
X138609719Y-69317855D01*
X138548528Y-69197761D01*
X138453220Y-69102453D01*
X138333126Y-69041262D01*
X138323337Y-69039712D01*
X138323335Y-69039711D01*
X138209793Y-69021728D01*
X138200000Y-69020177D01*
X138190207Y-69021728D01*
X138076665Y-69039711D01*
X138076663Y-69039712D01*
X138066874Y-69041262D01*
X137946780Y-69102453D01*
X137851472Y-69197761D01*
X137790281Y-69317855D01*
X137788731Y-69327644D01*
X137788730Y-69327646D01*
X137787078Y-69338075D01*
X137769196Y-69450981D01*
X120701621Y-69450981D01*
X120648528Y-69346780D01*
X120640843Y-69339095D01*
X120640286Y-69338075D01*
X120635689Y-69331748D01*
X120636507Y-69331154D01*
X120606817Y-69276783D01*
X120611882Y-69205968D01*
X120635984Y-69168466D01*
X120635689Y-69168252D01*
X120639432Y-69163100D01*
X120640843Y-69160905D01*
X120648528Y-69153220D01*
X120709719Y-69033126D01*
X120711525Y-69021728D01*
X120729253Y-68909793D01*
X120730804Y-68900000D01*
X120729253Y-68890207D01*
X120711270Y-68776665D01*
X120711269Y-68776663D01*
X120709719Y-68766874D01*
X120648528Y-68646780D01*
X120553220Y-68551472D01*
X120433126Y-68490281D01*
X120423337Y-68488731D01*
X120423335Y-68488730D01*
X120309793Y-68470747D01*
X120300000Y-68469196D01*
X120290207Y-68470747D01*
X120176665Y-68488730D01*
X120176663Y-68488731D01*
X120166874Y-68490281D01*
X120046780Y-68551472D01*
X119951472Y-68646780D01*
X119890281Y-68766874D01*
X119888731Y-68776663D01*
X119888730Y-68776665D01*
X119870747Y-68890207D01*
X119869196Y-68900000D01*
X119870747Y-68909793D01*
X119888476Y-69021728D01*
X119890281Y-69033126D01*
X119951472Y-69153220D01*
X119959157Y-69160905D01*
X119959714Y-69161925D01*
X119964311Y-69168252D01*
X119963493Y-69168846D01*
X119993183Y-69223217D01*
X119988118Y-69294032D01*
X119964016Y-69331534D01*
X119964311Y-69331748D01*
X119960568Y-69336900D01*
X119959157Y-69339095D01*
X119951472Y-69346780D01*
X119890281Y-69466874D01*
X119869196Y-69600000D01*
X119870747Y-69609793D01*
X119876636Y-69646972D01*
X119890281Y-69733126D01*
X119951472Y-69853220D01*
X119959157Y-69860905D01*
X119959714Y-69861925D01*
X119964311Y-69868252D01*
X119963493Y-69868846D01*
X119993183Y-69923217D01*
X119988118Y-69994032D01*
X119964016Y-70031534D01*
X119964311Y-70031748D01*
X119960568Y-70036900D01*
X119959157Y-70039095D01*
X119951472Y-70046780D01*
X119890281Y-70166874D01*
X119888731Y-70176663D01*
X119888730Y-70176665D01*
X119886237Y-70192405D01*
X119869196Y-70300000D01*
X116901748Y-70300000D01*
X116948528Y-70253220D01*
X117009719Y-70133126D01*
X117030804Y-70000000D01*
X117027127Y-69976783D01*
X117011270Y-69876665D01*
X117011269Y-69876663D01*
X117009719Y-69866874D01*
X116948528Y-69746780D01*
X116853220Y-69651472D01*
X116733126Y-69590281D01*
X116723337Y-69588731D01*
X116723335Y-69588730D01*
X116609793Y-69570747D01*
X116600000Y-69569196D01*
X116590207Y-69570747D01*
X116476665Y-69588730D01*
X116476663Y-69588731D01*
X116466874Y-69590281D01*
X116346780Y-69651472D01*
X116251472Y-69746780D01*
X116190281Y-69866874D01*
X116188731Y-69876663D01*
X116188730Y-69876665D01*
X116172873Y-69976783D01*
X116169196Y-70000000D01*
X109551000Y-70000000D01*
X109551000Y-67900000D01*
X116069196Y-67900000D01*
X116070747Y-67909793D01*
X116078736Y-67960231D01*
X116090281Y-68033126D01*
X116151472Y-68153220D01*
X116246780Y-68248528D01*
X116366874Y-68309719D01*
X116376663Y-68311269D01*
X116376665Y-68311270D01*
X116490207Y-68329253D01*
X116500000Y-68330804D01*
X116509793Y-68329253D01*
X116623335Y-68311270D01*
X116623337Y-68311269D01*
X116633126Y-68309719D01*
X116652201Y-68300000D01*
X118185196Y-68300000D01*
X118206281Y-68433126D01*
X118267472Y-68553220D01*
X118362780Y-68648528D01*
X118482874Y-68709719D01*
X118492663Y-68711269D01*
X118492665Y-68711270D01*
X118606207Y-68729253D01*
X118616000Y-68730804D01*
X118625793Y-68729253D01*
X118739335Y-68711270D01*
X118739337Y-68711269D01*
X118749126Y-68709719D01*
X118869220Y-68648528D01*
X118964528Y-68553220D01*
X119025719Y-68433126D01*
X119046804Y-68300000D01*
X124869196Y-68300000D01*
X124890281Y-68433126D01*
X124951472Y-68553220D01*
X125046780Y-68648528D01*
X125166874Y-68709719D01*
X125176663Y-68711269D01*
X125176665Y-68711270D01*
X125290207Y-68729253D01*
X125300000Y-68730804D01*
X125309793Y-68729253D01*
X125423335Y-68711270D01*
X125423337Y-68711269D01*
X125433126Y-68709719D01*
X125553220Y-68648528D01*
X125648528Y-68553220D01*
X125675645Y-68500000D01*
X139469196Y-68500000D01*
X139470747Y-68509793D01*
X139478736Y-68560231D01*
X139490281Y-68633126D01*
X139551472Y-68753220D01*
X139646780Y-68848528D01*
X139766874Y-68909719D01*
X139776663Y-68911269D01*
X139776665Y-68911270D01*
X139866834Y-68925551D01*
X139899381Y-68940980D01*
X139933166Y-68925551D01*
X140023335Y-68911270D01*
X140023337Y-68911269D01*
X140033126Y-68909719D01*
X140153220Y-68848528D01*
X140248528Y-68753220D01*
X140309719Y-68633126D01*
X140321265Y-68560231D01*
X140329253Y-68509793D01*
X140330804Y-68500000D01*
X140309719Y-68366874D01*
X140248528Y-68246780D01*
X140153220Y-68151472D01*
X140033126Y-68090281D01*
X140023337Y-68088731D01*
X140023335Y-68088730D01*
X139909793Y-68070747D01*
X139900000Y-68069196D01*
X139890207Y-68070747D01*
X139776665Y-68088730D01*
X139776663Y-68088731D01*
X139766874Y-68090281D01*
X139646780Y-68151472D01*
X139551472Y-68246780D01*
X139490281Y-68366874D01*
X139469196Y-68500000D01*
X125675645Y-68500000D01*
X125709719Y-68433126D01*
X125730804Y-68300000D01*
X125723774Y-68255612D01*
X125711270Y-68176665D01*
X125711269Y-68176663D01*
X125709719Y-68166874D01*
X125648528Y-68046780D01*
X125553220Y-67951472D01*
X125433126Y-67890281D01*
X125423337Y-67888731D01*
X125423335Y-67888730D01*
X125309793Y-67870747D01*
X125300000Y-67869196D01*
X125290207Y-67870747D01*
X125176665Y-67888730D01*
X125176663Y-67888731D01*
X125166874Y-67890281D01*
X125046780Y-67951472D01*
X124951472Y-68046780D01*
X124890281Y-68166874D01*
X124888731Y-68176663D01*
X124888730Y-68176665D01*
X124876226Y-68255612D01*
X124869196Y-68300000D01*
X119046804Y-68300000D01*
X119039774Y-68255612D01*
X119027270Y-68176665D01*
X119027269Y-68176663D01*
X119025719Y-68166874D01*
X118964528Y-68046780D01*
X118869220Y-67951472D01*
X118749126Y-67890281D01*
X118739337Y-67888731D01*
X118739335Y-67888730D01*
X118625793Y-67870747D01*
X118616000Y-67869196D01*
X118606207Y-67870747D01*
X118492665Y-67888730D01*
X118492663Y-67888731D01*
X118482874Y-67890281D01*
X118362780Y-67951472D01*
X118267472Y-68046780D01*
X118206281Y-68166874D01*
X118204731Y-68176663D01*
X118204730Y-68176665D01*
X118192226Y-68255612D01*
X118185196Y-68300000D01*
X116652201Y-68300000D01*
X116753220Y-68248528D01*
X116848528Y-68153220D01*
X116909719Y-68033126D01*
X116921265Y-67960231D01*
X116929253Y-67909793D01*
X116930804Y-67900000D01*
X116925925Y-67869196D01*
X116911270Y-67776665D01*
X116911269Y-67776663D01*
X116909719Y-67766874D01*
X116848528Y-67646780D01*
X116753220Y-67551472D01*
X116633126Y-67490281D01*
X116623337Y-67488731D01*
X116623335Y-67488730D01*
X116509793Y-67470747D01*
X116500000Y-67469196D01*
X116490207Y-67470747D01*
X116376665Y-67488730D01*
X116376663Y-67488731D01*
X116366874Y-67490281D01*
X116246780Y-67551472D01*
X116151472Y-67646780D01*
X116090281Y-67766874D01*
X116088731Y-67776663D01*
X116088730Y-67776665D01*
X116074075Y-67869196D01*
X116069196Y-67900000D01*
X109551000Y-67900000D01*
X109551000Y-67352604D01*
X109566446Y-67300000D01*
X114569196Y-67300000D01*
X114570747Y-67309793D01*
X114586899Y-67411770D01*
X114590281Y-67433126D01*
X114651472Y-67553220D01*
X114746780Y-67648528D01*
X114866874Y-67709719D01*
X114876663Y-67711269D01*
X114876665Y-67711270D01*
X114990207Y-67729253D01*
X115000000Y-67730804D01*
X115009793Y-67729253D01*
X115123335Y-67711270D01*
X115123337Y-67711269D01*
X115133126Y-67709719D01*
X115253220Y-67648528D01*
X115348528Y-67553220D01*
X115409719Y-67433126D01*
X115413102Y-67411770D01*
X115429253Y-67309793D01*
X115430804Y-67300000D01*
X115425557Y-67266874D01*
X115411270Y-67176665D01*
X115411269Y-67176663D01*
X115409719Y-67166874D01*
X115348528Y-67046780D01*
X115299352Y-66997604D01*
X118094928Y-66997604D01*
X118096479Y-67007397D01*
X118111335Y-67101191D01*
X118116013Y-67130730D01*
X118177204Y-67250824D01*
X118272512Y-67346132D01*
X118392606Y-67407323D01*
X118402395Y-67408873D01*
X118402397Y-67408874D01*
X118515939Y-67426857D01*
X118525732Y-67428408D01*
X118535525Y-67426857D01*
X118649067Y-67408874D01*
X118649069Y-67408873D01*
X118658858Y-67407323D01*
X118673230Y-67400000D01*
X119869196Y-67400000D01*
X119870747Y-67409793D01*
X119887601Y-67516202D01*
X119890281Y-67533126D01*
X119951472Y-67653220D01*
X120046780Y-67748528D01*
X120166874Y-67809719D01*
X120176663Y-67811269D01*
X120176665Y-67811270D01*
X120290207Y-67829253D01*
X120300000Y-67830804D01*
X120309793Y-67829253D01*
X120423335Y-67811270D01*
X120423337Y-67811269D01*
X120433126Y-67809719D01*
X120553220Y-67748528D01*
X120648528Y-67653220D01*
X120709719Y-67533126D01*
X120712400Y-67516202D01*
X120729253Y-67409793D01*
X120730804Y-67400000D01*
X120729253Y-67390207D01*
X120711270Y-67276665D01*
X120711269Y-67276663D01*
X120709719Y-67266874D01*
X120648528Y-67146780D01*
X120590843Y-67089095D01*
X120556817Y-67026783D01*
X120558733Y-67000000D01*
X130169196Y-67000000D01*
X130170747Y-67009793D01*
X130181171Y-67075605D01*
X130190281Y-67133126D01*
X130251472Y-67253220D01*
X130346780Y-67348528D01*
X130466874Y-67409719D01*
X130476663Y-67411269D01*
X130476665Y-67411270D01*
X130590207Y-67429253D01*
X130600000Y-67430804D01*
X130609793Y-67429253D01*
X130723335Y-67411270D01*
X130723337Y-67411269D01*
X130733126Y-67409719D01*
X130853220Y-67348528D01*
X130872960Y-67328788D01*
X130935272Y-67294762D01*
X131006087Y-67299827D01*
X131062923Y-67342374D01*
X131087734Y-67408894D01*
X131086504Y-67437593D01*
X131077156Y-67496615D01*
X131075605Y-67506409D01*
X131077156Y-67516202D01*
X131084130Y-67560231D01*
X131096690Y-67639535D01*
X131157881Y-67759629D01*
X131253189Y-67854937D01*
X131373283Y-67916128D01*
X131383072Y-67917678D01*
X131383074Y-67917679D01*
X131496616Y-67935662D01*
X131506409Y-67937213D01*
X131516202Y-67935662D01*
X131629744Y-67917679D01*
X131629746Y-67917678D01*
X131639535Y-67916128D01*
X131759629Y-67854937D01*
X131854937Y-67759629D01*
X131892570Y-67685770D01*
X131941318Y-67634155D01*
X132010233Y-67617089D01*
X132077435Y-67639990D01*
X132117103Y-67685770D01*
X132146968Y-67744383D01*
X132146972Y-67744388D01*
X132151472Y-67753220D01*
X132246780Y-67848528D01*
X132366874Y-67909719D01*
X132376663Y-67911269D01*
X132376665Y-67911270D01*
X132490207Y-67929253D01*
X132500000Y-67930804D01*
X132509793Y-67929253D01*
X132623335Y-67911270D01*
X132623337Y-67911269D01*
X132633126Y-67909719D01*
X132753220Y-67848528D01*
X132848528Y-67753220D01*
X132875645Y-67700000D01*
X137269196Y-67700000D01*
X137270747Y-67709793D01*
X137286574Y-67809719D01*
X137290281Y-67833126D01*
X137351472Y-67953220D01*
X137446780Y-68048528D01*
X137566874Y-68109719D01*
X137576663Y-68111269D01*
X137576665Y-68111270D01*
X137690207Y-68129253D01*
X137700000Y-68130804D01*
X137709793Y-68129253D01*
X137823335Y-68111270D01*
X137823337Y-68111269D01*
X137833126Y-68109719D01*
X137953220Y-68048528D01*
X138048528Y-67953220D01*
X138109719Y-67833126D01*
X138113427Y-67809719D01*
X138129253Y-67709793D01*
X138130804Y-67700000D01*
X138123395Y-67653220D01*
X138111270Y-67576665D01*
X138111269Y-67576663D01*
X138109719Y-67566874D01*
X138048528Y-67446780D01*
X137953220Y-67351472D01*
X137833126Y-67290281D01*
X137823337Y-67288731D01*
X137823335Y-67288730D01*
X137709793Y-67270747D01*
X137700000Y-67269196D01*
X137690207Y-67270747D01*
X137576665Y-67288730D01*
X137576663Y-67288731D01*
X137566874Y-67290281D01*
X137446780Y-67351472D01*
X137351472Y-67446780D01*
X137290281Y-67566874D01*
X137288731Y-67576663D01*
X137288730Y-67576665D01*
X137276605Y-67653220D01*
X137269196Y-67700000D01*
X132875645Y-67700000D01*
X132909719Y-67633126D01*
X132921265Y-67560231D01*
X132929253Y-67509793D01*
X132930804Y-67500000D01*
X132921611Y-67441959D01*
X132911270Y-67376665D01*
X132911269Y-67376663D01*
X132909719Y-67366874D01*
X132848528Y-67246780D01*
X132753220Y-67151472D01*
X132633126Y-67090281D01*
X132623337Y-67088731D01*
X132623335Y-67088730D01*
X132509793Y-67070747D01*
X132500000Y-67069196D01*
X132490207Y-67070747D01*
X132376665Y-67088730D01*
X132376663Y-67088731D01*
X132366874Y-67090281D01*
X132246780Y-67151472D01*
X132151472Y-67246780D01*
X132139260Y-67270747D01*
X132113839Y-67320639D01*
X132065091Y-67372254D01*
X131996176Y-67389320D01*
X131928974Y-67366419D01*
X131889306Y-67320639D01*
X131859441Y-67262026D01*
X131859437Y-67262020D01*
X131854937Y-67253189D01*
X131759629Y-67157881D01*
X131639535Y-67096690D01*
X131629746Y-67095140D01*
X131629744Y-67095139D01*
X131516202Y-67077156D01*
X131506409Y-67075605D01*
X131496616Y-67077156D01*
X131383074Y-67095139D01*
X131383072Y-67095140D01*
X131373283Y-67096690D01*
X131253189Y-67157881D01*
X131233449Y-67177621D01*
X131171137Y-67211647D01*
X131100322Y-67206582D01*
X131043486Y-67164035D01*
X131018675Y-67097515D01*
X131019905Y-67068816D01*
X131029253Y-67009794D01*
X131029253Y-67009793D01*
X131030725Y-67000500D01*
X135269196Y-67000500D01*
X135270747Y-67010293D01*
X135288272Y-67120939D01*
X135290281Y-67133626D01*
X135351472Y-67253720D01*
X135446780Y-67349028D01*
X135566874Y-67410219D01*
X135576663Y-67411769D01*
X135576665Y-67411770D01*
X135690207Y-67429753D01*
X135700000Y-67431304D01*
X135709793Y-67429753D01*
X135823335Y-67411770D01*
X135823337Y-67411769D01*
X135833126Y-67410219D01*
X135953220Y-67349028D01*
X136048528Y-67253720D01*
X136109719Y-67133626D01*
X136111729Y-67120939D01*
X136129253Y-67010293D01*
X136130804Y-67000500D01*
X136123039Y-66951472D01*
X136111270Y-66877165D01*
X136111269Y-66877163D01*
X136109719Y-66867374D01*
X136048528Y-66747280D01*
X135953220Y-66651972D01*
X135833126Y-66590781D01*
X135823337Y-66589231D01*
X135823335Y-66589230D01*
X135709793Y-66571247D01*
X135700000Y-66569696D01*
X135690207Y-66571247D01*
X135576665Y-66589230D01*
X135576663Y-66589231D01*
X135566874Y-66590781D01*
X135446780Y-66651972D01*
X135351472Y-66747280D01*
X135290281Y-66867374D01*
X135288731Y-66877163D01*
X135288730Y-66877165D01*
X135276961Y-66951472D01*
X135269196Y-67000500D01*
X131030725Y-67000500D01*
X131030804Y-67000000D01*
X131029253Y-66990207D01*
X131011270Y-66876665D01*
X131011269Y-66876663D01*
X131009719Y-66866874D01*
X130948528Y-66746780D01*
X130940843Y-66739095D01*
X130940286Y-66738075D01*
X130935689Y-66731748D01*
X130936507Y-66731154D01*
X130906817Y-66676783D01*
X130911882Y-66605968D01*
X130935984Y-66568466D01*
X130935689Y-66568252D01*
X130939432Y-66563100D01*
X130940843Y-66560905D01*
X130948528Y-66553220D01*
X131009719Y-66433126D01*
X131030804Y-66300000D01*
X131010615Y-66172532D01*
X131019715Y-66102121D01*
X131065437Y-66047807D01*
X131115353Y-66028372D01*
X131202940Y-66014500D01*
X131223334Y-66011270D01*
X131223335Y-66011270D01*
X131233126Y-66009719D01*
X131353220Y-65948528D01*
X131448528Y-65853220D01*
X131509719Y-65733126D01*
X131530297Y-65603200D01*
X132372396Y-65603200D01*
X132373947Y-65612993D01*
X132384032Y-65676665D01*
X132393481Y-65736326D01*
X132454672Y-65856420D01*
X132549980Y-65951728D01*
X132670074Y-66012919D01*
X132679863Y-66014469D01*
X132679865Y-66014470D01*
X132793407Y-66032453D01*
X132803200Y-66034004D01*
X132812993Y-66032453D01*
X132926535Y-66014470D01*
X132926537Y-66014469D01*
X132936326Y-66012919D01*
X133056420Y-65951728D01*
X133151728Y-65856420D01*
X133153486Y-65852969D01*
X133207053Y-65811666D01*
X133277789Y-65805592D01*
X133340580Y-65838726D01*
X133349094Y-65848552D01*
X133351472Y-65853220D01*
X133446780Y-65948528D01*
X133566874Y-66009719D01*
X133576663Y-66011269D01*
X133576665Y-66011270D01*
X133690207Y-66029253D01*
X133700000Y-66030804D01*
X133709793Y-66029253D01*
X133823335Y-66011270D01*
X133823337Y-66011269D01*
X133833126Y-66009719D01*
X133953220Y-65948528D01*
X134048528Y-65853220D01*
X134109719Y-65733126D01*
X134130804Y-65600000D01*
X134125211Y-65564689D01*
X134111270Y-65476665D01*
X134111269Y-65476663D01*
X134109719Y-65466874D01*
X134048528Y-65346780D01*
X133953220Y-65251472D01*
X133833126Y-65190281D01*
X133823337Y-65188731D01*
X133823335Y-65188730D01*
X133709793Y-65170747D01*
X133700000Y-65169196D01*
X133690207Y-65170747D01*
X133576665Y-65188730D01*
X133576663Y-65188731D01*
X133566874Y-65190281D01*
X133446780Y-65251472D01*
X133351472Y-65346780D01*
X133349714Y-65350231D01*
X133296147Y-65391534D01*
X133225411Y-65397608D01*
X133162620Y-65364474D01*
X133154106Y-65354648D01*
X133151728Y-65349980D01*
X133056420Y-65254672D01*
X132936326Y-65193481D01*
X132926537Y-65191931D01*
X132926535Y-65191930D01*
X132812993Y-65173947D01*
X132803200Y-65172396D01*
X132793407Y-65173947D01*
X132679865Y-65191930D01*
X132679863Y-65191931D01*
X132670074Y-65193481D01*
X132549980Y-65254672D01*
X132454672Y-65349980D01*
X132393481Y-65470074D01*
X132391931Y-65479863D01*
X132391930Y-65479865D01*
X132376196Y-65579207D01*
X132372396Y-65603200D01*
X131530297Y-65603200D01*
X131530804Y-65600000D01*
X131525211Y-65564689D01*
X131511270Y-65476665D01*
X131511269Y-65476663D01*
X131509719Y-65466874D01*
X131448528Y-65346780D01*
X131353220Y-65251472D01*
X131233126Y-65190281D01*
X131223337Y-65188731D01*
X131223335Y-65188730D01*
X131109793Y-65170747D01*
X131100000Y-65169196D01*
X131090207Y-65170747D01*
X130976665Y-65188730D01*
X130976663Y-65188731D01*
X130966874Y-65190281D01*
X130846780Y-65251472D01*
X130751472Y-65346780D01*
X130690281Y-65466874D01*
X130688731Y-65476663D01*
X130688730Y-65476665D01*
X130674789Y-65564689D01*
X130669196Y-65600000D01*
X130681339Y-65676665D01*
X130689385Y-65727468D01*
X130680285Y-65797879D01*
X130634563Y-65852193D01*
X130584647Y-65871628D01*
X130517340Y-65882288D01*
X130476666Y-65888730D01*
X130476665Y-65888730D01*
X130466874Y-65890281D01*
X130346780Y-65951472D01*
X130251472Y-66046780D01*
X130190281Y-66166874D01*
X130188731Y-66176663D01*
X130188730Y-66176665D01*
X130178718Y-66239881D01*
X130169196Y-66300000D01*
X130190281Y-66433126D01*
X130251472Y-66553220D01*
X130259157Y-66560905D01*
X130259714Y-66561925D01*
X130264311Y-66568252D01*
X130263493Y-66568846D01*
X130293183Y-66623217D01*
X130288118Y-66694032D01*
X130264016Y-66731534D01*
X130264311Y-66731748D01*
X130260568Y-66736900D01*
X130259157Y-66739095D01*
X130251472Y-66746780D01*
X130190281Y-66866874D01*
X130188731Y-66876663D01*
X130188730Y-66876665D01*
X130170747Y-66990207D01*
X130169196Y-67000000D01*
X120558733Y-67000000D01*
X120561882Y-66955968D01*
X120590843Y-66910905D01*
X120648528Y-66853220D01*
X120709719Y-66733126D01*
X120722573Y-66651972D01*
X120729253Y-66609793D01*
X120730804Y-66600000D01*
X120723365Y-66553032D01*
X120711270Y-66476665D01*
X120711269Y-66476663D01*
X120709719Y-66466874D01*
X120648528Y-66346780D01*
X120590843Y-66289095D01*
X120556817Y-66226783D01*
X120561882Y-66155968D01*
X120590843Y-66110905D01*
X120648528Y-66053220D01*
X120709719Y-65933126D01*
X120719845Y-65869196D01*
X120729253Y-65809793D01*
X120730804Y-65800000D01*
X120719316Y-65727468D01*
X120711270Y-65676665D01*
X120711269Y-65676663D01*
X120709719Y-65666874D01*
X120705217Y-65658038D01*
X120687565Y-65623393D01*
X120674461Y-65553617D01*
X120701161Y-65487832D01*
X120736447Y-65458980D01*
X120736360Y-65458861D01*
X120738450Y-65457343D01*
X120742632Y-65453923D01*
X120744387Y-65453029D01*
X120744389Y-65453028D01*
X120753220Y-65448528D01*
X120760905Y-65440843D01*
X120761925Y-65440286D01*
X120768252Y-65435689D01*
X120768846Y-65436507D01*
X120823217Y-65406817D01*
X120894032Y-65411882D01*
X120931534Y-65435984D01*
X120931748Y-65435689D01*
X120936900Y-65439432D01*
X120939095Y-65440843D01*
X120946780Y-65448528D01*
X121066874Y-65509719D01*
X121076663Y-65511269D01*
X121076665Y-65511270D01*
X121190207Y-65529253D01*
X121200000Y-65530804D01*
X121209793Y-65529253D01*
X121323335Y-65511270D01*
X121323337Y-65511269D01*
X121333126Y-65509719D01*
X121453220Y-65448528D01*
X121460905Y-65440843D01*
X121461925Y-65440286D01*
X121468252Y-65435689D01*
X121468846Y-65436507D01*
X121523217Y-65406817D01*
X121594032Y-65411882D01*
X121631534Y-65435984D01*
X121631748Y-65435689D01*
X121636900Y-65439432D01*
X121639095Y-65440843D01*
X121646780Y-65448528D01*
X121766874Y-65509719D01*
X121776663Y-65511269D01*
X121776665Y-65511270D01*
X121890207Y-65529253D01*
X121900000Y-65530804D01*
X121909793Y-65529253D01*
X122023335Y-65511270D01*
X122023337Y-65511269D01*
X122033126Y-65509719D01*
X122153220Y-65448528D01*
X122160905Y-65440843D01*
X122161925Y-65440286D01*
X122168252Y-65435689D01*
X122168846Y-65436507D01*
X122223217Y-65406817D01*
X122294032Y-65411882D01*
X122331534Y-65435984D01*
X122331748Y-65435689D01*
X122336900Y-65439432D01*
X122339095Y-65440843D01*
X122346780Y-65448528D01*
X122466874Y-65509719D01*
X122476663Y-65511269D01*
X122476665Y-65511270D01*
X122590207Y-65529253D01*
X122600000Y-65530804D01*
X122609793Y-65529253D01*
X122723335Y-65511270D01*
X122723337Y-65511269D01*
X122733126Y-65509719D01*
X122853220Y-65448528D01*
X122860905Y-65440843D01*
X122861925Y-65440286D01*
X122868252Y-65435689D01*
X122868846Y-65436507D01*
X122923217Y-65406817D01*
X122994032Y-65411882D01*
X123031534Y-65435984D01*
X123031748Y-65435689D01*
X123036900Y-65439432D01*
X123039095Y-65440843D01*
X123046780Y-65448528D01*
X123166874Y-65509719D01*
X123176663Y-65511269D01*
X123176665Y-65511270D01*
X123290207Y-65529253D01*
X123300000Y-65530804D01*
X123309793Y-65529253D01*
X123423335Y-65511270D01*
X123423337Y-65511269D01*
X123433126Y-65509719D01*
X123553220Y-65448528D01*
X123610905Y-65390843D01*
X123673217Y-65356817D01*
X123744032Y-65361882D01*
X123789095Y-65390843D01*
X123846780Y-65448528D01*
X123966874Y-65509719D01*
X123976663Y-65511269D01*
X123976665Y-65511270D01*
X124090207Y-65529253D01*
X124100000Y-65530804D01*
X124109793Y-65529253D01*
X124223335Y-65511270D01*
X124223337Y-65511269D01*
X124233126Y-65509719D01*
X124353220Y-65448528D01*
X124448528Y-65353220D01*
X124509719Y-65233126D01*
X124519845Y-65169196D01*
X124529253Y-65109793D01*
X124530804Y-65100000D01*
X124509719Y-64966874D01*
X124448528Y-64846780D01*
X124353220Y-64751472D01*
X124233126Y-64690281D01*
X124223337Y-64688731D01*
X124223335Y-64688730D01*
X124109793Y-64670747D01*
X124100000Y-64669196D01*
X124090207Y-64670747D01*
X123976665Y-64688730D01*
X123976663Y-64688731D01*
X123966874Y-64690281D01*
X123846780Y-64751472D01*
X123789095Y-64809157D01*
X123726783Y-64843183D01*
X123655968Y-64838118D01*
X123610905Y-64809157D01*
X123553220Y-64751472D01*
X123433126Y-64690281D01*
X123423337Y-64688731D01*
X123423335Y-64688730D01*
X123309793Y-64670747D01*
X123300000Y-64669196D01*
X123290207Y-64670747D01*
X123176665Y-64688730D01*
X123176663Y-64688731D01*
X123166874Y-64690281D01*
X123046780Y-64751472D01*
X123039095Y-64759157D01*
X123038075Y-64759714D01*
X123031748Y-64764311D01*
X123031154Y-64763493D01*
X122976783Y-64793183D01*
X122905968Y-64788118D01*
X122868466Y-64764016D01*
X122868252Y-64764311D01*
X122863100Y-64760568D01*
X122860905Y-64759157D01*
X122853220Y-64751472D01*
X122733126Y-64690281D01*
X122723337Y-64688731D01*
X122723335Y-64688730D01*
X122609793Y-64670747D01*
X122600000Y-64669196D01*
X122590207Y-64670747D01*
X122476665Y-64688730D01*
X122476663Y-64688731D01*
X122466874Y-64690281D01*
X122346780Y-64751472D01*
X122339095Y-64759157D01*
X122338075Y-64759714D01*
X122331748Y-64764311D01*
X122331154Y-64763493D01*
X122276783Y-64793183D01*
X122205968Y-64788118D01*
X122168466Y-64764016D01*
X122168252Y-64764311D01*
X122163100Y-64760568D01*
X122160905Y-64759157D01*
X122153220Y-64751472D01*
X122033126Y-64690281D01*
X122023337Y-64688731D01*
X122023335Y-64688730D01*
X121909793Y-64670747D01*
X121900000Y-64669196D01*
X121890207Y-64670747D01*
X121776665Y-64688730D01*
X121776663Y-64688731D01*
X121766874Y-64690281D01*
X121646780Y-64751472D01*
X121639095Y-64759157D01*
X121638075Y-64759714D01*
X121631748Y-64764311D01*
X121631154Y-64763493D01*
X121576783Y-64793183D01*
X121505968Y-64788118D01*
X121468466Y-64764016D01*
X121468252Y-64764311D01*
X121463100Y-64760568D01*
X121460905Y-64759157D01*
X121453220Y-64751472D01*
X121333126Y-64690281D01*
X121323337Y-64688731D01*
X121323335Y-64688730D01*
X121209793Y-64670747D01*
X121200000Y-64669196D01*
X121190207Y-64670747D01*
X121076665Y-64688730D01*
X121076663Y-64688731D01*
X121066874Y-64690281D01*
X120946780Y-64751472D01*
X120939095Y-64759157D01*
X120938075Y-64759714D01*
X120931748Y-64764311D01*
X120931154Y-64763493D01*
X120876783Y-64793183D01*
X120805968Y-64788118D01*
X120768466Y-64764016D01*
X120768252Y-64764311D01*
X120763100Y-64760568D01*
X120760905Y-64759157D01*
X120753220Y-64751472D01*
X120633126Y-64690281D01*
X120623337Y-64688731D01*
X120623335Y-64688730D01*
X120509793Y-64670747D01*
X120500000Y-64669196D01*
X120490207Y-64670747D01*
X120376665Y-64688730D01*
X120376663Y-64688731D01*
X120366874Y-64690281D01*
X120246780Y-64751472D01*
X120151472Y-64846780D01*
X120090281Y-64966874D01*
X120069196Y-65100000D01*
X120070747Y-65109793D01*
X120080156Y-65169196D01*
X120090281Y-65233126D01*
X120094782Y-65241959D01*
X120094783Y-65241962D01*
X120112435Y-65276607D01*
X120125539Y-65346383D01*
X120098839Y-65412168D01*
X120063553Y-65441020D01*
X120063640Y-65441139D01*
X120061550Y-65442657D01*
X120057368Y-65446077D01*
X120055613Y-65446971D01*
X120055611Y-65446972D01*
X120046780Y-65451472D01*
X119951472Y-65546780D01*
X119890281Y-65666874D01*
X119888731Y-65676663D01*
X119888730Y-65676665D01*
X119880684Y-65727468D01*
X119869196Y-65800000D01*
X119870747Y-65809793D01*
X119880156Y-65869196D01*
X119890281Y-65933126D01*
X119951472Y-66053220D01*
X120009157Y-66110905D01*
X120043183Y-66173217D01*
X120038118Y-66244032D01*
X120009157Y-66289095D01*
X119951472Y-66346780D01*
X119890281Y-66466874D01*
X119888731Y-66476663D01*
X119888730Y-66476665D01*
X119876635Y-66553032D01*
X119869196Y-66600000D01*
X119870747Y-66609793D01*
X119877428Y-66651972D01*
X119890281Y-66733126D01*
X119951472Y-66853220D01*
X120009157Y-66910905D01*
X120043183Y-66973217D01*
X120038118Y-67044032D01*
X120009157Y-67089095D01*
X119951472Y-67146780D01*
X119890281Y-67266874D01*
X119888731Y-67276663D01*
X119888730Y-67276665D01*
X119870747Y-67390207D01*
X119869196Y-67400000D01*
X118673230Y-67400000D01*
X118778952Y-67346132D01*
X118874260Y-67250824D01*
X118935451Y-67130730D01*
X118940130Y-67101191D01*
X118954985Y-67007397D01*
X118956536Y-66997604D01*
X118954985Y-66987811D01*
X118937002Y-66874269D01*
X118937001Y-66874267D01*
X118935451Y-66864478D01*
X118874260Y-66744384D01*
X118778952Y-66649076D01*
X118658858Y-66587885D01*
X118649069Y-66586335D01*
X118649067Y-66586334D01*
X118535525Y-66568351D01*
X118525732Y-66566800D01*
X118515939Y-66568351D01*
X118402397Y-66586334D01*
X118402395Y-66586335D01*
X118392606Y-66587885D01*
X118272512Y-66649076D01*
X118177204Y-66744384D01*
X118116013Y-66864478D01*
X118114463Y-66874267D01*
X118114462Y-66874269D01*
X118096479Y-66987811D01*
X118094928Y-66997604D01*
X115299352Y-66997604D01*
X115253220Y-66951472D01*
X115133126Y-66890281D01*
X115123337Y-66888731D01*
X115123335Y-66888730D01*
X115009793Y-66870747D01*
X115000000Y-66869196D01*
X114990207Y-66870747D01*
X114876665Y-66888730D01*
X114876663Y-66888731D01*
X114866874Y-66890281D01*
X114746780Y-66951472D01*
X114651472Y-67046780D01*
X114590281Y-67166874D01*
X114588731Y-67176663D01*
X114588730Y-67176665D01*
X114574443Y-67266874D01*
X114569196Y-67300000D01*
X109566446Y-67300000D01*
X109571002Y-67284483D01*
X109587905Y-67263509D01*
X111050567Y-65800847D01*
X111050765Y-65800765D01*
X111051000Y-65800198D01*
X111051082Y-65800000D01*
X111051000Y-65799802D01*
X111051000Y-65589000D01*
X111691946Y-65589000D01*
X111693497Y-65598793D01*
X111705718Y-65675951D01*
X111713031Y-65722126D01*
X111774222Y-65842220D01*
X111869530Y-65937528D01*
X111989624Y-65998719D01*
X111999413Y-66000269D01*
X111999415Y-66000270D01*
X112028899Y-66004940D01*
X112089262Y-66014500D01*
X112156238Y-66014500D01*
X112216601Y-66004940D01*
X112246085Y-66000270D01*
X112246087Y-66000269D01*
X112255876Y-65998719D01*
X112375970Y-65937528D01*
X112471278Y-65842220D01*
X112488165Y-65809077D01*
X118153269Y-65809077D01*
X118154820Y-65818870D01*
X118171366Y-65923335D01*
X118174354Y-65942203D01*
X118235545Y-66062297D01*
X118330853Y-66157605D01*
X118450947Y-66218796D01*
X118460736Y-66220346D01*
X118460738Y-66220347D01*
X118574280Y-66238330D01*
X118584073Y-66239881D01*
X118593866Y-66238330D01*
X118707408Y-66220347D01*
X118707410Y-66220346D01*
X118717199Y-66218796D01*
X118837293Y-66157605D01*
X118932601Y-66062297D01*
X118993792Y-65942203D01*
X118996781Y-65923335D01*
X119013326Y-65818870D01*
X119014877Y-65809077D01*
X119008806Y-65770747D01*
X118995343Y-65685742D01*
X118995342Y-65685740D01*
X118993792Y-65675951D01*
X118932601Y-65555857D01*
X118891113Y-65514369D01*
X118857087Y-65452057D01*
X118862152Y-65381242D01*
X118904699Y-65324406D01*
X118932978Y-65309742D01*
X118933126Y-65309719D01*
X119053220Y-65248528D01*
X119148528Y-65153220D01*
X119209719Y-65033126D01*
X119223234Y-64947799D01*
X119229253Y-64909793D01*
X119230804Y-64900000D01*
X119223118Y-64851472D01*
X119211270Y-64776665D01*
X119211269Y-64776663D01*
X119209719Y-64766874D01*
X119148528Y-64646780D01*
X119053220Y-64551472D01*
X119007450Y-64528151D01*
X118955835Y-64479403D01*
X118938769Y-64410488D01*
X118961670Y-64343286D01*
X119016177Y-64300000D01*
X127969196Y-64300000D01*
X127970747Y-64309793D01*
X127986696Y-64410488D01*
X127990281Y-64433126D01*
X128051472Y-64553220D01*
X128146780Y-64648528D01*
X128266874Y-64709719D01*
X128276663Y-64711269D01*
X128276665Y-64711270D01*
X128390207Y-64729253D01*
X128400000Y-64730804D01*
X128409793Y-64729253D01*
X128523335Y-64711270D01*
X128523337Y-64711269D01*
X128533126Y-64709719D01*
X128653220Y-64648528D01*
X128660905Y-64640843D01*
X128661925Y-64640286D01*
X128668252Y-64635689D01*
X128668846Y-64636507D01*
X128723217Y-64606817D01*
X128794032Y-64611882D01*
X128831534Y-64635984D01*
X128831748Y-64635689D01*
X128836900Y-64639432D01*
X128839095Y-64640843D01*
X128846780Y-64648528D01*
X128966874Y-64709719D01*
X128976663Y-64711269D01*
X128976665Y-64711270D01*
X129090207Y-64729253D01*
X129100000Y-64730804D01*
X129109793Y-64729253D01*
X129223335Y-64711270D01*
X129223337Y-64711269D01*
X129233126Y-64709719D01*
X129353220Y-64648528D01*
X129448528Y-64553220D01*
X129509719Y-64433126D01*
X129513305Y-64410488D01*
X129525925Y-64330805D01*
X129556337Y-64266651D01*
X129616605Y-64229124D01*
X129670084Y-64226066D01*
X129690206Y-64229253D01*
X129690207Y-64229253D01*
X129700000Y-64230804D01*
X129709793Y-64229253D01*
X129823335Y-64211270D01*
X129823337Y-64211269D01*
X129833126Y-64209719D01*
X129953220Y-64148528D01*
X130048528Y-64053220D01*
X130109719Y-63933126D01*
X130112084Y-63918198D01*
X130129253Y-63809793D01*
X130130804Y-63800000D01*
X130123395Y-63753220D01*
X130111270Y-63676665D01*
X130111269Y-63676663D01*
X130109719Y-63666874D01*
X130048528Y-63546780D01*
X129953220Y-63451472D01*
X129833126Y-63390281D01*
X129823337Y-63388731D01*
X129823335Y-63388730D01*
X129709793Y-63370747D01*
X129700000Y-63369196D01*
X129690207Y-63370747D01*
X129576665Y-63388730D01*
X129576663Y-63388731D01*
X129566874Y-63390281D01*
X129446780Y-63451472D01*
X129351472Y-63546780D01*
X129290281Y-63666874D01*
X129288730Y-63676665D01*
X129288730Y-63676666D01*
X129274075Y-63769195D01*
X129243663Y-63833349D01*
X129183395Y-63870876D01*
X129129916Y-63873934D01*
X129109794Y-63870747D01*
X129109793Y-63870747D01*
X129100000Y-63869196D01*
X129090207Y-63870747D01*
X128976665Y-63888730D01*
X128976663Y-63888731D01*
X128966874Y-63890281D01*
X128846780Y-63951472D01*
X128839095Y-63959157D01*
X128838075Y-63959714D01*
X128831748Y-63964311D01*
X128831154Y-63963493D01*
X128776783Y-63993183D01*
X128705968Y-63988118D01*
X128668466Y-63964016D01*
X128668252Y-63964311D01*
X128663100Y-63960568D01*
X128660905Y-63959157D01*
X128653220Y-63951472D01*
X128533126Y-63890281D01*
X128523337Y-63888731D01*
X128523335Y-63888730D01*
X128409793Y-63870747D01*
X128400000Y-63869196D01*
X128390207Y-63870747D01*
X128276665Y-63888730D01*
X128276663Y-63888731D01*
X128266874Y-63890281D01*
X128146780Y-63951472D01*
X128051472Y-64046780D01*
X127990281Y-64166874D01*
X127988731Y-64176663D01*
X127988730Y-64176665D01*
X127971935Y-64282707D01*
X127969196Y-64300000D01*
X119016177Y-64300000D01*
X119017267Y-64299134D01*
X119025718Y-64296051D01*
X119031616Y-64294135D01*
X119041407Y-64292584D01*
X119059073Y-64283583D01*
X119152669Y-64235893D01*
X119152668Y-64235893D01*
X119161501Y-64231393D01*
X119256809Y-64136085D01*
X119318000Y-64015991D01*
X119321613Y-63993183D01*
X119337534Y-63892658D01*
X119339085Y-63882865D01*
X119332536Y-63841517D01*
X119319551Y-63759530D01*
X119319550Y-63759528D01*
X119318000Y-63749739D01*
X119256809Y-63629645D01*
X119161501Y-63534337D01*
X119041407Y-63473146D01*
X119031618Y-63471596D01*
X119031616Y-63471595D01*
X118918074Y-63453612D01*
X118908281Y-63452061D01*
X118898488Y-63453612D01*
X118784946Y-63471595D01*
X118784944Y-63471596D01*
X118775155Y-63473146D01*
X118655061Y-63534337D01*
X118559753Y-63629645D01*
X118498562Y-63749739D01*
X118497012Y-63759528D01*
X118497011Y-63759530D01*
X118484026Y-63841517D01*
X118477477Y-63882865D01*
X118479028Y-63892658D01*
X118494950Y-63993183D01*
X118498562Y-64015991D01*
X118559753Y-64136085D01*
X118655061Y-64231393D01*
X118663894Y-64235893D01*
X118663893Y-64235893D01*
X118700831Y-64254714D01*
X118752446Y-64303462D01*
X118769512Y-64372377D01*
X118746611Y-64439579D01*
X118691014Y-64483731D01*
X118682563Y-64486814D01*
X118676665Y-64488730D01*
X118666874Y-64490281D01*
X118546780Y-64551472D01*
X118451472Y-64646780D01*
X118390281Y-64766874D01*
X118388731Y-64776663D01*
X118388730Y-64776665D01*
X118376882Y-64851472D01*
X118369196Y-64900000D01*
X118370747Y-64909793D01*
X118376767Y-64947799D01*
X118390281Y-65033126D01*
X118451472Y-65153220D01*
X118492960Y-65194708D01*
X118526986Y-65257020D01*
X118521921Y-65327835D01*
X118479374Y-65384671D01*
X118451095Y-65399335D01*
X118450947Y-65399358D01*
X118330853Y-65460549D01*
X118235545Y-65555857D01*
X118174354Y-65675951D01*
X118172804Y-65685740D01*
X118172803Y-65685742D01*
X118159340Y-65770747D01*
X118153269Y-65809077D01*
X112488165Y-65809077D01*
X112532469Y-65722126D01*
X112539783Y-65675951D01*
X112552003Y-65598793D01*
X112553554Y-65589000D01*
X112546867Y-65546780D01*
X112534020Y-65465665D01*
X112534019Y-65465663D01*
X112532469Y-65455874D01*
X112471278Y-65335780D01*
X112375970Y-65240472D01*
X112296539Y-65200000D01*
X113569196Y-65200000D01*
X113570747Y-65209793D01*
X113586574Y-65309719D01*
X113590281Y-65333126D01*
X113651472Y-65453220D01*
X113746780Y-65548528D01*
X113866874Y-65609719D01*
X113876663Y-65611269D01*
X113876665Y-65611270D01*
X113990207Y-65629253D01*
X114000000Y-65630804D01*
X114009793Y-65629253D01*
X114123335Y-65611270D01*
X114123337Y-65611269D01*
X114133126Y-65609719D01*
X114253220Y-65548528D01*
X114348528Y-65453220D01*
X114409719Y-65333126D01*
X114413427Y-65309719D01*
X114429253Y-65209793D01*
X114430804Y-65200000D01*
X116569196Y-65200000D01*
X116570747Y-65209793D01*
X116586574Y-65309719D01*
X116590281Y-65333126D01*
X116651472Y-65453220D01*
X116746780Y-65548528D01*
X116866874Y-65609719D01*
X116876663Y-65611269D01*
X116876665Y-65611270D01*
X116990207Y-65629253D01*
X117000000Y-65630804D01*
X117009793Y-65629253D01*
X117123335Y-65611270D01*
X117123337Y-65611269D01*
X117133126Y-65609719D01*
X117253220Y-65548528D01*
X117348528Y-65453220D01*
X117409719Y-65333126D01*
X117413427Y-65309719D01*
X117429253Y-65209793D01*
X117430804Y-65200000D01*
X117428235Y-65183782D01*
X117411270Y-65076665D01*
X117411269Y-65076663D01*
X117409719Y-65066874D01*
X117348528Y-64946780D01*
X117253220Y-64851472D01*
X117133126Y-64790281D01*
X117123337Y-64788731D01*
X117123335Y-64788730D01*
X117009793Y-64770747D01*
X117000000Y-64769196D01*
X116990207Y-64770747D01*
X116876665Y-64788730D01*
X116876663Y-64788731D01*
X116866874Y-64790281D01*
X116746780Y-64851472D01*
X116651472Y-64946780D01*
X116590281Y-65066874D01*
X116588731Y-65076663D01*
X116588730Y-65076665D01*
X116571765Y-65183782D01*
X116569196Y-65200000D01*
X114430804Y-65200000D01*
X114428235Y-65183782D01*
X114411270Y-65076665D01*
X114411269Y-65076663D01*
X114409719Y-65066874D01*
X114348528Y-64946780D01*
X114253220Y-64851472D01*
X114133126Y-64790281D01*
X114123337Y-64788731D01*
X114123335Y-64788730D01*
X114009793Y-64770747D01*
X114000000Y-64769196D01*
X113990207Y-64770747D01*
X113876665Y-64788730D01*
X113876663Y-64788731D01*
X113866874Y-64790281D01*
X113746780Y-64851472D01*
X113651472Y-64946780D01*
X113590281Y-65066874D01*
X113588731Y-65076663D01*
X113588730Y-65076665D01*
X113571765Y-65183782D01*
X113569196Y-65200000D01*
X112296539Y-65200000D01*
X112255876Y-65179281D01*
X112246087Y-65177731D01*
X112246085Y-65177730D01*
X112216601Y-65173060D01*
X112156238Y-65163500D01*
X112089262Y-65163500D01*
X112028899Y-65173060D01*
X111999415Y-65177730D01*
X111999413Y-65177731D01*
X111989624Y-65179281D01*
X111869530Y-65240472D01*
X111774222Y-65335780D01*
X111713031Y-65455874D01*
X111711481Y-65465663D01*
X111711480Y-65465665D01*
X111698633Y-65546780D01*
X111691946Y-65589000D01*
X111051000Y-65589000D01*
X111051000Y-63747500D01*
X111691946Y-63747500D01*
X111693497Y-63757293D01*
X111711221Y-63869196D01*
X111713031Y-63880626D01*
X111774222Y-64000720D01*
X111869530Y-64096028D01*
X111989624Y-64157219D01*
X111999413Y-64158769D01*
X111999415Y-64158770D01*
X112028899Y-64163440D01*
X112089262Y-64173000D01*
X112156238Y-64173000D01*
X112216601Y-64163440D01*
X112246085Y-64158770D01*
X112246087Y-64158769D01*
X112255876Y-64157219D01*
X112375970Y-64096028D01*
X112471278Y-64000720D01*
X112532469Y-63880626D01*
X112534280Y-63869196D01*
X112552003Y-63757293D01*
X112553554Y-63747500D01*
X112547913Y-63711882D01*
X112534020Y-63624165D01*
X112534019Y-63624163D01*
X112532469Y-63614374D01*
X112471278Y-63494280D01*
X112376998Y-63400000D01*
X119969196Y-63400000D01*
X119970747Y-63409793D01*
X119977442Y-63452061D01*
X119990281Y-63533126D01*
X120051472Y-63653220D01*
X120146780Y-63748528D01*
X120266874Y-63809719D01*
X120276663Y-63811269D01*
X120276665Y-63811270D01*
X120390207Y-63829253D01*
X120400000Y-63830804D01*
X120409793Y-63829253D01*
X120523335Y-63811270D01*
X120523337Y-63811269D01*
X120533126Y-63809719D01*
X120653220Y-63748528D01*
X120660905Y-63740843D01*
X120661925Y-63740286D01*
X120668252Y-63735689D01*
X120668846Y-63736507D01*
X120723217Y-63706817D01*
X120794032Y-63711882D01*
X120831534Y-63735984D01*
X120831748Y-63735689D01*
X120836900Y-63739432D01*
X120839095Y-63740843D01*
X120846780Y-63748528D01*
X120966874Y-63809719D01*
X120976663Y-63811269D01*
X120976665Y-63811270D01*
X121090207Y-63829253D01*
X121100000Y-63830804D01*
X121109793Y-63829253D01*
X121223335Y-63811270D01*
X121223337Y-63811269D01*
X121233126Y-63809719D01*
X121353220Y-63748528D01*
X121360905Y-63740843D01*
X121361925Y-63740286D01*
X121368252Y-63735689D01*
X121368846Y-63736507D01*
X121423217Y-63706817D01*
X121494032Y-63711882D01*
X121531534Y-63735984D01*
X121531748Y-63735689D01*
X121536900Y-63739432D01*
X121539095Y-63740843D01*
X121546780Y-63748528D01*
X121666874Y-63809719D01*
X121676663Y-63811269D01*
X121676665Y-63811270D01*
X121790207Y-63829253D01*
X121800000Y-63830804D01*
X121809793Y-63829253D01*
X121923335Y-63811270D01*
X121923337Y-63811269D01*
X121933126Y-63809719D01*
X122053220Y-63748528D01*
X122148528Y-63653220D01*
X122209719Y-63533126D01*
X122214966Y-63500000D01*
X126869196Y-63500000D01*
X126870747Y-63509793D01*
X126884945Y-63599433D01*
X126890281Y-63633126D01*
X126951472Y-63753220D01*
X127046780Y-63848528D01*
X127166874Y-63909719D01*
X127176663Y-63911269D01*
X127176665Y-63911270D01*
X127290207Y-63929253D01*
X127300000Y-63930804D01*
X127309793Y-63929253D01*
X127423335Y-63911270D01*
X127423337Y-63911269D01*
X127433126Y-63909719D01*
X127553220Y-63848528D01*
X127648528Y-63753220D01*
X127709719Y-63633126D01*
X127715056Y-63599433D01*
X127729253Y-63509793D01*
X127730804Y-63500000D01*
X127722405Y-63446972D01*
X127711270Y-63376665D01*
X127711269Y-63376663D01*
X127709719Y-63366874D01*
X127648528Y-63246780D01*
X127640843Y-63239095D01*
X127640286Y-63238075D01*
X127635689Y-63231748D01*
X127636507Y-63231154D01*
X127606817Y-63176783D01*
X127611882Y-63105968D01*
X127635984Y-63068466D01*
X127635689Y-63068252D01*
X127639432Y-63063100D01*
X127640843Y-63060905D01*
X127648528Y-63053220D01*
X127675645Y-63000000D01*
X128369196Y-63000000D01*
X128370747Y-63009793D01*
X128388712Y-63123217D01*
X128390281Y-63133126D01*
X128451472Y-63253220D01*
X128546780Y-63348528D01*
X128666874Y-63409719D01*
X128676663Y-63411269D01*
X128676665Y-63411270D01*
X128790207Y-63429253D01*
X128800000Y-63430804D01*
X128809793Y-63429253D01*
X128923335Y-63411270D01*
X128923337Y-63411269D01*
X128933126Y-63409719D01*
X129053220Y-63348528D01*
X129148528Y-63253220D01*
X129209719Y-63133126D01*
X129211289Y-63123217D01*
X129229253Y-63009793D01*
X129230804Y-63000000D01*
X129214966Y-62900000D01*
X130869196Y-62900000D01*
X130870747Y-62909793D01*
X130880156Y-62969196D01*
X130890281Y-63033126D01*
X130951472Y-63153220D01*
X131046780Y-63248528D01*
X131166874Y-63309719D01*
X131176663Y-63311269D01*
X131176665Y-63311270D01*
X131290207Y-63329253D01*
X131300000Y-63330804D01*
X131309793Y-63329253D01*
X131423335Y-63311270D01*
X131423337Y-63311269D01*
X131433126Y-63309719D01*
X131553220Y-63248528D01*
X131648528Y-63153220D01*
X131709719Y-63033126D01*
X131719845Y-62969196D01*
X131729253Y-62909793D01*
X131730804Y-62900000D01*
X132169196Y-62900000D01*
X132170747Y-62909793D01*
X132180156Y-62969196D01*
X132190281Y-63033126D01*
X132251472Y-63153220D01*
X132346780Y-63248528D01*
X132466874Y-63309719D01*
X132476663Y-63311269D01*
X132476665Y-63311270D01*
X132590207Y-63329253D01*
X132600000Y-63330804D01*
X132609793Y-63329253D01*
X132723335Y-63311270D01*
X132723337Y-63311269D01*
X132733126Y-63309719D01*
X132853220Y-63248528D01*
X132948528Y-63153220D01*
X133009719Y-63033126D01*
X133019845Y-62969196D01*
X133029253Y-62909793D01*
X133030804Y-62900000D01*
X133009719Y-62766874D01*
X132948528Y-62646780D01*
X132853220Y-62551472D01*
X132733126Y-62490281D01*
X132723337Y-62488731D01*
X132723335Y-62488730D01*
X132609793Y-62470747D01*
X132600000Y-62469196D01*
X132590207Y-62470747D01*
X132476665Y-62488730D01*
X132476663Y-62488731D01*
X132466874Y-62490281D01*
X132346780Y-62551472D01*
X132251472Y-62646780D01*
X132190281Y-62766874D01*
X132169196Y-62900000D01*
X131730804Y-62900000D01*
X131709719Y-62766874D01*
X131648528Y-62646780D01*
X131553220Y-62551472D01*
X131433126Y-62490281D01*
X131423337Y-62488731D01*
X131423335Y-62488730D01*
X131309793Y-62470747D01*
X131300000Y-62469196D01*
X131290207Y-62470747D01*
X131176665Y-62488730D01*
X131176663Y-62488731D01*
X131166874Y-62490281D01*
X131046780Y-62551472D01*
X130951472Y-62646780D01*
X130890281Y-62766874D01*
X130869196Y-62900000D01*
X129214966Y-62900000D01*
X129209719Y-62866874D01*
X129148528Y-62746780D01*
X129053220Y-62651472D01*
X128933126Y-62590281D01*
X128923337Y-62588731D01*
X128923335Y-62588730D01*
X128809793Y-62570747D01*
X128800000Y-62569196D01*
X128790207Y-62570747D01*
X128676665Y-62588730D01*
X128676663Y-62588731D01*
X128666874Y-62590281D01*
X128546780Y-62651472D01*
X128451472Y-62746780D01*
X128390281Y-62866874D01*
X128369196Y-63000000D01*
X127675645Y-63000000D01*
X127709719Y-62933126D01*
X127730804Y-62800000D01*
X127722375Y-62746780D01*
X127711270Y-62676665D01*
X127711269Y-62676663D01*
X127709719Y-62666874D01*
X127648528Y-62546780D01*
X127553220Y-62451472D01*
X127433126Y-62390281D01*
X127423337Y-62388731D01*
X127423335Y-62388730D01*
X127309793Y-62370747D01*
X127300000Y-62369196D01*
X127290207Y-62370747D01*
X127176665Y-62388730D01*
X127176663Y-62388731D01*
X127166874Y-62390281D01*
X127046780Y-62451472D01*
X126951472Y-62546780D01*
X126890281Y-62666874D01*
X126888731Y-62676663D01*
X126888730Y-62676665D01*
X126877625Y-62746780D01*
X126869196Y-62800000D01*
X126890281Y-62933126D01*
X126951472Y-63053220D01*
X126959157Y-63060905D01*
X126959714Y-63061925D01*
X126964311Y-63068252D01*
X126963493Y-63068846D01*
X126993183Y-63123217D01*
X126988118Y-63194032D01*
X126964016Y-63231534D01*
X126964311Y-63231748D01*
X126960568Y-63236900D01*
X126959157Y-63239095D01*
X126951472Y-63246780D01*
X126890281Y-63366874D01*
X126888731Y-63376663D01*
X126888730Y-63376665D01*
X126877595Y-63446972D01*
X126869196Y-63500000D01*
X122214966Y-63500000D01*
X122222559Y-63452061D01*
X122229253Y-63409793D01*
X122230804Y-63400000D01*
X122224158Y-63358041D01*
X122211270Y-63276665D01*
X122211269Y-63276663D01*
X122209719Y-63266874D01*
X122148528Y-63146780D01*
X122053220Y-63051472D01*
X121933126Y-62990281D01*
X121923337Y-62988731D01*
X121923335Y-62988730D01*
X121809793Y-62970747D01*
X121800000Y-62969196D01*
X121790207Y-62970747D01*
X121676665Y-62988730D01*
X121676663Y-62988731D01*
X121666874Y-62990281D01*
X121546780Y-63051472D01*
X121539095Y-63059157D01*
X121538075Y-63059714D01*
X121531748Y-63064311D01*
X121531154Y-63063493D01*
X121476783Y-63093183D01*
X121405968Y-63088118D01*
X121368466Y-63064016D01*
X121368252Y-63064311D01*
X121363100Y-63060568D01*
X121360905Y-63059157D01*
X121353220Y-63051472D01*
X121233126Y-62990281D01*
X121223337Y-62988731D01*
X121223335Y-62988730D01*
X121109793Y-62970747D01*
X121100000Y-62969196D01*
X121090207Y-62970747D01*
X120976665Y-62988730D01*
X120976663Y-62988731D01*
X120966874Y-62990281D01*
X120846780Y-63051472D01*
X120839095Y-63059157D01*
X120838075Y-63059714D01*
X120831748Y-63064311D01*
X120831154Y-63063493D01*
X120776783Y-63093183D01*
X120705968Y-63088118D01*
X120668466Y-63064016D01*
X120668252Y-63064311D01*
X120663100Y-63060568D01*
X120660905Y-63059157D01*
X120653220Y-63051472D01*
X120533126Y-62990281D01*
X120523337Y-62988731D01*
X120523335Y-62988730D01*
X120409793Y-62970747D01*
X120400000Y-62969196D01*
X120390207Y-62970747D01*
X120276665Y-62988730D01*
X120276663Y-62988731D01*
X120266874Y-62990281D01*
X120146780Y-63051472D01*
X120051472Y-63146780D01*
X119990281Y-63266874D01*
X119988731Y-63276663D01*
X119988730Y-63276665D01*
X119975842Y-63358041D01*
X119969196Y-63400000D01*
X112376998Y-63400000D01*
X112375970Y-63398972D01*
X112255876Y-63337781D01*
X112246087Y-63336231D01*
X112246085Y-63336230D01*
X112216601Y-63331560D01*
X112156238Y-63322000D01*
X112089262Y-63322000D01*
X112028899Y-63331560D01*
X111999415Y-63336230D01*
X111999413Y-63336231D01*
X111989624Y-63337781D01*
X111869530Y-63398972D01*
X111774222Y-63494280D01*
X111713031Y-63614374D01*
X111711481Y-63624163D01*
X111711480Y-63624165D01*
X111697587Y-63711882D01*
X111691946Y-63747500D01*
X111051000Y-63747500D01*
X111051000Y-63600198D01*
X111051082Y-63600000D01*
X111050847Y-63599433D01*
X111050765Y-63599235D01*
X111050567Y-63599153D01*
X109587905Y-62136491D01*
X109553879Y-62074179D01*
X109551000Y-62047396D01*
X109551000Y-60975420D01*
X109571002Y-60907299D01*
X109624658Y-60860806D01*
X109677000Y-60849420D01*
X131117654Y-60849420D01*
X131185775Y-60869422D01*
X131232268Y-60923078D01*
X131242372Y-60993352D01*
X131212878Y-61057932D01*
X131166171Y-61088901D01*
X131166874Y-61090281D01*
X131046780Y-61151472D01*
X130951472Y-61246780D01*
X130890281Y-61366874D01*
X130888731Y-61376663D01*
X130888730Y-61376665D01*
X130879408Y-61435521D01*
X130869196Y-61500000D01*
X130870747Y-61509793D01*
X130881377Y-61576905D01*
X130890281Y-61633126D01*
X130951472Y-61753220D01*
X131046780Y-61848528D01*
X131166874Y-61909719D01*
X131176663Y-61911269D01*
X131176665Y-61911270D01*
X131290207Y-61929253D01*
X131300000Y-61930804D01*
X131309793Y-61929253D01*
X131423335Y-61911270D01*
X131423337Y-61911269D01*
X131433126Y-61909719D01*
X131553220Y-61848528D01*
X131648528Y-61753220D01*
X131709719Y-61633126D01*
X131718624Y-61576905D01*
X131729253Y-61509793D01*
X131730804Y-61500000D01*
X132069196Y-61500000D01*
X132070747Y-61509793D01*
X132081377Y-61576905D01*
X132090281Y-61633126D01*
X132151472Y-61753220D01*
X132246780Y-61848528D01*
X132366874Y-61909719D01*
X132376663Y-61911269D01*
X132376665Y-61911270D01*
X132490207Y-61929253D01*
X132500000Y-61930804D01*
X132509793Y-61929253D01*
X132623335Y-61911270D01*
X132623337Y-61911269D01*
X132633126Y-61909719D01*
X132753220Y-61848528D01*
X132848528Y-61753220D01*
X132909719Y-61633126D01*
X132918624Y-61576905D01*
X132929253Y-61509793D01*
X132930804Y-61500000D01*
X132920592Y-61435521D01*
X132911270Y-61376665D01*
X132911269Y-61376663D01*
X132909719Y-61366874D01*
X132848528Y-61246780D01*
X132753220Y-61151472D01*
X132633126Y-61090281D01*
X132623337Y-61088731D01*
X132623335Y-61088730D01*
X132509793Y-61070747D01*
X132500000Y-61069196D01*
X132490207Y-61070747D01*
X132376665Y-61088730D01*
X132376663Y-61088731D01*
X132366874Y-61090281D01*
X132246780Y-61151472D01*
X132151472Y-61246780D01*
X132090281Y-61366874D01*
X132088731Y-61376663D01*
X132088730Y-61376665D01*
X132079408Y-61435521D01*
X132069196Y-61500000D01*
X131730804Y-61500000D01*
X131720592Y-61435521D01*
X131711270Y-61376665D01*
X131711269Y-61376663D01*
X131709719Y-61366874D01*
X131648528Y-61246780D01*
X131553220Y-61151472D01*
X131433126Y-61090281D01*
X131433904Y-61088753D01*
X131384803Y-61055178D01*
X131377510Y-61037921D01*
X135695619Y-61037921D01*
X135697371Y-61046351D01*
X135697371Y-61046354D01*
X135718280Y-61146972D01*
X135726408Y-61186085D01*
X135796029Y-61320447D01*
X135899320Y-61431044D01*
X135954813Y-61464790D01*
X136021255Y-61505195D01*
X136021258Y-61505196D01*
X136028618Y-61509672D01*
X136174335Y-61550500D01*
X136287658Y-61550500D01*
X136341350Y-61543120D01*
X136391374Y-61536245D01*
X136391377Y-61536244D01*
X136399920Y-61535070D01*
X136458391Y-61509672D01*
X136530813Y-61478215D01*
X136530816Y-61478213D01*
X136538720Y-61474780D01*
X136545404Y-61469342D01*
X136545406Y-61469341D01*
X136600221Y-61424745D01*
X136656108Y-61379278D01*
X136743377Y-61255647D01*
X136746529Y-61246780D01*
X136791168Y-61121177D01*
X136791168Y-61121176D01*
X136794054Y-61113056D01*
X136804381Y-60962079D01*
X136796277Y-60923078D01*
X136775345Y-60822349D01*
X136775344Y-60822346D01*
X136773592Y-60813915D01*
X136703971Y-60679553D01*
X136600680Y-60568956D01*
X136523111Y-60521785D01*
X136478745Y-60494805D01*
X136478742Y-60494804D01*
X136471382Y-60490328D01*
X136325665Y-60449500D01*
X136212342Y-60449500D01*
X136158650Y-60456880D01*
X136108626Y-60463755D01*
X136108623Y-60463756D01*
X136100080Y-60464930D01*
X136046961Y-60488003D01*
X135969187Y-60521785D01*
X135969184Y-60521787D01*
X135961280Y-60525220D01*
X135954596Y-60530658D01*
X135954594Y-60530659D01*
X135913024Y-60564479D01*
X135843892Y-60620722D01*
X135756623Y-60744353D01*
X135753739Y-60752469D01*
X135753737Y-60752472D01*
X135712173Y-60869422D01*
X135705946Y-60886944D01*
X135695619Y-61037921D01*
X131377510Y-61037921D01*
X131357167Y-60989781D01*
X131369275Y-60919824D01*
X131417282Y-60867519D01*
X131482346Y-60849420D01*
X131771708Y-60849420D01*
X131773267Y-60620722D01*
X131779545Y-59700000D01*
X134069196Y-59700000D01*
X134090281Y-59833126D01*
X134151472Y-59953220D01*
X134246780Y-60048528D01*
X134366874Y-60109719D01*
X134376663Y-60111269D01*
X134376665Y-60111270D01*
X134490207Y-60129253D01*
X134500000Y-60130804D01*
X134509793Y-60129253D01*
X134623335Y-60111270D01*
X134623337Y-60111269D01*
X134633126Y-60109719D01*
X134753220Y-60048528D01*
X134848528Y-59953220D01*
X134909719Y-59833126D01*
X134930804Y-59700000D01*
X134909719Y-59566874D01*
X134848528Y-59446780D01*
X134753220Y-59351472D01*
X134633126Y-59290281D01*
X134623337Y-59288731D01*
X134623335Y-59288730D01*
X134509793Y-59270747D01*
X134500000Y-59269196D01*
X134490207Y-59270747D01*
X134376665Y-59288730D01*
X134376663Y-59288731D01*
X134366874Y-59290281D01*
X134246780Y-59351472D01*
X134151472Y-59446780D01*
X134090281Y-59566874D01*
X134069196Y-59700000D01*
X131779545Y-59700000D01*
X131793182Y-57700000D01*
X133669196Y-57700000D01*
X133690281Y-57833126D01*
X133751472Y-57953220D01*
X133846780Y-58048528D01*
X133966874Y-58109719D01*
X133976663Y-58111269D01*
X133976665Y-58111270D01*
X134090207Y-58129253D01*
X134100000Y-58130804D01*
X134109793Y-58129253D01*
X134223335Y-58111270D01*
X134223337Y-58111269D01*
X134233126Y-58109719D01*
X134353220Y-58048528D01*
X134448528Y-57953220D01*
X134509719Y-57833126D01*
X134530804Y-57700000D01*
X134509719Y-57566874D01*
X134448528Y-57446780D01*
X134353220Y-57351472D01*
X134233126Y-57290281D01*
X134223337Y-57288731D01*
X134223335Y-57288730D01*
X134109793Y-57270747D01*
X134100000Y-57269196D01*
X134090207Y-57270747D01*
X133976665Y-57288730D01*
X133976663Y-57288731D01*
X133966874Y-57290281D01*
X133846780Y-57351472D01*
X133751472Y-57446780D01*
X133690281Y-57566874D01*
X133669196Y-57700000D01*
X131793182Y-57700000D01*
X131797955Y-57000000D01*
X137669196Y-57000000D01*
X137690281Y-57133126D01*
X137751472Y-57253220D01*
X137846780Y-57348528D01*
X137966874Y-57409719D01*
X137976663Y-57411269D01*
X137976665Y-57411270D01*
X138090207Y-57429253D01*
X138100000Y-57430804D01*
X138109793Y-57429253D01*
X138223335Y-57411270D01*
X138223337Y-57411269D01*
X138233126Y-57409719D01*
X138353220Y-57348528D01*
X138448528Y-57253220D01*
X138509719Y-57133126D01*
X138530804Y-57000000D01*
X138523147Y-56951657D01*
X138511270Y-56876665D01*
X138511269Y-56876663D01*
X138509719Y-56866874D01*
X138448528Y-56746780D01*
X138353220Y-56651472D01*
X138233126Y-56590281D01*
X138223337Y-56588731D01*
X138223335Y-56588730D01*
X138109793Y-56570747D01*
X138100000Y-56569196D01*
X138090207Y-56570747D01*
X137976665Y-56588730D01*
X137976663Y-56588731D01*
X137966874Y-56590281D01*
X137846780Y-56651472D01*
X137751472Y-56746780D01*
X137690281Y-56866874D01*
X137688731Y-56876663D01*
X137688730Y-56876665D01*
X137676853Y-56951657D01*
X137669196Y-57000000D01*
X131797955Y-57000000D01*
X131808754Y-55416141D01*
X131829220Y-55348158D01*
X131883191Y-55302032D01*
X131934751Y-55291000D01*
X143223000Y-55291000D01*
X143291121Y-55311002D01*
G37*
%TD.AperFunction*%
%TD*%
M02*
