M48
; DRILL file {KiCad (6.99.0-1793-ga56955443f)} date Sun Dec 11 18:47:13 2022
; FORMAT={-:-/ absolute / inch / decimal}
; #@! TF.CreationDate,2022-12-11T18:47:13+00:00
; #@! TF.GenerationSoftware,Kicad,Pcbnew,(6.99.0-1793-ga56955443f)
; #@! TF.FileFunction,Plated,1,4,PTH
FMAT,2
INCH
; #@! TA.AperFunction,Plated,PTH,ViaDrill
T1C0.0079
; #@! TA.AperFunction,Plated,PTH,ViaDrill
T2C0.0118
%
G90
G05
T1
X4.3346Y-2.4449
X4.3346Y-3.2008
X4.3346Y-3.3346
X4.3386Y-2.4055
X4.3386Y-2.4252
X4.3425Y-3.4724
X4.3583Y-2.4055
X4.3583Y-2.4252
X4.3583Y-2.4449
X4.3583Y-2.4646
X4.3583Y-3.2677
X4.3622Y-3.3346
X4.3661Y-3.374
X4.378Y-2.4055
X4.3819Y-3.5709
X4.3858Y-3.6535
X4.3898Y-3.3346
X4.3937Y-3.2835
X4.3937Y-3.311
X4.3976Y-2.4055
X4.4173Y-2.4055
X4.4173Y-3.6535
X4.4213Y-3.3346
X4.4277Y-2.9034
X4.437Y-2.4055
X4.4374Y-2.4252
X4.4409Y-3.437
X4.4458Y-2.8853
X4.4488Y-3.6535
X4.4567Y-2.4055
X4.4567Y-2.4252
X4.4567Y-2.4449
X4.4724Y-2.8701
X4.4764Y-2.4055
X4.4764Y-2.4252
X4.4764Y-2.4449
X4.4803Y-3.6535
X4.4843Y-3.2402
X4.4882Y-2.5669
X4.4882Y-2.8425
X4.4882Y-3.5866
X4.4882Y-3.622
X4.4961Y-2.4055
X4.4961Y-2.4252
X4.4961Y-2.4449
X4.5039Y-2.8701
X4.5157Y-2.4055
X4.5157Y-2.4252
X4.5157Y-2.4449
X4.5157Y-2.4646
X4.5157Y-2.4843
X4.5276Y-2.6496
X4.5354Y-2.4055
X4.5354Y-2.4252
X4.5354Y-2.4449
X4.5354Y-2.4646
X4.5354Y-2.4843
X4.5354Y-2.7913
X4.5394Y-2.8307
X4.5394Y-3.0197
X4.5551Y-2.4055
X4.5551Y-2.4252
X4.5551Y-2.4449
X4.5551Y-2.4646
X4.5551Y-2.4843
X4.5709Y-3.248
X4.5748Y-2.4055
X4.5748Y-2.4252
X4.5748Y-2.4449
X4.5748Y-2.4646
X4.5748Y-2.4843
X4.5748Y-3.189
X4.5866Y-2.6732
X4.5906Y-2.7559
X4.5945Y-2.4055
X4.5945Y-2.4252
X4.5945Y-2.4449
X4.5945Y-2.4646
X4.5945Y-2.4843
X4.5984Y-2.7953
X4.6024Y-3.2835
X4.6063Y-2.5669
X4.6091Y-2.9312
X4.6102Y-3.126
X4.6142Y-2.4055
X4.6142Y-2.4252
X4.6142Y-2.4449
X4.6142Y-2.4646
X4.6142Y-2.4843
X4.6272Y-2.9131
X4.6339Y-2.4055
X4.6339Y-2.4252
X4.6339Y-2.4449
X4.6339Y-2.4646
X4.6339Y-2.4843
X4.6535Y-2.4055
X4.6535Y-2.4252
X4.6535Y-2.4449
X4.6535Y-2.4646
X4.6535Y-2.4843
X4.6664Y-2.6377
X4.6687Y-2.5909
X4.6699Y-2.689
X4.6732Y-2.4055
X4.6732Y-2.4252
X4.6732Y-2.4449
X4.6732Y-2.4646
X4.6772Y-2.5551
X4.6814Y-2.5151
X4.6929Y-2.4055
X4.6929Y-2.4252
X4.6929Y-2.4449
X4.6929Y-2.4646
X4.7126Y-2.4055
X4.7126Y-2.4252
X4.7126Y-2.4449
X4.7126Y-3.0157
X4.7165Y-2.8701
X4.7165Y-2.9134
X4.7165Y-2.9646
X4.7323Y-2.4055
X4.7323Y-2.4252
X4.7362Y-2.5906
X4.7362Y-2.622
X4.7362Y-2.6535
X4.7362Y-2.7126
X4.7362Y-2.7402
X4.7362Y-2.7677
X4.7402Y-2.4961
X4.7402Y-3.1339
X4.7402Y-3.1614
X4.7402Y-3.189
X4.7402Y-3.2165
X4.7402Y-3.2441
X4.7402Y-3.2717
X4.7441Y-2.563
X4.752Y-2.4055
X4.7597Y-2.8348
X4.7677Y-2.4961
X4.7717Y-2.4055
X4.7717Y-2.563
X4.7756Y-2.7677
X4.7874Y-2.8346
X4.7913Y-2.4055
X4.7953Y-2.4961
X4.7992Y-2.563
X4.8031Y-2.7677
X4.811Y-2.4055
X4.8189Y-2.8346
X4.8268Y-2.563
X4.8307Y-2.4055
X4.8504Y-2.4055
X4.8504Y-2.4252
X4.8504Y-2.7677
X4.8504Y-2.8346
X4.8543Y-2.563
X4.8701Y-2.4055
X4.8701Y-2.4252
X4.8858Y-2.563
X4.8898Y-2.4055
X4.8898Y-2.4252
X4.9094Y-2.4055
X4.9094Y-2.4252
X4.9094Y-3.0433
X4.9173Y-2.9173
X4.9173Y-2.9646
X4.9331Y-2.689
X4.9409Y-2.8543
X4.9646Y-2.4055
X4.9646Y-2.4252
X4.9646Y-2.4449
X4.9646Y-2.4646
X4.9764Y-3.0236
X4.9764Y-3.3268
X4.9803Y-2.8031
X4.9843Y-2.4055
X4.9843Y-2.4252
X4.9843Y-2.4449
X4.9843Y-2.4646
X4.9843Y-2.4843
X4.9843Y-2.8307
X4.9961Y-2.9016
X5.0039Y-2.4055
X5.0039Y-2.4252
X5.0039Y-2.4449
X5.0079Y-2.7559
X5.0118Y-2.4724
X5.0118Y-2.5
X5.0157Y-2.5669
X5.0236Y-2.4055
X5.0236Y-2.4252
X5.0236Y-2.4449
X5.0236Y-3.3858
X5.0354Y-2.5669
X5.0354Y-3.0236
X5.0433Y-2.4055
X5.0433Y-2.4252
X5.0512Y-2.7874
X5.0551Y-2.5315
X5.0551Y-2.5669
X5.063Y-2.4055
X5.063Y-2.4252
X5.0709Y-2.4803
X5.0709Y-2.8543
X5.0748Y-2.5669
X5.0787Y-3.1378
X5.0787Y-3.1654
X5.0787Y-3.1929
X5.0787Y-3.2205
X5.0787Y-3.248
X5.0787Y-3.2756
X5.0787Y-3.3031
X5.0827Y-2.4055
X5.0827Y-2.4252
X5.0827Y-2.5315
X5.0945Y-3.0236
X5.0945Y-3.3858
X5.1024Y-2.4055
X5.1024Y-2.4252
X5.1063Y-2.4803
X5.1063Y-2.5118
X5.122Y-2.4055
X5.122Y-2.4252
X5.1339Y-2.8268
X5.1417Y-2.4055
X5.1417Y-2.6102
X5.1417Y-2.6378
X5.1535Y-3.0236
X5.1614Y-2.5827
X5.1693Y-2.4213
X5.1693Y-2.4764
X5.1774Y-2.6577
X5.1811Y-2.9016
X5.2008Y-3.1378
X5.2008Y-3.1654
X5.2126Y-3.0236
X5.2165Y-2.4213
X5.2165Y-2.6575
X5.2175Y-2.8268
X5.2205Y-2.4764
X5.2205Y-2.7953
X5.2285Y-2.5828
X5.2362Y-2.8858
X5.2362Y-2.9173
X5.248Y-2.7953
X5.2638Y-2.5827
X5.2795Y-2.2717
X5.2953Y-2.3504
X5.2953Y-2.6614
X5.3228Y-2.9803
X5.3228Y-3.0748
X5.3307Y-2.4252
X5.3346Y-3.6535
X5.3425Y-2.6378
X5.3543Y-2.6929
X5.3543Y-2.7165
X5.3622Y-3.0906
X5.3661Y-2.437
X5.3701Y-3.6535
X5.4055Y-3.6535
X5.4134Y-3.437
X5.4213Y-2.6654
X5.4331Y-2.189
X5.437Y-2.2441
X5.437Y-3.4173
X5.4409Y-2.7343
X5.4409Y-3.2047
X5.4409Y-3.6535
X5.4646Y-2.6339
X5.4764Y-3.6535
X5.4843Y-3.5906
X5.4882Y-2.6063
X5.5079Y-2.6969
X5.5079Y-2.7402
X5.5118Y-3.6535
X5.5157Y-3.5906
X5.5236Y-2.6063
X5.5315Y-2.6811
X5.5354Y-2.189
X5.5354Y-2.5472
X5.5472Y-3.5906
X5.5472Y-3.6535
X5.5591Y-2.189
X5.5591Y-2.6496
X5.5591Y-2.7795
X5.5787Y-3.5906
X5.5787Y-3.6535
X5.5866Y-2.2244
X5.5866Y-2.5472
X5.5866Y-2.6496
X5.6142Y-3.5906
X5.6142Y-3.6535
X5.6181Y-2.5472
X5.6181Y-2.6496
X5.6181Y-3.2559
X5.622Y-2.252
X5.626Y-2.2244
X5.626Y-2.5787
X5.626Y-2.6181
X5.626Y-2.7795
T2
X4.3307Y-2.6772
X4.3307Y-2.7165
X4.3307Y-2.7559
X4.3307Y-2.7953
X4.3307Y-2.8346
X4.3307Y-2.874
X4.3307Y-2.9134
X4.3307Y-2.9528
X4.3307Y-2.9921
X4.3307Y-3.0315
X4.3307Y-3.0709
X4.3307Y-3.1102
X4.3307Y-3.1496
X4.3701Y-2.7165
X4.3701Y-2.7559
X4.3701Y-2.7953
X4.3701Y-2.8346
X4.3701Y-2.874
X4.3701Y-2.9134
X4.3701Y-2.9528
X4.3701Y-2.9921
X4.3701Y-3.0315
X4.3701Y-3.0709
X4.3701Y-3.1102
X4.3701Y-3.1496
X4.4094Y-2.7165
X4.4094Y-2.7559
X4.4094Y-2.7953
X4.4094Y-2.8346
X4.4094Y-2.9528
X4.4094Y-2.9921
X4.4094Y-3.0315
X4.4094Y-3.0709
X4.4094Y-3.1102
X4.4094Y-3.1496
X4.4488Y-2.5197
X4.4488Y-2.5591
X4.4488Y-2.5984
X4.4488Y-2.6378
X4.4488Y-2.6772
X4.4488Y-2.7165
X4.4488Y-2.7559
X4.4488Y-2.7953
X4.4488Y-3.5039
X4.4488Y-3.5433
X4.4488Y-3.5827
X4.4488Y-3.622
X4.4882Y-2.5984
X4.4882Y-2.6378
X4.4882Y-2.6772
X4.4882Y-2.7165
X4.4882Y-2.7559
X4.4882Y-2.9921
X4.4882Y-3.0709
X4.4882Y-3.1102
X4.4882Y-3.4252
X4.4882Y-3.5039
X4.4882Y-3.5433
X4.5276Y-2.5984
X4.5276Y-2.7165
X4.5276Y-3.4646
X4.5276Y-3.5039
X4.5276Y-3.5433
X4.5354Y-3.1654
X4.5669Y-2.5276
X4.5669Y-3.4646
X4.5669Y-3.5039
X4.5669Y-3.5433
X4.5709Y-3.1417
X4.6063Y-3.4646
X4.6063Y-3.5039
X4.6063Y-3.5433
X4.6102Y-2.9646
X4.6102Y-3.0433
X4.6102Y-3.0827
X4.6181Y-2.5276
X4.6457Y-3.3465
X4.6457Y-3.3858
X4.6457Y-3.4252
X4.6457Y-3.4646
X4.6457Y-3.5039
X4.6457Y-3.5433
X4.6457Y-3.5827
X4.6457Y-3.622
X4.685Y-3.3858
X4.685Y-3.4252
X4.685Y-3.4646
X4.685Y-3.5039
X4.685Y-3.5433
X4.685Y-3.5827
X4.685Y-3.622
X4.7244Y-3.3858
X4.7244Y-3.4252
X4.7244Y-3.4646
X4.7244Y-3.5039
X4.7244Y-3.5433
X4.7244Y-3.5827
X4.7244Y-3.622
X4.7598Y-3.0157
X4.7638Y-3.3858
X4.7638Y-3.4252
X4.7638Y-3.4646
X4.7638Y-3.5039
X4.7638Y-3.5433
X4.7638Y-3.5827
X4.7638Y-3.622
X4.7677Y-2.5945
X4.7677Y-2.622
X4.7677Y-2.6496
X4.7677Y-2.6772
X4.7677Y-2.7047
X4.7874Y-2.878
X4.7874Y-2.9055
X4.7874Y-2.9331
X4.7874Y-2.9606
X4.7874Y-2.9882
X4.7874Y-3.0157
X4.7953Y-2.5945
X4.7953Y-2.622
X4.7953Y-2.6496
X4.7953Y-2.6772
X4.7953Y-2.7047
X4.8031Y-3.4252
X4.8031Y-3.4646
X4.8031Y-3.5039
X4.8031Y-3.5433
X4.8031Y-3.5827
X4.8031Y-3.622
X4.815Y-2.878
X4.815Y-2.9055
X4.815Y-2.9331
X4.815Y-2.9606
X4.815Y-2.9882
X4.815Y-3.0157
X4.8228Y-2.5945
X4.8228Y-2.622
X4.8228Y-2.6496
X4.8228Y-2.6772
X4.8228Y-2.7047
X4.8425Y-2.878
X4.8425Y-2.9055
X4.8425Y-2.9331
X4.8425Y-2.9606
X4.8425Y-2.9882
X4.8425Y-3.0157
X4.8425Y-3.3465
X4.8425Y-3.4252
X4.8425Y-3.4646
X4.8425Y-3.5039
X4.8425Y-3.5433
X4.8425Y-3.5827
X4.8425Y-3.622
X4.8504Y-2.622
X4.8504Y-2.6496
X4.8504Y-2.6772
X4.8504Y-2.7047
X4.8701Y-2.878
X4.8701Y-2.9055
X4.8701Y-2.9331
X4.8701Y-2.9606
X4.8701Y-2.9882
X4.8701Y-3.0157
X4.878Y-2.622
X4.878Y-2.6496
X4.878Y-2.6772
X4.878Y-2.7047
X4.8819Y-3.3465
X4.8819Y-3.3858
X4.8819Y-3.4252
X4.8819Y-3.4646
X4.8819Y-3.5039
X4.8819Y-3.5433
X4.8819Y-3.5827
X4.8819Y-3.622
X4.9055Y-2.6496
X4.9055Y-2.6772
X4.9055Y-2.7047
X4.9213Y-3.3465
X4.9213Y-3.4252
X4.9213Y-3.4646
X4.9213Y-3.5039
X4.9213Y-3.5433
X4.9213Y-3.5827
X4.9213Y-3.622
X4.9606Y-3.4252
X4.9606Y-3.4646
X4.9606Y-3.5039
X4.9606Y-3.5433
X4.9606Y-3.5827
X4.9606Y-3.622
X5.0Y-3.4252
X5.0Y-3.4646
X5.0Y-3.5039
X5.0Y-3.5433
X5.0Y-3.5827
X5.0Y-3.622
X5.0354Y-2.9606
X5.0394Y-3.4252
X5.0394Y-3.4646
X5.0394Y-3.5039
X5.0394Y-3.5433
X5.0394Y-3.5827
X5.0394Y-3.622
X5.0709Y-2.9213
X5.0709Y-2.9606
X5.0787Y-3.4252
X5.0787Y-3.4646
X5.0787Y-3.5039
X5.0787Y-3.5433
X5.0787Y-3.5827
X5.0787Y-3.622
X5.1102Y-2.9606
X5.1181Y-3.4252
X5.1181Y-3.4646
X5.1181Y-3.5039
X5.1181Y-3.5433
X5.1181Y-3.5827
X5.1181Y-3.622
X5.1299Y-3.1496
X5.1299Y-3.189
X5.1299Y-3.2283
X5.1299Y-3.2677
X5.1299Y-3.3071
X5.1457Y-2.7913
X5.1575Y-3.3858
X5.1575Y-3.4252
X5.1575Y-3.4646
X5.1575Y-3.5039
X5.1575Y-3.5433
X5.1575Y-3.5827
X5.1575Y-3.622
X5.1693Y-3.189
X5.1693Y-3.2283
X5.1693Y-3.2677
X5.1693Y-3.3071
X5.1811Y-2.7992
X5.1969Y-3.3858
X5.1969Y-3.4252
X5.1969Y-3.4646
X5.1969Y-3.5039
X5.1969Y-3.5433
X5.1969Y-3.5827
X5.1969Y-3.622
X5.2008Y-2.9606
X5.2087Y-2.315
X5.2087Y-2.3465
X5.2087Y-3.2677
X5.2087Y-3.3071
X5.2205Y-2.7165
X5.2362Y-3.3858
X5.2362Y-3.4252
X5.2362Y-3.4646
X5.2362Y-3.5039
X5.2362Y-3.5433
X5.2362Y-3.5827
X5.2362Y-3.622
X5.2402Y-2.3465
X5.2402Y-2.9606
X5.248Y-3.2677
X5.248Y-3.3071
X5.2756Y-3.3858
X5.2756Y-3.4252
X5.2756Y-3.4646
X5.2756Y-3.5039
X5.2756Y-3.5433
X5.2756Y-3.5827
X5.2756Y-3.622
X5.2835Y-3.2677
X5.2835Y-3.3071
X5.315Y-3.4252
X5.315Y-3.4646
X5.315Y-3.5039
X5.315Y-3.5433
X5.315Y-3.5827
X5.315Y-3.622
X5.3189Y-2.4961
X5.3189Y-2.5394
X5.3189Y-2.5827
X5.3189Y-3.2677
X5.3189Y-3.3071
X5.3307Y-3.2008
X5.3543Y-3.5039
X5.3543Y-3.622
X5.3622Y-2.8661
X5.374Y-2.3465
X5.3858Y-2.9606
X5.4016Y-3.2441
X5.4055Y-2.8701
X5.4094Y-2.563
X5.4173Y-2.3465
X5.4173Y-2.3937
X5.4173Y-2.4409
X5.4331Y-2.9094
X5.4449Y-2.563
X5.4488Y-2.9646
X5.4488Y-3.0079
X5.4488Y-3.0551
X5.4567Y-2.8701
X5.4606Y-2.3465
X5.4606Y-2.4409
X5.4843Y-2.563
X5.4843Y-3.2913
X5.5118Y-3.622
X5.5276Y-3.2913
X5.5512Y-3.622
X5.5669Y-3.2913
X5.5906Y-3.622
X5.6299Y-3.622
T0
M30
