%TF.GenerationSoftware,KiCad,Pcbnew,(6.99.0-1793-ga56955443f)*%
%TF.CreationDate,2022-09-01T09:47:35+01:00*%
%TF.ProjectId,Watchy-MrT-ESP32-S3-V1,57617463-6879-42d4-9d72-542d45535033,rev?*%
%TF.SameCoordinates,Original*%
%TF.FileFunction,Legend,Bot*%
%TF.FilePolarity,Positive*%
%FSLAX46Y46*%
G04 Gerber Fmt 4.6, Leading zero omitted, Abs format (unit mm)*
G04 Created by KiCad (PCBNEW (6.99.0-1793-ga56955443f)) date 2022-09-01 09:47:35*
%MOMM*%
%LPD*%
G01*
G04 APERTURE LIST*
%ADD10C,0.500000*%
G04 APERTURE END LIST*
D10*
X137007143Y-74137142D02*
X136721429Y-74232380D01*
X136721429Y-74232380D02*
X136626191Y-74327619D01*
X136626191Y-74327619D02*
X136530953Y-74518095D01*
X136530953Y-74518095D02*
X136530953Y-74803809D01*
X136530953Y-74803809D02*
X136626191Y-74994285D01*
X136626191Y-74994285D02*
X136721429Y-75089523D01*
X136721429Y-75089523D02*
X136911905Y-75184761D01*
X136911905Y-75184761D02*
X137673810Y-75184761D01*
X137673810Y-75184761D02*
X137673810Y-73184761D01*
X137673810Y-73184761D02*
X137007143Y-73184761D01*
X137007143Y-73184761D02*
X136816667Y-73280000D01*
X136816667Y-73280000D02*
X136721429Y-73375238D01*
X136721429Y-73375238D02*
X136626191Y-73565714D01*
X136626191Y-73565714D02*
X136626191Y-73756190D01*
X136626191Y-73756190D02*
X136721429Y-73946666D01*
X136721429Y-73946666D02*
X136816667Y-74041904D01*
X136816667Y-74041904D02*
X137007143Y-74137142D01*
X137007143Y-74137142D02*
X137673810Y-74137142D01*
X135864286Y-73851428D02*
X135388096Y-75184761D01*
X134911905Y-73851428D02*
X135388096Y-75184761D01*
X135388096Y-75184761D02*
X135578572Y-75660952D01*
X135578572Y-75660952D02*
X135673810Y-75756190D01*
X135673810Y-75756190D02*
X135864286Y-75851428D01*
X134150000Y-74994285D02*
X134054762Y-75089523D01*
X134054762Y-75089523D02*
X134150000Y-75184761D01*
X134150000Y-75184761D02*
X134245238Y-75089523D01*
X134245238Y-75089523D02*
X134150000Y-74994285D01*
X134150000Y-74994285D02*
X134150000Y-75184761D01*
X134150000Y-73946666D02*
X134054762Y-74041904D01*
X134054762Y-74041904D02*
X134150000Y-74137142D01*
X134150000Y-74137142D02*
X134245238Y-74041904D01*
X134245238Y-74041904D02*
X134150000Y-73946666D01*
X134150000Y-73946666D02*
X134150000Y-74137142D01*
X132283333Y-73184761D02*
X131140476Y-73184761D01*
X131711905Y-75184761D02*
X131711905Y-73184761D01*
X130188095Y-75184761D02*
X130378571Y-75089523D01*
X130378571Y-75089523D02*
X130473809Y-74994285D01*
X130473809Y-74994285D02*
X130569047Y-74803809D01*
X130569047Y-74803809D02*
X130569047Y-74232380D01*
X130569047Y-74232380D02*
X130473809Y-74041904D01*
X130473809Y-74041904D02*
X130378571Y-73946666D01*
X130378571Y-73946666D02*
X130188095Y-73851428D01*
X130188095Y-73851428D02*
X129902380Y-73851428D01*
X129902380Y-73851428D02*
X129711904Y-73946666D01*
X129711904Y-73946666D02*
X129616666Y-74041904D01*
X129616666Y-74041904D02*
X129521428Y-74232380D01*
X129521428Y-74232380D02*
X129521428Y-74803809D01*
X129521428Y-74803809D02*
X129616666Y-74994285D01*
X129616666Y-74994285D02*
X129711904Y-75089523D01*
X129711904Y-75089523D02*
X129902380Y-75184761D01*
X129902380Y-75184761D02*
X130188095Y-75184761D01*
X128664285Y-75184761D02*
X128664285Y-73851428D01*
X128664285Y-74041904D02*
X128569047Y-73946666D01*
X128569047Y-73946666D02*
X128378571Y-73851428D01*
X128378571Y-73851428D02*
X128092856Y-73851428D01*
X128092856Y-73851428D02*
X127902380Y-73946666D01*
X127902380Y-73946666D02*
X127807142Y-74137142D01*
X127807142Y-74137142D02*
X127807142Y-75184761D01*
X127807142Y-74137142D02*
X127711904Y-73946666D01*
X127711904Y-73946666D02*
X127521428Y-73851428D01*
X127521428Y-73851428D02*
X127235714Y-73851428D01*
X127235714Y-73851428D02*
X127045237Y-73946666D01*
X127045237Y-73946666D02*
X126949999Y-74137142D01*
X126949999Y-74137142D02*
X126949999Y-75184761D01*
X124892856Y-75089523D02*
X124607142Y-75184761D01*
X124607142Y-75184761D02*
X124130951Y-75184761D01*
X124130951Y-75184761D02*
X123940475Y-75089523D01*
X123940475Y-75089523D02*
X123845237Y-74994285D01*
X123845237Y-74994285D02*
X123749999Y-74803809D01*
X123749999Y-74803809D02*
X123749999Y-74613333D01*
X123749999Y-74613333D02*
X123845237Y-74422857D01*
X123845237Y-74422857D02*
X123940475Y-74327619D01*
X123940475Y-74327619D02*
X124130951Y-74232380D01*
X124130951Y-74232380D02*
X124511904Y-74137142D01*
X124511904Y-74137142D02*
X124702380Y-74041904D01*
X124702380Y-74041904D02*
X124797618Y-73946666D01*
X124797618Y-73946666D02*
X124892856Y-73756190D01*
X124892856Y-73756190D02*
X124892856Y-73565714D01*
X124892856Y-73565714D02*
X124797618Y-73375238D01*
X124797618Y-73375238D02*
X124702380Y-73280000D01*
X124702380Y-73280000D02*
X124511904Y-73184761D01*
X124511904Y-73184761D02*
X124035713Y-73184761D01*
X124035713Y-73184761D02*
X123749999Y-73280000D01*
X123178570Y-73851428D02*
X122416666Y-73851428D01*
X122892856Y-73184761D02*
X122892856Y-74899047D01*
X122892856Y-74899047D02*
X122797618Y-75089523D01*
X122797618Y-75089523D02*
X122607142Y-75184761D01*
X122607142Y-75184761D02*
X122416666Y-75184761D01*
X120988094Y-75089523D02*
X121178570Y-75184761D01*
X121178570Y-75184761D02*
X121559523Y-75184761D01*
X121559523Y-75184761D02*
X121749999Y-75089523D01*
X121749999Y-75089523D02*
X121845237Y-74899047D01*
X121845237Y-74899047D02*
X121845237Y-74137142D01*
X121845237Y-74137142D02*
X121749999Y-73946666D01*
X121749999Y-73946666D02*
X121559523Y-73851428D01*
X121559523Y-73851428D02*
X121178570Y-73851428D01*
X121178570Y-73851428D02*
X120988094Y-73946666D01*
X120988094Y-73946666D02*
X120892856Y-74137142D01*
X120892856Y-74137142D02*
X120892856Y-74327619D01*
X120892856Y-74327619D02*
X121845237Y-74518095D01*
X120035713Y-73851428D02*
X120035713Y-75851428D01*
X120035713Y-73946666D02*
X119845237Y-73851428D01*
X119845237Y-73851428D02*
X119464284Y-73851428D01*
X119464284Y-73851428D02*
X119273808Y-73946666D01*
X119273808Y-73946666D02*
X119178570Y-74041904D01*
X119178570Y-74041904D02*
X119083332Y-74232380D01*
X119083332Y-74232380D02*
X119083332Y-74803809D01*
X119083332Y-74803809D02*
X119178570Y-74994285D01*
X119178570Y-74994285D02*
X119273808Y-75089523D01*
X119273808Y-75089523D02*
X119464284Y-75184761D01*
X119464284Y-75184761D02*
X119845237Y-75184761D01*
X119845237Y-75184761D02*
X120035713Y-75089523D01*
X118226189Y-75184761D02*
X118226189Y-73184761D01*
X117369046Y-75184761D02*
X117369046Y-74137142D01*
X117369046Y-74137142D02*
X117464284Y-73946666D01*
X117464284Y-73946666D02*
X117654760Y-73851428D01*
X117654760Y-73851428D02*
X117940475Y-73851428D01*
X117940475Y-73851428D02*
X118130951Y-73946666D01*
X118130951Y-73946666D02*
X118226189Y-74041904D01*
X115654760Y-75089523D02*
X115845236Y-75184761D01*
X115845236Y-75184761D02*
X116226189Y-75184761D01*
X116226189Y-75184761D02*
X116416665Y-75089523D01*
X116416665Y-75089523D02*
X116511903Y-74899047D01*
X116511903Y-74899047D02*
X116511903Y-74137142D01*
X116511903Y-74137142D02*
X116416665Y-73946666D01*
X116416665Y-73946666D02*
X116226189Y-73851428D01*
X116226189Y-73851428D02*
X115845236Y-73851428D01*
X115845236Y-73851428D02*
X115654760Y-73946666D01*
X115654760Y-73946666D02*
X115559522Y-74137142D01*
X115559522Y-74137142D02*
X115559522Y-74327619D01*
X115559522Y-74327619D02*
X116511903Y-74518095D01*
X114702379Y-73851428D02*
X114702379Y-75184761D01*
X114702379Y-74041904D02*
X114607141Y-73946666D01*
X114607141Y-73946666D02*
X114416665Y-73851428D01*
X114416665Y-73851428D02*
X114130950Y-73851428D01*
X114130950Y-73851428D02*
X113940474Y-73946666D01*
X113940474Y-73946666D02*
X113845236Y-74137142D01*
X113845236Y-74137142D02*
X113845236Y-75184761D01*
X112988093Y-75089523D02*
X112797617Y-75184761D01*
X112797617Y-75184761D02*
X112416665Y-75184761D01*
X112416665Y-75184761D02*
X112226188Y-75089523D01*
X112226188Y-75089523D02*
X112130950Y-74899047D01*
X112130950Y-74899047D02*
X112130950Y-74803809D01*
X112130950Y-74803809D02*
X112226188Y-74613333D01*
X112226188Y-74613333D02*
X112416665Y-74518095D01*
X112416665Y-74518095D02*
X112702379Y-74518095D01*
X112702379Y-74518095D02*
X112892855Y-74422857D01*
X112892855Y-74422857D02*
X112988093Y-74232380D01*
X112988093Y-74232380D02*
X112988093Y-74137142D01*
X112988093Y-74137142D02*
X112892855Y-73946666D01*
X112892855Y-73946666D02*
X112702379Y-73851428D01*
X112702379Y-73851428D02*
X112416665Y-73851428D01*
X112416665Y-73851428D02*
X112226188Y-73946666D01*
X137985714Y-69637142D02*
X137319047Y-69637142D01*
X137033333Y-70684761D02*
X137985714Y-70684761D01*
X137985714Y-70684761D02*
X137985714Y-68684761D01*
X137985714Y-68684761D02*
X137033333Y-68684761D01*
X136271428Y-70589523D02*
X135985714Y-70684761D01*
X135985714Y-70684761D02*
X135509523Y-70684761D01*
X135509523Y-70684761D02*
X135319047Y-70589523D01*
X135319047Y-70589523D02*
X135223809Y-70494285D01*
X135223809Y-70494285D02*
X135128571Y-70303809D01*
X135128571Y-70303809D02*
X135128571Y-70113333D01*
X135128571Y-70113333D02*
X135223809Y-69922857D01*
X135223809Y-69922857D02*
X135319047Y-69827619D01*
X135319047Y-69827619D02*
X135509523Y-69732380D01*
X135509523Y-69732380D02*
X135890476Y-69637142D01*
X135890476Y-69637142D02*
X136080952Y-69541904D01*
X136080952Y-69541904D02*
X136176190Y-69446666D01*
X136176190Y-69446666D02*
X136271428Y-69256190D01*
X136271428Y-69256190D02*
X136271428Y-69065714D01*
X136271428Y-69065714D02*
X136176190Y-68875238D01*
X136176190Y-68875238D02*
X136080952Y-68780000D01*
X136080952Y-68780000D02*
X135890476Y-68684761D01*
X135890476Y-68684761D02*
X135414285Y-68684761D01*
X135414285Y-68684761D02*
X135128571Y-68780000D01*
X134271428Y-70684761D02*
X134271428Y-68684761D01*
X134271428Y-68684761D02*
X133509523Y-68684761D01*
X133509523Y-68684761D02*
X133319047Y-68780000D01*
X133319047Y-68780000D02*
X133223809Y-68875238D01*
X133223809Y-68875238D02*
X133128571Y-69065714D01*
X133128571Y-69065714D02*
X133128571Y-69351428D01*
X133128571Y-69351428D02*
X133223809Y-69541904D01*
X133223809Y-69541904D02*
X133319047Y-69637142D01*
X133319047Y-69637142D02*
X133509523Y-69732380D01*
X133509523Y-69732380D02*
X134271428Y-69732380D01*
X132461904Y-68684761D02*
X131223809Y-68684761D01*
X131223809Y-68684761D02*
X131890476Y-69446666D01*
X131890476Y-69446666D02*
X131604761Y-69446666D01*
X131604761Y-69446666D02*
X131414285Y-69541904D01*
X131414285Y-69541904D02*
X131319047Y-69637142D01*
X131319047Y-69637142D02*
X131223809Y-69827619D01*
X131223809Y-69827619D02*
X131223809Y-70303809D01*
X131223809Y-70303809D02*
X131319047Y-70494285D01*
X131319047Y-70494285D02*
X131414285Y-70589523D01*
X131414285Y-70589523D02*
X131604761Y-70684761D01*
X131604761Y-70684761D02*
X132176190Y-70684761D01*
X132176190Y-70684761D02*
X132366666Y-70589523D01*
X132366666Y-70589523D02*
X132461904Y-70494285D01*
X130461904Y-68875238D02*
X130366666Y-68780000D01*
X130366666Y-68780000D02*
X130176190Y-68684761D01*
X130176190Y-68684761D02*
X129699999Y-68684761D01*
X129699999Y-68684761D02*
X129509523Y-68780000D01*
X129509523Y-68780000D02*
X129414285Y-68875238D01*
X129414285Y-68875238D02*
X129319047Y-69065714D01*
X129319047Y-69065714D02*
X129319047Y-69256190D01*
X129319047Y-69256190D02*
X129414285Y-69541904D01*
X129414285Y-69541904D02*
X130557142Y-70684761D01*
X130557142Y-70684761D02*
X129319047Y-70684761D01*
X128461904Y-69922857D02*
X126938095Y-69922857D01*
X126080952Y-70589523D02*
X125795238Y-70684761D01*
X125795238Y-70684761D02*
X125319047Y-70684761D01*
X125319047Y-70684761D02*
X125128571Y-70589523D01*
X125128571Y-70589523D02*
X125033333Y-70494285D01*
X125033333Y-70494285D02*
X124938095Y-70303809D01*
X124938095Y-70303809D02*
X124938095Y-70113333D01*
X124938095Y-70113333D02*
X125033333Y-69922857D01*
X125033333Y-69922857D02*
X125128571Y-69827619D01*
X125128571Y-69827619D02*
X125319047Y-69732380D01*
X125319047Y-69732380D02*
X125700000Y-69637142D01*
X125700000Y-69637142D02*
X125890476Y-69541904D01*
X125890476Y-69541904D02*
X125985714Y-69446666D01*
X125985714Y-69446666D02*
X126080952Y-69256190D01*
X126080952Y-69256190D02*
X126080952Y-69065714D01*
X126080952Y-69065714D02*
X125985714Y-68875238D01*
X125985714Y-68875238D02*
X125890476Y-68780000D01*
X125890476Y-68780000D02*
X125700000Y-68684761D01*
X125700000Y-68684761D02*
X125223809Y-68684761D01*
X125223809Y-68684761D02*
X124938095Y-68780000D01*
X124271428Y-68684761D02*
X123033333Y-68684761D01*
X123033333Y-68684761D02*
X123700000Y-69446666D01*
X123700000Y-69446666D02*
X123414285Y-69446666D01*
X123414285Y-69446666D02*
X123223809Y-69541904D01*
X123223809Y-69541904D02*
X123128571Y-69637142D01*
X123128571Y-69637142D02*
X123033333Y-69827619D01*
X123033333Y-69827619D02*
X123033333Y-70303809D01*
X123033333Y-70303809D02*
X123128571Y-70494285D01*
X123128571Y-70494285D02*
X123223809Y-70589523D01*
X123223809Y-70589523D02*
X123414285Y-70684761D01*
X123414285Y-70684761D02*
X123985714Y-70684761D01*
X123985714Y-70684761D02*
X124176190Y-70589523D01*
X124176190Y-70589523D02*
X124271428Y-70494285D01*
X121166666Y-68684761D02*
X120690476Y-70684761D01*
X120690476Y-70684761D02*
X120309523Y-69256190D01*
X120309523Y-69256190D02*
X119928571Y-70684761D01*
X119928571Y-70684761D02*
X119452381Y-68684761D01*
X117833333Y-70684761D02*
X117833333Y-69637142D01*
X117833333Y-69637142D02*
X117928571Y-69446666D01*
X117928571Y-69446666D02*
X118119047Y-69351428D01*
X118119047Y-69351428D02*
X118500000Y-69351428D01*
X118500000Y-69351428D02*
X118690476Y-69446666D01*
X117833333Y-70589523D02*
X118023809Y-70684761D01*
X118023809Y-70684761D02*
X118500000Y-70684761D01*
X118500000Y-70684761D02*
X118690476Y-70589523D01*
X118690476Y-70589523D02*
X118785714Y-70399047D01*
X118785714Y-70399047D02*
X118785714Y-70208571D01*
X118785714Y-70208571D02*
X118690476Y-70018095D01*
X118690476Y-70018095D02*
X118500000Y-69922857D01*
X118500000Y-69922857D02*
X118023809Y-69922857D01*
X118023809Y-69922857D02*
X117833333Y-69827619D01*
X117166666Y-69351428D02*
X116404762Y-69351428D01*
X116880952Y-68684761D02*
X116880952Y-70399047D01*
X116880952Y-70399047D02*
X116785714Y-70589523D01*
X116785714Y-70589523D02*
X116595238Y-70684761D01*
X116595238Y-70684761D02*
X116404762Y-70684761D01*
X114880952Y-70589523D02*
X115071428Y-70684761D01*
X115071428Y-70684761D02*
X115452381Y-70684761D01*
X115452381Y-70684761D02*
X115642857Y-70589523D01*
X115642857Y-70589523D02*
X115738095Y-70494285D01*
X115738095Y-70494285D02*
X115833333Y-70303809D01*
X115833333Y-70303809D02*
X115833333Y-69732380D01*
X115833333Y-69732380D02*
X115738095Y-69541904D01*
X115738095Y-69541904D02*
X115642857Y-69446666D01*
X115642857Y-69446666D02*
X115452381Y-69351428D01*
X115452381Y-69351428D02*
X115071428Y-69351428D01*
X115071428Y-69351428D02*
X114880952Y-69446666D01*
X114023809Y-70684761D02*
X114023809Y-68684761D01*
X113166666Y-70684761D02*
X113166666Y-69637142D01*
X113166666Y-69637142D02*
X113261904Y-69446666D01*
X113261904Y-69446666D02*
X113452380Y-69351428D01*
X113452380Y-69351428D02*
X113738095Y-69351428D01*
X113738095Y-69351428D02*
X113928571Y-69446666D01*
X113928571Y-69446666D02*
X114023809Y-69541904D01*
X112214285Y-70494285D02*
X112119047Y-70589523D01*
X112119047Y-70589523D02*
X112214285Y-70684761D01*
X112214285Y-70684761D02*
X112309523Y-70589523D01*
X112309523Y-70589523D02*
X112214285Y-70494285D01*
X112214285Y-70494285D02*
X112214285Y-70684761D01*
X112214285Y-69922857D02*
X112309523Y-68780000D01*
X112309523Y-68780000D02*
X112214285Y-68684761D01*
X112214285Y-68684761D02*
X112119047Y-68780000D01*
X112119047Y-68780000D02*
X112214285Y-69922857D01*
X112214285Y-69922857D02*
X112214285Y-68684761D01*
M02*
