%TF.GenerationSoftware,KiCad,Pcbnew,(6.99.0-1793-ga56955443f)*%
%TF.CreationDate,2022-09-01T09:47:35+01:00*%
%TF.ProjectId,Watchy-MrT-ESP32-S3-V1,57617463-6879-42d4-9d72-542d45535033,rev?*%
%TF.SameCoordinates,Original*%
%TF.FileFunction,Copper,L4,Bot*%
%TF.FilePolarity,Positive*%
%FSLAX46Y46*%
G04 Gerber Fmt 4.6, Leading zero omitted, Abs format (unit mm)*
G04 Created by KiCad (PCBNEW (6.99.0-1793-ga56955443f)) date 2022-09-01 09:47:35*
%MOMM*%
%LPD*%
G01*
G04 APERTURE LIST*
%TA.AperFunction,ViaPad*%
%ADD10C,0.600000*%
%TD*%
%TA.AperFunction,ViaPad*%
%ADD11C,0.450000*%
%TD*%
%TA.AperFunction,Conductor*%
%ADD12C,0.150000*%
%TD*%
G04 APERTURE END LIST*
D10*
%TO.N,GND*%
X113600000Y-67400000D03*
X127800000Y-91000000D03*
X140800000Y-55600000D03*
X136200000Y-91600000D03*
X111800000Y-71000000D03*
X119400000Y-86800000D03*
X127400000Y-61800000D03*
X113000000Y-92800000D03*
X122600000Y-91600000D03*
X111800000Y-61200000D03*
X132600000Y-91000000D03*
X128200000Y-91600000D03*
X128600000Y-87400000D03*
X114400000Y-72200000D03*
X131400000Y-89200000D03*
X134600000Y-84400000D03*
X127000000Y-86200000D03*
X137800000Y-92800000D03*
X130200000Y-91000000D03*
D11*
X122700000Y-68700000D03*
D10*
X116200000Y-89200000D03*
X111200000Y-74600000D03*
X127400000Y-86800000D03*
X131800000Y-83800000D03*
X131000000Y-81400000D03*
X110000000Y-84800000D03*
X113600000Y-70600000D03*
D11*
X121600000Y-69250000D03*
X122700000Y-67050000D03*
X121600000Y-68700000D03*
D10*
X119400000Y-89200000D03*
X110600000Y-79000000D03*
X131800000Y-88600000D03*
X120200000Y-89200000D03*
X125400000Y-92200000D03*
X135000000Y-88600000D03*
X117400000Y-83800000D03*
X127800000Y-89800000D03*
X113000000Y-67000000D03*
X132600000Y-83800000D03*
X131600000Y-71800000D03*
X133800000Y-88000000D03*
X127800000Y-85000000D03*
X130600000Y-61800000D03*
X122200000Y-83800000D03*
X134000000Y-77800000D03*
X132200000Y-61800000D03*
X133400000Y-62400000D03*
X141000000Y-91600000D03*
X131800000Y-86200000D03*
X119000000Y-83800000D03*
X142200000Y-92200000D03*
X127800000Y-92200000D03*
D11*
X121050000Y-65950000D03*
D10*
X113600000Y-69000000D03*
X136200000Y-92800000D03*
X132600000Y-88600000D03*
X111800000Y-71800000D03*
D11*
X140750000Y-67100000D03*
D10*
X115200000Y-78400000D03*
X115000000Y-61200000D03*
X131400000Y-90400000D03*
X127400000Y-85600000D03*
X113600000Y-72200000D03*
X126600000Y-89200000D03*
X131000000Y-89800000D03*
X122600000Y-88000000D03*
X111200000Y-68200000D03*
X110000000Y-73800000D03*
X134600000Y-85600000D03*
X128600000Y-89800000D03*
D11*
X123800000Y-68700000D03*
D10*
X134200000Y-83800000D03*
X131000000Y-71800000D03*
X130600000Y-85600000D03*
X119800000Y-91000000D03*
D11*
X120800000Y-74800000D03*
D10*
X129800000Y-82000000D03*
X132600000Y-89800000D03*
X123400000Y-86800000D03*
X136000000Y-56800000D03*
X132200000Y-82000000D03*
D11*
X122150000Y-68700000D03*
D10*
X121400000Y-87400000D03*
X130200000Y-61200000D03*
X125000000Y-89200000D03*
X122200000Y-88600000D03*
D11*
X140500000Y-65750000D03*
D10*
X115800000Y-91000000D03*
X124200000Y-91600000D03*
X133000000Y-74400000D03*
X127000000Y-91000000D03*
X112400000Y-69000000D03*
X110000000Y-69800000D03*
X113000000Y-71000000D03*
X130200000Y-86200000D03*
X113000000Y-64600000D03*
X129000000Y-88000000D03*
D11*
X124350000Y-68150000D03*
X137000000Y-67400000D03*
D10*
X114200000Y-61200000D03*
X142800000Y-57200000D03*
X140400000Y-83800000D03*
D11*
X125000000Y-72800000D03*
D10*
X132200000Y-86800000D03*
X141400000Y-92200000D03*
X128200000Y-86800000D03*
X110800000Y-84800000D03*
X110200000Y-61200000D03*
D11*
X122700000Y-67600000D03*
X122000000Y-74200000D03*
D10*
X122200000Y-91000000D03*
X110600000Y-61800000D03*
X132200000Y-91600000D03*
X125800000Y-90400000D03*
X129200000Y-74000000D03*
X113600000Y-68200000D03*
D11*
X122150000Y-65950000D03*
X132600000Y-73800000D03*
D10*
X110600000Y-73400000D03*
X130600000Y-88000000D03*
X129800000Y-86800000D03*
X129400000Y-87400000D03*
D11*
X140600000Y-68650000D03*
D10*
X130200000Y-81400000D03*
X117800000Y-83200000D03*
X113000000Y-69400000D03*
D11*
X125600000Y-72200000D03*
D10*
X124600000Y-61200000D03*
X135800000Y-86200000D03*
X133000000Y-90400000D03*
D11*
X121600000Y-65950000D03*
D10*
X110600000Y-67000000D03*
X134200000Y-61200000D03*
X127000000Y-92200000D03*
X124200000Y-90400000D03*
X135200000Y-63400000D03*
X110600000Y-70200000D03*
X119800000Y-88600000D03*
X127400000Y-63000000D03*
X110000000Y-80200000D03*
X135400000Y-84400000D03*
X116200000Y-61800000D03*
X134200000Y-89800000D03*
X132800000Y-75000000D03*
X131400000Y-85600000D03*
X126200000Y-88600000D03*
D11*
X115950000Y-64250000D03*
D10*
X134200000Y-88600000D03*
D11*
X121400000Y-74800000D03*
D10*
X118200000Y-62400000D03*
X114400000Y-76200000D03*
X135000000Y-61200000D03*
X123800000Y-89800000D03*
X127000000Y-62400000D03*
D11*
X123250000Y-69250000D03*
D10*
X111800000Y-79000000D03*
D11*
X123250000Y-66500000D03*
D10*
X138200000Y-75000000D03*
X133800000Y-89200000D03*
D11*
X123800000Y-67600000D03*
D10*
X131000000Y-83800000D03*
X129800000Y-61800000D03*
X135400000Y-91600000D03*
D11*
X117850000Y-74800000D03*
D10*
X135400000Y-58800000D03*
X131800000Y-62400000D03*
X129400000Y-86200000D03*
X112400000Y-68200000D03*
X132200000Y-83200000D03*
X110600000Y-78200000D03*
X129000000Y-85600000D03*
X115000000Y-91000000D03*
X126200000Y-87400000D03*
X135400000Y-60400000D03*
X137400000Y-65200000D03*
X113000000Y-61800000D03*
X133000000Y-84400000D03*
X111800000Y-69400000D03*
D11*
X121050000Y-66500000D03*
D10*
X128600000Y-85000000D03*
X116600000Y-62400000D03*
X115800000Y-88600000D03*
X129000000Y-91600000D03*
X115200000Y-80000000D03*
X123000000Y-85000000D03*
X110000000Y-70600000D03*
X128400000Y-75200000D03*
X134200000Y-85000000D03*
D11*
X121600000Y-66500000D03*
D10*
X124200000Y-88000000D03*
X127400000Y-89200000D03*
X111800000Y-79800000D03*
X122600000Y-90400000D03*
X119400000Y-91600000D03*
X118600000Y-91600000D03*
X127000000Y-87400000D03*
X121800000Y-91600000D03*
X130200000Y-87400000D03*
X131000000Y-88600000D03*
X127000000Y-89800000D03*
X136000000Y-60000000D03*
X132600000Y-92200000D03*
X133000000Y-88000000D03*
X122600000Y-89200000D03*
X120600000Y-88600000D03*
X119400000Y-83200000D03*
X138800000Y-76200000D03*
X114200000Y-92200000D03*
X133400000Y-91000000D03*
X113000000Y-67800000D03*
X123000000Y-87400000D03*
X117800000Y-61800000D03*
X135400000Y-55600000D03*
X132200000Y-88000000D03*
X118600000Y-61800000D03*
D11*
X120800000Y-76000000D03*
D10*
X136800000Y-60000000D03*
X111200000Y-79400000D03*
X113000000Y-63800000D03*
D11*
X139400000Y-65200000D03*
D10*
X116600000Y-91000000D03*
X126600000Y-86800000D03*
X124600000Y-88600000D03*
X117400000Y-61200000D03*
X113000000Y-66200000D03*
X129800000Y-85600000D03*
X113800000Y-91600000D03*
X118200000Y-83800000D03*
X115800000Y-89800000D03*
X125800000Y-91600000D03*
X115400000Y-90400000D03*
X111800000Y-78200000D03*
X138800000Y-77000000D03*
X119800000Y-87400000D03*
X123800000Y-88600000D03*
X125400000Y-91000000D03*
X126200000Y-92200000D03*
D11*
X122700000Y-69250000D03*
D10*
X129000000Y-90400000D03*
X128200000Y-88000000D03*
X129400000Y-89800000D03*
X120600000Y-91000000D03*
X127800000Y-61200000D03*
X121800000Y-90400000D03*
X136600000Y-88600000D03*
X134200000Y-87400000D03*
X128600000Y-83800000D03*
X135400000Y-89200000D03*
X133800000Y-91600000D03*
X110000000Y-68200000D03*
X131800000Y-85000000D03*
X135400000Y-57200000D03*
X131400000Y-83200000D03*
X117000000Y-63000000D03*
X133000000Y-83200000D03*
X119800000Y-83800000D03*
X126200000Y-91000000D03*
X130200000Y-85000000D03*
X129800000Y-91600000D03*
X138800000Y-62600000D03*
X137000000Y-86800000D03*
X110000000Y-75400000D03*
X113600000Y-66600000D03*
X143000000Y-92200000D03*
X129600000Y-74600000D03*
X133800000Y-84400000D03*
X142600000Y-92800000D03*
X129400000Y-62400000D03*
X115000000Y-89800000D03*
X125400000Y-89800000D03*
X141800000Y-91600000D03*
X125400000Y-87400000D03*
X123800000Y-61200000D03*
X111400000Y-64600000D03*
X131000000Y-86200000D03*
X121400000Y-88600000D03*
X129400000Y-80200000D03*
X133800000Y-86800000D03*
X127400000Y-91600000D03*
X120200000Y-86800000D03*
X129400000Y-81400000D03*
X114600000Y-80400000D03*
D11*
X121050000Y-68700000D03*
D10*
X121800000Y-89200000D03*
X130600000Y-84400000D03*
X119800000Y-61200000D03*
X131000000Y-62400000D03*
D11*
X123250000Y-67600000D03*
D10*
X110600000Y-71000000D03*
D11*
X134000000Y-71800000D03*
D10*
X128200000Y-85600000D03*
X137000000Y-92800000D03*
X113600000Y-71400000D03*
X114800000Y-69800000D03*
X110600000Y-71800000D03*
X132200000Y-89200000D03*
X117000000Y-61800000D03*
X110600000Y-75000000D03*
X119000000Y-88600000D03*
X110000000Y-76200000D03*
X119400000Y-84400000D03*
X134200000Y-86200000D03*
X133000000Y-61800000D03*
X133400000Y-85000000D03*
X131800000Y-61200000D03*
X115400000Y-71000000D03*
X120800000Y-77400000D03*
X132200000Y-84400000D03*
X134600000Y-88000000D03*
X125000000Y-86800000D03*
D11*
X121600000Y-68150000D03*
X124350000Y-67600000D03*
D10*
X136800000Y-61800000D03*
X133800000Y-90400000D03*
X129800000Y-90400000D03*
X112600000Y-61200000D03*
X131400000Y-91600000D03*
X133400000Y-83800000D03*
X127800000Y-88600000D03*
X130200000Y-92200000D03*
X118200000Y-85000000D03*
X121400000Y-92200000D03*
D11*
X120800000Y-74200000D03*
X121050000Y-69250000D03*
D10*
X134200000Y-91000000D03*
D11*
X122000000Y-74800000D03*
X122150000Y-66500000D03*
X121400000Y-75400000D03*
D10*
X111000000Y-61200000D03*
X119000000Y-85000000D03*
X115000000Y-62400000D03*
X131000000Y-92200000D03*
D11*
X134000000Y-73200000D03*
D10*
X124600000Y-87400000D03*
X111200000Y-69000000D03*
X110000000Y-74600000D03*
X130600000Y-80800000D03*
X111800000Y-74200000D03*
X128600000Y-88600000D03*
X131800000Y-89800000D03*
X119000000Y-87400000D03*
X121000000Y-89200000D03*
X133000000Y-85600000D03*
X110600000Y-69400000D03*
X114600000Y-61800000D03*
X136600000Y-86200000D03*
X116600000Y-88600000D03*
X111200000Y-73000000D03*
X112200000Y-92800000D03*
X129000000Y-86800000D03*
X111800000Y-75000000D03*
X129400000Y-85000000D03*
X117800000Y-84400000D03*
X127400000Y-90400000D03*
X113000000Y-70200000D03*
X123000000Y-88600000D03*
X128600000Y-86200000D03*
X125800000Y-88000000D03*
D11*
X121050000Y-67050000D03*
D10*
X124200000Y-86800000D03*
X111200000Y-78600000D03*
X116600000Y-89800000D03*
X130600000Y-83200000D03*
X114200000Y-69400000D03*
X125000000Y-91600000D03*
D11*
X121050000Y-68150000D03*
D10*
X128400000Y-74000000D03*
X138600000Y-92800000D03*
D11*
X127250000Y-69950000D03*
D10*
X138800000Y-62000000D03*
X110000000Y-73000000D03*
X135400000Y-85600000D03*
X135000000Y-83800000D03*
X111200000Y-70600000D03*
X120200000Y-84400000D03*
X129400000Y-82600000D03*
X119800000Y-85000000D03*
X121000000Y-84400000D03*
X135400000Y-59600000D03*
X135400000Y-82000000D03*
X133000000Y-89200000D03*
X115800000Y-61200000D03*
X136600000Y-55600000D03*
X128200000Y-84400000D03*
X135000000Y-85000000D03*
X129000000Y-84400000D03*
X131000000Y-91000000D03*
X135400000Y-92800000D03*
D11*
X121600000Y-67600000D03*
D10*
X137600000Y-72800000D03*
X131800000Y-82600000D03*
X132600000Y-62400000D03*
X118200000Y-89800000D03*
X123000000Y-61200000D03*
X117400000Y-89800000D03*
X110000000Y-71400000D03*
X137000000Y-73200000D03*
X123800000Y-91000000D03*
X123400000Y-88000000D03*
X138600000Y-88600000D03*
X135400000Y-58000000D03*
X128800000Y-73400000D03*
X113000000Y-72600000D03*
X123400000Y-90400000D03*
X114800000Y-70600000D03*
X111800000Y-68600000D03*
X129800000Y-80800000D03*
X129600000Y-75800000D03*
X135400000Y-90400000D03*
X111200000Y-71400000D03*
X133400000Y-92200000D03*
X110000000Y-72200000D03*
X135200000Y-64200000D03*
X120200000Y-91600000D03*
X138800000Y-75400000D03*
X129800000Y-88000000D03*
X121600000Y-77400000D03*
X126600000Y-61800000D03*
X120000000Y-77600000D03*
D11*
X142450000Y-65950000D03*
D10*
X131800000Y-92200000D03*
D11*
X121050000Y-67600000D03*
D10*
X129800000Y-84400000D03*
X111200000Y-80200000D03*
X132600000Y-85000000D03*
D11*
X122700000Y-68150000D03*
D10*
X119000000Y-78800000D03*
X120600000Y-89800000D03*
X135000000Y-89800000D03*
X129000000Y-61800000D03*
X119000000Y-91000000D03*
X112400000Y-70600000D03*
X113800000Y-92800000D03*
X123800000Y-92200000D03*
X110600000Y-62600000D03*
X110000000Y-79400000D03*
X116600000Y-61200000D03*
X119000000Y-77600000D03*
X110000000Y-78600000D03*
X135000000Y-86200000D03*
X126600000Y-91600000D03*
X124600000Y-92200000D03*
D11*
X120800000Y-75400000D03*
D10*
X114600000Y-78000000D03*
X136400000Y-72800000D03*
X134600000Y-86800000D03*
X121000000Y-88000000D03*
X110600000Y-79800000D03*
D11*
X121600000Y-67050000D03*
D10*
X123000000Y-91000000D03*
X135200000Y-65000000D03*
X140200000Y-92800000D03*
X132200000Y-74600000D03*
X126600000Y-63000000D03*
X122600000Y-84400000D03*
X113600000Y-69800000D03*
X126200000Y-61200000D03*
X141000000Y-92800000D03*
X121400000Y-85000000D03*
X111200000Y-77800000D03*
D11*
X123800000Y-67050000D03*
D10*
X110600000Y-75800000D03*
X123400000Y-89200000D03*
X122200000Y-61200000D03*
X138800000Y-59400000D03*
X121400000Y-89800000D03*
X117800000Y-90400000D03*
X111200000Y-76200000D03*
X110600000Y-72600000D03*
X115200000Y-79200000D03*
X128000000Y-75800000D03*
X139400000Y-92800000D03*
X122200000Y-85000000D03*
D11*
X123800000Y-69250000D03*
D10*
X129400000Y-92200000D03*
X135000000Y-91000000D03*
X133400000Y-61200000D03*
X133400000Y-87400000D03*
X130200000Y-82600000D03*
X114800000Y-69000000D03*
X117400000Y-88600000D03*
X119400000Y-88000000D03*
X111800000Y-73400000D03*
X113000000Y-68600000D03*
X117400000Y-62400000D03*
X133800000Y-61800000D03*
X132600000Y-86200000D03*
D11*
X123250000Y-68150000D03*
D10*
X130600000Y-90400000D03*
X119400000Y-78200000D03*
X114200000Y-70200000D03*
X118600000Y-84400000D03*
X121400000Y-91000000D03*
X131000000Y-82600000D03*
X125000000Y-88000000D03*
X132600000Y-61200000D03*
X123400000Y-85600000D03*
X135400000Y-61800000D03*
X135000000Y-92200000D03*
X122200000Y-87400000D03*
X121400000Y-83800000D03*
X133800000Y-85600000D03*
X119000000Y-89800000D03*
X118600000Y-88000000D03*
X118600000Y-86800000D03*
X129000000Y-82000000D03*
X133400000Y-88600000D03*
X115800000Y-62400000D03*
X123800000Y-87400000D03*
X113800000Y-75600000D03*
X139800000Y-92200000D03*
X126600000Y-90400000D03*
X131000000Y-71200000D03*
X124600000Y-86200000D03*
X129400000Y-88600000D03*
X125800000Y-89200000D03*
X128000000Y-74600000D03*
X129800000Y-89200000D03*
X111800000Y-72600000D03*
X133400000Y-86200000D03*
X117000000Y-89200000D03*
X115400000Y-61800000D03*
X110000000Y-77800000D03*
X118200000Y-91000000D03*
X127000000Y-61200000D03*
X130200000Y-63200000D03*
X134600000Y-89200000D03*
X117800000Y-89200000D03*
X131000000Y-87400000D03*
D11*
X123250000Y-67050000D03*
X122150000Y-67600000D03*
D10*
X120600000Y-83800000D03*
D11*
X137000000Y-68000000D03*
X125000000Y-72200000D03*
D10*
X121000000Y-91600000D03*
X140600000Y-92200000D03*
X115000000Y-88600000D03*
X139400000Y-91600000D03*
X110600000Y-67800000D03*
X112400000Y-71400000D03*
X135800000Y-88600000D03*
X131400000Y-84400000D03*
X134600000Y-61800000D03*
X119000000Y-61200000D03*
X134600000Y-90400000D03*
X125000000Y-90400000D03*
X129400000Y-91000000D03*
X127000000Y-88600000D03*
X114600000Y-91600000D03*
D11*
X124350000Y-68700000D03*
D10*
X119800000Y-92200000D03*
D11*
X116450000Y-64250000D03*
D10*
X127800000Y-86200000D03*
X126200000Y-89800000D03*
D11*
X136400000Y-67600000D03*
D10*
X129800000Y-83200000D03*
X120200000Y-88000000D03*
X132200000Y-85600000D03*
X112400000Y-72200000D03*
X120600000Y-92200000D03*
X141800000Y-92800000D03*
X138200000Y-77400000D03*
X133000000Y-86800000D03*
X123800000Y-86200000D03*
X110600000Y-68600000D03*
X140000000Y-55600000D03*
X130600000Y-82000000D03*
D11*
X122700000Y-66500000D03*
D10*
X118600000Y-90400000D03*
X116200000Y-90400000D03*
X122200000Y-92200000D03*
X119800000Y-78800000D03*
X133400000Y-89800000D03*
D11*
X122000000Y-76000000D03*
D10*
X110000000Y-69000000D03*
X120600000Y-85000000D03*
X132200000Y-90400000D03*
X133600000Y-75000000D03*
X129200000Y-75200000D03*
X114200000Y-68600000D03*
X132600000Y-87400000D03*
X115400000Y-89200000D03*
X123000000Y-89800000D03*
X114600000Y-79600000D03*
X113800000Y-61800000D03*
X111200000Y-77000000D03*
X112200000Y-64600000D03*
X124200000Y-89200000D03*
X136000000Y-56000000D03*
X134600000Y-91600000D03*
X116200000Y-63000000D03*
X135800000Y-92200000D03*
X118200000Y-61200000D03*
X112400000Y-69800000D03*
D11*
X122150000Y-68150000D03*
D10*
X127800000Y-87400000D03*
X128600000Y-91000000D03*
X135400000Y-56400000D03*
X140200000Y-91600000D03*
X130600000Y-91600000D03*
X130200000Y-62400000D03*
X138200000Y-75800000D03*
X130400000Y-71800000D03*
X131400000Y-88000000D03*
X111200000Y-69800000D03*
X111200000Y-75400000D03*
X126600000Y-88000000D03*
X126200000Y-62400000D03*
X121800000Y-84400000D03*
D11*
X123800000Y-68150000D03*
D10*
X131000000Y-75600000D03*
X131000000Y-61200000D03*
X117000000Y-90400000D03*
X124600000Y-89800000D03*
X110000000Y-77000000D03*
X142600000Y-91600000D03*
X111800000Y-70200000D03*
D11*
X123250000Y-68700000D03*
D10*
X113000000Y-71800000D03*
X128600000Y-61200000D03*
X124600000Y-91000000D03*
D11*
X122150000Y-69250000D03*
D10*
X110000000Y-67400000D03*
X129400000Y-61200000D03*
X113400000Y-61200000D03*
X121000000Y-90400000D03*
X131400000Y-61800000D03*
X135400000Y-88000000D03*
X128800000Y-74600000D03*
X130200000Y-89800000D03*
D11*
X109950000Y-87750000D03*
D10*
X130200000Y-83800000D03*
X118200000Y-78800000D03*
X128600000Y-92200000D03*
X130600000Y-86800000D03*
X112600000Y-92200000D03*
X115200000Y-77600000D03*
X114600000Y-92800000D03*
X115400000Y-63000000D03*
X130200000Y-88600000D03*
D11*
X122150000Y-67050000D03*
D10*
X118600000Y-83200000D03*
X131800000Y-91000000D03*
X121000000Y-86800000D03*
D11*
X122000000Y-75400000D03*
D10*
X131800000Y-87400000D03*
X121800000Y-88000000D03*
X129000000Y-89200000D03*
D11*
X142575659Y-69191764D03*
D10*
X119800000Y-89800000D03*
X139200000Y-55600000D03*
D11*
X121400000Y-76000000D03*
D10*
X128200000Y-90400000D03*
X129400000Y-83800000D03*
X123000000Y-92200000D03*
X127400000Y-88000000D03*
X110600000Y-74200000D03*
X111200000Y-73800000D03*
D11*
X121400000Y-74200000D03*
D10*
X119400000Y-90400000D03*
X131400000Y-82000000D03*
X111800000Y-77400000D03*
X118600000Y-78200000D03*
X125400000Y-88600000D03*
X110600000Y-76600000D03*
X131400000Y-86800000D03*
X118200000Y-88600000D03*
X113000000Y-65400000D03*
X123400000Y-91600000D03*
X129000000Y-83200000D03*
X130200000Y-80200000D03*
X135400000Y-86800000D03*
X135000000Y-87400000D03*
X134200000Y-92200000D03*
X120200000Y-90400000D03*
X134600000Y-66600000D03*
X128200000Y-89200000D03*
X110600000Y-77400000D03*
X114600000Y-78800000D03*
X138200000Y-76600000D03*
D11*
X123750000Y-66500000D03*
D10*
X113400000Y-92200000D03*
X121400000Y-61200000D03*
X119000000Y-92200000D03*
X138800000Y-60000000D03*
D11*
X126000000Y-71800000D03*
D10*
X130600000Y-89200000D03*
X111200000Y-72200000D03*
X133000000Y-91600000D03*
X128800000Y-75800000D03*
X131000000Y-85000000D03*
X120600000Y-61200000D03*
X112400000Y-73000000D03*
D11*
X117500000Y-75150000D03*
D10*
X139600000Y-83800000D03*
X122200000Y-89800000D03*
X117400000Y-91000000D03*
X120600000Y-87400000D03*
D11*
X124350000Y-69250000D03*
X125600000Y-72800000D03*
D10*
X118600000Y-89200000D03*
X111800000Y-80600000D03*
D11*
%TO.N,/MCU_Sheet/SPICLK_P*%
X123250000Y-70250000D03*
X128900000Y-70250000D03*
%TO.N,VDD_SPI*%
X119750000Y-76600000D03*
X128300000Y-70900000D03*
%TO.N,+3V3*%
X127900000Y-65200000D03*
X134250000Y-65950000D03*
X125415689Y-68800999D03*
X142550000Y-70200000D03*
X123450000Y-62500000D03*
X139900000Y-68450000D03*
X125700000Y-77350000D03*
X115950000Y-65200000D03*
X142650000Y-83150000D03*
X135200000Y-75700000D03*
X117100000Y-67250000D03*
X116900000Y-70000000D03*
X138400000Y-81600000D03*
X114050000Y-65200000D03*
%TO.N,Net-(D1-K)*%
X134750000Y-71750000D03*
X132750000Y-72400000D03*
X136650000Y-78550000D03*
%TO.N,/MCU_Sheet/PREVGH*%
X120400000Y-81650000D03*
X131450000Y-73750000D03*
X129600000Y-76800000D03*
%TO.N,Net-(J1-Pin_18)*%
X132550000Y-76800000D03*
X120400000Y-82950000D03*
%TO.N,Net-(J1-Pin_20)*%
X120400000Y-82300000D03*
X131050000Y-76800000D03*
%TO.N,Net-(J1-Pin_22)*%
X128100000Y-76800000D03*
X120400000Y-81000000D03*
%TO.N,Net-(J1-Pin_24)*%
X126650000Y-76800000D03*
X120400000Y-79700000D03*
D10*
%TO.N,VBUS*%
X116130000Y-76670000D03*
X116080000Y-71870000D03*
X114550000Y-81850000D03*
X110050000Y-81250000D03*
X113250000Y-82350000D03*
D11*
%TO.N,+BATT*%
X116500000Y-84750000D03*
D10*
X120050000Y-62900000D03*
D11*
X133850000Y-65050000D03*
X112850000Y-89300000D03*
X111450000Y-86800000D03*
X112000000Y-90650000D03*
%TO.N,VCC*%
X115550000Y-67250000D03*
X116850000Y-81850000D03*
X127400000Y-64000000D03*
X115050000Y-85700000D03*
%TO.N,/MCU_Sheet/PREVGL*%
X126850000Y-73400000D03*
X120400000Y-80350000D03*
%TO.N,/MCU_Sheet/SPICS0*%
X124850000Y-76600000D03*
X121500000Y-72000000D03*
%TO.N,/MCU_Sheet/SPID*%
X119750000Y-72800000D03*
X122450000Y-70250000D03*
%TO.N,/MCU_Sheet/SPIWP*%
X124850000Y-74050000D03*
X120850000Y-72000000D03*
%TO.N,/MCU_Sheet/SPIQ*%
X122200000Y-72000000D03*
X124850000Y-75350000D03*
%TO.N,/MCU_Sheet/SPICLK*%
X119750000Y-74500000D03*
X121600000Y-70250000D03*
X119750000Y-74500000D03*
%TO.N,/MCU_Sheet/SPIHD*%
X120400000Y-70250000D03*
X119750000Y-75350000D03*
%TO.N,I2C_SCL*%
X119600000Y-64500000D03*
X141272635Y-64955308D03*
X139800000Y-56700000D03*
X141200000Y-68150000D03*
X110650000Y-86800000D03*
X140100000Y-64650000D03*
X142000000Y-56450000D03*
X131950000Y-67000000D03*
%TO.N,I2C_SDA*%
X119600000Y-63800000D03*
X142800000Y-55950000D03*
X140105918Y-69395543D03*
X137900000Y-56700000D03*
X110000000Y-86800000D03*
X132800000Y-67000000D03*
X141950000Y-64850000D03*
X136450000Y-68550000D03*
%TO.N,BMP_INT*%
X138150000Y-70350000D03*
X120350000Y-69550000D03*
%TO.N,D_BUSY*%
X118550000Y-66300000D03*
X125450000Y-83000000D03*
%TO.N,D_RES*%
X125450000Y-82350000D03*
X120350000Y-68050000D03*
%TO.N,D_DC*%
X120350000Y-67050000D03*
X125450000Y-81700000D03*
%TO.N,D_MOSI*%
X120350000Y-65100000D03*
X125450000Y-79750000D03*
%TO.N,D_SCK*%
X125450000Y-80400000D03*
X120350000Y-65750000D03*
%TO.N,D_SS*%
X125450000Y-81050000D03*
X118800000Y-64900000D03*
%TO.N,/MCU_Sheet/RESE*%
X138150000Y-82800000D03*
X130800000Y-79650000D03*
%TO.N,/MCU_Sheet/GDR*%
X131500000Y-79650000D03*
X135250000Y-78550000D03*
%TO.N,BTN1*%
X136400000Y-65200000D03*
X135650000Y-70350000D03*
X135650000Y-67400000D03*
X123000000Y-65250000D03*
%TO.N,BTN2*%
X123650000Y-65250000D03*
X133350000Y-70400980D03*
%TO.N,BTN3*%
X136650000Y-90350000D03*
X132750000Y-71750000D03*
X132500000Y-70400000D03*
X122350000Y-65250000D03*
%TO.N,MAG_INT*%
X125250000Y-66550000D03*
X134000000Y-70400980D03*
%TO.N,MAG_DRDY*%
X125400000Y-69850000D03*
X141900000Y-67050000D03*
%TO.N,RTC_INT*%
X121000000Y-63350000D03*
X134196800Y-67296800D03*
%TO.N,LDO2*%
X120350000Y-68700000D03*
X130100000Y-70150000D03*
%TO.N,MAX17_INT*%
X121746095Y-62850564D03*
X111000000Y-91300000D03*
X112200000Y-76050000D03*
X113600000Y-76450000D03*
%TO.N,ACCEL_INT1*%
X141500000Y-69550000D03*
X121700000Y-65250000D03*
%TO.N,ACCEL_INT2*%
X139050000Y-69800981D03*
X121000000Y-65250000D03*
%TO.N,LDO2_EN*%
X128350000Y-62500000D03*
X130450000Y-65650000D03*
%TO.N,USB_N*%
X117513119Y-73463119D03*
X114065744Y-74266561D03*
%TO.N,USB_P*%
X117986881Y-73936881D03*
X113591982Y-74740323D03*
%TO.N,+3.3VA*%
X138400000Y-68050000D03*
X140800000Y-57200000D03*
X138400000Y-66200000D03*
X130200000Y-64000000D03*
X142800000Y-64850000D03*
%TD*%
D12*
%TO.N,/MCU_Sheet/SPICLK_P*%
X127693584Y-70800000D02*
X123940532Y-70800000D01*
X128243584Y-70250000D02*
X127693584Y-70800000D01*
X123390532Y-70250000D02*
X123250000Y-70250000D01*
X128900000Y-70250000D02*
X128243584Y-70250000D01*
X123940532Y-70800000D02*
X123390532Y-70250000D01*
%TO.N,+3V3*%
X119550000Y-61800000D02*
X119430000Y-61920000D01*
X119430000Y-62000000D02*
X116230000Y-65200000D01*
X123450000Y-62500000D02*
X122750000Y-61800000D01*
X119430000Y-61920000D02*
X119430000Y-62000000D01*
X122750000Y-61800000D02*
X119550000Y-61800000D01*
X116230000Y-65200000D02*
X115950000Y-65200000D01*
%TO.N,Net-(D1-K)*%
X136300000Y-78200000D02*
X136300000Y-77506416D01*
X134650000Y-71850000D02*
X134750000Y-71750000D01*
X132750000Y-72400000D02*
X134600000Y-72400000D01*
X134600000Y-72400000D02*
X134650000Y-72350000D01*
X136650000Y-78550000D02*
X136300000Y-78200000D01*
X134650000Y-72350000D02*
X134650000Y-71850000D01*
X136300000Y-77506416D02*
X134650000Y-75856416D01*
X134650000Y-75856416D02*
X134650000Y-72350000D01*
%TO.N,/MCU_Sheet/PREVGH*%
X127698560Y-82135037D02*
X127698559Y-81173631D01*
X130350000Y-74850000D02*
X131450000Y-73750000D01*
X120400000Y-81650000D02*
X123318081Y-81650000D01*
X126091236Y-84548068D02*
X126998069Y-83641234D01*
X126998069Y-83641234D02*
X126998068Y-82835532D01*
X126998068Y-82835532D02*
X127698560Y-82135037D01*
X128806416Y-76800000D02*
X129600000Y-76800000D01*
X123531669Y-81863588D02*
X123531670Y-83270974D01*
X123531670Y-83270974D02*
X124808769Y-84548070D01*
X124808769Y-84548070D02*
X126091236Y-84548068D01*
X127698559Y-81173631D02*
X128048559Y-80823631D01*
X128048559Y-80823631D02*
X128048559Y-77557857D01*
X123318081Y-81650000D02*
X123531669Y-81863588D01*
X130350000Y-76050000D02*
X130350000Y-74850000D01*
X129600000Y-76800000D02*
X130350000Y-76050000D01*
X128048559Y-77557857D02*
X128806416Y-76800000D01*
%TO.N,Net-(J1-Pin_18)*%
X132100000Y-76800000D02*
X132550000Y-76800000D01*
X127697109Y-83125081D02*
X128397600Y-82424587D01*
X128397600Y-81463182D02*
X128747597Y-81113185D01*
X126380787Y-85247109D02*
X127697109Y-83930784D01*
X124519215Y-85247110D02*
X126380787Y-85247109D01*
X120400000Y-82950000D02*
X122222103Y-82950000D01*
X128747597Y-81113185D02*
X128747597Y-78152403D01*
X127697109Y-83930784D02*
X127697109Y-83125081D01*
X128397600Y-82424587D02*
X128397600Y-81463182D01*
X128747597Y-78152403D02*
X129250480Y-77649520D01*
X129250480Y-77649520D02*
X131250480Y-77649520D01*
X131250480Y-77649520D02*
X132100000Y-76800000D01*
X122222103Y-82950000D02*
X124519215Y-85247110D01*
%TO.N,Net-(J1-Pin_20)*%
X128398078Y-77702634D02*
X128800712Y-77300000D01*
X128800712Y-77300000D02*
X130550000Y-77300000D01*
X123182150Y-83415751D02*
X124663990Y-84897590D01*
X120400000Y-82300000D02*
X123000000Y-82300000D01*
X128048080Y-82279812D02*
X128048079Y-81318407D01*
X123182149Y-82482149D02*
X123182150Y-83415751D01*
X127347589Y-83786009D02*
X127347589Y-82980306D01*
X130550000Y-77300000D02*
X131050000Y-76800000D01*
X126236013Y-84897587D02*
X127347589Y-83786009D01*
X128048079Y-81318407D02*
X128398078Y-80968408D01*
X127347589Y-82980306D02*
X128048080Y-82279812D01*
X124663990Y-84897590D02*
X126236013Y-84897587D01*
X123000000Y-82300000D02*
X123182149Y-82482149D01*
X128398078Y-80968408D02*
X128398078Y-77702634D01*
%TO.N,Net-(J1-Pin_22)*%
X127699040Y-77200960D02*
X128100000Y-76800000D01*
X125946459Y-84198549D02*
X126648549Y-83496459D01*
X127349040Y-81990262D02*
X127349039Y-81028855D01*
X123881189Y-81718812D02*
X123881189Y-83126197D01*
X127699040Y-80678854D02*
X127699040Y-77200960D01*
X127349039Y-81028855D02*
X127699040Y-80678854D01*
X123300000Y-81000000D02*
X123552411Y-81252411D01*
X123552411Y-81252411D02*
X123552412Y-81390035D01*
X124953543Y-84198550D02*
X125946459Y-84198549D01*
X126648549Y-82690755D02*
X127349040Y-81990262D01*
X120400000Y-81000000D02*
X123300000Y-81000000D01*
X123552412Y-81390035D02*
X123881189Y-81718812D01*
X123881189Y-83126197D02*
X124953543Y-84198550D01*
X126648549Y-83496459D02*
X126648549Y-82690755D01*
%TO.N,Net-(J1-Pin_24)*%
X125243095Y-83499511D02*
X125656905Y-83499511D01*
X124600969Y-81450000D02*
X124600969Y-82857385D01*
X120400000Y-79700000D02*
X124000000Y-79700000D01*
X124600969Y-82857385D02*
X125243095Y-83499511D01*
X125949511Y-83206905D02*
X125949511Y-82401201D01*
X126650000Y-80739302D02*
X127000000Y-80389304D01*
X124251450Y-81100481D02*
X124600969Y-81450000D01*
X124251449Y-79951449D02*
X124251450Y-81100481D01*
X125656905Y-83499511D02*
X125949511Y-83206905D01*
X125949511Y-82401201D02*
X126650000Y-81700712D01*
X127000000Y-77150000D02*
X126650000Y-76800000D01*
X126650000Y-81700712D02*
X126650000Y-80739302D01*
X127000000Y-80389304D02*
X127000000Y-77150000D01*
X124000000Y-79700000D02*
X124251449Y-79951449D01*
%TO.N,/MCU_Sheet/PREVGL*%
X127349520Y-73899520D02*
X126850000Y-73400000D01*
X123750000Y-80350000D02*
X123901929Y-80501929D01*
X126999519Y-80884079D02*
X127349520Y-80534079D01*
X123901931Y-81245258D02*
X124251449Y-81594776D01*
X125801682Y-83849030D02*
X126299030Y-83351682D01*
X126299030Y-83351682D02*
X126299030Y-82545978D01*
X123901929Y-80501929D02*
X123901931Y-81245258D01*
X126299030Y-82545978D02*
X126999520Y-81845487D01*
X124251450Y-83002162D02*
X125098318Y-83849030D01*
X126999520Y-81845487D02*
X126999519Y-80884079D01*
X120400000Y-80350000D02*
X123750000Y-80350000D01*
X125098318Y-83849030D02*
X125801682Y-83849030D01*
X127349520Y-80534079D02*
X127349520Y-73899520D01*
X124251449Y-81594776D02*
X124251450Y-83002162D01*
%TO.N,I2C_SCL*%
X127315064Y-66850000D02*
X131750000Y-66850000D01*
X113080000Y-74510000D02*
X113080000Y-81707518D01*
X117600000Y-71620000D02*
X117600000Y-72669822D01*
X117600000Y-72669822D02*
X116519822Y-73750000D01*
X141750000Y-56700000D02*
X142000000Y-56450000D01*
X122686249Y-63699040D02*
X124288346Y-63699042D01*
X131750000Y-66850000D02*
X131900000Y-67000000D01*
X119600000Y-64500000D02*
X119500489Y-64400489D01*
X121249288Y-64500000D02*
X121698328Y-64050961D01*
X141200000Y-69143584D02*
X141200000Y-68150000D01*
X118300489Y-64693095D02*
X118300489Y-65843095D01*
X112480000Y-84970000D02*
X110650000Y-86800000D01*
X131950000Y-67050000D02*
X133052891Y-68152891D01*
X131950000Y-67000000D02*
X131950000Y-67050000D01*
X139106886Y-69151451D02*
X139906396Y-69950961D01*
X126798070Y-65908768D02*
X126798070Y-66333006D01*
X119500489Y-64400489D02*
X118593095Y-64400489D01*
X141249511Y-68100489D02*
X141200000Y-68150000D01*
X122334330Y-64050960D02*
X122686249Y-63699040D01*
X134939775Y-69151451D02*
X139106886Y-69151451D01*
X116519822Y-73750000D02*
X113840000Y-73750000D01*
X117402885Y-67974923D02*
X117402886Y-71422886D01*
X138050000Y-58050000D02*
X139400000Y-56700000D01*
X124288346Y-63699042D02*
X125591235Y-65001931D01*
X121698328Y-64050961D02*
X122334330Y-64050960D01*
X117863904Y-67513904D02*
X117402885Y-67974923D01*
X118593095Y-64400489D02*
X118300489Y-64693095D01*
X139906396Y-69950961D02*
X140392623Y-69950961D01*
X139050000Y-64650000D02*
X138050000Y-63650000D01*
X131900000Y-67000000D02*
X131950000Y-67000000D01*
X141249511Y-64978432D02*
X141249511Y-68100489D01*
X138050000Y-63650000D02*
X138050000Y-58050000D01*
X133052891Y-68152891D02*
X133941215Y-68152891D01*
X113080000Y-81707518D02*
X112480000Y-82307518D01*
X139800000Y-56700000D02*
X141750000Y-56700000D01*
X139400000Y-56700000D02*
X139800000Y-56700000D01*
X126798070Y-66333006D02*
X127315064Y-66850000D01*
X133941215Y-68152891D02*
X134939775Y-69151451D01*
X118300489Y-65843095D02*
X117863904Y-66279680D01*
X112480000Y-82307518D02*
X112480000Y-84970000D01*
X125891235Y-65001932D02*
X126798070Y-65908768D01*
X125591235Y-65001931D02*
X125891235Y-65001932D01*
X140100000Y-64650000D02*
X139050000Y-64650000D01*
X140392623Y-69950961D02*
X141200000Y-69143584D01*
X113840000Y-73750000D02*
X113080000Y-74510000D01*
X141272635Y-64955308D02*
X141249511Y-64978432D01*
X117402886Y-71422886D02*
X117600000Y-71620000D01*
X117863904Y-66279680D02*
X117863904Y-67513904D01*
X119600000Y-64500000D02*
X121249288Y-64500000D01*
%TO.N,I2C_SDA*%
X117053366Y-71153366D02*
X117053366Y-71592886D01*
X134085989Y-67803369D02*
X135084551Y-68801931D01*
X139350000Y-66150000D02*
X139350000Y-68639625D01*
X126036013Y-64652413D02*
X127147590Y-65763990D01*
X132750000Y-67000000D02*
X132800000Y-67000000D01*
X110655704Y-86300000D02*
X110330000Y-86300000D01*
X137700481Y-63794777D02*
X137700481Y-56899519D01*
X116600000Y-67043584D02*
X116600000Y-67490000D01*
X118699288Y-63800000D02*
X117950969Y-64548320D01*
X110330000Y-86300000D02*
X110000000Y-86630000D01*
X117514385Y-66134903D02*
X117514385Y-66424457D01*
X141555797Y-64455797D02*
X141044203Y-64455797D01*
X117950970Y-65698318D02*
X117514385Y-66134903D01*
X116893095Y-66750489D02*
X116600000Y-67043584D01*
X116375046Y-73400480D02*
X113695223Y-73400481D01*
X116149520Y-67940480D02*
X116149520Y-70249520D01*
X110000000Y-86630000D02*
X110000000Y-86800000D01*
X125736011Y-64652411D02*
X126036013Y-64652413D01*
X132800000Y-67000000D02*
X132800000Y-67050000D01*
X117188353Y-66750489D02*
X116893095Y-66750489D01*
X112130481Y-84825223D02*
X110655704Y-86300000D01*
X139425000Y-66075000D02*
X139350000Y-66150000D01*
X141950000Y-64850000D02*
X141555797Y-64455797D01*
X116149520Y-70249520D02*
X117053366Y-71153366D01*
X137900000Y-56700000D02*
X138399511Y-56200489D01*
X132250000Y-66500000D02*
X132750000Y-67000000D01*
X136401931Y-68598069D02*
X136450000Y-68550000D01*
X141044203Y-64455797D02*
X139425000Y-66075000D01*
X141793584Y-55950000D02*
X142800000Y-55950000D01*
X112730480Y-74365225D02*
X113695223Y-73400481D01*
X121204992Y-64050000D02*
X121553554Y-63701441D01*
X119850000Y-64050000D02*
X121204992Y-64050000D01*
X124433120Y-63349520D02*
X125736011Y-64652411D01*
X139512306Y-68801931D02*
X140105918Y-69395543D01*
X138900489Y-64994785D02*
X137700481Y-63794777D01*
X135084551Y-68801931D02*
X136401931Y-68801931D01*
X127147590Y-65763990D02*
X127147590Y-66188230D01*
X117514385Y-66424457D02*
X117188353Y-66750489D01*
X112130480Y-82162743D02*
X112130481Y-84825223D01*
X121553554Y-63701441D02*
X122189553Y-63701441D01*
X117250480Y-71790000D02*
X117250480Y-72525046D01*
X136401931Y-68801931D02*
X139512306Y-68801931D01*
X137700481Y-56899519D02*
X137900000Y-56700000D01*
X116600000Y-67490000D02*
X116149520Y-67940480D01*
X122189553Y-63701441D02*
X122541474Y-63349520D01*
X117250480Y-72525046D02*
X116375046Y-73400480D01*
X112730480Y-74365225D02*
X112730480Y-81562742D01*
X119600000Y-63800000D02*
X119850000Y-64050000D01*
X117053366Y-71592886D02*
X117250480Y-71790000D01*
X119600000Y-63800000D02*
X118699288Y-63800000D01*
X122541474Y-63349520D02*
X124433120Y-63349520D01*
X132800000Y-67050000D02*
X133553369Y-67803369D01*
X139350000Y-68639625D02*
X139512306Y-68801931D01*
X136401931Y-68801931D02*
X136401931Y-68598069D01*
X127459360Y-66500000D02*
X132250000Y-66500000D01*
X112730480Y-81562742D02*
X112130480Y-82162743D01*
X141543095Y-56200489D02*
X141793584Y-55950000D01*
X133553369Y-67803369D02*
X134085989Y-67803369D01*
X139425000Y-66075000D02*
X138900489Y-65550489D01*
X117950969Y-64548320D02*
X117950970Y-65698318D01*
X127147590Y-66188230D02*
X127459360Y-66500000D01*
X138399511Y-56200489D02*
X141543095Y-56200489D01*
X138900489Y-65550489D02*
X138900489Y-64994785D01*
%TO.N,BMP_INT*%
X132051192Y-70900480D02*
X137549520Y-70900480D01*
X120550489Y-69750489D02*
X124793095Y-69750489D01*
X125193095Y-69350489D02*
X125850472Y-69350489D01*
X138100000Y-70350000D02*
X138150000Y-70350000D01*
X125899991Y-69300970D02*
X130451682Y-69300970D01*
X124793095Y-69750489D02*
X125193095Y-69350489D01*
X137549520Y-70900480D02*
X138100000Y-70350000D01*
X125850472Y-69350489D02*
X125899991Y-69300970D01*
X120350000Y-69550000D02*
X120550489Y-69750489D01*
X130451682Y-69300970D02*
X132051192Y-70900480D01*
%TO.N,D_BUSY*%
X120696935Y-73548071D02*
X122448071Y-73548071D01*
X122602400Y-77723875D02*
X124600969Y-79722446D01*
X124950489Y-82600489D02*
X125350000Y-83000000D01*
X118551451Y-73296459D02*
X119253544Y-73998551D01*
X122602400Y-73702400D02*
X122602400Y-77723875D01*
X124950489Y-81200000D02*
X124950489Y-82600489D01*
X118400481Y-67471623D02*
X117752404Y-68119700D01*
X124600970Y-80751682D02*
X124805714Y-80956425D01*
X120246457Y-73998550D02*
X120696935Y-73548071D01*
X118550000Y-66300000D02*
X118400481Y-66449519D01*
X117752405Y-71274599D02*
X118551449Y-72073638D01*
X125350000Y-83000000D02*
X125450000Y-83000000D01*
X124805714Y-81055225D02*
X124950489Y-81200000D01*
X122448071Y-73548071D02*
X122602400Y-73702400D01*
X117752404Y-68119700D02*
X117752405Y-71274599D01*
X124600969Y-79722446D02*
X124600970Y-80751682D01*
X118400481Y-66449519D02*
X118400481Y-67471623D01*
X118551449Y-72073638D02*
X118551451Y-73296459D01*
X119253544Y-73998551D02*
X120246457Y-73998550D01*
X124805714Y-80956425D02*
X124805714Y-81055225D01*
%TO.N,D_RES*%
X126648550Y-79148550D02*
X126648550Y-80246457D01*
X126648550Y-80246457D02*
X126299031Y-80595975D01*
X120350000Y-68050000D02*
X120293584Y-68050000D01*
X125506416Y-82350000D02*
X125450000Y-82350000D01*
X126299031Y-80595975D02*
X126299031Y-81557385D01*
X126299031Y-81557385D02*
X125506416Y-82350000D01*
X123250970Y-71099030D02*
X124350000Y-72198060D01*
X120293584Y-68050000D02*
X119500000Y-68843584D01*
X120048320Y-71099031D02*
X123250970Y-71099030D01*
X124350000Y-72198060D02*
X124350000Y-76850000D01*
X119500000Y-68843584D02*
X119500000Y-70550712D01*
X119500000Y-70550712D02*
X120048320Y-71099031D01*
X124350000Y-76850000D02*
X126648550Y-79148550D01*
%TO.N,D_DC*%
X119150481Y-68698807D02*
X119150481Y-70695489D01*
X119799644Y-68049644D02*
X119150481Y-68698807D01*
X125949511Y-81256905D02*
X125506416Y-81700000D01*
X119903546Y-71448551D02*
X123106194Y-71448550D01*
X125949511Y-80451200D02*
X125949511Y-81256905D01*
X123106194Y-71448550D02*
X124000480Y-72342836D01*
X124000480Y-72342836D02*
X124000480Y-77144775D01*
X124000480Y-77144775D02*
X125725480Y-78869776D01*
X119150481Y-70695489D02*
X119752496Y-71297504D01*
X120350000Y-67050000D02*
X119799644Y-67600356D01*
X119752496Y-71297504D02*
X119903546Y-71448551D01*
X119799644Y-67600356D02*
X119799644Y-68049644D01*
X126299031Y-79398319D02*
X126299031Y-80101680D01*
X125770489Y-78869777D02*
X126299031Y-79398319D01*
X126299031Y-80101680D02*
X125949511Y-80451200D01*
X125725480Y-78869776D02*
X125770489Y-78869777D01*
X125506416Y-81700000D02*
X125450000Y-81700000D01*
%TO.N,D_MOSI*%
X119956905Y-73299511D02*
X120407385Y-72849031D01*
X123301440Y-77434325D02*
X125450000Y-79582886D01*
X119100605Y-67098684D02*
X119100606Y-67760090D01*
X119250489Y-71784088D02*
X119250489Y-73006905D01*
X118451443Y-70985043D02*
X119250489Y-71784088D01*
X118451442Y-68409254D02*
X118451443Y-70985043D01*
X119100606Y-67760090D02*
X118451442Y-68409254D01*
X123301440Y-73101440D02*
X123301440Y-77434325D01*
X119250489Y-73006905D02*
X119543095Y-73299511D01*
X120293584Y-65100000D02*
X119850489Y-65543095D01*
X123049031Y-72849031D02*
X123301440Y-73101440D01*
X119543095Y-73299511D02*
X119956905Y-73299511D01*
X125450000Y-79582886D02*
X125450000Y-79750000D01*
X120350000Y-65100000D02*
X120293584Y-65100000D01*
X120407385Y-72849031D02*
X123049031Y-72849031D01*
X119850489Y-65543095D02*
X119850489Y-66348799D01*
X119850489Y-66348799D02*
X119100605Y-67098684D01*
%TO.N,D_SCK*%
X123299511Y-72499511D02*
X123650960Y-72850960D01*
X123650960Y-72850960D02*
X123650960Y-77289550D01*
X120460207Y-72499511D02*
X123299511Y-72499511D01*
X125949511Y-79956905D02*
X125506416Y-80400000D01*
X125625712Y-79219296D02*
X125949511Y-79543095D01*
X118800962Y-70840266D02*
X120460207Y-72499511D01*
X123650960Y-77289550D02*
X125580704Y-79219296D01*
X119450125Y-67243459D02*
X119450125Y-67904867D01*
X125506416Y-80400000D02*
X125450000Y-80400000D01*
X119450125Y-67904867D02*
X118800961Y-68554032D01*
X120350000Y-66343584D02*
X119450125Y-67243459D01*
X125580704Y-79219296D02*
X125625712Y-79219296D01*
X120350000Y-65750000D02*
X120350000Y-66343584D01*
X118800961Y-68554032D02*
X118800962Y-70840266D01*
X125949511Y-79543095D02*
X125949511Y-79956905D01*
%TO.N,D_SS*%
X125221792Y-80878208D02*
X124950489Y-80606905D01*
X119398319Y-73649031D02*
X118900970Y-73151682D01*
X119400000Y-65500000D02*
X118800000Y-64900000D01*
X118511412Y-71539306D02*
X118101924Y-71129821D01*
X120552161Y-73198551D02*
X120101680Y-73649031D01*
X125450000Y-81050000D02*
X125400000Y-81000000D01*
X124950489Y-79577671D02*
X122951920Y-77579100D01*
X124950489Y-80606905D02*
X124950489Y-79577671D01*
X118101924Y-71129821D02*
X118101923Y-68264477D01*
X118900969Y-71928863D02*
X118511412Y-71539306D01*
X122800000Y-73198551D02*
X120552161Y-73198551D01*
X125400000Y-81000000D02*
X125300000Y-81000000D01*
X118900970Y-73151682D02*
X118900969Y-71928863D01*
X122951920Y-73350471D02*
X122800000Y-73198551D01*
X125300000Y-81000000D02*
X125221792Y-80921792D01*
X118101923Y-68264477D02*
X118750000Y-67616400D01*
X125221792Y-80921792D02*
X125221792Y-80878208D01*
X118750000Y-67616400D02*
X118750000Y-66954992D01*
X122951920Y-77579100D02*
X122951920Y-73350471D01*
X118750000Y-66954992D02*
X119400000Y-66304992D01*
X119400000Y-66304992D02*
X119400000Y-65500000D01*
X120101680Y-73649031D02*
X119398319Y-73649031D01*
%TO.N,/MCU_Sheet/RESE*%
X130800000Y-79656416D02*
X133943584Y-82800000D01*
X133943584Y-82800000D02*
X138150000Y-82800000D01*
X130800000Y-79650000D02*
X130800000Y-79656416D01*
%TO.N,/MCU_Sheet/GDR*%
X132600000Y-78550000D02*
X135250000Y-78550000D01*
X131500000Y-79650000D02*
X132600000Y-78550000D01*
%TO.N,BTN1*%
X125749511Y-66767335D02*
X125749511Y-66343095D01*
X133506885Y-69201449D02*
X132329345Y-69201449D01*
X132329345Y-69201449D02*
X131028858Y-67900962D01*
X134655436Y-70350000D02*
X135650000Y-70350000D01*
X125749511Y-66343095D02*
X125456905Y-66050489D01*
X128551930Y-67900961D02*
X128550000Y-67902891D01*
X125156905Y-66050489D02*
X123856905Y-64750489D01*
X123856905Y-64750489D02*
X123443095Y-64750489D01*
X123000000Y-65193584D02*
X123000000Y-65250000D01*
X135650000Y-67400000D02*
X135650000Y-65800000D01*
X136250000Y-65200000D02*
X136400000Y-65200000D01*
X123443095Y-64750489D02*
X123000000Y-65193584D01*
X131028858Y-67900962D02*
X128551930Y-67900961D01*
X126885066Y-67902890D02*
X125749511Y-66767335D01*
X125456905Y-66050489D02*
X125156905Y-66050489D01*
X135650000Y-65800000D02*
X136250000Y-65200000D01*
X128550000Y-67902891D02*
X126885066Y-67902890D01*
X134655436Y-70350000D02*
X133506885Y-69201449D01*
%TO.N,BTN2*%
X132706905Y-69900489D02*
X132293095Y-69900489D01*
X130739304Y-68600000D02*
X128991482Y-68600000D01*
X128989550Y-68601931D02*
X126595515Y-68601931D01*
X132166444Y-70027140D02*
X130739304Y-68600000D01*
X133350000Y-70400980D02*
X133207396Y-70400980D01*
X124750489Y-66756905D02*
X124750489Y-66255705D01*
X132293095Y-69900489D02*
X132166444Y-70027140D01*
X123744784Y-65250000D02*
X123650000Y-65250000D01*
X128991482Y-68600000D02*
X128989550Y-68601931D01*
X133207396Y-70400980D02*
X132706905Y-69900489D01*
X126595515Y-68601931D02*
X124750489Y-66756905D01*
X124750489Y-66255705D02*
X123744784Y-65250000D01*
%TO.N,BTN3*%
X122350000Y-65306416D02*
X122350000Y-65250000D01*
X124400969Y-66400480D02*
X123750000Y-65749511D01*
X126450739Y-68951451D02*
X124400970Y-66901682D01*
X137500000Y-87400000D02*
X137500000Y-89500000D01*
X138443584Y-82350000D02*
X138550000Y-82350000D01*
X134300480Y-76001191D02*
X135749511Y-77450223D01*
X132693584Y-71750000D02*
X132250489Y-72193095D01*
X129134327Y-68951449D02*
X129134325Y-68951451D01*
X132195968Y-70550960D02*
X130596456Y-68951449D01*
X132250489Y-72650489D02*
X134300480Y-74700480D01*
X132500000Y-70400000D02*
X132349040Y-70550960D01*
X137500000Y-89500000D02*
X136650000Y-90350000D01*
X134300480Y-74700480D02*
X134300480Y-76001191D01*
X132750000Y-71750000D02*
X132693584Y-71750000D01*
X136296792Y-78903208D02*
X136296792Y-80203208D01*
X138550000Y-82350000D02*
X138649511Y-82449511D01*
X135749511Y-78355927D02*
X136296792Y-78903208D01*
X123750000Y-65749511D02*
X122793095Y-65749511D01*
X138649511Y-86250489D02*
X137500000Y-87400000D01*
X122793095Y-65749511D02*
X122350000Y-65306416D01*
X136296792Y-80203208D02*
X138443584Y-82350000D01*
X130596456Y-68951449D02*
X129134327Y-68951449D01*
X129134325Y-68951451D02*
X126450739Y-68951451D01*
X132250489Y-72193095D02*
X132250489Y-72650489D01*
X138649511Y-82449511D02*
X138649511Y-86250489D01*
X124400970Y-66901682D02*
X124400969Y-66400480D01*
X135749511Y-77450223D02*
X135749511Y-78355927D01*
X132349040Y-70550960D02*
X132195968Y-70550960D01*
%TO.N,MAG_INT*%
X128846706Y-68250480D02*
X128844775Y-68252411D01*
X126740291Y-68252411D02*
X125250000Y-66762120D01*
X128844775Y-68252411D02*
X126740291Y-68252411D01*
X134000000Y-70400980D02*
X134000000Y-70344564D01*
X130884081Y-68250481D02*
X128846706Y-68250480D01*
X132184569Y-69550969D02*
X130884081Y-68250481D01*
X134000000Y-70344564D02*
X133206405Y-69550969D01*
X133206405Y-69550969D02*
X132184569Y-69550969D01*
X125250000Y-66762120D02*
X125250000Y-66550000D01*
%TO.N,MAG_DRDY*%
X141900000Y-67050000D02*
X142000000Y-67150000D01*
X130306905Y-69650489D02*
X128348799Y-69650489D01*
X131906416Y-71250000D02*
X130306905Y-69650489D01*
X127548808Y-70450480D02*
X126000480Y-70450480D01*
X142000000Y-67150000D02*
X142000000Y-69800000D01*
X126000480Y-70450480D02*
X125400000Y-69850000D01*
X141150000Y-70650000D02*
X139000000Y-70650000D01*
X139000000Y-70650000D02*
X138400000Y-71250000D01*
X128348799Y-69650489D02*
X127548808Y-70450480D01*
X142000000Y-69800000D02*
X141150000Y-70650000D01*
X138400000Y-71250000D02*
X131906416Y-71250000D01*
%TO.N,RTC_INT*%
X125880788Y-64302892D02*
X124577897Y-63000001D01*
X121643584Y-63350000D02*
X121000000Y-63350000D01*
X127497110Y-66043454D02*
X127497109Y-65619213D01*
X122044776Y-63351922D02*
X121645505Y-63351921D01*
X121645505Y-63351921D02*
X121643584Y-63350000D01*
X126180790Y-64302894D02*
X125880788Y-64302892D01*
X124577897Y-63000001D02*
X122396698Y-63000000D01*
X127603656Y-66150000D02*
X127497110Y-66043454D01*
X126180790Y-64302894D02*
X127497109Y-65619213D01*
X133050000Y-66150000D02*
X127603656Y-66150000D01*
X134196800Y-67296800D02*
X133050000Y-66150000D01*
X122396698Y-63000000D02*
X122044776Y-63351922D01*
%TO.N,LDO2*%
X120193095Y-70749511D02*
X119850489Y-70406905D01*
X119850489Y-70406905D02*
X119850489Y-69199511D01*
X123846236Y-71200000D02*
X123395747Y-70749511D01*
X123395747Y-70749511D02*
X120193095Y-70749511D01*
X128093095Y-71399511D02*
X127893584Y-71200000D01*
X130100000Y-70150000D02*
X128850489Y-71399511D01*
X128850489Y-71399511D02*
X128093095Y-71399511D01*
X127893584Y-71200000D02*
X123846236Y-71200000D01*
X119850489Y-69199511D02*
X120350000Y-68700000D01*
%TO.N,MAX17_INT*%
X121746095Y-62850564D02*
X121745531Y-62850000D01*
X120287971Y-62325489D02*
X119812029Y-62325489D01*
X113824511Y-85725489D02*
X111000000Y-88550000D01*
X115800000Y-67706416D02*
X115800000Y-70400000D01*
X111000000Y-88550000D02*
X111000000Y-91300000D01*
X112200000Y-76050000D02*
X112300000Y-76000000D01*
X112380960Y-75919040D02*
X112200000Y-76050000D01*
X117047273Y-66397273D02*
X116752016Y-66397273D01*
X117164865Y-65990128D02*
X117164866Y-66279680D01*
X112380960Y-74220450D02*
X113550445Y-73050962D01*
X116900960Y-71934775D02*
X116900960Y-72380270D01*
X112380960Y-74220450D02*
X112380960Y-75919040D01*
X119450000Y-62950000D02*
X118949520Y-63450480D01*
X113550445Y-73050962D02*
X116230270Y-73050960D01*
X117601449Y-64403545D02*
X117601450Y-65553542D01*
X118949520Y-63450480D02*
X118554513Y-63450480D01*
X121745531Y-62850000D02*
X120650000Y-62850000D01*
X117601450Y-65553542D02*
X117164865Y-65990128D01*
X116049511Y-67099778D02*
X116049511Y-67456905D01*
X117164866Y-66279680D02*
X117047273Y-66397273D01*
X115800000Y-70400000D02*
X116703846Y-71303846D01*
X116703846Y-71737661D02*
X116900960Y-71934775D01*
X116752016Y-66397273D02*
X116049511Y-67099778D01*
X118554513Y-63450480D02*
X117601449Y-64403545D01*
X120650000Y-62850000D02*
X120650000Y-62687518D01*
X119812029Y-62325489D02*
X119450000Y-62687518D01*
X116049511Y-67456905D02*
X115800000Y-67706416D01*
X113600000Y-76450000D02*
X113824511Y-76674511D01*
X119450000Y-62687518D02*
X119450000Y-62950000D01*
X113824511Y-76674511D02*
X113824511Y-85725489D01*
X116703846Y-71303846D02*
X116703846Y-71737661D01*
X116900960Y-72380270D02*
X116230270Y-73050960D01*
X120650000Y-62687518D02*
X120287971Y-62325489D01*
%TO.N,ACCEL_INT1*%
X126099031Y-66198320D02*
X126099030Y-66622558D01*
X122623885Y-64749999D02*
X122975802Y-64398080D01*
X121700000Y-65250000D02*
X121700000Y-65193584D01*
X138806897Y-70300481D02*
X140749519Y-70300481D01*
X132474121Y-68851929D02*
X133651661Y-68851929D01*
X126099030Y-66622558D02*
X127029842Y-67553370D01*
X128407153Y-67551442D02*
X131173634Y-67551442D01*
X138356905Y-69850489D02*
X138806897Y-70300481D01*
X121700000Y-65193584D02*
X122143583Y-64750001D01*
X128405224Y-67553371D02*
X128407153Y-67551442D01*
X131173634Y-67551442D02*
X132474121Y-68851929D01*
X127029842Y-67553370D02*
X128405224Y-67553371D01*
X122143583Y-64750001D02*
X122623885Y-64749999D01*
X123998792Y-64398080D02*
X125301681Y-65700969D01*
X134650221Y-69850489D02*
X138356905Y-69850489D01*
X125601682Y-65700970D02*
X126099031Y-66198320D01*
X140749519Y-70300481D02*
X141500000Y-69550000D01*
X122975802Y-64398080D02*
X123998792Y-64398080D01*
X133651661Y-68851929D02*
X134650221Y-69850489D01*
X125301681Y-65700969D02*
X125601682Y-65700970D01*
%TO.N,ACCEL_INT2*%
X126448550Y-66477782D02*
X127174618Y-67203850D01*
X138749989Y-69500970D02*
X139050000Y-69800981D01*
X124143569Y-64048561D02*
X125446459Y-65351451D01*
X131318411Y-67201923D02*
X132618897Y-68502409D01*
X121000000Y-65250000D02*
X121000000Y-65243584D01*
X121843103Y-64400481D02*
X122479107Y-64400480D01*
X122479107Y-64400480D02*
X122831027Y-64048560D01*
X127174618Y-67203850D02*
X128260448Y-67203851D01*
X134794998Y-69500970D02*
X138749989Y-69500970D01*
X126448550Y-66053543D02*
X126448550Y-66477782D01*
X122831027Y-64048560D02*
X124143569Y-64048561D01*
X132618897Y-68502409D02*
X133796438Y-68502410D01*
X128260448Y-67203851D02*
X128262378Y-67201922D01*
X133796438Y-68502410D02*
X134794998Y-69500970D01*
X121000000Y-65243584D02*
X121843103Y-64400481D01*
X125746458Y-65351451D02*
X126448550Y-66053543D01*
X128262378Y-67201922D02*
X131318411Y-67201923D01*
X125446459Y-65351451D02*
X125746458Y-65351451D01*
%TO.N,LDO2_EN*%
X130450000Y-65650000D02*
X128800000Y-64000000D01*
X128800000Y-62900000D02*
X128400000Y-62500000D01*
X128800000Y-64000000D02*
X128800000Y-62900000D01*
X128400000Y-62500000D02*
X128350000Y-62500000D01*
%TO.N,USB_N*%
X114152051Y-74565000D02*
X114065744Y-74478693D01*
X116623370Y-74565000D02*
X114152051Y-74565000D01*
X114065744Y-74478693D02*
X114065744Y-74266561D01*
X117513119Y-73463119D02*
X117513119Y-73675251D01*
X117513119Y-73675251D02*
X116623370Y-74565000D01*
%TO.N,USB_P*%
X117986881Y-73936881D02*
X117774749Y-73936881D01*
X116776630Y-74935000D02*
X113998791Y-74935000D01*
X113998791Y-74935000D02*
X113804114Y-74740323D01*
X117774749Y-73936881D02*
X116776630Y-74935000D01*
X113804114Y-74740323D02*
X113591982Y-74740323D01*
%TD*%
%TA.AperFunction,Conductor*%
%TO.N,GND*%
G36*
X130644940Y-70378140D02*
G01*
X131683644Y-71416844D01*
X131699314Y-71435936D01*
X131707792Y-71448624D01*
X131718105Y-71455515D01*
X131730793Y-71463993D01*
X131730794Y-71463994D01*
X131746518Y-71474500D01*
X131746520Y-71474502D01*
X131788601Y-71502620D01*
X131788604Y-71502621D01*
X131798921Y-71509515D01*
X131879283Y-71525500D01*
X131894244Y-71528476D01*
X131894245Y-71528476D01*
X131906416Y-71530897D01*
X131921377Y-71527921D01*
X131945959Y-71525500D01*
X132207226Y-71525500D01*
X132275347Y-71545502D01*
X132321840Y-71599158D01*
X132331675Y-71671211D01*
X132328466Y-71691472D01*
X132298054Y-71755625D01*
X132293112Y-71760856D01*
X132083645Y-71970323D01*
X132064553Y-71985993D01*
X132051865Y-71994471D01*
X132036496Y-72017472D01*
X132036495Y-72017473D01*
X132023877Y-72036358D01*
X131990974Y-72085600D01*
X131981466Y-72133399D01*
X131969592Y-72193095D01*
X131972013Y-72205266D01*
X131972568Y-72208056D01*
X131974989Y-72232638D01*
X131974989Y-72610946D01*
X131972568Y-72635528D01*
X131969592Y-72650489D01*
X131974989Y-72677621D01*
X131974989Y-72677622D01*
X131990974Y-72757984D01*
X132002653Y-72775462D01*
X132014311Y-72792910D01*
X132025541Y-72809716D01*
X132025543Y-72809719D01*
X132043751Y-72836969D01*
X132051865Y-72849113D01*
X132064394Y-72857485D01*
X132064553Y-72857591D01*
X132083645Y-72873261D01*
X133988075Y-74777691D01*
X134022101Y-74840003D01*
X134024980Y-74866786D01*
X134024980Y-75961648D01*
X134022559Y-75986230D01*
X134019583Y-76001191D01*
X134024980Y-76028323D01*
X134024980Y-76028324D01*
X134040965Y-76108686D01*
X134046964Y-76117664D01*
X134081335Y-76169103D01*
X134101856Y-76199815D01*
X134112172Y-76206708D01*
X134112173Y-76206709D01*
X134114544Y-76208293D01*
X134133636Y-76223963D01*
X135437106Y-77527434D01*
X135471132Y-77589746D01*
X135474011Y-77616529D01*
X135474011Y-78007148D01*
X135454009Y-78075269D01*
X135400353Y-78121762D01*
X135328301Y-78131597D01*
X135259794Y-78120747D01*
X135259793Y-78120747D01*
X135250000Y-78119196D01*
X135240207Y-78120747D01*
X135126665Y-78138730D01*
X135126663Y-78138731D01*
X135116874Y-78140281D01*
X134996780Y-78201472D01*
X134960657Y-78237595D01*
X134898345Y-78271621D01*
X134871562Y-78274500D01*
X132639543Y-78274500D01*
X132614961Y-78272079D01*
X132612171Y-78271524D01*
X132600000Y-78269103D01*
X132572868Y-78274500D01*
X132572867Y-78274500D01*
X132492505Y-78290485D01*
X132467048Y-78307495D01*
X132424378Y-78336006D01*
X132424377Y-78336007D01*
X132401376Y-78351376D01*
X132394485Y-78361689D01*
X132392898Y-78364064D01*
X132377228Y-78383156D01*
X131576542Y-79183842D01*
X131514230Y-79217868D01*
X131500760Y-79219316D01*
X131500000Y-79219196D01*
X131418864Y-79232047D01*
X131376665Y-79238730D01*
X131376663Y-79238731D01*
X131366874Y-79240281D01*
X131246780Y-79301472D01*
X131239095Y-79309157D01*
X131238075Y-79309714D01*
X131231748Y-79314311D01*
X131231154Y-79313493D01*
X131176783Y-79343183D01*
X131105968Y-79338118D01*
X131068466Y-79314016D01*
X131068252Y-79314311D01*
X131063100Y-79310568D01*
X131060905Y-79309157D01*
X131053220Y-79301472D01*
X130933126Y-79240281D01*
X130923337Y-79238731D01*
X130923335Y-79238730D01*
X130809793Y-79220747D01*
X130800000Y-79219196D01*
X130790207Y-79220747D01*
X130676665Y-79238730D01*
X130676663Y-79238731D01*
X130666874Y-79240281D01*
X130546780Y-79301472D01*
X130451472Y-79396780D01*
X130390281Y-79516874D01*
X130369196Y-79650000D01*
X130390281Y-79783126D01*
X130451472Y-79903220D01*
X130546780Y-79998528D01*
X130666874Y-80059719D01*
X130676663Y-80061269D01*
X130676665Y-80061270D01*
X130800000Y-80080804D01*
X130799392Y-80084644D01*
X130849152Y-80099255D01*
X130870126Y-80116158D01*
X133720812Y-82966844D01*
X133736482Y-82985936D01*
X133744960Y-82998624D01*
X133755273Y-83005515D01*
X133767961Y-83013993D01*
X133766612Y-83016011D01*
X133766614Y-83016012D01*
X133767962Y-83013994D01*
X133775010Y-83018703D01*
X133836089Y-83059515D01*
X133905567Y-83073335D01*
X133916451Y-83075500D01*
X133931412Y-83078476D01*
X133931413Y-83078476D01*
X133943584Y-83080897D01*
X133958545Y-83077921D01*
X133983127Y-83075500D01*
X137771562Y-83075500D01*
X137839683Y-83095502D01*
X137860657Y-83112405D01*
X137896780Y-83148528D01*
X138016874Y-83209719D01*
X138026663Y-83211269D01*
X138026665Y-83211270D01*
X138140207Y-83229253D01*
X138150000Y-83230804D01*
X138159793Y-83229253D01*
X138159794Y-83229253D01*
X138228301Y-83218403D01*
X138298712Y-83227503D01*
X138353026Y-83273225D01*
X138374011Y-83342852D01*
X138374011Y-86084183D01*
X138354009Y-86152304D01*
X138337106Y-86173278D01*
X137333156Y-87177228D01*
X137314064Y-87192898D01*
X137301376Y-87201376D01*
X137286007Y-87224377D01*
X137283630Y-87222788D01*
X137283629Y-87222790D01*
X137286006Y-87224378D01*
X137268531Y-87250532D01*
X137268528Y-87250534D01*
X137268529Y-87250535D01*
X137240485Y-87292505D01*
X137226281Y-87363915D01*
X137219103Y-87400000D01*
X137221524Y-87412171D01*
X137222079Y-87414961D01*
X137224500Y-87439543D01*
X137224500Y-89333694D01*
X137204498Y-89401815D01*
X137187595Y-89422789D01*
X136726542Y-89883842D01*
X136664230Y-89917868D01*
X136650760Y-89919316D01*
X136650000Y-89919196D01*
X136568864Y-89932047D01*
X136526665Y-89938730D01*
X136526663Y-89938731D01*
X136516874Y-89940281D01*
X136396780Y-90001472D01*
X136301472Y-90096780D01*
X136240281Y-90216874D01*
X136238731Y-90226663D01*
X136238730Y-90226665D01*
X136235861Y-90244782D01*
X136219196Y-90350000D01*
X136240281Y-90483126D01*
X136301472Y-90603220D01*
X136396780Y-90698528D01*
X136516874Y-90759719D01*
X136526663Y-90761269D01*
X136526665Y-90761270D01*
X136640207Y-90779253D01*
X136650000Y-90780804D01*
X136659793Y-90779253D01*
X136773335Y-90761270D01*
X136773337Y-90761269D01*
X136783126Y-90759719D01*
X136903220Y-90698528D01*
X136998528Y-90603220D01*
X137059719Y-90483126D01*
X137080804Y-90350000D01*
X137082844Y-90350323D01*
X137099255Y-90294432D01*
X137116158Y-90273458D01*
X137666844Y-89722772D01*
X137685936Y-89707102D01*
X137688307Y-89705518D01*
X137688308Y-89705517D01*
X137698624Y-89698624D01*
X137732098Y-89648528D01*
X137759516Y-89607494D01*
X137780897Y-89500000D01*
X137777921Y-89485038D01*
X137775500Y-89460458D01*
X137775500Y-87566306D01*
X137795502Y-87498185D01*
X137812405Y-87477211D01*
X138182758Y-87106858D01*
X138245070Y-87072832D01*
X138315885Y-87077897D01*
X138372721Y-87120444D01*
X138397532Y-87186964D01*
X138382441Y-87256338D01*
X138374791Y-87268615D01*
X138356623Y-87294353D01*
X138353739Y-87302469D01*
X138353737Y-87302472D01*
X138322477Y-87390430D01*
X138305946Y-87436944D01*
X138295619Y-87587921D01*
X138297371Y-87596351D01*
X138297371Y-87596354D01*
X138324655Y-87727651D01*
X138326408Y-87736085D01*
X138396029Y-87870447D01*
X138499320Y-87981044D01*
X138554813Y-88014790D01*
X138621255Y-88055195D01*
X138621258Y-88055196D01*
X138628618Y-88059672D01*
X138774335Y-88100500D01*
X138887658Y-88100500D01*
X138999920Y-88085070D01*
X139000192Y-88087049D01*
X139059988Y-88087787D01*
X139119236Y-88126905D01*
X139147929Y-88191845D01*
X139149000Y-88208236D01*
X139149000Y-90849802D01*
X139148918Y-90850000D01*
X139149000Y-90850198D01*
X139149235Y-90850765D01*
X139150000Y-90851082D01*
X139150198Y-90851000D01*
X143223000Y-90851000D01*
X143291121Y-90871002D01*
X143337614Y-90924658D01*
X143349000Y-90977000D01*
X143349000Y-93123000D01*
X143328998Y-93191121D01*
X143275342Y-93237614D01*
X143223000Y-93249000D01*
X135407079Y-93249000D01*
X135392972Y-93248208D01*
X135384202Y-93247220D01*
X135348456Y-93243192D01*
X135346121Y-93242906D01*
X135305918Y-93237614D01*
X135296784Y-93236411D01*
X135271618Y-93230420D01*
X135228774Y-93215428D01*
X135222190Y-93212915D01*
X135212809Y-93209030D01*
X135180706Y-93195731D01*
X135161894Y-93186012D01*
X135157858Y-93183476D01*
X135122785Y-93161438D01*
X135113154Y-93154739D01*
X135078136Y-93127869D01*
X135065756Y-93117011D01*
X135032989Y-93084244D01*
X135022131Y-93071864D01*
X134995261Y-93036846D01*
X134988562Y-93027215D01*
X134963988Y-92988106D01*
X134954269Y-92969294D01*
X134937088Y-92927818D01*
X134934567Y-92921213D01*
X134919581Y-92878386D01*
X134913588Y-92853215D01*
X134907096Y-92803900D01*
X134906810Y-92801562D01*
X134901719Y-92756376D01*
X134901018Y-92750156D01*
X134901082Y-92750000D01*
X134901000Y-92749802D01*
X134901000Y-92749000D01*
X118899000Y-92749000D01*
X118899000Y-92749802D01*
X118898918Y-92750000D01*
X118898982Y-92750156D01*
X118897175Y-92766193D01*
X118893190Y-92801562D01*
X118892904Y-92803900D01*
X118886412Y-92853215D01*
X118880419Y-92878386D01*
X118865433Y-92921213D01*
X118862912Y-92927818D01*
X118845731Y-92969294D01*
X118836012Y-92988106D01*
X118811438Y-93027215D01*
X118804739Y-93036846D01*
X118777869Y-93071864D01*
X118767011Y-93084244D01*
X118734244Y-93117011D01*
X118721864Y-93127869D01*
X118686846Y-93154739D01*
X118677215Y-93161438D01*
X118642142Y-93183476D01*
X118638106Y-93186012D01*
X118619294Y-93195731D01*
X118587191Y-93209030D01*
X118577810Y-93212915D01*
X118571226Y-93215428D01*
X118528382Y-93230420D01*
X118503216Y-93236411D01*
X118494082Y-93237614D01*
X118453879Y-93242906D01*
X118451544Y-93243192D01*
X118415798Y-93247220D01*
X118407028Y-93248208D01*
X118392921Y-93249000D01*
X109677000Y-93249000D01*
X109608879Y-93228998D01*
X109562386Y-93175342D01*
X109551000Y-93123000D01*
X109551000Y-87251657D01*
X109571002Y-87183536D01*
X109624658Y-87137043D01*
X109694932Y-87126939D01*
X109745864Y-87147612D01*
X109746780Y-87148528D01*
X109755611Y-87153028D01*
X109755613Y-87153029D01*
X109779665Y-87165284D01*
X109866874Y-87209719D01*
X109876663Y-87211269D01*
X109876665Y-87211270D01*
X109990207Y-87229253D01*
X110000000Y-87230804D01*
X110009793Y-87229253D01*
X110123335Y-87211270D01*
X110123337Y-87211269D01*
X110133126Y-87209719D01*
X110253220Y-87148528D01*
X110254890Y-87146858D01*
X110317806Y-87124410D01*
X110386957Y-87140489D01*
X110391949Y-87143697D01*
X110396780Y-87148528D01*
X110516874Y-87209719D01*
X110526663Y-87211269D01*
X110526665Y-87211270D01*
X110640207Y-87229253D01*
X110650000Y-87230804D01*
X110659793Y-87229253D01*
X110773335Y-87211270D01*
X110773337Y-87211269D01*
X110783126Y-87209719D01*
X110903220Y-87148528D01*
X110960905Y-87090843D01*
X111023217Y-87056817D01*
X111094032Y-87061882D01*
X111139095Y-87090843D01*
X111196780Y-87148528D01*
X111316874Y-87209719D01*
X111326663Y-87211269D01*
X111326665Y-87211270D01*
X111440207Y-87229253D01*
X111450000Y-87230804D01*
X111459793Y-87229253D01*
X111573335Y-87211270D01*
X111573337Y-87211269D01*
X111583126Y-87209719D01*
X111623656Y-87189068D01*
X111693433Y-87175964D01*
X111759218Y-87202664D01*
X111800124Y-87260692D01*
X111803164Y-87331623D01*
X111769954Y-87390430D01*
X110833156Y-88327228D01*
X110814064Y-88342898D01*
X110801376Y-88351376D01*
X110740485Y-88442505D01*
X110740485Y-88442506D01*
X110719103Y-88550000D01*
X110721524Y-88562171D01*
X110722079Y-88564961D01*
X110724500Y-88589543D01*
X110724500Y-90921562D01*
X110704498Y-90989683D01*
X110687595Y-91010657D01*
X110651472Y-91046780D01*
X110590281Y-91166874D01*
X110569196Y-91300000D01*
X110590281Y-91433126D01*
X110651472Y-91553220D01*
X110746780Y-91648528D01*
X110866874Y-91709719D01*
X110876663Y-91711269D01*
X110876665Y-91711270D01*
X110990207Y-91729253D01*
X111000000Y-91730804D01*
X111009793Y-91729253D01*
X111123335Y-91711270D01*
X111123337Y-91711269D01*
X111133126Y-91709719D01*
X111253220Y-91648528D01*
X111348528Y-91553220D01*
X111409719Y-91433126D01*
X111430804Y-91300000D01*
X111409719Y-91166874D01*
X111348528Y-91046780D01*
X111312405Y-91010657D01*
X111278379Y-90948345D01*
X111275500Y-90921562D01*
X111275500Y-90650000D01*
X111569196Y-90650000D01*
X111570747Y-90659793D01*
X111586574Y-90759719D01*
X111590281Y-90783126D01*
X111651472Y-90903220D01*
X111746780Y-90998528D01*
X111866874Y-91059719D01*
X111876663Y-91061269D01*
X111876665Y-91061270D01*
X111990207Y-91079253D01*
X112000000Y-91080804D01*
X112009793Y-91079253D01*
X112123335Y-91061270D01*
X112123337Y-91061269D01*
X112133126Y-91059719D01*
X112253220Y-90998528D01*
X112348528Y-90903220D01*
X112409719Y-90783126D01*
X112413427Y-90759719D01*
X112429253Y-90659793D01*
X112430804Y-90650000D01*
X112409719Y-90516874D01*
X112348528Y-90396780D01*
X112253220Y-90301472D01*
X112133126Y-90240281D01*
X112123337Y-90238731D01*
X112123335Y-90238730D01*
X112009793Y-90220747D01*
X112000000Y-90219196D01*
X111990207Y-90220747D01*
X111876665Y-90238730D01*
X111876663Y-90238731D01*
X111866874Y-90240281D01*
X111746780Y-90301472D01*
X111651472Y-90396780D01*
X111590281Y-90516874D01*
X111569196Y-90650000D01*
X111275500Y-90650000D01*
X111275500Y-89300000D01*
X112419196Y-89300000D01*
X112420747Y-89309793D01*
X112432799Y-89385884D01*
X112440281Y-89433126D01*
X112501472Y-89553220D01*
X112596780Y-89648528D01*
X112716874Y-89709719D01*
X112726663Y-89711269D01*
X112726665Y-89711270D01*
X112840207Y-89729253D01*
X112850000Y-89730804D01*
X112859793Y-89729253D01*
X112973335Y-89711270D01*
X112973337Y-89711269D01*
X112983126Y-89709719D01*
X113103220Y-89648528D01*
X113198528Y-89553220D01*
X113259719Y-89433126D01*
X113267202Y-89385884D01*
X113279253Y-89309793D01*
X113280804Y-89300000D01*
X113259719Y-89166874D01*
X113198528Y-89046780D01*
X113103220Y-88951472D01*
X112983126Y-88890281D01*
X112973337Y-88888731D01*
X112973335Y-88888730D01*
X112859793Y-88870747D01*
X112850000Y-88869196D01*
X112840207Y-88870747D01*
X112726665Y-88888730D01*
X112726663Y-88888731D01*
X112716874Y-88890281D01*
X112596780Y-88951472D01*
X112501472Y-89046780D01*
X112440281Y-89166874D01*
X112419196Y-89300000D01*
X111275500Y-89300000D01*
X111275500Y-88716306D01*
X111295502Y-88648185D01*
X111312405Y-88627211D01*
X112351695Y-87587921D01*
X135695619Y-87587921D01*
X135697371Y-87596351D01*
X135697371Y-87596354D01*
X135724655Y-87727651D01*
X135726408Y-87736085D01*
X135796029Y-87870447D01*
X135899320Y-87981044D01*
X135954813Y-88014790D01*
X136021255Y-88055195D01*
X136021258Y-88055196D01*
X136028618Y-88059672D01*
X136174335Y-88100500D01*
X136287658Y-88100500D01*
X136341350Y-88093120D01*
X136391374Y-88086245D01*
X136391377Y-88086244D01*
X136399920Y-88085070D01*
X136458391Y-88059672D01*
X136530813Y-88028215D01*
X136530816Y-88028213D01*
X136538720Y-88024780D01*
X136545404Y-88019342D01*
X136545406Y-88019341D01*
X136600221Y-87974745D01*
X136656108Y-87929278D01*
X136743377Y-87805647D01*
X136768100Y-87736085D01*
X136791168Y-87671177D01*
X136791168Y-87671176D01*
X136794054Y-87663056D01*
X136804381Y-87512079D01*
X136797136Y-87477211D01*
X136775345Y-87372349D01*
X136775344Y-87372346D01*
X136773592Y-87363915D01*
X136703971Y-87229553D01*
X136628660Y-87148915D01*
X136606563Y-87125255D01*
X136600680Y-87118956D01*
X136536031Y-87079642D01*
X136478745Y-87044805D01*
X136478742Y-87044804D01*
X136471382Y-87040328D01*
X136325665Y-86999500D01*
X136212342Y-86999500D01*
X136158650Y-87006880D01*
X136108626Y-87013755D01*
X136108623Y-87013756D01*
X136100080Y-87014930D01*
X136046961Y-87038003D01*
X135969187Y-87071785D01*
X135969184Y-87071787D01*
X135961280Y-87075220D01*
X135954596Y-87080658D01*
X135954594Y-87080659D01*
X135913024Y-87114479D01*
X135843892Y-87170722D01*
X135756623Y-87294353D01*
X135753739Y-87302469D01*
X135753737Y-87302472D01*
X135722477Y-87390430D01*
X135705946Y-87436944D01*
X135695619Y-87587921D01*
X112351695Y-87587921D01*
X113991355Y-85948261D01*
X114010447Y-85932591D01*
X114012818Y-85931007D01*
X114012819Y-85931006D01*
X114023135Y-85924113D01*
X114084026Y-85832984D01*
X114100011Y-85752622D01*
X114100011Y-85752621D01*
X114105408Y-85725489D01*
X114102432Y-85710526D01*
X114101395Y-85700000D01*
X114619196Y-85700000D01*
X114620747Y-85709793D01*
X114638331Y-85820811D01*
X114640281Y-85833126D01*
X114701472Y-85953220D01*
X114796780Y-86048528D01*
X114916874Y-86109719D01*
X114926663Y-86111269D01*
X114926665Y-86111270D01*
X115040207Y-86129253D01*
X115050000Y-86130804D01*
X115059793Y-86129253D01*
X115173335Y-86111270D01*
X115173337Y-86111269D01*
X115183126Y-86109719D01*
X115303220Y-86048528D01*
X115398528Y-85953220D01*
X115459719Y-85833126D01*
X115461670Y-85820811D01*
X115479253Y-85709793D01*
X115480804Y-85700000D01*
X115459719Y-85566874D01*
X115398528Y-85446780D01*
X115303220Y-85351472D01*
X115183126Y-85290281D01*
X115173337Y-85288731D01*
X115173335Y-85288730D01*
X115059793Y-85270747D01*
X115050000Y-85269196D01*
X115040207Y-85270747D01*
X114926665Y-85288730D01*
X114926663Y-85288731D01*
X114916874Y-85290281D01*
X114796780Y-85351472D01*
X114701472Y-85446780D01*
X114640281Y-85566874D01*
X114619196Y-85700000D01*
X114101395Y-85700000D01*
X114100011Y-85685946D01*
X114100011Y-84750000D01*
X116069196Y-84750000D01*
X116090281Y-84883126D01*
X116151472Y-85003220D01*
X116246780Y-85098528D01*
X116366874Y-85159719D01*
X116376663Y-85161269D01*
X116376665Y-85161270D01*
X116490207Y-85179253D01*
X116500000Y-85180804D01*
X116509793Y-85179253D01*
X116623335Y-85161270D01*
X116623337Y-85161269D01*
X116633126Y-85159719D01*
X116753220Y-85098528D01*
X116848528Y-85003220D01*
X116909719Y-84883126D01*
X116930804Y-84750000D01*
X116909719Y-84616874D01*
X116848528Y-84496780D01*
X116753220Y-84401472D01*
X116633126Y-84340281D01*
X116623337Y-84338731D01*
X116623335Y-84338730D01*
X116509793Y-84320747D01*
X116500000Y-84319196D01*
X116490207Y-84320747D01*
X116376665Y-84338730D01*
X116376663Y-84338731D01*
X116366874Y-84340281D01*
X116246780Y-84401472D01*
X116151472Y-84496780D01*
X116090281Y-84616874D01*
X116069196Y-84750000D01*
X114100011Y-84750000D01*
X114100011Y-82386508D01*
X114120013Y-82318387D01*
X114173669Y-82271894D01*
X114243943Y-82261790D01*
X114294131Y-82280510D01*
X114330444Y-82303846D01*
X114339947Y-82309953D01*
X114348591Y-82312491D01*
X114348593Y-82312492D01*
X114469394Y-82347962D01*
X114469396Y-82347962D01*
X114478039Y-82350500D01*
X114621961Y-82350500D01*
X114630604Y-82347962D01*
X114630606Y-82347962D01*
X114751407Y-82312492D01*
X114751409Y-82312491D01*
X114760053Y-82309953D01*
X114767631Y-82305083D01*
X114767633Y-82305082D01*
X114873548Y-82237015D01*
X114873551Y-82237013D01*
X114881128Y-82232143D01*
X114906999Y-82202286D01*
X114969474Y-82130186D01*
X114969475Y-82130184D01*
X114975377Y-82123373D01*
X115013231Y-82040485D01*
X115031422Y-82000654D01*
X115031423Y-82000651D01*
X115035165Y-81992457D01*
X115055647Y-81850000D01*
X116419196Y-81850000D01*
X116420747Y-81859793D01*
X116437855Y-81967806D01*
X116440281Y-81983126D01*
X116501472Y-82103220D01*
X116596780Y-82198528D01*
X116716874Y-82259719D01*
X116726663Y-82261269D01*
X116726665Y-82261270D01*
X116840207Y-82279253D01*
X116850000Y-82280804D01*
X116859793Y-82279253D01*
X116973335Y-82261270D01*
X116973337Y-82261269D01*
X116983126Y-82259719D01*
X117103220Y-82198528D01*
X117198528Y-82103220D01*
X117259719Y-81983126D01*
X117262146Y-81967806D01*
X117279253Y-81859793D01*
X117280804Y-81850000D01*
X117262535Y-81734651D01*
X117261270Y-81726665D01*
X117261269Y-81726663D01*
X117259719Y-81716874D01*
X117198528Y-81596780D01*
X117103220Y-81501472D01*
X116983126Y-81440281D01*
X116973337Y-81438731D01*
X116973335Y-81438730D01*
X116859793Y-81420747D01*
X116850000Y-81419196D01*
X116840207Y-81420747D01*
X116726665Y-81438730D01*
X116726663Y-81438731D01*
X116716874Y-81440281D01*
X116596780Y-81501472D01*
X116501472Y-81596780D01*
X116440281Y-81716874D01*
X116438731Y-81726663D01*
X116438730Y-81726665D01*
X116437465Y-81734651D01*
X116419196Y-81850000D01*
X115055647Y-81850000D01*
X115035165Y-81707543D01*
X115008435Y-81649012D01*
X114988614Y-81605612D01*
X114975377Y-81576627D01*
X114962155Y-81561367D01*
X114887029Y-81474667D01*
X114887028Y-81474666D01*
X114881128Y-81467857D01*
X114873551Y-81462987D01*
X114873548Y-81462985D01*
X114767633Y-81394918D01*
X114767631Y-81394917D01*
X114760053Y-81390047D01*
X114751409Y-81387509D01*
X114751407Y-81387508D01*
X114630606Y-81352038D01*
X114630604Y-81352038D01*
X114621961Y-81349500D01*
X114478039Y-81349500D01*
X114469396Y-81352038D01*
X114469394Y-81352038D01*
X114348593Y-81387508D01*
X114348591Y-81387509D01*
X114339947Y-81390047D01*
X114332368Y-81394918D01*
X114332364Y-81394920D01*
X114294131Y-81419490D01*
X114226010Y-81439492D01*
X114157889Y-81419489D01*
X114111397Y-81365833D01*
X114100011Y-81313492D01*
X114100011Y-77700697D01*
X114120013Y-77632576D01*
X114173669Y-77586083D01*
X114243943Y-77575979D01*
X114278350Y-77586082D01*
X114354658Y-77620931D01*
X114363575Y-77622213D01*
X114451541Y-77634861D01*
X114451548Y-77634862D01*
X114455989Y-77635500D01*
X114524011Y-77635500D01*
X114528452Y-77634862D01*
X114528459Y-77634861D01*
X114616425Y-77622213D01*
X114625342Y-77620931D01*
X114633536Y-77617189D01*
X114633539Y-77617188D01*
X114734495Y-77571082D01*
X114749718Y-77564130D01*
X114770696Y-77545953D01*
X114846243Y-77480492D01*
X114846245Y-77480490D01*
X114853055Y-77474589D01*
X114926978Y-77359561D01*
X114946692Y-77292423D01*
X114962962Y-77237011D01*
X114962962Y-77237010D01*
X114965500Y-77228367D01*
X114965500Y-77091633D01*
X114926978Y-76960439D01*
X114878731Y-76885364D01*
X114857929Y-76852995D01*
X114857929Y-76852994D01*
X114853055Y-76845411D01*
X114846245Y-76839510D01*
X114846243Y-76839508D01*
X114756531Y-76761773D01*
X114756529Y-76761772D01*
X114749718Y-76755870D01*
X114662050Y-76715833D01*
X114633539Y-76702812D01*
X114633536Y-76702811D01*
X114625342Y-76699069D01*
X114608164Y-76696599D01*
X114528459Y-76685139D01*
X114528452Y-76685138D01*
X114524011Y-76684500D01*
X114455989Y-76684500D01*
X114451548Y-76685138D01*
X114451541Y-76685139D01*
X114371836Y-76696599D01*
X114354658Y-76699069D01*
X114346464Y-76702811D01*
X114346461Y-76702812D01*
X114275497Y-76735221D01*
X114205223Y-76745326D01*
X114140642Y-76715833D01*
X114111187Y-76670000D01*
X115624353Y-76670000D01*
X115644835Y-76812457D01*
X115648577Y-76820651D01*
X115648578Y-76820654D01*
X115663027Y-76852291D01*
X115704623Y-76943373D01*
X115710525Y-76950184D01*
X115710526Y-76950186D01*
X115779038Y-77029253D01*
X115798872Y-77052143D01*
X115806449Y-77057013D01*
X115806452Y-77057015D01*
X115912367Y-77125082D01*
X115912369Y-77125083D01*
X115919947Y-77129953D01*
X115928591Y-77132491D01*
X115928593Y-77132492D01*
X116049394Y-77167962D01*
X116049396Y-77167962D01*
X116058039Y-77170500D01*
X116201961Y-77170500D01*
X116210604Y-77167962D01*
X116210606Y-77167962D01*
X116331407Y-77132492D01*
X116331409Y-77132491D01*
X116340053Y-77129953D01*
X116347631Y-77125083D01*
X116347633Y-77125082D01*
X116453548Y-77057015D01*
X116453551Y-77057013D01*
X116461128Y-77052143D01*
X116480962Y-77029253D01*
X116549474Y-76950186D01*
X116549475Y-76950184D01*
X116555377Y-76943373D01*
X116596973Y-76852291D01*
X116611422Y-76820654D01*
X116611423Y-76820651D01*
X116615165Y-76812457D01*
X116635647Y-76670000D01*
X116625583Y-76600000D01*
X119319196Y-76600000D01*
X119320747Y-76609793D01*
X119332681Y-76685139D01*
X119340281Y-76733126D01*
X119401472Y-76853220D01*
X119496780Y-76948528D01*
X119616874Y-77009719D01*
X119626663Y-77011269D01*
X119626665Y-77011270D01*
X119740207Y-77029253D01*
X119750000Y-77030804D01*
X119759793Y-77029253D01*
X119873335Y-77011270D01*
X119873337Y-77011269D01*
X119883126Y-77009719D01*
X120003220Y-76948528D01*
X120098528Y-76853220D01*
X120159719Y-76733126D01*
X120167320Y-76685139D01*
X120179253Y-76609793D01*
X120180804Y-76600000D01*
X120171378Y-76540484D01*
X120161270Y-76476665D01*
X120161269Y-76476663D01*
X120159719Y-76466874D01*
X120098528Y-76346780D01*
X120003220Y-76251472D01*
X119883126Y-76190281D01*
X119873337Y-76188731D01*
X119873335Y-76188730D01*
X119759793Y-76170747D01*
X119750000Y-76169196D01*
X119740207Y-76170747D01*
X119626665Y-76188730D01*
X119626663Y-76188731D01*
X119616874Y-76190281D01*
X119496780Y-76251472D01*
X119401472Y-76346780D01*
X119340281Y-76466874D01*
X119338731Y-76476663D01*
X119338730Y-76476665D01*
X119328622Y-76540484D01*
X119319196Y-76600000D01*
X116625583Y-76600000D01*
X116615165Y-76527543D01*
X116610270Y-76516823D01*
X116577263Y-76444551D01*
X116555377Y-76396627D01*
X116548535Y-76388730D01*
X116467029Y-76294667D01*
X116467028Y-76294666D01*
X116461128Y-76287857D01*
X116453551Y-76282987D01*
X116453548Y-76282985D01*
X116347633Y-76214918D01*
X116347631Y-76214917D01*
X116340053Y-76210047D01*
X116331409Y-76207509D01*
X116331407Y-76207508D01*
X116210606Y-76172038D01*
X116210604Y-76172038D01*
X116201961Y-76169500D01*
X116058039Y-76169500D01*
X116049396Y-76172038D01*
X116049394Y-76172038D01*
X115928593Y-76207508D01*
X115928591Y-76207509D01*
X115919947Y-76210047D01*
X115912369Y-76214917D01*
X115912367Y-76214918D01*
X115806452Y-76282985D01*
X115806449Y-76282987D01*
X115798872Y-76287857D01*
X115792972Y-76294666D01*
X115792971Y-76294667D01*
X115711466Y-76388730D01*
X115704623Y-76396627D01*
X115682737Y-76444551D01*
X115649731Y-76516823D01*
X115644835Y-76527543D01*
X115624353Y-76670000D01*
X114111187Y-76670000D01*
X114102258Y-76656107D01*
X114099578Y-76645199D01*
X114084027Y-76567017D01*
X114076407Y-76555612D01*
X114052174Y-76519346D01*
X114050488Y-76516822D01*
X114030603Y-76451271D01*
X114030804Y-76450000D01*
X114029253Y-76440207D01*
X114011270Y-76326665D01*
X114011269Y-76326663D01*
X114009719Y-76316874D01*
X113948528Y-76196780D01*
X113853220Y-76101472D01*
X113733126Y-76040281D01*
X113723337Y-76038731D01*
X113723335Y-76038730D01*
X113609793Y-76020747D01*
X113600000Y-76019196D01*
X113501210Y-76034843D01*
X113430800Y-76025744D01*
X113376486Y-75980022D01*
X113355500Y-75910394D01*
X113355500Y-75281199D01*
X113375502Y-75213078D01*
X113429158Y-75166585D01*
X113501210Y-75156750D01*
X113591982Y-75171127D01*
X113601775Y-75169576D01*
X113715317Y-75151593D01*
X113715319Y-75151592D01*
X113725108Y-75150042D01*
X113732976Y-75146033D01*
X113803344Y-75144023D01*
X113841307Y-75161113D01*
X113849319Y-75166467D01*
X113849325Y-75166473D01*
X113849326Y-75166471D01*
X113891296Y-75194515D01*
X113903465Y-75196936D01*
X113903466Y-75196936D01*
X113971658Y-75210500D01*
X113986619Y-75213476D01*
X113986620Y-75213476D01*
X113998791Y-75215897D01*
X114013752Y-75212921D01*
X114038334Y-75210500D01*
X116737087Y-75210500D01*
X116761669Y-75212921D01*
X116776630Y-75215897D01*
X116803762Y-75210500D01*
X116803763Y-75210500D01*
X116884125Y-75194515D01*
X116926095Y-75166471D01*
X116926095Y-75166472D01*
X116926098Y-75166469D01*
X116952252Y-75148994D01*
X116954819Y-75152835D01*
X116954820Y-75152834D01*
X116952253Y-75148993D01*
X116964941Y-75140515D01*
X116975254Y-75133624D01*
X116983732Y-75120936D01*
X116999402Y-75101844D01*
X117725584Y-74375662D01*
X117787896Y-74341636D01*
X117850123Y-74344749D01*
X117853755Y-74346600D01*
X117863544Y-74348150D01*
X117863546Y-74348151D01*
X117977088Y-74366134D01*
X117986881Y-74367685D01*
X117996674Y-74366134D01*
X118110216Y-74348151D01*
X118110218Y-74348150D01*
X118120007Y-74346600D01*
X118240101Y-74285409D01*
X118335409Y-74190101D01*
X118396600Y-74070007D01*
X118398602Y-74057370D01*
X118416134Y-73946674D01*
X118417685Y-73936881D01*
X118414137Y-73914481D01*
X118405976Y-73862949D01*
X118415076Y-73792538D01*
X118460798Y-73738224D01*
X118528627Y-73717252D01*
X118597026Y-73736280D01*
X118619520Y-73754144D01*
X119030774Y-74165398D01*
X119046443Y-74184489D01*
X119054920Y-74197175D01*
X119065233Y-74204066D01*
X119077921Y-74212544D01*
X119077922Y-74212545D01*
X119130360Y-74247583D01*
X119146050Y-74258067D01*
X119158220Y-74260488D01*
X119158221Y-74260488D01*
X119232236Y-74275210D01*
X119295146Y-74308117D01*
X119330278Y-74369812D01*
X119332104Y-74418499D01*
X119322655Y-74478160D01*
X119319196Y-74500000D01*
X119340281Y-74633126D01*
X119401472Y-74753220D01*
X119484157Y-74835905D01*
X119518183Y-74898217D01*
X119513118Y-74969032D01*
X119484157Y-75014095D01*
X119401472Y-75096780D01*
X119340281Y-75216874D01*
X119338731Y-75226663D01*
X119338730Y-75226665D01*
X119320747Y-75340207D01*
X119319196Y-75350000D01*
X119320747Y-75359793D01*
X119322800Y-75372752D01*
X119340281Y-75483126D01*
X119401472Y-75603220D01*
X119496780Y-75698528D01*
X119616874Y-75759719D01*
X119626663Y-75761269D01*
X119626665Y-75761270D01*
X119740207Y-75779253D01*
X119750000Y-75780804D01*
X119759793Y-75779253D01*
X119873335Y-75761270D01*
X119873337Y-75761269D01*
X119883126Y-75759719D01*
X120003220Y-75698528D01*
X120098528Y-75603220D01*
X120159719Y-75483126D01*
X120177201Y-75372752D01*
X120179253Y-75359793D01*
X120180804Y-75350000D01*
X120179253Y-75340207D01*
X120161270Y-75226665D01*
X120161269Y-75226663D01*
X120159719Y-75216874D01*
X120098528Y-75096780D01*
X120015843Y-75014095D01*
X119981817Y-74951783D01*
X119986882Y-74880968D01*
X120015843Y-74835905D01*
X120098528Y-74753220D01*
X120159719Y-74633126D01*
X120180804Y-74500000D01*
X120177345Y-74478160D01*
X120167896Y-74418498D01*
X120176996Y-74348087D01*
X120222718Y-74293773D01*
X120267763Y-74275209D01*
X120273590Y-74274050D01*
X120320601Y-74264699D01*
X120353952Y-74258065D01*
X120381844Y-74239428D01*
X120422079Y-74212544D01*
X120422080Y-74212543D01*
X120445081Y-74197174D01*
X120453557Y-74184489D01*
X120469226Y-74165397D01*
X120621272Y-74013351D01*
X120774146Y-73860476D01*
X120836459Y-73826451D01*
X120863242Y-73823571D01*
X122200900Y-73823571D01*
X122269021Y-73843573D01*
X122315514Y-73897229D01*
X122326900Y-73949571D01*
X122326900Y-77684332D01*
X122324479Y-77708912D01*
X122321503Y-77723875D01*
X122326900Y-77751007D01*
X122326900Y-77751008D01*
X122342885Y-77831370D01*
X122403776Y-77922499D01*
X122414092Y-77929392D01*
X122414093Y-77929393D01*
X122416464Y-77930977D01*
X122435556Y-77946647D01*
X123698313Y-79209405D01*
X123732339Y-79271717D01*
X123727274Y-79342533D01*
X123684727Y-79399368D01*
X123618207Y-79424179D01*
X123609218Y-79424500D01*
X120778438Y-79424500D01*
X120710317Y-79404498D01*
X120689343Y-79387595D01*
X120653220Y-79351472D01*
X120533126Y-79290281D01*
X120523337Y-79288731D01*
X120523335Y-79288730D01*
X120409793Y-79270747D01*
X120400000Y-79269196D01*
X120390207Y-79270747D01*
X120276665Y-79288730D01*
X120276663Y-79288731D01*
X120266874Y-79290281D01*
X120146780Y-79351472D01*
X120051472Y-79446780D01*
X119990281Y-79566874D01*
X119988731Y-79576663D01*
X119988730Y-79576665D01*
X119978666Y-79640207D01*
X119969196Y-79700000D01*
X119990281Y-79833126D01*
X120051472Y-79953220D01*
X120053142Y-79954890D01*
X120075590Y-80017806D01*
X120059511Y-80086957D01*
X120056303Y-80091949D01*
X120051472Y-80096780D01*
X119990281Y-80216874D01*
X119969196Y-80350000D01*
X119970747Y-80359793D01*
X119979840Y-80417201D01*
X119990281Y-80483126D01*
X120051472Y-80603220D01*
X120053142Y-80604890D01*
X120075590Y-80667806D01*
X120059511Y-80736957D01*
X120056303Y-80741949D01*
X120051472Y-80746780D01*
X119990281Y-80866874D01*
X119988731Y-80876663D01*
X119988730Y-80876665D01*
X119973977Y-80969814D01*
X119969196Y-81000000D01*
X119970747Y-81009793D01*
X119988305Y-81120647D01*
X119990281Y-81133126D01*
X120051472Y-81253220D01*
X120053142Y-81254890D01*
X120075590Y-81317806D01*
X120059511Y-81386957D01*
X120056303Y-81391949D01*
X120051472Y-81396780D01*
X119990281Y-81516874D01*
X119988731Y-81526663D01*
X119988730Y-81526665D01*
X119977625Y-81596780D01*
X119969196Y-81650000D01*
X119970747Y-81659793D01*
X119985114Y-81750500D01*
X119990281Y-81783126D01*
X120051472Y-81903220D01*
X120053142Y-81904890D01*
X120075590Y-81967806D01*
X120059511Y-82036957D01*
X120056303Y-82041949D01*
X120051472Y-82046780D01*
X119990281Y-82166874D01*
X119988731Y-82176663D01*
X119988730Y-82176665D01*
X119972482Y-82279253D01*
X119969196Y-82300000D01*
X119970747Y-82309793D01*
X119987001Y-82412415D01*
X119990281Y-82433126D01*
X120051472Y-82553220D01*
X120053142Y-82554890D01*
X120075590Y-82617806D01*
X120059511Y-82686957D01*
X120056303Y-82691949D01*
X120051472Y-82696780D01*
X119990281Y-82816874D01*
X119988731Y-82826663D01*
X119988730Y-82826665D01*
X119977625Y-82896780D01*
X119969196Y-82950000D01*
X119970747Y-82959793D01*
X119987483Y-83065457D01*
X119990281Y-83083126D01*
X120051472Y-83203220D01*
X120146780Y-83298528D01*
X120266874Y-83359719D01*
X120276663Y-83361269D01*
X120276665Y-83361270D01*
X120390207Y-83379253D01*
X120400000Y-83380804D01*
X120409793Y-83379253D01*
X120523335Y-83361270D01*
X120523337Y-83361269D01*
X120533126Y-83359719D01*
X120653220Y-83298528D01*
X120689343Y-83262405D01*
X120751655Y-83228379D01*
X120778438Y-83225500D01*
X122055797Y-83225500D01*
X122123918Y-83245502D01*
X122144892Y-83262405D01*
X124296443Y-85413954D01*
X124312113Y-85433046D01*
X124320591Y-85445734D01*
X124343592Y-85461103D01*
X124343593Y-85461104D01*
X124411721Y-85506626D01*
X124519215Y-85528007D01*
X124534177Y-85525031D01*
X124558757Y-85522610D01*
X125449893Y-85522610D01*
X126341244Y-85522609D01*
X126365826Y-85525030D01*
X126380787Y-85528006D01*
X126488282Y-85506624D01*
X126556409Y-85461103D01*
X126556410Y-85461102D01*
X126579411Y-85445733D01*
X126587887Y-85433048D01*
X126603556Y-85413956D01*
X127863956Y-84153553D01*
X127883047Y-84137885D01*
X127895733Y-84129408D01*
X127956624Y-84038279D01*
X127956625Y-84038278D01*
X127978006Y-83930783D01*
X127975030Y-83915822D01*
X127972609Y-83891240D01*
X127972609Y-83291387D01*
X127992611Y-83223266D01*
X128009513Y-83202292D01*
X128564450Y-82647354D01*
X128583541Y-82631686D01*
X128585910Y-82630103D01*
X128596224Y-82623211D01*
X128611851Y-82599825D01*
X128611863Y-82599808D01*
X128637986Y-82560711D01*
X128637987Y-82560709D01*
X128650220Y-82542401D01*
X128657115Y-82532082D01*
X128673100Y-82451720D01*
X128673100Y-82451719D01*
X128678497Y-82424586D01*
X128675521Y-82409625D01*
X128673100Y-82385043D01*
X128673100Y-81629488D01*
X128693102Y-81561367D01*
X128710005Y-81540393D01*
X128914441Y-81335957D01*
X128933533Y-81320287D01*
X128935904Y-81318703D01*
X128935905Y-81318702D01*
X128946221Y-81311809D01*
X128964778Y-81284038D01*
X128986895Y-81250938D01*
X129000219Y-81230997D01*
X129000219Y-81230996D01*
X129007113Y-81220679D01*
X129028494Y-81113185D01*
X129025518Y-81098223D01*
X129023097Y-81073643D01*
X129023097Y-78318709D01*
X129043099Y-78250588D01*
X129060002Y-78229614D01*
X129327691Y-77961925D01*
X129390003Y-77927899D01*
X129416786Y-77925020D01*
X131210937Y-77925020D01*
X131235519Y-77927441D01*
X131250480Y-77930417D01*
X131277612Y-77925020D01*
X131277613Y-77925020D01*
X131357975Y-77909035D01*
X131414141Y-77871506D01*
X131426102Y-77863514D01*
X131426103Y-77863513D01*
X131449104Y-77848144D01*
X131457584Y-77835454D01*
X131473251Y-77816365D01*
X132131620Y-77157996D01*
X132193932Y-77123970D01*
X132264747Y-77129035D01*
X132291820Y-77143568D01*
X132296780Y-77148528D01*
X132416874Y-77209719D01*
X132426663Y-77211269D01*
X132426665Y-77211270D01*
X132540207Y-77229253D01*
X132550000Y-77230804D01*
X132559793Y-77229253D01*
X132673335Y-77211270D01*
X132673337Y-77211269D01*
X132683126Y-77209719D01*
X132803220Y-77148528D01*
X132898528Y-77053220D01*
X132959719Y-76933126D01*
X132961926Y-76919196D01*
X132979253Y-76809793D01*
X132980804Y-76800000D01*
X132975173Y-76764444D01*
X132961270Y-76676665D01*
X132961269Y-76676663D01*
X132959719Y-76666874D01*
X132898528Y-76546780D01*
X132803220Y-76451472D01*
X132683126Y-76390281D01*
X132673337Y-76388731D01*
X132673335Y-76388730D01*
X132559793Y-76370747D01*
X132550000Y-76369196D01*
X132540207Y-76370747D01*
X132426665Y-76388730D01*
X132426663Y-76388731D01*
X132416874Y-76390281D01*
X132296780Y-76451472D01*
X132260657Y-76487595D01*
X132198345Y-76521621D01*
X132171562Y-76524500D01*
X132139543Y-76524500D01*
X132114963Y-76522079D01*
X132112173Y-76521524D01*
X132112171Y-76521524D01*
X132100000Y-76519103D01*
X132072868Y-76524500D01*
X132072867Y-76524500D01*
X131992505Y-76540485D01*
X131982186Y-76547380D01*
X131952800Y-76567015D01*
X131934582Y-76579188D01*
X131924378Y-76586006D01*
X131924377Y-76586007D01*
X131901376Y-76601376D01*
X131894485Y-76611689D01*
X131892898Y-76614064D01*
X131877228Y-76633156D01*
X131687054Y-76823330D01*
X131624742Y-76857356D01*
X131553927Y-76852291D01*
X131497091Y-76809744D01*
X131473510Y-76753946D01*
X131461270Y-76676665D01*
X131461269Y-76676663D01*
X131459719Y-76666874D01*
X131398528Y-76546780D01*
X131303220Y-76451472D01*
X131183126Y-76390281D01*
X131173337Y-76388731D01*
X131173335Y-76388730D01*
X131059793Y-76370747D01*
X131050000Y-76369196D01*
X131040207Y-76370747D01*
X130926665Y-76388730D01*
X130926663Y-76388731D01*
X130916874Y-76390281D01*
X130796780Y-76451472D01*
X130701472Y-76546780D01*
X130640281Y-76666874D01*
X130638731Y-76676663D01*
X130638730Y-76676665D01*
X130624827Y-76764444D01*
X130619196Y-76800000D01*
X130617156Y-76799677D01*
X130600745Y-76855568D01*
X130583842Y-76876542D01*
X130472789Y-76987595D01*
X130410477Y-77021621D01*
X130383694Y-77024500D01*
X130142774Y-77024500D01*
X130074653Y-77004498D01*
X130028160Y-76950842D01*
X130018325Y-76878789D01*
X130025173Y-76835556D01*
X130030804Y-76800000D01*
X130032844Y-76800323D01*
X130049255Y-76744432D01*
X130066158Y-76723458D01*
X130516844Y-76272772D01*
X130535936Y-76257102D01*
X130538307Y-76255518D01*
X130538308Y-76255517D01*
X130548624Y-76248624D01*
X130609515Y-76157495D01*
X130625500Y-76077133D01*
X130625500Y-76077132D01*
X130630897Y-76050000D01*
X130627921Y-76035039D01*
X130625500Y-76010457D01*
X130625500Y-75016306D01*
X130645502Y-74948185D01*
X130662405Y-74927211D01*
X131373458Y-74216158D01*
X131435770Y-74182132D01*
X131449240Y-74180684D01*
X131450000Y-74180804D01*
X131531136Y-74167953D01*
X131573335Y-74161270D01*
X131573337Y-74161269D01*
X131583126Y-74159719D01*
X131703220Y-74098528D01*
X131798528Y-74003220D01*
X131859719Y-73883126D01*
X131862407Y-73866158D01*
X131879253Y-73759793D01*
X131880804Y-73750000D01*
X131876765Y-73724500D01*
X131861270Y-73626665D01*
X131861269Y-73626663D01*
X131859719Y-73616874D01*
X131798528Y-73496780D01*
X131703220Y-73401472D01*
X131583126Y-73340281D01*
X131573337Y-73338731D01*
X131573335Y-73338730D01*
X131459793Y-73320747D01*
X131450000Y-73319196D01*
X131440207Y-73320747D01*
X131326665Y-73338730D01*
X131326663Y-73338731D01*
X131316874Y-73340281D01*
X131196780Y-73401472D01*
X131101472Y-73496780D01*
X131040281Y-73616874D01*
X131038731Y-73626663D01*
X131038730Y-73626665D01*
X131023235Y-73724500D01*
X131019196Y-73750000D01*
X131017156Y-73749677D01*
X131000745Y-73805568D01*
X130983842Y-73826542D01*
X130183156Y-74627228D01*
X130164064Y-74642898D01*
X130151376Y-74651376D01*
X130144485Y-74661689D01*
X130136007Y-74674377D01*
X130136005Y-74674379D01*
X130120647Y-74697364D01*
X130120647Y-74697365D01*
X130090485Y-74742505D01*
X130088065Y-74754674D01*
X130088064Y-74754675D01*
X130081635Y-74786997D01*
X130074971Y-74820500D01*
X130069103Y-74850000D01*
X130071524Y-74862171D01*
X130072079Y-74864961D01*
X130074500Y-74889543D01*
X130074500Y-75883694D01*
X130054498Y-75951815D01*
X130037595Y-75972789D01*
X129676542Y-76333842D01*
X129614230Y-76367868D01*
X129600760Y-76369316D01*
X129600000Y-76369196D01*
X129518864Y-76382047D01*
X129476665Y-76388730D01*
X129476663Y-76388731D01*
X129466874Y-76390281D01*
X129346780Y-76451472D01*
X129310657Y-76487595D01*
X129248345Y-76521621D01*
X129221562Y-76524500D01*
X128845958Y-76524500D01*
X128821378Y-76522079D01*
X128818588Y-76521524D01*
X128806416Y-76519103D01*
X128794244Y-76521524D01*
X128791454Y-76522079D01*
X128698922Y-76540484D01*
X128688605Y-76547377D01*
X128688604Y-76547378D01*
X128630801Y-76586001D01*
X128626728Y-76588723D01*
X128625404Y-76589138D01*
X128617141Y-76593939D01*
X128617139Y-76593940D01*
X128616182Y-76592026D01*
X128558977Y-76609944D01*
X128490508Y-76591167D01*
X128454783Y-76558028D01*
X128453028Y-76555612D01*
X128448528Y-76546780D01*
X128353220Y-76451472D01*
X128233126Y-76390281D01*
X128223337Y-76388731D01*
X128223335Y-76388730D01*
X128109793Y-76370747D01*
X128100000Y-76369196D01*
X128090207Y-76370747D01*
X127976665Y-76388730D01*
X127976663Y-76388731D01*
X127966874Y-76390281D01*
X127846780Y-76451472D01*
X127839769Y-76458483D01*
X127831748Y-76464311D01*
X127830913Y-76463162D01*
X127777803Y-76492163D01*
X127706988Y-76487098D01*
X127650152Y-76444551D01*
X127625341Y-76378031D01*
X127625020Y-76369042D01*
X127625020Y-73939063D01*
X127627441Y-73914481D01*
X127627996Y-73911691D01*
X127630417Y-73899520D01*
X127622058Y-73857495D01*
X127615883Y-73826451D01*
X127611456Y-73804194D01*
X127611455Y-73804192D01*
X127609035Y-73792025D01*
X127602143Y-73781710D01*
X127602142Y-73781708D01*
X127567257Y-73729500D01*
X127563517Y-73723902D01*
X127567357Y-73721336D01*
X127567354Y-73721330D01*
X127563513Y-73723897D01*
X127555035Y-73711209D01*
X127548144Y-73700896D01*
X127535456Y-73692418D01*
X127516364Y-73676748D01*
X127316158Y-73476542D01*
X127282132Y-73414230D01*
X127280684Y-73400760D01*
X127280804Y-73400000D01*
X127267953Y-73318864D01*
X127261270Y-73276665D01*
X127261269Y-73276663D01*
X127259719Y-73266874D01*
X127198528Y-73146780D01*
X127103220Y-73051472D01*
X126983126Y-72990281D01*
X126973337Y-72988731D01*
X126973335Y-72988730D01*
X126859793Y-72970747D01*
X126850000Y-72969196D01*
X126840207Y-72970747D01*
X126726665Y-72988730D01*
X126726663Y-72988731D01*
X126716874Y-72990281D01*
X126596780Y-73051472D01*
X126501472Y-73146780D01*
X126440281Y-73266874D01*
X126438731Y-73276663D01*
X126438730Y-73276665D01*
X126423286Y-73374176D01*
X126419196Y-73400000D01*
X126420747Y-73409793D01*
X126437335Y-73514524D01*
X126440281Y-73533126D01*
X126501472Y-73653220D01*
X126596780Y-73748528D01*
X126716874Y-73809719D01*
X126726663Y-73811269D01*
X126726665Y-73811270D01*
X126850000Y-73830804D01*
X126849677Y-73832844D01*
X126905568Y-73849255D01*
X126926542Y-73866158D01*
X127037115Y-73976731D01*
X127071141Y-74039043D01*
X127074020Y-74065826D01*
X127074020Y-76332885D01*
X127054018Y-76401006D01*
X127000362Y-76447499D01*
X126930088Y-76457603D01*
X126890817Y-76445152D01*
X126808143Y-76403028D01*
X126783126Y-76390281D01*
X126773337Y-76388731D01*
X126773335Y-76388730D01*
X126659793Y-76370747D01*
X126650000Y-76369196D01*
X126640207Y-76370747D01*
X126526665Y-76388730D01*
X126526663Y-76388731D01*
X126516874Y-76390281D01*
X126396780Y-76451472D01*
X126301472Y-76546780D01*
X126240281Y-76666874D01*
X126238731Y-76676663D01*
X126238730Y-76676665D01*
X126224827Y-76764444D01*
X126219196Y-76800000D01*
X126220747Y-76809793D01*
X126238075Y-76919196D01*
X126240281Y-76933126D01*
X126244782Y-76941959D01*
X126248329Y-76948921D01*
X126261433Y-77018698D01*
X126257276Y-77028940D01*
X126303033Y-77054781D01*
X126396780Y-77148528D01*
X126516874Y-77209719D01*
X126526665Y-77211270D01*
X126526666Y-77211270D01*
X126618210Y-77225769D01*
X126682364Y-77256181D01*
X126719891Y-77316449D01*
X126724500Y-77350218D01*
X126724500Y-78530694D01*
X126704498Y-78598815D01*
X126650842Y-78645308D01*
X126580568Y-78655412D01*
X126515988Y-78625918D01*
X126509405Y-78619789D01*
X125834001Y-77944385D01*
X125799975Y-77882073D01*
X125805040Y-77811258D01*
X125847587Y-77754422D01*
X125865894Y-77743023D01*
X125944385Y-77703030D01*
X125944387Y-77703029D01*
X125953220Y-77698528D01*
X126048528Y-77603220D01*
X126109719Y-77483126D01*
X126112273Y-77467005D01*
X126129253Y-77359793D01*
X126130804Y-77350000D01*
X126120294Y-77283644D01*
X126111270Y-77226665D01*
X126111269Y-77226663D01*
X126109719Y-77216874D01*
X126101671Y-77201079D01*
X126088567Y-77131302D01*
X126092724Y-77121060D01*
X126046967Y-77095219D01*
X125953220Y-77001472D01*
X125833126Y-76940281D01*
X125823337Y-76938731D01*
X125823335Y-76938730D01*
X125709793Y-76920747D01*
X125700000Y-76919196D01*
X125690207Y-76920747D01*
X125576665Y-76938730D01*
X125576663Y-76938731D01*
X125566874Y-76940281D01*
X125446780Y-77001472D01*
X125351472Y-77096780D01*
X125346971Y-77105613D01*
X125346970Y-77105615D01*
X125306977Y-77184106D01*
X125258229Y-77235722D01*
X125189314Y-77252788D01*
X125122113Y-77229888D01*
X125105615Y-77215999D01*
X125050247Y-77160631D01*
X125016221Y-77098319D01*
X125021286Y-77027504D01*
X125063833Y-76970668D01*
X125082140Y-76959269D01*
X125094386Y-76953030D01*
X125094390Y-76953027D01*
X125103220Y-76948528D01*
X125198528Y-76853220D01*
X125259719Y-76733126D01*
X125267320Y-76685139D01*
X125279253Y-76609793D01*
X125280804Y-76600000D01*
X125271378Y-76540484D01*
X125261270Y-76476665D01*
X125261269Y-76476663D01*
X125259719Y-76466874D01*
X125198528Y-76346780D01*
X125103220Y-76251472D01*
X124983126Y-76190281D01*
X124973337Y-76188731D01*
X124973335Y-76188730D01*
X124859793Y-76170747D01*
X124850000Y-76169196D01*
X124771211Y-76181675D01*
X124700800Y-76172575D01*
X124646486Y-76126853D01*
X124625500Y-76057226D01*
X124625500Y-75892774D01*
X124645502Y-75824653D01*
X124699158Y-75778160D01*
X124771211Y-75768325D01*
X124850000Y-75780804D01*
X124859793Y-75779253D01*
X124973335Y-75761270D01*
X124973337Y-75761269D01*
X124983126Y-75759719D01*
X125103220Y-75698528D01*
X125198528Y-75603220D01*
X125259719Y-75483126D01*
X125277201Y-75372752D01*
X125279253Y-75359793D01*
X125280804Y-75350000D01*
X125279253Y-75340207D01*
X125261270Y-75226665D01*
X125261269Y-75226663D01*
X125259719Y-75216874D01*
X125198528Y-75096780D01*
X125103220Y-75001472D01*
X124983126Y-74940281D01*
X124973337Y-74938731D01*
X124973335Y-74938730D01*
X124859793Y-74920747D01*
X124850000Y-74919196D01*
X124771211Y-74931675D01*
X124700800Y-74922575D01*
X124646486Y-74876853D01*
X124625500Y-74807226D01*
X124625500Y-74592774D01*
X124645502Y-74524653D01*
X124699158Y-74478160D01*
X124771211Y-74468325D01*
X124850000Y-74480804D01*
X124859793Y-74479253D01*
X124973335Y-74461270D01*
X124973337Y-74461269D01*
X124983126Y-74459719D01*
X125103220Y-74398528D01*
X125198528Y-74303220D01*
X125259719Y-74183126D01*
X125261832Y-74169789D01*
X125279253Y-74059793D01*
X125280804Y-74050000D01*
X125274392Y-74009515D01*
X125261270Y-73926665D01*
X125261269Y-73926663D01*
X125259719Y-73916874D01*
X125198528Y-73796780D01*
X125103220Y-73701472D01*
X124983126Y-73640281D01*
X124973337Y-73638731D01*
X124973335Y-73638730D01*
X124859793Y-73620747D01*
X124850000Y-73619196D01*
X124771211Y-73631675D01*
X124700800Y-73622575D01*
X124646486Y-73576853D01*
X124625500Y-73507226D01*
X124625500Y-72237603D01*
X124627921Y-72213021D01*
X124628476Y-72210231D01*
X124630897Y-72198060D01*
X124624512Y-72165962D01*
X124609515Y-72090565D01*
X124548624Y-71999436D01*
X124535936Y-71990958D01*
X124516844Y-71975288D01*
X124232151Y-71690595D01*
X124198125Y-71628283D01*
X124203190Y-71557468D01*
X124245737Y-71500632D01*
X124312257Y-71475821D01*
X124321246Y-71475500D01*
X127727278Y-71475500D01*
X127795399Y-71495502D01*
X127816373Y-71512405D01*
X127870323Y-71566355D01*
X127885993Y-71585447D01*
X127894471Y-71598135D01*
X127904784Y-71605026D01*
X127917472Y-71613504D01*
X127916123Y-71615522D01*
X127916125Y-71615523D01*
X127917473Y-71613505D01*
X127927194Y-71620000D01*
X127985600Y-71659026D01*
X128065962Y-71675011D01*
X128080923Y-71677987D01*
X128080924Y-71677987D01*
X128093095Y-71680408D01*
X128108056Y-71677432D01*
X128132638Y-71675011D01*
X128810946Y-71675011D01*
X128835528Y-71677432D01*
X128850489Y-71680408D01*
X128877621Y-71675011D01*
X128877622Y-71675011D01*
X128957984Y-71659026D01*
X129016390Y-71620000D01*
X129026111Y-71613505D01*
X129027581Y-71615705D01*
X129027583Y-71615705D01*
X129026112Y-71613504D01*
X129038800Y-71605026D01*
X129049113Y-71598135D01*
X129057591Y-71585447D01*
X129073261Y-71566355D01*
X130023458Y-70616158D01*
X130085770Y-70582132D01*
X130099240Y-70580684D01*
X130100000Y-70580804D01*
X130181136Y-70567953D01*
X130223335Y-70561270D01*
X130223337Y-70561269D01*
X130233126Y-70559719D01*
X130353220Y-70498528D01*
X130448528Y-70403220D01*
X130453033Y-70394379D01*
X130453909Y-70393173D01*
X130510132Y-70349820D01*
X130580868Y-70343745D01*
X130644940Y-70378140D01*
G37*
%TD.AperFunction*%
%TA.AperFunction,Conductor*%
G36*
X142711689Y-55311002D02*
G01*
X142758182Y-55364658D01*
X142768286Y-55434932D01*
X142738792Y-55499512D01*
X142682505Y-55536833D01*
X142676667Y-55538730D01*
X142666874Y-55540281D01*
X142546780Y-55601472D01*
X142510657Y-55637595D01*
X142448345Y-55671621D01*
X142421562Y-55674500D01*
X141833127Y-55674500D01*
X141808545Y-55672079D01*
X141805755Y-55671524D01*
X141793584Y-55669103D01*
X141781413Y-55671524D01*
X141766452Y-55674500D01*
X141766451Y-55674500D01*
X141686089Y-55690485D01*
X141644119Y-55718529D01*
X141644119Y-55718528D01*
X141644116Y-55718531D01*
X141617962Y-55736006D01*
X141615395Y-55732165D01*
X141615394Y-55732166D01*
X141617961Y-55736007D01*
X141594960Y-55751376D01*
X141588069Y-55761689D01*
X141586482Y-55764064D01*
X141570812Y-55783156D01*
X141465884Y-55888084D01*
X141403572Y-55922110D01*
X141376789Y-55924989D01*
X138439054Y-55924989D01*
X138414472Y-55922568D01*
X138411682Y-55922013D01*
X138399511Y-55919592D01*
X138292016Y-55940974D01*
X138223889Y-55986495D01*
X138223888Y-55986496D01*
X138200887Y-56001865D01*
X138193996Y-56012178D01*
X138192409Y-56014553D01*
X138176739Y-56033645D01*
X137976542Y-56233842D01*
X137914230Y-56267868D01*
X137900760Y-56269316D01*
X137900000Y-56269196D01*
X137818864Y-56282047D01*
X137776665Y-56288730D01*
X137776663Y-56288731D01*
X137766874Y-56290281D01*
X137646780Y-56351472D01*
X137551472Y-56446780D01*
X137490281Y-56566874D01*
X137469196Y-56700000D01*
X137470689Y-56709424D01*
X137455856Y-56758319D01*
X137456775Y-56758598D01*
X137451349Y-56776484D01*
X137440966Y-56792024D01*
X137440966Y-56792025D01*
X137419584Y-56899519D01*
X137422005Y-56911690D01*
X137422560Y-56914480D01*
X137424981Y-56939062D01*
X137424981Y-63755234D01*
X137422560Y-63779816D01*
X137419584Y-63794777D01*
X137424981Y-63821909D01*
X137424981Y-63821910D01*
X137440966Y-63902272D01*
X137460093Y-63930897D01*
X137480178Y-63960956D01*
X137501857Y-63993401D01*
X137512173Y-64000294D01*
X137512174Y-64000295D01*
X137514545Y-64001879D01*
X137533637Y-64017549D01*
X138588084Y-65071996D01*
X138622110Y-65134308D01*
X138624989Y-65161091D01*
X138624989Y-65510946D01*
X138622568Y-65535528D01*
X138619592Y-65550489D01*
X138622013Y-65562660D01*
X138624989Y-65577621D01*
X138624989Y-65577623D01*
X138636384Y-65634912D01*
X138630056Y-65705626D01*
X138586501Y-65761692D01*
X138519548Y-65785311D01*
X138493098Y-65783941D01*
X138400000Y-65769196D01*
X138390207Y-65770747D01*
X138276665Y-65788730D01*
X138276663Y-65788731D01*
X138266874Y-65790281D01*
X138146780Y-65851472D01*
X138051472Y-65946780D01*
X137990281Y-66066874D01*
X137988731Y-66076663D01*
X137988730Y-66076665D01*
X137982057Y-66118797D01*
X137969196Y-66200000D01*
X137970747Y-66209793D01*
X137987641Y-66316455D01*
X137990281Y-66333126D01*
X138051472Y-66453220D01*
X138146780Y-66548528D01*
X138266874Y-66609719D01*
X138276663Y-66611269D01*
X138276665Y-66611270D01*
X138390207Y-66629253D01*
X138400000Y-66630804D01*
X138409793Y-66629253D01*
X138523335Y-66611270D01*
X138523337Y-66611269D01*
X138533126Y-66609719D01*
X138653220Y-66548528D01*
X138748528Y-66453220D01*
X138809719Y-66333126D01*
X138812360Y-66316455D01*
X138824051Y-66242637D01*
X138854463Y-66178484D01*
X138914732Y-66140957D01*
X138985721Y-66141971D01*
X139044893Y-66181204D01*
X139073461Y-66246199D01*
X139074500Y-66262348D01*
X139074500Y-67987652D01*
X139054976Y-68054144D01*
X139073461Y-68096199D01*
X139074500Y-68112348D01*
X139074500Y-68400431D01*
X139054498Y-68468552D01*
X139000842Y-68515045D01*
X138948500Y-68526431D01*
X138829507Y-68526431D01*
X138761386Y-68506429D01*
X138714893Y-68452773D01*
X138704789Y-68382499D01*
X138734283Y-68317919D01*
X138740412Y-68311336D01*
X138748528Y-68303220D01*
X138809719Y-68183126D01*
X138819845Y-68119196D01*
X138824051Y-68092637D01*
X138844516Y-68049466D01*
X138827604Y-68023150D01*
X138824051Y-68007363D01*
X138811270Y-67926665D01*
X138811269Y-67926663D01*
X138809719Y-67916874D01*
X138748528Y-67796780D01*
X138653220Y-67701472D01*
X138533126Y-67640281D01*
X138523337Y-67638731D01*
X138523335Y-67638730D01*
X138409793Y-67620747D01*
X138400000Y-67619196D01*
X138390207Y-67620747D01*
X138276665Y-67638730D01*
X138276663Y-67638731D01*
X138266874Y-67640281D01*
X138146780Y-67701472D01*
X138051472Y-67796780D01*
X137990281Y-67916874D01*
X137988731Y-67926663D01*
X137988730Y-67926665D01*
X137986825Y-67938692D01*
X137969196Y-68050000D01*
X137970747Y-68059793D01*
X137980156Y-68119196D01*
X137990281Y-68183126D01*
X138051472Y-68303220D01*
X138059588Y-68311336D01*
X138060502Y-68313009D01*
X138064311Y-68318252D01*
X138063633Y-68318744D01*
X138093614Y-68373648D01*
X138088549Y-68444463D01*
X138046002Y-68501299D01*
X137979482Y-68526110D01*
X137970493Y-68526431D01*
X136984686Y-68526431D01*
X136916565Y-68506429D01*
X136870072Y-68452773D01*
X136864982Y-68435889D01*
X136864335Y-68436099D01*
X136861270Y-68426666D01*
X136859719Y-68416874D01*
X136798528Y-68296780D01*
X136703220Y-68201472D01*
X136583126Y-68140281D01*
X136573337Y-68138731D01*
X136573335Y-68138730D01*
X136459793Y-68120747D01*
X136450000Y-68119196D01*
X136440207Y-68120747D01*
X136326665Y-68138730D01*
X136326663Y-68138731D01*
X136316874Y-68140281D01*
X136196780Y-68201472D01*
X136101472Y-68296780D01*
X136040281Y-68416874D01*
X136038730Y-68426666D01*
X136035665Y-68436099D01*
X136032663Y-68435124D01*
X136009340Y-68484306D01*
X135949068Y-68521826D01*
X135915314Y-68526431D01*
X135250857Y-68526431D01*
X135182736Y-68506429D01*
X135161762Y-68489526D01*
X134472887Y-67800651D01*
X134438861Y-67738339D01*
X134443926Y-67667524D01*
X134472887Y-67622461D01*
X134545328Y-67550020D01*
X134606519Y-67429926D01*
X134611259Y-67400000D01*
X135219196Y-67400000D01*
X135220747Y-67409793D01*
X135234146Y-67494388D01*
X135240281Y-67533126D01*
X135301472Y-67653220D01*
X135396780Y-67748528D01*
X135516874Y-67809719D01*
X135526663Y-67811269D01*
X135526665Y-67811270D01*
X135640207Y-67829253D01*
X135650000Y-67830804D01*
X135659793Y-67829253D01*
X135773335Y-67811270D01*
X135773337Y-67811269D01*
X135783126Y-67809719D01*
X135903220Y-67748528D01*
X135998528Y-67653220D01*
X136059719Y-67533126D01*
X136065855Y-67494388D01*
X136079253Y-67409793D01*
X136080804Y-67400000D01*
X136064876Y-67299433D01*
X136061270Y-67276665D01*
X136061269Y-67276663D01*
X136059719Y-67266874D01*
X135998528Y-67146780D01*
X135962405Y-67110657D01*
X135928379Y-67048345D01*
X135925500Y-67021562D01*
X135925500Y-65966306D01*
X135945502Y-65898185D01*
X135962405Y-65877211D01*
X136189556Y-65650060D01*
X136251868Y-65616034D01*
X136298361Y-65614706D01*
X136400000Y-65630804D01*
X136409793Y-65629253D01*
X136523335Y-65611270D01*
X136523337Y-65611269D01*
X136533126Y-65609719D01*
X136653220Y-65548528D01*
X136748528Y-65453220D01*
X136809719Y-65333126D01*
X136813427Y-65309719D01*
X136829253Y-65209793D01*
X136830804Y-65200000D01*
X136828131Y-65183126D01*
X136811270Y-65076665D01*
X136811269Y-65076663D01*
X136809719Y-65066874D01*
X136748528Y-64946780D01*
X136653220Y-64851472D01*
X136533126Y-64790281D01*
X136523337Y-64788731D01*
X136523335Y-64788730D01*
X136409793Y-64770747D01*
X136400000Y-64769196D01*
X136390207Y-64770747D01*
X136276665Y-64788730D01*
X136276663Y-64788731D01*
X136266874Y-64790281D01*
X136146780Y-64851472D01*
X136051472Y-64946780D01*
X136041234Y-64966874D01*
X135995985Y-65055679D01*
X135972813Y-65087571D01*
X135483156Y-65577228D01*
X135464064Y-65592898D01*
X135451376Y-65601376D01*
X135436007Y-65624377D01*
X135436006Y-65624378D01*
X135419385Y-65649253D01*
X135390485Y-65692505D01*
X135374544Y-65772646D01*
X135369103Y-65800000D01*
X135371524Y-65812171D01*
X135372079Y-65814961D01*
X135374500Y-65839543D01*
X135374500Y-67021562D01*
X135354498Y-67089683D01*
X135337595Y-67110657D01*
X135301472Y-67146780D01*
X135240281Y-67266874D01*
X135238731Y-67276663D01*
X135238730Y-67276665D01*
X135235124Y-67299433D01*
X135219196Y-67400000D01*
X134611259Y-67400000D01*
X134611293Y-67399788D01*
X134626053Y-67306593D01*
X134627604Y-67296800D01*
X134606519Y-67163674D01*
X134545328Y-67043580D01*
X134450020Y-66948272D01*
X134329926Y-66887081D01*
X134320137Y-66885531D01*
X134320135Y-66885530D01*
X134196800Y-66865996D01*
X134197123Y-66863956D01*
X134141232Y-66847545D01*
X134120258Y-66830642D01*
X133272772Y-65983156D01*
X133257102Y-65964064D01*
X133255515Y-65961689D01*
X133248624Y-65951376D01*
X133225623Y-65936007D01*
X133225622Y-65936006D01*
X133224787Y-65935448D01*
X133197811Y-65917423D01*
X133167814Y-65897379D01*
X133167810Y-65897377D01*
X133157495Y-65890485D01*
X133145326Y-65888064D01*
X133145325Y-65888064D01*
X133077133Y-65874500D01*
X133062172Y-65871524D01*
X133062171Y-65871524D01*
X133050000Y-65869103D01*
X133037829Y-65871524D01*
X133035039Y-65872079D01*
X133010457Y-65874500D01*
X130992774Y-65874500D01*
X130924653Y-65854498D01*
X130878160Y-65800842D01*
X130868325Y-65728789D01*
X130879253Y-65659793D01*
X130880804Y-65650000D01*
X130873365Y-65603031D01*
X130861270Y-65526665D01*
X130861269Y-65526663D01*
X130859719Y-65516874D01*
X130798528Y-65396780D01*
X130703220Y-65301472D01*
X130583126Y-65240281D01*
X130573337Y-65238731D01*
X130573335Y-65238730D01*
X130450000Y-65219196D01*
X130450323Y-65217156D01*
X130394432Y-65200745D01*
X130373458Y-65183842D01*
X130239616Y-65050000D01*
X133419196Y-65050000D01*
X133420747Y-65059793D01*
X133437173Y-65163500D01*
X133440281Y-65183126D01*
X133501472Y-65303220D01*
X133596780Y-65398528D01*
X133716874Y-65459719D01*
X133726665Y-65461270D01*
X133726666Y-65461270D01*
X133739477Y-65463299D01*
X133836637Y-65478688D01*
X133900789Y-65509099D01*
X133938317Y-65569367D01*
X133937303Y-65640356D01*
X133912942Y-65680753D01*
X133914311Y-65681748D01*
X133908484Y-65689768D01*
X133901472Y-65696780D01*
X133840281Y-65816874D01*
X133838731Y-65826663D01*
X133838730Y-65826665D01*
X133822282Y-65930517D01*
X133819196Y-65950000D01*
X133820747Y-65959793D01*
X133836922Y-66061916D01*
X133840281Y-66083126D01*
X133901472Y-66203220D01*
X133996780Y-66298528D01*
X134116874Y-66359719D01*
X134126663Y-66361269D01*
X134126665Y-66361270D01*
X134240207Y-66379253D01*
X134250000Y-66380804D01*
X134259793Y-66379253D01*
X134373335Y-66361270D01*
X134373337Y-66361269D01*
X134383126Y-66359719D01*
X134503220Y-66298528D01*
X134598528Y-66203220D01*
X134659719Y-66083126D01*
X134663079Y-66061916D01*
X134679253Y-65959793D01*
X134680804Y-65950000D01*
X134677718Y-65930517D01*
X134661270Y-65826665D01*
X134661269Y-65826663D01*
X134659719Y-65816874D01*
X134598528Y-65696780D01*
X134503220Y-65601472D01*
X134383126Y-65540281D01*
X134373335Y-65538730D01*
X134373334Y-65538730D01*
X134348277Y-65534761D01*
X134263363Y-65521312D01*
X134199211Y-65490901D01*
X134161683Y-65430633D01*
X134162697Y-65359644D01*
X134187058Y-65319247D01*
X134185689Y-65318252D01*
X134191517Y-65310231D01*
X134198528Y-65303220D01*
X134259719Y-65183126D01*
X134262828Y-65163500D01*
X134279253Y-65059793D01*
X134280804Y-65050000D01*
X134277186Y-65027155D01*
X134261270Y-64926665D01*
X134261269Y-64926663D01*
X134259719Y-64916874D01*
X134198528Y-64796780D01*
X134103220Y-64701472D01*
X133983126Y-64640281D01*
X133973337Y-64638731D01*
X133973335Y-64638730D01*
X133859793Y-64620747D01*
X133850000Y-64619196D01*
X133840207Y-64620747D01*
X133726665Y-64638730D01*
X133726663Y-64638731D01*
X133716874Y-64640281D01*
X133596780Y-64701472D01*
X133501472Y-64796780D01*
X133440281Y-64916874D01*
X133438731Y-64926663D01*
X133438730Y-64926665D01*
X133422814Y-65027155D01*
X133419196Y-65050000D01*
X130239616Y-65050000D01*
X129189616Y-64000000D01*
X129769196Y-64000000D01*
X129770747Y-64009793D01*
X129784294Y-64095323D01*
X129790281Y-64133126D01*
X129851472Y-64253220D01*
X129946780Y-64348528D01*
X130066874Y-64409719D01*
X130076663Y-64411269D01*
X130076665Y-64411270D01*
X130190207Y-64429253D01*
X130200000Y-64430804D01*
X130209793Y-64429253D01*
X130323335Y-64411270D01*
X130323337Y-64411269D01*
X130333126Y-64409719D01*
X130453220Y-64348528D01*
X130548528Y-64253220D01*
X130609719Y-64133126D01*
X130615707Y-64095323D01*
X130629253Y-64009793D01*
X130630804Y-64000000D01*
X130618575Y-63922789D01*
X130611270Y-63876665D01*
X130611269Y-63876663D01*
X130609719Y-63866874D01*
X130548528Y-63746780D01*
X130453220Y-63651472D01*
X130333126Y-63590281D01*
X130323337Y-63588731D01*
X130323335Y-63588730D01*
X130209793Y-63570747D01*
X130200000Y-63569196D01*
X130190207Y-63570747D01*
X130076665Y-63588730D01*
X130076663Y-63588731D01*
X130066874Y-63590281D01*
X129946780Y-63651472D01*
X129851472Y-63746780D01*
X129790281Y-63866874D01*
X129788731Y-63876663D01*
X129788730Y-63876665D01*
X129781425Y-63922789D01*
X129769196Y-64000000D01*
X129189616Y-64000000D01*
X129112405Y-63922789D01*
X129078379Y-63860477D01*
X129075500Y-63833694D01*
X129075500Y-62939537D01*
X129077921Y-62914957D01*
X129078475Y-62912172D01*
X129080896Y-62900000D01*
X129075500Y-62872871D01*
X129075500Y-62872867D01*
X129059515Y-62792505D01*
X129055173Y-62786007D01*
X129013994Y-62724378D01*
X129013993Y-62724377D01*
X128998624Y-62701376D01*
X128985936Y-62692898D01*
X128966844Y-62677228D01*
X128808096Y-62518480D01*
X128772742Y-62449096D01*
X128761270Y-62376666D01*
X128761270Y-62376665D01*
X128759719Y-62366874D01*
X128698528Y-62246780D01*
X128603220Y-62151472D01*
X128483126Y-62090281D01*
X128473337Y-62088731D01*
X128473335Y-62088730D01*
X128359793Y-62070747D01*
X128350000Y-62069196D01*
X128340207Y-62070747D01*
X128226665Y-62088730D01*
X128226663Y-62088731D01*
X128216874Y-62090281D01*
X128096780Y-62151472D01*
X128001472Y-62246780D01*
X127940281Y-62366874D01*
X127919196Y-62500000D01*
X127920747Y-62509793D01*
X127934614Y-62597344D01*
X127940281Y-62633126D01*
X128001472Y-62753220D01*
X128096780Y-62848528D01*
X128216874Y-62909719D01*
X128226663Y-62911269D01*
X128226665Y-62911270D01*
X128340207Y-62929253D01*
X128350000Y-62930804D01*
X128365311Y-62928379D01*
X128435723Y-62937479D01*
X128474117Y-62963733D01*
X128487595Y-62977211D01*
X128521621Y-63039523D01*
X128524500Y-63066306D01*
X128524500Y-63960457D01*
X128522079Y-63985039D01*
X128519103Y-64000000D01*
X128524500Y-64027132D01*
X128524500Y-64027133D01*
X128540485Y-64107495D01*
X128562849Y-64140965D01*
X128573894Y-64157494D01*
X128601376Y-64198624D01*
X128611692Y-64205517D01*
X128611693Y-64205518D01*
X128614064Y-64207102D01*
X128633156Y-64222772D01*
X129983842Y-65573458D01*
X130017868Y-65635770D01*
X130019316Y-65649240D01*
X130019196Y-65650000D01*
X130027856Y-65704678D01*
X130031675Y-65728789D01*
X130022575Y-65799200D01*
X129976853Y-65853514D01*
X129907226Y-65874500D01*
X127962348Y-65874500D01*
X127894227Y-65854498D01*
X127847734Y-65800842D01*
X127837630Y-65730568D01*
X127867124Y-65665988D01*
X127926850Y-65627604D01*
X127942637Y-65624051D01*
X128023335Y-65611270D01*
X128023337Y-65611269D01*
X128033126Y-65609719D01*
X128153220Y-65548528D01*
X128248528Y-65453220D01*
X128309719Y-65333126D01*
X128313427Y-65309719D01*
X128329253Y-65209793D01*
X128330804Y-65200000D01*
X128328131Y-65183126D01*
X128311270Y-65076665D01*
X128311269Y-65076663D01*
X128309719Y-65066874D01*
X128248528Y-64946780D01*
X128153220Y-64851472D01*
X128033126Y-64790281D01*
X128023337Y-64788731D01*
X128023335Y-64788730D01*
X127909793Y-64770747D01*
X127900000Y-64769196D01*
X127890207Y-64770747D01*
X127776665Y-64788730D01*
X127776663Y-64788731D01*
X127766874Y-64790281D01*
X127646780Y-64851472D01*
X127551472Y-64946780D01*
X127546972Y-64955612D01*
X127546970Y-64955615D01*
X127516393Y-65015626D01*
X127467645Y-65067242D01*
X127398730Y-65084308D01*
X127331529Y-65061408D01*
X127315031Y-65047519D01*
X126403559Y-64136047D01*
X126387891Y-64116957D01*
X126379415Y-64104271D01*
X126356414Y-64088902D01*
X126356412Y-64088900D01*
X126356406Y-64088896D01*
X126356398Y-64088890D01*
X126331487Y-64072246D01*
X126331486Y-64072245D01*
X126303830Y-64053766D01*
X126303831Y-64053766D01*
X126288287Y-64043380D01*
X126288285Y-64043380D01*
X126288284Y-64043379D01*
X126269951Y-64039732D01*
X126253029Y-64036366D01*
X126207925Y-64027394D01*
X126207919Y-64027393D01*
X126192962Y-64024418D01*
X126192961Y-64024418D01*
X126180790Y-64021997D01*
X126165828Y-64024973D01*
X126141247Y-64027394D01*
X126123155Y-64027394D01*
X126047094Y-64027393D01*
X125978973Y-64007390D01*
X125969803Y-64000000D01*
X126969196Y-64000000D01*
X126970747Y-64009793D01*
X126984294Y-64095323D01*
X126990281Y-64133126D01*
X127051472Y-64253220D01*
X127146780Y-64348528D01*
X127266874Y-64409719D01*
X127276663Y-64411269D01*
X127276665Y-64411270D01*
X127390207Y-64429253D01*
X127400000Y-64430804D01*
X127409793Y-64429253D01*
X127523335Y-64411270D01*
X127523337Y-64411269D01*
X127533126Y-64409719D01*
X127653220Y-64348528D01*
X127748528Y-64253220D01*
X127809719Y-64133126D01*
X127815707Y-64095323D01*
X127829253Y-64009793D01*
X127830804Y-64000000D01*
X127818575Y-63922789D01*
X127811270Y-63876665D01*
X127811269Y-63876663D01*
X127809719Y-63866874D01*
X127748528Y-63746780D01*
X127653220Y-63651472D01*
X127533126Y-63590281D01*
X127523337Y-63588731D01*
X127523335Y-63588730D01*
X127409793Y-63570747D01*
X127400000Y-63569196D01*
X127390207Y-63570747D01*
X127276665Y-63588730D01*
X127276663Y-63588731D01*
X127266874Y-63590281D01*
X127146780Y-63651472D01*
X127051472Y-63746780D01*
X126990281Y-63866874D01*
X126988731Y-63876663D01*
X126988730Y-63876665D01*
X126981425Y-63922789D01*
X126969196Y-64000000D01*
X125969803Y-64000000D01*
X125958000Y-63990488D01*
X124800669Y-62833157D01*
X124784999Y-62814065D01*
X124783412Y-62811690D01*
X124776521Y-62801377D01*
X124753520Y-62786008D01*
X124755109Y-62783631D01*
X124755107Y-62783630D01*
X124753519Y-62786007D01*
X124727365Y-62768532D01*
X124727363Y-62768529D01*
X124727362Y-62768530D01*
X124695708Y-62747379D01*
X124685392Y-62740486D01*
X124673223Y-62738065D01*
X124673222Y-62738065D01*
X124605030Y-62724501D01*
X124590069Y-62721525D01*
X124590068Y-62721525D01*
X124577897Y-62719104D01*
X124565726Y-62721525D01*
X124562936Y-62722080D01*
X124538354Y-62724501D01*
X123992774Y-62724501D01*
X123924653Y-62704499D01*
X123878160Y-62650843D01*
X123868325Y-62578790D01*
X123879253Y-62509793D01*
X123880804Y-62500000D01*
X123859719Y-62366874D01*
X123798528Y-62246780D01*
X123703220Y-62151472D01*
X123583126Y-62090281D01*
X123573337Y-62088731D01*
X123573335Y-62088730D01*
X123450000Y-62069196D01*
X123450323Y-62067156D01*
X123394432Y-62050745D01*
X123373457Y-62033842D01*
X123186282Y-61846666D01*
X122972769Y-61633153D01*
X122957100Y-61614061D01*
X122955515Y-61611689D01*
X122948624Y-61601376D01*
X122925623Y-61586007D01*
X122927212Y-61583630D01*
X122927210Y-61583628D01*
X122925621Y-61586006D01*
X122872483Y-61550500D01*
X122870886Y-61549433D01*
X122867813Y-61547379D01*
X122867811Y-61547378D01*
X122857495Y-61540485D01*
X122777133Y-61524500D01*
X122762172Y-61521524D01*
X122762171Y-61521524D01*
X122750000Y-61519103D01*
X122737829Y-61521524D01*
X122735039Y-61522079D01*
X122710457Y-61524500D01*
X119589542Y-61524500D01*
X119564962Y-61522079D01*
X119562172Y-61521524D01*
X119550000Y-61519103D01*
X119442506Y-61540484D01*
X119432189Y-61547377D01*
X119432188Y-61547378D01*
X119377937Y-61583628D01*
X119374378Y-61586006D01*
X119374377Y-61586007D01*
X119351376Y-61601376D01*
X119344485Y-61611689D01*
X119342898Y-61614064D01*
X119327228Y-61633156D01*
X119263156Y-61697228D01*
X119244064Y-61712898D01*
X119231376Y-61721376D01*
X119170485Y-61812505D01*
X119170485Y-61812506D01*
X119166030Y-61834905D01*
X119163690Y-61846666D01*
X119129206Y-61911178D01*
X116258473Y-64781911D01*
X116196161Y-64815937D01*
X116125346Y-64810872D01*
X116112181Y-64805085D01*
X116083126Y-64790281D01*
X115950000Y-64769196D01*
X115940207Y-64770747D01*
X115826665Y-64788730D01*
X115826663Y-64788731D01*
X115816874Y-64790281D01*
X115696780Y-64851472D01*
X115601472Y-64946780D01*
X115540281Y-65066874D01*
X115538731Y-65076663D01*
X115538730Y-65076665D01*
X115521869Y-65183126D01*
X115519196Y-65200000D01*
X115520747Y-65209793D01*
X115536574Y-65309719D01*
X115540281Y-65333126D01*
X115601472Y-65453220D01*
X115696780Y-65548528D01*
X115816874Y-65609719D01*
X115826663Y-65611269D01*
X115826665Y-65611270D01*
X115940207Y-65629253D01*
X115950000Y-65630804D01*
X115959793Y-65629253D01*
X116073335Y-65611270D01*
X116073337Y-65611269D01*
X116083126Y-65609719D01*
X116203220Y-65548528D01*
X116253966Y-65497782D01*
X116318477Y-65463299D01*
X116325322Y-65461937D01*
X116325325Y-65461936D01*
X116337495Y-65459515D01*
X116347809Y-65452623D01*
X116347812Y-65452622D01*
X116388218Y-65425623D01*
X116388219Y-65425622D01*
X116405622Y-65413994D01*
X116405623Y-65413993D01*
X116418311Y-65405515D01*
X116428624Y-65398624D01*
X116437104Y-65385934D01*
X116452771Y-65366845D01*
X117110854Y-64708762D01*
X117173166Y-64674736D01*
X117243981Y-64679801D01*
X117300817Y-64722348D01*
X117325628Y-64788868D01*
X117325949Y-64797857D01*
X117325950Y-65387235D01*
X117305948Y-65455356D01*
X117289046Y-65476330D01*
X116998018Y-65767359D01*
X116978925Y-65783029D01*
X116966240Y-65791505D01*
X116950873Y-65814504D01*
X116950871Y-65814506D01*
X116912403Y-65872079D01*
X116905350Y-65882634D01*
X116902929Y-65894803D01*
X116902929Y-65894804D01*
X116894733Y-65936007D01*
X116883968Y-65990128D01*
X116885262Y-65996635D01*
X116866387Y-66060918D01*
X116812731Y-66107411D01*
X116762203Y-66118402D01*
X116752016Y-66116376D01*
X116739845Y-66118797D01*
X116724884Y-66121773D01*
X116724883Y-66121773D01*
X116644521Y-66137758D01*
X116609682Y-66161037D01*
X116576394Y-66183279D01*
X116576393Y-66183280D01*
X116553392Y-66198649D01*
X116546501Y-66208962D01*
X116544914Y-66211337D01*
X116529244Y-66230429D01*
X115904375Y-66855298D01*
X115842063Y-66889324D01*
X115771248Y-66884259D01*
X115758078Y-66878470D01*
X115691962Y-66844783D01*
X115691961Y-66844783D01*
X115683126Y-66840281D01*
X115673337Y-66838731D01*
X115673335Y-66838730D01*
X115559793Y-66820747D01*
X115550000Y-66819196D01*
X115540207Y-66820747D01*
X115426665Y-66838730D01*
X115426663Y-66838731D01*
X115416874Y-66840281D01*
X115296780Y-66901472D01*
X115201472Y-66996780D01*
X115140281Y-67116874D01*
X115138731Y-67126663D01*
X115138730Y-67126665D01*
X115131338Y-67173335D01*
X115119196Y-67250000D01*
X115120747Y-67259793D01*
X115128736Y-67310231D01*
X115140281Y-67383126D01*
X115201472Y-67503220D01*
X115296780Y-67598528D01*
X115337343Y-67619196D01*
X115387559Y-67644782D01*
X115416874Y-67659719D01*
X115426667Y-67661270D01*
X115436100Y-67664335D01*
X115434954Y-67667863D01*
X115482391Y-67690368D01*
X115519901Y-67750647D01*
X115524500Y-67784380D01*
X115524500Y-70360457D01*
X115522079Y-70385039D01*
X115519103Y-70400000D01*
X115524500Y-70427132D01*
X115524500Y-70427133D01*
X115540485Y-70507495D01*
X115563878Y-70542505D01*
X115574605Y-70558558D01*
X115601376Y-70598624D01*
X115611710Y-70605529D01*
X115614064Y-70607102D01*
X115633156Y-70622772D01*
X116164789Y-71154405D01*
X116198815Y-71216717D01*
X116193750Y-71287532D01*
X116151203Y-71344368D01*
X116084683Y-71369179D01*
X116075694Y-71369500D01*
X116008039Y-71369500D01*
X115999396Y-71372038D01*
X115999394Y-71372038D01*
X115878593Y-71407508D01*
X115878591Y-71407509D01*
X115869947Y-71410047D01*
X115862369Y-71414917D01*
X115862367Y-71414918D01*
X115756452Y-71482985D01*
X115756449Y-71482987D01*
X115748872Y-71487857D01*
X115742972Y-71494666D01*
X115742971Y-71494667D01*
X115662253Y-71587822D01*
X115654623Y-71596627D01*
X115643950Y-71619998D01*
X115609885Y-71694589D01*
X115594835Y-71727543D01*
X115574353Y-71870000D01*
X115594835Y-72012457D01*
X115598577Y-72020651D01*
X115598578Y-72020654D01*
X115626525Y-72081847D01*
X115654623Y-72143373D01*
X115660525Y-72150184D01*
X115660526Y-72150186D01*
X115742971Y-72245333D01*
X115748872Y-72252143D01*
X115756449Y-72257013D01*
X115756452Y-72257015D01*
X115862367Y-72325082D01*
X115862369Y-72325083D01*
X115869947Y-72329953D01*
X115878591Y-72332491D01*
X115878593Y-72332492D01*
X115999394Y-72367962D01*
X115999396Y-72367962D01*
X116008039Y-72370500D01*
X116151961Y-72370500D01*
X116163112Y-72367226D01*
X116200900Y-72356131D01*
X116271896Y-72356131D01*
X116331622Y-72394515D01*
X116361115Y-72459096D01*
X116351010Y-72529370D01*
X116325492Y-72566122D01*
X116153059Y-72738555D01*
X116090747Y-72772581D01*
X116063964Y-72775460D01*
X114065252Y-72775462D01*
X113589988Y-72775462D01*
X113565408Y-72773041D01*
X113562618Y-72772486D01*
X113562616Y-72772486D01*
X113550445Y-72770065D01*
X113538274Y-72772486D01*
X113523313Y-72775462D01*
X113523312Y-72775462D01*
X113442950Y-72791447D01*
X113400980Y-72819491D01*
X113400980Y-72819490D01*
X113400977Y-72819493D01*
X113374823Y-72836968D01*
X113372256Y-72833127D01*
X113372255Y-72833128D01*
X113374822Y-72836969D01*
X113351821Y-72852338D01*
X113343707Y-72864482D01*
X113343349Y-72865018D01*
X113327679Y-72884112D01*
X112490457Y-73721336D01*
X112214110Y-73997683D01*
X112195019Y-74013351D01*
X112182336Y-74021826D01*
X112166967Y-74044827D01*
X112164590Y-74043238D01*
X112164588Y-74043241D01*
X112166965Y-74044830D01*
X112158586Y-74057370D01*
X112121445Y-74112955D01*
X112108026Y-74180417D01*
X112100063Y-74220450D01*
X112102484Y-74232621D01*
X112102484Y-74232623D01*
X112103039Y-74235413D01*
X112105460Y-74259993D01*
X112105460Y-75543407D01*
X112085458Y-75611528D01*
X112036663Y-75655674D01*
X112011679Y-75668404D01*
X111946780Y-75701472D01*
X111851472Y-75796780D01*
X111790281Y-75916874D01*
X111788731Y-75926663D01*
X111788730Y-75926665D01*
X111775459Y-76010457D01*
X111769196Y-76050000D01*
X111770747Y-76059793D01*
X111788075Y-76169196D01*
X111790281Y-76183126D01*
X111851472Y-76303220D01*
X111946780Y-76398528D01*
X112066874Y-76459719D01*
X112076663Y-76461269D01*
X112076665Y-76461270D01*
X112190207Y-76479253D01*
X112200000Y-76480804D01*
X112209793Y-76479253D01*
X112209794Y-76479253D01*
X112309270Y-76463498D01*
X112379681Y-76472598D01*
X112433995Y-76518320D01*
X112454980Y-76587947D01*
X112454980Y-81396435D01*
X112434978Y-81464556D01*
X112418076Y-81485530D01*
X111963634Y-81939973D01*
X111944541Y-81955643D01*
X111931856Y-81964119D01*
X111916487Y-81987120D01*
X111915036Y-81986150D01*
X111915035Y-81986152D01*
X111916486Y-81987122D01*
X111912921Y-81992457D01*
X111870965Y-82055248D01*
X111868545Y-82067415D01*
X111868544Y-82067417D01*
X111868095Y-82069675D01*
X111862063Y-82100000D01*
X111849583Y-82162743D01*
X111852004Y-82174914D01*
X111852004Y-82174916D01*
X111852559Y-82177706D01*
X111854980Y-82202286D01*
X111854981Y-84658917D01*
X111834979Y-84727038D01*
X111818076Y-84748012D01*
X110578493Y-85987595D01*
X110516181Y-86021621D01*
X110489398Y-86024500D01*
X110369537Y-86024500D01*
X110344957Y-86022079D01*
X110342172Y-86021525D01*
X110330000Y-86019104D01*
X110317828Y-86021525D01*
X110302876Y-86024499D01*
X110302868Y-86024500D01*
X110302865Y-86024500D01*
X110302860Y-86024501D01*
X110267344Y-86031566D01*
X110222505Y-86040485D01*
X110154378Y-86086006D01*
X110154377Y-86086007D01*
X110131376Y-86101376D01*
X110124485Y-86111689D01*
X110122898Y-86114064D01*
X110107228Y-86133156D01*
X109846794Y-86393590D01*
X109814902Y-86416762D01*
X109755613Y-86446971D01*
X109755611Y-86446972D01*
X109746780Y-86451472D01*
X109746261Y-86451991D01*
X109684195Y-86474137D01*
X109615043Y-86458058D01*
X109565562Y-86407145D01*
X109551000Y-86348343D01*
X109551000Y-81755010D01*
X109571002Y-81686889D01*
X109624658Y-81640396D01*
X109694932Y-81630292D01*
X109745121Y-81649012D01*
X109832367Y-81705082D01*
X109832369Y-81705083D01*
X109839947Y-81709953D01*
X109848591Y-81712491D01*
X109848593Y-81712492D01*
X109969394Y-81747962D01*
X109969396Y-81747962D01*
X109978039Y-81750500D01*
X110121961Y-81750500D01*
X110130604Y-81747962D01*
X110130606Y-81747962D01*
X110251407Y-81712492D01*
X110251409Y-81712491D01*
X110260053Y-81709953D01*
X110267631Y-81705083D01*
X110267633Y-81705082D01*
X110373548Y-81637015D01*
X110373551Y-81637013D01*
X110381128Y-81632143D01*
X110417845Y-81589769D01*
X110469474Y-81530186D01*
X110469475Y-81530184D01*
X110475377Y-81523373D01*
X110514033Y-81438730D01*
X110531422Y-81400654D01*
X110531423Y-81400651D01*
X110535165Y-81392457D01*
X110555647Y-81250000D01*
X110535165Y-81107543D01*
X110519684Y-81073643D01*
X110499603Y-81029674D01*
X110475377Y-80976627D01*
X110381128Y-80867857D01*
X110373551Y-80862987D01*
X110373548Y-80862985D01*
X110267633Y-80794918D01*
X110267631Y-80794917D01*
X110260053Y-80790047D01*
X110251409Y-80787509D01*
X110251407Y-80787508D01*
X110130606Y-80752038D01*
X110130604Y-80752038D01*
X110121961Y-80749500D01*
X109978039Y-80749500D01*
X109969396Y-80752038D01*
X109969394Y-80752038D01*
X109848593Y-80787508D01*
X109848591Y-80787509D01*
X109839947Y-80790047D01*
X109832369Y-80794917D01*
X109832367Y-80794918D01*
X109745121Y-80850988D01*
X109677000Y-80870990D01*
X109608879Y-80850988D01*
X109562386Y-80797332D01*
X109551000Y-80744990D01*
X109551000Y-71448367D01*
X114014500Y-71448367D01*
X114017038Y-71457010D01*
X114017038Y-71457011D01*
X114033166Y-71511936D01*
X114053022Y-71579561D01*
X114084333Y-71628283D01*
X114117832Y-71680408D01*
X114126945Y-71694589D01*
X114133755Y-71700490D01*
X114133757Y-71700492D01*
X114187177Y-71746780D01*
X114230282Y-71784130D01*
X114263609Y-71799350D01*
X114346461Y-71837188D01*
X114346464Y-71837189D01*
X114354658Y-71840931D01*
X114363575Y-71842213D01*
X114451541Y-71854861D01*
X114451548Y-71854862D01*
X114455989Y-71855500D01*
X114524011Y-71855500D01*
X114528452Y-71854862D01*
X114528459Y-71854861D01*
X114616425Y-71842213D01*
X114625342Y-71840931D01*
X114633536Y-71837189D01*
X114633539Y-71837188D01*
X114716391Y-71799350D01*
X114749718Y-71784130D01*
X114792823Y-71746780D01*
X114846243Y-71700492D01*
X114846245Y-71700490D01*
X114853055Y-71694589D01*
X114862169Y-71680408D01*
X114895667Y-71628283D01*
X114926978Y-71579561D01*
X114946835Y-71511936D01*
X114962962Y-71457011D01*
X114962962Y-71457010D01*
X114965500Y-71448367D01*
X114965500Y-71311633D01*
X114926978Y-71180439D01*
X114853055Y-71065411D01*
X114846245Y-71059510D01*
X114846243Y-71059508D01*
X114756531Y-70981773D01*
X114756529Y-70981772D01*
X114749718Y-70975870D01*
X114651242Y-70930897D01*
X114633539Y-70922812D01*
X114633536Y-70922811D01*
X114625342Y-70919069D01*
X114608164Y-70916599D01*
X114528459Y-70905139D01*
X114528452Y-70905138D01*
X114524011Y-70904500D01*
X114455989Y-70904500D01*
X114451548Y-70905138D01*
X114451541Y-70905139D01*
X114371836Y-70916599D01*
X114354658Y-70919069D01*
X114346464Y-70922811D01*
X114346461Y-70922812D01*
X114328758Y-70930897D01*
X114230282Y-70975870D01*
X114223471Y-70981772D01*
X114223469Y-70981773D01*
X114133757Y-71059508D01*
X114133755Y-71059510D01*
X114126945Y-71065411D01*
X114053022Y-71180439D01*
X114014500Y-71311633D01*
X114014500Y-71448367D01*
X109551000Y-71448367D01*
X109551000Y-67352604D01*
X109571002Y-67284483D01*
X109587905Y-67263509D01*
X111050567Y-65800847D01*
X111050765Y-65800765D01*
X111051000Y-65800198D01*
X111051082Y-65800000D01*
X111051000Y-65799802D01*
X111051000Y-65589000D01*
X111691946Y-65589000D01*
X111693497Y-65598793D01*
X111710618Y-65706888D01*
X111713031Y-65722126D01*
X111774222Y-65842220D01*
X111869530Y-65937528D01*
X111989624Y-65998719D01*
X111999413Y-66000269D01*
X111999415Y-66000270D01*
X112018042Y-66003220D01*
X112089262Y-66014500D01*
X112156238Y-66014500D01*
X112227458Y-66003220D01*
X112246085Y-66000270D01*
X112246087Y-66000269D01*
X112255876Y-65998719D01*
X112375970Y-65937528D01*
X112471278Y-65842220D01*
X112532469Y-65722126D01*
X112534883Y-65706888D01*
X112552003Y-65598793D01*
X112553554Y-65589000D01*
X112551092Y-65573458D01*
X112534020Y-65465665D01*
X112534019Y-65465663D01*
X112532469Y-65455874D01*
X112471278Y-65335780D01*
X112375970Y-65240472D01*
X112296539Y-65200000D01*
X113619196Y-65200000D01*
X113620747Y-65209793D01*
X113636574Y-65309719D01*
X113640281Y-65333126D01*
X113701472Y-65453220D01*
X113796780Y-65548528D01*
X113916874Y-65609719D01*
X113926663Y-65611269D01*
X113926665Y-65611270D01*
X114040207Y-65629253D01*
X114050000Y-65630804D01*
X114059793Y-65629253D01*
X114173335Y-65611270D01*
X114173337Y-65611269D01*
X114183126Y-65609719D01*
X114303220Y-65548528D01*
X114398528Y-65453220D01*
X114459719Y-65333126D01*
X114463427Y-65309719D01*
X114479253Y-65209793D01*
X114480804Y-65200000D01*
X114478131Y-65183126D01*
X114461270Y-65076665D01*
X114461269Y-65076663D01*
X114459719Y-65066874D01*
X114398528Y-64946780D01*
X114303220Y-64851472D01*
X114183126Y-64790281D01*
X114173337Y-64788731D01*
X114173335Y-64788730D01*
X114059793Y-64770747D01*
X114050000Y-64769196D01*
X114040207Y-64770747D01*
X113926665Y-64788730D01*
X113926663Y-64788731D01*
X113916874Y-64790281D01*
X113796780Y-64851472D01*
X113701472Y-64946780D01*
X113640281Y-65066874D01*
X113638731Y-65076663D01*
X113638730Y-65076665D01*
X113621869Y-65183126D01*
X113619196Y-65200000D01*
X112296539Y-65200000D01*
X112255876Y-65179281D01*
X112246087Y-65177731D01*
X112246085Y-65177730D01*
X112216601Y-65173060D01*
X112156238Y-65163500D01*
X112089262Y-65163500D01*
X112028899Y-65173060D01*
X111999415Y-65177730D01*
X111999413Y-65177731D01*
X111989624Y-65179281D01*
X111869530Y-65240472D01*
X111774222Y-65335780D01*
X111713031Y-65455874D01*
X111711481Y-65465663D01*
X111711480Y-65465665D01*
X111694408Y-65573458D01*
X111691946Y-65589000D01*
X111051000Y-65589000D01*
X111051000Y-63747500D01*
X111691946Y-63747500D01*
X111693497Y-63757293D01*
X111709840Y-63860477D01*
X111713031Y-63880626D01*
X111774222Y-64000720D01*
X111869530Y-64096028D01*
X111989624Y-64157219D01*
X111999413Y-64158769D01*
X111999415Y-64158770D01*
X112028899Y-64163440D01*
X112089262Y-64173000D01*
X112156238Y-64173000D01*
X112216601Y-64163440D01*
X112246085Y-64158770D01*
X112246087Y-64158769D01*
X112255876Y-64157219D01*
X112375970Y-64096028D01*
X112471278Y-64000720D01*
X112532469Y-63880626D01*
X112535661Y-63860477D01*
X112552003Y-63757293D01*
X112553554Y-63747500D01*
X112532469Y-63614374D01*
X112471278Y-63494280D01*
X112375970Y-63398972D01*
X112255876Y-63337781D01*
X112246087Y-63336231D01*
X112246085Y-63336230D01*
X112216601Y-63331560D01*
X112156238Y-63322000D01*
X112089262Y-63322000D01*
X112028899Y-63331560D01*
X111999415Y-63336230D01*
X111999413Y-63336231D01*
X111989624Y-63337781D01*
X111869530Y-63398972D01*
X111774222Y-63494280D01*
X111713031Y-63614374D01*
X111691946Y-63747500D01*
X111051000Y-63747500D01*
X111051000Y-63600198D01*
X111051082Y-63600000D01*
X111050847Y-63599433D01*
X111050765Y-63599235D01*
X111050567Y-63599153D01*
X109587905Y-62136491D01*
X109553879Y-62074179D01*
X109551000Y-62047396D01*
X109551000Y-61037921D01*
X135695619Y-61037921D01*
X135697371Y-61046351D01*
X135697371Y-61046354D01*
X135724655Y-61177651D01*
X135726408Y-61186085D01*
X135796029Y-61320447D01*
X135899320Y-61431044D01*
X135954813Y-61464790D01*
X136021255Y-61505195D01*
X136021258Y-61505196D01*
X136028618Y-61509672D01*
X136174335Y-61550500D01*
X136287658Y-61550500D01*
X136341350Y-61543120D01*
X136391374Y-61536245D01*
X136391377Y-61536244D01*
X136399920Y-61535070D01*
X136458391Y-61509672D01*
X136530813Y-61478215D01*
X136530816Y-61478213D01*
X136538720Y-61474780D01*
X136545404Y-61469342D01*
X136545406Y-61469341D01*
X136600258Y-61424715D01*
X136656108Y-61379278D01*
X136743377Y-61255647D01*
X136768100Y-61186085D01*
X136791168Y-61121177D01*
X136791168Y-61121176D01*
X136794054Y-61113056D01*
X136804381Y-60962079D01*
X136787081Y-60878823D01*
X136775345Y-60822349D01*
X136775344Y-60822346D01*
X136773592Y-60813915D01*
X136703971Y-60679553D01*
X136600680Y-60568956D01*
X136515076Y-60516899D01*
X136478745Y-60494805D01*
X136478742Y-60494804D01*
X136471382Y-60490328D01*
X136325665Y-60449500D01*
X136212342Y-60449500D01*
X136158650Y-60456880D01*
X136108626Y-60463755D01*
X136108623Y-60463756D01*
X136100080Y-60464930D01*
X136046961Y-60488003D01*
X135969187Y-60521785D01*
X135969184Y-60521787D01*
X135961280Y-60525220D01*
X135954596Y-60530658D01*
X135954594Y-60530659D01*
X135931018Y-60549840D01*
X135843892Y-60620722D01*
X135756623Y-60744353D01*
X135753739Y-60752469D01*
X135753737Y-60752472D01*
X135720666Y-60845525D01*
X135705946Y-60886944D01*
X135695619Y-61037921D01*
X109551000Y-61037921D01*
X109551000Y-60976000D01*
X109571002Y-60907879D01*
X109624658Y-60861386D01*
X109677000Y-60850000D01*
X135000000Y-60850000D01*
X135085590Y-55415016D01*
X135106662Y-55347219D01*
X135161043Y-55301576D01*
X135211574Y-55291000D01*
X142643568Y-55291000D01*
X142711689Y-55311002D01*
G37*
%TD.AperFunction*%
%TA.AperFunction,Conductor*%
G36*
X143291121Y-82120002D02*
G01*
X143337614Y-82173658D01*
X143349000Y-82226000D01*
X143349000Y-84123000D01*
X143328998Y-84191121D01*
X143275342Y-84237614D01*
X143223000Y-84249000D01*
X139150198Y-84249000D01*
X139150000Y-84248918D01*
X139149802Y-84249000D01*
X139149235Y-84249235D01*
X139148918Y-84250000D01*
X139149000Y-84250198D01*
X139149000Y-84255980D01*
X139130093Y-84271223D01*
X139064507Y-84298406D01*
X138994636Y-84285816D01*
X138942663Y-84237448D01*
X138925011Y-84173131D01*
X138925011Y-83150000D01*
X142219196Y-83150000D01*
X142220747Y-83159793D01*
X142228736Y-83210231D01*
X142240281Y-83283126D01*
X142301472Y-83403220D01*
X142396780Y-83498528D01*
X142516874Y-83559719D01*
X142526663Y-83561269D01*
X142526665Y-83561270D01*
X142640207Y-83579253D01*
X142650000Y-83580804D01*
X142659793Y-83579253D01*
X142773335Y-83561270D01*
X142773337Y-83561269D01*
X142783126Y-83559719D01*
X142903220Y-83498528D01*
X142998528Y-83403220D01*
X143059719Y-83283126D01*
X143071265Y-83210231D01*
X143079253Y-83159793D01*
X143080804Y-83150000D01*
X143074850Y-83112405D01*
X143061270Y-83026665D01*
X143061269Y-83026663D01*
X143059719Y-83016874D01*
X142998528Y-82896780D01*
X142903220Y-82801472D01*
X142783126Y-82740281D01*
X142773337Y-82738731D01*
X142773335Y-82738730D01*
X142659793Y-82720747D01*
X142650000Y-82719196D01*
X142640207Y-82720747D01*
X142526665Y-82738730D01*
X142526663Y-82738731D01*
X142516874Y-82740281D01*
X142396780Y-82801472D01*
X142301472Y-82896780D01*
X142240281Y-83016874D01*
X142238731Y-83026663D01*
X142238730Y-83026665D01*
X142225150Y-83112405D01*
X142219196Y-83150000D01*
X138925011Y-83150000D01*
X138925011Y-82489054D01*
X138927432Y-82464474D01*
X138927987Y-82461684D01*
X138927987Y-82461682D01*
X138930408Y-82449511D01*
X138922809Y-82411308D01*
X138909026Y-82342016D01*
X138878279Y-82296001D01*
X138857065Y-82228250D01*
X138875848Y-82159783D01*
X138928665Y-82112339D01*
X138983045Y-82100000D01*
X143223000Y-82100000D01*
X143291121Y-82120002D01*
G37*
%TD.AperFunction*%
%TA.AperFunction,Conductor*%
G36*
X135789540Y-78785572D02*
G01*
X135984387Y-78980419D01*
X136018413Y-79042731D01*
X136021292Y-79069514D01*
X136021292Y-80163665D01*
X136018871Y-80188247D01*
X136015895Y-80203208D01*
X136021292Y-80230340D01*
X136021292Y-80230341D01*
X136037277Y-80310703D01*
X136098168Y-80401832D01*
X136108484Y-80408725D01*
X136108485Y-80408726D01*
X136110856Y-80410310D01*
X136129948Y-80425980D01*
X137945502Y-82241534D01*
X137979528Y-82303846D01*
X137974463Y-82374661D01*
X137931916Y-82431497D01*
X137913613Y-82442894D01*
X137905616Y-82446969D01*
X137905612Y-82446972D01*
X137896780Y-82451472D01*
X137860657Y-82487595D01*
X137798345Y-82521621D01*
X137771562Y-82524500D01*
X134109890Y-82524500D01*
X134041769Y-82504498D01*
X134020795Y-82487595D01*
X131728140Y-80194940D01*
X131694114Y-80132628D01*
X131699179Y-80061813D01*
X131743173Y-80003909D01*
X131744379Y-80003033D01*
X131753220Y-79998528D01*
X131848528Y-79903220D01*
X131909719Y-79783126D01*
X131930804Y-79650000D01*
X131932844Y-79650323D01*
X131949255Y-79594432D01*
X131966158Y-79573458D01*
X132677211Y-78862405D01*
X132739523Y-78828379D01*
X132766306Y-78825500D01*
X134871562Y-78825500D01*
X134939683Y-78845502D01*
X134960657Y-78862405D01*
X134996780Y-78898528D01*
X135116874Y-78959719D01*
X135126663Y-78961269D01*
X135126665Y-78961270D01*
X135240207Y-78979253D01*
X135250000Y-78980804D01*
X135259793Y-78979253D01*
X135373335Y-78961270D01*
X135373337Y-78961269D01*
X135383126Y-78959719D01*
X135503220Y-78898528D01*
X135598528Y-78803220D01*
X135600734Y-78798890D01*
X135654731Y-78757252D01*
X135725467Y-78751177D01*
X135789540Y-78785572D01*
G37*
%TD.AperFunction*%
%TA.AperFunction,Conductor*%
G36*
X139067032Y-71076750D02*
G01*
X139123868Y-71119297D01*
X139148679Y-71185817D01*
X139149000Y-71194806D01*
X139149000Y-73620919D01*
X139128998Y-73689040D01*
X139075342Y-73735533D01*
X139005068Y-73745637D01*
X138989006Y-73742247D01*
X138965042Y-73735533D01*
X138925665Y-73724500D01*
X138812342Y-73724500D01*
X138758650Y-73731880D01*
X138708626Y-73738755D01*
X138708623Y-73738756D01*
X138700080Y-73739930D01*
X138654351Y-73759793D01*
X138569187Y-73796785D01*
X138569184Y-73796787D01*
X138561280Y-73800220D01*
X138554596Y-73805658D01*
X138554594Y-73805659D01*
X138513024Y-73839479D01*
X138443892Y-73895722D01*
X138356623Y-74019353D01*
X138353739Y-74027469D01*
X138353737Y-74027472D01*
X138319030Y-74125128D01*
X138305946Y-74161944D01*
X138298917Y-74264699D01*
X138296283Y-74303220D01*
X138295619Y-74312921D01*
X138297371Y-74321351D01*
X138297371Y-74321354D01*
X138316449Y-74413162D01*
X138326408Y-74461085D01*
X138396029Y-74595447D01*
X138499320Y-74706044D01*
X138562297Y-74744341D01*
X138621255Y-74780195D01*
X138621258Y-74780196D01*
X138628618Y-74784672D01*
X138774335Y-74825500D01*
X138887658Y-74825500D01*
X138999920Y-74810070D01*
X139000192Y-74812049D01*
X139059988Y-74812787D01*
X139119236Y-74851905D01*
X139147929Y-74916845D01*
X139149000Y-74933236D01*
X139149000Y-77474000D01*
X139128998Y-77542121D01*
X139075342Y-77588614D01*
X139023000Y-77600000D01*
X138800000Y-77600000D01*
X138800000Y-81120647D01*
X138779998Y-81188768D01*
X138726342Y-81235261D01*
X138656068Y-81245365D01*
X138616799Y-81232915D01*
X138533126Y-81190281D01*
X138523337Y-81188731D01*
X138523335Y-81188730D01*
X138409793Y-81170747D01*
X138400000Y-81169196D01*
X138390207Y-81170747D01*
X138276665Y-81188730D01*
X138276663Y-81188731D01*
X138266874Y-81190281D01*
X138146780Y-81251472D01*
X138051472Y-81346780D01*
X138046967Y-81355621D01*
X138046091Y-81356827D01*
X137989868Y-81400180D01*
X137919132Y-81406255D01*
X137855060Y-81371860D01*
X136609197Y-80125997D01*
X136575171Y-80063685D01*
X136572292Y-80036902D01*
X136572292Y-79100726D01*
X136592294Y-79032605D01*
X136645950Y-78986112D01*
X136678582Y-78976277D01*
X136773334Y-78961270D01*
X136773335Y-78961270D01*
X136783126Y-78959719D01*
X136903220Y-78898528D01*
X136998528Y-78803220D01*
X137059719Y-78683126D01*
X137064109Y-78655412D01*
X137079253Y-78559793D01*
X137080804Y-78550000D01*
X137059719Y-78416874D01*
X136998528Y-78296780D01*
X136903220Y-78201472D01*
X136783126Y-78140281D01*
X136773335Y-78138730D01*
X136773334Y-78138730D01*
X136681790Y-78124231D01*
X136617636Y-78093819D01*
X136580109Y-78033551D01*
X136575500Y-77999782D01*
X136575500Y-77545953D01*
X136577921Y-77521373D01*
X136578475Y-77518588D01*
X136580896Y-77506416D01*
X136578021Y-77491959D01*
X136575500Y-77479287D01*
X136575500Y-77479283D01*
X136561936Y-77411093D01*
X136559515Y-77398921D01*
X136558261Y-77397044D01*
X136513994Y-77330794D01*
X136513993Y-77330793D01*
X136498624Y-77307792D01*
X136485936Y-77299314D01*
X136466844Y-77283644D01*
X135428140Y-76244940D01*
X135394114Y-76182628D01*
X135399179Y-76111813D01*
X135443173Y-76053909D01*
X135444379Y-76053033D01*
X135453220Y-76048528D01*
X135548528Y-75953220D01*
X135609719Y-75833126D01*
X135619983Y-75768325D01*
X135629253Y-75709793D01*
X135630804Y-75700000D01*
X135629253Y-75690207D01*
X135611270Y-75576665D01*
X135611269Y-75576663D01*
X135609719Y-75566874D01*
X135548528Y-75446780D01*
X135453220Y-75351472D01*
X135333126Y-75290281D01*
X135323337Y-75288731D01*
X135323335Y-75288730D01*
X135209793Y-75270747D01*
X135200000Y-75269196D01*
X135190207Y-75270747D01*
X135071211Y-75289594D01*
X135000800Y-75280494D01*
X134946485Y-75234772D01*
X134925500Y-75165145D01*
X134925500Y-74312921D01*
X135695619Y-74312921D01*
X135697371Y-74321351D01*
X135697371Y-74321354D01*
X135716449Y-74413162D01*
X135726408Y-74461085D01*
X135796029Y-74595447D01*
X135899320Y-74706044D01*
X135962297Y-74744341D01*
X136021255Y-74780195D01*
X136021258Y-74780196D01*
X136028618Y-74784672D01*
X136174335Y-74825500D01*
X136287658Y-74825500D01*
X136341350Y-74818120D01*
X136391374Y-74811245D01*
X136391377Y-74811244D01*
X136399920Y-74810070D01*
X136458391Y-74784672D01*
X136530813Y-74753215D01*
X136530816Y-74753213D01*
X136538720Y-74749780D01*
X136545404Y-74744342D01*
X136545406Y-74744341D01*
X136631400Y-74674379D01*
X136656108Y-74654278D01*
X136743377Y-74530647D01*
X136761092Y-74480804D01*
X136791168Y-74396177D01*
X136791168Y-74396176D01*
X136794054Y-74388056D01*
X136804381Y-74237079D01*
X136800926Y-74220450D01*
X136775345Y-74097349D01*
X136775344Y-74097346D01*
X136773592Y-74088915D01*
X136703971Y-73954553D01*
X136641206Y-73887348D01*
X136606563Y-73850255D01*
X136600680Y-73843956D01*
X136516127Y-73792538D01*
X136478745Y-73769805D01*
X136478742Y-73769804D01*
X136471382Y-73765328D01*
X136325665Y-73724500D01*
X136212342Y-73724500D01*
X136158650Y-73731880D01*
X136108626Y-73738755D01*
X136108623Y-73738756D01*
X136100080Y-73739930D01*
X136054351Y-73759793D01*
X135969187Y-73796785D01*
X135969184Y-73796787D01*
X135961280Y-73800220D01*
X135954596Y-73805658D01*
X135954594Y-73805659D01*
X135913024Y-73839479D01*
X135843892Y-73895722D01*
X135756623Y-74019353D01*
X135753739Y-74027469D01*
X135753737Y-74027472D01*
X135719030Y-74125128D01*
X135705946Y-74161944D01*
X135698917Y-74264699D01*
X135696283Y-74303220D01*
X135695619Y-74312921D01*
X134925500Y-74312921D01*
X134925500Y-72389543D01*
X134927921Y-72364961D01*
X134928476Y-72362171D01*
X134930897Y-72350000D01*
X134927921Y-72335037D01*
X134925500Y-72310457D01*
X134925500Y-72215341D01*
X134945502Y-72147220D01*
X134986972Y-72109701D01*
X134986360Y-72108859D01*
X134994194Y-72103167D01*
X134994296Y-72103075D01*
X135003220Y-72098528D01*
X135098528Y-72003220D01*
X135159719Y-71883126D01*
X135180804Y-71750000D01*
X135178660Y-71736460D01*
X135168325Y-71671211D01*
X135177425Y-71600800D01*
X135223147Y-71546486D01*
X135292774Y-71525500D01*
X138360457Y-71525500D01*
X138385039Y-71527921D01*
X138400000Y-71530897D01*
X138427132Y-71525500D01*
X138427133Y-71525500D01*
X138507495Y-71509515D01*
X138517812Y-71502621D01*
X138517815Y-71502620D01*
X138559896Y-71474502D01*
X138559898Y-71474500D01*
X138575622Y-71463994D01*
X138575623Y-71463993D01*
X138588311Y-71455515D01*
X138598624Y-71448624D01*
X138607102Y-71435936D01*
X138622772Y-71416844D01*
X138933905Y-71105711D01*
X138996217Y-71071685D01*
X139067032Y-71076750D01*
G37*
%TD.AperFunction*%
%TA.AperFunction,Conductor*%
G36*
X134316621Y-72695502D02*
G01*
X134363114Y-72749158D01*
X134374500Y-72801500D01*
X134374500Y-74080694D01*
X134354498Y-74148815D01*
X134300842Y-74195308D01*
X134230568Y-74205412D01*
X134165988Y-74175918D01*
X134159405Y-74169789D01*
X132950247Y-72960631D01*
X132916221Y-72898319D01*
X132921286Y-72827504D01*
X132963833Y-72770668D01*
X132982140Y-72759269D01*
X132994386Y-72753030D01*
X132994390Y-72753027D01*
X133003220Y-72748528D01*
X133039343Y-72712405D01*
X133101655Y-72678379D01*
X133128438Y-72675500D01*
X134248500Y-72675500D01*
X134316621Y-72695502D01*
G37*
%TD.AperFunction*%
%TA.AperFunction,Conductor*%
G36*
X134275347Y-71545502D02*
G01*
X134321840Y-71599158D01*
X134331675Y-71671211D01*
X134321341Y-71736460D01*
X134319196Y-71750000D01*
X134340281Y-71883126D01*
X134344782Y-71891959D01*
X134360767Y-71923332D01*
X134374500Y-71980535D01*
X134374500Y-71998500D01*
X134354498Y-72066621D01*
X134300842Y-72113114D01*
X134248500Y-72124500D01*
X133242346Y-72124500D01*
X133174225Y-72104498D01*
X133127732Y-72050842D01*
X133117628Y-71980568D01*
X133130079Y-71941297D01*
X133155218Y-71891959D01*
X133159719Y-71883126D01*
X133180804Y-71750000D01*
X133178660Y-71736460D01*
X133168325Y-71671211D01*
X133177425Y-71600800D01*
X133223147Y-71546486D01*
X133292774Y-71525500D01*
X134207226Y-71525500D01*
X134275347Y-71545502D01*
G37*
%TD.AperFunction*%
%TA.AperFunction,Conductor*%
G36*
X143291121Y-67670002D02*
G01*
X143337614Y-67723658D01*
X143349000Y-67776000D01*
X143349000Y-70843000D01*
X143328998Y-70911121D01*
X143275342Y-70957614D01*
X143223000Y-70969000D01*
X141524806Y-70969000D01*
X141456685Y-70948998D01*
X141410192Y-70895342D01*
X141400088Y-70825068D01*
X141429582Y-70760488D01*
X141435711Y-70753905D01*
X141926619Y-70262997D01*
X141988931Y-70228971D01*
X142059746Y-70234036D01*
X142116582Y-70276583D01*
X142132753Y-70314847D01*
X142135665Y-70313901D01*
X142138730Y-70323334D01*
X142140281Y-70333126D01*
X142201472Y-70453220D01*
X142296780Y-70548528D01*
X142416874Y-70609719D01*
X142426663Y-70611269D01*
X142426665Y-70611270D01*
X142540207Y-70629253D01*
X142550000Y-70630804D01*
X142559793Y-70629253D01*
X142673335Y-70611270D01*
X142673337Y-70611269D01*
X142683126Y-70609719D01*
X142803220Y-70548528D01*
X142898528Y-70453220D01*
X142959719Y-70333126D01*
X142968675Y-70276583D01*
X142979253Y-70209793D01*
X142980804Y-70200000D01*
X142972885Y-70149999D01*
X142961270Y-70076665D01*
X142961269Y-70076663D01*
X142959719Y-70066874D01*
X142898528Y-69946780D01*
X142803220Y-69851472D01*
X142683126Y-69790281D01*
X142673337Y-69788731D01*
X142673335Y-69788730D01*
X142559793Y-69770747D01*
X142550000Y-69769196D01*
X142540207Y-69770747D01*
X142421211Y-69789594D01*
X142350800Y-69780494D01*
X142296485Y-69734772D01*
X142275500Y-69665145D01*
X142275500Y-67776000D01*
X142295502Y-67707879D01*
X142349158Y-67661386D01*
X142401500Y-67650000D01*
X143223000Y-67650000D01*
X143291121Y-67670002D01*
G37*
%TD.AperFunction*%
%TA.AperFunction,Conductor*%
G36*
X127797133Y-69596472D02*
G01*
X127843626Y-69650128D01*
X127853730Y-69720402D01*
X127824236Y-69784982D01*
X127818107Y-69791565D01*
X127471597Y-70138075D01*
X127409285Y-70172101D01*
X127382502Y-70174980D01*
X126166786Y-70174980D01*
X126098665Y-70154978D01*
X126077691Y-70138075D01*
X125866158Y-69926542D01*
X125832132Y-69864230D01*
X125830684Y-69850759D01*
X125830804Y-69850000D01*
X125822885Y-69800000D01*
X125816789Y-69761510D01*
X125825889Y-69691099D01*
X125871611Y-69636785D01*
X125916657Y-69618221D01*
X125957967Y-69610004D01*
X125976375Y-69597704D01*
X126046376Y-69576470D01*
X127729012Y-69576470D01*
X127797133Y-69596472D01*
G37*
%TD.AperFunction*%
%TA.AperFunction,Conductor*%
G36*
X121394032Y-65561882D02*
G01*
X121431534Y-65585984D01*
X121431748Y-65585689D01*
X121436900Y-65589432D01*
X121439095Y-65590843D01*
X121446780Y-65598528D01*
X121566874Y-65659719D01*
X121576663Y-65661269D01*
X121576665Y-65661270D01*
X121690207Y-65679253D01*
X121700000Y-65680804D01*
X121709793Y-65679253D01*
X121823335Y-65661270D01*
X121823337Y-65661269D01*
X121833126Y-65659719D01*
X121953220Y-65598528D01*
X121954890Y-65596858D01*
X122017806Y-65574410D01*
X122086957Y-65590489D01*
X122091949Y-65593697D01*
X122096780Y-65598528D01*
X122149225Y-65625250D01*
X122178580Y-65640207D01*
X122216874Y-65659719D01*
X122226665Y-65661270D01*
X122226666Y-65661270D01*
X122291472Y-65671534D01*
X122355625Y-65701946D01*
X122360856Y-65706888D01*
X122570324Y-65916356D01*
X122585991Y-65935445D01*
X122594471Y-65948135D01*
X122617472Y-65963504D01*
X122617473Y-65963505D01*
X122636875Y-65976469D01*
X122685600Y-66009026D01*
X122765962Y-66025011D01*
X122780923Y-66027987D01*
X122780924Y-66027987D01*
X122793095Y-66030408D01*
X122808056Y-66027432D01*
X122832638Y-66025011D01*
X123583694Y-66025011D01*
X123651815Y-66045013D01*
X123672789Y-66061916D01*
X124088564Y-66477691D01*
X124122590Y-66540003D01*
X124125469Y-66566786D01*
X124125470Y-66862139D01*
X124123049Y-66886721D01*
X124120073Y-66901682D01*
X124125470Y-66928814D01*
X124125470Y-66928816D01*
X124141455Y-67009178D01*
X124148348Y-67019494D01*
X124175276Y-67059793D01*
X124202346Y-67100306D01*
X124215032Y-67108782D01*
X124234123Y-67124451D01*
X125304608Y-68194936D01*
X125338634Y-68257248D01*
X125333569Y-68328063D01*
X125291022Y-68384899D01*
X125272717Y-68396297D01*
X125249668Y-68408041D01*
X125171304Y-68447969D01*
X125171302Y-68447970D01*
X125162469Y-68452471D01*
X125067161Y-68547779D01*
X125005970Y-68667873D01*
X125004420Y-68677662D01*
X125004419Y-68677664D01*
X124999261Y-68710231D01*
X124984885Y-68800999D01*
X125005970Y-68934125D01*
X125010470Y-68942957D01*
X125010472Y-68942963D01*
X125035179Y-68991452D01*
X125048284Y-69061228D01*
X125021584Y-69127013D01*
X125012008Y-69137750D01*
X125004784Y-69144974D01*
X124994471Y-69151865D01*
X124987580Y-69162178D01*
X124985993Y-69164553D01*
X124970323Y-69183645D01*
X124715884Y-69438084D01*
X124653572Y-69472110D01*
X124626789Y-69474989D01*
X120866543Y-69474989D01*
X120798422Y-69454987D01*
X120754276Y-69406192D01*
X120703028Y-69305612D01*
X120698528Y-69296780D01*
X120615843Y-69214095D01*
X120581817Y-69151783D01*
X120586882Y-69080968D01*
X120615843Y-69035905D01*
X120698528Y-68953220D01*
X120759719Y-68833126D01*
X120763257Y-68810792D01*
X120779253Y-68709793D01*
X120780804Y-68700000D01*
X120759719Y-68566874D01*
X120698528Y-68446780D01*
X120696858Y-68445110D01*
X120674410Y-68382194D01*
X120690489Y-68313043D01*
X120693697Y-68308051D01*
X120698528Y-68303220D01*
X120759719Y-68183126D01*
X120769845Y-68119196D01*
X120779253Y-68059793D01*
X120780804Y-68050000D01*
X120763175Y-67938692D01*
X120761270Y-67926665D01*
X120761269Y-67926663D01*
X120759719Y-67916874D01*
X120698528Y-67796780D01*
X120603220Y-67701472D01*
X120526276Y-67662267D01*
X120474661Y-67613519D01*
X120457595Y-67544604D01*
X120480496Y-67477402D01*
X120526276Y-67437733D01*
X120594388Y-67403028D01*
X120594387Y-67403028D01*
X120603220Y-67398528D01*
X120698528Y-67303220D01*
X120759719Y-67183126D01*
X120780804Y-67050000D01*
X120775310Y-67015314D01*
X120761270Y-66926665D01*
X120761269Y-66926663D01*
X120759719Y-66916874D01*
X120698528Y-66796780D01*
X120603220Y-66701472D01*
X120594385Y-66696971D01*
X120591972Y-66695217D01*
X120548620Y-66638993D01*
X120542546Y-66568257D01*
X120552049Y-66545434D01*
X120551887Y-66545380D01*
X120551888Y-66545377D01*
X120553121Y-66542859D01*
X120561276Y-66523274D01*
X120566655Y-66515225D01*
X120566657Y-66515221D01*
X120602619Y-66461400D01*
X120602619Y-66461399D01*
X120609515Y-66451079D01*
X120615222Y-66422386D01*
X120625498Y-66370730D01*
X120625501Y-66370706D01*
X120627687Y-66359719D01*
X120630896Y-66343584D01*
X120627921Y-66328627D01*
X120625500Y-66304047D01*
X120625500Y-66128438D01*
X120645502Y-66060317D01*
X120662405Y-66039343D01*
X120698528Y-66003220D01*
X120759719Y-65883126D01*
X120761762Y-65870228D01*
X120777149Y-65773079D01*
X120807562Y-65708926D01*
X120867830Y-65671399D01*
X120921308Y-65668341D01*
X120990206Y-65679253D01*
X120990207Y-65679253D01*
X121000000Y-65680804D01*
X121009793Y-65679253D01*
X121123335Y-65661270D01*
X121123337Y-65661269D01*
X121133126Y-65659719D01*
X121253220Y-65598528D01*
X121260905Y-65590843D01*
X121261925Y-65590286D01*
X121268252Y-65585689D01*
X121268846Y-65586507D01*
X121323217Y-65556817D01*
X121394032Y-65561882D01*
G37*
%TD.AperFunction*%
%TA.AperFunction,Conductor*%
G36*
X139834012Y-67629393D02*
G01*
X139850000Y-67643247D01*
X139850000Y-67650000D01*
X140794062Y-67650000D01*
X140862183Y-67670002D01*
X140908676Y-67723658D01*
X140918780Y-67793932D01*
X140889286Y-67858512D01*
X140883157Y-67865095D01*
X140851472Y-67896780D01*
X140790281Y-68016874D01*
X140788731Y-68026663D01*
X140788730Y-68026665D01*
X140785861Y-68044782D01*
X140769196Y-68150000D01*
X140770747Y-68159793D01*
X140776636Y-68196972D01*
X140790281Y-68283126D01*
X140851472Y-68403220D01*
X140887595Y-68439343D01*
X140921621Y-68501655D01*
X140924500Y-68528438D01*
X140924500Y-68977278D01*
X140904498Y-69045399D01*
X140887595Y-69066373D01*
X140697644Y-69256324D01*
X140635332Y-69290350D01*
X140564517Y-69285285D01*
X140507681Y-69242738D01*
X140496282Y-69224431D01*
X140458948Y-69151157D01*
X140458945Y-69151153D01*
X140454446Y-69142323D01*
X140359138Y-69047015D01*
X140239044Y-68985824D01*
X140229251Y-68984273D01*
X140227220Y-68983613D01*
X140168615Y-68943538D01*
X140140979Y-68878141D01*
X140153087Y-68808184D01*
X140177063Y-68774685D01*
X140248528Y-68703220D01*
X140309719Y-68583126D01*
X140315318Y-68547779D01*
X140329253Y-68459793D01*
X140330804Y-68450000D01*
X140322652Y-68398528D01*
X140311270Y-68326665D01*
X140311269Y-68326663D01*
X140309719Y-68316874D01*
X140248528Y-68196780D01*
X140153220Y-68101472D01*
X140033126Y-68040281D01*
X140023337Y-68038731D01*
X140023335Y-68038730D01*
X139909793Y-68020747D01*
X139900000Y-68019196D01*
X139890207Y-68020747D01*
X139771211Y-68039594D01*
X139700800Y-68030494D01*
X139646485Y-67984772D01*
X139625500Y-67915145D01*
X139625500Y-67724618D01*
X139645502Y-67656497D01*
X139699158Y-67610004D01*
X139769432Y-67599900D01*
X139834012Y-67629393D01*
G37*
%TD.AperFunction*%
%TA.AperFunction,Conductor*%
G36*
X139789683Y-64945502D02*
G01*
X139810657Y-64962405D01*
X139813095Y-64964843D01*
X139847121Y-65027155D01*
X139850000Y-65053938D01*
X139850000Y-65208194D01*
X139829998Y-65276315D01*
X139813095Y-65297289D01*
X139514095Y-65596289D01*
X139451783Y-65630315D01*
X139380968Y-65625250D01*
X139335905Y-65596289D01*
X139212894Y-65473278D01*
X139178868Y-65410966D01*
X139175989Y-65384183D01*
X139175989Y-65051500D01*
X139195991Y-64983379D01*
X139249647Y-64936886D01*
X139301989Y-64925500D01*
X139721562Y-64925500D01*
X139789683Y-64945502D01*
G37*
%TD.AperFunction*%
%TA.AperFunction,Conductor*%
G36*
X138516968Y-61441776D02*
G01*
X138621255Y-61505195D01*
X138621258Y-61505196D01*
X138628618Y-61509672D01*
X138774335Y-61550500D01*
X138887658Y-61550500D01*
X138999920Y-61535070D01*
X139000192Y-61537049D01*
X139059988Y-61537787D01*
X139119236Y-61576905D01*
X139147929Y-61641845D01*
X139149000Y-61658236D01*
X139149000Y-64055194D01*
X139128998Y-64123315D01*
X139075342Y-64169808D01*
X139005068Y-64179912D01*
X138940488Y-64150418D01*
X138933905Y-64144289D01*
X138362405Y-63572789D01*
X138328379Y-63510477D01*
X138325500Y-63483694D01*
X138325500Y-61549433D01*
X138345502Y-61481312D01*
X138399158Y-61434819D01*
X138469432Y-61424715D01*
X138516968Y-61441776D01*
G37*
%TD.AperFunction*%
%TA.AperFunction,Conductor*%
G36*
X140325347Y-56995502D02*
G01*
X140371840Y-57049158D01*
X140381675Y-57121211D01*
X140369196Y-57200000D01*
X140390281Y-57333126D01*
X140451472Y-57453220D01*
X140472157Y-57473905D01*
X140506183Y-57536217D01*
X140501118Y-57607032D01*
X140458571Y-57663868D01*
X140392051Y-57688679D01*
X140383062Y-57689000D01*
X139150198Y-57689000D01*
X139150000Y-57688918D01*
X139149802Y-57689000D01*
X139149235Y-57689235D01*
X139148918Y-57690000D01*
X139149000Y-57690198D01*
X139149000Y-60345919D01*
X139128998Y-60414040D01*
X139075342Y-60460533D01*
X139005068Y-60470637D01*
X138989006Y-60467247D01*
X138965042Y-60460533D01*
X138925665Y-60449500D01*
X138812342Y-60449500D01*
X138758650Y-60456880D01*
X138708626Y-60463755D01*
X138708623Y-60463756D01*
X138700080Y-60464930D01*
X138646961Y-60488003D01*
X138569187Y-60521785D01*
X138569184Y-60521787D01*
X138561280Y-60525220D01*
X138544656Y-60538745D01*
X138531018Y-60549840D01*
X138465553Y-60577315D01*
X138395626Y-60565035D01*
X138343439Y-60516899D01*
X138325500Y-60452101D01*
X138325500Y-58216306D01*
X138345502Y-58148185D01*
X138362405Y-58127211D01*
X138950987Y-57538629D01*
X138964711Y-57531135D01*
X138966402Y-57526051D01*
X138980822Y-57508794D01*
X139412031Y-57077585D01*
X139474343Y-57043559D01*
X139545158Y-57048624D01*
X139558328Y-57054413D01*
X139655222Y-57103782D01*
X139666874Y-57109719D01*
X139676663Y-57111269D01*
X139676665Y-57111270D01*
X139790207Y-57129253D01*
X139800000Y-57130804D01*
X139809793Y-57129253D01*
X139923335Y-57111270D01*
X139923337Y-57111269D01*
X139933126Y-57109719D01*
X140053220Y-57048528D01*
X140089343Y-57012405D01*
X140151655Y-56978379D01*
X140178438Y-56975500D01*
X140257226Y-56975500D01*
X140325347Y-56995502D01*
G37*
%TD.AperFunction*%
%TA.AperFunction,Conductor*%
G36*
X143267032Y-56188882D02*
G01*
X143323868Y-56231429D01*
X143348679Y-56297949D01*
X143349000Y-56306938D01*
X143349000Y-57563000D01*
X143328998Y-57631121D01*
X143275342Y-57677614D01*
X143223000Y-57689000D01*
X141216938Y-57689000D01*
X141148817Y-57668998D01*
X141102324Y-57615342D01*
X141092220Y-57545068D01*
X141121714Y-57480488D01*
X141127843Y-57473905D01*
X141148528Y-57453220D01*
X141209719Y-57333126D01*
X141230804Y-57200000D01*
X141218325Y-57121211D01*
X141227425Y-57050800D01*
X141273147Y-56996486D01*
X141342774Y-56975500D01*
X141710457Y-56975500D01*
X141735039Y-56977921D01*
X141750000Y-56980897D01*
X141777132Y-56975500D01*
X141777133Y-56975500D01*
X141857495Y-56959515D01*
X141888105Y-56939062D01*
X141899465Y-56931471D01*
X141899465Y-56931472D01*
X141899468Y-56931469D01*
X141925622Y-56913994D01*
X141928189Y-56917835D01*
X141928192Y-56917833D01*
X141925625Y-56913992D01*
X141945837Y-56900487D01*
X142000492Y-56883908D01*
X142000000Y-56880804D01*
X142123335Y-56861270D01*
X142123337Y-56861269D01*
X142133126Y-56859719D01*
X142253220Y-56798528D01*
X142348528Y-56703220D01*
X142409719Y-56583126D01*
X142430804Y-56450000D01*
X142429670Y-56442839D01*
X142449255Y-56376138D01*
X142502911Y-56329645D01*
X142573185Y-56319541D01*
X142612455Y-56331992D01*
X142650688Y-56351472D01*
X142666874Y-56359719D01*
X142676663Y-56361269D01*
X142676665Y-56361270D01*
X142790207Y-56379253D01*
X142800000Y-56380804D01*
X142809793Y-56379253D01*
X142923335Y-56361270D01*
X142923337Y-56361269D01*
X142933126Y-56359719D01*
X143053220Y-56298528D01*
X143133905Y-56217843D01*
X143196217Y-56183817D01*
X143267032Y-56188882D01*
G37*
%TD.AperFunction*%
%TD*%
M02*
