%TF.GenerationSoftware,KiCad,Pcbnew,(6.99.0-1793-ga56955443f)*%
%TF.CreationDate,2022-09-01T09:47:35+01:00*%
%TF.ProjectId,Watchy-MrT-ESP32-S3-V1,57617463-6879-42d4-9d72-542d45535033,rev?*%
%TF.SameCoordinates,Original*%
%TF.FileFunction,Copper,L2,Inr*%
%TF.FilePolarity,Positive*%
%FSLAX46Y46*%
G04 Gerber Fmt 4.6, Leading zero omitted, Abs format (unit mm)*
G04 Created by KiCad (PCBNEW (6.99.0-1793-ga56955443f)) date 2022-09-01 09:47:35*
%MOMM*%
%LPD*%
G01*
G04 APERTURE LIST*
%TA.AperFunction,ViaPad*%
%ADD10C,0.600000*%
%TD*%
%TA.AperFunction,ViaPad*%
%ADD11C,0.450000*%
%TD*%
%TA.AperFunction,Conductor*%
%ADD12C,0.150000*%
%TD*%
G04 APERTURE END LIST*
D10*
%TO.N,GND*%
X113600000Y-67400000D03*
X127800000Y-91000000D03*
X140800000Y-55600000D03*
X136200000Y-91600000D03*
X111800000Y-71000000D03*
X119400000Y-86800000D03*
X127400000Y-61800000D03*
X113000000Y-92800000D03*
X122600000Y-91600000D03*
X111800000Y-61200000D03*
X132600000Y-91000000D03*
X128200000Y-91600000D03*
X128600000Y-87400000D03*
X114400000Y-72200000D03*
X131400000Y-89200000D03*
X134600000Y-84400000D03*
X127000000Y-86200000D03*
X137800000Y-92800000D03*
X130200000Y-91000000D03*
D11*
X122700000Y-68700000D03*
D10*
X116200000Y-89200000D03*
X111200000Y-74600000D03*
X127400000Y-86800000D03*
X131800000Y-83800000D03*
X131000000Y-81400000D03*
X110000000Y-84800000D03*
X113600000Y-70600000D03*
D11*
X121600000Y-69250000D03*
X122700000Y-67050000D03*
X121600000Y-68700000D03*
D10*
X119400000Y-89200000D03*
X110600000Y-79000000D03*
X131800000Y-88600000D03*
X120200000Y-89200000D03*
X125400000Y-92200000D03*
X135000000Y-88600000D03*
X117400000Y-83800000D03*
X127800000Y-89800000D03*
X113000000Y-67000000D03*
X132600000Y-83800000D03*
X131600000Y-71800000D03*
X133800000Y-88000000D03*
X127800000Y-85000000D03*
X130600000Y-61800000D03*
X122200000Y-83800000D03*
X134000000Y-77800000D03*
X132200000Y-61800000D03*
X133400000Y-62400000D03*
X141000000Y-91600000D03*
X131800000Y-86200000D03*
X119000000Y-83800000D03*
X142200000Y-92200000D03*
X127800000Y-92200000D03*
D11*
X121050000Y-65950000D03*
D10*
X113600000Y-69000000D03*
X136200000Y-92800000D03*
X132600000Y-88600000D03*
X111800000Y-71800000D03*
D11*
X140750000Y-67100000D03*
D10*
X115200000Y-78400000D03*
X115000000Y-61200000D03*
X131400000Y-90400000D03*
X127400000Y-85600000D03*
X113600000Y-72200000D03*
X126600000Y-89200000D03*
X131000000Y-89800000D03*
X122600000Y-88000000D03*
X111200000Y-68200000D03*
X110000000Y-73800000D03*
X134600000Y-85600000D03*
X128600000Y-89800000D03*
D11*
X123800000Y-68700000D03*
D10*
X134200000Y-83800000D03*
X131000000Y-71800000D03*
X130600000Y-85600000D03*
X119800000Y-91000000D03*
D11*
X120800000Y-74800000D03*
D10*
X129800000Y-82000000D03*
X132600000Y-89800000D03*
X123400000Y-86800000D03*
X136000000Y-56800000D03*
X132200000Y-82000000D03*
D11*
X122150000Y-68700000D03*
D10*
X121400000Y-87400000D03*
X130200000Y-61200000D03*
X125000000Y-89200000D03*
X122200000Y-88600000D03*
D11*
X140500000Y-65750000D03*
D10*
X115800000Y-91000000D03*
X124200000Y-91600000D03*
X133000000Y-74400000D03*
X127000000Y-91000000D03*
X112400000Y-69000000D03*
X110000000Y-69800000D03*
X113000000Y-71000000D03*
X130200000Y-86200000D03*
X113000000Y-64600000D03*
X129000000Y-88000000D03*
D11*
X124350000Y-68150000D03*
X137000000Y-67400000D03*
D10*
X114200000Y-61200000D03*
X142800000Y-57200000D03*
X140400000Y-83800000D03*
D11*
X125000000Y-72800000D03*
D10*
X132200000Y-86800000D03*
X141400000Y-92200000D03*
X128200000Y-86800000D03*
X110800000Y-84800000D03*
X110200000Y-61200000D03*
D11*
X122700000Y-67600000D03*
X122000000Y-74200000D03*
D10*
X122200000Y-91000000D03*
X110600000Y-61800000D03*
X132200000Y-91600000D03*
X125800000Y-90400000D03*
X129200000Y-74000000D03*
X113600000Y-68200000D03*
D11*
X122150000Y-65950000D03*
X132600000Y-73800000D03*
D10*
X110600000Y-73400000D03*
X130600000Y-88000000D03*
X129800000Y-86800000D03*
X129400000Y-87400000D03*
D11*
X140600000Y-68650000D03*
D10*
X130200000Y-81400000D03*
X117800000Y-83200000D03*
X113000000Y-69400000D03*
D11*
X125600000Y-72200000D03*
D10*
X124600000Y-61200000D03*
X135800000Y-86200000D03*
X133000000Y-90400000D03*
D11*
X121600000Y-65950000D03*
D10*
X110600000Y-67000000D03*
X134200000Y-61200000D03*
X127000000Y-92200000D03*
X124200000Y-90400000D03*
X135200000Y-63400000D03*
X110600000Y-70200000D03*
X119800000Y-88600000D03*
X127400000Y-63000000D03*
X110000000Y-80200000D03*
X135400000Y-84400000D03*
X116200000Y-61800000D03*
X134200000Y-89800000D03*
X132800000Y-75000000D03*
X131400000Y-85600000D03*
X126200000Y-88600000D03*
D11*
X115950000Y-64250000D03*
D10*
X134200000Y-88600000D03*
D11*
X121400000Y-74800000D03*
D10*
X118200000Y-62400000D03*
X114400000Y-76200000D03*
X135000000Y-61200000D03*
X123800000Y-89800000D03*
X127000000Y-62400000D03*
D11*
X123250000Y-69250000D03*
D10*
X111800000Y-79000000D03*
D11*
X123250000Y-66500000D03*
D10*
X138200000Y-75000000D03*
X133800000Y-89200000D03*
D11*
X123800000Y-67600000D03*
D10*
X131000000Y-83800000D03*
X129800000Y-61800000D03*
X135400000Y-91600000D03*
D11*
X117850000Y-74800000D03*
D10*
X135400000Y-58800000D03*
X131800000Y-62400000D03*
X129400000Y-86200000D03*
X112400000Y-68200000D03*
X132200000Y-83200000D03*
X110600000Y-78200000D03*
X129000000Y-85600000D03*
X115000000Y-91000000D03*
X126200000Y-87400000D03*
X135400000Y-60400000D03*
X137400000Y-65200000D03*
X113000000Y-61800000D03*
X133000000Y-84400000D03*
X111800000Y-69400000D03*
D11*
X121050000Y-66500000D03*
D10*
X128600000Y-85000000D03*
X116600000Y-62400000D03*
X115800000Y-88600000D03*
X129000000Y-91600000D03*
X115200000Y-80000000D03*
X123000000Y-85000000D03*
X110000000Y-70600000D03*
X128400000Y-75200000D03*
X134200000Y-85000000D03*
D11*
X121600000Y-66500000D03*
D10*
X124200000Y-88000000D03*
X127400000Y-89200000D03*
X111800000Y-79800000D03*
X122600000Y-90400000D03*
X119400000Y-91600000D03*
X118600000Y-91600000D03*
X127000000Y-87400000D03*
X121800000Y-91600000D03*
X130200000Y-87400000D03*
X131000000Y-88600000D03*
X127000000Y-89800000D03*
X136000000Y-60000000D03*
X132600000Y-92200000D03*
X133000000Y-88000000D03*
X122600000Y-89200000D03*
X120600000Y-88600000D03*
X119400000Y-83200000D03*
X138800000Y-76200000D03*
X114200000Y-92200000D03*
X133400000Y-91000000D03*
X113000000Y-67800000D03*
X123000000Y-87400000D03*
X117800000Y-61800000D03*
X135400000Y-55600000D03*
X132200000Y-88000000D03*
X118600000Y-61800000D03*
D11*
X120800000Y-76000000D03*
D10*
X136800000Y-60000000D03*
X111200000Y-79400000D03*
X113000000Y-63800000D03*
D11*
X139400000Y-65200000D03*
D10*
X116600000Y-91000000D03*
X126600000Y-86800000D03*
X124600000Y-88600000D03*
X117400000Y-61200000D03*
X113000000Y-66200000D03*
X129800000Y-85600000D03*
X113800000Y-91600000D03*
X118200000Y-83800000D03*
X115800000Y-89800000D03*
X125800000Y-91600000D03*
X115400000Y-90400000D03*
X111800000Y-78200000D03*
X138800000Y-77000000D03*
X119800000Y-87400000D03*
X123800000Y-88600000D03*
X125400000Y-91000000D03*
X126200000Y-92200000D03*
D11*
X122700000Y-69250000D03*
D10*
X129000000Y-90400000D03*
X128200000Y-88000000D03*
X129400000Y-89800000D03*
X120600000Y-91000000D03*
X127800000Y-61200000D03*
X121800000Y-90400000D03*
X136600000Y-88600000D03*
X134200000Y-87400000D03*
X128600000Y-83800000D03*
X135400000Y-89200000D03*
X133800000Y-91600000D03*
X110000000Y-68200000D03*
X131800000Y-85000000D03*
X135400000Y-57200000D03*
X131400000Y-83200000D03*
X117000000Y-63000000D03*
X133000000Y-83200000D03*
X119800000Y-83800000D03*
X126200000Y-91000000D03*
X130200000Y-85000000D03*
X129800000Y-91600000D03*
X138800000Y-62600000D03*
X137000000Y-86800000D03*
X110000000Y-75400000D03*
X113600000Y-66600000D03*
X143000000Y-92200000D03*
X129600000Y-74600000D03*
X133800000Y-84400000D03*
X142600000Y-92800000D03*
X129400000Y-62400000D03*
X115000000Y-89800000D03*
X125400000Y-89800000D03*
X141800000Y-91600000D03*
X125400000Y-87400000D03*
X123800000Y-61200000D03*
X111400000Y-64600000D03*
X131000000Y-86200000D03*
X121400000Y-88600000D03*
X129400000Y-80200000D03*
X133800000Y-86800000D03*
X127400000Y-91600000D03*
X120200000Y-86800000D03*
X129400000Y-81400000D03*
X114600000Y-80400000D03*
D11*
X121050000Y-68700000D03*
D10*
X121800000Y-89200000D03*
X130600000Y-84400000D03*
X119800000Y-61200000D03*
X131000000Y-62400000D03*
D11*
X123250000Y-67600000D03*
D10*
X110600000Y-71000000D03*
D11*
X134000000Y-71800000D03*
D10*
X128200000Y-85600000D03*
X137000000Y-92800000D03*
X113600000Y-71400000D03*
X114800000Y-69800000D03*
X110600000Y-71800000D03*
X132200000Y-89200000D03*
X117000000Y-61800000D03*
X110600000Y-75000000D03*
X119000000Y-88600000D03*
X110000000Y-76200000D03*
X119400000Y-84400000D03*
X134200000Y-86200000D03*
X133000000Y-61800000D03*
X133400000Y-85000000D03*
X131800000Y-61200000D03*
X115400000Y-71000000D03*
X120800000Y-77400000D03*
X132200000Y-84400000D03*
X134600000Y-88000000D03*
X125000000Y-86800000D03*
D11*
X121600000Y-68150000D03*
X124350000Y-67600000D03*
D10*
X136800000Y-61800000D03*
X133800000Y-90400000D03*
X129800000Y-90400000D03*
X112600000Y-61200000D03*
X131400000Y-91600000D03*
X133400000Y-83800000D03*
X127800000Y-88600000D03*
X130200000Y-92200000D03*
X118200000Y-85000000D03*
X121400000Y-92200000D03*
D11*
X120800000Y-74200000D03*
X121050000Y-69250000D03*
D10*
X134200000Y-91000000D03*
D11*
X122000000Y-74800000D03*
X122150000Y-66500000D03*
X121400000Y-75400000D03*
D10*
X111000000Y-61200000D03*
X119000000Y-85000000D03*
X115000000Y-62400000D03*
X131000000Y-92200000D03*
D11*
X134000000Y-73200000D03*
D10*
X124600000Y-87400000D03*
X111200000Y-69000000D03*
X110000000Y-74600000D03*
X130600000Y-80800000D03*
X111800000Y-74200000D03*
X128600000Y-88600000D03*
X131800000Y-89800000D03*
X119000000Y-87400000D03*
X121000000Y-89200000D03*
X133000000Y-85600000D03*
X110600000Y-69400000D03*
X114600000Y-61800000D03*
X136600000Y-86200000D03*
X116600000Y-88600000D03*
X111200000Y-73000000D03*
X112200000Y-92800000D03*
X129000000Y-86800000D03*
X111800000Y-75000000D03*
X129400000Y-85000000D03*
X117800000Y-84400000D03*
X127400000Y-90400000D03*
X113000000Y-70200000D03*
X123000000Y-88600000D03*
X128600000Y-86200000D03*
X125800000Y-88000000D03*
D11*
X121050000Y-67050000D03*
D10*
X124200000Y-86800000D03*
X111200000Y-78600000D03*
X116600000Y-89800000D03*
X130600000Y-83200000D03*
X114200000Y-69400000D03*
X125000000Y-91600000D03*
D11*
X121050000Y-68150000D03*
D10*
X128400000Y-74000000D03*
X138600000Y-92800000D03*
D11*
X127250000Y-69950000D03*
D10*
X138800000Y-62000000D03*
X110000000Y-73000000D03*
X135400000Y-85600000D03*
X135000000Y-83800000D03*
X111200000Y-70600000D03*
X120200000Y-84400000D03*
X129400000Y-82600000D03*
X119800000Y-85000000D03*
X121000000Y-84400000D03*
X135400000Y-59600000D03*
X135400000Y-82000000D03*
X133000000Y-89200000D03*
X115800000Y-61200000D03*
X136600000Y-55600000D03*
X128200000Y-84400000D03*
X135000000Y-85000000D03*
X129000000Y-84400000D03*
X131000000Y-91000000D03*
X135400000Y-92800000D03*
D11*
X121600000Y-67600000D03*
D10*
X137600000Y-72800000D03*
X131800000Y-82600000D03*
X132600000Y-62400000D03*
X118200000Y-89800000D03*
X123000000Y-61200000D03*
X117400000Y-89800000D03*
X110000000Y-71400000D03*
X137000000Y-73200000D03*
X123800000Y-91000000D03*
X123400000Y-88000000D03*
X138600000Y-88600000D03*
X135400000Y-58000000D03*
X128800000Y-73400000D03*
X113000000Y-72600000D03*
X123400000Y-90400000D03*
X114800000Y-70600000D03*
X111800000Y-68600000D03*
X129800000Y-80800000D03*
X129600000Y-75800000D03*
X135400000Y-90400000D03*
X111200000Y-71400000D03*
X133400000Y-92200000D03*
X110000000Y-72200000D03*
X135200000Y-64200000D03*
X120200000Y-91600000D03*
X138800000Y-75400000D03*
X129800000Y-88000000D03*
X121600000Y-77400000D03*
X126600000Y-61800000D03*
X120000000Y-77600000D03*
D11*
X142450000Y-65950000D03*
D10*
X131800000Y-92200000D03*
D11*
X121050000Y-67600000D03*
D10*
X129800000Y-84400000D03*
X111200000Y-80200000D03*
X132600000Y-85000000D03*
D11*
X122700000Y-68150000D03*
D10*
X119000000Y-78800000D03*
X120600000Y-89800000D03*
X135000000Y-89800000D03*
X129000000Y-61800000D03*
X119000000Y-91000000D03*
X112400000Y-70600000D03*
X113800000Y-92800000D03*
X123800000Y-92200000D03*
X110600000Y-62600000D03*
X110000000Y-79400000D03*
X116600000Y-61200000D03*
X119000000Y-77600000D03*
X110000000Y-78600000D03*
X135000000Y-86200000D03*
X126600000Y-91600000D03*
X124600000Y-92200000D03*
D11*
X120800000Y-75400000D03*
D10*
X114600000Y-78000000D03*
X136400000Y-72800000D03*
X134600000Y-86800000D03*
X121000000Y-88000000D03*
X110600000Y-79800000D03*
D11*
X121600000Y-67050000D03*
D10*
X123000000Y-91000000D03*
X135200000Y-65000000D03*
X140200000Y-92800000D03*
X132200000Y-74600000D03*
X126600000Y-63000000D03*
X122600000Y-84400000D03*
X113600000Y-69800000D03*
X126200000Y-61200000D03*
X141000000Y-92800000D03*
X121400000Y-85000000D03*
X111200000Y-77800000D03*
D11*
X123800000Y-67050000D03*
D10*
X110600000Y-75800000D03*
X123400000Y-89200000D03*
X122200000Y-61200000D03*
X138800000Y-59400000D03*
X121400000Y-89800000D03*
X117800000Y-90400000D03*
X111200000Y-76200000D03*
X110600000Y-72600000D03*
X115200000Y-79200000D03*
X128000000Y-75800000D03*
X139400000Y-92800000D03*
X122200000Y-85000000D03*
D11*
X123800000Y-69250000D03*
D10*
X129400000Y-92200000D03*
X135000000Y-91000000D03*
X133400000Y-61200000D03*
X133400000Y-87400000D03*
X130200000Y-82600000D03*
X114800000Y-69000000D03*
X117400000Y-88600000D03*
X119400000Y-88000000D03*
X111800000Y-73400000D03*
X113000000Y-68600000D03*
X117400000Y-62400000D03*
X133800000Y-61800000D03*
X132600000Y-86200000D03*
D11*
X123250000Y-68150000D03*
D10*
X130600000Y-90400000D03*
X119400000Y-78200000D03*
X114200000Y-70200000D03*
X118600000Y-84400000D03*
X121400000Y-91000000D03*
X131000000Y-82600000D03*
X125000000Y-88000000D03*
X132600000Y-61200000D03*
X123400000Y-85600000D03*
X135400000Y-61800000D03*
X135000000Y-92200000D03*
X122200000Y-87400000D03*
X121400000Y-83800000D03*
X133800000Y-85600000D03*
X119000000Y-89800000D03*
X118600000Y-88000000D03*
X118600000Y-86800000D03*
X129000000Y-82000000D03*
X133400000Y-88600000D03*
X115800000Y-62400000D03*
X123800000Y-87400000D03*
X113800000Y-75600000D03*
X139800000Y-92200000D03*
X126600000Y-90400000D03*
X131000000Y-71200000D03*
X124600000Y-86200000D03*
X129400000Y-88600000D03*
X125800000Y-89200000D03*
X128000000Y-74600000D03*
X129800000Y-89200000D03*
X111800000Y-72600000D03*
X133400000Y-86200000D03*
X117000000Y-89200000D03*
X115400000Y-61800000D03*
X110000000Y-77800000D03*
X118200000Y-91000000D03*
X127000000Y-61200000D03*
X130200000Y-63200000D03*
X134600000Y-89200000D03*
X117800000Y-89200000D03*
X131000000Y-87400000D03*
D11*
X123250000Y-67050000D03*
X122150000Y-67600000D03*
D10*
X120600000Y-83800000D03*
D11*
X137000000Y-68000000D03*
X125000000Y-72200000D03*
D10*
X121000000Y-91600000D03*
X140600000Y-92200000D03*
X115000000Y-88600000D03*
X139400000Y-91600000D03*
X110600000Y-67800000D03*
X112400000Y-71400000D03*
X135800000Y-88600000D03*
X131400000Y-84400000D03*
X134600000Y-61800000D03*
X119000000Y-61200000D03*
X134600000Y-90400000D03*
X125000000Y-90400000D03*
X129400000Y-91000000D03*
X127000000Y-88600000D03*
X114600000Y-91600000D03*
D11*
X124350000Y-68700000D03*
D10*
X119800000Y-92200000D03*
D11*
X116450000Y-64250000D03*
D10*
X127800000Y-86200000D03*
X126200000Y-89800000D03*
D11*
X136400000Y-67600000D03*
D10*
X129800000Y-83200000D03*
X120200000Y-88000000D03*
X132200000Y-85600000D03*
X112400000Y-72200000D03*
X120600000Y-92200000D03*
X141800000Y-92800000D03*
X138200000Y-77400000D03*
X133000000Y-86800000D03*
X123800000Y-86200000D03*
X110600000Y-68600000D03*
X140000000Y-55600000D03*
X130600000Y-82000000D03*
D11*
X122700000Y-66500000D03*
D10*
X118600000Y-90400000D03*
X116200000Y-90400000D03*
X122200000Y-92200000D03*
X119800000Y-78800000D03*
X133400000Y-89800000D03*
D11*
X122000000Y-76000000D03*
D10*
X110000000Y-69000000D03*
X120600000Y-85000000D03*
X132200000Y-90400000D03*
X133600000Y-75000000D03*
X129200000Y-75200000D03*
X114200000Y-68600000D03*
X132600000Y-87400000D03*
X115400000Y-89200000D03*
X123000000Y-89800000D03*
X114600000Y-79600000D03*
X113800000Y-61800000D03*
X111200000Y-77000000D03*
X112200000Y-64600000D03*
X124200000Y-89200000D03*
X136000000Y-56000000D03*
X134600000Y-91600000D03*
X116200000Y-63000000D03*
X135800000Y-92200000D03*
X118200000Y-61200000D03*
X112400000Y-69800000D03*
D11*
X122150000Y-68150000D03*
D10*
X127800000Y-87400000D03*
X128600000Y-91000000D03*
X135400000Y-56400000D03*
X140200000Y-91600000D03*
X130600000Y-91600000D03*
X130200000Y-62400000D03*
X138200000Y-75800000D03*
X130400000Y-71800000D03*
X131400000Y-88000000D03*
X111200000Y-69800000D03*
X111200000Y-75400000D03*
X126600000Y-88000000D03*
X126200000Y-62400000D03*
X121800000Y-84400000D03*
D11*
X123800000Y-68150000D03*
D10*
X131000000Y-75600000D03*
X131000000Y-61200000D03*
X117000000Y-90400000D03*
X124600000Y-89800000D03*
X110000000Y-77000000D03*
X142600000Y-91600000D03*
X111800000Y-70200000D03*
D11*
X123250000Y-68700000D03*
D10*
X113000000Y-71800000D03*
X128600000Y-61200000D03*
X124600000Y-91000000D03*
D11*
X122150000Y-69250000D03*
D10*
X110000000Y-67400000D03*
X129400000Y-61200000D03*
X113400000Y-61200000D03*
X121000000Y-90400000D03*
X131400000Y-61800000D03*
X135400000Y-88000000D03*
X128800000Y-74600000D03*
X130200000Y-89800000D03*
D11*
X109950000Y-87750000D03*
D10*
X130200000Y-83800000D03*
X118200000Y-78800000D03*
X128600000Y-92200000D03*
X130600000Y-86800000D03*
X112600000Y-92200000D03*
X115200000Y-77600000D03*
X114600000Y-92800000D03*
X115400000Y-63000000D03*
X130200000Y-88600000D03*
D11*
X122150000Y-67050000D03*
D10*
X118600000Y-83200000D03*
X131800000Y-91000000D03*
X121000000Y-86800000D03*
D11*
X122000000Y-75400000D03*
D10*
X131800000Y-87400000D03*
X121800000Y-88000000D03*
X129000000Y-89200000D03*
D11*
X142575659Y-69191764D03*
D10*
X119800000Y-89800000D03*
X139200000Y-55600000D03*
D11*
X121400000Y-76000000D03*
D10*
X128200000Y-90400000D03*
X129400000Y-83800000D03*
X123000000Y-92200000D03*
X127400000Y-88000000D03*
X110600000Y-74200000D03*
X111200000Y-73800000D03*
D11*
X121400000Y-74200000D03*
D10*
X119400000Y-90400000D03*
X131400000Y-82000000D03*
X111800000Y-77400000D03*
X118600000Y-78200000D03*
X125400000Y-88600000D03*
X110600000Y-76600000D03*
X131400000Y-86800000D03*
X118200000Y-88600000D03*
X113000000Y-65400000D03*
X123400000Y-91600000D03*
X129000000Y-83200000D03*
X130200000Y-80200000D03*
X135400000Y-86800000D03*
X135000000Y-87400000D03*
X134200000Y-92200000D03*
X120200000Y-90400000D03*
X134600000Y-66600000D03*
X128200000Y-89200000D03*
X110600000Y-77400000D03*
X114600000Y-78800000D03*
X138200000Y-76600000D03*
D11*
X123750000Y-66500000D03*
D10*
X113400000Y-92200000D03*
X121400000Y-61200000D03*
X119000000Y-92200000D03*
X138800000Y-60000000D03*
D11*
X126000000Y-71800000D03*
D10*
X130600000Y-89200000D03*
X111200000Y-72200000D03*
X133000000Y-91600000D03*
X128800000Y-75800000D03*
X131000000Y-85000000D03*
X120600000Y-61200000D03*
X112400000Y-73000000D03*
D11*
X117500000Y-75150000D03*
D10*
X139600000Y-83800000D03*
X122200000Y-89800000D03*
X117400000Y-91000000D03*
X120600000Y-87400000D03*
D11*
X124350000Y-69250000D03*
X125600000Y-72800000D03*
D10*
X118600000Y-89200000D03*
X111800000Y-80600000D03*
D11*
%TO.N,/MCU_Sheet/SPICLK_P*%
X123250000Y-70250000D03*
X128900000Y-70250000D03*
%TO.N,VDD_SPI*%
X119750000Y-76600000D03*
X128300000Y-70900000D03*
%TO.N,+3V3*%
X127900000Y-65200000D03*
X134250000Y-65950000D03*
X125415689Y-68800999D03*
X142550000Y-70200000D03*
X123450000Y-62500000D03*
X139900000Y-68450000D03*
X125700000Y-77350000D03*
X115950000Y-65200000D03*
X142650000Y-83150000D03*
X135200000Y-75700000D03*
X117100000Y-67250000D03*
X116900000Y-70000000D03*
X138400000Y-81600000D03*
X114050000Y-65200000D03*
%TO.N,Net-(D1-K)*%
X134750000Y-71750000D03*
X132750000Y-72400000D03*
X136650000Y-78550000D03*
%TO.N,/MCU_Sheet/PREVGH*%
X120400000Y-81650000D03*
X131450000Y-73750000D03*
X129600000Y-76800000D03*
%TO.N,Net-(J1-Pin_18)*%
X132550000Y-76800000D03*
X120400000Y-82950000D03*
%TO.N,Net-(J1-Pin_20)*%
X120400000Y-82300000D03*
X131050000Y-76800000D03*
%TO.N,Net-(J1-Pin_22)*%
X128100000Y-76800000D03*
X120400000Y-81000000D03*
%TO.N,Net-(J1-Pin_24)*%
X126650000Y-76800000D03*
X120400000Y-79700000D03*
D10*
%TO.N,VBUS*%
X116130000Y-76670000D03*
X116080000Y-71870000D03*
X114550000Y-81850000D03*
X110050000Y-81250000D03*
X113250000Y-82350000D03*
D11*
%TO.N,+BATT*%
X116500000Y-84750000D03*
D10*
X120050000Y-62900000D03*
D11*
X133850000Y-65050000D03*
X112850000Y-89300000D03*
X111450000Y-86800000D03*
X112000000Y-90650000D03*
%TO.N,VCC*%
X115550000Y-67250000D03*
X116850000Y-81850000D03*
X127400000Y-64000000D03*
X115050000Y-85700000D03*
%TO.N,/MCU_Sheet/PREVGL*%
X126850000Y-73400000D03*
X120400000Y-80350000D03*
%TO.N,/MCU_Sheet/SPICS0*%
X124850000Y-76600000D03*
X121500000Y-72000000D03*
%TO.N,/MCU_Sheet/SPID*%
X119750000Y-72800000D03*
X122450000Y-70250000D03*
%TO.N,/MCU_Sheet/SPIWP*%
X124850000Y-74050000D03*
X120850000Y-72000000D03*
%TO.N,/MCU_Sheet/SPIQ*%
X122200000Y-72000000D03*
X124850000Y-75350000D03*
%TO.N,/MCU_Sheet/SPICLK*%
X119750000Y-74500000D03*
X121600000Y-70250000D03*
X119750000Y-74500000D03*
%TO.N,/MCU_Sheet/SPIHD*%
X120400000Y-70250000D03*
X119750000Y-75350000D03*
%TO.N,I2C_SCL*%
X119600000Y-64500000D03*
X141272635Y-64955308D03*
X139800000Y-56700000D03*
X141200000Y-68150000D03*
X110650000Y-86800000D03*
X140100000Y-64650000D03*
X142000000Y-56450000D03*
X131950000Y-67000000D03*
%TO.N,I2C_SDA*%
X119600000Y-63800000D03*
X142800000Y-55950000D03*
X140105918Y-69395543D03*
X137900000Y-56700000D03*
X110000000Y-86800000D03*
X132800000Y-67000000D03*
X141950000Y-64850000D03*
X136450000Y-68550000D03*
%TO.N,BMP_INT*%
X138150000Y-70350000D03*
X120350000Y-69550000D03*
%TO.N,D_BUSY*%
X118550000Y-66300000D03*
X125450000Y-83000000D03*
%TO.N,D_RES*%
X125450000Y-82350000D03*
X120350000Y-68050000D03*
%TO.N,D_DC*%
X120350000Y-67050000D03*
X125450000Y-81700000D03*
%TO.N,D_MOSI*%
X120350000Y-65100000D03*
X125450000Y-79750000D03*
%TO.N,D_SCK*%
X125450000Y-80400000D03*
X120350000Y-65750000D03*
%TO.N,D_SS*%
X125450000Y-81050000D03*
X118800000Y-64900000D03*
%TO.N,/MCU_Sheet/RESE*%
X138150000Y-82800000D03*
X130800000Y-79650000D03*
%TO.N,/MCU_Sheet/GDR*%
X131500000Y-79650000D03*
X135250000Y-78550000D03*
%TO.N,BTN1*%
X136400000Y-65200000D03*
X135650000Y-70350000D03*
X135650000Y-67400000D03*
X123000000Y-65250000D03*
%TO.N,BTN2*%
X123650000Y-65250000D03*
X133350000Y-70400980D03*
%TO.N,BTN3*%
X136650000Y-90350000D03*
X132750000Y-71750000D03*
X132500000Y-70400000D03*
X122350000Y-65250000D03*
%TO.N,MAG_INT*%
X125250000Y-66550000D03*
X134000000Y-70400980D03*
%TO.N,MAG_DRDY*%
X125400000Y-69850000D03*
X141900000Y-67050000D03*
%TO.N,RTC_INT*%
X121000000Y-63350000D03*
X134196800Y-67296800D03*
%TO.N,LDO2*%
X120350000Y-68700000D03*
X130100000Y-70150000D03*
%TO.N,MAX17_INT*%
X121746095Y-62850564D03*
X111000000Y-91300000D03*
X112200000Y-76050000D03*
X113600000Y-76450000D03*
%TO.N,ACCEL_INT1*%
X141500000Y-69550000D03*
X121700000Y-65250000D03*
%TO.N,ACCEL_INT2*%
X139050000Y-69800981D03*
X121000000Y-65250000D03*
%TO.N,LDO2_EN*%
X128350000Y-62500000D03*
X130450000Y-65650000D03*
%TO.N,USB_N*%
X117513119Y-73463119D03*
X114065744Y-74266561D03*
%TO.N,USB_P*%
X117986881Y-73936881D03*
X113591982Y-74740323D03*
%TO.N,+3.3VA*%
X138400000Y-68050000D03*
X140800000Y-57200000D03*
X138400000Y-66200000D03*
X130200000Y-64000000D03*
X142800000Y-64850000D03*
%TD*%
D12*
%TO.N,GND*%
X140500000Y-65750000D02*
X139950000Y-65200000D01*
X139950000Y-65200000D02*
X139400000Y-65200000D01*
X140950000Y-65950000D02*
X140950000Y-66900000D01*
X140950000Y-66900000D02*
X140750000Y-67100000D01*
X142450000Y-65950000D02*
X140950000Y-65950000D01*
X140950000Y-65950000D02*
X140700000Y-65950000D01*
X140700000Y-65950000D02*
X140500000Y-65750000D01*
%TD*%
%TA.AperFunction,Conductor*%
%TO.N,GND*%
G36*
X142711689Y-55311002D02*
G01*
X142758182Y-55364658D01*
X142768286Y-55434932D01*
X142738792Y-55499512D01*
X142682505Y-55536833D01*
X142676667Y-55538730D01*
X142666874Y-55540281D01*
X142546780Y-55601472D01*
X142451472Y-55696780D01*
X142390281Y-55816874D01*
X142369196Y-55950000D01*
X142370330Y-55957161D01*
X142350745Y-56023862D01*
X142297089Y-56070355D01*
X142226815Y-56080459D01*
X142187545Y-56068008D01*
X142141962Y-56044783D01*
X142141961Y-56044783D01*
X142133126Y-56040281D01*
X142123337Y-56038731D01*
X142123335Y-56038730D01*
X142009793Y-56020747D01*
X142000000Y-56019196D01*
X141990207Y-56020747D01*
X141876665Y-56038730D01*
X141876663Y-56038731D01*
X141866874Y-56040281D01*
X141746780Y-56101472D01*
X141651472Y-56196780D01*
X141590281Y-56316874D01*
X141588731Y-56326663D01*
X141588730Y-56326665D01*
X141570816Y-56439769D01*
X141569196Y-56450000D01*
X141590281Y-56583126D01*
X141651472Y-56703220D01*
X141746780Y-56798528D01*
X141866874Y-56859719D01*
X141876663Y-56861269D01*
X141876665Y-56861270D01*
X141990207Y-56879253D01*
X142000000Y-56880804D01*
X142009793Y-56879253D01*
X142123335Y-56861270D01*
X142123337Y-56861269D01*
X142133126Y-56859719D01*
X142253220Y-56798528D01*
X142348528Y-56703220D01*
X142409719Y-56583126D01*
X142430804Y-56450000D01*
X142429670Y-56442839D01*
X142449255Y-56376138D01*
X142502911Y-56329645D01*
X142573185Y-56319541D01*
X142612455Y-56331992D01*
X142650688Y-56351472D01*
X142666874Y-56359719D01*
X142676663Y-56361269D01*
X142676665Y-56361270D01*
X142790207Y-56379253D01*
X142800000Y-56380804D01*
X142809793Y-56379253D01*
X142923335Y-56361270D01*
X142923337Y-56361269D01*
X142933126Y-56359719D01*
X143053220Y-56298528D01*
X143133905Y-56217843D01*
X143196217Y-56183817D01*
X143267032Y-56188882D01*
X143323868Y-56231429D01*
X143348679Y-56297949D01*
X143349000Y-56306938D01*
X143349000Y-57563000D01*
X143328998Y-57631121D01*
X143275342Y-57677614D01*
X143223000Y-57689000D01*
X141216938Y-57689000D01*
X141148817Y-57668998D01*
X141102324Y-57615342D01*
X141092220Y-57545068D01*
X141121714Y-57480488D01*
X141127843Y-57473905D01*
X141148528Y-57453220D01*
X141209719Y-57333126D01*
X141230804Y-57200000D01*
X141229253Y-57190207D01*
X141211270Y-57076665D01*
X141211269Y-57076663D01*
X141209719Y-57066874D01*
X141148528Y-56946780D01*
X141053220Y-56851472D01*
X140933126Y-56790281D01*
X140923337Y-56788731D01*
X140923335Y-56788730D01*
X140809793Y-56770747D01*
X140800000Y-56769196D01*
X140790207Y-56770747D01*
X140676665Y-56788730D01*
X140676663Y-56788731D01*
X140666874Y-56790281D01*
X140546780Y-56851472D01*
X140451472Y-56946780D01*
X140390281Y-57066874D01*
X140388731Y-57076663D01*
X140388730Y-57076665D01*
X140370747Y-57190207D01*
X140369196Y-57200000D01*
X140390281Y-57333126D01*
X140451472Y-57453220D01*
X140472157Y-57473905D01*
X140506183Y-57536217D01*
X140501118Y-57607032D01*
X140458571Y-57663868D01*
X140392051Y-57688679D01*
X140383062Y-57689000D01*
X139150198Y-57689000D01*
X139150000Y-57688918D01*
X139149802Y-57689000D01*
X139149235Y-57689235D01*
X139148918Y-57690000D01*
X139149000Y-57690198D01*
X139149000Y-60345919D01*
X139128998Y-60414040D01*
X139075342Y-60460533D01*
X139005068Y-60470637D01*
X138989006Y-60467247D01*
X138965042Y-60460533D01*
X138925665Y-60449500D01*
X138812342Y-60449500D01*
X138758650Y-60456880D01*
X138708626Y-60463755D01*
X138708623Y-60463756D01*
X138700080Y-60464930D01*
X138646961Y-60488003D01*
X138569187Y-60521785D01*
X138569184Y-60521787D01*
X138561280Y-60525220D01*
X138554596Y-60530658D01*
X138554594Y-60530659D01*
X138513024Y-60564479D01*
X138443892Y-60620722D01*
X138356623Y-60744353D01*
X138353739Y-60752469D01*
X138353737Y-60752472D01*
X138320666Y-60845525D01*
X138305946Y-60886944D01*
X138295619Y-61037921D01*
X138297371Y-61046351D01*
X138297371Y-61046354D01*
X138324655Y-61177651D01*
X138326408Y-61186085D01*
X138396029Y-61320447D01*
X138499320Y-61431044D01*
X138554813Y-61464790D01*
X138621255Y-61505195D01*
X138621258Y-61505196D01*
X138628618Y-61509672D01*
X138774335Y-61550500D01*
X138887658Y-61550500D01*
X138999920Y-61535070D01*
X139000192Y-61537049D01*
X139059988Y-61537787D01*
X139119236Y-61576905D01*
X139147929Y-61641845D01*
X139149000Y-61658236D01*
X139149000Y-64289802D01*
X139148918Y-64290000D01*
X139149000Y-64290198D01*
X139149235Y-64290765D01*
X139150000Y-64291082D01*
X139150198Y-64291000D01*
X139599756Y-64291000D01*
X139667877Y-64311002D01*
X139714370Y-64364658D01*
X139724474Y-64434932D01*
X139712023Y-64474203D01*
X139690281Y-64516874D01*
X139688731Y-64526663D01*
X139688730Y-64526665D01*
X139671869Y-64633126D01*
X139669196Y-64650000D01*
X139670747Y-64659793D01*
X139688075Y-64769196D01*
X139690281Y-64783126D01*
X139751472Y-64903220D01*
X139813095Y-64964843D01*
X139847121Y-65027155D01*
X139850000Y-65053938D01*
X139850000Y-67650000D01*
X140794062Y-67650000D01*
X140862183Y-67670002D01*
X140908676Y-67723658D01*
X140918780Y-67793932D01*
X140889286Y-67858512D01*
X140883157Y-67865095D01*
X140851472Y-67896780D01*
X140790281Y-68016874D01*
X140788731Y-68026663D01*
X140788730Y-68026665D01*
X140785861Y-68044782D01*
X140769196Y-68150000D01*
X140770747Y-68159793D01*
X140776636Y-68196972D01*
X140790281Y-68283126D01*
X140851472Y-68403220D01*
X140946780Y-68498528D01*
X141066874Y-68559719D01*
X141076663Y-68561269D01*
X141076665Y-68561270D01*
X141190207Y-68579253D01*
X141200000Y-68580804D01*
X141209793Y-68579253D01*
X141323335Y-68561270D01*
X141323337Y-68561269D01*
X141333126Y-68559719D01*
X141453220Y-68498528D01*
X141548528Y-68403220D01*
X141609719Y-68283126D01*
X141623365Y-68196972D01*
X141629253Y-68159793D01*
X141630804Y-68150000D01*
X141614139Y-68044782D01*
X141611270Y-68026665D01*
X141611269Y-68026663D01*
X141609719Y-68016874D01*
X141548528Y-67896780D01*
X141516843Y-67865095D01*
X141482817Y-67802783D01*
X141487882Y-67731968D01*
X141530429Y-67675132D01*
X141596949Y-67650321D01*
X141605938Y-67650000D01*
X143223000Y-67650000D01*
X143291121Y-67670002D01*
X143337614Y-67723658D01*
X143349000Y-67776000D01*
X143349000Y-70843000D01*
X143328998Y-70911121D01*
X143275342Y-70957614D01*
X143223000Y-70969000D01*
X139150198Y-70969000D01*
X139150000Y-70968918D01*
X139149802Y-70969000D01*
X139149235Y-70969235D01*
X139148918Y-70970000D01*
X139149000Y-70970198D01*
X139149000Y-73620919D01*
X139128998Y-73689040D01*
X139075342Y-73735533D01*
X139005068Y-73745637D01*
X138989006Y-73742247D01*
X138965042Y-73735533D01*
X138925665Y-73724500D01*
X138812342Y-73724500D01*
X138758650Y-73731880D01*
X138708626Y-73738755D01*
X138708623Y-73738756D01*
X138700080Y-73739930D01*
X138680286Y-73748528D01*
X138569187Y-73796785D01*
X138569184Y-73796787D01*
X138561280Y-73800220D01*
X138554596Y-73805658D01*
X138554594Y-73805659D01*
X138523687Y-73830804D01*
X138443892Y-73895722D01*
X138356623Y-74019353D01*
X138353739Y-74027469D01*
X138353737Y-74027472D01*
X138319217Y-74124602D01*
X138305946Y-74161944D01*
X138302438Y-74213228D01*
X138296283Y-74303220D01*
X138295619Y-74312921D01*
X138297371Y-74321351D01*
X138297371Y-74321354D01*
X138324655Y-74452651D01*
X138326408Y-74461085D01*
X138396029Y-74595447D01*
X138401911Y-74601745D01*
X138467319Y-74671779D01*
X138499320Y-74706044D01*
X138554813Y-74739790D01*
X138621255Y-74780195D01*
X138621258Y-74780196D01*
X138628618Y-74784672D01*
X138774335Y-74825500D01*
X138887658Y-74825500D01*
X138999920Y-74810070D01*
X139000192Y-74812049D01*
X139059988Y-74812787D01*
X139119236Y-74851905D01*
X139147929Y-74916845D01*
X139149000Y-74933236D01*
X139149000Y-77474000D01*
X139128998Y-77542121D01*
X139075342Y-77588614D01*
X139023000Y-77600000D01*
X138800000Y-77600000D01*
X138800000Y-81120647D01*
X138779998Y-81188768D01*
X138726342Y-81235261D01*
X138656068Y-81245365D01*
X138616799Y-81232915D01*
X138533126Y-81190281D01*
X138523337Y-81188731D01*
X138523335Y-81188730D01*
X138409793Y-81170747D01*
X138400000Y-81169196D01*
X138390207Y-81170747D01*
X138276665Y-81188730D01*
X138276663Y-81188731D01*
X138266874Y-81190281D01*
X138146780Y-81251472D01*
X138051472Y-81346780D01*
X137990281Y-81466874D01*
X137969196Y-81600000D01*
X137970747Y-81609793D01*
X137975059Y-81637015D01*
X137990281Y-81733126D01*
X138051472Y-81853220D01*
X138146780Y-81948528D01*
X138266874Y-82009719D01*
X138276663Y-82011269D01*
X138276665Y-82011270D01*
X138390207Y-82029253D01*
X138400000Y-82030804D01*
X138409793Y-82029253D01*
X138523335Y-82011270D01*
X138523337Y-82011269D01*
X138533126Y-82009719D01*
X138616798Y-81967086D01*
X138686573Y-81953982D01*
X138752358Y-81980682D01*
X138793265Y-82038709D01*
X138800000Y-82079353D01*
X138800000Y-82100000D01*
X143223000Y-82100000D01*
X143291121Y-82120002D01*
X143337614Y-82173658D01*
X143349000Y-82226000D01*
X143349000Y-84123000D01*
X143328998Y-84191121D01*
X143275342Y-84237614D01*
X143223000Y-84249000D01*
X139150198Y-84249000D01*
X139150000Y-84248918D01*
X139149802Y-84249000D01*
X139149235Y-84249235D01*
X139148918Y-84250000D01*
X139149000Y-84250198D01*
X139149000Y-86895919D01*
X139128998Y-86964040D01*
X139075342Y-87010533D01*
X139005068Y-87020637D01*
X138989006Y-87017247D01*
X138965042Y-87010533D01*
X138925665Y-86999500D01*
X138812342Y-86999500D01*
X138758650Y-87006880D01*
X138708626Y-87013755D01*
X138708623Y-87013756D01*
X138700080Y-87014930D01*
X138646961Y-87038003D01*
X138569187Y-87071785D01*
X138569184Y-87071787D01*
X138561280Y-87075220D01*
X138554596Y-87080658D01*
X138554594Y-87080659D01*
X138513024Y-87114479D01*
X138443892Y-87170722D01*
X138356623Y-87294353D01*
X138353739Y-87302469D01*
X138353737Y-87302472D01*
X138328903Y-87372349D01*
X138305946Y-87436944D01*
X138295619Y-87587921D01*
X138297371Y-87596351D01*
X138297371Y-87596354D01*
X138324655Y-87727651D01*
X138326408Y-87736085D01*
X138396029Y-87870447D01*
X138499320Y-87981044D01*
X138554813Y-88014790D01*
X138621255Y-88055195D01*
X138621258Y-88055196D01*
X138628618Y-88059672D01*
X138774335Y-88100500D01*
X138887658Y-88100500D01*
X138999920Y-88085070D01*
X139000192Y-88087049D01*
X139059988Y-88087787D01*
X139119236Y-88126905D01*
X139147929Y-88191845D01*
X139149000Y-88208236D01*
X139149000Y-90849802D01*
X139148918Y-90850000D01*
X139149000Y-90850198D01*
X139149235Y-90850765D01*
X139150000Y-90851082D01*
X139150198Y-90851000D01*
X143223000Y-90851000D01*
X143291121Y-90871002D01*
X143337614Y-90924658D01*
X143349000Y-90977000D01*
X143349000Y-93123000D01*
X143328998Y-93191121D01*
X143275342Y-93237614D01*
X143223000Y-93249000D01*
X135407079Y-93249000D01*
X135392972Y-93248208D01*
X135384202Y-93247220D01*
X135348456Y-93243192D01*
X135346121Y-93242906D01*
X135305918Y-93237614D01*
X135296784Y-93236411D01*
X135271618Y-93230420D01*
X135228774Y-93215428D01*
X135222190Y-93212915D01*
X135212809Y-93209030D01*
X135180706Y-93195731D01*
X135161894Y-93186012D01*
X135157858Y-93183476D01*
X135122785Y-93161438D01*
X135113154Y-93154739D01*
X135078136Y-93127869D01*
X135065756Y-93117011D01*
X135032989Y-93084244D01*
X135022131Y-93071864D01*
X134995261Y-93036846D01*
X134988562Y-93027215D01*
X134963988Y-92988106D01*
X134954269Y-92969294D01*
X134937088Y-92927818D01*
X134934567Y-92921213D01*
X134919581Y-92878386D01*
X134913588Y-92853215D01*
X134907096Y-92803900D01*
X134906810Y-92801562D01*
X134901719Y-92756376D01*
X134901018Y-92750156D01*
X134901082Y-92750000D01*
X134901000Y-92749802D01*
X134901000Y-92749000D01*
X118899000Y-92749000D01*
X118899000Y-92749802D01*
X118898918Y-92750000D01*
X118898982Y-92750156D01*
X118897175Y-92766193D01*
X118893190Y-92801562D01*
X118892904Y-92803900D01*
X118886412Y-92853215D01*
X118880419Y-92878386D01*
X118865433Y-92921213D01*
X118862912Y-92927818D01*
X118845731Y-92969294D01*
X118836012Y-92988106D01*
X118811438Y-93027215D01*
X118804739Y-93036846D01*
X118777869Y-93071864D01*
X118767011Y-93084244D01*
X118734244Y-93117011D01*
X118721864Y-93127869D01*
X118686846Y-93154739D01*
X118677215Y-93161438D01*
X118642142Y-93183476D01*
X118638106Y-93186012D01*
X118619294Y-93195731D01*
X118587191Y-93209030D01*
X118577810Y-93212915D01*
X118571226Y-93215428D01*
X118528382Y-93230420D01*
X118503216Y-93236411D01*
X118494082Y-93237614D01*
X118453879Y-93242906D01*
X118451544Y-93243192D01*
X118415798Y-93247220D01*
X118407028Y-93248208D01*
X118392921Y-93249000D01*
X109677000Y-93249000D01*
X109608879Y-93228998D01*
X109562386Y-93175342D01*
X109551000Y-93123000D01*
X109551000Y-91300000D01*
X110569196Y-91300000D01*
X110590281Y-91433126D01*
X110651472Y-91553220D01*
X110746780Y-91648528D01*
X110866874Y-91709719D01*
X110876663Y-91711269D01*
X110876665Y-91711270D01*
X110990207Y-91729253D01*
X111000000Y-91730804D01*
X111009793Y-91729253D01*
X111123335Y-91711270D01*
X111123337Y-91711269D01*
X111133126Y-91709719D01*
X111253220Y-91648528D01*
X111348528Y-91553220D01*
X111409719Y-91433126D01*
X111430804Y-91300000D01*
X111409719Y-91166874D01*
X111348528Y-91046780D01*
X111253220Y-90951472D01*
X111133126Y-90890281D01*
X111123337Y-90888731D01*
X111123335Y-90888730D01*
X111009793Y-90870747D01*
X111000000Y-90869196D01*
X110990207Y-90870747D01*
X110876665Y-90888730D01*
X110876663Y-90888731D01*
X110866874Y-90890281D01*
X110746780Y-90951472D01*
X110651472Y-91046780D01*
X110590281Y-91166874D01*
X110569196Y-91300000D01*
X109551000Y-91300000D01*
X109551000Y-90650000D01*
X111569196Y-90650000D01*
X111570747Y-90659793D01*
X111586574Y-90759719D01*
X111590281Y-90783126D01*
X111651472Y-90903220D01*
X111746780Y-90998528D01*
X111866874Y-91059719D01*
X111876663Y-91061269D01*
X111876665Y-91061270D01*
X111990207Y-91079253D01*
X112000000Y-91080804D01*
X112009793Y-91079253D01*
X112123335Y-91061270D01*
X112123337Y-91061269D01*
X112133126Y-91059719D01*
X112253220Y-90998528D01*
X112348528Y-90903220D01*
X112409719Y-90783126D01*
X112413427Y-90759719D01*
X112429253Y-90659793D01*
X112430804Y-90650000D01*
X112409719Y-90516874D01*
X112348528Y-90396780D01*
X112301748Y-90350000D01*
X136219196Y-90350000D01*
X136240281Y-90483126D01*
X136301472Y-90603220D01*
X136396780Y-90698528D01*
X136516874Y-90759719D01*
X136526663Y-90761269D01*
X136526665Y-90761270D01*
X136640207Y-90779253D01*
X136650000Y-90780804D01*
X136659793Y-90779253D01*
X136773335Y-90761270D01*
X136773337Y-90761269D01*
X136783126Y-90759719D01*
X136903220Y-90698528D01*
X136998528Y-90603220D01*
X137059719Y-90483126D01*
X137080804Y-90350000D01*
X137064139Y-90244782D01*
X137061270Y-90226665D01*
X137061269Y-90226663D01*
X137059719Y-90216874D01*
X136998528Y-90096780D01*
X136903220Y-90001472D01*
X136783126Y-89940281D01*
X136773337Y-89938731D01*
X136773335Y-89938730D01*
X136659793Y-89920747D01*
X136650000Y-89919196D01*
X136640207Y-89920747D01*
X136526665Y-89938730D01*
X136526663Y-89938731D01*
X136516874Y-89940281D01*
X136396780Y-90001472D01*
X136301472Y-90096780D01*
X136240281Y-90216874D01*
X136238731Y-90226663D01*
X136238730Y-90226665D01*
X136235861Y-90244782D01*
X136219196Y-90350000D01*
X112301748Y-90350000D01*
X112253220Y-90301472D01*
X112133126Y-90240281D01*
X112123337Y-90238731D01*
X112123335Y-90238730D01*
X112009793Y-90220747D01*
X112000000Y-90219196D01*
X111990207Y-90220747D01*
X111876665Y-90238730D01*
X111876663Y-90238731D01*
X111866874Y-90240281D01*
X111746780Y-90301472D01*
X111651472Y-90396780D01*
X111590281Y-90516874D01*
X111569196Y-90650000D01*
X109551000Y-90650000D01*
X109551000Y-89300000D01*
X112419196Y-89300000D01*
X112440281Y-89433126D01*
X112501472Y-89553220D01*
X112596780Y-89648528D01*
X112716874Y-89709719D01*
X112726663Y-89711269D01*
X112726665Y-89711270D01*
X112840207Y-89729253D01*
X112850000Y-89730804D01*
X112859793Y-89729253D01*
X112973335Y-89711270D01*
X112973337Y-89711269D01*
X112983126Y-89709719D01*
X113103220Y-89648528D01*
X113198528Y-89553220D01*
X113259719Y-89433126D01*
X113280804Y-89300000D01*
X113259719Y-89166874D01*
X113198528Y-89046780D01*
X113103220Y-88951472D01*
X112983126Y-88890281D01*
X112973337Y-88888731D01*
X112973335Y-88888730D01*
X112859793Y-88870747D01*
X112850000Y-88869196D01*
X112840207Y-88870747D01*
X112726665Y-88888730D01*
X112726663Y-88888731D01*
X112716874Y-88890281D01*
X112596780Y-88951472D01*
X112501472Y-89046780D01*
X112440281Y-89166874D01*
X112419196Y-89300000D01*
X109551000Y-89300000D01*
X109551000Y-87587921D01*
X135695619Y-87587921D01*
X135697371Y-87596351D01*
X135697371Y-87596354D01*
X135724655Y-87727651D01*
X135726408Y-87736085D01*
X135796029Y-87870447D01*
X135899320Y-87981044D01*
X135954813Y-88014790D01*
X136021255Y-88055195D01*
X136021258Y-88055196D01*
X136028618Y-88059672D01*
X136174335Y-88100500D01*
X136287658Y-88100500D01*
X136341350Y-88093120D01*
X136391374Y-88086245D01*
X136391377Y-88086244D01*
X136399920Y-88085070D01*
X136458391Y-88059672D01*
X136530813Y-88028215D01*
X136530816Y-88028213D01*
X136538720Y-88024780D01*
X136545404Y-88019342D01*
X136545406Y-88019341D01*
X136600221Y-87974745D01*
X136656108Y-87929278D01*
X136743377Y-87805647D01*
X136768100Y-87736085D01*
X136791168Y-87671177D01*
X136791168Y-87671176D01*
X136794054Y-87663056D01*
X136804381Y-87512079D01*
X136787081Y-87428823D01*
X136775345Y-87372349D01*
X136775344Y-87372346D01*
X136773592Y-87363915D01*
X136703971Y-87229553D01*
X136629414Y-87149722D01*
X136606563Y-87125255D01*
X136600680Y-87118956D01*
X136506826Y-87061882D01*
X136478745Y-87044805D01*
X136478742Y-87044804D01*
X136471382Y-87040328D01*
X136325665Y-86999500D01*
X136212342Y-86999500D01*
X136158650Y-87006880D01*
X136108626Y-87013755D01*
X136108623Y-87013756D01*
X136100080Y-87014930D01*
X136046961Y-87038003D01*
X135969187Y-87071785D01*
X135969184Y-87071787D01*
X135961280Y-87075220D01*
X135954596Y-87080658D01*
X135954594Y-87080659D01*
X135913024Y-87114479D01*
X135843892Y-87170722D01*
X135756623Y-87294353D01*
X135753739Y-87302469D01*
X135753737Y-87302472D01*
X135728903Y-87372349D01*
X135705946Y-87436944D01*
X135695619Y-87587921D01*
X109551000Y-87587921D01*
X109551000Y-87251657D01*
X109571002Y-87183536D01*
X109624658Y-87137043D01*
X109694932Y-87126939D01*
X109745864Y-87147612D01*
X109746780Y-87148528D01*
X109755611Y-87153028D01*
X109755613Y-87153029D01*
X109779665Y-87165284D01*
X109866874Y-87209719D01*
X109876663Y-87211269D01*
X109876665Y-87211270D01*
X109990207Y-87229253D01*
X110000000Y-87230804D01*
X110009793Y-87229253D01*
X110123335Y-87211270D01*
X110123337Y-87211269D01*
X110133126Y-87209719D01*
X110253220Y-87148528D01*
X110254890Y-87146858D01*
X110317806Y-87124410D01*
X110386957Y-87140489D01*
X110391949Y-87143697D01*
X110396780Y-87148528D01*
X110516874Y-87209719D01*
X110526663Y-87211269D01*
X110526665Y-87211270D01*
X110640207Y-87229253D01*
X110650000Y-87230804D01*
X110659793Y-87229253D01*
X110773335Y-87211270D01*
X110773337Y-87211269D01*
X110783126Y-87209719D01*
X110903220Y-87148528D01*
X110960905Y-87090843D01*
X111023217Y-87056817D01*
X111094032Y-87061882D01*
X111139095Y-87090843D01*
X111196780Y-87148528D01*
X111316874Y-87209719D01*
X111326663Y-87211269D01*
X111326665Y-87211270D01*
X111440207Y-87229253D01*
X111450000Y-87230804D01*
X111459793Y-87229253D01*
X111573335Y-87211270D01*
X111573337Y-87211269D01*
X111583126Y-87209719D01*
X111703220Y-87148528D01*
X111798528Y-87053220D01*
X111859719Y-86933126D01*
X111880804Y-86800000D01*
X111859719Y-86666874D01*
X111798528Y-86546780D01*
X111703220Y-86451472D01*
X111583126Y-86390281D01*
X111573337Y-86388731D01*
X111573335Y-86388730D01*
X111459793Y-86370747D01*
X111450000Y-86369196D01*
X111440207Y-86370747D01*
X111326665Y-86388730D01*
X111326663Y-86388731D01*
X111316874Y-86390281D01*
X111196780Y-86451472D01*
X111139095Y-86509157D01*
X111076783Y-86543183D01*
X111005968Y-86538118D01*
X110960905Y-86509157D01*
X110903220Y-86451472D01*
X110783126Y-86390281D01*
X110773337Y-86388731D01*
X110773335Y-86388730D01*
X110659793Y-86370747D01*
X110650000Y-86369196D01*
X110640207Y-86370747D01*
X110526665Y-86388730D01*
X110526663Y-86388731D01*
X110516874Y-86390281D01*
X110396780Y-86451472D01*
X110395110Y-86453142D01*
X110332194Y-86475590D01*
X110263043Y-86459511D01*
X110258051Y-86456303D01*
X110253220Y-86451472D01*
X110133126Y-86390281D01*
X110123337Y-86388731D01*
X110123335Y-86388730D01*
X110009793Y-86370747D01*
X110000000Y-86369196D01*
X109990207Y-86370747D01*
X109876665Y-86388730D01*
X109876663Y-86388731D01*
X109866874Y-86390281D01*
X109833777Y-86407145D01*
X109755613Y-86446971D01*
X109755611Y-86446972D01*
X109746780Y-86451472D01*
X109746261Y-86451991D01*
X109684195Y-86474137D01*
X109615043Y-86458058D01*
X109565562Y-86407145D01*
X109551000Y-86348343D01*
X109551000Y-85700000D01*
X114619196Y-85700000D01*
X114640281Y-85833126D01*
X114701472Y-85953220D01*
X114796780Y-86048528D01*
X114916874Y-86109719D01*
X114926663Y-86111269D01*
X114926665Y-86111270D01*
X115040207Y-86129253D01*
X115050000Y-86130804D01*
X115059793Y-86129253D01*
X115173335Y-86111270D01*
X115173337Y-86111269D01*
X115183126Y-86109719D01*
X115303220Y-86048528D01*
X115398528Y-85953220D01*
X115459719Y-85833126D01*
X115480804Y-85700000D01*
X115459719Y-85566874D01*
X115398528Y-85446780D01*
X115303220Y-85351472D01*
X115183126Y-85290281D01*
X115173337Y-85288731D01*
X115173335Y-85288730D01*
X115059793Y-85270747D01*
X115050000Y-85269196D01*
X115040207Y-85270747D01*
X114926665Y-85288730D01*
X114926663Y-85288731D01*
X114916874Y-85290281D01*
X114796780Y-85351472D01*
X114701472Y-85446780D01*
X114640281Y-85566874D01*
X114619196Y-85700000D01*
X109551000Y-85700000D01*
X109551000Y-84750000D01*
X116069196Y-84750000D01*
X116090281Y-84883126D01*
X116151472Y-85003220D01*
X116246780Y-85098528D01*
X116366874Y-85159719D01*
X116376663Y-85161269D01*
X116376665Y-85161270D01*
X116490207Y-85179253D01*
X116500000Y-85180804D01*
X116509793Y-85179253D01*
X116623335Y-85161270D01*
X116623337Y-85161269D01*
X116633126Y-85159719D01*
X116753220Y-85098528D01*
X116848528Y-85003220D01*
X116909719Y-84883126D01*
X116930804Y-84750000D01*
X116909719Y-84616874D01*
X116848528Y-84496780D01*
X116753220Y-84401472D01*
X116633126Y-84340281D01*
X116623337Y-84338731D01*
X116623335Y-84338730D01*
X116509793Y-84320747D01*
X116500000Y-84319196D01*
X116490207Y-84320747D01*
X116376665Y-84338730D01*
X116376663Y-84338731D01*
X116366874Y-84340281D01*
X116246780Y-84401472D01*
X116151472Y-84496780D01*
X116090281Y-84616874D01*
X116069196Y-84750000D01*
X109551000Y-84750000D01*
X109551000Y-82950000D01*
X119969196Y-82950000D01*
X119970747Y-82959793D01*
X119984146Y-83044388D01*
X119990281Y-83083126D01*
X120051472Y-83203220D01*
X120146780Y-83298528D01*
X120266874Y-83359719D01*
X120276663Y-83361269D01*
X120276665Y-83361270D01*
X120390207Y-83379253D01*
X120400000Y-83380804D01*
X120409793Y-83379253D01*
X120523335Y-83361270D01*
X120523337Y-83361269D01*
X120533126Y-83359719D01*
X120653220Y-83298528D01*
X120748528Y-83203220D01*
X120809719Y-83083126D01*
X120815855Y-83044388D01*
X120822885Y-83000000D01*
X125019196Y-83000000D01*
X125020747Y-83009793D01*
X125028736Y-83060231D01*
X125040281Y-83133126D01*
X125101472Y-83253220D01*
X125196780Y-83348528D01*
X125316874Y-83409719D01*
X125326663Y-83411269D01*
X125326665Y-83411270D01*
X125440207Y-83429253D01*
X125450000Y-83430804D01*
X125459793Y-83429253D01*
X125573335Y-83411270D01*
X125573337Y-83411269D01*
X125583126Y-83409719D01*
X125703220Y-83348528D01*
X125798528Y-83253220D01*
X125859719Y-83133126D01*
X125871265Y-83060231D01*
X125879253Y-83009793D01*
X125880804Y-83000000D01*
X125868662Y-82923335D01*
X125861270Y-82876665D01*
X125861269Y-82876663D01*
X125859719Y-82866874D01*
X125825645Y-82800000D01*
X137719196Y-82800000D01*
X137720747Y-82809793D01*
X137721175Y-82812492D01*
X137740281Y-82933126D01*
X137801472Y-83053220D01*
X137896780Y-83148528D01*
X138016874Y-83209719D01*
X138026663Y-83211269D01*
X138026665Y-83211270D01*
X138140207Y-83229253D01*
X138150000Y-83230804D01*
X138159793Y-83229253D01*
X138273335Y-83211270D01*
X138273337Y-83211269D01*
X138283126Y-83209719D01*
X138400331Y-83150000D01*
X142219196Y-83150000D01*
X142220747Y-83159793D01*
X142234146Y-83244388D01*
X142240281Y-83283126D01*
X142301472Y-83403220D01*
X142396780Y-83498528D01*
X142516874Y-83559719D01*
X142526663Y-83561269D01*
X142526665Y-83561270D01*
X142640207Y-83579253D01*
X142650000Y-83580804D01*
X142659793Y-83579253D01*
X142773335Y-83561270D01*
X142773337Y-83561269D01*
X142783126Y-83559719D01*
X142903220Y-83498528D01*
X142998528Y-83403220D01*
X143059719Y-83283126D01*
X143065855Y-83244388D01*
X143079253Y-83159793D01*
X143080804Y-83150000D01*
X143059719Y-83016874D01*
X142998528Y-82896780D01*
X142903220Y-82801472D01*
X142783126Y-82740281D01*
X142773337Y-82738731D01*
X142773335Y-82738730D01*
X142659793Y-82720747D01*
X142650000Y-82719196D01*
X142640207Y-82720747D01*
X142526665Y-82738730D01*
X142526663Y-82738731D01*
X142516874Y-82740281D01*
X142396780Y-82801472D01*
X142301472Y-82896780D01*
X142240281Y-83016874D01*
X142219196Y-83150000D01*
X138400331Y-83150000D01*
X138403220Y-83148528D01*
X138498528Y-83053220D01*
X138559719Y-82933126D01*
X138578826Y-82812492D01*
X138579253Y-82809793D01*
X138580804Y-82800000D01*
X138572375Y-82746780D01*
X138561270Y-82676665D01*
X138561269Y-82676663D01*
X138559719Y-82666874D01*
X138498528Y-82546780D01*
X138403220Y-82451472D01*
X138283126Y-82390281D01*
X138273337Y-82388731D01*
X138273335Y-82388730D01*
X138159793Y-82370747D01*
X138150000Y-82369196D01*
X138140207Y-82370747D01*
X138026665Y-82388730D01*
X138026663Y-82388731D01*
X138016874Y-82390281D01*
X137896780Y-82451472D01*
X137801472Y-82546780D01*
X137740281Y-82666874D01*
X137738731Y-82676663D01*
X137738730Y-82676665D01*
X137727625Y-82746780D01*
X137719196Y-82800000D01*
X125825645Y-82800000D01*
X125798528Y-82746780D01*
X125796858Y-82745110D01*
X125774410Y-82682194D01*
X125790489Y-82613043D01*
X125793697Y-82608051D01*
X125798528Y-82603220D01*
X125859719Y-82483126D01*
X125864733Y-82451472D01*
X125879253Y-82359793D01*
X125880804Y-82350000D01*
X125871334Y-82290207D01*
X125861270Y-82226665D01*
X125861269Y-82226663D01*
X125859719Y-82216874D01*
X125798528Y-82096780D01*
X125796858Y-82095110D01*
X125774410Y-82032194D01*
X125790489Y-81963043D01*
X125793697Y-81958051D01*
X125798528Y-81953220D01*
X125859719Y-81833126D01*
X125878826Y-81712492D01*
X125879253Y-81709793D01*
X125880804Y-81700000D01*
X125870057Y-81632143D01*
X125861270Y-81576665D01*
X125861269Y-81576663D01*
X125859719Y-81566874D01*
X125798528Y-81446780D01*
X125796858Y-81445110D01*
X125774410Y-81382194D01*
X125790489Y-81313043D01*
X125793697Y-81308051D01*
X125798528Y-81303220D01*
X125859719Y-81183126D01*
X125861926Y-81169196D01*
X125879253Y-81059793D01*
X125880804Y-81050000D01*
X125859719Y-80916874D01*
X125798528Y-80796780D01*
X125796858Y-80795110D01*
X125774410Y-80732194D01*
X125790489Y-80663043D01*
X125793697Y-80658051D01*
X125798528Y-80653220D01*
X125859719Y-80533126D01*
X125880804Y-80400000D01*
X125859719Y-80266874D01*
X125798528Y-80146780D01*
X125796858Y-80145110D01*
X125774410Y-80082194D01*
X125790489Y-80013043D01*
X125793697Y-80008051D01*
X125798528Y-80003220D01*
X125859719Y-79883126D01*
X125880804Y-79750000D01*
X125864966Y-79650000D01*
X130369196Y-79650000D01*
X130390281Y-79783126D01*
X130451472Y-79903220D01*
X130546780Y-79998528D01*
X130666874Y-80059719D01*
X130676663Y-80061269D01*
X130676665Y-80061270D01*
X130790207Y-80079253D01*
X130800000Y-80080804D01*
X130809793Y-80079253D01*
X130923335Y-80061270D01*
X130923337Y-80061269D01*
X130933126Y-80059719D01*
X131053220Y-79998528D01*
X131060905Y-79990843D01*
X131061925Y-79990286D01*
X131068252Y-79985689D01*
X131068846Y-79986507D01*
X131123217Y-79956817D01*
X131194032Y-79961882D01*
X131231534Y-79985984D01*
X131231748Y-79985689D01*
X131236900Y-79989432D01*
X131239095Y-79990843D01*
X131246780Y-79998528D01*
X131366874Y-80059719D01*
X131376663Y-80061269D01*
X131376665Y-80061270D01*
X131490207Y-80079253D01*
X131500000Y-80080804D01*
X131509793Y-80079253D01*
X131623335Y-80061270D01*
X131623337Y-80061269D01*
X131633126Y-80059719D01*
X131753220Y-79998528D01*
X131848528Y-79903220D01*
X131909719Y-79783126D01*
X131930804Y-79650000D01*
X131909719Y-79516874D01*
X131848528Y-79396780D01*
X131753220Y-79301472D01*
X131633126Y-79240281D01*
X131623337Y-79238731D01*
X131623335Y-79238730D01*
X131509793Y-79220747D01*
X131500000Y-79219196D01*
X131490207Y-79220747D01*
X131376665Y-79238730D01*
X131376663Y-79238731D01*
X131366874Y-79240281D01*
X131246780Y-79301472D01*
X131239095Y-79309157D01*
X131238075Y-79309714D01*
X131231748Y-79314311D01*
X131231154Y-79313493D01*
X131176783Y-79343183D01*
X131105968Y-79338118D01*
X131068466Y-79314016D01*
X131068252Y-79314311D01*
X131063100Y-79310568D01*
X131060905Y-79309157D01*
X131053220Y-79301472D01*
X130933126Y-79240281D01*
X130923337Y-79238731D01*
X130923335Y-79238730D01*
X130809793Y-79220747D01*
X130800000Y-79219196D01*
X130790207Y-79220747D01*
X130676665Y-79238730D01*
X130676663Y-79238731D01*
X130666874Y-79240281D01*
X130546780Y-79301472D01*
X130451472Y-79396780D01*
X130390281Y-79516874D01*
X130369196Y-79650000D01*
X125864966Y-79650000D01*
X125859719Y-79616874D01*
X125798528Y-79496780D01*
X125703220Y-79401472D01*
X125583126Y-79340281D01*
X125573337Y-79338731D01*
X125573335Y-79338730D01*
X125459793Y-79320747D01*
X125450000Y-79319196D01*
X125440207Y-79320747D01*
X125326665Y-79338730D01*
X125326663Y-79338731D01*
X125316874Y-79340281D01*
X125196780Y-79401472D01*
X125101472Y-79496780D01*
X125040281Y-79616874D01*
X125019196Y-79750000D01*
X125040281Y-79883126D01*
X125101472Y-80003220D01*
X125103142Y-80004890D01*
X125125590Y-80067806D01*
X125109511Y-80136957D01*
X125106303Y-80141949D01*
X125101472Y-80146780D01*
X125040281Y-80266874D01*
X125019196Y-80400000D01*
X125040281Y-80533126D01*
X125101472Y-80653220D01*
X125103142Y-80654890D01*
X125125590Y-80717806D01*
X125109511Y-80786957D01*
X125106303Y-80791949D01*
X125101472Y-80796780D01*
X125040281Y-80916874D01*
X125019196Y-81050000D01*
X125020747Y-81059793D01*
X125038075Y-81169196D01*
X125040281Y-81183126D01*
X125101472Y-81303220D01*
X125103142Y-81304890D01*
X125125590Y-81367806D01*
X125109511Y-81436957D01*
X125106303Y-81441949D01*
X125101472Y-81446780D01*
X125040281Y-81566874D01*
X125038731Y-81576663D01*
X125038730Y-81576665D01*
X125029943Y-81632143D01*
X125019196Y-81700000D01*
X125020747Y-81709793D01*
X125021175Y-81712492D01*
X125040281Y-81833126D01*
X125101472Y-81953220D01*
X125103142Y-81954890D01*
X125125590Y-82017806D01*
X125109511Y-82086957D01*
X125106303Y-82091949D01*
X125101472Y-82096780D01*
X125040281Y-82216874D01*
X125038731Y-82226663D01*
X125038730Y-82226665D01*
X125028666Y-82290207D01*
X125019196Y-82350000D01*
X125020747Y-82359793D01*
X125035268Y-82451472D01*
X125040281Y-82483126D01*
X125101472Y-82603220D01*
X125103142Y-82604890D01*
X125125590Y-82667806D01*
X125109511Y-82736957D01*
X125106303Y-82741949D01*
X125101472Y-82746780D01*
X125040281Y-82866874D01*
X125038731Y-82876663D01*
X125038730Y-82876665D01*
X125031338Y-82923335D01*
X125019196Y-83000000D01*
X120822885Y-83000000D01*
X120829253Y-82959793D01*
X120830804Y-82950000D01*
X120822375Y-82896780D01*
X120811270Y-82826665D01*
X120811269Y-82826663D01*
X120809719Y-82816874D01*
X120748528Y-82696780D01*
X120746858Y-82695110D01*
X120724410Y-82632194D01*
X120740489Y-82563043D01*
X120743697Y-82558051D01*
X120748528Y-82553220D01*
X120809719Y-82433126D01*
X120819845Y-82369196D01*
X120829253Y-82309793D01*
X120830804Y-82300000D01*
X120816239Y-82208041D01*
X120811270Y-82176665D01*
X120811269Y-82176663D01*
X120809719Y-82166874D01*
X120748528Y-82046780D01*
X120746858Y-82045110D01*
X120724410Y-81982194D01*
X120740489Y-81913043D01*
X120743697Y-81908051D01*
X120748528Y-81903220D01*
X120809719Y-81783126D01*
X120814887Y-81750500D01*
X120829253Y-81659793D01*
X120830804Y-81650000D01*
X120821334Y-81590207D01*
X120811270Y-81526665D01*
X120811269Y-81526663D01*
X120809719Y-81516874D01*
X120748528Y-81396780D01*
X120746858Y-81395110D01*
X120724410Y-81332194D01*
X120740489Y-81263043D01*
X120743697Y-81258051D01*
X120748528Y-81253220D01*
X120809719Y-81133126D01*
X120811696Y-81120647D01*
X120829253Y-81009793D01*
X120830804Y-81000000D01*
X120809719Y-80866874D01*
X120748528Y-80746780D01*
X120746858Y-80745110D01*
X120724410Y-80682194D01*
X120740489Y-80613043D01*
X120743697Y-80608051D01*
X120748528Y-80603220D01*
X120809719Y-80483126D01*
X120830804Y-80350000D01*
X120809719Y-80216874D01*
X120748528Y-80096780D01*
X120746858Y-80095110D01*
X120724410Y-80032194D01*
X120740489Y-79963043D01*
X120743697Y-79958051D01*
X120748528Y-79953220D01*
X120809719Y-79833126D01*
X120830804Y-79700000D01*
X120809719Y-79566874D01*
X120748528Y-79446780D01*
X120653220Y-79351472D01*
X120533126Y-79290281D01*
X120523337Y-79288731D01*
X120523335Y-79288730D01*
X120409793Y-79270747D01*
X120400000Y-79269196D01*
X120390207Y-79270747D01*
X120276665Y-79288730D01*
X120276663Y-79288731D01*
X120266874Y-79290281D01*
X120146780Y-79351472D01*
X120051472Y-79446780D01*
X119990281Y-79566874D01*
X119969196Y-79700000D01*
X119990281Y-79833126D01*
X120051472Y-79953220D01*
X120053142Y-79954890D01*
X120075590Y-80017806D01*
X120059511Y-80086957D01*
X120056303Y-80091949D01*
X120051472Y-80096780D01*
X119990281Y-80216874D01*
X119969196Y-80350000D01*
X119990281Y-80483126D01*
X120051472Y-80603220D01*
X120053142Y-80604890D01*
X120075590Y-80667806D01*
X120059511Y-80736957D01*
X120056303Y-80741949D01*
X120051472Y-80746780D01*
X119990281Y-80866874D01*
X119969196Y-81000000D01*
X119970747Y-81009793D01*
X119988305Y-81120647D01*
X119990281Y-81133126D01*
X120051472Y-81253220D01*
X120053142Y-81254890D01*
X120075590Y-81317806D01*
X120059511Y-81386957D01*
X120056303Y-81391949D01*
X120051472Y-81396780D01*
X119990281Y-81516874D01*
X119988731Y-81526663D01*
X119988730Y-81526665D01*
X119978666Y-81590207D01*
X119969196Y-81650000D01*
X119970747Y-81659793D01*
X119985114Y-81750500D01*
X119990281Y-81783126D01*
X120051472Y-81903220D01*
X120053142Y-81904890D01*
X120075590Y-81967806D01*
X120059511Y-82036957D01*
X120056303Y-82041949D01*
X120051472Y-82046780D01*
X119990281Y-82166874D01*
X119988731Y-82176663D01*
X119988730Y-82176665D01*
X119983761Y-82208041D01*
X119969196Y-82300000D01*
X119970747Y-82309793D01*
X119980156Y-82369196D01*
X119990281Y-82433126D01*
X120051472Y-82553220D01*
X120053142Y-82554890D01*
X120075590Y-82617806D01*
X120059511Y-82686957D01*
X120056303Y-82691949D01*
X120051472Y-82696780D01*
X119990281Y-82816874D01*
X119988731Y-82826663D01*
X119988730Y-82826665D01*
X119977625Y-82896780D01*
X119969196Y-82950000D01*
X109551000Y-82950000D01*
X109551000Y-82350000D01*
X112744353Y-82350000D01*
X112764835Y-82492457D01*
X112768577Y-82500651D01*
X112768578Y-82500654D01*
X112789644Y-82546780D01*
X112824623Y-82623373D01*
X112830525Y-82630184D01*
X112830526Y-82630186D01*
X112870800Y-82676665D01*
X112918872Y-82732143D01*
X112926449Y-82737013D01*
X112926452Y-82737015D01*
X113032367Y-82805082D01*
X113032369Y-82805083D01*
X113039947Y-82809953D01*
X113048591Y-82812491D01*
X113048593Y-82812492D01*
X113169394Y-82847962D01*
X113169396Y-82847962D01*
X113178039Y-82850500D01*
X113321961Y-82850500D01*
X113330604Y-82847962D01*
X113330606Y-82847962D01*
X113451407Y-82812492D01*
X113451409Y-82812491D01*
X113460053Y-82809953D01*
X113467631Y-82805083D01*
X113467633Y-82805082D01*
X113573548Y-82737015D01*
X113573551Y-82737013D01*
X113581128Y-82732143D01*
X113629200Y-82676665D01*
X113669474Y-82630186D01*
X113669475Y-82630184D01*
X113675377Y-82623373D01*
X113710356Y-82546780D01*
X113731422Y-82500654D01*
X113731423Y-82500651D01*
X113735165Y-82492457D01*
X113755647Y-82350000D01*
X113735165Y-82207543D01*
X113727847Y-82191517D01*
X113692980Y-82115172D01*
X113675377Y-82076627D01*
X113635672Y-82030804D01*
X113587029Y-81974667D01*
X113587028Y-81974666D01*
X113581128Y-81967857D01*
X113573551Y-81962987D01*
X113573548Y-81962985D01*
X113467633Y-81894918D01*
X113467631Y-81894917D01*
X113460053Y-81890047D01*
X113451409Y-81887509D01*
X113451407Y-81887508D01*
X113330606Y-81852038D01*
X113330604Y-81852038D01*
X113323664Y-81850000D01*
X114044353Y-81850000D01*
X114064835Y-81992457D01*
X114068577Y-82000651D01*
X114068578Y-82000654D01*
X114085958Y-82038709D01*
X114124623Y-82123373D01*
X114130525Y-82130184D01*
X114130526Y-82130186D01*
X114205283Y-82216460D01*
X114218872Y-82232143D01*
X114226449Y-82237013D01*
X114226452Y-82237015D01*
X114332367Y-82305082D01*
X114332369Y-82305083D01*
X114339947Y-82309953D01*
X114348591Y-82312491D01*
X114348593Y-82312492D01*
X114469394Y-82347962D01*
X114469396Y-82347962D01*
X114478039Y-82350500D01*
X114621961Y-82350500D01*
X114630604Y-82347962D01*
X114630606Y-82347962D01*
X114751407Y-82312492D01*
X114751409Y-82312491D01*
X114760053Y-82309953D01*
X114767631Y-82305083D01*
X114767633Y-82305082D01*
X114873548Y-82237015D01*
X114873551Y-82237013D01*
X114881128Y-82232143D01*
X114894717Y-82216460D01*
X114969474Y-82130186D01*
X114969475Y-82130184D01*
X114975377Y-82123373D01*
X115014042Y-82038709D01*
X115031422Y-82000654D01*
X115031423Y-82000651D01*
X115035165Y-81992457D01*
X115055647Y-81850000D01*
X116419196Y-81850000D01*
X116420747Y-81859793D01*
X116437863Y-81967857D01*
X116440281Y-81983126D01*
X116501472Y-82103220D01*
X116596780Y-82198528D01*
X116716874Y-82259719D01*
X116726663Y-82261269D01*
X116726665Y-82261270D01*
X116840207Y-82279253D01*
X116850000Y-82280804D01*
X116859793Y-82279253D01*
X116973335Y-82261270D01*
X116973337Y-82261269D01*
X116983126Y-82259719D01*
X117103220Y-82198528D01*
X117198528Y-82103220D01*
X117259719Y-81983126D01*
X117262138Y-81967857D01*
X117279253Y-81859793D01*
X117280804Y-81850000D01*
X117259719Y-81716874D01*
X117198528Y-81596780D01*
X117103220Y-81501472D01*
X116983126Y-81440281D01*
X116973337Y-81438731D01*
X116973335Y-81438730D01*
X116859793Y-81420747D01*
X116850000Y-81419196D01*
X116840207Y-81420747D01*
X116726665Y-81438730D01*
X116726663Y-81438731D01*
X116716874Y-81440281D01*
X116596780Y-81501472D01*
X116501472Y-81596780D01*
X116440281Y-81716874D01*
X116419196Y-81850000D01*
X115055647Y-81850000D01*
X115035165Y-81707543D01*
X115008435Y-81649012D01*
X114997621Y-81625333D01*
X114975377Y-81576627D01*
X114959273Y-81558041D01*
X114887029Y-81474667D01*
X114887028Y-81474666D01*
X114881128Y-81467857D01*
X114873551Y-81462987D01*
X114873548Y-81462985D01*
X114767633Y-81394918D01*
X114767631Y-81394917D01*
X114760053Y-81390047D01*
X114751409Y-81387509D01*
X114751407Y-81387508D01*
X114630606Y-81352038D01*
X114630604Y-81352038D01*
X114621961Y-81349500D01*
X114478039Y-81349500D01*
X114469396Y-81352038D01*
X114469394Y-81352038D01*
X114348593Y-81387508D01*
X114348591Y-81387509D01*
X114339947Y-81390047D01*
X114332369Y-81394917D01*
X114332367Y-81394918D01*
X114226452Y-81462985D01*
X114226449Y-81462987D01*
X114218872Y-81467857D01*
X114212972Y-81474666D01*
X114212971Y-81474667D01*
X114140728Y-81558041D01*
X114124623Y-81576627D01*
X114102379Y-81625333D01*
X114091566Y-81649012D01*
X114064835Y-81707543D01*
X114044353Y-81850000D01*
X113323664Y-81850000D01*
X113321961Y-81849500D01*
X113178039Y-81849500D01*
X113169396Y-81852038D01*
X113169394Y-81852038D01*
X113048593Y-81887508D01*
X113048591Y-81887509D01*
X113039947Y-81890047D01*
X113032369Y-81894917D01*
X113032367Y-81894918D01*
X112926452Y-81962985D01*
X112926449Y-81962987D01*
X112918872Y-81967857D01*
X112912972Y-81974666D01*
X112912971Y-81974667D01*
X112864329Y-82030804D01*
X112824623Y-82076627D01*
X112807020Y-82115172D01*
X112772154Y-82191517D01*
X112764835Y-82207543D01*
X112744353Y-82350000D01*
X109551000Y-82350000D01*
X109551000Y-81755010D01*
X109571002Y-81686889D01*
X109624658Y-81640396D01*
X109694932Y-81630292D01*
X109745121Y-81649012D01*
X109832367Y-81705082D01*
X109832369Y-81705083D01*
X109839947Y-81709953D01*
X109848591Y-81712491D01*
X109848593Y-81712492D01*
X109969394Y-81747962D01*
X109969396Y-81747962D01*
X109978039Y-81750500D01*
X110121961Y-81750500D01*
X110130604Y-81747962D01*
X110130606Y-81747962D01*
X110251407Y-81712492D01*
X110251409Y-81712491D01*
X110260053Y-81709953D01*
X110267631Y-81705083D01*
X110267633Y-81705082D01*
X110373548Y-81637015D01*
X110373551Y-81637013D01*
X110381128Y-81632143D01*
X110411770Y-81596780D01*
X110469474Y-81530186D01*
X110469475Y-81530184D01*
X110475377Y-81523373D01*
X110502956Y-81462985D01*
X110531422Y-81400654D01*
X110531423Y-81400651D01*
X110535165Y-81392457D01*
X110555647Y-81250000D01*
X110535165Y-81107543D01*
X110475377Y-80976627D01*
X110415948Y-80908041D01*
X110387029Y-80874667D01*
X110387028Y-80874666D01*
X110381128Y-80867857D01*
X110373551Y-80862987D01*
X110373548Y-80862985D01*
X110267633Y-80794918D01*
X110267631Y-80794917D01*
X110260053Y-80790047D01*
X110251409Y-80787509D01*
X110251407Y-80787508D01*
X110130606Y-80752038D01*
X110130604Y-80752038D01*
X110121961Y-80749500D01*
X109978039Y-80749500D01*
X109969396Y-80752038D01*
X109969394Y-80752038D01*
X109848593Y-80787508D01*
X109848591Y-80787509D01*
X109839947Y-80790047D01*
X109832369Y-80794917D01*
X109832367Y-80794918D01*
X109745121Y-80850988D01*
X109677000Y-80870990D01*
X109608879Y-80850988D01*
X109562386Y-80797332D01*
X109551000Y-80744990D01*
X109551000Y-78550000D01*
X134819196Y-78550000D01*
X134840281Y-78683126D01*
X134901472Y-78803220D01*
X134996780Y-78898528D01*
X135116874Y-78959719D01*
X135126663Y-78961269D01*
X135126665Y-78961270D01*
X135240207Y-78979253D01*
X135250000Y-78980804D01*
X135259793Y-78979253D01*
X135373335Y-78961270D01*
X135373337Y-78961269D01*
X135383126Y-78959719D01*
X135503220Y-78898528D01*
X135598528Y-78803220D01*
X135659719Y-78683126D01*
X135680804Y-78550000D01*
X136219196Y-78550000D01*
X136240281Y-78683126D01*
X136301472Y-78803220D01*
X136396780Y-78898528D01*
X136516874Y-78959719D01*
X136526663Y-78961269D01*
X136526665Y-78961270D01*
X136640207Y-78979253D01*
X136650000Y-78980804D01*
X136659793Y-78979253D01*
X136773335Y-78961270D01*
X136773337Y-78961269D01*
X136783126Y-78959719D01*
X136903220Y-78898528D01*
X136998528Y-78803220D01*
X137059719Y-78683126D01*
X137080804Y-78550000D01*
X137059719Y-78416874D01*
X136998528Y-78296780D01*
X136903220Y-78201472D01*
X136783126Y-78140281D01*
X136773337Y-78138731D01*
X136773335Y-78138730D01*
X136659793Y-78120747D01*
X136650000Y-78119196D01*
X136640207Y-78120747D01*
X136526665Y-78138730D01*
X136526663Y-78138731D01*
X136516874Y-78140281D01*
X136396780Y-78201472D01*
X136301472Y-78296780D01*
X136240281Y-78416874D01*
X136219196Y-78550000D01*
X135680804Y-78550000D01*
X135659719Y-78416874D01*
X135598528Y-78296780D01*
X135503220Y-78201472D01*
X135383126Y-78140281D01*
X135373337Y-78138731D01*
X135373335Y-78138730D01*
X135259793Y-78120747D01*
X135250000Y-78119196D01*
X135240207Y-78120747D01*
X135126665Y-78138730D01*
X135126663Y-78138731D01*
X135116874Y-78140281D01*
X134996780Y-78201472D01*
X134901472Y-78296780D01*
X134840281Y-78416874D01*
X134819196Y-78550000D01*
X109551000Y-78550000D01*
X109551000Y-77228367D01*
X114014500Y-77228367D01*
X114053022Y-77359561D01*
X114126945Y-77474589D01*
X114133755Y-77480490D01*
X114133757Y-77480492D01*
X114223469Y-77558227D01*
X114230282Y-77564130D01*
X114245505Y-77571082D01*
X114346461Y-77617188D01*
X114346464Y-77617189D01*
X114354658Y-77620931D01*
X114363575Y-77622213D01*
X114451541Y-77634861D01*
X114451548Y-77634862D01*
X114455989Y-77635500D01*
X114524011Y-77635500D01*
X114528452Y-77634862D01*
X114528459Y-77634861D01*
X114616425Y-77622213D01*
X114625342Y-77620931D01*
X114633536Y-77617189D01*
X114633539Y-77617188D01*
X114734495Y-77571082D01*
X114749718Y-77564130D01*
X114756531Y-77558227D01*
X114846243Y-77480492D01*
X114846245Y-77480490D01*
X114853055Y-77474589D01*
X114926978Y-77359561D01*
X114929785Y-77350000D01*
X125269196Y-77350000D01*
X125270747Y-77359793D01*
X125287728Y-77467005D01*
X125290281Y-77483126D01*
X125351472Y-77603220D01*
X125446780Y-77698528D01*
X125566874Y-77759719D01*
X125576663Y-77761269D01*
X125576665Y-77761270D01*
X125690207Y-77779253D01*
X125700000Y-77780804D01*
X125709793Y-77779253D01*
X125823335Y-77761270D01*
X125823337Y-77761269D01*
X125833126Y-77759719D01*
X125953220Y-77698528D01*
X126048528Y-77603220D01*
X126109719Y-77483126D01*
X126112273Y-77467005D01*
X126129253Y-77359793D01*
X126130804Y-77350000D01*
X126129253Y-77340207D01*
X126111270Y-77226665D01*
X126111269Y-77226663D01*
X126109719Y-77216874D01*
X126101671Y-77201079D01*
X126088567Y-77131302D01*
X126092724Y-77121060D01*
X126046967Y-77095219D01*
X125953220Y-77001472D01*
X125833126Y-76940281D01*
X125823337Y-76938731D01*
X125823335Y-76938730D01*
X125709793Y-76920747D01*
X125700000Y-76919196D01*
X125690207Y-76920747D01*
X125576665Y-76938730D01*
X125576663Y-76938731D01*
X125566874Y-76940281D01*
X125446780Y-77001472D01*
X125351472Y-77096780D01*
X125290281Y-77216874D01*
X125288731Y-77226663D01*
X125288730Y-77226665D01*
X125270747Y-77340207D01*
X125269196Y-77350000D01*
X114929785Y-77350000D01*
X114965500Y-77228367D01*
X114965500Y-77091633D01*
X114926978Y-76960439D01*
X114860510Y-76857011D01*
X114857929Y-76852995D01*
X114857929Y-76852994D01*
X114853055Y-76845411D01*
X114846245Y-76839510D01*
X114846243Y-76839508D01*
X114756531Y-76761773D01*
X114756529Y-76761772D01*
X114749718Y-76755870D01*
X114663964Y-76716707D01*
X114633539Y-76702812D01*
X114633536Y-76702811D01*
X114625342Y-76699069D01*
X114608164Y-76696599D01*
X114528459Y-76685139D01*
X114528452Y-76685138D01*
X114524011Y-76684500D01*
X114455989Y-76684500D01*
X114451548Y-76685138D01*
X114451541Y-76685139D01*
X114371836Y-76696599D01*
X114354658Y-76699069D01*
X114346464Y-76702811D01*
X114346461Y-76702812D01*
X114316036Y-76716707D01*
X114230282Y-76755870D01*
X114223471Y-76761772D01*
X114223469Y-76761773D01*
X114165581Y-76811933D01*
X114101000Y-76841426D01*
X114082829Y-76838813D01*
X114089617Y-76857011D01*
X114074526Y-76926385D01*
X114069936Y-76934119D01*
X114053022Y-76960439D01*
X114014500Y-77091633D01*
X114014500Y-77228367D01*
X109551000Y-77228367D01*
X109551000Y-76050000D01*
X111769196Y-76050000D01*
X111770747Y-76059793D01*
X111788075Y-76169196D01*
X111790281Y-76183126D01*
X111851472Y-76303220D01*
X111946780Y-76398528D01*
X112066874Y-76459719D01*
X112076663Y-76461269D01*
X112076665Y-76461270D01*
X112190207Y-76479253D01*
X112200000Y-76480804D01*
X112209793Y-76479253D01*
X112323335Y-76461270D01*
X112323337Y-76461269D01*
X112333126Y-76459719D01*
X112352201Y-76450000D01*
X113169196Y-76450000D01*
X113170747Y-76459793D01*
X113181478Y-76527543D01*
X113190281Y-76583126D01*
X113251472Y-76703220D01*
X113346780Y-76798528D01*
X113466874Y-76859719D01*
X113476663Y-76861269D01*
X113476665Y-76861270D01*
X113590207Y-76879253D01*
X113600000Y-76880804D01*
X113609793Y-76879253D01*
X113723335Y-76861270D01*
X113723337Y-76861269D01*
X113733126Y-76859719D01*
X113853220Y-76798528D01*
X113874843Y-76776905D01*
X113937155Y-76742879D01*
X113965346Y-76744895D01*
X113957069Y-76716707D01*
X113968282Y-76670000D01*
X115624353Y-76670000D01*
X115644835Y-76812457D01*
X115648577Y-76820651D01*
X115648578Y-76820654D01*
X115665182Y-76857011D01*
X115704623Y-76943373D01*
X115710525Y-76950184D01*
X115710526Y-76950186D01*
X115779038Y-77029253D01*
X115798872Y-77052143D01*
X115806449Y-77057013D01*
X115806452Y-77057015D01*
X115912367Y-77125082D01*
X115912369Y-77125083D01*
X115919947Y-77129953D01*
X115928591Y-77132491D01*
X115928593Y-77132492D01*
X116049394Y-77167962D01*
X116049396Y-77167962D01*
X116058039Y-77170500D01*
X116201961Y-77170500D01*
X116210604Y-77167962D01*
X116210606Y-77167962D01*
X116331407Y-77132492D01*
X116331409Y-77132491D01*
X116340053Y-77129953D01*
X116347631Y-77125083D01*
X116347633Y-77125082D01*
X116453548Y-77057015D01*
X116453551Y-77057013D01*
X116461128Y-77052143D01*
X116480962Y-77029253D01*
X116549474Y-76950186D01*
X116549475Y-76950184D01*
X116555377Y-76943373D01*
X116594818Y-76857011D01*
X116611422Y-76820654D01*
X116611423Y-76820651D01*
X116615165Y-76812457D01*
X116635647Y-76670000D01*
X116625583Y-76600000D01*
X119319196Y-76600000D01*
X119320747Y-76609793D01*
X119334146Y-76694388D01*
X119340281Y-76733126D01*
X119401472Y-76853220D01*
X119496780Y-76948528D01*
X119616874Y-77009719D01*
X119626663Y-77011269D01*
X119626665Y-77011270D01*
X119740207Y-77029253D01*
X119750000Y-77030804D01*
X119759793Y-77029253D01*
X119873335Y-77011270D01*
X119873337Y-77011269D01*
X119883126Y-77009719D01*
X120003220Y-76948528D01*
X120098528Y-76853220D01*
X120159719Y-76733126D01*
X120165855Y-76694388D01*
X120179253Y-76609793D01*
X120180804Y-76600000D01*
X124419196Y-76600000D01*
X124420747Y-76609793D01*
X124434146Y-76694388D01*
X124440281Y-76733126D01*
X124501472Y-76853220D01*
X124596780Y-76948528D01*
X124716874Y-77009719D01*
X124726663Y-77011269D01*
X124726665Y-77011270D01*
X124840207Y-77029253D01*
X124850000Y-77030804D01*
X124859793Y-77029253D01*
X124973335Y-77011270D01*
X124973337Y-77011269D01*
X124983126Y-77009719D01*
X125103220Y-76948528D01*
X125198528Y-76853220D01*
X125225645Y-76800000D01*
X126219196Y-76800000D01*
X126220747Y-76809793D01*
X126238075Y-76919196D01*
X126240281Y-76933126D01*
X126244782Y-76941959D01*
X126248329Y-76948921D01*
X126261433Y-77018698D01*
X126257276Y-77028940D01*
X126303033Y-77054781D01*
X126396780Y-77148528D01*
X126516874Y-77209719D01*
X126526663Y-77211269D01*
X126526665Y-77211270D01*
X126640207Y-77229253D01*
X126650000Y-77230804D01*
X126659793Y-77229253D01*
X126773335Y-77211270D01*
X126773337Y-77211269D01*
X126783126Y-77209719D01*
X126903220Y-77148528D01*
X126998528Y-77053220D01*
X127059719Y-76933126D01*
X127061926Y-76919196D01*
X127079253Y-76809793D01*
X127080804Y-76800000D01*
X127669196Y-76800000D01*
X127670747Y-76809793D01*
X127688075Y-76919196D01*
X127690281Y-76933126D01*
X127751472Y-77053220D01*
X127846780Y-77148528D01*
X127966874Y-77209719D01*
X127976663Y-77211269D01*
X127976665Y-77211270D01*
X128090207Y-77229253D01*
X128100000Y-77230804D01*
X128109793Y-77229253D01*
X128223335Y-77211270D01*
X128223337Y-77211269D01*
X128233126Y-77209719D01*
X128353220Y-77148528D01*
X128448528Y-77053220D01*
X128509719Y-76933126D01*
X128511926Y-76919196D01*
X128529253Y-76809793D01*
X128530804Y-76800000D01*
X129169196Y-76800000D01*
X129170747Y-76809793D01*
X129188075Y-76919196D01*
X129190281Y-76933126D01*
X129251472Y-77053220D01*
X129346780Y-77148528D01*
X129466874Y-77209719D01*
X129476663Y-77211269D01*
X129476665Y-77211270D01*
X129590207Y-77229253D01*
X129600000Y-77230804D01*
X129609793Y-77229253D01*
X129723335Y-77211270D01*
X129723337Y-77211269D01*
X129733126Y-77209719D01*
X129853220Y-77148528D01*
X129948528Y-77053220D01*
X130009719Y-76933126D01*
X130011926Y-76919196D01*
X130029253Y-76809793D01*
X130030804Y-76800000D01*
X130619196Y-76800000D01*
X130620747Y-76809793D01*
X130638075Y-76919196D01*
X130640281Y-76933126D01*
X130701472Y-77053220D01*
X130796780Y-77148528D01*
X130916874Y-77209719D01*
X130926663Y-77211269D01*
X130926665Y-77211270D01*
X131040207Y-77229253D01*
X131050000Y-77230804D01*
X131059793Y-77229253D01*
X131173335Y-77211270D01*
X131173337Y-77211269D01*
X131183126Y-77209719D01*
X131303220Y-77148528D01*
X131398528Y-77053220D01*
X131459719Y-76933126D01*
X131461926Y-76919196D01*
X131479253Y-76809793D01*
X131480804Y-76800000D01*
X132119196Y-76800000D01*
X132120747Y-76809793D01*
X132138075Y-76919196D01*
X132140281Y-76933126D01*
X132201472Y-77053220D01*
X132296780Y-77148528D01*
X132416874Y-77209719D01*
X132426663Y-77211269D01*
X132426665Y-77211270D01*
X132540207Y-77229253D01*
X132550000Y-77230804D01*
X132559793Y-77229253D01*
X132673335Y-77211270D01*
X132673337Y-77211269D01*
X132683126Y-77209719D01*
X132803220Y-77148528D01*
X132898528Y-77053220D01*
X132959719Y-76933126D01*
X132961926Y-76919196D01*
X132979253Y-76809793D01*
X132980804Y-76800000D01*
X132977146Y-76776905D01*
X132961270Y-76676665D01*
X132961269Y-76676663D01*
X132959719Y-76666874D01*
X132898528Y-76546780D01*
X132803220Y-76451472D01*
X132683126Y-76390281D01*
X132673337Y-76388731D01*
X132673335Y-76388730D01*
X132559793Y-76370747D01*
X132550000Y-76369196D01*
X132540207Y-76370747D01*
X132426665Y-76388730D01*
X132426663Y-76388731D01*
X132416874Y-76390281D01*
X132296780Y-76451472D01*
X132201472Y-76546780D01*
X132140281Y-76666874D01*
X132138731Y-76676663D01*
X132138730Y-76676665D01*
X132122854Y-76776905D01*
X132119196Y-76800000D01*
X131480804Y-76800000D01*
X131477146Y-76776905D01*
X131461270Y-76676665D01*
X131461269Y-76676663D01*
X131459719Y-76666874D01*
X131398528Y-76546780D01*
X131303220Y-76451472D01*
X131183126Y-76390281D01*
X131173337Y-76388731D01*
X131173335Y-76388730D01*
X131059793Y-76370747D01*
X131050000Y-76369196D01*
X131040207Y-76370747D01*
X130926665Y-76388730D01*
X130926663Y-76388731D01*
X130916874Y-76390281D01*
X130796780Y-76451472D01*
X130701472Y-76546780D01*
X130640281Y-76666874D01*
X130638731Y-76676663D01*
X130638730Y-76676665D01*
X130622854Y-76776905D01*
X130619196Y-76800000D01*
X130030804Y-76800000D01*
X130027146Y-76776905D01*
X130011270Y-76676665D01*
X130011269Y-76676663D01*
X130009719Y-76666874D01*
X129948528Y-76546780D01*
X129853220Y-76451472D01*
X129733126Y-76390281D01*
X129723337Y-76388731D01*
X129723335Y-76388730D01*
X129609793Y-76370747D01*
X129600000Y-76369196D01*
X129590207Y-76370747D01*
X129476665Y-76388730D01*
X129476663Y-76388731D01*
X129466874Y-76390281D01*
X129346780Y-76451472D01*
X129251472Y-76546780D01*
X129190281Y-76666874D01*
X129188731Y-76676663D01*
X129188730Y-76676665D01*
X129172854Y-76776905D01*
X129169196Y-76800000D01*
X128530804Y-76800000D01*
X128527146Y-76776905D01*
X128511270Y-76676665D01*
X128511269Y-76676663D01*
X128509719Y-76666874D01*
X128448528Y-76546780D01*
X128353220Y-76451472D01*
X128233126Y-76390281D01*
X128223337Y-76388731D01*
X128223335Y-76388730D01*
X128109793Y-76370747D01*
X128100000Y-76369196D01*
X128090207Y-76370747D01*
X127976665Y-76388730D01*
X127976663Y-76388731D01*
X127966874Y-76390281D01*
X127846780Y-76451472D01*
X127751472Y-76546780D01*
X127690281Y-76666874D01*
X127688731Y-76676663D01*
X127688730Y-76676665D01*
X127672854Y-76776905D01*
X127669196Y-76800000D01*
X127080804Y-76800000D01*
X127077146Y-76776905D01*
X127061270Y-76676665D01*
X127061269Y-76676663D01*
X127059719Y-76666874D01*
X126998528Y-76546780D01*
X126903220Y-76451472D01*
X126783126Y-76390281D01*
X126773337Y-76388731D01*
X126773335Y-76388730D01*
X126659793Y-76370747D01*
X126650000Y-76369196D01*
X126640207Y-76370747D01*
X126526665Y-76388730D01*
X126526663Y-76388731D01*
X126516874Y-76390281D01*
X126396780Y-76451472D01*
X126301472Y-76546780D01*
X126240281Y-76666874D01*
X126238731Y-76676663D01*
X126238730Y-76676665D01*
X126222854Y-76776905D01*
X126219196Y-76800000D01*
X125225645Y-76800000D01*
X125259719Y-76733126D01*
X125265855Y-76694388D01*
X125279253Y-76609793D01*
X125280804Y-76600000D01*
X125272375Y-76546780D01*
X125261270Y-76476665D01*
X125261269Y-76476663D01*
X125259719Y-76466874D01*
X125198528Y-76346780D01*
X125103220Y-76251472D01*
X124983126Y-76190281D01*
X124973337Y-76188731D01*
X124973335Y-76188730D01*
X124859793Y-76170747D01*
X124850000Y-76169196D01*
X124840207Y-76170747D01*
X124726665Y-76188730D01*
X124726663Y-76188731D01*
X124716874Y-76190281D01*
X124596780Y-76251472D01*
X124501472Y-76346780D01*
X124440281Y-76466874D01*
X124438731Y-76476663D01*
X124438730Y-76476665D01*
X124427625Y-76546780D01*
X124419196Y-76600000D01*
X120180804Y-76600000D01*
X120172375Y-76546780D01*
X120161270Y-76476665D01*
X120161269Y-76476663D01*
X120159719Y-76466874D01*
X120098528Y-76346780D01*
X120003220Y-76251472D01*
X119883126Y-76190281D01*
X119873337Y-76188731D01*
X119873335Y-76188730D01*
X119759793Y-76170747D01*
X119750000Y-76169196D01*
X119740207Y-76170747D01*
X119626665Y-76188730D01*
X119626663Y-76188731D01*
X119616874Y-76190281D01*
X119496780Y-76251472D01*
X119401472Y-76346780D01*
X119340281Y-76466874D01*
X119338731Y-76476663D01*
X119338730Y-76476665D01*
X119327625Y-76546780D01*
X119319196Y-76600000D01*
X116625583Y-76600000D01*
X116615165Y-76527543D01*
X116593112Y-76479253D01*
X116578369Y-76446972D01*
X116555377Y-76396627D01*
X116548535Y-76388730D01*
X116467029Y-76294667D01*
X116467028Y-76294666D01*
X116461128Y-76287857D01*
X116453551Y-76282987D01*
X116453548Y-76282985D01*
X116347633Y-76214918D01*
X116347631Y-76214917D01*
X116340053Y-76210047D01*
X116331409Y-76207509D01*
X116331407Y-76207508D01*
X116210606Y-76172038D01*
X116210604Y-76172038D01*
X116201961Y-76169500D01*
X116058039Y-76169500D01*
X116049396Y-76172038D01*
X116049394Y-76172038D01*
X115928593Y-76207508D01*
X115928591Y-76207509D01*
X115919947Y-76210047D01*
X115912369Y-76214917D01*
X115912367Y-76214918D01*
X115806452Y-76282985D01*
X115806449Y-76282987D01*
X115798872Y-76287857D01*
X115792972Y-76294666D01*
X115792971Y-76294667D01*
X115711466Y-76388730D01*
X115704623Y-76396627D01*
X115681631Y-76446972D01*
X115666889Y-76479253D01*
X115644835Y-76527543D01*
X115624353Y-76670000D01*
X113968282Y-76670000D01*
X113970802Y-76659505D01*
X114005218Y-76591959D01*
X114009719Y-76583126D01*
X114018523Y-76527543D01*
X114029253Y-76459793D01*
X114030804Y-76450000D01*
X114029253Y-76440207D01*
X114011270Y-76326665D01*
X114011269Y-76326663D01*
X114009719Y-76316874D01*
X113948528Y-76196780D01*
X113853220Y-76101472D01*
X113733126Y-76040281D01*
X113723337Y-76038731D01*
X113723335Y-76038730D01*
X113609793Y-76020747D01*
X113600000Y-76019196D01*
X113590207Y-76020747D01*
X113476665Y-76038730D01*
X113476663Y-76038731D01*
X113466874Y-76040281D01*
X113346780Y-76101472D01*
X113251472Y-76196780D01*
X113190281Y-76316874D01*
X113188731Y-76326663D01*
X113188730Y-76326665D01*
X113170747Y-76440207D01*
X113169196Y-76450000D01*
X112352201Y-76450000D01*
X112453220Y-76398528D01*
X112548528Y-76303220D01*
X112609719Y-76183126D01*
X112611926Y-76169196D01*
X112629253Y-76059793D01*
X112630804Y-76050000D01*
X112609719Y-75916874D01*
X112548528Y-75796780D01*
X112453220Y-75701472D01*
X112333126Y-75640281D01*
X112323337Y-75638731D01*
X112323335Y-75638730D01*
X112209793Y-75620747D01*
X112200000Y-75619196D01*
X112190207Y-75620747D01*
X112076665Y-75638730D01*
X112076663Y-75638731D01*
X112066874Y-75640281D01*
X111946780Y-75701472D01*
X111851472Y-75796780D01*
X111790281Y-75916874D01*
X111769196Y-76050000D01*
X109551000Y-76050000D01*
X109551000Y-75350000D01*
X119319196Y-75350000D01*
X119340281Y-75483126D01*
X119401472Y-75603220D01*
X119496780Y-75698528D01*
X119616874Y-75759719D01*
X119626663Y-75761269D01*
X119626665Y-75761270D01*
X119740207Y-75779253D01*
X119750000Y-75780804D01*
X119759793Y-75779253D01*
X119873335Y-75761270D01*
X119873337Y-75761269D01*
X119883126Y-75759719D01*
X120003220Y-75698528D01*
X120098528Y-75603220D01*
X120159719Y-75483126D01*
X120180804Y-75350000D01*
X124419196Y-75350000D01*
X124440281Y-75483126D01*
X124501472Y-75603220D01*
X124596780Y-75698528D01*
X124716874Y-75759719D01*
X124726663Y-75761269D01*
X124726665Y-75761270D01*
X124840207Y-75779253D01*
X124850000Y-75780804D01*
X124859793Y-75779253D01*
X124973335Y-75761270D01*
X124973337Y-75761269D01*
X124983126Y-75759719D01*
X125100331Y-75700000D01*
X134769196Y-75700000D01*
X134770747Y-75709793D01*
X134778655Y-75759719D01*
X134790281Y-75833126D01*
X134851472Y-75953220D01*
X134946780Y-76048528D01*
X135066874Y-76109719D01*
X135076663Y-76111269D01*
X135076665Y-76111270D01*
X135190207Y-76129253D01*
X135200000Y-76130804D01*
X135209793Y-76129253D01*
X135323335Y-76111270D01*
X135323337Y-76111269D01*
X135333126Y-76109719D01*
X135453220Y-76048528D01*
X135548528Y-75953220D01*
X135609719Y-75833126D01*
X135621346Y-75759719D01*
X135629253Y-75709793D01*
X135630804Y-75700000D01*
X135629253Y-75690207D01*
X135611270Y-75576665D01*
X135611269Y-75576663D01*
X135609719Y-75566874D01*
X135548528Y-75446780D01*
X135453220Y-75351472D01*
X135333126Y-75290281D01*
X135323337Y-75288731D01*
X135323335Y-75288730D01*
X135209793Y-75270747D01*
X135200000Y-75269196D01*
X135190207Y-75270747D01*
X135076665Y-75288730D01*
X135076663Y-75288731D01*
X135066874Y-75290281D01*
X134946780Y-75351472D01*
X134851472Y-75446780D01*
X134790281Y-75566874D01*
X134788731Y-75576663D01*
X134788730Y-75576665D01*
X134770747Y-75690207D01*
X134769196Y-75700000D01*
X125100331Y-75700000D01*
X125103220Y-75698528D01*
X125198528Y-75603220D01*
X125259719Y-75483126D01*
X125280804Y-75350000D01*
X125279253Y-75340207D01*
X125261270Y-75226665D01*
X125261269Y-75226663D01*
X125259719Y-75216874D01*
X125198528Y-75096780D01*
X125103220Y-75001472D01*
X124983126Y-74940281D01*
X124973337Y-74938731D01*
X124973335Y-74938730D01*
X124859793Y-74920747D01*
X124850000Y-74919196D01*
X124840207Y-74920747D01*
X124726665Y-74938730D01*
X124726663Y-74938731D01*
X124716874Y-74940281D01*
X124596780Y-75001472D01*
X124501472Y-75096780D01*
X124440281Y-75216874D01*
X124438731Y-75226663D01*
X124438730Y-75226665D01*
X124420747Y-75340207D01*
X124419196Y-75350000D01*
X120180804Y-75350000D01*
X120179253Y-75340207D01*
X120161270Y-75226665D01*
X120161269Y-75226663D01*
X120159719Y-75216874D01*
X120098528Y-75096780D01*
X120015843Y-75014095D01*
X119981817Y-74951783D01*
X119986882Y-74880968D01*
X120015843Y-74835905D01*
X120098528Y-74753220D01*
X120159719Y-74633126D01*
X120180804Y-74500000D01*
X120177518Y-74479253D01*
X120161270Y-74376665D01*
X120161269Y-74376663D01*
X120159719Y-74366874D01*
X120098528Y-74246780D01*
X120003220Y-74151472D01*
X119883126Y-74090281D01*
X119873337Y-74088731D01*
X119873335Y-74088730D01*
X119759793Y-74070747D01*
X119750000Y-74069196D01*
X119740207Y-74070747D01*
X119626665Y-74088730D01*
X119626663Y-74088731D01*
X119616874Y-74090281D01*
X119496780Y-74151472D01*
X119401472Y-74246780D01*
X119340281Y-74366874D01*
X119338731Y-74376663D01*
X119338730Y-74376665D01*
X119322482Y-74479253D01*
X119319196Y-74500000D01*
X119340281Y-74633126D01*
X119401472Y-74753220D01*
X119484157Y-74835905D01*
X119518183Y-74898217D01*
X119513118Y-74969032D01*
X119484157Y-75014095D01*
X119401472Y-75096780D01*
X119340281Y-75216874D01*
X119338731Y-75226663D01*
X119338730Y-75226665D01*
X119320747Y-75340207D01*
X119319196Y-75350000D01*
X109551000Y-75350000D01*
X109551000Y-74740323D01*
X113161178Y-74740323D01*
X113162729Y-74750116D01*
X113176317Y-74835905D01*
X113182263Y-74873449D01*
X113243454Y-74993543D01*
X113338762Y-75088851D01*
X113458856Y-75150042D01*
X113468645Y-75151592D01*
X113468647Y-75151593D01*
X113582189Y-75169576D01*
X113591982Y-75171127D01*
X113601775Y-75169576D01*
X113715317Y-75151593D01*
X113715319Y-75151592D01*
X113725108Y-75150042D01*
X113845202Y-75088851D01*
X113940510Y-74993543D01*
X114001701Y-74873449D01*
X114007648Y-74835905D01*
X114014339Y-74793656D01*
X114044752Y-74729503D01*
X114105020Y-74691976D01*
X114119077Y-74688918D01*
X114189079Y-74677831D01*
X114189081Y-74677830D01*
X114198870Y-74676280D01*
X114318964Y-74615089D01*
X114414272Y-74519781D01*
X114475463Y-74399687D01*
X114478668Y-74379455D01*
X114494997Y-74276354D01*
X114496548Y-74266561D01*
X114488101Y-74213228D01*
X114477014Y-74143226D01*
X114477013Y-74143224D01*
X114475463Y-74133435D01*
X114414272Y-74013341D01*
X114318964Y-73918033D01*
X114198870Y-73856842D01*
X114189081Y-73855292D01*
X114189079Y-73855291D01*
X114075537Y-73837308D01*
X114065744Y-73835757D01*
X114055951Y-73837308D01*
X113942409Y-73855291D01*
X113942407Y-73855292D01*
X113932618Y-73856842D01*
X113812524Y-73918033D01*
X113717216Y-74013341D01*
X113656025Y-74133435D01*
X113654475Y-74143224D01*
X113654474Y-74143226D01*
X113643387Y-74213228D01*
X113612974Y-74277381D01*
X113552706Y-74314908D01*
X113538649Y-74317966D01*
X113468647Y-74329053D01*
X113468645Y-74329054D01*
X113458856Y-74330604D01*
X113338762Y-74391795D01*
X113243454Y-74487103D01*
X113182263Y-74607197D01*
X113161178Y-74740323D01*
X109551000Y-74740323D01*
X109551000Y-73463119D01*
X117082315Y-73463119D01*
X117103400Y-73596245D01*
X117164591Y-73716339D01*
X117259899Y-73811647D01*
X117379993Y-73872838D01*
X117389782Y-73874388D01*
X117389784Y-73874389D01*
X117459786Y-73885476D01*
X117523939Y-73915889D01*
X117561466Y-73976157D01*
X117564524Y-73990214D01*
X117567077Y-74006330D01*
X117577162Y-74070007D01*
X117638353Y-74190101D01*
X117733661Y-74285409D01*
X117853755Y-74346600D01*
X117863544Y-74348150D01*
X117863546Y-74348151D01*
X117977088Y-74366134D01*
X117986881Y-74367685D01*
X117996674Y-74366134D01*
X118110216Y-74348151D01*
X118110218Y-74348150D01*
X118120007Y-74346600D01*
X118240101Y-74285409D01*
X118335409Y-74190101D01*
X118396600Y-74070007D01*
X118399769Y-74050000D01*
X124419196Y-74050000D01*
X124420747Y-74059793D01*
X124436574Y-74159719D01*
X124440281Y-74183126D01*
X124501472Y-74303220D01*
X124596780Y-74398528D01*
X124716874Y-74459719D01*
X124726663Y-74461269D01*
X124726665Y-74461270D01*
X124840207Y-74479253D01*
X124850000Y-74480804D01*
X124859793Y-74479253D01*
X124973335Y-74461270D01*
X124973337Y-74461269D01*
X124983126Y-74459719D01*
X125103220Y-74398528D01*
X125188827Y-74312921D01*
X135695619Y-74312921D01*
X135697371Y-74321351D01*
X135697371Y-74321354D01*
X135724655Y-74452651D01*
X135726408Y-74461085D01*
X135796029Y-74595447D01*
X135801911Y-74601745D01*
X135867319Y-74671779D01*
X135899320Y-74706044D01*
X135954813Y-74739790D01*
X136021255Y-74780195D01*
X136021258Y-74780196D01*
X136028618Y-74784672D01*
X136174335Y-74825500D01*
X136287658Y-74825500D01*
X136341350Y-74818120D01*
X136391374Y-74811245D01*
X136391377Y-74811244D01*
X136399920Y-74810070D01*
X136458391Y-74784672D01*
X136530813Y-74753215D01*
X136530816Y-74753213D01*
X136538720Y-74749780D01*
X136545404Y-74744342D01*
X136545406Y-74744341D01*
X136613083Y-74689281D01*
X136656108Y-74654278D01*
X136743377Y-74530647D01*
X136757750Y-74490207D01*
X136791168Y-74396177D01*
X136791168Y-74396176D01*
X136794054Y-74388056D01*
X136804381Y-74237079D01*
X136793170Y-74183126D01*
X136775345Y-74097349D01*
X136775344Y-74097346D01*
X136773592Y-74088915D01*
X136703971Y-73954553D01*
X136672019Y-73920341D01*
X136606563Y-73850255D01*
X136600680Y-73843956D01*
X136520047Y-73794922D01*
X136478745Y-73769805D01*
X136478742Y-73769804D01*
X136471382Y-73765328D01*
X136325665Y-73724500D01*
X136212342Y-73724500D01*
X136158650Y-73731880D01*
X136108626Y-73738755D01*
X136108623Y-73738756D01*
X136100080Y-73739930D01*
X136080286Y-73748528D01*
X135969187Y-73796785D01*
X135969184Y-73796787D01*
X135961280Y-73800220D01*
X135954596Y-73805658D01*
X135954594Y-73805659D01*
X135923687Y-73830804D01*
X135843892Y-73895722D01*
X135756623Y-74019353D01*
X135753739Y-74027469D01*
X135753737Y-74027472D01*
X135719217Y-74124602D01*
X135705946Y-74161944D01*
X135702438Y-74213228D01*
X135696283Y-74303220D01*
X135695619Y-74312921D01*
X125188827Y-74312921D01*
X125198528Y-74303220D01*
X125259719Y-74183126D01*
X125263427Y-74159719D01*
X125279253Y-74059793D01*
X125280804Y-74050000D01*
X125271335Y-73990214D01*
X125261270Y-73926665D01*
X125261269Y-73926663D01*
X125259719Y-73916874D01*
X125198528Y-73796780D01*
X125103220Y-73701472D01*
X124983126Y-73640281D01*
X124973337Y-73638731D01*
X124973335Y-73638730D01*
X124859793Y-73620747D01*
X124850000Y-73619196D01*
X124840207Y-73620747D01*
X124726665Y-73638730D01*
X124726663Y-73638731D01*
X124716874Y-73640281D01*
X124596780Y-73701472D01*
X124501472Y-73796780D01*
X124440281Y-73916874D01*
X124438731Y-73926663D01*
X124438730Y-73926665D01*
X124428665Y-73990214D01*
X124419196Y-74050000D01*
X118399769Y-74050000D01*
X118406686Y-74006330D01*
X118416134Y-73946674D01*
X118417685Y-73936881D01*
X118405008Y-73856842D01*
X118398151Y-73813546D01*
X118398150Y-73813544D01*
X118396600Y-73803755D01*
X118335409Y-73683661D01*
X118240101Y-73588353D01*
X118120007Y-73527162D01*
X118110218Y-73525612D01*
X118110216Y-73525611D01*
X118040214Y-73514524D01*
X117976061Y-73484111D01*
X117938534Y-73423843D01*
X117935476Y-73409786D01*
X117933926Y-73400000D01*
X126419196Y-73400000D01*
X126420747Y-73409793D01*
X126437335Y-73514524D01*
X126440281Y-73533126D01*
X126501472Y-73653220D01*
X126596780Y-73748528D01*
X126716874Y-73809719D01*
X126726663Y-73811269D01*
X126726665Y-73811270D01*
X126840207Y-73829253D01*
X126850000Y-73830804D01*
X126859793Y-73829253D01*
X126973335Y-73811270D01*
X126973337Y-73811269D01*
X126983126Y-73809719D01*
X127100331Y-73750000D01*
X131019196Y-73750000D01*
X131020747Y-73759793D01*
X131038652Y-73872838D01*
X131040281Y-73883126D01*
X131101472Y-74003220D01*
X131196780Y-74098528D01*
X131316874Y-74159719D01*
X131326663Y-74161269D01*
X131326665Y-74161270D01*
X131440207Y-74179253D01*
X131450000Y-74180804D01*
X131459793Y-74179253D01*
X131573335Y-74161270D01*
X131573337Y-74161269D01*
X131583126Y-74159719D01*
X131703220Y-74098528D01*
X131798528Y-74003220D01*
X131859719Y-73883126D01*
X131861349Y-73872838D01*
X131879253Y-73759793D01*
X131880804Y-73750000D01*
X131864077Y-73644388D01*
X131861270Y-73626665D01*
X131861269Y-73626663D01*
X131859719Y-73616874D01*
X131798528Y-73496780D01*
X131703220Y-73401472D01*
X131583126Y-73340281D01*
X131573337Y-73338731D01*
X131573335Y-73338730D01*
X131459793Y-73320747D01*
X131450000Y-73319196D01*
X131440207Y-73320747D01*
X131326665Y-73338730D01*
X131326663Y-73338731D01*
X131316874Y-73340281D01*
X131196780Y-73401472D01*
X131101472Y-73496780D01*
X131040281Y-73616874D01*
X131038731Y-73626663D01*
X131038730Y-73626665D01*
X131035923Y-73644388D01*
X131019196Y-73750000D01*
X127100331Y-73750000D01*
X127103220Y-73748528D01*
X127198528Y-73653220D01*
X127259719Y-73533126D01*
X127262666Y-73514524D01*
X127279253Y-73409793D01*
X127280804Y-73400000D01*
X127279253Y-73390207D01*
X127261270Y-73276665D01*
X127261269Y-73276663D01*
X127259719Y-73266874D01*
X127198528Y-73146780D01*
X127103220Y-73051472D01*
X126983126Y-72990281D01*
X126973337Y-72988731D01*
X126973335Y-72988730D01*
X126859793Y-72970747D01*
X126850000Y-72969196D01*
X126840207Y-72970747D01*
X126726665Y-72988730D01*
X126726663Y-72988731D01*
X126716874Y-72990281D01*
X126596780Y-73051472D01*
X126501472Y-73146780D01*
X126440281Y-73266874D01*
X126438731Y-73276663D01*
X126438730Y-73276665D01*
X126420747Y-73390207D01*
X126419196Y-73400000D01*
X117933926Y-73400000D01*
X117924389Y-73339784D01*
X117924388Y-73339782D01*
X117922838Y-73329993D01*
X117861647Y-73209899D01*
X117766339Y-73114591D01*
X117646245Y-73053400D01*
X117636456Y-73051850D01*
X117636454Y-73051849D01*
X117522912Y-73033866D01*
X117513119Y-73032315D01*
X117503326Y-73033866D01*
X117389784Y-73051849D01*
X117389782Y-73051850D01*
X117379993Y-73053400D01*
X117259899Y-73114591D01*
X117164591Y-73209899D01*
X117103400Y-73329993D01*
X117101850Y-73339782D01*
X117101849Y-73339784D01*
X117092312Y-73400000D01*
X117082315Y-73463119D01*
X109551000Y-73463119D01*
X109551000Y-72800000D01*
X119319196Y-72800000D01*
X119340281Y-72933126D01*
X119401472Y-73053220D01*
X119496780Y-73148528D01*
X119616874Y-73209719D01*
X119626663Y-73211269D01*
X119626665Y-73211270D01*
X119740207Y-73229253D01*
X119750000Y-73230804D01*
X119759793Y-73229253D01*
X119873335Y-73211270D01*
X119873337Y-73211269D01*
X119883126Y-73209719D01*
X120003220Y-73148528D01*
X120098528Y-73053220D01*
X120159719Y-72933126D01*
X120180804Y-72800000D01*
X120179253Y-72790207D01*
X120161270Y-72676665D01*
X120161269Y-72676663D01*
X120159719Y-72666874D01*
X120098528Y-72546780D01*
X120003220Y-72451472D01*
X119883126Y-72390281D01*
X119873337Y-72388731D01*
X119873335Y-72388730D01*
X119759793Y-72370747D01*
X119750000Y-72369196D01*
X119740207Y-72370747D01*
X119626665Y-72388730D01*
X119626663Y-72388731D01*
X119616874Y-72390281D01*
X119496780Y-72451472D01*
X119401472Y-72546780D01*
X119340281Y-72666874D01*
X119338731Y-72676663D01*
X119338730Y-72676665D01*
X119320747Y-72790207D01*
X119319196Y-72800000D01*
X109551000Y-72800000D01*
X109551000Y-71870000D01*
X115574353Y-71870000D01*
X115594835Y-72012457D01*
X115654623Y-72143373D01*
X115660525Y-72150184D01*
X115660526Y-72150186D01*
X115685713Y-72179253D01*
X115748872Y-72252143D01*
X115756449Y-72257013D01*
X115756452Y-72257015D01*
X115862367Y-72325082D01*
X115862369Y-72325083D01*
X115869947Y-72329953D01*
X115878591Y-72332491D01*
X115878593Y-72332492D01*
X115999394Y-72367962D01*
X115999396Y-72367962D01*
X116008039Y-72370500D01*
X116151961Y-72370500D01*
X116160604Y-72367962D01*
X116160606Y-72367962D01*
X116281407Y-72332492D01*
X116281409Y-72332491D01*
X116290053Y-72329953D01*
X116297631Y-72325083D01*
X116297633Y-72325082D01*
X116403548Y-72257015D01*
X116403551Y-72257013D01*
X116411128Y-72252143D01*
X116474287Y-72179253D01*
X116499474Y-72150186D01*
X116499475Y-72150184D01*
X116505377Y-72143373D01*
X116565165Y-72012457D01*
X116566956Y-72000000D01*
X120419196Y-72000000D01*
X120440281Y-72133126D01*
X120501472Y-72253220D01*
X120596780Y-72348528D01*
X120716874Y-72409719D01*
X120726663Y-72411269D01*
X120726665Y-72411270D01*
X120840207Y-72429253D01*
X120850000Y-72430804D01*
X120859793Y-72429253D01*
X120973335Y-72411270D01*
X120973337Y-72411269D01*
X120983126Y-72409719D01*
X121103220Y-72348528D01*
X121104890Y-72346858D01*
X121167806Y-72324410D01*
X121236957Y-72340489D01*
X121241949Y-72343697D01*
X121246780Y-72348528D01*
X121366874Y-72409719D01*
X121376663Y-72411269D01*
X121376665Y-72411270D01*
X121490207Y-72429253D01*
X121500000Y-72430804D01*
X121509793Y-72429253D01*
X121623335Y-72411270D01*
X121623337Y-72411269D01*
X121633126Y-72409719D01*
X121753220Y-72348528D01*
X121760905Y-72340843D01*
X121761925Y-72340286D01*
X121768252Y-72335689D01*
X121768846Y-72336507D01*
X121823217Y-72306817D01*
X121894032Y-72311882D01*
X121931534Y-72335984D01*
X121931748Y-72335689D01*
X121936900Y-72339432D01*
X121939095Y-72340843D01*
X121946780Y-72348528D01*
X122066874Y-72409719D01*
X122076663Y-72411269D01*
X122076665Y-72411270D01*
X122190207Y-72429253D01*
X122200000Y-72430804D01*
X122209793Y-72429253D01*
X122323335Y-72411270D01*
X122323337Y-72411269D01*
X122333126Y-72409719D01*
X122352201Y-72400000D01*
X132319196Y-72400000D01*
X132320747Y-72409793D01*
X132326636Y-72446972D01*
X132340281Y-72533126D01*
X132401472Y-72653220D01*
X132496780Y-72748528D01*
X132616874Y-72809719D01*
X132626663Y-72811269D01*
X132626665Y-72811270D01*
X132740207Y-72829253D01*
X132750000Y-72830804D01*
X132759793Y-72829253D01*
X132873335Y-72811270D01*
X132873337Y-72811269D01*
X132883126Y-72809719D01*
X133003220Y-72748528D01*
X133098528Y-72653220D01*
X133159719Y-72533126D01*
X133173365Y-72446972D01*
X133179253Y-72409793D01*
X133180804Y-72400000D01*
X133173365Y-72353031D01*
X133161270Y-72276665D01*
X133161269Y-72276663D01*
X133159719Y-72266874D01*
X133098528Y-72146780D01*
X133096858Y-72145110D01*
X133074410Y-72082194D01*
X133090489Y-72013043D01*
X133093697Y-72008051D01*
X133098528Y-72003220D01*
X133159719Y-71883126D01*
X133180804Y-71750000D01*
X134319196Y-71750000D01*
X134340281Y-71883126D01*
X134401472Y-72003220D01*
X134496780Y-72098528D01*
X134616874Y-72159719D01*
X134626663Y-72161269D01*
X134626665Y-72161270D01*
X134740207Y-72179253D01*
X134750000Y-72180804D01*
X134759793Y-72179253D01*
X134873335Y-72161270D01*
X134873337Y-72161269D01*
X134883126Y-72159719D01*
X135003220Y-72098528D01*
X135098528Y-72003220D01*
X135159719Y-71883126D01*
X135180804Y-71750000D01*
X135179184Y-71739769D01*
X135161270Y-71626665D01*
X135161269Y-71626663D01*
X135159719Y-71616874D01*
X135098528Y-71496780D01*
X135003220Y-71401472D01*
X134883126Y-71340281D01*
X134873337Y-71338731D01*
X134873335Y-71338730D01*
X134759793Y-71320747D01*
X134750000Y-71319196D01*
X134740207Y-71320747D01*
X134626665Y-71338730D01*
X134626663Y-71338731D01*
X134616874Y-71340281D01*
X134496780Y-71401472D01*
X134401472Y-71496780D01*
X134340281Y-71616874D01*
X134338731Y-71626663D01*
X134338730Y-71626665D01*
X134320816Y-71739769D01*
X134319196Y-71750000D01*
X133180804Y-71750000D01*
X133179184Y-71739769D01*
X133161270Y-71626665D01*
X133161269Y-71626663D01*
X133159719Y-71616874D01*
X133098528Y-71496780D01*
X133003220Y-71401472D01*
X132883126Y-71340281D01*
X132873337Y-71338731D01*
X132873335Y-71338730D01*
X132759793Y-71320747D01*
X132750000Y-71319196D01*
X132740207Y-71320747D01*
X132626665Y-71338730D01*
X132626663Y-71338731D01*
X132616874Y-71340281D01*
X132496780Y-71401472D01*
X132401472Y-71496780D01*
X132340281Y-71616874D01*
X132338731Y-71626663D01*
X132338730Y-71626665D01*
X132320816Y-71739769D01*
X132319196Y-71750000D01*
X132340281Y-71883126D01*
X132401472Y-72003220D01*
X132403142Y-72004890D01*
X132425590Y-72067806D01*
X132409511Y-72136957D01*
X132406303Y-72141949D01*
X132401472Y-72146780D01*
X132340281Y-72266874D01*
X132338731Y-72276663D01*
X132338730Y-72276665D01*
X132326635Y-72353031D01*
X132319196Y-72400000D01*
X122352201Y-72400000D01*
X122453220Y-72348528D01*
X122548528Y-72253220D01*
X122609719Y-72133126D01*
X122630804Y-72000000D01*
X122612293Y-71883126D01*
X122611270Y-71876665D01*
X122611269Y-71876663D01*
X122609719Y-71866874D01*
X122548528Y-71746780D01*
X122453220Y-71651472D01*
X122333126Y-71590281D01*
X122323337Y-71588731D01*
X122323335Y-71588730D01*
X122209793Y-71570747D01*
X122200000Y-71569196D01*
X122190207Y-71570747D01*
X122076665Y-71588730D01*
X122076663Y-71588731D01*
X122066874Y-71590281D01*
X121946780Y-71651472D01*
X121939095Y-71659157D01*
X121938075Y-71659714D01*
X121931748Y-71664311D01*
X121931154Y-71663493D01*
X121876783Y-71693183D01*
X121805968Y-71688118D01*
X121768466Y-71664016D01*
X121768252Y-71664311D01*
X121763100Y-71660568D01*
X121760905Y-71659157D01*
X121753220Y-71651472D01*
X121633126Y-71590281D01*
X121623337Y-71588731D01*
X121623335Y-71588730D01*
X121509793Y-71570747D01*
X121500000Y-71569196D01*
X121490207Y-71570747D01*
X121376665Y-71588730D01*
X121376663Y-71588731D01*
X121366874Y-71590281D01*
X121246780Y-71651472D01*
X121245110Y-71653142D01*
X121182194Y-71675590D01*
X121113043Y-71659511D01*
X121108051Y-71656303D01*
X121103220Y-71651472D01*
X120983126Y-71590281D01*
X120973337Y-71588731D01*
X120973335Y-71588730D01*
X120859793Y-71570747D01*
X120850000Y-71569196D01*
X120840207Y-71570747D01*
X120726665Y-71588730D01*
X120726663Y-71588731D01*
X120716874Y-71590281D01*
X120596780Y-71651472D01*
X120501472Y-71746780D01*
X120440281Y-71866874D01*
X120438731Y-71876663D01*
X120438730Y-71876665D01*
X120437707Y-71883126D01*
X120419196Y-72000000D01*
X116566956Y-72000000D01*
X116585647Y-71870000D01*
X116565165Y-71727543D01*
X116550116Y-71694589D01*
X116519095Y-71626665D01*
X116505377Y-71596627D01*
X116498535Y-71588730D01*
X116417029Y-71494667D01*
X116417028Y-71494666D01*
X116411128Y-71487857D01*
X116403551Y-71482987D01*
X116403548Y-71482985D01*
X116297633Y-71414918D01*
X116297631Y-71414917D01*
X116290053Y-71410047D01*
X116281409Y-71407509D01*
X116281407Y-71407508D01*
X116160606Y-71372038D01*
X116160604Y-71372038D01*
X116151961Y-71369500D01*
X116008039Y-71369500D01*
X115999396Y-71372038D01*
X115999394Y-71372038D01*
X115878593Y-71407508D01*
X115878591Y-71407509D01*
X115869947Y-71410047D01*
X115862369Y-71414917D01*
X115862367Y-71414918D01*
X115756452Y-71482985D01*
X115756449Y-71482987D01*
X115748872Y-71487857D01*
X115742972Y-71494666D01*
X115742971Y-71494667D01*
X115661466Y-71588730D01*
X115654623Y-71596627D01*
X115640905Y-71626665D01*
X115609885Y-71694589D01*
X115594835Y-71727543D01*
X115574353Y-71870000D01*
X109551000Y-71870000D01*
X109551000Y-71448367D01*
X114014500Y-71448367D01*
X114017038Y-71457010D01*
X114017038Y-71457011D01*
X114049979Y-71569196D01*
X114053022Y-71579561D01*
X114089983Y-71637075D01*
X114104533Y-71659714D01*
X114126945Y-71694589D01*
X114133755Y-71700490D01*
X114133757Y-71700492D01*
X114187177Y-71746780D01*
X114230282Y-71784130D01*
X114280266Y-71806957D01*
X114346461Y-71837188D01*
X114346464Y-71837189D01*
X114354658Y-71840931D01*
X114363575Y-71842213D01*
X114451541Y-71854861D01*
X114451548Y-71854862D01*
X114455989Y-71855500D01*
X114524011Y-71855500D01*
X114528452Y-71854862D01*
X114528459Y-71854861D01*
X114616425Y-71842213D01*
X114625342Y-71840931D01*
X114633536Y-71837189D01*
X114633539Y-71837188D01*
X114699734Y-71806957D01*
X114749718Y-71784130D01*
X114792823Y-71746780D01*
X114846243Y-71700492D01*
X114846245Y-71700490D01*
X114853055Y-71694589D01*
X114875468Y-71659714D01*
X114890017Y-71637075D01*
X114926978Y-71579561D01*
X114930022Y-71569196D01*
X114962962Y-71457011D01*
X114962962Y-71457010D01*
X114965500Y-71448367D01*
X114965500Y-71311633D01*
X114926978Y-71180439D01*
X114853055Y-71065411D01*
X114846245Y-71059510D01*
X114846243Y-71059508D01*
X114756531Y-70981773D01*
X114756529Y-70981772D01*
X114749718Y-70975870D01*
X114699734Y-70953043D01*
X114633539Y-70922812D01*
X114633536Y-70922811D01*
X114625342Y-70919069D01*
X114608164Y-70916599D01*
X114528459Y-70905139D01*
X114528452Y-70905138D01*
X114524011Y-70904500D01*
X114455989Y-70904500D01*
X114451548Y-70905138D01*
X114451541Y-70905139D01*
X114371836Y-70916599D01*
X114354658Y-70919069D01*
X114346464Y-70922811D01*
X114346461Y-70922812D01*
X114280266Y-70953043D01*
X114230282Y-70975870D01*
X114223471Y-70981772D01*
X114223469Y-70981773D01*
X114133757Y-71059508D01*
X114133755Y-71059510D01*
X114126945Y-71065411D01*
X114053022Y-71180439D01*
X114014500Y-71311633D01*
X114014500Y-71448367D01*
X109551000Y-71448367D01*
X109551000Y-70900000D01*
X127869196Y-70900000D01*
X127870747Y-70909793D01*
X127883436Y-70989906D01*
X127890281Y-71033126D01*
X127951472Y-71153220D01*
X128046780Y-71248528D01*
X128166874Y-71309719D01*
X128176663Y-71311269D01*
X128176665Y-71311270D01*
X128290207Y-71329253D01*
X128300000Y-71330804D01*
X128309793Y-71329253D01*
X128423335Y-71311270D01*
X128423337Y-71311269D01*
X128433126Y-71309719D01*
X128553220Y-71248528D01*
X128648528Y-71153220D01*
X128709719Y-71033126D01*
X128716565Y-70989906D01*
X128729253Y-70909793D01*
X128730804Y-70900000D01*
X128729253Y-70890206D01*
X128717970Y-70818965D01*
X128727070Y-70748554D01*
X128772792Y-70694240D01*
X128840621Y-70673268D01*
X128862130Y-70674806D01*
X128900000Y-70680804D01*
X128909793Y-70679253D01*
X129023335Y-70661270D01*
X129023337Y-70661269D01*
X129033126Y-70659719D01*
X129153220Y-70598528D01*
X129248528Y-70503220D01*
X129309719Y-70383126D01*
X129317970Y-70331035D01*
X129329253Y-70259793D01*
X129330804Y-70250000D01*
X129329253Y-70240207D01*
X129314966Y-70150000D01*
X129669196Y-70150000D01*
X129670747Y-70159793D01*
X129686586Y-70259794D01*
X129690281Y-70283126D01*
X129751472Y-70403220D01*
X129846780Y-70498528D01*
X129966874Y-70559719D01*
X129976663Y-70561269D01*
X129976665Y-70561270D01*
X130090207Y-70579253D01*
X130100000Y-70580804D01*
X130109793Y-70579253D01*
X130223335Y-70561270D01*
X130223337Y-70561269D01*
X130233126Y-70559719D01*
X130353220Y-70498528D01*
X130448528Y-70403220D01*
X130450169Y-70400000D01*
X132069196Y-70400000D01*
X132070747Y-70409793D01*
X132087544Y-70515843D01*
X132090281Y-70533126D01*
X132151472Y-70653220D01*
X132246780Y-70748528D01*
X132366874Y-70809719D01*
X132376663Y-70811269D01*
X132376665Y-70811270D01*
X132490207Y-70829253D01*
X132500000Y-70830804D01*
X132509793Y-70829253D01*
X132623335Y-70811270D01*
X132623337Y-70811269D01*
X132633126Y-70809719D01*
X132753220Y-70748528D01*
X132835415Y-70666333D01*
X132897727Y-70632307D01*
X132968542Y-70637372D01*
X133013605Y-70666333D01*
X133096780Y-70749508D01*
X133216874Y-70810699D01*
X133226663Y-70812249D01*
X133226665Y-70812250D01*
X133340207Y-70830233D01*
X133350000Y-70831784D01*
X133359793Y-70830233D01*
X133473335Y-70812250D01*
X133473337Y-70812249D01*
X133483126Y-70810699D01*
X133603220Y-70749508D01*
X133604890Y-70747838D01*
X133667806Y-70725390D01*
X133736957Y-70741469D01*
X133741949Y-70744677D01*
X133746780Y-70749508D01*
X133866874Y-70810699D01*
X133876663Y-70812249D01*
X133876665Y-70812250D01*
X133990207Y-70830233D01*
X134000000Y-70831784D01*
X134009793Y-70830233D01*
X134123335Y-70812250D01*
X134123337Y-70812249D01*
X134133126Y-70810699D01*
X134253220Y-70749508D01*
X134348528Y-70654200D01*
X134409719Y-70534106D01*
X134413501Y-70510231D01*
X134429253Y-70410773D01*
X134430804Y-70400980D01*
X134427976Y-70383126D01*
X134422730Y-70350000D01*
X135219196Y-70350000D01*
X135220747Y-70359793D01*
X135238075Y-70469196D01*
X135240281Y-70483126D01*
X135301472Y-70603220D01*
X135396780Y-70698528D01*
X135516874Y-70759719D01*
X135526663Y-70761269D01*
X135526665Y-70761270D01*
X135640207Y-70779253D01*
X135650000Y-70780804D01*
X135659793Y-70779253D01*
X135773335Y-70761270D01*
X135773337Y-70761269D01*
X135783126Y-70759719D01*
X135903220Y-70698528D01*
X135998528Y-70603220D01*
X136059719Y-70483126D01*
X136061926Y-70469196D01*
X136079253Y-70359793D01*
X136080804Y-70350000D01*
X137719196Y-70350000D01*
X137720747Y-70359793D01*
X137738075Y-70469196D01*
X137740281Y-70483126D01*
X137801472Y-70603220D01*
X137896780Y-70698528D01*
X138016874Y-70759719D01*
X138026663Y-70761269D01*
X138026665Y-70761270D01*
X138140207Y-70779253D01*
X138150000Y-70780804D01*
X138159793Y-70779253D01*
X138273335Y-70761270D01*
X138273337Y-70761269D01*
X138283126Y-70759719D01*
X138403220Y-70698528D01*
X138498528Y-70603220D01*
X138559719Y-70483126D01*
X138561926Y-70469196D01*
X138579253Y-70359793D01*
X138580804Y-70350000D01*
X138563092Y-70238171D01*
X138572192Y-70167760D01*
X138617914Y-70113446D01*
X138685742Y-70092473D01*
X138754141Y-70111500D01*
X138776636Y-70129365D01*
X138796780Y-70149509D01*
X138916874Y-70210700D01*
X138926663Y-70212250D01*
X138926665Y-70212251D01*
X139040207Y-70230234D01*
X139050000Y-70231785D01*
X139059793Y-70230234D01*
X139173335Y-70212251D01*
X139173337Y-70212250D01*
X139183126Y-70210700D01*
X139204126Y-70200000D01*
X142119196Y-70200000D01*
X142120747Y-70209793D01*
X142128736Y-70260231D01*
X142140281Y-70333126D01*
X142201472Y-70453220D01*
X142296780Y-70548528D01*
X142416874Y-70609719D01*
X142426663Y-70611269D01*
X142426665Y-70611270D01*
X142540207Y-70629253D01*
X142550000Y-70630804D01*
X142559793Y-70629253D01*
X142673335Y-70611270D01*
X142673337Y-70611269D01*
X142683126Y-70609719D01*
X142803220Y-70548528D01*
X142898528Y-70453220D01*
X142959719Y-70333126D01*
X142971265Y-70260231D01*
X142979253Y-70209793D01*
X142980804Y-70200000D01*
X142971334Y-70140207D01*
X142961270Y-70076665D01*
X142961269Y-70076663D01*
X142959719Y-70066874D01*
X142898528Y-69946780D01*
X142803220Y-69851472D01*
X142683126Y-69790281D01*
X142673337Y-69788731D01*
X142673335Y-69788730D01*
X142559793Y-69770747D01*
X142550000Y-69769196D01*
X142540207Y-69770747D01*
X142426665Y-69788730D01*
X142426663Y-69788731D01*
X142416874Y-69790281D01*
X142296780Y-69851472D01*
X142201472Y-69946780D01*
X142140281Y-70066874D01*
X142138731Y-70076663D01*
X142138730Y-70076665D01*
X142128666Y-70140207D01*
X142119196Y-70200000D01*
X139204126Y-70200000D01*
X139303220Y-70149509D01*
X139398528Y-70054201D01*
X139459719Y-69934107D01*
X139463778Y-69908483D01*
X139479253Y-69810774D01*
X139480804Y-69800981D01*
X139478864Y-69788730D01*
X139461270Y-69677646D01*
X139461269Y-69677644D01*
X139459719Y-69667855D01*
X139398528Y-69547761D01*
X139303220Y-69452453D01*
X139183126Y-69391262D01*
X139173337Y-69389712D01*
X139173335Y-69389711D01*
X139059793Y-69371728D01*
X139050000Y-69370177D01*
X139040207Y-69371728D01*
X138926665Y-69389711D01*
X138926663Y-69389712D01*
X138916874Y-69391262D01*
X138796780Y-69452453D01*
X138701472Y-69547761D01*
X138640281Y-69667855D01*
X138638731Y-69677644D01*
X138638730Y-69677646D01*
X138621136Y-69788730D01*
X138619196Y-69800981D01*
X138633536Y-69891517D01*
X138636908Y-69912810D01*
X138627808Y-69983221D01*
X138582086Y-70037535D01*
X138514258Y-70058508D01*
X138445859Y-70039481D01*
X138423364Y-70021616D01*
X138403220Y-70001472D01*
X138283126Y-69940281D01*
X138273337Y-69938731D01*
X138273335Y-69938730D01*
X138159793Y-69920747D01*
X138150000Y-69919196D01*
X138140207Y-69920747D01*
X138026665Y-69938730D01*
X138026663Y-69938731D01*
X138016874Y-69940281D01*
X137896780Y-70001472D01*
X137801472Y-70096780D01*
X137740281Y-70216874D01*
X137738731Y-70226663D01*
X137738730Y-70226665D01*
X137729788Y-70283126D01*
X137719196Y-70350000D01*
X136080804Y-70350000D01*
X136070212Y-70283126D01*
X136061270Y-70226665D01*
X136061269Y-70226663D01*
X136059719Y-70216874D01*
X135998528Y-70096780D01*
X135903220Y-70001472D01*
X135783126Y-69940281D01*
X135773337Y-69938731D01*
X135773335Y-69938730D01*
X135659793Y-69920747D01*
X135650000Y-69919196D01*
X135640207Y-69920747D01*
X135526665Y-69938730D01*
X135526663Y-69938731D01*
X135516874Y-69940281D01*
X135396780Y-70001472D01*
X135301472Y-70096780D01*
X135240281Y-70216874D01*
X135238731Y-70226663D01*
X135238730Y-70226665D01*
X135229788Y-70283126D01*
X135219196Y-70350000D01*
X134422730Y-70350000D01*
X134411270Y-70277645D01*
X134411269Y-70277643D01*
X134409719Y-70267854D01*
X134348528Y-70147760D01*
X134253220Y-70052452D01*
X134133126Y-69991261D01*
X134123337Y-69989711D01*
X134123335Y-69989710D01*
X134009793Y-69971727D01*
X134000000Y-69970176D01*
X133990207Y-69971727D01*
X133876665Y-69989710D01*
X133876663Y-69989711D01*
X133866874Y-69991261D01*
X133746780Y-70052452D01*
X133745110Y-70054122D01*
X133682194Y-70076570D01*
X133613043Y-70060491D01*
X133608051Y-70057283D01*
X133603220Y-70052452D01*
X133483126Y-69991261D01*
X133473337Y-69989711D01*
X133473335Y-69989710D01*
X133359793Y-69971727D01*
X133350000Y-69970176D01*
X133340207Y-69971727D01*
X133226665Y-69989710D01*
X133226663Y-69989711D01*
X133216874Y-69991261D01*
X133096780Y-70052452D01*
X133014585Y-70134647D01*
X132952273Y-70168673D01*
X132881458Y-70163608D01*
X132836395Y-70134647D01*
X132753220Y-70051472D01*
X132633126Y-69990281D01*
X132623337Y-69988731D01*
X132623335Y-69988730D01*
X132509793Y-69970747D01*
X132500000Y-69969196D01*
X132490207Y-69970747D01*
X132376665Y-69988730D01*
X132376663Y-69988731D01*
X132366874Y-69990281D01*
X132246780Y-70051472D01*
X132151472Y-70146780D01*
X132090281Y-70266874D01*
X132088731Y-70276663D01*
X132088730Y-70276665D01*
X132075564Y-70359793D01*
X132069196Y-70400000D01*
X130450169Y-70400000D01*
X130509719Y-70283126D01*
X130513415Y-70259794D01*
X130529253Y-70159793D01*
X130530804Y-70150000D01*
X130525557Y-70116874D01*
X130511270Y-70026665D01*
X130511269Y-70026663D01*
X130509719Y-70016874D01*
X130448528Y-69896780D01*
X130353220Y-69801472D01*
X130233126Y-69740281D01*
X130223337Y-69738731D01*
X130223335Y-69738730D01*
X130109793Y-69720747D01*
X130100000Y-69719196D01*
X130090207Y-69720747D01*
X129976665Y-69738730D01*
X129976663Y-69738731D01*
X129966874Y-69740281D01*
X129846780Y-69801472D01*
X129751472Y-69896780D01*
X129690281Y-70016874D01*
X129688731Y-70026663D01*
X129688730Y-70026665D01*
X129674443Y-70116874D01*
X129669196Y-70150000D01*
X129314966Y-70150000D01*
X129311270Y-70126665D01*
X129311269Y-70126663D01*
X129309719Y-70116874D01*
X129248528Y-69996780D01*
X129153220Y-69901472D01*
X129033126Y-69840281D01*
X129023337Y-69838731D01*
X129023335Y-69838730D01*
X128909793Y-69820747D01*
X128900000Y-69819196D01*
X128890207Y-69820747D01*
X128776665Y-69838730D01*
X128776663Y-69838731D01*
X128766874Y-69840281D01*
X128646780Y-69901472D01*
X128551472Y-69996780D01*
X128490281Y-70116874D01*
X128488731Y-70126663D01*
X128488730Y-70126665D01*
X128470747Y-70240207D01*
X128469196Y-70250000D01*
X128470747Y-70259793D01*
X128470747Y-70259794D01*
X128482030Y-70331035D01*
X128472930Y-70401446D01*
X128427208Y-70455760D01*
X128359379Y-70476732D01*
X128337870Y-70475194D01*
X128309793Y-70470747D01*
X128300000Y-70469196D01*
X128290207Y-70470747D01*
X128176665Y-70488730D01*
X128176663Y-70488731D01*
X128166874Y-70490281D01*
X128046780Y-70551472D01*
X127951472Y-70646780D01*
X127890281Y-70766874D01*
X127888731Y-70776663D01*
X127888730Y-70776665D01*
X127880000Y-70831784D01*
X127869196Y-70900000D01*
X109551000Y-70900000D01*
X109551000Y-70000000D01*
X116469196Y-70000000D01*
X116470747Y-70009793D01*
X116484146Y-70094388D01*
X116490281Y-70133126D01*
X116551472Y-70253220D01*
X116646780Y-70348528D01*
X116766874Y-70409719D01*
X116776663Y-70411269D01*
X116776665Y-70411270D01*
X116890207Y-70429253D01*
X116900000Y-70430804D01*
X116909793Y-70429253D01*
X117023335Y-70411270D01*
X117023337Y-70411269D01*
X117033126Y-70409719D01*
X117153220Y-70348528D01*
X117248528Y-70253220D01*
X117309719Y-70133126D01*
X117315855Y-70094388D01*
X117329253Y-70009793D01*
X117330804Y-70000000D01*
X117328295Y-69984157D01*
X117311270Y-69876665D01*
X117311269Y-69876663D01*
X117309719Y-69866874D01*
X117248528Y-69746780D01*
X117153220Y-69651472D01*
X117033126Y-69590281D01*
X117023337Y-69588731D01*
X117023335Y-69588730D01*
X116909793Y-69570747D01*
X116900000Y-69569196D01*
X116890207Y-69570747D01*
X116776665Y-69588730D01*
X116776663Y-69588731D01*
X116766874Y-69590281D01*
X116646780Y-69651472D01*
X116551472Y-69746780D01*
X116490281Y-69866874D01*
X116488731Y-69876663D01*
X116488730Y-69876665D01*
X116471705Y-69984157D01*
X116469196Y-70000000D01*
X109551000Y-70000000D01*
X109551000Y-69550000D01*
X119919196Y-69550000D01*
X119920747Y-69559793D01*
X119935268Y-69651472D01*
X119940281Y-69683126D01*
X120001472Y-69803220D01*
X120036899Y-69838647D01*
X120070925Y-69900959D01*
X120065860Y-69971774D01*
X120053554Y-69994698D01*
X120051472Y-69996780D01*
X120046970Y-70005616D01*
X120046969Y-70005617D01*
X120038817Y-70021616D01*
X119990281Y-70116874D01*
X119988731Y-70126663D01*
X119988730Y-70126665D01*
X119970747Y-70240207D01*
X119969196Y-70250000D01*
X119970747Y-70259793D01*
X119982031Y-70331035D01*
X119990281Y-70383126D01*
X120051472Y-70503220D01*
X120146780Y-70598528D01*
X120266874Y-70659719D01*
X120276663Y-70661269D01*
X120276665Y-70661270D01*
X120390207Y-70679253D01*
X120400000Y-70680804D01*
X120409793Y-70679253D01*
X120523335Y-70661270D01*
X120523337Y-70661269D01*
X120533126Y-70659719D01*
X120653220Y-70598528D01*
X120748528Y-70503220D01*
X120809719Y-70383126D01*
X120817970Y-70331035D01*
X120829253Y-70259793D01*
X120830804Y-70250000D01*
X121169196Y-70250000D01*
X121170747Y-70259793D01*
X121182031Y-70331035D01*
X121190281Y-70383126D01*
X121251472Y-70503220D01*
X121346780Y-70598528D01*
X121466874Y-70659719D01*
X121476663Y-70661269D01*
X121476665Y-70661270D01*
X121590207Y-70679253D01*
X121600000Y-70680804D01*
X121609793Y-70679253D01*
X121723335Y-70661270D01*
X121723337Y-70661269D01*
X121733126Y-70659719D01*
X121853220Y-70598528D01*
X121935905Y-70515843D01*
X121998217Y-70481817D01*
X122069032Y-70486882D01*
X122114095Y-70515843D01*
X122196780Y-70598528D01*
X122316874Y-70659719D01*
X122326663Y-70661269D01*
X122326665Y-70661270D01*
X122440207Y-70679253D01*
X122450000Y-70680804D01*
X122459793Y-70679253D01*
X122573335Y-70661270D01*
X122573337Y-70661269D01*
X122583126Y-70659719D01*
X122703220Y-70598528D01*
X122760905Y-70540843D01*
X122823217Y-70506817D01*
X122894032Y-70511882D01*
X122939095Y-70540843D01*
X122996780Y-70598528D01*
X123116874Y-70659719D01*
X123126663Y-70661269D01*
X123126665Y-70661270D01*
X123240207Y-70679253D01*
X123250000Y-70680804D01*
X123259793Y-70679253D01*
X123373335Y-70661270D01*
X123373337Y-70661269D01*
X123383126Y-70659719D01*
X123503220Y-70598528D01*
X123598528Y-70503220D01*
X123659719Y-70383126D01*
X123667970Y-70331035D01*
X123679253Y-70259793D01*
X123680804Y-70250000D01*
X123679253Y-70240207D01*
X123661270Y-70126665D01*
X123661269Y-70126663D01*
X123659719Y-70116874D01*
X123598528Y-69996780D01*
X123503220Y-69901472D01*
X123402201Y-69850000D01*
X124969196Y-69850000D01*
X124970747Y-69859793D01*
X124988476Y-69971727D01*
X124990281Y-69983126D01*
X125051472Y-70103220D01*
X125146780Y-70198528D01*
X125266874Y-70259719D01*
X125276663Y-70261269D01*
X125276665Y-70261270D01*
X125390207Y-70279253D01*
X125400000Y-70280804D01*
X125409793Y-70279253D01*
X125523335Y-70261270D01*
X125523337Y-70261269D01*
X125533126Y-70259719D01*
X125653220Y-70198528D01*
X125748528Y-70103220D01*
X125809719Y-69983126D01*
X125811525Y-69971727D01*
X125829253Y-69859793D01*
X125830804Y-69850000D01*
X125822405Y-69796972D01*
X125811270Y-69726665D01*
X125811269Y-69726663D01*
X125809719Y-69716874D01*
X125748528Y-69596780D01*
X125653220Y-69501472D01*
X125533207Y-69440323D01*
X125481593Y-69391575D01*
X125464527Y-69322660D01*
X125487428Y-69255458D01*
X125542507Y-69211717D01*
X125548815Y-69210718D01*
X125668909Y-69149527D01*
X125764217Y-69054219D01*
X125825408Y-68934125D01*
X125830496Y-68902005D01*
X125844942Y-68810792D01*
X125846493Y-68800999D01*
X125832117Y-68710231D01*
X125826959Y-68677664D01*
X125826958Y-68677662D01*
X125825408Y-68667873D01*
X125765349Y-68550000D01*
X136019196Y-68550000D01*
X136040281Y-68683126D01*
X136101472Y-68803220D01*
X136196780Y-68898528D01*
X136316874Y-68959719D01*
X136326663Y-68961269D01*
X136326665Y-68961270D01*
X136440207Y-68979253D01*
X136450000Y-68980804D01*
X136459793Y-68979253D01*
X136573335Y-68961270D01*
X136573337Y-68961269D01*
X136583126Y-68959719D01*
X136703220Y-68898528D01*
X136798528Y-68803220D01*
X136859719Y-68683126D01*
X136880804Y-68550000D01*
X136879253Y-68540207D01*
X136861270Y-68426665D01*
X136861269Y-68426663D01*
X136859719Y-68416874D01*
X136798528Y-68296780D01*
X136703220Y-68201472D01*
X136583126Y-68140281D01*
X136573337Y-68138731D01*
X136573335Y-68138730D01*
X136459793Y-68120747D01*
X136450000Y-68119196D01*
X136440207Y-68120747D01*
X136326665Y-68138730D01*
X136326663Y-68138731D01*
X136316874Y-68140281D01*
X136196780Y-68201472D01*
X136101472Y-68296780D01*
X136040281Y-68416874D01*
X136038731Y-68426663D01*
X136038730Y-68426665D01*
X136020747Y-68540207D01*
X136019196Y-68550000D01*
X125765349Y-68550000D01*
X125764217Y-68547779D01*
X125668909Y-68452471D01*
X125548815Y-68391280D01*
X125539026Y-68389730D01*
X125539024Y-68389729D01*
X125425482Y-68371746D01*
X125415689Y-68370195D01*
X125405896Y-68371746D01*
X125292354Y-68389729D01*
X125292352Y-68389730D01*
X125282563Y-68391280D01*
X125162469Y-68452471D01*
X125067161Y-68547779D01*
X125005970Y-68667873D01*
X125004420Y-68677662D01*
X125004419Y-68677664D01*
X124999261Y-68710231D01*
X124984885Y-68800999D01*
X124986436Y-68810792D01*
X125000883Y-68902005D01*
X125005970Y-68934125D01*
X125067161Y-69054219D01*
X125162469Y-69149527D01*
X125277667Y-69208223D01*
X125282481Y-69210676D01*
X125334096Y-69259424D01*
X125351162Y-69328339D01*
X125328261Y-69395541D01*
X125273182Y-69439282D01*
X125266874Y-69440281D01*
X125146780Y-69501472D01*
X125051472Y-69596780D01*
X124990281Y-69716874D01*
X124988731Y-69726663D01*
X124988730Y-69726665D01*
X124977595Y-69796972D01*
X124969196Y-69850000D01*
X123402201Y-69850000D01*
X123383126Y-69840281D01*
X123373337Y-69838731D01*
X123373335Y-69838730D01*
X123259793Y-69820747D01*
X123250000Y-69819196D01*
X123240207Y-69820747D01*
X123126665Y-69838730D01*
X123126663Y-69838731D01*
X123116874Y-69840281D01*
X122996780Y-69901472D01*
X122939095Y-69959157D01*
X122876783Y-69993183D01*
X122805968Y-69988118D01*
X122760905Y-69959157D01*
X122703220Y-69901472D01*
X122583126Y-69840281D01*
X122573337Y-69838731D01*
X122573335Y-69838730D01*
X122459793Y-69820747D01*
X122450000Y-69819196D01*
X122440207Y-69820747D01*
X122326665Y-69838730D01*
X122326663Y-69838731D01*
X122316874Y-69840281D01*
X122196780Y-69901472D01*
X122114095Y-69984157D01*
X122051783Y-70018183D01*
X121980968Y-70013118D01*
X121935905Y-69984157D01*
X121853220Y-69901472D01*
X121733126Y-69840281D01*
X121723337Y-69838731D01*
X121723335Y-69838730D01*
X121609793Y-69820747D01*
X121600000Y-69819196D01*
X121590207Y-69820747D01*
X121476665Y-69838730D01*
X121476663Y-69838731D01*
X121466874Y-69840281D01*
X121346780Y-69901472D01*
X121251472Y-69996780D01*
X121190281Y-70116874D01*
X121188731Y-70126663D01*
X121188730Y-70126665D01*
X121170747Y-70240207D01*
X121169196Y-70250000D01*
X120830804Y-70250000D01*
X120829253Y-70240207D01*
X120811270Y-70126665D01*
X120811269Y-70126663D01*
X120809719Y-70116874D01*
X120748528Y-69996780D01*
X120713101Y-69961353D01*
X120679075Y-69899041D01*
X120684140Y-69828226D01*
X120696446Y-69805302D01*
X120698528Y-69803220D01*
X120759719Y-69683126D01*
X120764733Y-69651472D01*
X120779253Y-69559793D01*
X120780804Y-69550000D01*
X120765354Y-69452453D01*
X120761270Y-69426665D01*
X120761269Y-69426663D01*
X120759719Y-69416874D01*
X120698528Y-69296780D01*
X120615843Y-69214095D01*
X120581817Y-69151783D01*
X120586882Y-69080968D01*
X120615843Y-69035905D01*
X120698528Y-68953220D01*
X120759719Y-68833126D01*
X120763257Y-68810792D01*
X120779253Y-68709793D01*
X120780804Y-68700000D01*
X120762293Y-68583126D01*
X120761270Y-68576665D01*
X120761269Y-68576663D01*
X120759719Y-68566874D01*
X120698528Y-68446780D01*
X120696858Y-68445110D01*
X120674410Y-68382194D01*
X120690489Y-68313043D01*
X120693697Y-68308051D01*
X120698528Y-68303220D01*
X120759719Y-68183126D01*
X120769845Y-68119196D01*
X120779253Y-68059793D01*
X120780804Y-68050000D01*
X137969196Y-68050000D01*
X137970747Y-68059793D01*
X137980156Y-68119196D01*
X137990281Y-68183126D01*
X138051472Y-68303220D01*
X138146780Y-68398528D01*
X138266874Y-68459719D01*
X138276663Y-68461269D01*
X138276665Y-68461270D01*
X138390207Y-68479253D01*
X138400000Y-68480804D01*
X138409793Y-68479253D01*
X138523335Y-68461270D01*
X138523337Y-68461269D01*
X138533126Y-68459719D01*
X138552201Y-68450000D01*
X139469196Y-68450000D01*
X139470747Y-68459793D01*
X139486574Y-68559719D01*
X139490281Y-68583126D01*
X139551472Y-68703220D01*
X139646780Y-68798528D01*
X139766874Y-68859719D01*
X139776667Y-68861270D01*
X139778698Y-68861930D01*
X139837303Y-68902005D01*
X139864939Y-68967402D01*
X139852831Y-69037359D01*
X139828855Y-69070858D01*
X139757390Y-69142323D01*
X139696199Y-69262417D01*
X139694649Y-69272206D01*
X139694648Y-69272208D01*
X139678886Y-69371728D01*
X139675114Y-69395543D01*
X139676665Y-69405336D01*
X139691179Y-69496972D01*
X139696199Y-69528669D01*
X139757390Y-69648763D01*
X139852698Y-69744071D01*
X139972792Y-69805262D01*
X139982581Y-69806812D01*
X139982583Y-69806813D01*
X140096125Y-69824796D01*
X140105918Y-69826347D01*
X140115711Y-69824796D01*
X140229253Y-69806813D01*
X140229255Y-69806812D01*
X140239044Y-69805262D01*
X140359138Y-69744071D01*
X140454446Y-69648763D01*
X140504768Y-69550000D01*
X141069196Y-69550000D01*
X141070747Y-69559793D01*
X141085268Y-69651472D01*
X141090281Y-69683126D01*
X141151472Y-69803220D01*
X141246780Y-69898528D01*
X141366874Y-69959719D01*
X141376663Y-69961269D01*
X141376665Y-69961270D01*
X141490207Y-69979253D01*
X141500000Y-69980804D01*
X141509793Y-69979253D01*
X141623335Y-69961270D01*
X141623337Y-69961269D01*
X141633126Y-69959719D01*
X141753220Y-69898528D01*
X141848528Y-69803220D01*
X141909719Y-69683126D01*
X141914733Y-69651472D01*
X141929253Y-69559793D01*
X141930804Y-69550000D01*
X141915354Y-69452453D01*
X141911270Y-69426665D01*
X141911269Y-69426663D01*
X141909719Y-69416874D01*
X141848528Y-69296780D01*
X141753220Y-69201472D01*
X141633126Y-69140281D01*
X141623337Y-69138731D01*
X141623335Y-69138730D01*
X141509793Y-69120747D01*
X141500000Y-69119196D01*
X141490207Y-69120747D01*
X141376665Y-69138730D01*
X141376663Y-69138731D01*
X141366874Y-69140281D01*
X141246780Y-69201472D01*
X141151472Y-69296780D01*
X141090281Y-69416874D01*
X141088731Y-69426663D01*
X141088730Y-69426665D01*
X141084646Y-69452453D01*
X141069196Y-69550000D01*
X140504768Y-69550000D01*
X140515637Y-69528669D01*
X140520658Y-69496972D01*
X140535171Y-69405336D01*
X140536722Y-69395543D01*
X140532950Y-69371728D01*
X140517188Y-69272208D01*
X140517187Y-69272206D01*
X140515637Y-69262417D01*
X140454446Y-69142323D01*
X140359138Y-69047015D01*
X140239044Y-68985824D01*
X140229251Y-68984273D01*
X140227220Y-68983613D01*
X140168615Y-68943538D01*
X140140979Y-68878141D01*
X140153087Y-68808184D01*
X140177063Y-68774685D01*
X140248528Y-68703220D01*
X140309719Y-68583126D01*
X140313427Y-68559719D01*
X140329253Y-68459793D01*
X140330804Y-68450000D01*
X140323395Y-68403220D01*
X140311270Y-68326665D01*
X140311269Y-68326663D01*
X140309719Y-68316874D01*
X140248528Y-68196780D01*
X140153220Y-68101472D01*
X140033126Y-68040281D01*
X140023337Y-68038731D01*
X140023335Y-68038730D01*
X139909793Y-68020747D01*
X139900000Y-68019196D01*
X139890207Y-68020747D01*
X139776665Y-68038730D01*
X139776663Y-68038731D01*
X139766874Y-68040281D01*
X139646780Y-68101472D01*
X139551472Y-68196780D01*
X139490281Y-68316874D01*
X139488731Y-68326663D01*
X139488730Y-68326665D01*
X139476605Y-68403220D01*
X139469196Y-68450000D01*
X138552201Y-68450000D01*
X138653220Y-68398528D01*
X138748528Y-68303220D01*
X138809719Y-68183126D01*
X138819845Y-68119196D01*
X138829253Y-68059793D01*
X138830804Y-68050000D01*
X138809719Y-67916874D01*
X138748528Y-67796780D01*
X138653220Y-67701472D01*
X138533126Y-67640281D01*
X138523337Y-67638731D01*
X138523335Y-67638730D01*
X138409793Y-67620747D01*
X138400000Y-67619196D01*
X138390207Y-67620747D01*
X138276665Y-67638730D01*
X138276663Y-67638731D01*
X138266874Y-67640281D01*
X138146780Y-67701472D01*
X138051472Y-67796780D01*
X137990281Y-67916874D01*
X137969196Y-68050000D01*
X120780804Y-68050000D01*
X120759719Y-67916874D01*
X120698528Y-67796780D01*
X120603220Y-67701472D01*
X120526276Y-67662267D01*
X120474661Y-67613519D01*
X120457595Y-67544604D01*
X120480496Y-67477402D01*
X120526276Y-67437733D01*
X120594388Y-67403028D01*
X120594387Y-67403028D01*
X120603220Y-67398528D01*
X120698528Y-67303220D01*
X120759719Y-67183126D01*
X120780804Y-67050000D01*
X120772885Y-67000000D01*
X131519196Y-67000000D01*
X131520747Y-67009793D01*
X131526636Y-67046972D01*
X131540281Y-67133126D01*
X131601472Y-67253220D01*
X131696780Y-67348528D01*
X131816874Y-67409719D01*
X131826663Y-67411269D01*
X131826665Y-67411270D01*
X131940207Y-67429253D01*
X131950000Y-67430804D01*
X131959793Y-67429253D01*
X132073335Y-67411270D01*
X132073337Y-67411269D01*
X132083126Y-67409719D01*
X132203220Y-67348528D01*
X132285905Y-67265843D01*
X132348217Y-67231817D01*
X132419032Y-67236882D01*
X132464095Y-67265843D01*
X132546780Y-67348528D01*
X132666874Y-67409719D01*
X132676663Y-67411269D01*
X132676665Y-67411270D01*
X132790207Y-67429253D01*
X132800000Y-67430804D01*
X132809793Y-67429253D01*
X132923335Y-67411270D01*
X132923337Y-67411269D01*
X132933126Y-67409719D01*
X133053220Y-67348528D01*
X133104948Y-67296800D01*
X133765996Y-67296800D01*
X133767547Y-67306593D01*
X133783881Y-67409719D01*
X133787081Y-67429926D01*
X133848272Y-67550020D01*
X133943580Y-67645328D01*
X134063674Y-67706519D01*
X134073463Y-67708069D01*
X134073465Y-67708070D01*
X134187007Y-67726053D01*
X134196800Y-67727604D01*
X134206593Y-67726053D01*
X134320135Y-67708070D01*
X134320137Y-67708069D01*
X134329926Y-67706519D01*
X134450020Y-67645328D01*
X134545328Y-67550020D01*
X134606519Y-67429926D01*
X134609720Y-67409719D01*
X134611259Y-67400000D01*
X135219196Y-67400000D01*
X135220747Y-67409793D01*
X135234146Y-67494388D01*
X135240281Y-67533126D01*
X135301472Y-67653220D01*
X135396780Y-67748528D01*
X135516874Y-67809719D01*
X135526663Y-67811269D01*
X135526665Y-67811270D01*
X135640207Y-67829253D01*
X135650000Y-67830804D01*
X135659793Y-67829253D01*
X135773335Y-67811270D01*
X135773337Y-67811269D01*
X135783126Y-67809719D01*
X135903220Y-67748528D01*
X135998528Y-67653220D01*
X136059719Y-67533126D01*
X136065855Y-67494388D01*
X136079253Y-67409793D01*
X136080804Y-67400000D01*
X136076581Y-67373335D01*
X136061270Y-67276665D01*
X136061269Y-67276663D01*
X136059719Y-67266874D01*
X135998528Y-67146780D01*
X135903220Y-67051472D01*
X135783126Y-66990281D01*
X135773337Y-66988731D01*
X135773335Y-66988730D01*
X135659793Y-66970747D01*
X135650000Y-66969196D01*
X135640207Y-66970747D01*
X135526665Y-66988730D01*
X135526663Y-66988731D01*
X135516874Y-66990281D01*
X135396780Y-67051472D01*
X135301472Y-67146780D01*
X135240281Y-67266874D01*
X135238731Y-67276663D01*
X135238730Y-67276665D01*
X135223419Y-67373335D01*
X135219196Y-67400000D01*
X134611259Y-67400000D01*
X134626053Y-67306593D01*
X134627604Y-67296800D01*
X134606519Y-67163674D01*
X134545328Y-67043580D01*
X134450020Y-66948272D01*
X134329926Y-66887081D01*
X134320137Y-66885531D01*
X134320135Y-66885530D01*
X134206593Y-66867547D01*
X134196800Y-66865996D01*
X134187007Y-66867547D01*
X134073465Y-66885530D01*
X134073463Y-66885531D01*
X134063674Y-66887081D01*
X133943580Y-66948272D01*
X133848272Y-67043580D01*
X133787081Y-67163674D01*
X133765996Y-67296800D01*
X133104948Y-67296800D01*
X133148528Y-67253220D01*
X133209719Y-67133126D01*
X133223365Y-67046972D01*
X133229253Y-67009793D01*
X133230804Y-67000000D01*
X133222611Y-66948272D01*
X133211270Y-66876665D01*
X133211269Y-66876663D01*
X133209719Y-66866874D01*
X133148528Y-66746780D01*
X133053220Y-66651472D01*
X132933126Y-66590281D01*
X132923337Y-66588731D01*
X132923335Y-66588730D01*
X132809793Y-66570747D01*
X132800000Y-66569196D01*
X132790207Y-66570747D01*
X132676665Y-66588730D01*
X132676663Y-66588731D01*
X132666874Y-66590281D01*
X132546780Y-66651472D01*
X132464095Y-66734157D01*
X132401783Y-66768183D01*
X132330968Y-66763118D01*
X132285905Y-66734157D01*
X132203220Y-66651472D01*
X132083126Y-66590281D01*
X132073337Y-66588731D01*
X132073335Y-66588730D01*
X131959793Y-66570747D01*
X131950000Y-66569196D01*
X131940207Y-66570747D01*
X131826665Y-66588730D01*
X131826663Y-66588731D01*
X131816874Y-66590281D01*
X131696780Y-66651472D01*
X131601472Y-66746780D01*
X131540281Y-66866874D01*
X131538731Y-66876663D01*
X131538730Y-66876665D01*
X131527389Y-66948272D01*
X131519196Y-67000000D01*
X120772885Y-67000000D01*
X120772375Y-66996780D01*
X120761270Y-66926665D01*
X120761269Y-66926663D01*
X120759719Y-66916874D01*
X120698528Y-66796780D01*
X120603220Y-66701472D01*
X120483126Y-66640281D01*
X120473337Y-66638731D01*
X120473335Y-66638730D01*
X120359793Y-66620747D01*
X120350000Y-66619196D01*
X120340207Y-66620747D01*
X120226665Y-66638730D01*
X120226663Y-66638731D01*
X120216874Y-66640281D01*
X120096780Y-66701472D01*
X120001472Y-66796780D01*
X119940281Y-66916874D01*
X119938731Y-66926663D01*
X119938730Y-66926665D01*
X119927625Y-66996780D01*
X119919196Y-67050000D01*
X119940281Y-67183126D01*
X120001472Y-67303220D01*
X120096780Y-67398528D01*
X120105613Y-67403028D01*
X120105612Y-67403028D01*
X120173724Y-67437733D01*
X120225339Y-67486481D01*
X120242405Y-67555396D01*
X120219504Y-67622598D01*
X120173724Y-67662267D01*
X120096780Y-67701472D01*
X120001472Y-67796780D01*
X119940281Y-67916874D01*
X119919196Y-68050000D01*
X119920747Y-68059793D01*
X119930156Y-68119196D01*
X119940281Y-68183126D01*
X120001472Y-68303220D01*
X120003142Y-68304890D01*
X120025590Y-68367806D01*
X120009511Y-68436957D01*
X120006303Y-68441949D01*
X120001472Y-68446780D01*
X119940281Y-68566874D01*
X119938731Y-68576663D01*
X119938730Y-68576665D01*
X119937707Y-68583126D01*
X119919196Y-68700000D01*
X119920747Y-68709793D01*
X119936744Y-68810792D01*
X119940281Y-68833126D01*
X120001472Y-68953220D01*
X120084157Y-69035905D01*
X120118183Y-69098217D01*
X120113118Y-69169032D01*
X120084157Y-69214095D01*
X120001472Y-69296780D01*
X119940281Y-69416874D01*
X119938731Y-69426663D01*
X119938730Y-69426665D01*
X119934646Y-69452453D01*
X119919196Y-69550000D01*
X109551000Y-69550000D01*
X109551000Y-67352604D01*
X109571002Y-67284483D01*
X109587905Y-67263509D01*
X109601414Y-67250000D01*
X115119196Y-67250000D01*
X115120747Y-67259793D01*
X115128736Y-67310231D01*
X115140281Y-67383126D01*
X115201472Y-67503220D01*
X115296780Y-67598528D01*
X115416874Y-67659719D01*
X115426663Y-67661269D01*
X115426665Y-67661270D01*
X115540207Y-67679253D01*
X115550000Y-67680804D01*
X115559793Y-67679253D01*
X115673335Y-67661270D01*
X115673337Y-67661269D01*
X115683126Y-67659719D01*
X115803220Y-67598528D01*
X115898528Y-67503220D01*
X115959719Y-67383126D01*
X115971265Y-67310231D01*
X115979253Y-67259793D01*
X115980804Y-67250000D01*
X116669196Y-67250000D01*
X116670747Y-67259793D01*
X116678736Y-67310231D01*
X116690281Y-67383126D01*
X116751472Y-67503220D01*
X116846780Y-67598528D01*
X116966874Y-67659719D01*
X116976663Y-67661269D01*
X116976665Y-67661270D01*
X117090207Y-67679253D01*
X117100000Y-67680804D01*
X117109793Y-67679253D01*
X117223335Y-67661270D01*
X117223337Y-67661269D01*
X117233126Y-67659719D01*
X117353220Y-67598528D01*
X117448528Y-67503220D01*
X117509719Y-67383126D01*
X117521265Y-67310231D01*
X117529253Y-67259793D01*
X117530804Y-67250000D01*
X117518662Y-67173335D01*
X117511270Y-67126665D01*
X117511269Y-67126663D01*
X117509719Y-67116874D01*
X117448528Y-66996780D01*
X117353220Y-66901472D01*
X117233126Y-66840281D01*
X117223337Y-66838731D01*
X117223335Y-66838730D01*
X117109793Y-66820747D01*
X117100000Y-66819196D01*
X117090207Y-66820747D01*
X116976665Y-66838730D01*
X116976663Y-66838731D01*
X116966874Y-66840281D01*
X116846780Y-66901472D01*
X116751472Y-66996780D01*
X116690281Y-67116874D01*
X116688731Y-67126663D01*
X116688730Y-67126665D01*
X116681338Y-67173335D01*
X116669196Y-67250000D01*
X115980804Y-67250000D01*
X115968662Y-67173335D01*
X115961270Y-67126665D01*
X115961269Y-67126663D01*
X115959719Y-67116874D01*
X115898528Y-66996780D01*
X115803220Y-66901472D01*
X115683126Y-66840281D01*
X115673337Y-66838731D01*
X115673335Y-66838730D01*
X115559793Y-66820747D01*
X115550000Y-66819196D01*
X115540207Y-66820747D01*
X115426665Y-66838730D01*
X115426663Y-66838731D01*
X115416874Y-66840281D01*
X115296780Y-66901472D01*
X115201472Y-66996780D01*
X115140281Y-67116874D01*
X115138731Y-67126663D01*
X115138730Y-67126665D01*
X115131338Y-67173335D01*
X115119196Y-67250000D01*
X109601414Y-67250000D01*
X110551414Y-66300000D01*
X118119196Y-66300000D01*
X118120747Y-66309793D01*
X118128655Y-66359719D01*
X118140281Y-66433126D01*
X118201472Y-66553220D01*
X118296780Y-66648528D01*
X118416874Y-66709719D01*
X118426663Y-66711269D01*
X118426665Y-66711270D01*
X118540207Y-66729253D01*
X118550000Y-66730804D01*
X118559793Y-66729253D01*
X118673335Y-66711270D01*
X118673337Y-66711269D01*
X118683126Y-66709719D01*
X118803220Y-66648528D01*
X118898528Y-66553220D01*
X118900169Y-66550000D01*
X124819196Y-66550000D01*
X124820747Y-66559793D01*
X124835268Y-66651472D01*
X124840281Y-66683126D01*
X124901472Y-66803220D01*
X124996780Y-66898528D01*
X125116874Y-66959719D01*
X125126663Y-66961269D01*
X125126665Y-66961270D01*
X125240207Y-66979253D01*
X125250000Y-66980804D01*
X125259793Y-66979253D01*
X125373335Y-66961270D01*
X125373337Y-66961269D01*
X125383126Y-66959719D01*
X125503220Y-66898528D01*
X125598528Y-66803220D01*
X125659719Y-66683126D01*
X125664733Y-66651472D01*
X125679253Y-66559793D01*
X125680804Y-66550000D01*
X125659719Y-66416874D01*
X125598528Y-66296780D01*
X125503220Y-66201472D01*
X125383126Y-66140281D01*
X125373337Y-66138731D01*
X125373335Y-66138730D01*
X125259793Y-66120747D01*
X125250000Y-66119196D01*
X125240207Y-66120747D01*
X125126665Y-66138730D01*
X125126663Y-66138731D01*
X125116874Y-66140281D01*
X124996780Y-66201472D01*
X124901472Y-66296780D01*
X124840281Y-66416874D01*
X124819196Y-66550000D01*
X118900169Y-66550000D01*
X118959719Y-66433126D01*
X118971346Y-66359719D01*
X118979253Y-66309793D01*
X118980804Y-66300000D01*
X118963415Y-66190207D01*
X118961270Y-66176665D01*
X118961269Y-66176663D01*
X118959719Y-66166874D01*
X118898528Y-66046780D01*
X118803220Y-65951472D01*
X118683126Y-65890281D01*
X118673337Y-65888731D01*
X118673335Y-65888730D01*
X118559793Y-65870747D01*
X118550000Y-65869196D01*
X118540207Y-65870747D01*
X118426665Y-65888730D01*
X118426663Y-65888731D01*
X118416874Y-65890281D01*
X118296780Y-65951472D01*
X118201472Y-66046780D01*
X118140281Y-66166874D01*
X118138731Y-66176663D01*
X118138730Y-66176665D01*
X118136585Y-66190207D01*
X118119196Y-66300000D01*
X110551414Y-66300000D01*
X111050567Y-65800847D01*
X111050765Y-65800765D01*
X111051000Y-65800198D01*
X111051082Y-65800000D01*
X111051000Y-65799802D01*
X111051000Y-65589000D01*
X111691946Y-65589000D01*
X111693497Y-65598793D01*
X111709017Y-65696780D01*
X111713031Y-65722126D01*
X111774222Y-65842220D01*
X111869530Y-65937528D01*
X111989624Y-65998719D01*
X111999413Y-66000269D01*
X111999415Y-66000270D01*
X112018042Y-66003220D01*
X112089262Y-66014500D01*
X112156238Y-66014500D01*
X112227458Y-66003220D01*
X112246085Y-66000270D01*
X112246087Y-66000269D01*
X112255876Y-65998719D01*
X112375970Y-65937528D01*
X112471278Y-65842220D01*
X112532469Y-65722126D01*
X112536484Y-65696780D01*
X112552003Y-65598793D01*
X112553554Y-65589000D01*
X112551243Y-65574410D01*
X112534020Y-65465665D01*
X112534019Y-65465663D01*
X112532469Y-65455874D01*
X112471278Y-65335780D01*
X112375970Y-65240472D01*
X112296539Y-65200000D01*
X113619196Y-65200000D01*
X113620747Y-65209793D01*
X113636574Y-65309719D01*
X113640281Y-65333126D01*
X113701472Y-65453220D01*
X113796780Y-65548528D01*
X113916874Y-65609719D01*
X113926663Y-65611269D01*
X113926665Y-65611270D01*
X114040207Y-65629253D01*
X114050000Y-65630804D01*
X114059793Y-65629253D01*
X114173335Y-65611270D01*
X114173337Y-65611269D01*
X114183126Y-65609719D01*
X114303220Y-65548528D01*
X114398528Y-65453220D01*
X114459719Y-65333126D01*
X114463427Y-65309719D01*
X114479253Y-65209793D01*
X114480804Y-65200000D01*
X115519196Y-65200000D01*
X115520747Y-65209793D01*
X115536574Y-65309719D01*
X115540281Y-65333126D01*
X115601472Y-65453220D01*
X115696780Y-65548528D01*
X115816874Y-65609719D01*
X115826663Y-65611269D01*
X115826665Y-65611270D01*
X115940207Y-65629253D01*
X115950000Y-65630804D01*
X115959793Y-65629253D01*
X116073335Y-65611270D01*
X116073337Y-65611269D01*
X116083126Y-65609719D01*
X116203220Y-65548528D01*
X116298528Y-65453220D01*
X116359719Y-65333126D01*
X116363427Y-65309719D01*
X116379253Y-65209793D01*
X116380804Y-65200000D01*
X116378131Y-65183126D01*
X116361270Y-65076665D01*
X116361269Y-65076663D01*
X116359719Y-65066874D01*
X116298528Y-64946780D01*
X116251748Y-64900000D01*
X118369196Y-64900000D01*
X118390281Y-65033126D01*
X118451472Y-65153220D01*
X118546780Y-65248528D01*
X118666874Y-65309719D01*
X118676663Y-65311269D01*
X118676665Y-65311270D01*
X118790207Y-65329253D01*
X118800000Y-65330804D01*
X118809793Y-65329253D01*
X118923335Y-65311270D01*
X118923337Y-65311269D01*
X118933126Y-65309719D01*
X119053220Y-65248528D01*
X119148528Y-65153220D01*
X119209719Y-65033126D01*
X119216586Y-64989769D01*
X119219879Y-64968980D01*
X119250292Y-64904828D01*
X119310560Y-64867301D01*
X119381550Y-64868315D01*
X119401531Y-64876425D01*
X119466874Y-64909719D01*
X119476663Y-64911269D01*
X119476665Y-64911270D01*
X119590207Y-64929253D01*
X119600000Y-64930804D01*
X119609793Y-64929253D01*
X119723335Y-64911270D01*
X119723337Y-64911269D01*
X119733126Y-64909719D01*
X119747977Y-64902152D01*
X119817754Y-64889048D01*
X119883538Y-64915748D01*
X119924445Y-64973775D01*
X119929629Y-65034129D01*
X119919196Y-65100000D01*
X119920747Y-65109793D01*
X119938075Y-65219196D01*
X119940281Y-65233126D01*
X120001472Y-65353220D01*
X120003142Y-65354890D01*
X120025590Y-65417806D01*
X120009511Y-65486957D01*
X120006303Y-65491949D01*
X120001472Y-65496780D01*
X119940281Y-65616874D01*
X119938731Y-65626663D01*
X119938730Y-65626665D01*
X119923611Y-65722126D01*
X119919196Y-65750000D01*
X119920747Y-65759793D01*
X119938075Y-65869196D01*
X119940281Y-65883126D01*
X120001472Y-66003220D01*
X120096780Y-66098528D01*
X120216874Y-66159719D01*
X120226663Y-66161269D01*
X120226665Y-66161270D01*
X120340207Y-66179253D01*
X120350000Y-66180804D01*
X120359793Y-66179253D01*
X120473335Y-66161270D01*
X120473337Y-66161269D01*
X120483126Y-66159719D01*
X120603220Y-66098528D01*
X120698528Y-66003220D01*
X120759719Y-65883126D01*
X120763622Y-65858483D01*
X120777149Y-65773079D01*
X120807562Y-65708926D01*
X120867830Y-65671399D01*
X120921308Y-65668341D01*
X120990206Y-65679253D01*
X120990207Y-65679253D01*
X121000000Y-65680804D01*
X121009793Y-65679253D01*
X121123335Y-65661270D01*
X121123337Y-65661269D01*
X121133126Y-65659719D01*
X121253220Y-65598528D01*
X121260905Y-65590843D01*
X121261925Y-65590286D01*
X121268252Y-65585689D01*
X121268846Y-65586507D01*
X121323217Y-65556817D01*
X121394032Y-65561882D01*
X121431534Y-65585984D01*
X121431748Y-65585689D01*
X121436900Y-65589432D01*
X121439095Y-65590843D01*
X121446780Y-65598528D01*
X121566874Y-65659719D01*
X121576663Y-65661269D01*
X121576665Y-65661270D01*
X121690207Y-65679253D01*
X121700000Y-65680804D01*
X121709793Y-65679253D01*
X121823335Y-65661270D01*
X121823337Y-65661269D01*
X121833126Y-65659719D01*
X121953220Y-65598528D01*
X121954890Y-65596858D01*
X122017806Y-65574410D01*
X122086957Y-65590489D01*
X122091949Y-65593697D01*
X122096780Y-65598528D01*
X122216874Y-65659719D01*
X122226663Y-65661269D01*
X122226665Y-65661270D01*
X122340207Y-65679253D01*
X122350000Y-65680804D01*
X122359793Y-65679253D01*
X122473335Y-65661270D01*
X122473337Y-65661269D01*
X122483126Y-65659719D01*
X122603220Y-65598528D01*
X122604890Y-65596858D01*
X122667806Y-65574410D01*
X122736957Y-65590489D01*
X122741949Y-65593697D01*
X122746780Y-65598528D01*
X122866874Y-65659719D01*
X122876663Y-65661269D01*
X122876665Y-65661270D01*
X122990207Y-65679253D01*
X123000000Y-65680804D01*
X123009793Y-65679253D01*
X123123335Y-65661270D01*
X123123337Y-65661269D01*
X123133126Y-65659719D01*
X123253220Y-65598528D01*
X123254890Y-65596858D01*
X123317806Y-65574410D01*
X123386957Y-65590489D01*
X123391949Y-65593697D01*
X123396780Y-65598528D01*
X123516874Y-65659719D01*
X123526663Y-65661269D01*
X123526665Y-65661270D01*
X123640207Y-65679253D01*
X123650000Y-65680804D01*
X123659793Y-65679253D01*
X123773335Y-65661270D01*
X123773337Y-65661269D01*
X123783126Y-65659719D01*
X123802201Y-65650000D01*
X130019196Y-65650000D01*
X130020747Y-65659793D01*
X130038690Y-65773079D01*
X130040281Y-65783126D01*
X130101472Y-65903220D01*
X130196780Y-65998528D01*
X130316874Y-66059719D01*
X130326663Y-66061269D01*
X130326665Y-66061270D01*
X130440207Y-66079253D01*
X130450000Y-66080804D01*
X130459793Y-66079253D01*
X130573335Y-66061270D01*
X130573337Y-66061269D01*
X130583126Y-66059719D01*
X130703220Y-65998528D01*
X130798528Y-65903220D01*
X130859719Y-65783126D01*
X130861311Y-65773079D01*
X130879253Y-65659793D01*
X130880804Y-65650000D01*
X130873365Y-65603031D01*
X130861270Y-65526665D01*
X130861269Y-65526663D01*
X130859719Y-65516874D01*
X130798528Y-65396780D01*
X130703220Y-65301472D01*
X130583126Y-65240281D01*
X130573337Y-65238731D01*
X130573335Y-65238730D01*
X130459793Y-65220747D01*
X130450000Y-65219196D01*
X130440207Y-65220747D01*
X130326665Y-65238730D01*
X130326663Y-65238731D01*
X130316874Y-65240281D01*
X130196780Y-65301472D01*
X130101472Y-65396780D01*
X130040281Y-65516874D01*
X130038731Y-65526663D01*
X130038730Y-65526665D01*
X130026635Y-65603031D01*
X130019196Y-65650000D01*
X123802201Y-65650000D01*
X123903220Y-65598528D01*
X123998528Y-65503220D01*
X124059719Y-65383126D01*
X124065856Y-65344382D01*
X124079253Y-65259793D01*
X124080804Y-65250000D01*
X124072885Y-65200000D01*
X127469196Y-65200000D01*
X127470747Y-65209793D01*
X127486574Y-65309719D01*
X127490281Y-65333126D01*
X127551472Y-65453220D01*
X127646780Y-65548528D01*
X127766874Y-65609719D01*
X127776663Y-65611269D01*
X127776665Y-65611270D01*
X127890207Y-65629253D01*
X127900000Y-65630804D01*
X127909793Y-65629253D01*
X128023335Y-65611270D01*
X128023337Y-65611269D01*
X128033126Y-65609719D01*
X128153220Y-65548528D01*
X128248528Y-65453220D01*
X128309719Y-65333126D01*
X128313427Y-65309719D01*
X128329253Y-65209793D01*
X128330804Y-65200000D01*
X128328131Y-65183126D01*
X128311270Y-65076665D01*
X128311269Y-65076663D01*
X128309719Y-65066874D01*
X128301121Y-65050000D01*
X133419196Y-65050000D01*
X133420747Y-65059793D01*
X133437173Y-65163500D01*
X133440281Y-65183126D01*
X133501472Y-65303220D01*
X133596780Y-65398528D01*
X133716874Y-65459719D01*
X133726665Y-65461270D01*
X133726666Y-65461270D01*
X133751723Y-65465239D01*
X133836637Y-65478688D01*
X133900789Y-65509099D01*
X133938317Y-65569367D01*
X133937303Y-65640356D01*
X133912942Y-65680753D01*
X133914311Y-65681748D01*
X133908484Y-65689768D01*
X133901472Y-65696780D01*
X133840281Y-65816874D01*
X133838731Y-65826663D01*
X133838730Y-65826665D01*
X133826605Y-65903220D01*
X133819196Y-65950000D01*
X133820747Y-65959793D01*
X133836574Y-66059719D01*
X133840281Y-66083126D01*
X133901472Y-66203220D01*
X133996780Y-66298528D01*
X134116874Y-66359719D01*
X134126663Y-66361269D01*
X134126665Y-66361270D01*
X134240207Y-66379253D01*
X134250000Y-66380804D01*
X134259793Y-66379253D01*
X134373335Y-66361270D01*
X134373337Y-66361269D01*
X134383126Y-66359719D01*
X134503220Y-66298528D01*
X134598528Y-66203220D01*
X134600169Y-66200000D01*
X137969196Y-66200000D01*
X137990281Y-66333126D01*
X138051472Y-66453220D01*
X138146780Y-66548528D01*
X138266874Y-66609719D01*
X138276663Y-66611269D01*
X138276665Y-66611270D01*
X138390207Y-66629253D01*
X138400000Y-66630804D01*
X138409793Y-66629253D01*
X138523335Y-66611270D01*
X138523337Y-66611269D01*
X138533126Y-66609719D01*
X138653220Y-66548528D01*
X138748528Y-66453220D01*
X138809719Y-66333126D01*
X138830804Y-66200000D01*
X138823711Y-66155218D01*
X138811270Y-66076665D01*
X138811269Y-66076663D01*
X138809719Y-66066874D01*
X138748528Y-65946780D01*
X138653220Y-65851472D01*
X138533126Y-65790281D01*
X138523337Y-65788731D01*
X138523335Y-65788730D01*
X138409793Y-65770747D01*
X138400000Y-65769196D01*
X138390207Y-65770747D01*
X138276665Y-65788730D01*
X138276663Y-65788731D01*
X138266874Y-65790281D01*
X138146780Y-65851472D01*
X138051472Y-65946780D01*
X137990281Y-66066874D01*
X137988731Y-66076663D01*
X137988730Y-66076665D01*
X137976289Y-66155218D01*
X137969196Y-66200000D01*
X134600169Y-66200000D01*
X134659719Y-66083126D01*
X134663427Y-66059719D01*
X134679253Y-65959793D01*
X134680804Y-65950000D01*
X134673395Y-65903220D01*
X134661270Y-65826665D01*
X134661269Y-65826663D01*
X134659719Y-65816874D01*
X134598528Y-65696780D01*
X134503220Y-65601472D01*
X134383126Y-65540281D01*
X134373335Y-65538730D01*
X134373334Y-65538730D01*
X134348277Y-65534761D01*
X134263363Y-65521312D01*
X134199211Y-65490901D01*
X134161683Y-65430633D01*
X134162697Y-65359644D01*
X134187058Y-65319247D01*
X134185689Y-65318252D01*
X134191517Y-65310231D01*
X134198528Y-65303220D01*
X134251121Y-65200000D01*
X135969196Y-65200000D01*
X135970747Y-65209793D01*
X135986574Y-65309719D01*
X135990281Y-65333126D01*
X136051472Y-65453220D01*
X136146780Y-65548528D01*
X136266874Y-65609719D01*
X136276663Y-65611269D01*
X136276665Y-65611270D01*
X136390207Y-65629253D01*
X136400000Y-65630804D01*
X136409793Y-65629253D01*
X136523335Y-65611270D01*
X136523337Y-65611269D01*
X136533126Y-65609719D01*
X136653220Y-65548528D01*
X136748528Y-65453220D01*
X136809719Y-65333126D01*
X136813427Y-65309719D01*
X136829253Y-65209793D01*
X136830804Y-65200000D01*
X136828131Y-65183126D01*
X136811270Y-65076665D01*
X136811269Y-65076663D01*
X136809719Y-65066874D01*
X136748528Y-64946780D01*
X136653220Y-64851472D01*
X136533126Y-64790281D01*
X136523337Y-64788731D01*
X136523335Y-64788730D01*
X136409793Y-64770747D01*
X136400000Y-64769196D01*
X136390207Y-64770747D01*
X136276665Y-64788730D01*
X136276663Y-64788731D01*
X136266874Y-64790281D01*
X136146780Y-64851472D01*
X136051472Y-64946780D01*
X135990281Y-65066874D01*
X135988731Y-65076663D01*
X135988730Y-65076665D01*
X135971869Y-65183126D01*
X135969196Y-65200000D01*
X134251121Y-65200000D01*
X134259719Y-65183126D01*
X134262828Y-65163500D01*
X134279253Y-65059793D01*
X134280804Y-65050000D01*
X134279253Y-65040207D01*
X134261270Y-64926665D01*
X134261269Y-64926663D01*
X134259719Y-64916874D01*
X134198528Y-64796780D01*
X134103220Y-64701472D01*
X133983126Y-64640281D01*
X133973337Y-64638731D01*
X133973335Y-64638730D01*
X133859793Y-64620747D01*
X133850000Y-64619196D01*
X133840207Y-64620747D01*
X133726665Y-64638730D01*
X133726663Y-64638731D01*
X133716874Y-64640281D01*
X133596780Y-64701472D01*
X133501472Y-64796780D01*
X133440281Y-64916874D01*
X133438731Y-64926663D01*
X133438730Y-64926665D01*
X133420747Y-65040207D01*
X133419196Y-65050000D01*
X128301121Y-65050000D01*
X128248528Y-64946780D01*
X128153220Y-64851472D01*
X128033126Y-64790281D01*
X128023337Y-64788731D01*
X128023335Y-64788730D01*
X127909793Y-64770747D01*
X127900000Y-64769196D01*
X127890207Y-64770747D01*
X127776665Y-64788730D01*
X127776663Y-64788731D01*
X127766874Y-64790281D01*
X127646780Y-64851472D01*
X127551472Y-64946780D01*
X127490281Y-65066874D01*
X127488731Y-65076663D01*
X127488730Y-65076665D01*
X127471869Y-65183126D01*
X127469196Y-65200000D01*
X124072885Y-65200000D01*
X124059719Y-65116874D01*
X123998528Y-64996780D01*
X123903220Y-64901472D01*
X123783126Y-64840281D01*
X123773337Y-64838731D01*
X123773335Y-64838730D01*
X123659793Y-64820747D01*
X123650000Y-64819196D01*
X123640207Y-64820747D01*
X123526665Y-64838730D01*
X123526663Y-64838731D01*
X123516874Y-64840281D01*
X123396780Y-64901472D01*
X123395110Y-64903142D01*
X123332194Y-64925590D01*
X123263043Y-64909511D01*
X123258051Y-64906303D01*
X123253220Y-64901472D01*
X123133126Y-64840281D01*
X123123337Y-64838731D01*
X123123335Y-64838730D01*
X123009793Y-64820747D01*
X123000000Y-64819196D01*
X122990207Y-64820747D01*
X122876665Y-64838730D01*
X122876663Y-64838731D01*
X122866874Y-64840281D01*
X122746780Y-64901472D01*
X122745110Y-64903142D01*
X122682194Y-64925590D01*
X122613043Y-64909511D01*
X122608051Y-64906303D01*
X122603220Y-64901472D01*
X122483126Y-64840281D01*
X122473337Y-64838731D01*
X122473335Y-64838730D01*
X122359793Y-64820747D01*
X122350000Y-64819196D01*
X122340207Y-64820747D01*
X122226665Y-64838730D01*
X122226663Y-64838731D01*
X122216874Y-64840281D01*
X122096780Y-64901472D01*
X122095110Y-64903142D01*
X122032194Y-64925590D01*
X121963043Y-64909511D01*
X121958051Y-64906303D01*
X121953220Y-64901472D01*
X121833126Y-64840281D01*
X121823337Y-64838731D01*
X121823335Y-64838730D01*
X121709793Y-64820747D01*
X121700000Y-64819196D01*
X121690207Y-64820747D01*
X121576665Y-64838730D01*
X121576663Y-64838731D01*
X121566874Y-64840281D01*
X121446780Y-64901472D01*
X121439095Y-64909157D01*
X121438075Y-64909714D01*
X121431748Y-64914311D01*
X121431154Y-64913493D01*
X121376783Y-64943183D01*
X121305968Y-64938118D01*
X121268466Y-64914016D01*
X121268252Y-64914311D01*
X121263100Y-64910568D01*
X121260905Y-64909157D01*
X121253220Y-64901472D01*
X121133126Y-64840281D01*
X121123337Y-64838731D01*
X121123335Y-64838730D01*
X121009793Y-64820747D01*
X121000000Y-64819196D01*
X120990207Y-64820747D01*
X120876665Y-64838730D01*
X120876663Y-64838731D01*
X120866874Y-64840281D01*
X120858039Y-64844783D01*
X120858038Y-64844783D01*
X120832611Y-64857738D01*
X120762834Y-64870842D01*
X120697050Y-64844141D01*
X120686314Y-64834566D01*
X120603220Y-64751472D01*
X120483126Y-64690281D01*
X120473337Y-64688731D01*
X120473335Y-64688730D01*
X120359793Y-64670747D01*
X120350000Y-64669196D01*
X120340207Y-64670747D01*
X120226665Y-64688730D01*
X120226663Y-64688731D01*
X120216874Y-64690281D01*
X120203742Y-64696972D01*
X120202023Y-64697848D01*
X120132246Y-64710952D01*
X120066462Y-64684252D01*
X120025555Y-64626225D01*
X120020371Y-64565870D01*
X120022652Y-64551472D01*
X120030804Y-64500000D01*
X120019879Y-64431020D01*
X120011270Y-64376665D01*
X120011269Y-64376663D01*
X120009719Y-64366874D01*
X119948528Y-64246780D01*
X119940843Y-64239095D01*
X119940286Y-64238075D01*
X119935689Y-64231748D01*
X119936507Y-64231154D01*
X119906817Y-64176783D01*
X119911882Y-64105968D01*
X119935984Y-64068466D01*
X119935689Y-64068252D01*
X119939432Y-64063100D01*
X119940843Y-64060905D01*
X119948528Y-64053220D01*
X119975645Y-64000000D01*
X126969196Y-64000000D01*
X126970747Y-64009793D01*
X126988712Y-64123217D01*
X126990281Y-64133126D01*
X127051472Y-64253220D01*
X127146780Y-64348528D01*
X127266874Y-64409719D01*
X127276663Y-64411269D01*
X127276665Y-64411270D01*
X127390207Y-64429253D01*
X127400000Y-64430804D01*
X127409793Y-64429253D01*
X127523335Y-64411270D01*
X127523337Y-64411269D01*
X127533126Y-64409719D01*
X127653220Y-64348528D01*
X127748528Y-64253220D01*
X127809719Y-64133126D01*
X127811289Y-64123217D01*
X127829253Y-64009793D01*
X127830804Y-64000000D01*
X129769196Y-64000000D01*
X129770747Y-64009793D01*
X129788712Y-64123217D01*
X129790281Y-64133126D01*
X129851472Y-64253220D01*
X129946780Y-64348528D01*
X130066874Y-64409719D01*
X130076663Y-64411269D01*
X130076665Y-64411270D01*
X130190207Y-64429253D01*
X130200000Y-64430804D01*
X130209793Y-64429253D01*
X130323335Y-64411270D01*
X130323337Y-64411269D01*
X130333126Y-64409719D01*
X130453220Y-64348528D01*
X130548528Y-64253220D01*
X130609719Y-64133126D01*
X130611289Y-64123217D01*
X130629253Y-64009793D01*
X130630804Y-64000000D01*
X130609719Y-63866874D01*
X130548528Y-63746780D01*
X130453220Y-63651472D01*
X130333126Y-63590281D01*
X130323337Y-63588731D01*
X130323335Y-63588730D01*
X130209793Y-63570747D01*
X130200000Y-63569196D01*
X130190207Y-63570747D01*
X130076665Y-63588730D01*
X130076663Y-63588731D01*
X130066874Y-63590281D01*
X129946780Y-63651472D01*
X129851472Y-63746780D01*
X129790281Y-63866874D01*
X129769196Y-64000000D01*
X127830804Y-64000000D01*
X127809719Y-63866874D01*
X127748528Y-63746780D01*
X127653220Y-63651472D01*
X127533126Y-63590281D01*
X127523337Y-63588731D01*
X127523335Y-63588730D01*
X127409793Y-63570747D01*
X127400000Y-63569196D01*
X127390207Y-63570747D01*
X127276665Y-63588730D01*
X127276663Y-63588731D01*
X127266874Y-63590281D01*
X127146780Y-63651472D01*
X127051472Y-63746780D01*
X126990281Y-63866874D01*
X126969196Y-64000000D01*
X119975645Y-64000000D01*
X120009719Y-63933126D01*
X120030804Y-63800000D01*
X120022375Y-63746780D01*
X120011270Y-63676665D01*
X120011269Y-63676663D01*
X120009719Y-63666874D01*
X119967341Y-63583702D01*
X119954237Y-63513926D01*
X119980937Y-63448142D01*
X120038964Y-63407235D01*
X120079608Y-63400500D01*
X120121961Y-63400500D01*
X120130604Y-63397962D01*
X120130606Y-63397962D01*
X120251407Y-63362492D01*
X120251409Y-63362491D01*
X120260053Y-63359953D01*
X120379692Y-63283066D01*
X120447812Y-63263064D01*
X120515933Y-63283066D01*
X120562426Y-63336721D01*
X120572261Y-63369353D01*
X120585268Y-63451472D01*
X120590281Y-63483126D01*
X120651472Y-63603220D01*
X120746780Y-63698528D01*
X120866874Y-63759719D01*
X120876663Y-63761269D01*
X120876665Y-63761270D01*
X120990207Y-63779253D01*
X121000000Y-63780804D01*
X121009793Y-63779253D01*
X121123335Y-63761270D01*
X121123337Y-63761269D01*
X121133126Y-63759719D01*
X121253220Y-63698528D01*
X121348528Y-63603220D01*
X121409719Y-63483126D01*
X121414733Y-63451472D01*
X121430426Y-63352386D01*
X121460838Y-63288232D01*
X121521106Y-63250705D01*
X121592096Y-63251719D01*
X121594685Y-63252770D01*
X121594702Y-63252717D01*
X121604135Y-63255782D01*
X121612969Y-63260283D01*
X121622758Y-63261833D01*
X121622760Y-63261834D01*
X121736302Y-63279817D01*
X121746095Y-63281368D01*
X121755888Y-63279817D01*
X121869430Y-63261834D01*
X121869432Y-63261833D01*
X121879221Y-63260283D01*
X121999315Y-63199092D01*
X122094623Y-63103784D01*
X122155814Y-62983690D01*
X122161173Y-62949859D01*
X122175348Y-62860357D01*
X122176899Y-62850564D01*
X122162166Y-62757543D01*
X122157365Y-62727229D01*
X122157364Y-62727227D01*
X122155814Y-62717438D01*
X122094623Y-62597344D01*
X121999315Y-62502036D01*
X121995319Y-62500000D01*
X123019196Y-62500000D01*
X123020747Y-62509793D01*
X123038173Y-62619814D01*
X123040281Y-62633126D01*
X123101472Y-62753220D01*
X123196780Y-62848528D01*
X123316874Y-62909719D01*
X123326663Y-62911269D01*
X123326665Y-62911270D01*
X123440207Y-62929253D01*
X123450000Y-62930804D01*
X123459793Y-62929253D01*
X123573335Y-62911270D01*
X123573337Y-62911269D01*
X123583126Y-62909719D01*
X123703220Y-62848528D01*
X123798528Y-62753220D01*
X123859719Y-62633126D01*
X123861828Y-62619814D01*
X123879253Y-62509793D01*
X123880804Y-62500000D01*
X127919196Y-62500000D01*
X127920747Y-62509793D01*
X127938173Y-62619814D01*
X127940281Y-62633126D01*
X128001472Y-62753220D01*
X128096780Y-62848528D01*
X128216874Y-62909719D01*
X128226663Y-62911269D01*
X128226665Y-62911270D01*
X128340207Y-62929253D01*
X128350000Y-62930804D01*
X128359793Y-62929253D01*
X128473335Y-62911270D01*
X128473337Y-62911269D01*
X128483126Y-62909719D01*
X128603220Y-62848528D01*
X128698528Y-62753220D01*
X128759719Y-62633126D01*
X128761828Y-62619814D01*
X128779253Y-62509793D01*
X128780804Y-62500000D01*
X128771435Y-62440845D01*
X128761270Y-62376665D01*
X128761269Y-62376663D01*
X128759719Y-62366874D01*
X128698528Y-62246780D01*
X128603220Y-62151472D01*
X128483126Y-62090281D01*
X128473337Y-62088731D01*
X128473335Y-62088730D01*
X128359793Y-62070747D01*
X128350000Y-62069196D01*
X128340207Y-62070747D01*
X128226665Y-62088730D01*
X128226663Y-62088731D01*
X128216874Y-62090281D01*
X128096780Y-62151472D01*
X128001472Y-62246780D01*
X127940281Y-62366874D01*
X127938731Y-62376663D01*
X127938730Y-62376665D01*
X127928565Y-62440845D01*
X127919196Y-62500000D01*
X123880804Y-62500000D01*
X123871435Y-62440845D01*
X123861270Y-62376665D01*
X123861269Y-62376663D01*
X123859719Y-62366874D01*
X123798528Y-62246780D01*
X123703220Y-62151472D01*
X123583126Y-62090281D01*
X123573337Y-62088731D01*
X123573335Y-62088730D01*
X123459793Y-62070747D01*
X123450000Y-62069196D01*
X123440207Y-62070747D01*
X123326665Y-62088730D01*
X123326663Y-62088731D01*
X123316874Y-62090281D01*
X123196780Y-62151472D01*
X123101472Y-62246780D01*
X123040281Y-62366874D01*
X123038731Y-62376663D01*
X123038730Y-62376665D01*
X123028565Y-62440845D01*
X123019196Y-62500000D01*
X121995319Y-62500000D01*
X121879221Y-62440845D01*
X121869432Y-62439295D01*
X121869430Y-62439294D01*
X121755888Y-62421311D01*
X121746095Y-62419760D01*
X121736302Y-62421311D01*
X121622760Y-62439294D01*
X121622758Y-62439295D01*
X121612969Y-62440845D01*
X121492875Y-62502036D01*
X121397567Y-62597344D01*
X121336376Y-62717438D01*
X121334825Y-62727229D01*
X121334825Y-62727230D01*
X121315669Y-62848178D01*
X121285257Y-62912332D01*
X121224989Y-62949859D01*
X121153999Y-62948845D01*
X121151410Y-62947794D01*
X121151393Y-62947847D01*
X121141959Y-62944781D01*
X121133126Y-62940281D01*
X121123337Y-62938731D01*
X121123335Y-62938730D01*
X121009793Y-62920747D01*
X121000000Y-62919196D01*
X120990207Y-62920747D01*
X120876665Y-62938730D01*
X120876663Y-62938731D01*
X120866874Y-62940281D01*
X120803950Y-62972342D01*
X120755617Y-62996969D01*
X120755616Y-62996970D01*
X120746780Y-63001472D01*
X120746388Y-63000702D01*
X120687559Y-63021692D01*
X120618407Y-63005612D01*
X120568927Y-62954699D01*
X120555549Y-62900680D01*
X120555647Y-62900000D01*
X120535165Y-62757543D01*
X120529158Y-62744388D01*
X120479122Y-62634828D01*
X120475377Y-62626627D01*
X120457657Y-62606176D01*
X120387029Y-62524667D01*
X120387028Y-62524666D01*
X120381128Y-62517857D01*
X120373551Y-62512987D01*
X120373548Y-62512985D01*
X120267633Y-62444918D01*
X120267631Y-62444917D01*
X120260053Y-62440047D01*
X120251409Y-62437509D01*
X120251407Y-62437508D01*
X120130606Y-62402038D01*
X120130604Y-62402038D01*
X120121961Y-62399500D01*
X119978039Y-62399500D01*
X119969396Y-62402038D01*
X119969394Y-62402038D01*
X119848593Y-62437508D01*
X119848591Y-62437509D01*
X119839947Y-62440047D01*
X119832369Y-62444917D01*
X119832367Y-62444918D01*
X119726452Y-62512985D01*
X119726449Y-62512987D01*
X119718872Y-62517857D01*
X119712972Y-62524666D01*
X119712971Y-62524667D01*
X119642344Y-62606176D01*
X119624623Y-62626627D01*
X119620878Y-62634828D01*
X119570843Y-62744388D01*
X119564835Y-62757543D01*
X119544353Y-62900000D01*
X119564835Y-63042457D01*
X119568577Y-63050651D01*
X119568578Y-63050654D01*
X119620879Y-63165176D01*
X119620881Y-63165179D01*
X119624623Y-63173373D01*
X119630523Y-63180182D01*
X119633602Y-63184973D01*
X119653603Y-63253094D01*
X119633600Y-63321214D01*
X119579944Y-63367706D01*
X119547315Y-63377541D01*
X119498723Y-63385237D01*
X119476666Y-63388730D01*
X119476665Y-63388730D01*
X119466874Y-63390281D01*
X119346780Y-63451472D01*
X119251472Y-63546780D01*
X119190281Y-63666874D01*
X119188731Y-63676663D01*
X119188730Y-63676665D01*
X119177625Y-63746780D01*
X119169196Y-63800000D01*
X119190281Y-63933126D01*
X119251472Y-64053220D01*
X119259157Y-64060905D01*
X119259714Y-64061925D01*
X119264311Y-64068252D01*
X119263493Y-64068846D01*
X119293183Y-64123217D01*
X119288118Y-64194032D01*
X119264016Y-64231534D01*
X119264311Y-64231748D01*
X119260568Y-64236900D01*
X119259157Y-64239095D01*
X119251472Y-64246780D01*
X119190281Y-64366874D01*
X119188731Y-64376663D01*
X119188730Y-64376665D01*
X119180121Y-64431020D01*
X119149708Y-64495172D01*
X119089440Y-64532699D01*
X119018450Y-64531685D01*
X118998469Y-64523575D01*
X118933126Y-64490281D01*
X118923337Y-64488731D01*
X118923335Y-64488730D01*
X118809793Y-64470747D01*
X118800000Y-64469196D01*
X118790207Y-64470747D01*
X118676665Y-64488730D01*
X118676663Y-64488731D01*
X118666874Y-64490281D01*
X118546780Y-64551472D01*
X118451472Y-64646780D01*
X118390281Y-64766874D01*
X118388731Y-64776663D01*
X118388730Y-64776665D01*
X118377941Y-64844783D01*
X118369196Y-64900000D01*
X116251748Y-64900000D01*
X116203220Y-64851472D01*
X116083126Y-64790281D01*
X116073337Y-64788731D01*
X116073335Y-64788730D01*
X115959793Y-64770747D01*
X115950000Y-64769196D01*
X115940207Y-64770747D01*
X115826665Y-64788730D01*
X115826663Y-64788731D01*
X115816874Y-64790281D01*
X115696780Y-64851472D01*
X115601472Y-64946780D01*
X115540281Y-65066874D01*
X115538731Y-65076663D01*
X115538730Y-65076665D01*
X115521869Y-65183126D01*
X115519196Y-65200000D01*
X114480804Y-65200000D01*
X114478131Y-65183126D01*
X114461270Y-65076665D01*
X114461269Y-65076663D01*
X114459719Y-65066874D01*
X114398528Y-64946780D01*
X114303220Y-64851472D01*
X114183126Y-64790281D01*
X114173337Y-64788731D01*
X114173335Y-64788730D01*
X114059793Y-64770747D01*
X114050000Y-64769196D01*
X114040207Y-64770747D01*
X113926665Y-64788730D01*
X113926663Y-64788731D01*
X113916874Y-64790281D01*
X113796780Y-64851472D01*
X113701472Y-64946780D01*
X113640281Y-65066874D01*
X113638731Y-65076663D01*
X113638730Y-65076665D01*
X113621869Y-65183126D01*
X113619196Y-65200000D01*
X112296539Y-65200000D01*
X112255876Y-65179281D01*
X112246087Y-65177731D01*
X112246085Y-65177730D01*
X112216601Y-65173060D01*
X112156238Y-65163500D01*
X112089262Y-65163500D01*
X112028899Y-65173060D01*
X111999415Y-65177730D01*
X111999413Y-65177731D01*
X111989624Y-65179281D01*
X111869530Y-65240472D01*
X111774222Y-65335780D01*
X111713031Y-65455874D01*
X111711481Y-65465663D01*
X111711480Y-65465665D01*
X111694257Y-65574410D01*
X111691946Y-65589000D01*
X111051000Y-65589000D01*
X111051000Y-63747500D01*
X111691946Y-63747500D01*
X111713031Y-63880626D01*
X111774222Y-64000720D01*
X111869530Y-64096028D01*
X111989624Y-64157219D01*
X111999413Y-64158769D01*
X111999415Y-64158770D01*
X112028899Y-64163440D01*
X112089262Y-64173000D01*
X112156238Y-64173000D01*
X112216601Y-64163440D01*
X112246085Y-64158770D01*
X112246087Y-64158769D01*
X112255876Y-64157219D01*
X112375970Y-64096028D01*
X112471278Y-64000720D01*
X112532469Y-63880626D01*
X112553554Y-63747500D01*
X112532469Y-63614374D01*
X112471278Y-63494280D01*
X112375970Y-63398972D01*
X112255876Y-63337781D01*
X112246087Y-63336231D01*
X112246085Y-63336230D01*
X112216601Y-63331560D01*
X112156238Y-63322000D01*
X112089262Y-63322000D01*
X112028899Y-63331560D01*
X111999415Y-63336230D01*
X111999413Y-63336231D01*
X111989624Y-63337781D01*
X111869530Y-63398972D01*
X111774222Y-63494280D01*
X111713031Y-63614374D01*
X111691946Y-63747500D01*
X111051000Y-63747500D01*
X111051000Y-63600198D01*
X111051082Y-63600000D01*
X111050847Y-63599433D01*
X111050765Y-63599235D01*
X111050567Y-63599153D01*
X109587905Y-62136491D01*
X109553879Y-62074179D01*
X109551000Y-62047396D01*
X109551000Y-61037921D01*
X135695619Y-61037921D01*
X135697371Y-61046351D01*
X135697371Y-61046354D01*
X135724655Y-61177651D01*
X135726408Y-61186085D01*
X135796029Y-61320447D01*
X135899320Y-61431044D01*
X135954813Y-61464790D01*
X136021255Y-61505195D01*
X136021258Y-61505196D01*
X136028618Y-61509672D01*
X136174335Y-61550500D01*
X136287658Y-61550500D01*
X136341350Y-61543120D01*
X136391374Y-61536245D01*
X136391377Y-61536244D01*
X136399920Y-61535070D01*
X136458391Y-61509672D01*
X136530813Y-61478215D01*
X136530816Y-61478213D01*
X136538720Y-61474780D01*
X136545404Y-61469342D01*
X136545406Y-61469341D01*
X136600221Y-61424745D01*
X136656108Y-61379278D01*
X136743377Y-61255647D01*
X136768100Y-61186085D01*
X136791168Y-61121177D01*
X136791168Y-61121176D01*
X136794054Y-61113056D01*
X136804381Y-60962079D01*
X136787081Y-60878823D01*
X136775345Y-60822349D01*
X136775344Y-60822346D01*
X136773592Y-60813915D01*
X136703971Y-60679553D01*
X136600680Y-60568956D01*
X136523111Y-60521785D01*
X136478745Y-60494805D01*
X136478742Y-60494804D01*
X136471382Y-60490328D01*
X136325665Y-60449500D01*
X136212342Y-60449500D01*
X136158650Y-60456880D01*
X136108626Y-60463755D01*
X136108623Y-60463756D01*
X136100080Y-60464930D01*
X136046961Y-60488003D01*
X135969187Y-60521785D01*
X135969184Y-60521787D01*
X135961280Y-60525220D01*
X135954596Y-60530658D01*
X135954594Y-60530659D01*
X135913024Y-60564479D01*
X135843892Y-60620722D01*
X135756623Y-60744353D01*
X135753739Y-60752469D01*
X135753737Y-60752472D01*
X135720666Y-60845525D01*
X135705946Y-60886944D01*
X135695619Y-61037921D01*
X109551000Y-61037921D01*
X109551000Y-60976000D01*
X109571002Y-60907879D01*
X109624658Y-60861386D01*
X109677000Y-60850000D01*
X135000000Y-60850000D01*
X135065354Y-56700000D01*
X137469196Y-56700000D01*
X137470747Y-56709793D01*
X137480156Y-56769196D01*
X137490281Y-56833126D01*
X137551472Y-56953220D01*
X137646780Y-57048528D01*
X137766874Y-57109719D01*
X137776663Y-57111269D01*
X137776665Y-57111270D01*
X137890207Y-57129253D01*
X137900000Y-57130804D01*
X137909793Y-57129253D01*
X138023335Y-57111270D01*
X138023337Y-57111269D01*
X138033126Y-57109719D01*
X138153220Y-57048528D01*
X138248528Y-56953220D01*
X138309719Y-56833126D01*
X138319845Y-56769196D01*
X138329253Y-56709793D01*
X138330804Y-56700000D01*
X139369196Y-56700000D01*
X139370747Y-56709793D01*
X139380156Y-56769196D01*
X139390281Y-56833126D01*
X139451472Y-56953220D01*
X139546780Y-57048528D01*
X139666874Y-57109719D01*
X139676663Y-57111269D01*
X139676665Y-57111270D01*
X139790207Y-57129253D01*
X139800000Y-57130804D01*
X139809793Y-57129253D01*
X139923335Y-57111270D01*
X139923337Y-57111269D01*
X139933126Y-57109719D01*
X140053220Y-57048528D01*
X140148528Y-56953220D01*
X140209719Y-56833126D01*
X140219845Y-56769196D01*
X140229253Y-56709793D01*
X140230804Y-56700000D01*
X140209719Y-56566874D01*
X140148528Y-56446780D01*
X140053220Y-56351472D01*
X139933126Y-56290281D01*
X139923337Y-56288731D01*
X139923335Y-56288730D01*
X139809793Y-56270747D01*
X139800000Y-56269196D01*
X139790207Y-56270747D01*
X139676665Y-56288730D01*
X139676663Y-56288731D01*
X139666874Y-56290281D01*
X139546780Y-56351472D01*
X139451472Y-56446780D01*
X139390281Y-56566874D01*
X139369196Y-56700000D01*
X138330804Y-56700000D01*
X138309719Y-56566874D01*
X138248528Y-56446780D01*
X138153220Y-56351472D01*
X138033126Y-56290281D01*
X138023337Y-56288731D01*
X138023335Y-56288730D01*
X137909793Y-56270747D01*
X137900000Y-56269196D01*
X137890207Y-56270747D01*
X137776665Y-56288730D01*
X137776663Y-56288731D01*
X137766874Y-56290281D01*
X137646780Y-56351472D01*
X137551472Y-56446780D01*
X137490281Y-56566874D01*
X137469196Y-56700000D01*
X135065354Y-56700000D01*
X135085590Y-55415016D01*
X135106662Y-55347219D01*
X135161043Y-55301576D01*
X135211574Y-55291000D01*
X142643568Y-55291000D01*
X142711689Y-55311002D01*
G37*
%TD.AperFunction*%
%TD*%
M02*
