M48
; DRILL file {KiCad (6.99.0-1793-ga56955443f)} date Thu Sep  1 09:47:38 2022
; FORMAT={-:-/ absolute / inch / decimal}
; #@! TF.CreationDate,2022-09-01T09:47:38+01:00
; #@! TF.GenerationSoftware,Kicad,Pcbnew,(6.99.0-1793-ga56955443f)
; #@! TF.FileFunction,Plated,1,4,PTH
FMAT,2
INCH
; #@! TA.AperFunction,Plated,PTH,ViaDrill
T1C0.0079
; #@! TA.AperFunction,Plated,PTH,ViaDrill
T2C0.0118
%
G90
G05
T1
X4.3287Y-3.4547
X4.3307Y-3.4173
X4.3563Y-3.4173
X4.3701Y-3.5945
X4.3878Y-3.4173
X4.4094Y-3.5689
X4.4173Y-2.9941
X4.4429Y-3.5157
X4.4721Y-2.9425
X4.4724Y-3.0098
X4.4902Y-2.5669
X4.4908Y-2.9239
X4.5295Y-3.374
X4.5492Y-2.6476
X4.565Y-2.5295
X4.565Y-2.5669
X4.5846Y-2.5295
X4.5866Y-3.3366
X4.6004Y-3.2224
X4.6024Y-2.7559
X4.6102Y-2.6476
X4.626Y-2.9587
X4.6265Y-2.8922
X4.6398Y-2.9449
X4.6452Y-2.9109
X4.6673Y-2.6102
X4.6772Y-2.5551
X4.7087Y-2.5118
X4.7087Y-2.5394
X4.7146Y-2.8661
X4.7146Y-2.9331
X4.7146Y-2.9331
X4.7146Y-2.9665
X4.7146Y-3.0157
X4.7382Y-2.563
X4.7382Y-2.5886
X4.7382Y-2.6398
X4.7382Y-2.6791
X4.7382Y-2.7047
X4.7382Y-2.7382
X4.7402Y-2.7657
X4.7402Y-3.1378
X4.7402Y-3.1634
X4.7402Y-3.189
X4.7402Y-3.2146
X4.7402Y-3.2402
X4.7402Y-3.2657
X4.7559Y-2.9213
X4.7559Y-2.9449
X4.7559Y-2.9685
X4.7559Y-2.9921
X4.7579Y-2.8346
X4.7638Y-2.4941
X4.7638Y-2.5689
X4.7657Y-2.5965
X4.7657Y-2.6181
X4.7657Y-2.6398
X4.7657Y-2.6614
X4.7657Y-2.6831
X4.7657Y-2.7047
X4.7657Y-2.7264
X4.7795Y-2.9213
X4.7795Y-2.9449
X4.7795Y-2.9685
X4.7795Y-2.9921
X4.7835Y-2.8346
X4.7874Y-2.5965
X4.7874Y-2.6181
X4.7874Y-2.6398
X4.7874Y-2.6614
X4.7874Y-2.6831
X4.7874Y-2.7047
X4.7874Y-2.7264
X4.7874Y-2.7657
X4.7913Y-2.5689
X4.7932Y-2.4744
X4.8031Y-2.9213
X4.8031Y-2.9449
X4.8031Y-2.9685
X4.8031Y-2.9921
X4.8091Y-2.5965
X4.8091Y-2.6181
X4.8091Y-2.6398
X4.8091Y-2.6614
X4.8091Y-2.6831
X4.8091Y-2.7047
X4.8091Y-2.7264
X4.811Y-2.8346
X4.8169Y-2.5689
X4.8209Y-2.7657
X4.8307Y-2.6181
X4.8307Y-2.6398
X4.8307Y-2.6614
X4.8307Y-2.6831
X4.8307Y-2.7047
X4.8307Y-2.7264
X4.8425Y-2.5689
X4.8524Y-2.6181
X4.8524Y-2.6398
X4.8524Y-2.6614
X4.8524Y-2.6831
X4.8524Y-2.7047
X4.8524Y-2.7264
X4.8524Y-2.7657
X4.8602Y-2.4606
X4.8681Y-2.5689
X4.872Y-2.6181
X4.874Y-2.6398
X4.874Y-2.6614
X4.874Y-2.6831
X4.874Y-2.7047
X4.874Y-2.7264
X4.8957Y-2.6614
X4.8957Y-2.6831
X4.8957Y-2.7047
X4.8957Y-2.7264
X4.9154Y-2.9154
X4.9154Y-2.9665
X4.9154Y-3.0157
X4.9213Y-2.8425
X4.9213Y-2.8661
X4.9311Y-2.6201
X4.937Y-2.75
X4.9376Y-2.7087
X4.939Y-3.1398
X4.939Y-3.1654
X4.939Y-3.1909
X4.939Y-3.2165
X4.939Y-3.2421
X4.939Y-3.2677
X4.9449Y-2.8425
X4.9449Y-2.8661
X4.9488Y-3.0453
X4.9606Y-2.8268
X4.9862Y-3.0236
X4.9941Y-2.8898
X5.0098Y-2.7539
X5.0157Y-2.5197
X5.0354Y-2.5669
X5.0433Y-3.0236
X5.0512Y-2.7913
X5.0531Y-2.4606
X5.0748Y-2.7657
X5.1024Y-3.0236
X5.122Y-2.7618
X5.126Y-2.5197
X5.1358Y-2.5846
X5.1496Y-3.1358
X5.1594Y-3.0236
X5.1752Y-2.9035
X5.1772Y-3.1358
X5.1949Y-2.6378
X5.2165Y-2.7717
X5.2185Y-3.0236
X5.2205Y-2.9055
X5.2264Y-2.8248
X5.2264Y-2.8504
X5.2283Y-2.6378
X5.25Y-2.7717
X5.2697Y-2.561
X5.2756Y-2.7717
X5.2756Y-2.8268
X5.2756Y-2.8819
X5.2833Y-2.6495
X5.2854Y-2.5965
X5.3051Y-2.8248
X5.3228Y-2.9803
X5.3248Y-3.0925
X5.3406Y-2.6535
X5.3406Y-2.7697
X5.3701Y-2.5669
X5.3701Y-2.6614
X5.372Y-2.6988
X5.3799Y-3.0925
X5.3799Y-3.5571
X5.3937Y-2.6535
X5.3937Y-2.6772
X5.4291Y-2.2323
X5.439Y-2.7697
X5.439Y-3.2598
X5.4488Y-2.6063
X5.4488Y-2.6791
X5.4488Y-3.2126
X5.4744Y-2.7481
X5.4882Y-2.5669
X5.5039Y-2.2323
X5.5079Y-2.6949
X5.5157Y-2.5453
X5.516Y-2.7321
X5.5315Y-2.5886
X5.5354Y-2.7028
X5.5413Y-2.6417
X5.5433Y-2.252
X5.5591Y-2.6831
X5.5619Y-2.5573
X5.5709Y-2.7382
X5.5866Y-2.6398
X5.5886Y-2.5531
X5.5906Y-2.2224
X5.6083Y-2.5965
X5.6122Y-2.7638
X5.6132Y-2.7241
X5.6161Y-3.2736
X5.622Y-2.2028
X5.622Y-2.5531
T2
X4.3307Y-2.6535
X4.3307Y-2.685
X4.3307Y-2.7165
X4.3307Y-2.748
X4.3307Y-2.7795
X4.3307Y-2.811
X4.3307Y-2.8425
X4.3307Y-2.874
X4.3307Y-2.9055
X4.3307Y-2.937
X4.3307Y-2.9685
X4.3307Y-3.0
X4.3307Y-3.0315
X4.3307Y-3.063
X4.3307Y-3.0945
X4.3307Y-3.126
X4.3307Y-3.1575
X4.3307Y-3.3386
X4.3327Y-3.1988
X4.3386Y-2.4094
X4.3543Y-2.4331
X4.3543Y-2.4646
X4.3543Y-2.6378
X4.3543Y-2.6693
X4.3543Y-2.7008
X4.3543Y-2.7323
X4.3543Y-2.7638
X4.3543Y-2.7953
X4.3543Y-2.8268
X4.3543Y-2.8583
X4.3543Y-2.8898
X4.3543Y-2.9213
X4.3543Y-2.9528
X4.3543Y-2.9843
X4.3543Y-3.0157
X4.3543Y-3.0472
X4.3543Y-3.0787
X4.3543Y-3.1102
X4.3543Y-3.1417
X4.3622Y-3.3386
X4.3701Y-2.4094
X4.378Y-2.685
X4.378Y-2.7165
X4.378Y-2.748
X4.378Y-2.7795
X4.378Y-2.811
X4.378Y-2.8425
X4.378Y-2.874
X4.378Y-2.9055
X4.378Y-2.937
X4.378Y-2.9685
X4.378Y-3.0
X4.378Y-3.0315
X4.378Y-3.063
X4.378Y-3.0945
X4.378Y-3.126
X4.378Y-3.1575
X4.3858Y-2.5433
X4.4016Y-2.4094
X4.4016Y-2.7008
X4.4016Y-2.7323
X4.4016Y-2.7638
X4.4016Y-2.7953
X4.4016Y-2.8268
X4.4016Y-2.8583
X4.4016Y-2.8898
X4.4016Y-2.9213
X4.4016Y-2.9528
X4.4016Y-3.0472
X4.4016Y-3.0787
X4.4016Y-3.1102
X4.4016Y-3.1417
X4.4016Y-3.1732
X4.4173Y-2.5433
X4.4173Y-3.6535
X4.4252Y-2.685
X4.4252Y-2.7165
X4.4252Y-2.748
X4.4252Y-2.7795
X4.4252Y-2.811
X4.4252Y-2.8425
X4.4252Y-2.874
X4.4331Y-2.4094
X4.4331Y-3.6299
X4.4488Y-2.4331
X4.4488Y-2.5118
X4.4488Y-2.5433
X4.4488Y-2.5748
X4.4488Y-2.6063
X4.4488Y-2.6378
X4.4488Y-2.6693
X4.4488Y-2.7008
X4.4488Y-2.7323
X4.4488Y-2.7638
X4.4488Y-2.7953
X4.4488Y-2.8268
X4.4488Y-2.8583
X4.4488Y-3.6535
X4.4587Y-3.2421
X4.4646Y-2.4094
X4.4646Y-3.6299
X4.4724Y-2.622
X4.4724Y-2.6535
X4.4724Y-2.685
X4.4724Y-2.7165
X4.4724Y-2.748
X4.4724Y-2.7795
X4.4724Y-2.811
X4.4724Y-2.8425
X4.4803Y-2.4331
X4.4803Y-2.9764
X4.4803Y-3.6063
X4.4803Y-3.6535
X4.4961Y-2.4094
X4.4961Y-2.7008
X4.4961Y-2.7323
X4.4961Y-2.7638
X4.4961Y-3.6299
X4.5039Y-2.8425
X4.5039Y-3.0
X4.5098Y-3.2224
X4.5118Y-2.4331
X4.5118Y-3.0709
X4.5118Y-3.1024
X4.5118Y-3.1339
X4.5118Y-3.1654
X4.5118Y-3.6063
X4.5118Y-3.6535
X4.5197Y-2.7165
X4.5197Y-2.748
X4.5197Y-2.7795
X4.5276Y-2.4094
X4.5276Y-2.4567
X4.5276Y-3.4882
X4.5276Y-3.5354
X4.5276Y-3.5827
X4.5354Y-3.0551
X4.5354Y-3.0866
X4.5354Y-3.1181
X4.5354Y-3.1496
X4.5433Y-2.4331
X4.5433Y-2.4803
X4.5433Y-2.7953
X4.5433Y-3.5118
X4.5433Y-3.5591
X4.5591Y-2.4094
X4.5591Y-2.4567
X4.5591Y-3.4882
X4.5591Y-3.5354
X4.5591Y-3.5827
X4.5701Y-2.8295
X4.572Y-3.0185
X4.5748Y-2.4331
X4.5748Y-2.4803
X4.5748Y-3.5118
X4.5748Y-3.5591
X4.5906Y-2.4094
X4.5906Y-2.4567
X4.5906Y-3.4882
X4.5906Y-3.5354
X4.5906Y-3.5827
X4.6063Y-2.4331
X4.6063Y-2.4803
X4.6063Y-3.5118
X4.6063Y-3.5591
X4.622Y-2.4094
X4.622Y-2.4567
X4.622Y-3.2992
X4.622Y-3.4882
X4.622Y-3.5354
X4.622Y-3.5827
X4.6378Y-2.4331
X4.6378Y-3.2756
X4.6378Y-3.3228
X4.6378Y-3.5118
X4.6378Y-3.5591
X4.6535Y-2.4094
X4.6535Y-2.4567
X4.6535Y-3.1024
X4.6535Y-3.2992
X4.6535Y-3.3465
X4.6535Y-3.4882
X4.6535Y-3.5354
X4.6535Y-3.5827
X4.6693Y-2.4331
X4.6693Y-3.0787
X4.6693Y-3.2756
X4.6693Y-3.3228
X4.6693Y-3.4173
X4.6693Y-3.4646
X4.6693Y-3.5118
X4.6693Y-3.5591
X4.6693Y-3.6063
X4.685Y-2.4094
X4.685Y-3.0551
X4.685Y-3.1024
X4.685Y-3.2992
X4.685Y-3.3465
X4.685Y-3.4409
X4.685Y-3.4882
X4.685Y-3.5354
X4.685Y-3.5827
X4.685Y-3.6299
X4.7008Y-3.0787
X4.7008Y-3.2756
X4.7008Y-3.3228
X4.7008Y-3.4173
X4.7008Y-3.4646
X4.7008Y-3.5118
X4.7008Y-3.5591
X4.7008Y-3.6063
X4.7165Y-2.4094
X4.7165Y-3.1024
X4.7165Y-3.2992
X4.7165Y-3.3465
X4.7165Y-3.4409
X4.7165Y-3.4882
X4.7165Y-3.5354
X4.7165Y-3.5827
X4.7165Y-3.6299
X4.7244Y-3.0551
X4.7264Y-2.4764
X4.7323Y-3.3228
X4.7323Y-3.4173
X4.7323Y-3.4646
X4.7323Y-3.5118
X4.7323Y-3.5591
X4.7323Y-3.6063
X4.748Y-2.4094
X4.748Y-3.2992
X4.748Y-3.3465
X4.748Y-3.4409
X4.748Y-3.4882
X4.748Y-3.5354
X4.748Y-3.5827
X4.748Y-3.6299
X4.7559Y-3.0472
X4.7638Y-3.3228
X4.7638Y-3.4173
X4.7638Y-3.4646
X4.7638Y-3.5118
X4.7638Y-3.5591
X4.7638Y-3.6063
X4.7795Y-2.4094
X4.7795Y-3.2992
X4.7795Y-3.3465
X4.7795Y-3.4409
X4.7795Y-3.4882
X4.7795Y-3.5354
X4.7795Y-3.5827
X4.7795Y-3.6299
X4.7874Y-3.0472
X4.7953Y-3.3228
X4.7953Y-3.4646
X4.7953Y-3.5118
X4.7953Y-3.5591
X4.7953Y-3.6063
X4.811Y-2.4094
X4.811Y-3.2992
X4.811Y-3.3465
X4.811Y-3.4409
X4.811Y-3.4882
X4.811Y-3.5354
X4.811Y-3.5827
X4.811Y-3.6299
X4.8268Y-3.3228
X4.8268Y-3.4646
X4.8268Y-3.5118
X4.8268Y-3.5591
X4.8268Y-3.6063
X4.8425Y-2.4094
X4.8425Y-3.3465
X4.8425Y-3.4409
X4.8425Y-3.4882
X4.8425Y-3.5354
X4.8425Y-3.5827
X4.8425Y-3.6299
X4.8583Y-3.3701
X4.8583Y-3.4173
X4.8583Y-3.4646
X4.8583Y-3.5118
X4.8583Y-3.5591
X4.8583Y-3.6063
X4.874Y-2.4094
X4.874Y-3.3937
X4.874Y-3.4409
X4.874Y-3.4882
X4.874Y-3.5354
X4.874Y-3.5827
X4.874Y-3.6299
X4.8898Y-3.4173
X4.8898Y-3.4646
X4.8898Y-3.5118
X4.8898Y-3.5591
X4.8898Y-3.6063
X4.9055Y-2.4094
X4.9055Y-3.3937
X4.9055Y-3.4409
X4.9055Y-3.4882
X4.9055Y-3.5354
X4.9055Y-3.5827
X4.9055Y-3.6299
X4.9213Y-3.4173
X4.9213Y-3.4646
X4.9213Y-3.5118
X4.9213Y-3.5591
X4.9213Y-3.6063
X4.937Y-3.4409
X4.937Y-3.4882
X4.937Y-3.5354
X4.937Y-3.5827
X4.937Y-3.6299
X4.9528Y-3.4646
X4.9528Y-3.5118
X4.9528Y-3.5591
X4.9528Y-3.6063
X4.9685Y-2.4094
X4.9685Y-2.4567
X4.9685Y-3.4409
X4.9685Y-3.4882
X4.9685Y-3.5354
X4.9685Y-3.5827
X4.9685Y-3.6299
X4.9843Y-2.4331
X4.9843Y-2.4803
X4.9843Y-3.4173
X4.9843Y-3.4646
X4.9843Y-3.5118
X4.9843Y-3.5591
X4.9843Y-3.6063
X5.0Y-2.4094
X5.0Y-2.4567
X5.0Y-3.3937
X5.0Y-3.4409
X5.0Y-3.4882
X5.0Y-3.5354
X5.0Y-3.5827
X5.0Y-3.6299
X5.0157Y-2.4331
X5.0157Y-2.4803
X5.0157Y-3.3701
X5.0157Y-3.4173
X5.0157Y-3.4646
X5.0157Y-3.5118
X5.0157Y-3.5591
X5.0157Y-3.6063
X5.0315Y-2.4094
X5.0315Y-3.3465
X5.0315Y-3.3937
X5.0315Y-3.4409
X5.0315Y-3.4882
X5.0315Y-3.5354
X5.0315Y-3.5827
X5.0315Y-3.6299
X5.0394Y-2.937
X5.0394Y-2.9843
X5.0472Y-3.3228
X5.0472Y-3.3701
X5.0472Y-3.4173
X5.0472Y-3.4646
X5.0472Y-3.5118
X5.0472Y-3.5591
X5.0472Y-3.6063
X5.0551Y-2.9134
X5.0551Y-2.9606
X5.063Y-2.4094
X5.063Y-3.2992
X5.063Y-3.3465
X5.063Y-3.3937
X5.063Y-3.4409
X5.063Y-3.4882
X5.063Y-3.5354
X5.063Y-3.5827
X5.063Y-3.6299
X5.0709Y-2.8898
X5.0709Y-2.937
X5.0709Y-2.9843
X5.0787Y-2.4331
X5.0787Y-3.2283
X5.0787Y-3.2756
X5.0787Y-3.3228
X5.0787Y-3.3701
X5.0787Y-3.4173
X5.0787Y-3.4646
X5.0787Y-3.5118
X5.0787Y-3.5591
X5.0787Y-3.6063
X5.0866Y-2.9134
X5.0866Y-2.9606
X5.0945Y-2.4094
X5.0945Y-2.4567
X5.0945Y-3.1575
X5.0945Y-3.2047
X5.0945Y-3.252
X5.0945Y-3.2992
X5.0945Y-3.3465
X5.0945Y-3.3937
X5.0945Y-3.4409
X5.0945Y-3.4882
X5.0945Y-3.5354
X5.0945Y-3.5827
X5.0945Y-3.6299
X5.1024Y-2.937
X5.1024Y-2.9843
X5.1102Y-2.4331
X5.1102Y-3.1811
X5.1102Y-3.2283
X5.1102Y-3.2756
X5.1102Y-3.3228
X5.1102Y-3.3701
X5.1102Y-3.4173
X5.1102Y-3.4646
X5.1102Y-3.5118
X5.1102Y-3.5591
X5.1102Y-3.6063
X5.126Y-2.4094
X5.126Y-2.4567
X5.126Y-2.4882
X5.126Y-3.1575
X5.126Y-3.2047
X5.126Y-3.252
X5.126Y-3.2992
X5.126Y-3.3465
X5.126Y-3.3937
X5.126Y-3.4409
X5.126Y-3.4882
X5.126Y-3.5354
X5.126Y-3.5827
X5.126Y-3.6299
X5.1339Y-2.8268
X5.1417Y-2.4331
X5.1417Y-3.1811
X5.1417Y-3.2283
X5.1417Y-3.2756
X5.1417Y-3.3228
X5.1417Y-3.3701
X5.1417Y-3.4173
X5.1417Y-3.4646
X5.1417Y-3.5118
X5.1417Y-3.5591
X5.1417Y-3.6063
X5.1575Y-2.4094
X5.1575Y-2.4567
X5.1575Y-2.8031
X5.1575Y-2.8268
X5.1575Y-2.9764
X5.1575Y-3.2047
X5.1575Y-3.252
X5.1575Y-3.2992
X5.1575Y-3.3465
X5.1575Y-3.3937
X5.1575Y-3.4409
X5.1575Y-3.4882
X5.1575Y-3.5354
X5.1575Y-3.5827
X5.1575Y-3.6299
X5.1732Y-2.4331
X5.1732Y-3.2283
X5.1732Y-3.2756
X5.1732Y-3.3228
X5.1732Y-3.3701
X5.1732Y-3.4173
X5.1732Y-3.4646
X5.1732Y-3.5118
X5.1732Y-3.5591
X5.1732Y-3.6063
X5.1811Y-2.8268
X5.189Y-2.4094
X5.189Y-2.4567
X5.189Y-3.252
X5.189Y-3.2992
X5.189Y-3.3465
X5.189Y-3.3937
X5.189Y-3.4409
X5.189Y-3.4882
X5.189Y-3.5354
X5.189Y-3.5827
X5.189Y-3.6299
X5.2047Y-2.4331
X5.2047Y-2.937
X5.2047Y-3.2283
X5.2047Y-3.2756
X5.2047Y-3.3228
X5.2047Y-3.3701
X5.2047Y-3.4173
X5.2047Y-3.4646
X5.2047Y-3.5118
X5.2047Y-3.5591
X5.2047Y-3.6063
X5.2205Y-2.4094
X5.2205Y-2.4567
X5.2205Y-3.2992
X5.2205Y-3.3465
X5.2205Y-3.3937
X5.2205Y-3.4409
X5.2205Y-3.4882
X5.2205Y-3.5354
X5.2205Y-3.5827
X5.2205Y-3.6299
X5.2283Y-2.9528
X5.2362Y-2.4331
X5.2362Y-2.9291
X5.2362Y-3.2756
X5.2362Y-3.3228
X5.2362Y-3.3701
X5.2362Y-3.4173
X5.2362Y-3.4646
X5.2362Y-3.5118
X5.2362Y-3.5591
X5.2362Y-3.6063
X5.252Y-2.4094
X5.252Y-2.4567
X5.252Y-3.2992
X5.252Y-3.3465
X5.252Y-3.3937
X5.252Y-3.4409
X5.252Y-3.4882
X5.252Y-3.5354
X5.252Y-3.5827
X5.252Y-3.6299
X5.2598Y-2.9528
X5.2677Y-2.4331
X5.2677Y-3.3228
X5.2677Y-3.3701
X5.2677Y-3.4173
X5.2677Y-3.4646
X5.2677Y-3.5118
X5.2677Y-3.5591
X5.2677Y-3.6063
X5.2756Y-3.063
X5.2835Y-2.4094
X5.2835Y-3.2992
X5.2835Y-3.3465
X5.2835Y-3.3937
X5.2835Y-3.4409
X5.2835Y-3.4882
X5.2835Y-3.5354
X5.2835Y-3.5827
X5.2835Y-3.6299
X5.2992Y-2.4331
X5.2992Y-2.622
X5.2992Y-3.3228
X5.2992Y-3.3701
X5.2992Y-3.4173
X5.2992Y-3.4646
X5.2992Y-3.5118
X5.2992Y-3.5591
X5.2992Y-3.6063
X5.315Y-2.4094
X5.315Y-3.2992
X5.315Y-3.3465
X5.315Y-3.3937
X5.315Y-3.4409
X5.315Y-3.4882
X5.315Y-3.5354
X5.315Y-3.5827
X5.315Y-3.6299
X5.3228Y-2.4961
X5.3228Y-2.5276
X5.3228Y-2.5591
X5.3307Y-2.189
X5.3307Y-2.2205
X5.3307Y-2.252
X5.3307Y-2.2835
X5.3307Y-2.315
X5.3307Y-2.3465
X5.3307Y-2.378
X5.3307Y-2.4331
X5.3307Y-3.2283
X5.3307Y-3.3228
X5.3307Y-3.3701
X5.3307Y-3.4173
X5.3307Y-3.4646
X5.3307Y-3.5118
X5.3307Y-3.5591
X5.3307Y-3.6063
X5.3307Y-3.6535
X5.3465Y-3.3937
X5.3465Y-3.4882
X5.3465Y-3.6299
X5.3543Y-2.2047
X5.3543Y-2.2362
X5.3543Y-2.3622
X5.3622Y-3.6063
X5.3622Y-3.6535
X5.3701Y-2.8661
X5.378Y-2.189
X5.378Y-3.3937
X5.378Y-3.4882
X5.3858Y-2.3622
X5.3858Y-2.4331
X5.3937Y-2.8819
X5.3937Y-3.4173
X5.3937Y-3.6535
X5.4094Y-2.5669
X5.4173Y-2.8661
X5.4252Y-3.6535
X5.4409Y-2.9528
X5.4409Y-2.9843
X5.4409Y-3.0157
X5.4409Y-3.0472
X5.4567Y-3.4882
X5.4567Y-3.6535
X5.4646Y-2.3386
X5.4646Y-2.3622
X5.4646Y-2.4409
X5.4646Y-2.4646
X5.4646Y-2.9685
X5.4646Y-3.0
X5.4646Y-3.0315
X5.4803Y-2.189
X5.4882Y-3.6063
X5.4882Y-3.6535
X5.4961Y-3.2992
X5.5039Y-3.6299
X5.5118Y-2.189
X5.5197Y-3.6063
X5.5197Y-3.6535
X5.5276Y-3.2992
X5.5354Y-3.6299
X5.5433Y-2.189
X5.5512Y-3.6063
X5.5512Y-3.6535
X5.5669Y-3.6299
X5.5827Y-3.6063
X5.5827Y-3.6535
X5.5984Y-3.6299
X5.6142Y-3.6063
X5.6142Y-3.6535
X5.622Y-2.252
X5.6299Y-3.6299
T0
M30
