%TF.GenerationSoftware,KiCad,Pcbnew,(6.99.0-1793-ga56955443f)*%
%TF.CreationDate,2022-09-01T09:47:35+01:00*%
%TF.ProjectId,Watchy-MrT-ESP32-S3-V1,57617463-6879-42d4-9d72-542d45535033,rev?*%
%TF.SameCoordinates,Original*%
%TF.FileFunction,Paste,Top*%
%TF.FilePolarity,Positive*%
%FSLAX46Y46*%
G04 Gerber Fmt 4.6, Leading zero omitted, Abs format (unit mm)*
G04 Created by KiCad (PCBNEW (6.99.0-1793-ga56955443f)) date 2022-09-01 09:47:35*
%MOMM*%
%LPD*%
G01*
G04 APERTURE LIST*
G04 Aperture macros list*
%AMRoundRect*
0 Rectangle with rounded corners*
0 $1 Rounding radius*
0 $2 $3 $4 $5 $6 $7 $8 $9 X,Y pos of 4 corners*
0 Add a 4 corners polygon primitive as box body*
4,1,4,$2,$3,$4,$5,$6,$7,$8,$9,$2,$3,0*
0 Add four circle primitives for the rounded corners*
1,1,$1+$1,$2,$3*
1,1,$1+$1,$4,$5*
1,1,$1+$1,$6,$7*
1,1,$1+$1,$8,$9*
0 Add four rect primitives between the rounded corners*
20,1,$1+$1,$2,$3,$4,$5,0*
20,1,$1+$1,$4,$5,$6,$7,0*
20,1,$1+$1,$6,$7,$8,$9,0*
20,1,$1+$1,$8,$9,$2,$3,0*%
G04 Aperture macros list end*
%ADD10C,0.010000*%
%ADD11C,0.000100*%
%ADD12RoundRect,0.140000X0.170000X-0.140000X0.170000X0.140000X-0.170000X0.140000X-0.170000X-0.140000X0*%
%ADD13RoundRect,0.150000X-0.587500X-0.150000X0.587500X-0.150000X0.587500X0.150000X-0.587500X0.150000X0*%
%ADD14R,0.250000X0.275000*%
%ADD15R,0.275000X0.250000*%
%ADD16R,0.533400X1.981200*%
%ADD17C,0.200000*%
%ADD18R,0.375000X0.350000*%
%ADD19R,0.350000X0.375000*%
%ADD20R,0.300000X1.300000*%
%ADD21R,2.000000X3.000000*%
%ADD22RoundRect,0.006600X-0.103400X0.373400X-0.103400X-0.373400X0.103400X-0.373400X0.103400X0.373400X0*%
%ADD23RoundRect,0.150000X0.150000X-0.587500X0.150000X0.587500X-0.150000X0.587500X-0.150000X-0.587500X0*%
%ADD24RoundRect,0.135000X0.185000X-0.135000X0.185000X0.135000X-0.185000X0.135000X-0.185000X-0.135000X0*%
%ADD25RoundRect,0.250000X0.250000X0.475000X-0.250000X0.475000X-0.250000X-0.475000X0.250000X-0.475000X0*%
%ADD26RoundRect,0.150000X-0.512500X-0.150000X0.512500X-0.150000X0.512500X0.150000X-0.512500X0.150000X0*%
%ADD27RoundRect,0.140000X-0.140000X-0.170000X0.140000X-0.170000X0.140000X0.170000X-0.140000X0.170000X0*%
%ADD28RoundRect,0.225000X0.250000X-0.225000X0.250000X0.225000X-0.250000X0.225000X-0.250000X-0.225000X0*%
%ADD29RoundRect,0.135000X-0.135000X-0.185000X0.135000X-0.185000X0.135000X0.185000X-0.135000X0.185000X0*%
%ADD30R,1.050000X0.450000*%
%ADD31R,3.450000X4.350000*%
%ADD32RoundRect,0.150000X-0.700000X0.150000X-0.700000X-0.150000X0.700000X-0.150000X0.700000X0.150000X0*%
%ADD33RoundRect,0.250000X-1.150000X0.250000X-1.150000X-0.250000X1.150000X-0.250000X1.150000X0.250000X0*%
%ADD34RoundRect,0.250000X-0.250000X-0.475000X0.250000X-0.475000X0.250000X0.475000X-0.250000X0.475000X0*%
%ADD35R,1.150000X0.600000*%
%ADD36R,1.150000X0.300000*%
%ADD37R,2.000000X2.180000*%
%ADD38RoundRect,0.006600X-0.103400X0.398400X-0.103400X-0.398400X0.103400X-0.398400X0.103400X0.398400X0*%
%ADD39RoundRect,0.022000X-0.383000X0.088000X-0.383000X-0.088000X0.383000X-0.088000X0.383000X0.088000X0*%
%ADD40R,1.000000X1.400000*%
%ADD41R,0.900000X1.200000*%
%ADD42R,0.650000X0.850000*%
%ADD43R,0.300000X0.450000*%
%ADD44RoundRect,0.140000X-0.170000X0.140000X-0.170000X-0.140000X0.170000X-0.140000X0.170000X0.140000X0*%
%ADD45RoundRect,0.135000X0.135000X0.185000X-0.135000X0.185000X-0.135000X-0.185000X0.135000X-0.185000X0*%
%ADD46RoundRect,0.147500X0.147500X0.172500X-0.147500X0.172500X-0.147500X-0.172500X0.147500X-0.172500X0*%
%ADD47R,1.200000X1.200000*%
%ADD48R,1.200000X0.500000*%
%ADD49R,1.100000X0.500000*%
%ADD50R,0.400000X0.500000*%
%ADD51RoundRect,0.140000X0.140000X0.170000X-0.140000X0.170000X-0.140000X-0.170000X0.140000X-0.170000X0*%
%ADD52R,0.500000X0.500000*%
%ADD53R,0.900000X0.500000*%
%ADD54R,3.700000X1.200000*%
G04 APERTURE END LIST*
%TO.C,U4*%
G36*
X128976500Y-63564000D02*
G01*
X128648500Y-63564000D01*
X128648500Y-63236000D01*
X128976500Y-63236000D01*
X128976500Y-63564000D01*
G37*
D10*
X128976500Y-63564000D02*
X128648500Y-63564000D01*
X128648500Y-63236000D01*
X128976500Y-63236000D01*
X128976500Y-63564000D01*
G36*
X129412500Y-63855000D02*
G01*
X129022500Y-63855000D01*
X129022500Y-63745000D01*
X129172500Y-63595000D01*
X129412500Y-63595000D01*
X129412500Y-63855000D01*
G37*
D11*
X129412500Y-63855000D02*
X129022500Y-63855000D01*
X129022500Y-63745000D01*
X129172500Y-63595000D01*
X129412500Y-63595000D01*
X129412500Y-63855000D01*
G36*
X129412500Y-63205000D02*
G01*
X129172500Y-63205000D01*
X129022500Y-63055000D01*
X129022500Y-62945000D01*
X129412500Y-62945000D01*
X129412500Y-63205000D01*
G37*
X129412500Y-63205000D02*
X129172500Y-63205000D01*
X129022500Y-63055000D01*
X129022500Y-62945000D01*
X129412500Y-62945000D01*
X129412500Y-63205000D01*
G36*
X128602500Y-63745000D02*
G01*
X128602500Y-63855000D01*
X128212500Y-63855000D01*
X128212500Y-63595000D01*
X128452500Y-63595000D01*
X128602500Y-63745000D01*
G37*
X128602500Y-63745000D02*
X128602500Y-63855000D01*
X128212500Y-63855000D01*
X128212500Y-63595000D01*
X128452500Y-63595000D01*
X128602500Y-63745000D01*
G36*
X128602500Y-63055000D02*
G01*
X128452500Y-63205000D01*
X128212500Y-63205000D01*
X128212500Y-62945000D01*
X128602500Y-62945000D01*
X128602500Y-63055000D01*
G37*
X128602500Y-63055000D02*
X128452500Y-63205000D01*
X128212500Y-63205000D01*
X128212500Y-62945000D01*
X128602500Y-62945000D01*
X128602500Y-63055000D01*
%TO.C,U3*%
G36*
X116564000Y-67064000D02*
G01*
X116236000Y-67064000D01*
X116236000Y-66736000D01*
X116564000Y-66736000D01*
X116564000Y-67064000D01*
G37*
D10*
X116564000Y-67064000D02*
X116236000Y-67064000D01*
X116236000Y-66736000D01*
X116564000Y-66736000D01*
X116564000Y-67064000D01*
G36*
X117000000Y-67355000D02*
G01*
X116610000Y-67355000D01*
X116610000Y-67245000D01*
X116760000Y-67095000D01*
X117000000Y-67095000D01*
X117000000Y-67355000D01*
G37*
D11*
X117000000Y-67355000D02*
X116610000Y-67355000D01*
X116610000Y-67245000D01*
X116760000Y-67095000D01*
X117000000Y-67095000D01*
X117000000Y-67355000D01*
G36*
X117000000Y-66705000D02*
G01*
X116760000Y-66705000D01*
X116610000Y-66555000D01*
X116610000Y-66445000D01*
X117000000Y-66445000D01*
X117000000Y-66705000D01*
G37*
X117000000Y-66705000D02*
X116760000Y-66705000D01*
X116610000Y-66555000D01*
X116610000Y-66445000D01*
X117000000Y-66445000D01*
X117000000Y-66705000D01*
G36*
X116190000Y-67245000D02*
G01*
X116190000Y-67355000D01*
X115800000Y-67355000D01*
X115800000Y-67095000D01*
X116040000Y-67095000D01*
X116190000Y-67245000D01*
G37*
X116190000Y-67245000D02*
X116190000Y-67355000D01*
X115800000Y-67355000D01*
X115800000Y-67095000D01*
X116040000Y-67095000D01*
X116190000Y-67245000D01*
G36*
X116190000Y-66555000D02*
G01*
X116040000Y-66705000D01*
X115800000Y-66705000D01*
X115800000Y-66445000D01*
X116190000Y-66445000D01*
X116190000Y-66555000D01*
G37*
X116190000Y-66555000D02*
X116040000Y-66705000D01*
X115800000Y-66705000D01*
X115800000Y-66445000D01*
X116190000Y-66445000D01*
X116190000Y-66555000D01*
%TO.C,U10*%
G36*
X111370000Y-89740000D02*
G01*
X110430000Y-89740000D01*
X110430000Y-88860000D01*
X111370000Y-88860000D01*
X111370000Y-89740000D01*
G37*
D10*
X111370000Y-89740000D02*
X110430000Y-89740000D01*
X110430000Y-88860000D01*
X111370000Y-88860000D01*
X111370000Y-89740000D01*
%TO.C,U1*%
G36*
X124315000Y-67455000D02*
G01*
X123045000Y-67455000D01*
X123045000Y-66185000D01*
X124315000Y-66185000D01*
X124315000Y-67455000D01*
G37*
X124315000Y-67455000D02*
X123045000Y-67455000D01*
X123045000Y-66185000D01*
X124315000Y-66185000D01*
X124315000Y-67455000D01*
G36*
X122555000Y-67455000D02*
G01*
X121285000Y-67455000D01*
X121285000Y-66185000D01*
X122555000Y-66185000D01*
X122555000Y-67455000D01*
G37*
X122555000Y-67455000D02*
X121285000Y-67455000D01*
X121285000Y-66185000D01*
X122555000Y-66185000D01*
X122555000Y-67455000D01*
G36*
X124315000Y-69215000D02*
G01*
X123045000Y-69215000D01*
X123045000Y-67945000D01*
X124315000Y-67945000D01*
X124315000Y-69215000D01*
G37*
X124315000Y-69215000D02*
X123045000Y-69215000D01*
X123045000Y-67945000D01*
X124315000Y-67945000D01*
X124315000Y-69215000D01*
G36*
X122555000Y-69215000D02*
G01*
X121285000Y-69215000D01*
X121285000Y-67945000D01*
X122555000Y-67945000D01*
X122555000Y-69215000D01*
G37*
X122555000Y-69215000D02*
X121285000Y-69215000D01*
X121285000Y-67945000D01*
X122555000Y-67945000D01*
X122555000Y-69215000D01*
%TD*%
D12*
%TO.C,C28*%
X140800000Y-56980000D03*
X140800000Y-56020000D03*
%TD*%
D13*
%TO.C,Q2*%
X114612500Y-83800000D03*
X114612500Y-85700000D03*
X116487500Y-84750000D03*
%TD*%
D14*
%TO.C,IC2*%
X138149999Y-67936999D03*
X137649999Y-67936999D03*
D15*
X137137999Y-68199999D03*
X137137999Y-68699999D03*
X137137999Y-69199999D03*
D14*
X137649999Y-69462999D03*
X138149999Y-69462999D03*
D15*
X138661999Y-69199999D03*
X138661999Y-68699999D03*
X138661999Y-68199999D03*
%TD*%
D16*
%TO.C,U6*%
X131294999Y-68963799D03*
X132564999Y-68963799D03*
X133834999Y-68963799D03*
X135104999Y-68963799D03*
X135104999Y-64036199D03*
X133834999Y-64036199D03*
X132564999Y-64036199D03*
X131294999Y-64036199D03*
%TD*%
D17*
%TO.C,U7*%
X140981750Y-65399000D03*
X141547750Y-65399000D03*
X142113750Y-65399000D03*
X141264750Y-65682000D03*
X141830750Y-65682000D03*
X140981750Y-65965000D03*
X142113750Y-65965000D03*
X141264750Y-66248000D03*
X141830750Y-66248000D03*
X140981750Y-66531000D03*
X141547750Y-66531000D03*
X142113750Y-66531000D03*
%TD*%
D12*
%TO.C,C35*%
X124350000Y-62880000D03*
X124350000Y-61920000D03*
%TD*%
D18*
%TO.C,U8*%
X140787499Y-68649999D03*
X140787499Y-69149999D03*
X140787499Y-69649999D03*
X140787499Y-70149999D03*
D19*
X141299999Y-70162499D03*
X141799999Y-70162499D03*
D18*
X142312499Y-70149999D03*
X142312499Y-69649999D03*
X142312499Y-69149999D03*
X142312499Y-68649999D03*
D19*
X141799999Y-68637499D03*
X141299999Y-68637499D03*
%TD*%
D20*
%TO.C,J1*%
X132069999Y-78569999D03*
X131569999Y-78569999D03*
X131069999Y-78569999D03*
X130569999Y-78569999D03*
X130069999Y-78569999D03*
X129569999Y-78569999D03*
X129069999Y-78569999D03*
X128569999Y-78569999D03*
X128069999Y-78569999D03*
X127569999Y-78569999D03*
X127069999Y-78569999D03*
X126569999Y-78569999D03*
X126069999Y-78569999D03*
X125569999Y-78569999D03*
X125069999Y-78569999D03*
X124569999Y-78569999D03*
X124069999Y-78569999D03*
X123569999Y-78569999D03*
X123069999Y-78569999D03*
X122569999Y-78569999D03*
X122069999Y-78569999D03*
X121569999Y-78569999D03*
X121069999Y-78569999D03*
X120569999Y-78569999D03*
D21*
X118919999Y-80919999D03*
X133719999Y-80919999D03*
%TD*%
D22*
%TO.C,U10*%
X111700000Y-88070000D03*
X111300000Y-88070000D03*
X110900000Y-88070000D03*
X110500000Y-88070000D03*
X110100000Y-88070000D03*
X110100000Y-90530000D03*
X110500000Y-90530000D03*
X110900000Y-90530000D03*
X111300000Y-90530000D03*
X111700000Y-90530000D03*
%TD*%
D23*
%TO.C,Q1*%
X136250000Y-82812500D03*
X138150000Y-82812500D03*
X137200000Y-80937500D03*
%TD*%
D24*
%TO.C,R6*%
X113200000Y-82360000D03*
X113200000Y-81340000D03*
%TD*%
D12*
%TO.C,C27*%
X137400000Y-66180000D03*
X137400000Y-65220000D03*
%TD*%
D25*
%TO.C,C8*%
X142650000Y-83175000D03*
X140750000Y-83175000D03*
%TD*%
D12*
%TO.C,C30*%
X117000000Y-65180000D03*
X117000000Y-64220000D03*
%TD*%
D26*
%TO.C,U2*%
X110462500Y-83800000D03*
X110462500Y-84750000D03*
X110462500Y-85700000D03*
X112737500Y-85700000D03*
X112737500Y-83800000D03*
%TD*%
D27*
%TO.C,C1*%
X128720000Y-65200000D03*
X129680000Y-65200000D03*
%TD*%
D24*
%TO.C,R3*%
X135200000Y-77535000D03*
X135200000Y-76515000D03*
%TD*%
D28*
%TO.C,C16*%
X126650000Y-76800000D03*
X126650000Y-75250000D03*
%TD*%
D29*
%TO.C,R17*%
X120030000Y-62900000D03*
X121050000Y-62900000D03*
%TD*%
D24*
%TO.C,R9*%
X111700000Y-92710000D03*
X111700000Y-91690000D03*
%TD*%
D28*
%TO.C,C10*%
X129600000Y-76800000D03*
X129600000Y-75250000D03*
%TD*%
D30*
%TO.C,IC1*%
X125149999Y-76604999D03*
X125149999Y-75334999D03*
X125149999Y-74064999D03*
X125149999Y-72794999D03*
X119449999Y-72794999D03*
X119449999Y-74064999D03*
X119449999Y-75334999D03*
X119449999Y-76604999D03*
D31*
X122299999Y-74699999D03*
%TD*%
D32*
%TO.C,J3*%
X113400000Y-89325000D03*
X113400000Y-90575000D03*
D33*
X116750000Y-87475000D03*
X116750000Y-92425000D03*
%TD*%
D34*
%TO.C,C9*%
X136250000Y-78950000D03*
X138150000Y-78950000D03*
%TD*%
D35*
%TO.C,J2*%
X115564999Y-71069999D03*
X115564999Y-71869999D03*
D36*
X115564999Y-73019999D03*
X115564999Y-74019999D03*
X115564999Y-74519999D03*
X115564999Y-75519999D03*
D35*
X115564999Y-77469999D03*
X115564999Y-76669999D03*
D36*
X115564999Y-76019999D03*
X115564999Y-75019999D03*
X115564999Y-73519999D03*
X115564999Y-72519999D03*
D37*
X114989999Y-69159999D03*
X114989999Y-79379999D03*
X111059999Y-69159999D03*
X111059999Y-79379999D03*
%TD*%
D38*
%TO.C,U1*%
X125400000Y-64255000D03*
X125000000Y-64255000D03*
X124600000Y-64255000D03*
X124200000Y-64255000D03*
X123800000Y-64255000D03*
X123400000Y-64255000D03*
X123000000Y-64255000D03*
X122600000Y-64255000D03*
X122200000Y-64255000D03*
X121800000Y-64255000D03*
X121400000Y-64255000D03*
X121000000Y-64255000D03*
X120600000Y-64255000D03*
X120200000Y-64255000D03*
D39*
X119355000Y-65100000D03*
X119355000Y-65500000D03*
X119355000Y-65900000D03*
X119355000Y-66300000D03*
X119355000Y-66700000D03*
X119355000Y-67100000D03*
X119355000Y-67500000D03*
X119355000Y-67900000D03*
X119355000Y-68300000D03*
X119355000Y-68700000D03*
X119355000Y-69100000D03*
X119355000Y-69500000D03*
X119355000Y-69900000D03*
X119355000Y-70300000D03*
D38*
X120200000Y-71145000D03*
X120600000Y-71145000D03*
X121000000Y-71145000D03*
X121400000Y-71145000D03*
X121800000Y-71145000D03*
X122200000Y-71145000D03*
X122600000Y-71145000D03*
X123000000Y-71145000D03*
X123400000Y-71145000D03*
X123800000Y-71145000D03*
X124200000Y-71145000D03*
X124600000Y-71145000D03*
X125000000Y-71145000D03*
X125400000Y-71145000D03*
D39*
X126245000Y-70300000D03*
X126245000Y-69900000D03*
X126245000Y-69500000D03*
X126245000Y-69100000D03*
X126245000Y-68700000D03*
X126245000Y-68300000D03*
X126245000Y-67900000D03*
X126245000Y-67500000D03*
X126245000Y-67100000D03*
X126245000Y-66700000D03*
X126245000Y-66300000D03*
X126245000Y-65900000D03*
X126245000Y-65500000D03*
X126245000Y-65100000D03*
%TD*%
D40*
%TO.C,SW2*%
X138349999Y-71474999D03*
X136649999Y-71474999D03*
X138349999Y-77074999D03*
X136649999Y-77074999D03*
%TD*%
D41*
%TO.C,D2*%
X131649999Y-71399999D03*
X134949999Y-71399999D03*
%TD*%
D28*
%TO.C,C15*%
X128125000Y-76800000D03*
X128125000Y-75250000D03*
%TD*%
D29*
%TO.C,R18*%
X136890000Y-56700000D03*
X137910000Y-56700000D03*
%TD*%
D42*
%TO.C,Y1*%
X127724999Y-67974999D03*
X129374999Y-67974999D03*
X129374999Y-66424999D03*
X127724999Y-66424999D03*
%TD*%
D43*
%TO.C,U5*%
X129399999Y-70799999D03*
X129899999Y-70799999D03*
X130399999Y-70799999D03*
X130399999Y-69399999D03*
X129399999Y-69399999D03*
%TD*%
D41*
%TO.C,D1*%
X130149999Y-73399999D03*
X126849999Y-73399999D03*
%TD*%
D24*
%TO.C,R13*%
X117025000Y-76335000D03*
X117025000Y-75315000D03*
%TD*%
D28*
%TO.C,C12*%
X134025000Y-76800000D03*
X134025000Y-75250000D03*
%TD*%
D12*
%TO.C,C3*%
X115000000Y-65180000D03*
X115000000Y-64220000D03*
%TD*%
D24*
%TO.C,R7*%
X112200000Y-82360000D03*
X112200000Y-81340000D03*
%TD*%
D12*
%TO.C,C32*%
X123500000Y-62630000D03*
X123500000Y-61670000D03*
%TD*%
D44*
%TO.C,C23*%
X130200000Y-63040000D03*
X130200000Y-64000000D03*
%TD*%
D40*
%TO.C,SW1*%
X138349999Y-58199999D03*
X136649999Y-58199999D03*
X138349999Y-63799999D03*
X136649999Y-63799999D03*
%TD*%
D45*
%TO.C,R8*%
X111060000Y-82300000D03*
X110040000Y-82300000D03*
%TD*%
D28*
%TO.C,C13*%
X132550000Y-76800000D03*
X132550000Y-75250000D03*
%TD*%
D44*
%TO.C,C22*%
X117800000Y-66320000D03*
X117800000Y-67280000D03*
%TD*%
D24*
%TO.C,R15*%
X135200000Y-75710000D03*
X135200000Y-74690000D03*
%TD*%
D27*
%TO.C,C11*%
X138300000Y-91800000D03*
X139260000Y-91800000D03*
%TD*%
D29*
%TO.C,R19*%
X138790000Y-56700000D03*
X139810000Y-56700000D03*
%TD*%
D12*
%TO.C,C29*%
X118000000Y-65180000D03*
X118000000Y-64220000D03*
%TD*%
D40*
%TO.C,SW3*%
X138349999Y-84749999D03*
X136649999Y-84749999D03*
X138349999Y-90349999D03*
X136649999Y-90349999D03*
%TD*%
D28*
%TO.C,C14*%
X131075000Y-76800000D03*
X131075000Y-75250000D03*
%TD*%
D46*
%TO.C,D5*%
X111035000Y-81250000D03*
X110065000Y-81250000D03*
%TD*%
D44*
%TO.C,C21*%
X115000000Y-66320000D03*
X115000000Y-67280000D03*
%TD*%
D47*
%TO.C,SW4*%
X111741749Y-66985999D03*
X111741749Y-62413999D03*
D48*
X113583249Y-66374999D03*
X113583249Y-63024999D03*
%TD*%
D49*
%TO.C,D4*%
X116849999Y-81849999D03*
X114549999Y-81849999D03*
%TD*%
D44*
%TO.C,C31*%
X116900000Y-68220000D03*
X116900000Y-69180000D03*
%TD*%
%TO.C,C17*%
X110300000Y-91720000D03*
X110300000Y-92680000D03*
%TD*%
D50*
%TO.C,U9*%
X142799999Y-55799999D03*
X141999999Y-55799999D03*
X141999999Y-57199999D03*
X142799999Y-57199999D03*
%TD*%
D51*
%TO.C,C4*%
X112380000Y-86800000D03*
X111420000Y-86800000D03*
%TD*%
D41*
%TO.C,D3*%
X131649999Y-73399999D03*
X134949999Y-73399999D03*
%TD*%
D24*
%TO.C,R14*%
X136400000Y-66210000D03*
X136400000Y-65190000D03*
%TD*%
D51*
%TO.C,C5*%
X128300000Y-71800000D03*
X127340000Y-71800000D03*
%TD*%
D12*
%TO.C,C26*%
X139400000Y-66180000D03*
X139400000Y-65220000D03*
%TD*%
D52*
%TO.C,AE1*%
X125404999Y-61099999D03*
D53*
X127504999Y-61099999D03*
%TD*%
D45*
%TO.C,R4*%
X128310000Y-70800000D03*
X127290000Y-70800000D03*
%TD*%
D24*
%TO.C,R10*%
X117800000Y-69060000D03*
X117800000Y-68040000D03*
%TD*%
D44*
%TO.C,C20*%
X127400000Y-63020000D03*
X127400000Y-63980000D03*
%TD*%
D51*
%TO.C,C2*%
X128380000Y-69200000D03*
X127420000Y-69200000D03*
%TD*%
%TO.C,C7*%
X118080000Y-77300000D03*
X117120000Y-77300000D03*
%TD*%
D12*
%TO.C,C25*%
X138400000Y-66180000D03*
X138400000Y-65220000D03*
%TD*%
D29*
%TO.C,R2*%
X129390000Y-71800000D03*
X130410000Y-71800000D03*
%TD*%
D24*
%TO.C,R1*%
X114000000Y-65210000D03*
X114000000Y-64190000D03*
%TD*%
D44*
%TO.C,C33*%
X116900000Y-70020000D03*
X116900000Y-70980000D03*
%TD*%
D24*
%TO.C,R12*%
X116900000Y-72935000D03*
X116900000Y-71915000D03*
%TD*%
D54*
%TO.C,L2*%
X141199999Y-78499999D03*
X141199999Y-81299999D03*
%TD*%
D12*
%TO.C,C6*%
X118100000Y-76280000D03*
X118100000Y-75320000D03*
%TD*%
D24*
%TO.C,R5*%
X139450000Y-83660000D03*
X139450000Y-82640000D03*
%TD*%
D29*
%TO.C,R16*%
X136290000Y-91800000D03*
X137310000Y-91800000D03*
%TD*%
D12*
%TO.C,C34*%
X116000000Y-65180000D03*
X116000000Y-64220000D03*
%TD*%
M02*
